G75*
%MOIN*%
%OFA0B0*%
%FSLAX25Y25*%
%IPPOS*%
%LPD*%
%AMOC8*
5,1,8,0,0,1.08239X$1,22.5*
%
%ADD10R,0.03937X0.04331*%
%ADD11R,0.18110X0.03937*%
%ADD12R,0.13386X0.06299*%
%ADD13R,0.03543X0.03150*%
%ADD14R,0.04331X0.03937*%
%ADD15R,0.04724X0.02362*%
%ADD16R,0.00984X0.02756*%
%ADD17R,0.02756X0.00984*%
%ADD18R,0.20472X0.12598*%
%ADD19R,0.03858X0.14567*%
%ADD20R,0.05906X0.05118*%
%ADD21R,0.01969X0.00984*%
%ADD22R,0.02756X0.05118*%
%ADD23R,0.14173X0.05906*%
%ADD24R,0.05118X0.05906*%
%ADD25R,0.02559X0.04134*%
%ADD26R,0.03150X0.03543*%
%ADD27R,0.07087X0.06299*%
%ADD28C,0.00591*%
%ADD29C,0.01969*%
%ADD30C,0.01181*%
%ADD31R,0.02559X0.01969*%
%ADD32R,0.00984X0.03937*%
%ADD33R,0.03937X0.00984*%
%ADD34R,0.07874X0.07874*%
%ADD35R,0.09252X0.01772*%
%ADD36R,0.06102X0.05906*%
%ADD37R,0.07600X0.21000*%
%ADD38R,0.05512X0.03937*%
%ADD39R,0.03937X0.05512*%
%ADD40R,0.04724X0.02165*%
%ADD41R,0.03150X0.04724*%
%ADD42R,0.05512X0.04724*%
%ADD43C,0.01102*%
%ADD44R,0.00906X0.03150*%
%ADD45R,0.02362X0.03150*%
D10*
X0085946Y0061733D03*
X0085946Y0068426D03*
X0104843Y0068426D03*
X0104843Y0061733D03*
X0126694Y0061733D03*
X0126694Y0068426D03*
X0145591Y0068426D03*
X0145591Y0061733D03*
X0141457Y0077087D03*
X0122560Y0077087D03*
X0122560Y0083780D03*
X0141457Y0083780D03*
X0179450Y0085749D03*
X0186143Y0085749D03*
X0218820Y0100709D03*
X0218820Y0107402D03*
X0210355Y0106418D03*
X0203662Y0106418D03*
X0270985Y0111733D03*
X0277678Y0111733D03*
X0302284Y0108780D03*
X0308977Y0108780D03*
X0302481Y0098150D03*
X0295788Y0098150D03*
X0282009Y0086143D03*
X0282009Y0079450D03*
X0282009Y0067835D03*
X0282009Y0061143D03*
X0210946Y0069213D03*
X0204253Y0069213D03*
X0100709Y0077087D03*
X0100709Y0083780D03*
X0081812Y0083780D03*
X0081812Y0077087D03*
X0058780Y0113111D03*
X0058780Y0119804D03*
X0348938Y0098150D03*
X0355631Y0098150D03*
X0355631Y0089883D03*
X0348938Y0089883D03*
X0383190Y0086339D03*
X0389883Y0086339D03*
X0389883Y0075119D03*
X0383190Y0075119D03*
X0436143Y0077678D03*
X0448544Y0071379D03*
X0448544Y0064686D03*
X0448544Y0058977D03*
X0448544Y0052284D03*
X0436143Y0084371D03*
X0360552Y0124922D03*
X0360552Y0131615D03*
D11*
X0428072Y0116851D03*
X0428072Y0108977D03*
D12*
X0448544Y0099528D03*
X0448544Y0126300D03*
D13*
X0370985Y0065276D03*
X0362717Y0061536D03*
X0370985Y0057796D03*
X0264686Y0114489D03*
X0256418Y0118229D03*
X0264686Y0121969D03*
X0203662Y0098938D03*
X0211930Y0095198D03*
X0203662Y0091457D03*
X0186143Y0092639D03*
X0177875Y0096379D03*
X0186143Y0100119D03*
X0203662Y0084765D03*
X0211930Y0081024D03*
X0203662Y0077284D03*
D14*
X0195788Y0077087D03*
X0195788Y0083780D03*
X0195788Y0092442D03*
X0195788Y0099135D03*
X0137717Y0101694D03*
X0131024Y0101694D03*
X0131024Y0093426D03*
X0137717Y0093426D03*
X0133190Y0083780D03*
X0133190Y0077087D03*
X0114292Y0077087D03*
X0114292Y0083780D03*
X0092442Y0083780D03*
X0073544Y0083780D03*
X0073544Y0077087D03*
X0092442Y0077087D03*
X0096576Y0068426D03*
X0096576Y0061733D03*
X0077678Y0061733D03*
X0077678Y0068426D03*
X0118426Y0068426D03*
X0118426Y0061733D03*
X0137324Y0061733D03*
X0137324Y0068426D03*
X0137717Y0109961D03*
X0131024Y0109961D03*
X0131024Y0118229D03*
X0137717Y0118229D03*
X0137717Y0126497D03*
X0131024Y0126497D03*
X0131024Y0134765D03*
X0137717Y0134765D03*
X0101103Y0132993D03*
X0094410Y0132993D03*
X0069804Y0129450D03*
X0063111Y0129450D03*
X0067048Y0119804D03*
X0067048Y0113111D03*
X0078465Y0117639D03*
X0085158Y0117639D03*
X0330631Y0090473D03*
X0337324Y0090473D03*
X0395985Y0103072D03*
X0395985Y0109765D03*
X0351694Y0124922D03*
X0342835Y0124922D03*
X0342835Y0131615D03*
X0351694Y0131615D03*
X0371379Y0134174D03*
X0378072Y0134174D03*
X0440276Y0071379D03*
X0440276Y0064686D03*
X0440276Y0058977D03*
X0440276Y0052284D03*
X0377678Y0058190D03*
X0377678Y0064883D03*
D15*
X0241064Y0075887D03*
X0241064Y0080887D03*
X0241064Y0085887D03*
X0241064Y0090887D03*
X0219017Y0090887D03*
X0219017Y0085887D03*
X0219017Y0080887D03*
X0219017Y0075887D03*
D16*
X0115080Y0094607D03*
X0113111Y0094607D03*
X0111143Y0094607D03*
X0109174Y0094607D03*
X0107206Y0094607D03*
X0105237Y0094607D03*
X0103269Y0094607D03*
X0101300Y0094607D03*
X0099331Y0094607D03*
X0097363Y0094607D03*
X0095394Y0094607D03*
X0093426Y0094607D03*
X0093426Y0113505D03*
X0095394Y0113505D03*
X0097363Y0113505D03*
X0099331Y0113505D03*
X0101300Y0113505D03*
X0103269Y0113505D03*
X0105237Y0113505D03*
X0107206Y0113505D03*
X0109174Y0113505D03*
X0111143Y0113505D03*
X0113111Y0113505D03*
X0115080Y0113505D03*
D17*
X0117639Y0109961D03*
X0117639Y0107993D03*
X0117639Y0106024D03*
X0117639Y0104056D03*
X0117639Y0102087D03*
X0117639Y0100119D03*
X0117639Y0098150D03*
X0090867Y0098150D03*
X0090867Y0100119D03*
X0090867Y0102087D03*
X0090867Y0104056D03*
X0090867Y0106024D03*
X0090867Y0107993D03*
X0090867Y0109961D03*
D18*
X0104253Y0104056D03*
D19*
X0372422Y0103465D03*
X0381753Y0103465D03*
D20*
X0360552Y0109174D03*
X0351694Y0109174D03*
X0342835Y0109174D03*
X0342835Y0116654D03*
X0351694Y0116654D03*
X0360552Y0116654D03*
X0393032Y0120394D03*
X0401300Y0120394D03*
X0401300Y0127875D03*
X0393032Y0127875D03*
D21*
X0298741Y0128072D03*
X0298741Y0130040D03*
X0298741Y0126103D03*
X0298741Y0124135D03*
X0291261Y0124135D03*
X0291261Y0126103D03*
X0291261Y0128072D03*
X0291261Y0130040D03*
D22*
X0295001Y0127087D03*
D23*
X0278465Y0122560D03*
X0278465Y0131615D03*
D24*
X0263898Y0132402D03*
X0256418Y0132402D03*
D25*
X0039686Y0053957D03*
X0050709Y0053957D03*
X0050709Y0070296D03*
X0039686Y0070296D03*
X0039686Y0112422D03*
X0050709Y0112422D03*
X0050709Y0128761D03*
X0039686Y0128761D03*
D26*
X0308977Y0116064D03*
X0316457Y0116064D03*
X0312717Y0124331D03*
X0403465Y0103072D03*
X0410946Y0103072D03*
X0410946Y0097954D03*
X0403465Y0097954D03*
X0407206Y0089686D03*
X0407206Y0111339D03*
D27*
X0328662Y0120985D03*
X0328662Y0132009D03*
X0244804Y0129646D03*
X0244804Y0118623D03*
D28*
X0300808Y0081221D02*
X0301398Y0081221D01*
X0300808Y0081221D02*
X0300808Y0083387D01*
X0301398Y0083387D01*
X0301398Y0081221D01*
X0301398Y0081811D02*
X0300808Y0081811D01*
X0300808Y0082401D02*
X0301398Y0082401D01*
X0301398Y0082991D02*
X0300808Y0082991D01*
X0302777Y0081221D02*
X0303367Y0081221D01*
X0302777Y0081221D02*
X0302777Y0083387D01*
X0303367Y0083387D01*
X0303367Y0081221D01*
X0303367Y0081811D02*
X0302777Y0081811D01*
X0302777Y0082401D02*
X0303367Y0082401D01*
X0303367Y0082991D02*
X0302777Y0082991D01*
X0304745Y0081221D02*
X0305335Y0081221D01*
X0304745Y0081221D02*
X0304745Y0083387D01*
X0305335Y0083387D01*
X0305335Y0081221D01*
X0305335Y0081811D02*
X0304745Y0081811D01*
X0304745Y0082401D02*
X0305335Y0082401D01*
X0305335Y0082991D02*
X0304745Y0082991D01*
X0306714Y0081221D02*
X0307304Y0081221D01*
X0306714Y0081221D02*
X0306714Y0083387D01*
X0307304Y0083387D01*
X0307304Y0081221D01*
X0307304Y0081811D02*
X0306714Y0081811D01*
X0306714Y0082401D02*
X0307304Y0082401D01*
X0307304Y0082991D02*
X0306714Y0082991D01*
X0308682Y0081221D02*
X0309272Y0081221D01*
X0308682Y0081221D02*
X0308682Y0083387D01*
X0309272Y0083387D01*
X0309272Y0081221D01*
X0309272Y0081811D02*
X0308682Y0081811D01*
X0308682Y0082401D02*
X0309272Y0082401D01*
X0309272Y0082991D02*
X0308682Y0082991D01*
X0310651Y0081221D02*
X0311241Y0081221D01*
X0310651Y0081221D02*
X0310651Y0083387D01*
X0311241Y0083387D01*
X0311241Y0081221D01*
X0311241Y0081811D02*
X0310651Y0081811D01*
X0310651Y0082401D02*
X0311241Y0082401D01*
X0311241Y0082991D02*
X0310651Y0082991D01*
X0312619Y0081221D02*
X0313209Y0081221D01*
X0312619Y0081221D02*
X0312619Y0083387D01*
X0313209Y0083387D01*
X0313209Y0081221D01*
X0313209Y0081811D02*
X0312619Y0081811D01*
X0312619Y0082401D02*
X0313209Y0082401D01*
X0313209Y0082991D02*
X0312619Y0082991D01*
X0314588Y0081221D02*
X0315178Y0081221D01*
X0314588Y0081221D02*
X0314588Y0083387D01*
X0315178Y0083387D01*
X0315178Y0081221D01*
X0315178Y0081811D02*
X0314588Y0081811D01*
X0314588Y0082401D02*
X0315178Y0082401D01*
X0315178Y0082991D02*
X0314588Y0082991D01*
X0316556Y0081221D02*
X0317146Y0081221D01*
X0316556Y0081221D02*
X0316556Y0083387D01*
X0317146Y0083387D01*
X0317146Y0081221D01*
X0317146Y0081811D02*
X0316556Y0081811D01*
X0316556Y0082401D02*
X0317146Y0082401D01*
X0317146Y0082991D02*
X0316556Y0082991D01*
X0318525Y0081221D02*
X0319115Y0081221D01*
X0318525Y0081221D02*
X0318525Y0083387D01*
X0319115Y0083387D01*
X0319115Y0081221D01*
X0319115Y0081811D02*
X0318525Y0081811D01*
X0318525Y0082401D02*
X0319115Y0082401D01*
X0319115Y0082991D02*
X0318525Y0082991D01*
X0320493Y0081221D02*
X0321083Y0081221D01*
X0320493Y0081221D02*
X0320493Y0083387D01*
X0321083Y0083387D01*
X0321083Y0081221D01*
X0321083Y0081811D02*
X0320493Y0081811D01*
X0320493Y0082401D02*
X0321083Y0082401D01*
X0321083Y0082991D02*
X0320493Y0082991D01*
X0322953Y0078761D02*
X0325119Y0078761D01*
X0322953Y0078761D02*
X0322953Y0079351D01*
X0325119Y0079351D01*
X0325119Y0078761D01*
X0325119Y0079351D02*
X0322953Y0079351D01*
X0322953Y0076792D02*
X0325119Y0076792D01*
X0322953Y0076792D02*
X0322953Y0077382D01*
X0325119Y0077382D01*
X0325119Y0076792D01*
X0325119Y0077382D02*
X0322953Y0077382D01*
X0322953Y0074824D02*
X0325119Y0074824D01*
X0322953Y0074824D02*
X0322953Y0075414D01*
X0325119Y0075414D01*
X0325119Y0074824D01*
X0325119Y0075414D02*
X0322953Y0075414D01*
X0322953Y0072855D02*
X0325119Y0072855D01*
X0322953Y0072855D02*
X0322953Y0073445D01*
X0325119Y0073445D01*
X0325119Y0072855D01*
X0325119Y0073445D02*
X0322953Y0073445D01*
X0322953Y0070887D02*
X0325119Y0070887D01*
X0322953Y0070887D02*
X0322953Y0071477D01*
X0325119Y0071477D01*
X0325119Y0070887D01*
X0325119Y0071477D02*
X0322953Y0071477D01*
X0322953Y0068918D02*
X0325119Y0068918D01*
X0322953Y0068918D02*
X0322953Y0069508D01*
X0325119Y0069508D01*
X0325119Y0068918D01*
X0325119Y0069508D02*
X0322953Y0069508D01*
X0322953Y0066950D02*
X0325119Y0066950D01*
X0322953Y0066950D02*
X0322953Y0067540D01*
X0325119Y0067540D01*
X0325119Y0066950D01*
X0325119Y0067540D02*
X0322953Y0067540D01*
X0322953Y0064981D02*
X0325119Y0064981D01*
X0322953Y0064981D02*
X0322953Y0065571D01*
X0325119Y0065571D01*
X0325119Y0064981D01*
X0325119Y0065571D02*
X0322953Y0065571D01*
X0322953Y0063013D02*
X0325119Y0063013D01*
X0322953Y0063013D02*
X0322953Y0063603D01*
X0325119Y0063603D01*
X0325119Y0063013D01*
X0325119Y0063603D02*
X0322953Y0063603D01*
X0322953Y0061044D02*
X0325119Y0061044D01*
X0322953Y0061044D02*
X0322953Y0061634D01*
X0325119Y0061634D01*
X0325119Y0061044D01*
X0325119Y0061634D02*
X0322953Y0061634D01*
X0322953Y0059076D02*
X0325119Y0059076D01*
X0322953Y0059076D02*
X0322953Y0059666D01*
X0325119Y0059666D01*
X0325119Y0059076D01*
X0325119Y0059666D02*
X0322953Y0059666D01*
X0321083Y0055040D02*
X0320493Y0055040D01*
X0320493Y0057206D01*
X0321083Y0057206D01*
X0321083Y0055040D01*
X0321083Y0055630D02*
X0320493Y0055630D01*
X0320493Y0056220D02*
X0321083Y0056220D01*
X0321083Y0056810D02*
X0320493Y0056810D01*
X0319115Y0055040D02*
X0318525Y0055040D01*
X0318525Y0057206D01*
X0319115Y0057206D01*
X0319115Y0055040D01*
X0319115Y0055630D02*
X0318525Y0055630D01*
X0318525Y0056220D02*
X0319115Y0056220D01*
X0319115Y0056810D02*
X0318525Y0056810D01*
X0317146Y0055040D02*
X0316556Y0055040D01*
X0316556Y0057206D01*
X0317146Y0057206D01*
X0317146Y0055040D01*
X0317146Y0055630D02*
X0316556Y0055630D01*
X0316556Y0056220D02*
X0317146Y0056220D01*
X0317146Y0056810D02*
X0316556Y0056810D01*
X0315178Y0055040D02*
X0314588Y0055040D01*
X0314588Y0057206D01*
X0315178Y0057206D01*
X0315178Y0055040D01*
X0315178Y0055630D02*
X0314588Y0055630D01*
X0314588Y0056220D02*
X0315178Y0056220D01*
X0315178Y0056810D02*
X0314588Y0056810D01*
X0313209Y0055040D02*
X0312619Y0055040D01*
X0312619Y0057206D01*
X0313209Y0057206D01*
X0313209Y0055040D01*
X0313209Y0055630D02*
X0312619Y0055630D01*
X0312619Y0056220D02*
X0313209Y0056220D01*
X0313209Y0056810D02*
X0312619Y0056810D01*
X0311241Y0055040D02*
X0310651Y0055040D01*
X0310651Y0057206D01*
X0311241Y0057206D01*
X0311241Y0055040D01*
X0311241Y0055630D02*
X0310651Y0055630D01*
X0310651Y0056220D02*
X0311241Y0056220D01*
X0311241Y0056810D02*
X0310651Y0056810D01*
X0309272Y0055040D02*
X0308682Y0055040D01*
X0308682Y0057206D01*
X0309272Y0057206D01*
X0309272Y0055040D01*
X0309272Y0055630D02*
X0308682Y0055630D01*
X0308682Y0056220D02*
X0309272Y0056220D01*
X0309272Y0056810D02*
X0308682Y0056810D01*
X0307304Y0055040D02*
X0306714Y0055040D01*
X0306714Y0057206D01*
X0307304Y0057206D01*
X0307304Y0055040D01*
X0307304Y0055630D02*
X0306714Y0055630D01*
X0306714Y0056220D02*
X0307304Y0056220D01*
X0307304Y0056810D02*
X0306714Y0056810D01*
X0305335Y0055040D02*
X0304745Y0055040D01*
X0304745Y0057206D01*
X0305335Y0057206D01*
X0305335Y0055040D01*
X0305335Y0055630D02*
X0304745Y0055630D01*
X0304745Y0056220D02*
X0305335Y0056220D01*
X0305335Y0056810D02*
X0304745Y0056810D01*
X0303367Y0055040D02*
X0302777Y0055040D01*
X0302777Y0057206D01*
X0303367Y0057206D01*
X0303367Y0055040D01*
X0303367Y0055630D02*
X0302777Y0055630D01*
X0302777Y0056220D02*
X0303367Y0056220D01*
X0303367Y0056810D02*
X0302777Y0056810D01*
X0301398Y0055040D02*
X0300808Y0055040D01*
X0300808Y0057206D01*
X0301398Y0057206D01*
X0301398Y0055040D01*
X0301398Y0055630D02*
X0300808Y0055630D01*
X0300808Y0056220D02*
X0301398Y0056220D01*
X0301398Y0056810D02*
X0300808Y0056810D01*
X0298938Y0059076D02*
X0296772Y0059076D01*
X0296772Y0059666D01*
X0298938Y0059666D01*
X0298938Y0059076D01*
X0298938Y0059666D02*
X0296772Y0059666D01*
X0296772Y0061044D02*
X0298938Y0061044D01*
X0296772Y0061044D02*
X0296772Y0061634D01*
X0298938Y0061634D01*
X0298938Y0061044D01*
X0298938Y0061634D02*
X0296772Y0061634D01*
X0296772Y0063013D02*
X0298938Y0063013D01*
X0296772Y0063013D02*
X0296772Y0063603D01*
X0298938Y0063603D01*
X0298938Y0063013D01*
X0298938Y0063603D02*
X0296772Y0063603D01*
X0296772Y0064981D02*
X0298938Y0064981D01*
X0296772Y0064981D02*
X0296772Y0065571D01*
X0298938Y0065571D01*
X0298938Y0064981D01*
X0298938Y0065571D02*
X0296772Y0065571D01*
X0296772Y0066950D02*
X0298938Y0066950D01*
X0296772Y0066950D02*
X0296772Y0067540D01*
X0298938Y0067540D01*
X0298938Y0066950D01*
X0298938Y0067540D02*
X0296772Y0067540D01*
X0296772Y0068918D02*
X0298938Y0068918D01*
X0296772Y0068918D02*
X0296772Y0069508D01*
X0298938Y0069508D01*
X0298938Y0068918D01*
X0298938Y0069508D02*
X0296772Y0069508D01*
X0296772Y0070887D02*
X0298938Y0070887D01*
X0296772Y0070887D02*
X0296772Y0071477D01*
X0298938Y0071477D01*
X0298938Y0070887D01*
X0298938Y0071477D02*
X0296772Y0071477D01*
X0296772Y0072855D02*
X0298938Y0072855D01*
X0296772Y0072855D02*
X0296772Y0073445D01*
X0298938Y0073445D01*
X0298938Y0072855D01*
X0298938Y0073445D02*
X0296772Y0073445D01*
X0296772Y0074824D02*
X0298938Y0074824D01*
X0296772Y0074824D02*
X0296772Y0075414D01*
X0298938Y0075414D01*
X0298938Y0074824D01*
X0298938Y0075414D02*
X0296772Y0075414D01*
X0296772Y0076792D02*
X0298938Y0076792D01*
X0296772Y0076792D02*
X0296772Y0077382D01*
X0298938Y0077382D01*
X0298938Y0076792D01*
X0298938Y0077382D02*
X0296772Y0077382D01*
X0296772Y0078761D02*
X0298938Y0078761D01*
X0296772Y0078761D02*
X0296772Y0079351D01*
X0298938Y0079351D01*
X0298938Y0078761D01*
X0298938Y0079351D02*
X0296772Y0079351D01*
D29*
X0302088Y0060355D02*
X0319804Y0060355D01*
X0302088Y0060355D02*
X0302088Y0078071D01*
X0319804Y0078071D01*
X0319804Y0060355D01*
X0319804Y0062323D02*
X0302088Y0062323D01*
X0302088Y0064291D02*
X0319804Y0064291D01*
X0319804Y0066259D02*
X0302088Y0066259D01*
X0302088Y0068227D02*
X0319804Y0068227D01*
X0319804Y0070195D02*
X0302088Y0070195D01*
X0302088Y0072163D02*
X0319804Y0072163D01*
X0319804Y0074131D02*
X0302088Y0074131D01*
X0302088Y0076099D02*
X0319804Y0076099D01*
X0319804Y0078067D02*
X0302088Y0078067D01*
D30*
X0401694Y0073060D02*
X0404450Y0073060D01*
X0401694Y0073060D02*
X0401694Y0075816D01*
X0404450Y0075816D01*
X0404450Y0073060D01*
X0404450Y0074240D02*
X0401694Y0074240D01*
X0401694Y0075420D02*
X0404450Y0075420D01*
X0404450Y0066154D02*
X0401694Y0066154D01*
X0401694Y0068910D01*
X0404450Y0068910D01*
X0404450Y0066154D01*
X0404450Y0067334D02*
X0401694Y0067334D01*
X0401694Y0068514D02*
X0404450Y0068514D01*
X0404450Y0058099D02*
X0401694Y0058099D01*
X0404450Y0058099D02*
X0404450Y0055343D01*
X0401694Y0055343D01*
X0401694Y0058099D01*
X0401694Y0056523D02*
X0404450Y0056523D01*
X0404450Y0057703D02*
X0401694Y0057703D01*
X0401694Y0051194D02*
X0404450Y0051194D01*
X0404450Y0048438D01*
X0401694Y0048438D01*
X0401694Y0051194D01*
X0401694Y0049618D02*
X0404450Y0049618D01*
X0404450Y0050798D02*
X0401694Y0050798D01*
D31*
X0398446Y0057993D03*
X0398446Y0061143D03*
X0393524Y0061143D03*
X0393524Y0057993D03*
X0393524Y0064292D03*
X0398446Y0064292D03*
X0398446Y0067442D03*
X0393524Y0067442D03*
D32*
X0418749Y0072828D03*
X0420717Y0072828D03*
X0422686Y0072828D03*
X0424654Y0072828D03*
X0426623Y0072828D03*
X0426623Y0057080D03*
X0424654Y0057080D03*
X0422686Y0057080D03*
X0420717Y0057080D03*
X0418749Y0057080D03*
D33*
X0414812Y0061017D03*
X0414812Y0062985D03*
X0414812Y0064954D03*
X0414812Y0066922D03*
X0414812Y0068891D03*
X0430560Y0068891D03*
X0430560Y0066922D03*
X0430560Y0064954D03*
X0430560Y0062985D03*
X0430560Y0061017D03*
D34*
X0422686Y0064954D03*
D35*
X0460257Y0060158D03*
X0460257Y0057599D03*
X0460257Y0055040D03*
X0460257Y0052481D03*
X0460257Y0049922D03*
D36*
X0472757Y0051103D03*
X0472757Y0058977D03*
X0472757Y0067048D03*
X0472757Y0043032D03*
D37*
X0262520Y0060253D03*
X0262520Y0098253D03*
D38*
X0365670Y0080434D03*
X0374331Y0084174D03*
X0374331Y0076694D03*
D39*
X0350709Y0074725D03*
X0343229Y0074725D03*
X0346969Y0066064D03*
D40*
X0086930Y0125119D03*
X0086930Y0128859D03*
X0086930Y0132599D03*
X0076694Y0132599D03*
X0076694Y0128859D03*
X0076694Y0125119D03*
D41*
X0330434Y0098150D03*
X0337520Y0098150D03*
D42*
X0287324Y0098150D03*
X0287324Y0109961D03*
D43*
X0370158Y0118426D02*
X0372402Y0118426D01*
X0372402Y0120394D02*
X0370158Y0120394D01*
X0370158Y0122363D02*
X0372402Y0122363D01*
X0372402Y0124331D02*
X0370158Y0124331D01*
X0370158Y0126300D02*
X0372402Y0126300D01*
X0381772Y0126300D02*
X0384016Y0126300D01*
X0384016Y0124331D02*
X0381772Y0124331D01*
X0381772Y0122363D02*
X0384016Y0122363D01*
X0384016Y0120394D02*
X0381772Y0120394D01*
X0381772Y0118426D02*
X0384016Y0118426D01*
D44*
X0379450Y0116615D03*
X0377875Y0116615D03*
X0376300Y0116615D03*
X0374725Y0116615D03*
X0374725Y0128111D03*
X0376300Y0128111D03*
X0377875Y0128111D03*
X0379450Y0128111D03*
D45*
X0378662Y0124331D03*
X0375513Y0124331D03*
X0375513Y0120394D03*
X0378662Y0120394D03*
M02*
