G75*
%MOIN*%
%OFA0B0*%
%FSLAX25Y25*%
%IPPOS*%
%LPD*%
%AMOC8*
5,1,8,0,0,1.08239X$1,22.5*
%
%ADD10R,0.01102X0.01772*%
%ADD11R,0.04528X0.04921*%
%ADD12C,0.06991*%
%ADD13R,0.18701X0.04528*%
%ADD14R,0.13976X0.06890*%
%ADD15R,0.06890X0.06890*%
%ADD16C,0.06890*%
%ADD17R,0.04134X0.03740*%
%ADD18R,0.04921X0.04528*%
%ADD19R,0.05315X0.02953*%
%ADD20R,0.01575X0.03346*%
%ADD21R,0.03346X0.01575*%
%ADD22R,0.21063X0.13189*%
%ADD23R,0.02000X0.03000*%
%ADD24C,0.04921*%
%ADD25R,0.02559X0.01575*%
%ADD26R,0.03898X0.10039*%
%ADD27R,0.04449X0.15157*%
%ADD28R,0.14764X0.06496*%
%ADD29R,0.03150X0.04724*%
%ADD30R,0.03740X0.04134*%
%ADD31R,0.06890X0.07677*%
%ADD32R,0.07677X0.06890*%
%ADD33C,0.00886*%
%ADD34C,0.02028*%
%ADD35R,0.05591X0.03091*%
%ADD36C,0.01358*%
%ADD37R,0.03150X0.02559*%
%ADD38R,0.01575X0.04528*%
%ADD39R,0.04528X0.01575*%
%ADD40R,0.08465X0.08465*%
%ADD41R,0.09843X0.02362*%
%ADD42C,0.05709*%
%ADD43R,0.06693X0.06496*%
%ADD44R,0.08191X0.21591*%
%ADD45R,0.06102X0.04528*%
%ADD46R,0.04528X0.06102*%
%ADD47R,0.05315X0.02756*%
%ADD48R,0.03740X0.05315*%
%ADD49R,0.06102X0.05315*%
%ADD50C,0.02972*%
%ADD51OC8,0.03150*%
%ADD52C,0.23091*%
D10*
X0095434Y0108682D03*
D11*
X0058780Y0113111D03*
X0058780Y0119804D03*
X0081812Y0083780D03*
X0081812Y0077087D03*
X0100709Y0077087D03*
X0100709Y0083780D03*
X0122560Y0083780D03*
X0141457Y0083780D03*
X0141457Y0077087D03*
X0122560Y0077087D03*
X0126694Y0068426D03*
X0126694Y0061733D03*
X0145591Y0061733D03*
X0145591Y0068426D03*
X0104843Y0068426D03*
X0104843Y0061733D03*
X0085946Y0061733D03*
X0085946Y0068426D03*
X0179450Y0085749D03*
X0186143Y0085749D03*
X0218820Y0100709D03*
X0218820Y0107402D03*
X0210355Y0106418D03*
X0203662Y0106418D03*
X0270985Y0111733D03*
X0277678Y0111733D03*
X0302284Y0108780D03*
X0308977Y0108780D03*
X0302481Y0098150D03*
X0295788Y0098150D03*
X0282009Y0086143D03*
X0282009Y0079450D03*
X0282009Y0067835D03*
X0282009Y0061143D03*
X0210946Y0069213D03*
X0204253Y0069213D03*
X0342835Y0107206D03*
X0351694Y0107206D03*
X0360552Y0107206D03*
X0360552Y0113898D03*
X0351694Y0113898D03*
X0342835Y0113898D03*
X0360552Y0119607D03*
X0360552Y0126300D03*
X0383583Y0126891D03*
X0391851Y0126891D03*
X0391851Y0120198D03*
X0383583Y0120198D03*
X0355631Y0098150D03*
X0348938Y0098150D03*
X0348938Y0089883D03*
X0355631Y0089883D03*
X0383190Y0086339D03*
X0389883Y0086339D03*
X0389883Y0075119D03*
X0383190Y0075119D03*
X0436143Y0077678D03*
X0448544Y0071379D03*
X0448544Y0064686D03*
X0448544Y0058977D03*
X0448544Y0052284D03*
X0436143Y0084371D03*
D12*
X0219961Y0120906D03*
X0209961Y0120906D03*
X0199961Y0120906D03*
X0199961Y0130906D03*
X0209961Y0130906D03*
X0219961Y0130906D03*
D13*
X0428072Y0116851D03*
X0428072Y0108977D03*
D14*
X0448544Y0099528D03*
X0448544Y0126300D03*
D15*
X0316851Y0168426D03*
X0179253Y0168426D03*
X0041064Y0168426D03*
X0041064Y0020788D03*
X0179253Y0020788D03*
X0316851Y0020788D03*
D16*
X0303269Y0020788D03*
X0289489Y0020788D03*
X0275709Y0020788D03*
X0261930Y0020788D03*
X0248150Y0020788D03*
X0234371Y0020788D03*
X0220591Y0020788D03*
X0206812Y0020788D03*
X0193032Y0020788D03*
X0165080Y0020788D03*
X0151300Y0020788D03*
X0137520Y0020788D03*
X0123741Y0020788D03*
X0109961Y0020788D03*
X0096182Y0020788D03*
X0082402Y0020788D03*
X0068623Y0020788D03*
X0054843Y0020788D03*
X0330631Y0020788D03*
X0344410Y0020788D03*
X0358190Y0020788D03*
X0371969Y0020788D03*
X0385749Y0020788D03*
X0399528Y0020788D03*
X0413308Y0020788D03*
X0427087Y0020788D03*
X0440867Y0020788D03*
X0472757Y0041261D03*
X0472757Y0068820D03*
X0440867Y0168426D03*
X0427087Y0168426D03*
X0413308Y0168426D03*
X0399528Y0168426D03*
X0385749Y0168426D03*
X0371969Y0168426D03*
X0358190Y0168426D03*
X0344410Y0168426D03*
X0330631Y0168426D03*
X0303269Y0168426D03*
X0289489Y0168426D03*
X0275709Y0168426D03*
X0261930Y0168426D03*
X0248150Y0168426D03*
X0234371Y0168426D03*
X0220591Y0168426D03*
X0206812Y0168426D03*
X0193032Y0168426D03*
X0165080Y0168426D03*
X0151300Y0168426D03*
X0137520Y0168426D03*
X0123741Y0168426D03*
X0109961Y0168426D03*
X0096182Y0168426D03*
X0082402Y0168426D03*
X0068623Y0168426D03*
X0054843Y0168426D03*
X0153269Y0133780D03*
D17*
X0186143Y0100119D03*
X0177875Y0096379D03*
X0186143Y0092639D03*
X0203662Y0091457D03*
X0211930Y0095198D03*
X0203662Y0098938D03*
X0203662Y0084765D03*
X0211930Y0081024D03*
X0203662Y0077284D03*
X0264686Y0114489D03*
X0256418Y0118229D03*
X0264686Y0121969D03*
X0370985Y0065276D03*
X0362717Y0061536D03*
X0370985Y0057796D03*
D18*
X0377678Y0058190D03*
X0377678Y0064883D03*
X0337324Y0090473D03*
X0330631Y0090473D03*
X0394804Y0096576D03*
X0394804Y0103269D03*
X0351694Y0119607D03*
X0342835Y0119607D03*
X0342835Y0126300D03*
X0351694Y0126300D03*
X0360749Y0134174D03*
X0367442Y0134174D03*
X0298938Y0119410D03*
X0292245Y0119410D03*
X0195788Y0099135D03*
X0195788Y0092442D03*
X0195788Y0083780D03*
X0195788Y0077087D03*
X0137324Y0068426D03*
X0137324Y0061733D03*
X0118426Y0061733D03*
X0118426Y0068426D03*
X0114292Y0077087D03*
X0114292Y0083780D03*
X0133190Y0083780D03*
X0133190Y0077087D03*
X0096576Y0068426D03*
X0096576Y0061733D03*
X0077678Y0061733D03*
X0077678Y0068426D03*
X0073544Y0077087D03*
X0092442Y0077087D03*
X0092442Y0083780D03*
X0073544Y0083780D03*
X0131024Y0093426D03*
X0137717Y0093426D03*
X0137717Y0101694D03*
X0131024Y0101694D03*
X0131024Y0109961D03*
X0137717Y0109961D03*
X0137717Y0118229D03*
X0131024Y0118229D03*
X0131024Y0126497D03*
X0137717Y0126497D03*
X0137717Y0134765D03*
X0131024Y0134765D03*
X0101103Y0132993D03*
X0094410Y0132993D03*
X0069804Y0129450D03*
X0063111Y0129450D03*
X0067048Y0119804D03*
X0067048Y0113111D03*
X0078465Y0117639D03*
X0085158Y0117639D03*
X0440276Y0071379D03*
X0440276Y0064686D03*
X0440276Y0058977D03*
X0440276Y0052284D03*
D19*
X0241064Y0075887D03*
X0241064Y0080887D03*
X0241064Y0085887D03*
X0241064Y0090887D03*
X0219017Y0090887D03*
X0219017Y0085887D03*
X0219017Y0080887D03*
X0219017Y0075887D03*
D20*
X0115080Y0094607D03*
X0113111Y0094607D03*
X0111143Y0094607D03*
X0109174Y0094607D03*
X0107206Y0094607D03*
X0105237Y0094607D03*
X0103269Y0094607D03*
X0101300Y0094607D03*
X0099331Y0094607D03*
X0097363Y0094607D03*
X0095394Y0094607D03*
X0093426Y0094607D03*
X0093426Y0113505D03*
X0095394Y0113505D03*
X0097363Y0113505D03*
X0099331Y0113505D03*
X0101300Y0113505D03*
X0103269Y0113505D03*
X0105237Y0113505D03*
X0107206Y0113505D03*
X0109174Y0113505D03*
X0111143Y0113505D03*
X0113111Y0113505D03*
X0115080Y0113505D03*
D21*
X0117639Y0109961D03*
X0117639Y0107993D03*
X0117639Y0106024D03*
X0117639Y0104056D03*
X0117639Y0102087D03*
X0117639Y0100119D03*
X0117639Y0098150D03*
X0090867Y0098150D03*
X0090867Y0100119D03*
X0090867Y0102087D03*
X0090867Y0104056D03*
X0090867Y0106024D03*
X0090867Y0107993D03*
X0090867Y0109961D03*
D22*
X0104253Y0104056D03*
D23*
X0091453Y0095556D03*
D24*
X0153269Y0050709D03*
D25*
X0291851Y0126694D03*
X0291851Y0128662D03*
X0291851Y0130631D03*
X0291851Y0132599D03*
X0291851Y0134568D03*
X0299331Y0134568D03*
X0299331Y0132599D03*
X0299331Y0130631D03*
X0299331Y0128662D03*
X0299331Y0126694D03*
X0368623Y0126891D03*
X0368623Y0124922D03*
X0368623Y0122954D03*
X0368623Y0120985D03*
X0368623Y0119017D03*
X0376103Y0119017D03*
X0376103Y0120985D03*
X0376103Y0122954D03*
X0376103Y0124922D03*
X0376103Y0126891D03*
D26*
X0372363Y0122954D03*
X0295591Y0130631D03*
D27*
X0371831Y0105828D03*
X0381162Y0105828D03*
D28*
X0278465Y0122560D03*
X0278465Y0131615D03*
D29*
X0050709Y0128761D03*
X0039686Y0128761D03*
X0039686Y0112422D03*
X0050709Y0112422D03*
X0050709Y0070296D03*
X0039686Y0070296D03*
X0039686Y0053957D03*
X0050709Y0053957D03*
D30*
X0308977Y0116064D03*
X0316457Y0116064D03*
X0312717Y0124331D03*
X0402284Y0096576D03*
X0409765Y0096576D03*
X0409765Y0091457D03*
X0402284Y0091457D03*
X0406024Y0083190D03*
X0406024Y0104843D03*
D31*
X0260355Y0131221D03*
X0249331Y0131221D03*
D32*
X0328662Y0132009D03*
X0328662Y0120985D03*
D33*
X0321231Y0081074D02*
X0320345Y0081074D01*
X0320345Y0083534D01*
X0321231Y0083534D01*
X0321231Y0081074D01*
X0321231Y0081959D02*
X0320345Y0081959D01*
X0320345Y0082844D02*
X0321231Y0082844D01*
X0319263Y0081074D02*
X0318377Y0081074D01*
X0318377Y0083534D01*
X0319263Y0083534D01*
X0319263Y0081074D01*
X0319263Y0081959D02*
X0318377Y0081959D01*
X0318377Y0082844D02*
X0319263Y0082844D01*
X0317294Y0081074D02*
X0316408Y0081074D01*
X0316408Y0083534D01*
X0317294Y0083534D01*
X0317294Y0081074D01*
X0317294Y0081959D02*
X0316408Y0081959D01*
X0316408Y0082844D02*
X0317294Y0082844D01*
X0315326Y0081074D02*
X0314440Y0081074D01*
X0314440Y0083534D01*
X0315326Y0083534D01*
X0315326Y0081074D01*
X0315326Y0081959D02*
X0314440Y0081959D01*
X0314440Y0082844D02*
X0315326Y0082844D01*
X0313357Y0081074D02*
X0312471Y0081074D01*
X0312471Y0083534D01*
X0313357Y0083534D01*
X0313357Y0081074D01*
X0313357Y0081959D02*
X0312471Y0081959D01*
X0312471Y0082844D02*
X0313357Y0082844D01*
X0311389Y0081074D02*
X0310503Y0081074D01*
X0310503Y0083534D01*
X0311389Y0083534D01*
X0311389Y0081074D01*
X0311389Y0081959D02*
X0310503Y0081959D01*
X0310503Y0082844D02*
X0311389Y0082844D01*
X0309420Y0081074D02*
X0308534Y0081074D01*
X0308534Y0083534D01*
X0309420Y0083534D01*
X0309420Y0081074D01*
X0309420Y0081959D02*
X0308534Y0081959D01*
X0308534Y0082844D02*
X0309420Y0082844D01*
X0307452Y0081074D02*
X0306566Y0081074D01*
X0306566Y0083534D01*
X0307452Y0083534D01*
X0307452Y0081074D01*
X0307452Y0081959D02*
X0306566Y0081959D01*
X0306566Y0082844D02*
X0307452Y0082844D01*
X0305483Y0081074D02*
X0304597Y0081074D01*
X0304597Y0083534D01*
X0305483Y0083534D01*
X0305483Y0081074D01*
X0305483Y0081959D02*
X0304597Y0081959D01*
X0304597Y0082844D02*
X0305483Y0082844D01*
X0303515Y0081074D02*
X0302629Y0081074D01*
X0302629Y0083534D01*
X0303515Y0083534D01*
X0303515Y0081074D01*
X0303515Y0081959D02*
X0302629Y0081959D01*
X0302629Y0082844D02*
X0303515Y0082844D01*
X0301546Y0081074D02*
X0300660Y0081074D01*
X0300660Y0083534D01*
X0301546Y0083534D01*
X0301546Y0081074D01*
X0301546Y0081959D02*
X0300660Y0081959D01*
X0300660Y0082844D02*
X0301546Y0082844D01*
X0299085Y0078613D02*
X0296625Y0078613D01*
X0296625Y0079499D01*
X0299085Y0079499D01*
X0299085Y0078613D01*
X0299085Y0079498D02*
X0296625Y0079498D01*
X0296625Y0076644D02*
X0299085Y0076644D01*
X0296625Y0076644D02*
X0296625Y0077530D01*
X0299085Y0077530D01*
X0299085Y0076644D01*
X0299085Y0077529D02*
X0296625Y0077529D01*
X0296625Y0074676D02*
X0299085Y0074676D01*
X0296625Y0074676D02*
X0296625Y0075562D01*
X0299085Y0075562D01*
X0299085Y0074676D01*
X0299085Y0075561D02*
X0296625Y0075561D01*
X0296625Y0072707D02*
X0299085Y0072707D01*
X0296625Y0072707D02*
X0296625Y0073593D01*
X0299085Y0073593D01*
X0299085Y0072707D01*
X0299085Y0073592D02*
X0296625Y0073592D01*
X0296625Y0070739D02*
X0299085Y0070739D01*
X0296625Y0070739D02*
X0296625Y0071625D01*
X0299085Y0071625D01*
X0299085Y0070739D01*
X0299085Y0071624D02*
X0296625Y0071624D01*
X0296625Y0068770D02*
X0299085Y0068770D01*
X0296625Y0068770D02*
X0296625Y0069656D01*
X0299085Y0069656D01*
X0299085Y0068770D01*
X0299085Y0069655D02*
X0296625Y0069655D01*
X0296625Y0066802D02*
X0299085Y0066802D01*
X0296625Y0066802D02*
X0296625Y0067688D01*
X0299085Y0067688D01*
X0299085Y0066802D01*
X0299085Y0067687D02*
X0296625Y0067687D01*
X0296625Y0064833D02*
X0299085Y0064833D01*
X0296625Y0064833D02*
X0296625Y0065719D01*
X0299085Y0065719D01*
X0299085Y0064833D01*
X0299085Y0065718D02*
X0296625Y0065718D01*
X0296625Y0062865D02*
X0299085Y0062865D01*
X0296625Y0062865D02*
X0296625Y0063751D01*
X0299085Y0063751D01*
X0299085Y0062865D01*
X0299085Y0063750D02*
X0296625Y0063750D01*
X0296625Y0060896D02*
X0299085Y0060896D01*
X0296625Y0060896D02*
X0296625Y0061782D01*
X0299085Y0061782D01*
X0299085Y0060896D01*
X0299085Y0061781D02*
X0296625Y0061781D01*
X0296625Y0058928D02*
X0299085Y0058928D01*
X0296625Y0058928D02*
X0296625Y0059814D01*
X0299085Y0059814D01*
X0299085Y0058928D01*
X0299085Y0059813D02*
X0296625Y0059813D01*
X0300660Y0054893D02*
X0301546Y0054893D01*
X0300660Y0054893D02*
X0300660Y0057353D01*
X0301546Y0057353D01*
X0301546Y0054893D01*
X0301546Y0055778D02*
X0300660Y0055778D01*
X0300660Y0056663D02*
X0301546Y0056663D01*
X0302629Y0054893D02*
X0303515Y0054893D01*
X0302629Y0054893D02*
X0302629Y0057353D01*
X0303515Y0057353D01*
X0303515Y0054893D01*
X0303515Y0055778D02*
X0302629Y0055778D01*
X0302629Y0056663D02*
X0303515Y0056663D01*
X0304597Y0054893D02*
X0305483Y0054893D01*
X0304597Y0054893D02*
X0304597Y0057353D01*
X0305483Y0057353D01*
X0305483Y0054893D01*
X0305483Y0055778D02*
X0304597Y0055778D01*
X0304597Y0056663D02*
X0305483Y0056663D01*
X0306566Y0054893D02*
X0307452Y0054893D01*
X0306566Y0054893D02*
X0306566Y0057353D01*
X0307452Y0057353D01*
X0307452Y0054893D01*
X0307452Y0055778D02*
X0306566Y0055778D01*
X0306566Y0056663D02*
X0307452Y0056663D01*
X0308534Y0054893D02*
X0309420Y0054893D01*
X0308534Y0054893D02*
X0308534Y0057353D01*
X0309420Y0057353D01*
X0309420Y0054893D01*
X0309420Y0055778D02*
X0308534Y0055778D01*
X0308534Y0056663D02*
X0309420Y0056663D01*
X0310503Y0054893D02*
X0311389Y0054893D01*
X0310503Y0054893D02*
X0310503Y0057353D01*
X0311389Y0057353D01*
X0311389Y0054893D01*
X0311389Y0055778D02*
X0310503Y0055778D01*
X0310503Y0056663D02*
X0311389Y0056663D01*
X0312471Y0054893D02*
X0313357Y0054893D01*
X0312471Y0054893D02*
X0312471Y0057353D01*
X0313357Y0057353D01*
X0313357Y0054893D01*
X0313357Y0055778D02*
X0312471Y0055778D01*
X0312471Y0056663D02*
X0313357Y0056663D01*
X0314440Y0054893D02*
X0315326Y0054893D01*
X0314440Y0054893D02*
X0314440Y0057353D01*
X0315326Y0057353D01*
X0315326Y0054893D01*
X0315326Y0055778D02*
X0314440Y0055778D01*
X0314440Y0056663D02*
X0315326Y0056663D01*
X0316408Y0054893D02*
X0317294Y0054893D01*
X0316408Y0054893D02*
X0316408Y0057353D01*
X0317294Y0057353D01*
X0317294Y0054893D01*
X0317294Y0055778D02*
X0316408Y0055778D01*
X0316408Y0056663D02*
X0317294Y0056663D01*
X0318377Y0054893D02*
X0319263Y0054893D01*
X0318377Y0054893D02*
X0318377Y0057353D01*
X0319263Y0057353D01*
X0319263Y0054893D01*
X0319263Y0055778D02*
X0318377Y0055778D01*
X0318377Y0056663D02*
X0319263Y0056663D01*
X0320345Y0054893D02*
X0321231Y0054893D01*
X0320345Y0054893D02*
X0320345Y0057353D01*
X0321231Y0057353D01*
X0321231Y0054893D01*
X0321231Y0055778D02*
X0320345Y0055778D01*
X0320345Y0056663D02*
X0321231Y0056663D01*
X0322806Y0058928D02*
X0325266Y0058928D01*
X0322806Y0058928D02*
X0322806Y0059814D01*
X0325266Y0059814D01*
X0325266Y0058928D01*
X0325266Y0059813D02*
X0322806Y0059813D01*
X0322806Y0060896D02*
X0325266Y0060896D01*
X0322806Y0060896D02*
X0322806Y0061782D01*
X0325266Y0061782D01*
X0325266Y0060896D01*
X0325266Y0061781D02*
X0322806Y0061781D01*
X0322806Y0062865D02*
X0325266Y0062865D01*
X0322806Y0062865D02*
X0322806Y0063751D01*
X0325266Y0063751D01*
X0325266Y0062865D01*
X0325266Y0063750D02*
X0322806Y0063750D01*
X0322806Y0064833D02*
X0325266Y0064833D01*
X0322806Y0064833D02*
X0322806Y0065719D01*
X0325266Y0065719D01*
X0325266Y0064833D01*
X0325266Y0065718D02*
X0322806Y0065718D01*
X0322806Y0066802D02*
X0325266Y0066802D01*
X0322806Y0066802D02*
X0322806Y0067688D01*
X0325266Y0067688D01*
X0325266Y0066802D01*
X0325266Y0067687D02*
X0322806Y0067687D01*
X0322806Y0068770D02*
X0325266Y0068770D01*
X0322806Y0068770D02*
X0322806Y0069656D01*
X0325266Y0069656D01*
X0325266Y0068770D01*
X0325266Y0069655D02*
X0322806Y0069655D01*
X0322806Y0070739D02*
X0325266Y0070739D01*
X0322806Y0070739D02*
X0322806Y0071625D01*
X0325266Y0071625D01*
X0325266Y0070739D01*
X0325266Y0071624D02*
X0322806Y0071624D01*
X0322806Y0072707D02*
X0325266Y0072707D01*
X0322806Y0072707D02*
X0322806Y0073593D01*
X0325266Y0073593D01*
X0325266Y0072707D01*
X0325266Y0073592D02*
X0322806Y0073592D01*
X0322806Y0074676D02*
X0325266Y0074676D01*
X0322806Y0074676D02*
X0322806Y0075562D01*
X0325266Y0075562D01*
X0325266Y0074676D01*
X0325266Y0075561D02*
X0322806Y0075561D01*
X0322806Y0076644D02*
X0325266Y0076644D01*
X0322806Y0076644D02*
X0322806Y0077530D01*
X0325266Y0077530D01*
X0325266Y0076644D01*
X0325266Y0077529D02*
X0322806Y0077529D01*
X0322806Y0078613D02*
X0325266Y0078613D01*
X0322806Y0078613D02*
X0322806Y0079499D01*
X0325266Y0079499D01*
X0325266Y0078613D01*
X0325266Y0079498D02*
X0322806Y0079498D01*
D34*
X0320070Y0060089D02*
X0301822Y0060089D01*
X0301822Y0078337D01*
X0320070Y0078337D01*
X0320070Y0060089D01*
X0320070Y0062116D02*
X0301822Y0062116D01*
X0301822Y0064143D02*
X0320070Y0064143D01*
X0320070Y0066170D02*
X0301822Y0066170D01*
X0301822Y0068197D02*
X0320070Y0068197D01*
X0320070Y0070224D02*
X0301822Y0070224D01*
X0301822Y0072251D02*
X0320070Y0072251D01*
X0320070Y0074278D02*
X0301822Y0074278D01*
X0301822Y0076305D02*
X0320070Y0076305D01*
X0320070Y0078332D02*
X0301822Y0078332D01*
D35*
X0118426Y0055269D03*
X0118426Y0051269D03*
X0096576Y0050678D03*
X0096576Y0054678D03*
D36*
X0401487Y0058306D02*
X0404657Y0058306D01*
X0404657Y0055136D01*
X0401487Y0055136D01*
X0401487Y0058306D01*
X0401487Y0056493D02*
X0404657Y0056493D01*
X0404657Y0057850D02*
X0401487Y0057850D01*
X0401487Y0051401D02*
X0404657Y0051401D01*
X0404657Y0048231D01*
X0401487Y0048231D01*
X0401487Y0051401D01*
X0401487Y0049588D02*
X0404657Y0049588D01*
X0404657Y0050945D02*
X0401487Y0050945D01*
X0401487Y0065947D02*
X0404657Y0065947D01*
X0401487Y0065947D02*
X0401487Y0069117D01*
X0404657Y0069117D01*
X0404657Y0065947D01*
X0404657Y0067304D02*
X0401487Y0067304D01*
X0401487Y0068661D02*
X0404657Y0068661D01*
X0404657Y0072853D02*
X0401487Y0072853D01*
X0401487Y0076023D01*
X0404657Y0076023D01*
X0404657Y0072853D01*
X0404657Y0074210D02*
X0401487Y0074210D01*
X0401487Y0075567D02*
X0404657Y0075567D01*
D37*
X0398446Y0067442D03*
X0393524Y0067442D03*
X0393524Y0064292D03*
X0398446Y0064292D03*
X0398446Y0061143D03*
X0398446Y0057993D03*
X0393524Y0057993D03*
X0393524Y0061143D03*
D38*
X0418749Y0057080D03*
X0420717Y0057080D03*
X0422686Y0057080D03*
X0424654Y0057080D03*
X0426623Y0057080D03*
X0426623Y0072828D03*
X0424654Y0072828D03*
X0422686Y0072828D03*
X0420717Y0072828D03*
X0418749Y0072828D03*
D39*
X0414812Y0068891D03*
X0414812Y0066922D03*
X0414812Y0064954D03*
X0414812Y0062985D03*
X0414812Y0061017D03*
X0430560Y0061017D03*
X0430560Y0062985D03*
X0430560Y0064954D03*
X0430560Y0066922D03*
X0430560Y0068891D03*
D40*
X0422686Y0064954D03*
D41*
X0460257Y0060158D03*
X0460257Y0057599D03*
X0460257Y0055040D03*
X0460257Y0052481D03*
X0460257Y0049922D03*
D42*
X0462127Y0045198D03*
X0462127Y0064883D03*
D43*
X0472757Y0067048D03*
X0472757Y0058977D03*
X0472757Y0051103D03*
X0472757Y0043032D03*
D44*
X0262520Y0060253D03*
X0262520Y0098253D03*
D45*
X0365670Y0080434D03*
X0374331Y0084174D03*
X0374331Y0076694D03*
D46*
X0350709Y0074725D03*
X0343229Y0074725D03*
X0346969Y0066064D03*
D47*
X0086930Y0125119D03*
X0086930Y0128859D03*
X0086930Y0132599D03*
X0076694Y0132599D03*
X0076694Y0128859D03*
X0076694Y0125119D03*
D48*
X0330434Y0098150D03*
X0337520Y0098150D03*
D49*
X0287324Y0098150D03*
X0287324Y0109961D03*
D50*
X0299135Y0115276D03*
X0301497Y0112914D03*
X0310946Y0104646D03*
X0319804Y0101694D03*
X0327481Y0104056D03*
X0333387Y0094607D03*
X0313308Y0091654D03*
X0309765Y0094607D03*
X0305040Y0094017D03*
X0306812Y0088111D03*
X0304450Y0085749D03*
X0300906Y0085749D03*
X0298544Y0082796D03*
X0286143Y0085158D03*
X0290276Y0092245D03*
X0280828Y0100513D03*
X0290276Y0102875D03*
X0295001Y0102284D03*
X0248938Y0089883D03*
X0245985Y0086930D03*
X0224135Y0086339D03*
X0210552Y0084568D03*
X0210552Y0090473D03*
X0205828Y0095198D03*
X0213505Y0102875D03*
X0196379Y0113505D03*
X0175119Y0108780D03*
X0145001Y0101103D03*
X0134371Y0105828D03*
X0124922Y0102284D03*
X0134371Y0114095D03*
X0145001Y0116457D03*
X0147363Y0121182D03*
X0122560Y0125316D03*
X0121379Y0131221D03*
X0117245Y0130631D03*
X0102481Y0122954D03*
X0103072Y0118820D03*
X0097757Y0127678D03*
X0175119Y0092835D03*
X0175119Y0086339D03*
X0175119Y0076300D03*
X0147954Y0088702D03*
X0137324Y0083977D03*
X0118426Y0074528D03*
X0089489Y0065080D03*
X0127284Y0057402D03*
X0137324Y0053859D03*
X0179843Y0032599D03*
X0188702Y0017245D03*
X0256024Y0023150D03*
X0296772Y0037914D03*
X0314489Y0042048D03*
X0320985Y0044410D03*
X0333977Y0037324D03*
X0338702Y0036143D03*
X0333977Y0033780D03*
X0340473Y0033190D03*
X0333977Y0030237D03*
X0340473Y0026103D03*
X0322166Y0036143D03*
X0338702Y0039686D03*
X0338702Y0045591D03*
X0339883Y0049135D03*
X0323347Y0056812D03*
X0311536Y0052087D03*
X0296772Y0056812D03*
X0288505Y0052678D03*
X0296772Y0046772D03*
X0256615Y0051497D03*
X0250709Y0046182D03*
X0290867Y0067442D03*
X0286143Y0070985D03*
X0290867Y0073347D03*
X0286143Y0075709D03*
X0248938Y0070985D03*
X0246576Y0073347D03*
X0327481Y0070985D03*
X0327481Y0063308D03*
X0342245Y0059174D03*
X0364686Y0057993D03*
X0390670Y0069804D03*
X0410749Y0063308D03*
X0434371Y0069213D03*
X0436143Y0063898D03*
X0425513Y0077481D03*
X0359961Y0099922D03*
X0350513Y0083387D03*
X0346969Y0083387D03*
X0328662Y0082796D03*
X0379450Y0119410D03*
X0340473Y0130631D03*
X0335749Y0132402D03*
X0321576Y0129450D03*
X0335749Y0125906D03*
X0306812Y0122954D03*
X0295591Y0123544D03*
X0295591Y0137717D03*
X0251891Y0142442D03*
X0227678Y0140080D03*
X0222954Y0144804D03*
X0227678Y0149528D03*
X0211733Y0159568D03*
X0185158Y0175513D03*
X0156812Y0161339D03*
X0089489Y0169017D03*
X0270198Y0175513D03*
X0309765Y0173150D03*
X0106024Y0091064D03*
X0111339Y0089292D03*
X0103662Y0088702D03*
X0100119Y0088702D03*
X0093623Y0091064D03*
X0087127Y0087520D03*
X0052875Y0026694D03*
X0046379Y0020198D03*
X0309765Y0021969D03*
X0332206Y0013111D03*
X0375906Y0044410D03*
D51*
X0436143Y0047954D03*
X0364686Y0072166D03*
X0335749Y0075119D03*
X0313898Y0095198D03*
X0281418Y0107009D03*
X0256024Y0108190D03*
X0238898Y0106418D03*
X0224135Y0108190D03*
X0276103Y0094017D03*
X0333387Y0110552D03*
X0300906Y0123544D03*
X0402481Y0159568D03*
X0430828Y0159568D03*
X0407206Y0112324D03*
X0416654Y0108780D03*
X0181615Y0081024D03*
X0142639Y0093426D03*
X0137324Y0073347D03*
X0113702Y0071576D03*
X0105434Y0073938D03*
X0077678Y0073347D03*
X0126694Y0049725D03*
X0144410Y0055040D03*
X0142048Y0030828D03*
X0078269Y0099331D03*
X0093623Y0160749D03*
X0143229Y0160158D03*
D52*
X0015080Y0019017D03*
X0015080Y0170198D03*
X0466261Y0170198D03*
X0466261Y0019017D03*
M02*
