G75*
%MOIN*%
%OFA0B0*%
%FSLAX25Y25*%
%IPPOS*%
%LPD*%
%AMOC8*
5,1,8,0,0,1.08239X$1,22.5*
%
%ADD10R,0.03937X0.04331*%
%ADD11R,0.18110X0.03937*%
%ADD12R,0.13386X0.06299*%
%ADD13R,0.03543X0.03150*%
%ADD14R,0.03150X0.03543*%
%ADD15R,0.04724X0.02362*%
%ADD16R,0.00984X0.02756*%
%ADD17R,0.02756X0.00984*%
%ADD18R,0.20472X0.12598*%
%ADD19R,0.03858X0.14567*%
%ADD20R,0.04331X0.03937*%
%ADD21R,0.05906X0.05118*%
%ADD22R,0.01969X0.00984*%
%ADD23R,0.02756X0.05118*%
%ADD24R,0.05118X0.05906*%
%ADD25R,0.02559X0.04134*%
%ADD26C,0.00591*%
%ADD27C,0.01969*%
%ADD28C,0.01181*%
%ADD29R,0.02559X0.01969*%
%ADD30R,0.00984X0.03937*%
%ADD31R,0.03937X0.00984*%
%ADD32R,0.07874X0.07874*%
%ADD33R,0.09252X0.01772*%
%ADD34R,0.06102X0.05906*%
%ADD35R,0.07600X0.21000*%
%ADD36R,0.03937X0.05512*%
%ADD37R,0.05512X0.03937*%
%ADD38R,0.04724X0.02165*%
%ADD39R,0.05512X0.04724*%
%ADD40C,0.01102*%
%ADD41R,0.00906X0.03150*%
%ADD42R,0.02362X0.03150*%
%ADD43R,0.04724X0.03346*%
%ADD44R,0.11024X0.09449*%
%ADD45R,0.07087X0.06299*%
D10*
X0085946Y0061733D03*
X0085946Y0068426D03*
X0104843Y0068426D03*
X0104843Y0061733D03*
X0126694Y0061733D03*
X0126694Y0068426D03*
X0145591Y0068426D03*
X0145591Y0061733D03*
X0141457Y0077087D03*
X0122560Y0077087D03*
X0122560Y0083780D03*
X0141457Y0083780D03*
X0165867Y0091654D03*
X0172560Y0091654D03*
X0182402Y0096969D03*
X0189095Y0096969D03*
X0212914Y0093820D03*
X0212914Y0087127D03*
X0202087Y0080434D03*
X0195394Y0080434D03*
X0189095Y0074528D03*
X0182402Y0074528D03*
X0195394Y0058583D03*
X0202087Y0058583D03*
X0282009Y0061143D03*
X0282009Y0067835D03*
X0282009Y0072954D03*
X0282009Y0079646D03*
X0300513Y0099331D03*
X0307206Y0099331D03*
X0348938Y0098150D03*
X0355631Y0098150D03*
X0355631Y0089883D03*
X0348938Y0089883D03*
X0339292Y0077284D03*
X0339292Y0070591D03*
X0428662Y0061536D03*
X0435355Y0061536D03*
X0435355Y0053269D03*
X0428662Y0053269D03*
X0268229Y0115867D03*
X0261536Y0115867D03*
X0360552Y0124922D03*
X0360552Y0131615D03*
X0098938Y0125709D03*
X0098938Y0119017D03*
X0100709Y0083780D03*
X0100709Y0077087D03*
X0081812Y0077087D03*
X0081812Y0083780D03*
D11*
X0449922Y0133190D03*
X0449922Y0141064D03*
D12*
X0470394Y0150513D03*
X0470394Y0123741D03*
D13*
X0400906Y0096576D03*
X0409174Y0092835D03*
X0400906Y0089095D03*
X0400513Y0102678D03*
X0392245Y0106418D03*
X0400513Y0110158D03*
X0268229Y0122757D03*
X0259961Y0126497D03*
X0268229Y0130237D03*
X0172560Y0107796D03*
X0164292Y0104056D03*
X0172560Y0100316D03*
D14*
X0198741Y0095394D03*
X0202481Y0087127D03*
X0195001Y0087127D03*
X0198741Y0073544D03*
X0202481Y0065276D03*
X0195001Y0065276D03*
X0324922Y0093623D03*
X0332402Y0093623D03*
X0328662Y0101891D03*
X0324922Y0106615D03*
X0332402Y0106615D03*
X0328662Y0114883D03*
D15*
X0243426Y0090887D03*
X0243426Y0085887D03*
X0243426Y0080887D03*
X0243426Y0075887D03*
X0221379Y0075887D03*
X0221379Y0080887D03*
X0221379Y0085887D03*
X0221379Y0090887D03*
D16*
X0115080Y0095788D03*
X0113111Y0095788D03*
X0111143Y0095788D03*
X0109174Y0095788D03*
X0107206Y0095788D03*
X0105237Y0095788D03*
X0103269Y0095788D03*
X0101300Y0095788D03*
X0099331Y0095788D03*
X0097363Y0095788D03*
X0095394Y0095788D03*
X0093426Y0095788D03*
X0093426Y0114686D03*
X0095394Y0114686D03*
X0097363Y0114686D03*
X0099331Y0114686D03*
X0101300Y0114686D03*
X0103269Y0114686D03*
X0105237Y0114686D03*
X0107206Y0114686D03*
X0109174Y0114686D03*
X0111143Y0114686D03*
X0113111Y0114686D03*
X0115080Y0114686D03*
D17*
X0117639Y0111143D03*
X0117639Y0109174D03*
X0117639Y0107206D03*
X0117639Y0105237D03*
X0117639Y0103269D03*
X0117639Y0101300D03*
X0117639Y0099331D03*
X0090867Y0099331D03*
X0090867Y0101300D03*
X0090867Y0103269D03*
X0090867Y0105237D03*
X0090867Y0107206D03*
X0090867Y0109174D03*
X0090867Y0111143D03*
D18*
X0104253Y0105237D03*
D19*
X0372422Y0103465D03*
X0381753Y0103465D03*
D20*
X0077678Y0061733D03*
X0077678Y0068426D03*
X0096576Y0068426D03*
X0096576Y0061733D03*
X0118426Y0061733D03*
X0118426Y0068426D03*
X0137324Y0068426D03*
X0137324Y0061733D03*
X0133190Y0077087D03*
X0133190Y0083780D03*
X0114292Y0083780D03*
X0114292Y0077087D03*
X0092442Y0077087D03*
X0073544Y0077087D03*
X0073544Y0083780D03*
X0077678Y0090080D03*
X0092442Y0083780D03*
X0077678Y0096772D03*
X0077678Y0101891D03*
X0077678Y0108583D03*
X0067048Y0113111D03*
X0067048Y0119804D03*
X0078465Y0117639D03*
X0085158Y0117639D03*
X0069213Y0130040D03*
X0062520Y0130040D03*
X0092639Y0133583D03*
X0099331Y0133583D03*
X0131024Y0134765D03*
X0137717Y0134765D03*
X0137717Y0126497D03*
X0131024Y0126497D03*
X0131024Y0118229D03*
X0137717Y0118229D03*
X0137717Y0109961D03*
X0131024Y0109961D03*
X0131024Y0101694D03*
X0137717Y0101694D03*
X0137717Y0093426D03*
X0131024Y0093426D03*
X0285158Y0052678D03*
X0291851Y0052678D03*
X0393623Y0089489D03*
X0393623Y0096182D03*
X0407206Y0103072D03*
X0407206Y0109765D03*
X0351694Y0124922D03*
X0342835Y0124922D03*
X0342835Y0131615D03*
X0351694Y0131615D03*
X0371379Y0134174D03*
X0378072Y0134174D03*
X0318032Y0113898D03*
X0318032Y0107206D03*
X0318032Y0101497D03*
X0318032Y0094804D03*
X0397954Y0052087D03*
X0404646Y0052087D03*
X0440473Y0053269D03*
X0447166Y0053269D03*
X0447166Y0061536D03*
X0440473Y0061536D03*
D21*
X0360552Y0109174D03*
X0351694Y0109174D03*
X0342835Y0109174D03*
X0342835Y0116654D03*
X0351694Y0116654D03*
X0360552Y0116654D03*
X0390670Y0120394D03*
X0401300Y0120394D03*
X0401300Y0127875D03*
X0390670Y0127875D03*
X0303269Y0125119D03*
X0303269Y0132599D03*
D22*
X0295788Y0125906D03*
X0295788Y0123938D03*
X0295788Y0121969D03*
X0295788Y0120001D03*
X0288308Y0120001D03*
X0288308Y0121969D03*
X0288308Y0123938D03*
X0288308Y0125906D03*
D23*
X0292048Y0122954D03*
D24*
X0289883Y0132993D03*
X0282402Y0132993D03*
D25*
X0045394Y0123446D03*
X0034371Y0123446D03*
X0034371Y0107107D03*
X0045394Y0107107D03*
X0045985Y0079745D03*
X0034961Y0079745D03*
X0034961Y0063406D03*
X0045985Y0063406D03*
D26*
X0295000Y0063407D02*
X0297166Y0063407D01*
X0295000Y0063407D02*
X0295000Y0063997D01*
X0297166Y0063997D01*
X0297166Y0063407D01*
X0297166Y0063997D02*
X0295000Y0063997D01*
X0295000Y0065375D02*
X0297166Y0065375D01*
X0295000Y0065375D02*
X0295000Y0065965D01*
X0297166Y0065965D01*
X0297166Y0065375D01*
X0297166Y0065965D02*
X0295000Y0065965D01*
X0295000Y0067344D02*
X0297166Y0067344D01*
X0295000Y0067344D02*
X0295000Y0067934D01*
X0297166Y0067934D01*
X0297166Y0067344D01*
X0297166Y0067934D02*
X0295000Y0067934D01*
X0295000Y0069312D02*
X0297166Y0069312D01*
X0295000Y0069312D02*
X0295000Y0069902D01*
X0297166Y0069902D01*
X0297166Y0069312D01*
X0297166Y0069902D02*
X0295000Y0069902D01*
X0295000Y0071281D02*
X0297166Y0071281D01*
X0295000Y0071281D02*
X0295000Y0071871D01*
X0297166Y0071871D01*
X0297166Y0071281D01*
X0297166Y0071871D02*
X0295000Y0071871D01*
X0295000Y0073249D02*
X0297166Y0073249D01*
X0295000Y0073249D02*
X0295000Y0073839D01*
X0297166Y0073839D01*
X0297166Y0073249D01*
X0297166Y0073839D02*
X0295000Y0073839D01*
X0295000Y0075218D02*
X0297166Y0075218D01*
X0295000Y0075218D02*
X0295000Y0075808D01*
X0297166Y0075808D01*
X0297166Y0075218D01*
X0297166Y0075808D02*
X0295000Y0075808D01*
X0295000Y0077186D02*
X0297166Y0077186D01*
X0295000Y0077186D02*
X0295000Y0077776D01*
X0297166Y0077776D01*
X0297166Y0077186D01*
X0297166Y0077776D02*
X0295000Y0077776D01*
X0295000Y0079155D02*
X0297166Y0079155D01*
X0295000Y0079155D02*
X0295000Y0079745D01*
X0297166Y0079745D01*
X0297166Y0079155D01*
X0297166Y0079745D02*
X0295000Y0079745D01*
X0295000Y0081123D02*
X0297166Y0081123D01*
X0295000Y0081123D02*
X0295000Y0081713D01*
X0297166Y0081713D01*
X0297166Y0081123D01*
X0297166Y0081713D02*
X0295000Y0081713D01*
X0299036Y0083583D02*
X0299626Y0083583D01*
X0299036Y0083583D02*
X0299036Y0085749D01*
X0299626Y0085749D01*
X0299626Y0083583D01*
X0299626Y0084173D02*
X0299036Y0084173D01*
X0299036Y0084763D02*
X0299626Y0084763D01*
X0299626Y0085353D02*
X0299036Y0085353D01*
X0301005Y0083583D02*
X0301595Y0083583D01*
X0301005Y0083583D02*
X0301005Y0085749D01*
X0301595Y0085749D01*
X0301595Y0083583D01*
X0301595Y0084173D02*
X0301005Y0084173D01*
X0301005Y0084763D02*
X0301595Y0084763D01*
X0301595Y0085353D02*
X0301005Y0085353D01*
X0302974Y0083583D02*
X0303564Y0083583D01*
X0302974Y0083583D02*
X0302974Y0085749D01*
X0303564Y0085749D01*
X0303564Y0083583D01*
X0303564Y0084173D02*
X0302974Y0084173D01*
X0302974Y0084763D02*
X0303564Y0084763D01*
X0303564Y0085353D02*
X0302974Y0085353D01*
X0304942Y0083583D02*
X0305532Y0083583D01*
X0304942Y0083583D02*
X0304942Y0085749D01*
X0305532Y0085749D01*
X0305532Y0083583D01*
X0305532Y0084173D02*
X0304942Y0084173D01*
X0304942Y0084763D02*
X0305532Y0084763D01*
X0305532Y0085353D02*
X0304942Y0085353D01*
X0306911Y0083583D02*
X0307501Y0083583D01*
X0306911Y0083583D02*
X0306911Y0085749D01*
X0307501Y0085749D01*
X0307501Y0083583D01*
X0307501Y0084173D02*
X0306911Y0084173D01*
X0306911Y0084763D02*
X0307501Y0084763D01*
X0307501Y0085353D02*
X0306911Y0085353D01*
X0308879Y0083583D02*
X0309469Y0083583D01*
X0308879Y0083583D02*
X0308879Y0085749D01*
X0309469Y0085749D01*
X0309469Y0083583D01*
X0309469Y0084173D02*
X0308879Y0084173D01*
X0308879Y0084763D02*
X0309469Y0084763D01*
X0309469Y0085353D02*
X0308879Y0085353D01*
X0310848Y0083583D02*
X0311438Y0083583D01*
X0310848Y0083583D02*
X0310848Y0085749D01*
X0311438Y0085749D01*
X0311438Y0083583D01*
X0311438Y0084173D02*
X0310848Y0084173D01*
X0310848Y0084763D02*
X0311438Y0084763D01*
X0311438Y0085353D02*
X0310848Y0085353D01*
X0312816Y0083583D02*
X0313406Y0083583D01*
X0312816Y0083583D02*
X0312816Y0085749D01*
X0313406Y0085749D01*
X0313406Y0083583D01*
X0313406Y0084173D02*
X0312816Y0084173D01*
X0312816Y0084763D02*
X0313406Y0084763D01*
X0313406Y0085353D02*
X0312816Y0085353D01*
X0314785Y0083583D02*
X0315375Y0083583D01*
X0314785Y0083583D02*
X0314785Y0085749D01*
X0315375Y0085749D01*
X0315375Y0083583D01*
X0315375Y0084173D02*
X0314785Y0084173D01*
X0314785Y0084763D02*
X0315375Y0084763D01*
X0315375Y0085353D02*
X0314785Y0085353D01*
X0316753Y0083583D02*
X0317343Y0083583D01*
X0316753Y0083583D02*
X0316753Y0085749D01*
X0317343Y0085749D01*
X0317343Y0083583D01*
X0317343Y0084173D02*
X0316753Y0084173D01*
X0316753Y0084763D02*
X0317343Y0084763D01*
X0317343Y0085353D02*
X0316753Y0085353D01*
X0318722Y0083583D02*
X0319312Y0083583D01*
X0318722Y0083583D02*
X0318722Y0085749D01*
X0319312Y0085749D01*
X0319312Y0083583D01*
X0319312Y0084173D02*
X0318722Y0084173D01*
X0318722Y0084763D02*
X0319312Y0084763D01*
X0319312Y0085353D02*
X0318722Y0085353D01*
X0321182Y0081123D02*
X0323348Y0081123D01*
X0321182Y0081123D02*
X0321182Y0081713D01*
X0323348Y0081713D01*
X0323348Y0081123D01*
X0323348Y0081713D02*
X0321182Y0081713D01*
X0321182Y0079155D02*
X0323348Y0079155D01*
X0321182Y0079155D02*
X0321182Y0079745D01*
X0323348Y0079745D01*
X0323348Y0079155D01*
X0323348Y0079745D02*
X0321182Y0079745D01*
X0321182Y0077186D02*
X0323348Y0077186D01*
X0321182Y0077186D02*
X0321182Y0077776D01*
X0323348Y0077776D01*
X0323348Y0077186D01*
X0323348Y0077776D02*
X0321182Y0077776D01*
X0321182Y0075218D02*
X0323348Y0075218D01*
X0321182Y0075218D02*
X0321182Y0075808D01*
X0323348Y0075808D01*
X0323348Y0075218D01*
X0323348Y0075808D02*
X0321182Y0075808D01*
X0321182Y0073249D02*
X0323348Y0073249D01*
X0321182Y0073249D02*
X0321182Y0073839D01*
X0323348Y0073839D01*
X0323348Y0073249D01*
X0323348Y0073839D02*
X0321182Y0073839D01*
X0321182Y0071281D02*
X0323348Y0071281D01*
X0321182Y0071281D02*
X0321182Y0071871D01*
X0323348Y0071871D01*
X0323348Y0071281D01*
X0323348Y0071871D02*
X0321182Y0071871D01*
X0321182Y0069312D02*
X0323348Y0069312D01*
X0321182Y0069312D02*
X0321182Y0069902D01*
X0323348Y0069902D01*
X0323348Y0069312D01*
X0323348Y0069902D02*
X0321182Y0069902D01*
X0321182Y0067344D02*
X0323348Y0067344D01*
X0321182Y0067344D02*
X0321182Y0067934D01*
X0323348Y0067934D01*
X0323348Y0067344D01*
X0323348Y0067934D02*
X0321182Y0067934D01*
X0321182Y0065375D02*
X0323348Y0065375D01*
X0321182Y0065375D02*
X0321182Y0065965D01*
X0323348Y0065965D01*
X0323348Y0065375D01*
X0323348Y0065965D02*
X0321182Y0065965D01*
X0321182Y0063407D02*
X0323348Y0063407D01*
X0321182Y0063407D02*
X0321182Y0063997D01*
X0323348Y0063997D01*
X0323348Y0063407D01*
X0323348Y0063997D02*
X0321182Y0063997D01*
X0321182Y0061438D02*
X0323348Y0061438D01*
X0321182Y0061438D02*
X0321182Y0062028D01*
X0323348Y0062028D01*
X0323348Y0061438D01*
X0323348Y0062028D02*
X0321182Y0062028D01*
X0319312Y0057402D02*
X0318722Y0057402D01*
X0318722Y0059568D01*
X0319312Y0059568D01*
X0319312Y0057402D01*
X0319312Y0057992D02*
X0318722Y0057992D01*
X0318722Y0058582D02*
X0319312Y0058582D01*
X0319312Y0059172D02*
X0318722Y0059172D01*
X0317343Y0057402D02*
X0316753Y0057402D01*
X0316753Y0059568D01*
X0317343Y0059568D01*
X0317343Y0057402D01*
X0317343Y0057992D02*
X0316753Y0057992D01*
X0316753Y0058582D02*
X0317343Y0058582D01*
X0317343Y0059172D02*
X0316753Y0059172D01*
X0315375Y0057402D02*
X0314785Y0057402D01*
X0314785Y0059568D01*
X0315375Y0059568D01*
X0315375Y0057402D01*
X0315375Y0057992D02*
X0314785Y0057992D01*
X0314785Y0058582D02*
X0315375Y0058582D01*
X0315375Y0059172D02*
X0314785Y0059172D01*
X0313406Y0057402D02*
X0312816Y0057402D01*
X0312816Y0059568D01*
X0313406Y0059568D01*
X0313406Y0057402D01*
X0313406Y0057992D02*
X0312816Y0057992D01*
X0312816Y0058582D02*
X0313406Y0058582D01*
X0313406Y0059172D02*
X0312816Y0059172D01*
X0311438Y0057402D02*
X0310848Y0057402D01*
X0310848Y0059568D01*
X0311438Y0059568D01*
X0311438Y0057402D01*
X0311438Y0057992D02*
X0310848Y0057992D01*
X0310848Y0058582D02*
X0311438Y0058582D01*
X0311438Y0059172D02*
X0310848Y0059172D01*
X0309469Y0057402D02*
X0308879Y0057402D01*
X0308879Y0059568D01*
X0309469Y0059568D01*
X0309469Y0057402D01*
X0309469Y0057992D02*
X0308879Y0057992D01*
X0308879Y0058582D02*
X0309469Y0058582D01*
X0309469Y0059172D02*
X0308879Y0059172D01*
X0307501Y0057402D02*
X0306911Y0057402D01*
X0306911Y0059568D01*
X0307501Y0059568D01*
X0307501Y0057402D01*
X0307501Y0057992D02*
X0306911Y0057992D01*
X0306911Y0058582D02*
X0307501Y0058582D01*
X0307501Y0059172D02*
X0306911Y0059172D01*
X0305532Y0057402D02*
X0304942Y0057402D01*
X0304942Y0059568D01*
X0305532Y0059568D01*
X0305532Y0057402D01*
X0305532Y0057992D02*
X0304942Y0057992D01*
X0304942Y0058582D02*
X0305532Y0058582D01*
X0305532Y0059172D02*
X0304942Y0059172D01*
X0303564Y0057402D02*
X0302974Y0057402D01*
X0302974Y0059568D01*
X0303564Y0059568D01*
X0303564Y0057402D01*
X0303564Y0057992D02*
X0302974Y0057992D01*
X0302974Y0058582D02*
X0303564Y0058582D01*
X0303564Y0059172D02*
X0302974Y0059172D01*
X0301595Y0057402D02*
X0301005Y0057402D01*
X0301005Y0059568D01*
X0301595Y0059568D01*
X0301595Y0057402D01*
X0301595Y0057992D02*
X0301005Y0057992D01*
X0301005Y0058582D02*
X0301595Y0058582D01*
X0301595Y0059172D02*
X0301005Y0059172D01*
X0299626Y0057402D02*
X0299036Y0057402D01*
X0299036Y0059568D01*
X0299626Y0059568D01*
X0299626Y0057402D01*
X0299626Y0057992D02*
X0299036Y0057992D01*
X0299036Y0058582D02*
X0299626Y0058582D01*
X0299626Y0059172D02*
X0299036Y0059172D01*
X0297166Y0061438D02*
X0295000Y0061438D01*
X0295000Y0062028D01*
X0297166Y0062028D01*
X0297166Y0061438D01*
X0297166Y0062028D02*
X0295000Y0062028D01*
D27*
X0300316Y0062718D02*
X0318032Y0062718D01*
X0300316Y0062718D02*
X0300316Y0080434D01*
X0318032Y0080434D01*
X0318032Y0062718D01*
X0318032Y0064686D02*
X0300316Y0064686D01*
X0300316Y0066654D02*
X0318032Y0066654D01*
X0318032Y0068622D02*
X0300316Y0068622D01*
X0300316Y0070590D02*
X0318032Y0070590D01*
X0318032Y0072558D02*
X0300316Y0072558D01*
X0300316Y0074526D02*
X0318032Y0074526D01*
X0318032Y0076494D02*
X0300316Y0076494D01*
X0300316Y0078462D02*
X0318032Y0078462D01*
X0318032Y0080430D02*
X0300316Y0080430D01*
D28*
X0386930Y0076603D02*
X0389686Y0076603D01*
X0386930Y0076603D02*
X0386930Y0079359D01*
X0389686Y0079359D01*
X0389686Y0076603D01*
X0389686Y0077783D02*
X0386930Y0077783D01*
X0386930Y0078963D02*
X0389686Y0078963D01*
X0389686Y0069698D02*
X0386930Y0069698D01*
X0386930Y0072454D01*
X0389686Y0072454D01*
X0389686Y0069698D01*
X0389686Y0070878D02*
X0386930Y0070878D01*
X0386930Y0072058D02*
X0389686Y0072058D01*
X0390276Y0062824D02*
X0387520Y0062824D01*
X0390276Y0062824D02*
X0390276Y0060068D01*
X0387520Y0060068D01*
X0387520Y0062824D01*
X0387520Y0061248D02*
X0390276Y0061248D01*
X0390276Y0062428D02*
X0387520Y0062428D01*
X0387520Y0055918D02*
X0390276Y0055918D01*
X0390276Y0053162D01*
X0387520Y0053162D01*
X0387520Y0055918D01*
X0387520Y0054342D02*
X0390276Y0054342D01*
X0390276Y0055522D02*
X0387520Y0055522D01*
D29*
X0382501Y0061536D03*
X0382501Y0064686D03*
X0377580Y0064686D03*
X0377580Y0061536D03*
X0377580Y0067835D03*
X0382501Y0067835D03*
X0382501Y0070985D03*
X0377580Y0070985D03*
D30*
X0401623Y0075780D03*
X0403591Y0075780D03*
X0405560Y0075780D03*
X0407528Y0075780D03*
X0409497Y0075780D03*
X0409497Y0060032D03*
X0407528Y0060032D03*
X0405560Y0060032D03*
X0403591Y0060032D03*
X0401623Y0060032D03*
D31*
X0397686Y0063969D03*
X0397686Y0065938D03*
X0397686Y0067906D03*
X0397686Y0069875D03*
X0397686Y0071843D03*
X0413434Y0071843D03*
X0413434Y0069875D03*
X0413434Y0067906D03*
X0413434Y0065938D03*
X0413434Y0063969D03*
D32*
X0405560Y0067906D03*
D33*
X0460257Y0055434D03*
X0460257Y0052875D03*
X0460257Y0050316D03*
X0460257Y0047757D03*
X0460257Y0045198D03*
D34*
X0472757Y0046379D03*
X0472757Y0054253D03*
X0472757Y0062324D03*
X0472757Y0038308D03*
D35*
X0265473Y0060253D03*
X0265473Y0098253D03*
D36*
X0220001Y0064095D03*
X0223741Y0055434D03*
X0216261Y0055434D03*
D37*
X0357402Y0069607D03*
X0366064Y0073347D03*
X0357402Y0077087D03*
D38*
X0086930Y0125119D03*
X0086930Y0128859D03*
X0086930Y0132599D03*
X0076694Y0132599D03*
X0076694Y0128859D03*
X0076694Y0125119D03*
D39*
X0290867Y0111143D03*
X0290867Y0099331D03*
D40*
X0370158Y0118426D02*
X0372402Y0118426D01*
X0372402Y0120394D02*
X0370158Y0120394D01*
X0370158Y0122363D02*
X0372402Y0122363D01*
X0372402Y0124331D02*
X0370158Y0124331D01*
X0370158Y0126300D02*
X0372402Y0126300D01*
X0381772Y0126300D02*
X0384016Y0126300D01*
X0384016Y0124331D02*
X0381772Y0124331D01*
X0381772Y0122363D02*
X0384016Y0122363D01*
X0384016Y0120394D02*
X0381772Y0120394D01*
X0381772Y0118426D02*
X0384016Y0118426D01*
D41*
X0379450Y0116615D03*
X0377875Y0116615D03*
X0376300Y0116615D03*
X0374725Y0116615D03*
X0374725Y0128111D03*
X0376300Y0128111D03*
X0377875Y0128111D03*
X0379450Y0128111D03*
D42*
X0378662Y0124331D03*
X0375513Y0124331D03*
X0375513Y0120394D03*
X0378662Y0120394D03*
D43*
X0280828Y0119804D03*
X0280828Y0126103D03*
D44*
X0432796Y0115867D03*
X0456812Y0115867D03*
X0456812Y0070985D03*
X0432796Y0070985D03*
D45*
X0328662Y0121576D03*
X0328662Y0132599D03*
X0247166Y0133780D03*
X0247166Y0122757D03*
M02*
