G75*
%MOIN*%
%OFA0B0*%
%FSLAX25Y25*%
%IPPOS*%
%LPD*%
%AMOC8*
5,1,8,0,0,1.08239X$1,22.5*
%
%ADD10C,0.00700*%
%ADD11C,0.00500*%
%ADD12C,0.00400*%
%ADD13R,0.03740X0.01969*%
%ADD14C,0.00300*%
%ADD15C,0.00800*%
%ADD16C,0.00600*%
%ADD17R,0.01600X0.03400*%
%ADD18R,0.04050X0.02000*%
%ADD19R,0.04000X0.02000*%
%ADD20C,0.00010*%
%ADD21R,0.01969X0.03740*%
%ADD22R,0.05709X0.02953*%
%ADD23R,0.03400X0.01600*%
%ADD24R,0.03543X0.06299*%
%ADD25R,0.01181X0.00984*%
%ADD26R,0.02953X0.05709*%
%ADD27C,0.01000*%
%ADD28R,0.01969X0.00984*%
%ADD29R,0.00984X0.01969*%
%ADD30R,0.02500X0.01000*%
%ADD31C,0.00200*%
%ADD32R,0.01800X0.02300*%
%ADD33R,0.02300X0.01800*%
%ADD34R,0.02559X0.01969*%
%ADD35C,0.01200*%
%ADD36R,0.06693X0.02953*%
%ADD37C,0.00591*%
%ADD38C,0.00787*%
D10*
X0019232Y0063130D02*
X0025538Y0063130D01*
X0025538Y0067334D01*
X0024487Y0069576D02*
X0020283Y0069576D01*
X0019232Y0070627D01*
X0019232Y0072729D01*
X0020283Y0073779D01*
X0024487Y0073779D01*
X0025538Y0072729D01*
X0025538Y0070627D01*
X0024487Y0069576D01*
X0024487Y0076021D02*
X0020283Y0076021D01*
X0019232Y0077072D01*
X0019232Y0079174D01*
X0020283Y0080225D01*
X0022385Y0080225D02*
X0022385Y0078123D01*
X0022385Y0080225D02*
X0024487Y0080225D01*
X0025538Y0079174D01*
X0025538Y0077072D01*
X0024487Y0076021D01*
X0024782Y0102280D02*
X0018476Y0102280D01*
X0018476Y0105433D01*
X0019527Y0106484D01*
X0021629Y0106484D01*
X0022680Y0105433D01*
X0022680Y0102280D01*
X0022680Y0104382D02*
X0024782Y0106484D01*
X0024782Y0108725D02*
X0018476Y0108725D01*
X0018476Y0112929D01*
X0021629Y0110827D02*
X0021629Y0108725D01*
X0024782Y0108725D02*
X0024782Y0112929D01*
X0023731Y0115171D02*
X0024782Y0116222D01*
X0024782Y0118324D01*
X0023731Y0119375D01*
X0022680Y0119375D01*
X0021629Y0118324D01*
X0021629Y0116222D01*
X0020578Y0115171D01*
X0019527Y0115171D01*
X0018476Y0116222D01*
X0018476Y0118324D01*
X0019527Y0119375D01*
X0018476Y0121616D02*
X0024782Y0121616D01*
X0024782Y0125820D01*
X0021629Y0123718D02*
X0021629Y0121616D01*
X0018476Y0121616D02*
X0018476Y0125820D01*
X0018476Y0128062D02*
X0018476Y0132266D01*
X0018476Y0130164D02*
X0024782Y0130164D01*
D11*
X0031221Y0007009D02*
X0033190Y0007009D01*
X0033190Y0034568D01*
X0031221Y0034568D01*
X0031221Y0007009D01*
X0033190Y0007009D02*
X0172954Y0007009D01*
X0172954Y0034568D01*
X0033190Y0034568D01*
X0036490Y0038838D02*
X0038613Y0036715D01*
X0039674Y0036715D01*
X0040736Y0037776D01*
X0040736Y0038838D01*
X0039674Y0039900D01*
X0038613Y0038838D01*
X0036490Y0038838D02*
X0036490Y0039900D01*
X0037551Y0040961D01*
X0038613Y0040961D01*
X0039214Y0042624D02*
X0044522Y0041563D01*
X0041337Y0044747D01*
X0042470Y0045880D02*
X0045654Y0042695D01*
X0047247Y0044287D01*
X0047247Y0045349D01*
X0045124Y0047472D01*
X0044062Y0047472D01*
X0042470Y0045880D01*
X0039214Y0042624D02*
X0042399Y0039440D01*
X0050490Y0039900D02*
X0050490Y0038838D01*
X0050490Y0039900D02*
X0051551Y0040961D01*
X0052613Y0040961D01*
X0053143Y0040430D01*
X0053143Y0039369D01*
X0054205Y0039369D01*
X0054736Y0038838D01*
X0054736Y0037776D01*
X0053674Y0036715D01*
X0052613Y0036715D01*
X0052613Y0038838D02*
X0053143Y0039369D01*
X0055337Y0040501D02*
X0057461Y0040501D01*
X0057461Y0042624D01*
X0055337Y0044747D01*
X0057001Y0045349D02*
X0057001Y0046410D01*
X0058062Y0047472D01*
X0059124Y0047472D01*
X0059654Y0046941D01*
X0059654Y0045880D01*
X0060716Y0045880D01*
X0061247Y0045349D01*
X0061247Y0044287D01*
X0060185Y0043226D01*
X0059124Y0043226D01*
X0059124Y0045349D02*
X0059654Y0045880D01*
X0067589Y0042999D02*
X0069712Y0040876D01*
X0071836Y0040876D01*
X0071836Y0042999D01*
X0069712Y0045122D01*
X0066457Y0041867D02*
X0064334Y0039744D01*
X0065926Y0038151D01*
X0066457Y0039744D01*
X0066988Y0040275D01*
X0068049Y0040275D01*
X0069111Y0039213D01*
X0069111Y0038151D01*
X0068049Y0037090D01*
X0066988Y0037090D01*
X0055337Y0040501D02*
X0053214Y0042624D01*
X0079020Y0040805D02*
X0079020Y0038682D01*
X0081143Y0036559D01*
X0079551Y0038151D02*
X0081674Y0040275D01*
X0081143Y0040805D02*
X0083267Y0038682D01*
X0083868Y0040345D02*
X0083868Y0044592D01*
X0085991Y0042468D01*
X0085991Y0041407D01*
X0084930Y0040345D01*
X0083868Y0040345D01*
X0081745Y0042468D01*
X0081745Y0043530D01*
X0082807Y0044592D01*
X0083868Y0044592D01*
X0081143Y0040805D02*
X0079020Y0040805D01*
X0091645Y0040805D02*
X0091645Y0038682D01*
X0093768Y0036559D01*
X0092176Y0038151D02*
X0094299Y0040275D01*
X0093768Y0040805D02*
X0095892Y0038682D01*
X0097024Y0039815D02*
X0099147Y0041938D01*
X0098086Y0040876D02*
X0094901Y0044061D01*
X0094901Y0041938D01*
X0093768Y0040805D02*
X0091645Y0040805D01*
X0106490Y0039900D02*
X0106490Y0038838D01*
X0108613Y0036715D01*
X0109674Y0036715D01*
X0110736Y0037776D01*
X0110736Y0038838D01*
X0109674Y0039900D01*
X0108613Y0038838D01*
X0107551Y0040961D02*
X0106490Y0039900D01*
X0107551Y0040961D02*
X0108613Y0040961D01*
X0109214Y0042624D02*
X0114522Y0041563D01*
X0111337Y0044747D01*
X0112470Y0045880D02*
X0114062Y0047472D01*
X0115124Y0047472D01*
X0117247Y0045349D01*
X0117247Y0044287D01*
X0115654Y0042695D01*
X0112470Y0045880D01*
X0109214Y0042624D02*
X0112399Y0039440D01*
X0120490Y0039900D02*
X0120490Y0038838D01*
X0120490Y0039900D02*
X0121551Y0040961D01*
X0122613Y0040961D01*
X0123143Y0040430D01*
X0123143Y0039369D01*
X0124205Y0039369D01*
X0124736Y0038838D01*
X0124736Y0037776D01*
X0123674Y0036715D01*
X0122613Y0036715D01*
X0122613Y0038838D02*
X0123143Y0039369D01*
X0125337Y0040501D02*
X0123214Y0042624D01*
X0125337Y0040501D02*
X0127461Y0040501D01*
X0127461Y0042624D01*
X0125337Y0044747D01*
X0127001Y0045349D02*
X0127001Y0046410D01*
X0128062Y0047472D01*
X0129124Y0047472D01*
X0129654Y0046941D01*
X0129654Y0045880D01*
X0130716Y0045880D01*
X0131247Y0045349D01*
X0131247Y0044287D01*
X0130185Y0043226D01*
X0129124Y0043226D01*
X0129124Y0045349D02*
X0129654Y0045880D01*
X0134334Y0039744D02*
X0136457Y0041867D01*
X0137589Y0042999D02*
X0139712Y0040876D01*
X0141836Y0040876D01*
X0141836Y0042999D01*
X0139712Y0045122D01*
X0149020Y0040805D02*
X0151143Y0040805D01*
X0153267Y0038682D01*
X0154399Y0039815D02*
X0154399Y0044061D01*
X0153868Y0044592D01*
X0152807Y0044592D01*
X0151745Y0043530D01*
X0151745Y0042468D01*
X0151674Y0040275D02*
X0149551Y0038151D01*
X0149020Y0038682D02*
X0149020Y0040805D01*
X0154399Y0039815D02*
X0156522Y0041938D01*
X0161645Y0040805D02*
X0163768Y0040805D01*
X0165892Y0038682D01*
X0166493Y0040345D02*
X0167555Y0040345D01*
X0168616Y0041407D01*
X0168616Y0042468D01*
X0168086Y0042999D01*
X0167024Y0042999D01*
X0166493Y0042468D01*
X0167024Y0042999D02*
X0167024Y0044061D01*
X0166493Y0044592D01*
X0165432Y0044592D01*
X0164370Y0043530D01*
X0164370Y0042468D01*
X0164299Y0040275D02*
X0162176Y0038151D01*
X0161645Y0038682D02*
X0163768Y0036559D01*
X0161645Y0038682D02*
X0161645Y0040805D01*
X0151143Y0036559D02*
X0149020Y0038682D01*
X0139111Y0038151D02*
X0138049Y0037090D01*
X0136988Y0037090D01*
X0135926Y0038151D02*
X0136457Y0039744D01*
X0136988Y0040275D01*
X0138049Y0040275D01*
X0139111Y0039213D01*
X0139111Y0038151D01*
X0135926Y0038151D02*
X0134334Y0039744D01*
X0169410Y0034568D02*
X0171379Y0034568D01*
X0171379Y0007009D01*
X0311143Y0007009D01*
X0311143Y0034568D01*
X0171379Y0034568D01*
X0169410Y0034568D02*
X0169410Y0007009D01*
X0171379Y0007009D01*
X0178613Y0036715D02*
X0179674Y0036715D01*
X0180736Y0037776D01*
X0180736Y0038838D01*
X0179674Y0039900D01*
X0178613Y0038838D01*
X0176490Y0038838D02*
X0178613Y0036715D01*
X0176490Y0038838D02*
X0176490Y0039900D01*
X0177551Y0040961D01*
X0178613Y0040961D01*
X0179214Y0042624D02*
X0184522Y0041563D01*
X0181337Y0044747D01*
X0182470Y0045880D02*
X0184062Y0047472D01*
X0185124Y0047472D01*
X0187247Y0045349D01*
X0187247Y0044287D01*
X0185654Y0042695D01*
X0182470Y0045880D01*
X0179214Y0042624D02*
X0182399Y0039440D01*
X0190490Y0039900D02*
X0190490Y0038838D01*
X0190490Y0039900D02*
X0191551Y0040961D01*
X0192613Y0040961D01*
X0193143Y0040430D01*
X0193143Y0039369D01*
X0194205Y0039369D01*
X0194736Y0038838D01*
X0194736Y0037776D01*
X0193674Y0036715D01*
X0192613Y0036715D01*
X0192613Y0038838D02*
X0193143Y0039369D01*
X0195337Y0040501D02*
X0197461Y0040501D01*
X0197461Y0042624D01*
X0195337Y0044747D01*
X0197001Y0045349D02*
X0197001Y0046410D01*
X0198062Y0047472D01*
X0199124Y0047472D01*
X0199654Y0046941D01*
X0199654Y0045880D01*
X0200716Y0045880D01*
X0201247Y0045349D01*
X0201247Y0044287D01*
X0200185Y0043226D01*
X0199124Y0043226D01*
X0199124Y0045349D02*
X0199654Y0045880D01*
X0207589Y0042999D02*
X0209712Y0040876D01*
X0211836Y0040876D01*
X0211836Y0042999D01*
X0209712Y0045122D01*
X0206457Y0041867D02*
X0204334Y0039744D01*
X0205926Y0038151D01*
X0206457Y0039744D01*
X0206988Y0040275D01*
X0208049Y0040275D01*
X0209111Y0039213D01*
X0209111Y0038151D01*
X0208049Y0037090D01*
X0206988Y0037090D01*
X0219020Y0038682D02*
X0219020Y0040805D01*
X0221143Y0040805D01*
X0223267Y0038682D01*
X0221674Y0040275D02*
X0219551Y0038151D01*
X0219020Y0038682D02*
X0221143Y0036559D01*
X0231645Y0038682D02*
X0233768Y0036559D01*
X0232176Y0038151D02*
X0234299Y0040275D01*
X0233768Y0040805D02*
X0235892Y0038682D01*
X0236493Y0040345D02*
X0237555Y0040345D01*
X0238616Y0041407D01*
X0238616Y0042468D01*
X0237555Y0043530D01*
X0236493Y0043530D01*
X0235962Y0042999D01*
X0235432Y0041407D01*
X0233839Y0042999D01*
X0235962Y0045122D01*
X0233768Y0040805D02*
X0231645Y0040805D01*
X0231645Y0038682D01*
X0225991Y0041407D02*
X0222807Y0044592D01*
X0222807Y0041407D01*
X0224930Y0043530D01*
X0246490Y0039900D02*
X0246490Y0038838D01*
X0248613Y0036715D01*
X0249674Y0036715D01*
X0250736Y0037776D01*
X0250736Y0038838D01*
X0249674Y0039900D01*
X0248613Y0038838D01*
X0247551Y0040961D02*
X0246490Y0039900D01*
X0247551Y0040961D02*
X0248613Y0040961D01*
X0249214Y0042624D02*
X0254522Y0041563D01*
X0251337Y0044747D01*
X0252470Y0045880D02*
X0254062Y0047472D01*
X0255124Y0047472D01*
X0257247Y0045349D01*
X0257247Y0044287D01*
X0255654Y0042695D01*
X0252470Y0045880D01*
X0249214Y0042624D02*
X0252399Y0039440D01*
X0260490Y0039900D02*
X0260490Y0038838D01*
X0260490Y0039900D02*
X0261551Y0040961D01*
X0262613Y0040961D01*
X0263143Y0040430D01*
X0263143Y0039369D01*
X0264205Y0039369D01*
X0264736Y0038838D01*
X0264736Y0037776D01*
X0263674Y0036715D01*
X0262613Y0036715D01*
X0262613Y0038838D02*
X0263143Y0039369D01*
X0265337Y0040501D02*
X0267461Y0040501D01*
X0267461Y0042624D01*
X0265337Y0044747D01*
X0267001Y0045349D02*
X0267001Y0046410D01*
X0268062Y0047472D01*
X0269124Y0047472D01*
X0269654Y0046941D01*
X0269654Y0045880D01*
X0270716Y0045880D01*
X0271247Y0045349D01*
X0271247Y0044287D01*
X0270185Y0043226D01*
X0269124Y0043226D01*
X0269124Y0045349D02*
X0269654Y0045880D01*
X0265337Y0040501D02*
X0263214Y0042624D01*
X0274334Y0039744D02*
X0275926Y0038151D01*
X0276457Y0039744D01*
X0276988Y0040275D01*
X0278049Y0040275D01*
X0279111Y0039213D01*
X0279111Y0038151D01*
X0278049Y0037090D01*
X0276988Y0037090D01*
X0274334Y0039744D02*
X0276457Y0041867D01*
X0277589Y0042999D02*
X0279712Y0040876D01*
X0281836Y0040876D01*
X0281836Y0042999D01*
X0279712Y0045122D01*
X0289020Y0040805D02*
X0291143Y0040805D01*
X0293267Y0038682D01*
X0293868Y0040345D02*
X0294930Y0040345D01*
X0295991Y0041407D01*
X0295991Y0042468D01*
X0295461Y0042999D01*
X0294399Y0042999D01*
X0292807Y0041407D01*
X0293868Y0040345D01*
X0292807Y0041407D02*
X0292807Y0043530D01*
X0293337Y0045122D01*
X0289020Y0040805D02*
X0289020Y0038682D01*
X0291143Y0036559D01*
X0289551Y0038151D02*
X0291674Y0040275D01*
X0301645Y0040805D02*
X0301645Y0038682D01*
X0303768Y0036559D01*
X0302176Y0038151D02*
X0304299Y0040275D01*
X0303768Y0040805D02*
X0301645Y0040805D01*
X0303768Y0040805D02*
X0305892Y0038682D01*
X0307024Y0039815D02*
X0306493Y0040345D01*
X0306493Y0044592D01*
X0305962Y0045122D01*
X0303839Y0042999D01*
X0313959Y0040369D02*
X0315551Y0041961D01*
X0316613Y0041961D01*
X0317674Y0040900D01*
X0317674Y0039838D01*
X0316082Y0038246D01*
X0317143Y0039307D02*
X0319267Y0039307D01*
X0320399Y0040440D02*
X0319337Y0045747D01*
X0317214Y0043624D02*
X0322522Y0042563D01*
X0323654Y0043695D02*
X0322593Y0049003D01*
X0323725Y0050135D02*
X0324787Y0051197D01*
X0324256Y0050666D02*
X0327441Y0047481D01*
X0326910Y0046950D02*
X0327971Y0048012D01*
X0329080Y0049121D02*
X0325895Y0052305D01*
X0331203Y0051244D01*
X0328019Y0054429D01*
X0329151Y0055561D02*
X0331274Y0057684D01*
X0330213Y0056622D02*
X0333397Y0053438D01*
X0337725Y0050135D02*
X0338787Y0051197D01*
X0338256Y0050666D02*
X0341441Y0047481D01*
X0340910Y0046950D02*
X0341971Y0048012D01*
X0343080Y0049121D02*
X0339895Y0052305D01*
X0345203Y0051244D01*
X0342019Y0054429D01*
X0343151Y0055561D02*
X0345274Y0057684D01*
X0344213Y0056622D02*
X0347397Y0053438D01*
X0352100Y0051572D02*
X0354223Y0051572D01*
X0354223Y0052633D01*
X0352100Y0051572D02*
X0352100Y0050510D01*
X0351499Y0048847D02*
X0350437Y0048847D01*
X0349376Y0047785D01*
X0349376Y0046724D01*
X0351499Y0048847D02*
X0352029Y0048316D01*
X0352029Y0044070D01*
X0354153Y0046193D01*
X0350897Y0042938D02*
X0348774Y0040815D01*
X0349836Y0041876D02*
X0346651Y0045061D01*
X0346651Y0042938D01*
X0344988Y0042336D02*
X0343926Y0042336D01*
X0342334Y0040744D01*
X0345518Y0037559D01*
X0347111Y0039151D01*
X0347111Y0040213D01*
X0344988Y0042336D01*
X0337654Y0043695D02*
X0336593Y0049003D01*
X0333337Y0045747D02*
X0334399Y0040440D01*
X0336522Y0042563D02*
X0331214Y0043624D01*
X0330082Y0042492D02*
X0327959Y0040369D01*
X0329020Y0041430D02*
X0332205Y0038246D01*
X0317143Y0037184D02*
X0313959Y0040369D01*
X0308977Y0034568D02*
X0307009Y0034568D01*
X0307009Y0007009D01*
X0308977Y0007009D01*
X0308977Y0034568D01*
X0448741Y0034568D01*
X0448741Y0007009D01*
X0308977Y0007009D01*
X0355959Y0040744D02*
X0359143Y0037559D01*
X0360736Y0039151D01*
X0360736Y0040213D01*
X0358613Y0042336D01*
X0357551Y0042336D01*
X0355959Y0040744D01*
X0360276Y0045061D02*
X0363461Y0041876D01*
X0362399Y0040815D02*
X0364522Y0042938D01*
X0365124Y0044601D02*
X0366185Y0044601D01*
X0367247Y0045662D01*
X0367247Y0046724D01*
X0366716Y0047255D01*
X0365654Y0047255D01*
X0365124Y0046724D01*
X0365654Y0047255D02*
X0365654Y0048316D01*
X0365124Y0048847D01*
X0364062Y0048847D01*
X0363001Y0047785D01*
X0363001Y0046724D01*
X0360276Y0045061D02*
X0360276Y0042938D01*
X0369115Y0041275D02*
X0369115Y0040213D01*
X0371238Y0038090D01*
X0372299Y0038090D01*
X0373361Y0039151D01*
X0373361Y0040213D01*
X0372299Y0041275D01*
X0371238Y0040213D01*
X0371238Y0042336D02*
X0370176Y0042336D01*
X0369115Y0041275D01*
X0371839Y0043999D02*
X0377147Y0042938D01*
X0373962Y0046122D01*
X0375095Y0047255D02*
X0376687Y0048847D01*
X0377749Y0048847D01*
X0379872Y0046724D01*
X0379872Y0045662D01*
X0378279Y0044070D01*
X0375095Y0047255D01*
X0371839Y0043999D02*
X0375024Y0040815D01*
X0384490Y0040900D02*
X0384490Y0039838D01*
X0384490Y0040900D02*
X0385551Y0041961D01*
X0386613Y0041961D01*
X0387143Y0041430D01*
X0387143Y0040369D01*
X0388205Y0040369D01*
X0388736Y0039838D01*
X0388736Y0038776D01*
X0387674Y0037715D01*
X0386613Y0037715D01*
X0386613Y0039838D02*
X0387143Y0040369D01*
X0389337Y0041501D02*
X0391461Y0041501D01*
X0391461Y0043624D01*
X0389337Y0045747D01*
X0391001Y0046349D02*
X0391001Y0047410D01*
X0392062Y0048472D01*
X0393124Y0048472D01*
X0393654Y0047941D01*
X0393654Y0046880D01*
X0394716Y0046880D01*
X0395247Y0046349D01*
X0395247Y0045287D01*
X0394185Y0044226D01*
X0393124Y0044226D01*
X0389337Y0041501D02*
X0387214Y0043624D01*
X0393124Y0046349D02*
X0393654Y0046880D01*
X0401214Y0043624D02*
X0403337Y0041501D01*
X0405461Y0041501D01*
X0405461Y0043624D01*
X0403337Y0045747D01*
X0400082Y0042492D02*
X0397959Y0040369D01*
X0399551Y0038776D01*
X0400082Y0040369D01*
X0400613Y0040900D01*
X0401674Y0040900D01*
X0402736Y0039838D01*
X0402736Y0038776D01*
X0401674Y0037715D01*
X0400613Y0037715D01*
X0412334Y0040744D02*
X0415518Y0037559D01*
X0417111Y0039151D01*
X0417111Y0040213D01*
X0414988Y0042336D01*
X0413926Y0042336D01*
X0412334Y0040744D01*
X0416651Y0045061D02*
X0419836Y0041876D01*
X0418774Y0040815D02*
X0420897Y0042938D01*
X0420437Y0045662D02*
X0422560Y0047785D01*
X0423622Y0045662D02*
X0420437Y0048847D01*
X0420437Y0045662D01*
X0416651Y0045061D02*
X0416651Y0042938D01*
X0426490Y0041275D02*
X0426490Y0040213D01*
X0427020Y0039682D01*
X0428082Y0039682D01*
X0429143Y0040744D01*
X0430205Y0040744D01*
X0430736Y0040213D01*
X0430736Y0039151D01*
X0429674Y0038090D01*
X0428613Y0038090D01*
X0426490Y0041275D02*
X0427551Y0042336D01*
X0428613Y0042336D01*
X0429745Y0043468D02*
X0431868Y0041345D01*
X0432930Y0041345D01*
X0433991Y0042407D01*
X0433991Y0043468D01*
X0435654Y0044070D02*
X0437778Y0046193D01*
X0435654Y0044070D02*
X0432470Y0047255D01*
X0431868Y0045592D02*
X0430807Y0045592D01*
X0429745Y0044530D01*
X0429745Y0043468D01*
X0439115Y0041275D02*
X0439115Y0040213D01*
X0439645Y0039682D01*
X0440707Y0039682D01*
X0441768Y0040744D01*
X0442830Y0040744D01*
X0443361Y0040213D01*
X0443361Y0039151D01*
X0442299Y0038090D01*
X0441238Y0038090D01*
X0439115Y0041275D02*
X0440176Y0042336D01*
X0441238Y0042336D01*
X0441839Y0043999D02*
X0443432Y0045592D01*
X0444493Y0045592D01*
X0446616Y0043468D01*
X0446616Y0042407D01*
X0445024Y0040815D01*
X0441839Y0043999D01*
X0446156Y0046193D02*
X0446156Y0048316D01*
X0448279Y0048316D01*
X0450403Y0046193D01*
X0448810Y0047785D02*
X0446687Y0045662D01*
X0446156Y0046193D02*
X0448279Y0044070D01*
X0461536Y0036536D02*
X0461536Y0064095D01*
X0461930Y0064095D02*
X0467835Y0064095D01*
X0477678Y0064095D02*
X0481024Y0064095D01*
X0481221Y0064095D01*
X0481024Y0062520D02*
X0479843Y0062520D01*
X0479843Y0061339D01*
X0479843Y0061340D02*
X0479920Y0061338D01*
X0479997Y0061332D01*
X0480074Y0061323D01*
X0480150Y0061310D01*
X0480226Y0061293D01*
X0480300Y0061272D01*
X0480374Y0061248D01*
X0480446Y0061220D01*
X0480516Y0061189D01*
X0480585Y0061154D01*
X0480653Y0061116D01*
X0480718Y0061075D01*
X0480781Y0061030D01*
X0480842Y0060982D01*
X0480901Y0060932D01*
X0480957Y0060879D01*
X0481010Y0060823D01*
X0481060Y0060764D01*
X0481108Y0060703D01*
X0481153Y0060640D01*
X0481194Y0060575D01*
X0481232Y0060507D01*
X0481267Y0060438D01*
X0481298Y0060368D01*
X0481326Y0060296D01*
X0481350Y0060222D01*
X0481371Y0060148D01*
X0481388Y0060072D01*
X0481401Y0059996D01*
X0481410Y0059919D01*
X0481416Y0059842D01*
X0481418Y0059765D01*
X0481418Y0058977D01*
X0481418Y0059371D02*
X0481418Y0040867D01*
X0481416Y0040790D01*
X0481410Y0040713D01*
X0481401Y0040636D01*
X0481388Y0040560D01*
X0481371Y0040484D01*
X0481350Y0040410D01*
X0481326Y0040336D01*
X0481298Y0040264D01*
X0481267Y0040194D01*
X0481232Y0040125D01*
X0481194Y0040057D01*
X0481153Y0039992D01*
X0481108Y0039929D01*
X0481060Y0039868D01*
X0481010Y0039809D01*
X0480957Y0039753D01*
X0480901Y0039700D01*
X0480842Y0039650D01*
X0480781Y0039602D01*
X0480718Y0039557D01*
X0480653Y0039516D01*
X0480585Y0039478D01*
X0480516Y0039443D01*
X0480446Y0039412D01*
X0480374Y0039384D01*
X0480300Y0039360D01*
X0480226Y0039339D01*
X0480150Y0039322D01*
X0480074Y0039309D01*
X0479997Y0039300D01*
X0479920Y0039294D01*
X0479843Y0039292D01*
X0479843Y0038111D01*
X0481024Y0038111D01*
X0481024Y0036536D02*
X0477678Y0036536D01*
X0481024Y0036536D02*
X0481221Y0036536D01*
X0481024Y0038111D02*
X0481134Y0038109D01*
X0481244Y0038103D01*
X0481353Y0038094D01*
X0481462Y0038080D01*
X0481571Y0038063D01*
X0481679Y0038042D01*
X0481786Y0038017D01*
X0481892Y0037989D01*
X0481997Y0037957D01*
X0482101Y0037921D01*
X0482204Y0037882D01*
X0482305Y0037839D01*
X0482405Y0037792D01*
X0482503Y0037742D01*
X0482599Y0037689D01*
X0482693Y0037632D01*
X0482785Y0037572D01*
X0482876Y0037509D01*
X0482963Y0037443D01*
X0483049Y0037374D01*
X0483132Y0037302D01*
X0483212Y0037227D01*
X0483290Y0037149D01*
X0483365Y0037069D01*
X0483437Y0036986D01*
X0483506Y0036900D01*
X0483572Y0036813D01*
X0483635Y0036722D01*
X0483695Y0036630D01*
X0483752Y0036536D01*
X0483805Y0036440D01*
X0483855Y0036342D01*
X0483902Y0036242D01*
X0483945Y0036141D01*
X0483984Y0036038D01*
X0484020Y0035934D01*
X0484052Y0035829D01*
X0484080Y0035723D01*
X0484105Y0035616D01*
X0484126Y0035508D01*
X0484143Y0035399D01*
X0484157Y0035290D01*
X0484166Y0035181D01*
X0484172Y0035071D01*
X0484174Y0034961D01*
X0482993Y0034568D01*
X0482991Y0034654D01*
X0482986Y0034740D01*
X0482976Y0034825D01*
X0482963Y0034910D01*
X0482946Y0034994D01*
X0482926Y0035078D01*
X0482902Y0035160D01*
X0482874Y0035241D01*
X0482843Y0035322D01*
X0482809Y0035400D01*
X0482771Y0035477D01*
X0482729Y0035553D01*
X0482685Y0035626D01*
X0482637Y0035697D01*
X0482586Y0035767D01*
X0482532Y0035834D01*
X0482476Y0035898D01*
X0482416Y0035960D01*
X0482354Y0036020D01*
X0482290Y0036076D01*
X0482223Y0036130D01*
X0482153Y0036181D01*
X0482082Y0036229D01*
X0482009Y0036273D01*
X0481933Y0036315D01*
X0481856Y0036353D01*
X0481778Y0036387D01*
X0481697Y0036418D01*
X0481616Y0036446D01*
X0481534Y0036470D01*
X0481450Y0036490D01*
X0481366Y0036507D01*
X0481281Y0036520D01*
X0481196Y0036530D01*
X0481110Y0036535D01*
X0481024Y0036537D01*
X0467835Y0036536D02*
X0461930Y0036536D01*
X0478465Y0029646D02*
X0478465Y0068032D01*
X0481024Y0064095D02*
X0481110Y0064097D01*
X0481196Y0064102D01*
X0481281Y0064112D01*
X0481366Y0064125D01*
X0481450Y0064142D01*
X0481534Y0064162D01*
X0481616Y0064186D01*
X0481697Y0064214D01*
X0481778Y0064245D01*
X0481856Y0064279D01*
X0481933Y0064317D01*
X0482009Y0064359D01*
X0482082Y0064403D01*
X0482153Y0064451D01*
X0482223Y0064502D01*
X0482290Y0064556D01*
X0482354Y0064612D01*
X0482416Y0064672D01*
X0482476Y0064734D01*
X0482532Y0064798D01*
X0482586Y0064865D01*
X0482637Y0064935D01*
X0482685Y0065006D01*
X0482729Y0065080D01*
X0482771Y0065155D01*
X0482809Y0065232D01*
X0482843Y0065310D01*
X0482874Y0065391D01*
X0482902Y0065472D01*
X0482926Y0065554D01*
X0482946Y0065638D01*
X0482963Y0065722D01*
X0482976Y0065807D01*
X0482986Y0065892D01*
X0482991Y0065978D01*
X0482993Y0066064D01*
X0484174Y0065670D01*
X0484172Y0065560D01*
X0484166Y0065450D01*
X0484157Y0065341D01*
X0484143Y0065232D01*
X0484126Y0065123D01*
X0484105Y0065015D01*
X0484080Y0064908D01*
X0484052Y0064802D01*
X0484020Y0064697D01*
X0483984Y0064593D01*
X0483945Y0064490D01*
X0483902Y0064389D01*
X0483855Y0064289D01*
X0483805Y0064191D01*
X0483752Y0064095D01*
X0483695Y0064001D01*
X0483635Y0063909D01*
X0483572Y0063818D01*
X0483506Y0063731D01*
X0483437Y0063645D01*
X0483365Y0063562D01*
X0483290Y0063482D01*
X0483212Y0063404D01*
X0483132Y0063329D01*
X0483049Y0063257D01*
X0482963Y0063188D01*
X0482876Y0063122D01*
X0482785Y0063059D01*
X0482693Y0062999D01*
X0482599Y0062942D01*
X0482503Y0062889D01*
X0482405Y0062839D01*
X0482305Y0062792D01*
X0482204Y0062749D01*
X0482101Y0062710D01*
X0481997Y0062674D01*
X0481892Y0062642D01*
X0481786Y0062614D01*
X0481679Y0062589D01*
X0481571Y0062568D01*
X0481462Y0062551D01*
X0481353Y0062537D01*
X0481244Y0062528D01*
X0481134Y0062522D01*
X0481024Y0062520D01*
X0424223Y0052633D02*
X0424223Y0051572D01*
X0422100Y0051572D01*
X0422100Y0050510D01*
X0413434Y0060032D02*
X0411465Y0060032D01*
X0413434Y0060032D02*
X0413434Y0062001D01*
X0399654Y0060032D02*
X0397686Y0060032D01*
X0397686Y0062001D01*
X0397686Y0073812D02*
X0397686Y0075780D01*
X0399654Y0075780D01*
X0411465Y0075780D02*
X0413434Y0075780D01*
X0413434Y0073812D01*
X0387087Y0093465D02*
X0367087Y0093465D01*
X0367087Y0113465D01*
X0387087Y0113465D01*
X0387087Y0093465D01*
X0383682Y0115769D02*
X0382363Y0115769D01*
X0383288Y0116162D02*
X0370887Y0116162D01*
X0370887Y0128564D01*
X0383288Y0128564D01*
X0383288Y0116162D01*
X0383682Y0115769D02*
X0383682Y0117087D01*
X0371812Y0115769D02*
X0370493Y0115769D01*
X0370493Y0117087D01*
X0370493Y0127639D02*
X0370493Y0128957D01*
X0371812Y0128957D01*
X0382363Y0128957D02*
X0383682Y0128957D01*
X0383682Y0127639D01*
X0390151Y0136786D02*
X0388028Y0138909D01*
X0388028Y0141032D01*
X0390151Y0141032D01*
X0392274Y0138909D01*
X0393407Y0140042D02*
X0394999Y0141634D01*
X0394999Y0142695D01*
X0392876Y0144819D01*
X0391814Y0144819D01*
X0390222Y0143226D01*
X0393407Y0140042D01*
X0390682Y0140502D02*
X0388559Y0138378D01*
X0381999Y0141634D02*
X0381999Y0142695D01*
X0379876Y0144819D01*
X0378814Y0144819D01*
X0377222Y0143226D01*
X0380407Y0140042D01*
X0381999Y0141634D01*
X0383131Y0143828D02*
X0384193Y0143828D01*
X0385254Y0144889D01*
X0385254Y0145951D01*
X0384724Y0146482D01*
X0383662Y0146482D01*
X0383131Y0145951D01*
X0383662Y0146482D02*
X0383662Y0147543D01*
X0383131Y0148074D01*
X0382070Y0148074D01*
X0381008Y0147012D01*
X0381008Y0145951D01*
X0383733Y0149737D02*
X0383733Y0150799D01*
X0385856Y0150799D01*
X0385856Y0151860D01*
X0394008Y0147012D02*
X0394008Y0145951D01*
X0396131Y0143828D01*
X0397193Y0143828D01*
X0398254Y0144889D01*
X0398254Y0145951D01*
X0399387Y0147083D02*
X0399387Y0151329D01*
X0401510Y0149206D01*
X0401510Y0148145D01*
X0400448Y0147083D01*
X0399387Y0147083D01*
X0397264Y0149206D01*
X0397264Y0150268D01*
X0398325Y0151329D01*
X0399387Y0151329D01*
X0396131Y0148074D02*
X0395070Y0148074D01*
X0394008Y0147012D01*
X0404909Y0143913D02*
X0408093Y0140728D01*
X0407032Y0139667D02*
X0409155Y0141790D01*
X0409756Y0143453D02*
X0410818Y0143453D01*
X0411879Y0144514D01*
X0411879Y0145576D01*
X0410818Y0146637D01*
X0409756Y0146637D01*
X0409226Y0146107D01*
X0408695Y0144514D01*
X0407102Y0146107D01*
X0409226Y0148230D01*
X0410358Y0149362D02*
X0410358Y0150424D01*
X0412481Y0150424D01*
X0412481Y0151485D01*
X0420879Y0146482D02*
X0423002Y0148605D01*
X0421941Y0147543D02*
X0425125Y0144359D01*
X0422931Y0142165D02*
X0420808Y0144288D01*
X0418685Y0144288D01*
X0418685Y0142165D01*
X0420808Y0140042D01*
X0419145Y0139440D02*
X0419145Y0138378D01*
X0417553Y0136786D01*
X0414368Y0139971D01*
X0415960Y0141563D01*
X0417022Y0141563D01*
X0417553Y0141032D01*
X0417553Y0139971D01*
X0415960Y0138378D01*
X0417553Y0139971D02*
X0418614Y0139971D01*
X0419145Y0139440D01*
X0419216Y0141634D02*
X0421339Y0143757D01*
X0428381Y0147614D02*
X0425196Y0150799D01*
X0424134Y0149737D02*
X0426258Y0151860D01*
X0433871Y0146482D02*
X0439179Y0145420D01*
X0435994Y0148605D01*
X0437127Y0149737D02*
X0438719Y0151330D01*
X0439781Y0151330D01*
X0441904Y0149206D01*
X0441904Y0148145D01*
X0440311Y0146552D01*
X0437127Y0149737D01*
X0433871Y0146482D02*
X0437056Y0143297D01*
X0435393Y0142695D02*
X0434331Y0143757D01*
X0433270Y0142695D01*
X0433270Y0140572D02*
X0434331Y0140572D01*
X0435393Y0141634D01*
X0435393Y0142695D01*
X0433270Y0140572D02*
X0431146Y0142695D01*
X0431146Y0143757D01*
X0432208Y0144819D01*
X0433270Y0144819D01*
X0448741Y0154646D02*
X0448741Y0182206D01*
X0308977Y0182206D01*
X0308977Y0154646D01*
X0448741Y0154646D01*
X0404909Y0143913D02*
X0404909Y0141790D01*
X0403245Y0141188D02*
X0402184Y0141188D01*
X0400592Y0139596D01*
X0403776Y0136411D01*
X0405369Y0138003D01*
X0405369Y0139065D01*
X0403245Y0141188D01*
X0372979Y0147239D02*
X0372979Y0149362D01*
X0370856Y0151485D01*
X0368733Y0149362D02*
X0370856Y0147239D01*
X0372979Y0147239D01*
X0370255Y0145576D02*
X0370255Y0144514D01*
X0369193Y0143453D01*
X0368131Y0143453D01*
X0367070Y0144514D02*
X0367601Y0146107D01*
X0368131Y0146637D01*
X0369193Y0146637D01*
X0370255Y0145576D01*
X0367070Y0144514D02*
X0365477Y0146107D01*
X0367601Y0148230D01*
X0359885Y0147770D02*
X0358823Y0146708D01*
X0357762Y0146708D01*
X0356099Y0146107D02*
X0353976Y0148230D01*
X0355639Y0148831D02*
X0355639Y0149893D01*
X0356700Y0150955D01*
X0357762Y0150955D01*
X0358293Y0150424D01*
X0358293Y0149362D01*
X0359354Y0149362D01*
X0359885Y0148831D01*
X0359885Y0147770D01*
X0358293Y0149362D02*
X0357762Y0148831D01*
X0356099Y0146107D02*
X0356099Y0143984D01*
X0353976Y0143984D01*
X0351852Y0146107D01*
X0351251Y0144444D02*
X0351782Y0143913D01*
X0351782Y0142851D01*
X0352843Y0142851D01*
X0353374Y0142320D01*
X0353374Y0141259D01*
X0352312Y0140197D01*
X0351251Y0140197D01*
X0351251Y0142320D02*
X0351782Y0142851D01*
X0351251Y0144444D02*
X0350189Y0144444D01*
X0349128Y0143382D01*
X0349128Y0142320D01*
X0340287Y0142922D02*
X0337102Y0146107D01*
X0342410Y0145045D01*
X0339226Y0148230D01*
X0340358Y0149362D02*
X0343543Y0146177D01*
X0345135Y0147770D01*
X0345135Y0148831D01*
X0343012Y0150955D01*
X0341950Y0150955D01*
X0340358Y0149362D01*
X0330856Y0150799D02*
X0330856Y0151860D01*
X0330856Y0150799D02*
X0328733Y0150799D01*
X0328733Y0149737D01*
X0327070Y0148074D02*
X0327070Y0144889D01*
X0329193Y0147012D01*
X0330254Y0144889D02*
X0327070Y0148074D01*
X0324876Y0144819D02*
X0323814Y0144819D01*
X0322222Y0143226D01*
X0325407Y0140042D01*
X0326999Y0141634D01*
X0326999Y0142695D01*
X0324876Y0144819D01*
X0318534Y0148168D02*
X0315349Y0151353D01*
X0314818Y0150822D02*
X0315880Y0151884D01*
X0314217Y0149159D02*
X0313155Y0149159D01*
X0312093Y0148098D01*
X0312093Y0147036D01*
X0312624Y0146505D01*
X0313686Y0146505D01*
X0314747Y0147567D01*
X0315809Y0147567D01*
X0316340Y0147036D01*
X0316340Y0145974D01*
X0315278Y0144913D01*
X0314217Y0144913D01*
X0313084Y0143781D02*
X0310961Y0145904D01*
X0309899Y0145904D01*
X0308838Y0144842D01*
X0308838Y0143781D01*
X0310961Y0141657D01*
X0312023Y0141657D01*
X0313084Y0142719D01*
X0313084Y0143781D01*
X0321090Y0142094D02*
X0322151Y0136786D01*
X0320488Y0136184D02*
X0320488Y0135123D01*
X0319427Y0134061D01*
X0318365Y0134061D01*
X0317233Y0132929D02*
X0317233Y0131867D01*
X0316171Y0130806D01*
X0315109Y0130806D01*
X0314579Y0132398D02*
X0315640Y0133460D01*
X0316702Y0133460D01*
X0317233Y0132929D01*
X0314579Y0132398D02*
X0313517Y0132398D01*
X0312986Y0132929D01*
X0312986Y0133991D01*
X0314048Y0135052D01*
X0315109Y0135052D01*
X0316242Y0136184D02*
X0316773Y0135654D01*
X0317834Y0135654D01*
X0318896Y0136715D01*
X0319957Y0136715D01*
X0320488Y0136184D01*
X0318365Y0138308D02*
X0317303Y0138308D01*
X0316242Y0137246D01*
X0316242Y0136184D01*
X0308236Y0137871D02*
X0305052Y0141056D01*
X0307175Y0141056D01*
X0307175Y0143179D01*
X0310359Y0139994D01*
X0300254Y0144514D02*
X0299193Y0143453D01*
X0298131Y0143453D01*
X0297601Y0145045D02*
X0296539Y0145045D01*
X0296008Y0145576D01*
X0296008Y0146637D01*
X0297070Y0147699D01*
X0298131Y0147699D01*
X0299264Y0148831D02*
X0301387Y0146708D01*
X0302448Y0146708D01*
X0303510Y0147770D01*
X0303510Y0148831D01*
X0301387Y0150954D01*
X0300325Y0150954D01*
X0299264Y0149893D01*
X0299264Y0148831D01*
X0299724Y0146107D02*
X0300254Y0145576D01*
X0300254Y0144514D01*
X0299724Y0146107D02*
X0298662Y0146107D01*
X0297601Y0145045D01*
X0294369Y0144998D02*
X0293307Y0143936D01*
X0293838Y0144467D02*
X0297023Y0141282D01*
X0296492Y0140752D02*
X0297553Y0141813D01*
X0295359Y0139619D02*
X0292175Y0142804D01*
X0292175Y0140681D01*
X0290052Y0140681D01*
X0293236Y0137496D01*
X0283374Y0141259D02*
X0282312Y0140197D01*
X0281251Y0140197D01*
X0280720Y0141790D02*
X0281782Y0142851D01*
X0282843Y0142851D01*
X0283374Y0142320D01*
X0283374Y0141259D01*
X0284506Y0143453D02*
X0285568Y0143453D01*
X0286629Y0144514D01*
X0286629Y0145576D01*
X0287231Y0147239D02*
X0287231Y0151485D01*
X0285108Y0149362D02*
X0288293Y0146177D01*
X0284506Y0147699D02*
X0283445Y0147699D01*
X0282383Y0146637D01*
X0282383Y0145576D01*
X0284506Y0143453D01*
X0281251Y0144444D02*
X0280189Y0144444D01*
X0279128Y0143382D01*
X0279128Y0142320D01*
X0279659Y0141790D01*
X0280720Y0141790D01*
X0274880Y0144514D02*
X0273818Y0143453D01*
X0272756Y0143453D01*
X0271695Y0144514D02*
X0272226Y0146107D01*
X0272756Y0146637D01*
X0273818Y0146637D01*
X0274880Y0145576D01*
X0274880Y0144514D01*
X0271695Y0144514D02*
X0270102Y0146107D01*
X0272226Y0148230D01*
X0273358Y0149362D02*
X0275481Y0147239D01*
X0277604Y0147239D01*
X0277604Y0149362D01*
X0275481Y0151485D01*
X0266510Y0149206D02*
X0266510Y0148145D01*
X0265448Y0147083D01*
X0264387Y0147083D01*
X0262724Y0146482D02*
X0260601Y0148605D01*
X0262264Y0149206D02*
X0262264Y0150268D01*
X0263325Y0151330D01*
X0264387Y0151330D01*
X0264918Y0150799D01*
X0264918Y0149737D01*
X0265979Y0149737D01*
X0266510Y0149206D01*
X0264918Y0149737D02*
X0264387Y0149206D01*
X0262724Y0146482D02*
X0262724Y0144359D01*
X0260601Y0144359D01*
X0258477Y0146482D01*
X0257876Y0144819D02*
X0258407Y0144288D01*
X0258407Y0143226D01*
X0259468Y0143226D01*
X0259999Y0142695D01*
X0259999Y0141634D01*
X0258937Y0140572D01*
X0257876Y0140572D01*
X0257876Y0142695D02*
X0258407Y0143226D01*
X0257876Y0144819D02*
X0256814Y0144819D01*
X0255753Y0143757D01*
X0255753Y0142695D01*
X0248785Y0145420D02*
X0245601Y0148605D01*
X0246733Y0149737D02*
X0248325Y0151330D01*
X0249387Y0151330D01*
X0251510Y0149206D01*
X0251510Y0148145D01*
X0249918Y0146552D01*
X0246733Y0149737D01*
X0243477Y0146482D02*
X0248785Y0145420D01*
X0246662Y0143297D02*
X0243477Y0146482D01*
X0242876Y0144819D02*
X0241814Y0144819D01*
X0240753Y0143757D01*
X0240753Y0142695D01*
X0242876Y0140572D01*
X0243937Y0140572D01*
X0244999Y0141634D01*
X0244999Y0142695D01*
X0243937Y0143757D01*
X0242876Y0142695D01*
X0233785Y0145045D02*
X0231662Y0147168D01*
X0229539Y0147168D01*
X0229539Y0145045D01*
X0231662Y0142922D01*
X0230070Y0144514D02*
X0232193Y0146637D01*
X0233856Y0147239D02*
X0233856Y0148301D01*
X0234918Y0149362D01*
X0235979Y0149362D01*
X0236510Y0148831D01*
X0236510Y0147770D01*
X0235448Y0146708D01*
X0234387Y0146708D01*
X0233856Y0147239D01*
X0233856Y0148301D02*
X0232795Y0148301D01*
X0232264Y0148831D01*
X0232264Y0149893D01*
X0233325Y0150955D01*
X0234387Y0150955D01*
X0234918Y0150424D01*
X0234918Y0149362D01*
X0222885Y0148831D02*
X0222885Y0147770D01*
X0221823Y0146708D01*
X0220762Y0146708D01*
X0220231Y0148301D02*
X0221823Y0149893D01*
X0222885Y0148831D02*
X0220762Y0150955D01*
X0219700Y0150955D01*
X0218639Y0149893D01*
X0218639Y0148831D01*
X0219170Y0148301D01*
X0220231Y0148301D01*
X0218568Y0146637D02*
X0216445Y0144514D01*
X0215914Y0145045D02*
X0218037Y0142922D01*
X0215914Y0145045D02*
X0215914Y0147168D01*
X0218037Y0147168D01*
X0220160Y0145045D01*
X0207604Y0147239D02*
X0207604Y0149362D01*
X0205481Y0151485D01*
X0203358Y0149362D02*
X0205481Y0147239D01*
X0207604Y0147239D01*
X0204880Y0145576D02*
X0203818Y0146637D01*
X0202756Y0146637D01*
X0202226Y0146107D01*
X0201695Y0144514D01*
X0200102Y0146107D01*
X0202226Y0148230D01*
X0204880Y0145576D02*
X0204880Y0144514D01*
X0203818Y0143453D01*
X0202756Y0143453D01*
X0196510Y0148145D02*
X0195448Y0147083D01*
X0194387Y0147083D01*
X0192724Y0146482D02*
X0190601Y0148605D01*
X0192264Y0149206D02*
X0192264Y0150268D01*
X0193325Y0151330D01*
X0194387Y0151330D01*
X0194918Y0150799D01*
X0194918Y0149737D01*
X0195979Y0149737D01*
X0196510Y0149206D01*
X0196510Y0148145D01*
X0194918Y0149737D02*
X0194387Y0149206D01*
X0192724Y0146482D02*
X0192724Y0144359D01*
X0190601Y0144359D01*
X0188477Y0146482D01*
X0187876Y0144819D02*
X0186814Y0144819D01*
X0185753Y0143757D01*
X0185753Y0142695D01*
X0187876Y0142695D02*
X0188407Y0143226D01*
X0189468Y0143226D01*
X0189999Y0142695D01*
X0189999Y0141634D01*
X0188937Y0140572D01*
X0187876Y0140572D01*
X0188407Y0143226D02*
X0188407Y0144288D01*
X0187876Y0144819D01*
X0181510Y0148145D02*
X0181510Y0149206D01*
X0179387Y0151330D01*
X0178325Y0151330D01*
X0176733Y0149737D01*
X0179918Y0146552D01*
X0181510Y0148145D01*
X0178785Y0145420D02*
X0175601Y0148605D01*
X0173477Y0146482D02*
X0178785Y0145420D01*
X0176662Y0143297D02*
X0173477Y0146482D01*
X0172876Y0144819D02*
X0171814Y0144819D01*
X0170753Y0143757D01*
X0170753Y0142695D01*
X0172876Y0140572D01*
X0173937Y0140572D01*
X0174999Y0141634D01*
X0174999Y0142695D01*
X0173937Y0143757D01*
X0172876Y0142695D01*
X0163785Y0145045D02*
X0161662Y0142922D01*
X0162724Y0143984D02*
X0159539Y0147168D01*
X0159539Y0145045D01*
X0158407Y0143913D02*
X0156284Y0143913D01*
X0156284Y0141790D01*
X0158407Y0139667D01*
X0156814Y0141259D02*
X0158937Y0143382D01*
X0158407Y0143913D02*
X0160530Y0141790D01*
X0153416Y0148301D02*
X0151293Y0146177D01*
X0152354Y0147239D02*
X0149169Y0150424D01*
X0149169Y0148301D01*
X0145914Y0147168D02*
X0149099Y0143984D01*
X0150160Y0145045D02*
X0148037Y0142922D01*
X0146905Y0141790D02*
X0144782Y0143913D01*
X0142659Y0143913D01*
X0142659Y0141790D01*
X0144782Y0139667D01*
X0143189Y0141259D02*
X0145312Y0143382D01*
X0145914Y0145045D02*
X0145914Y0147168D01*
X0137604Y0147239D02*
X0137604Y0149362D01*
X0135481Y0151485D01*
X0133358Y0149362D02*
X0135481Y0147239D01*
X0137604Y0147239D01*
X0134880Y0145576D02*
X0134880Y0144514D01*
X0133818Y0143453D01*
X0132756Y0143453D01*
X0131695Y0144514D02*
X0132226Y0146107D01*
X0132756Y0146637D01*
X0133818Y0146637D01*
X0134880Y0145576D01*
X0131695Y0144514D02*
X0130102Y0146107D01*
X0132226Y0148230D01*
X0126510Y0148145D02*
X0126510Y0149206D01*
X0125979Y0149737D01*
X0124918Y0149737D01*
X0124387Y0149206D01*
X0124918Y0149737D02*
X0124918Y0150799D01*
X0124387Y0151330D01*
X0123325Y0151330D01*
X0122264Y0150268D01*
X0122264Y0149206D01*
X0120601Y0148605D02*
X0122724Y0146482D01*
X0122724Y0144359D01*
X0120601Y0144359D01*
X0118477Y0146482D01*
X0117876Y0144819D02*
X0118407Y0144288D01*
X0118407Y0143226D01*
X0119468Y0143226D01*
X0119999Y0142695D01*
X0119999Y0141634D01*
X0118937Y0140572D01*
X0117876Y0140572D01*
X0117876Y0142695D02*
X0118407Y0143226D01*
X0117876Y0144819D02*
X0116814Y0144819D01*
X0115753Y0143757D01*
X0115753Y0142695D01*
X0108785Y0145420D02*
X0105601Y0148605D01*
X0106733Y0149737D02*
X0108325Y0151330D01*
X0109387Y0151330D01*
X0111510Y0149206D01*
X0111510Y0148145D01*
X0109918Y0146552D01*
X0106733Y0149737D01*
X0103477Y0146482D02*
X0108785Y0145420D01*
X0106662Y0143297D02*
X0103477Y0146482D01*
X0102876Y0144819D02*
X0101814Y0144819D01*
X0100753Y0143757D01*
X0100753Y0142695D01*
X0102876Y0140572D01*
X0103937Y0140572D01*
X0104999Y0141634D01*
X0104999Y0142695D01*
X0103937Y0143757D01*
X0102876Y0142695D01*
X0097041Y0148301D02*
X0094918Y0146177D01*
X0094918Y0150424D01*
X0094387Y0150955D01*
X0093325Y0150955D01*
X0092264Y0149893D01*
X0092264Y0148831D01*
X0089539Y0147168D02*
X0092724Y0143984D01*
X0093785Y0145045D02*
X0091662Y0142922D01*
X0090530Y0141790D02*
X0088407Y0143913D01*
X0086284Y0143913D01*
X0086284Y0141790D01*
X0088407Y0139667D01*
X0086814Y0141259D02*
X0088937Y0143382D01*
X0089539Y0145045D02*
X0089539Y0147168D01*
X0082885Y0147770D02*
X0081823Y0146708D01*
X0080762Y0146708D01*
X0080160Y0145045D02*
X0078037Y0142922D01*
X0079099Y0143984D02*
X0075914Y0147168D01*
X0075914Y0145045D01*
X0074782Y0143913D02*
X0072659Y0143913D01*
X0072659Y0141790D01*
X0074782Y0139667D01*
X0073189Y0141259D02*
X0075312Y0143382D01*
X0074782Y0143913D02*
X0076905Y0141790D01*
X0064880Y0144514D02*
X0064880Y0145576D01*
X0063818Y0146637D01*
X0062756Y0146637D01*
X0062226Y0146107D01*
X0061695Y0144514D01*
X0060102Y0146107D01*
X0062226Y0148230D01*
X0063358Y0149362D02*
X0065481Y0147239D01*
X0067604Y0147239D01*
X0067604Y0149362D01*
X0065481Y0151485D01*
X0056510Y0149206D02*
X0056510Y0148145D01*
X0055448Y0147083D01*
X0054387Y0147083D01*
X0052724Y0146482D02*
X0050601Y0148605D01*
X0052264Y0149206D02*
X0052264Y0150268D01*
X0053325Y0151330D01*
X0054387Y0151330D01*
X0054918Y0150799D01*
X0054918Y0149737D01*
X0055979Y0149737D01*
X0056510Y0149206D01*
X0054918Y0149737D02*
X0054387Y0149206D01*
X0052724Y0146482D02*
X0052724Y0144359D01*
X0050601Y0144359D01*
X0048477Y0146482D01*
X0047876Y0144819D02*
X0046814Y0144819D01*
X0045753Y0143757D01*
X0045753Y0142695D01*
X0047876Y0142695D02*
X0048407Y0143226D01*
X0049468Y0143226D01*
X0049999Y0142695D01*
X0049999Y0141634D01*
X0048937Y0140572D01*
X0047876Y0140572D01*
X0048407Y0143226D02*
X0048407Y0144288D01*
X0047876Y0144819D01*
X0041510Y0148145D02*
X0041510Y0149206D01*
X0039387Y0151330D01*
X0038325Y0151330D01*
X0036733Y0149737D01*
X0039918Y0146552D01*
X0041510Y0148145D01*
X0038785Y0145420D02*
X0035601Y0148605D01*
X0033477Y0146482D02*
X0038785Y0145420D01*
X0036662Y0143297D02*
X0033477Y0146482D01*
X0032876Y0144819D02*
X0031814Y0144819D01*
X0030753Y0143757D01*
X0030753Y0142695D01*
X0032876Y0140572D01*
X0033937Y0140572D01*
X0034999Y0141634D01*
X0034999Y0142695D01*
X0033937Y0143757D01*
X0032876Y0142695D01*
X0062756Y0143453D02*
X0063818Y0143453D01*
X0064880Y0144514D01*
X0078639Y0148831D02*
X0078639Y0149893D01*
X0079700Y0150955D01*
X0080762Y0150955D01*
X0081293Y0150424D01*
X0081293Y0149362D01*
X0082354Y0149362D01*
X0082885Y0148831D01*
X0082885Y0147770D01*
X0081293Y0149362D02*
X0080762Y0148831D01*
X0124387Y0147083D02*
X0125448Y0147083D01*
X0126510Y0148145D01*
X0162264Y0148831D02*
X0164387Y0146708D01*
X0164387Y0150955D01*
X0166510Y0148831D01*
X0166510Y0147770D01*
X0165448Y0146708D01*
X0164387Y0146708D01*
X0162264Y0148831D02*
X0162264Y0149893D01*
X0163325Y0150955D01*
X0164387Y0150955D01*
X0169410Y0154646D02*
X0171379Y0154646D01*
X0171379Y0182206D01*
X0169410Y0182206D01*
X0169410Y0154646D01*
X0171379Y0154646D02*
X0311143Y0154646D01*
X0311143Y0182206D01*
X0171379Y0182206D01*
X0172954Y0182206D02*
X0033190Y0182206D01*
X0033190Y0154646D01*
X0172954Y0154646D01*
X0172954Y0182206D01*
X0287231Y0148301D02*
X0290416Y0148301D01*
X0307009Y0154646D02*
X0308977Y0154646D01*
X0307009Y0154646D02*
X0307009Y0182206D01*
X0308977Y0182206D01*
X0319064Y0148699D02*
X0318003Y0147638D01*
X0334378Y0143382D02*
X0334378Y0142320D01*
X0336501Y0140197D01*
X0337562Y0140197D01*
X0338624Y0141259D01*
X0338624Y0142320D01*
X0337562Y0143382D01*
X0336501Y0142320D01*
X0336501Y0144444D02*
X0335439Y0144444D01*
X0334378Y0143382D01*
X0295985Y0126891D02*
X0288111Y0126891D01*
X0295985Y0126891D01*
X0295985Y0119017D01*
X0295788Y0119017D02*
X0295790Y0119044D01*
X0295796Y0119071D01*
X0295805Y0119097D01*
X0295818Y0119121D01*
X0295834Y0119144D01*
X0295853Y0119163D01*
X0295875Y0119180D01*
X0295899Y0119194D01*
X0295924Y0119204D01*
X0295951Y0119211D01*
X0295978Y0119214D01*
X0296006Y0119213D01*
X0296033Y0119208D01*
X0296059Y0119200D01*
X0296083Y0119188D01*
X0296106Y0119172D01*
X0296127Y0119154D01*
X0296144Y0119133D01*
X0296159Y0119109D01*
X0296170Y0119084D01*
X0296178Y0119058D01*
X0296182Y0119031D01*
X0296182Y0119003D01*
X0296178Y0118976D01*
X0296170Y0118950D01*
X0296159Y0118925D01*
X0296144Y0118901D01*
X0296127Y0118880D01*
X0296106Y0118862D01*
X0296084Y0118846D01*
X0296059Y0118834D01*
X0296033Y0118826D01*
X0296006Y0118821D01*
X0295978Y0118820D01*
X0295951Y0118823D01*
X0295924Y0118830D01*
X0295899Y0118840D01*
X0295875Y0118854D01*
X0295853Y0118871D01*
X0295834Y0118890D01*
X0295818Y0118913D01*
X0295805Y0118937D01*
X0295796Y0118963D01*
X0295790Y0118990D01*
X0295788Y0119017D01*
X0295985Y0119017D02*
X0288111Y0119017D01*
X0288111Y0126891D01*
X0288111Y0119017D02*
X0295985Y0119017D01*
X0295105Y0117048D02*
X0295107Y0117107D01*
X0295113Y0117165D01*
X0295123Y0117223D01*
X0295136Y0117280D01*
X0295154Y0117337D01*
X0295175Y0117392D01*
X0295200Y0117445D01*
X0295228Y0117496D01*
X0295259Y0117546D01*
X0295294Y0117593D01*
X0295332Y0117638D01*
X0295373Y0117681D01*
X0295417Y0117720D01*
X0295463Y0117756D01*
X0295511Y0117790D01*
X0295562Y0117820D01*
X0295615Y0117846D01*
X0295669Y0117869D01*
X0295724Y0117888D01*
X0295781Y0117904D01*
X0295839Y0117916D01*
X0295897Y0117924D01*
X0295956Y0117928D01*
X0296014Y0117928D01*
X0296073Y0117924D01*
X0296131Y0117916D01*
X0296189Y0117904D01*
X0296246Y0117888D01*
X0296301Y0117869D01*
X0296355Y0117846D01*
X0296408Y0117820D01*
X0296459Y0117790D01*
X0296507Y0117756D01*
X0296553Y0117720D01*
X0296597Y0117681D01*
X0296638Y0117638D01*
X0296676Y0117593D01*
X0296711Y0117546D01*
X0296742Y0117496D01*
X0296770Y0117445D01*
X0296795Y0117392D01*
X0296816Y0117337D01*
X0296834Y0117280D01*
X0296847Y0117223D01*
X0296857Y0117165D01*
X0296863Y0117107D01*
X0296865Y0117048D01*
X0296863Y0116989D01*
X0296857Y0116931D01*
X0296847Y0116873D01*
X0296834Y0116816D01*
X0296816Y0116759D01*
X0296795Y0116704D01*
X0296770Y0116651D01*
X0296742Y0116600D01*
X0296711Y0116550D01*
X0296676Y0116503D01*
X0296638Y0116458D01*
X0296597Y0116415D01*
X0296553Y0116376D01*
X0296507Y0116340D01*
X0296459Y0116306D01*
X0296408Y0116276D01*
X0296355Y0116250D01*
X0296301Y0116227D01*
X0296246Y0116208D01*
X0296189Y0116192D01*
X0296131Y0116180D01*
X0296073Y0116172D01*
X0296014Y0116168D01*
X0295956Y0116168D01*
X0295897Y0116172D01*
X0295839Y0116180D01*
X0295781Y0116192D01*
X0295724Y0116208D01*
X0295669Y0116227D01*
X0295615Y0116250D01*
X0295562Y0116276D01*
X0295511Y0116306D01*
X0295463Y0116340D01*
X0295417Y0116376D01*
X0295373Y0116415D01*
X0295332Y0116458D01*
X0295294Y0116503D01*
X0295259Y0116550D01*
X0295228Y0116600D01*
X0295200Y0116651D01*
X0295175Y0116704D01*
X0295154Y0116759D01*
X0295136Y0116816D01*
X0295123Y0116873D01*
X0295113Y0116931D01*
X0295107Y0116989D01*
X0295105Y0117048D01*
X0224961Y0118906D02*
X0221961Y0115906D01*
X0216961Y0115906D01*
X0214961Y0117906D01*
X0212961Y0115906D01*
X0206961Y0115906D01*
X0204961Y0117906D01*
X0202961Y0115906D01*
X0197961Y0115906D01*
X0194961Y0118906D01*
X0194961Y0132906D01*
X0197961Y0135906D01*
X0202961Y0135906D01*
X0204961Y0133906D01*
X0206961Y0135906D01*
X0212961Y0135906D01*
X0214961Y0133906D01*
X0216961Y0135906D01*
X0221961Y0135906D01*
X0224961Y0132906D01*
X0224961Y0118906D01*
X0332937Y0059347D02*
X0333999Y0060409D01*
X0335060Y0060409D01*
X0335060Y0056162D01*
X0336122Y0056162D01*
X0337183Y0057224D01*
X0337183Y0058286D01*
X0335060Y0060409D01*
X0332937Y0059347D02*
X0332937Y0058286D01*
X0335060Y0056162D01*
X0347468Y0057755D02*
X0347468Y0059878D01*
X0350653Y0056693D01*
X0349591Y0055632D02*
X0351714Y0057755D01*
X0367848Y0052633D02*
X0367848Y0051572D01*
X0365725Y0051572D01*
X0365725Y0050510D01*
X0195337Y0040501D02*
X0193214Y0042624D01*
X0046772Y0062520D02*
X0046772Y0080631D01*
X0034174Y0080631D01*
X0034174Y0062520D01*
X0046772Y0062520D01*
X0046182Y0106221D02*
X0033583Y0106221D01*
X0033583Y0124331D01*
X0046182Y0124331D01*
X0046182Y0106221D01*
X0033190Y0154646D02*
X0031221Y0154646D01*
X0031221Y0182206D01*
X0033190Y0182206D01*
D12*
X0132969Y0136414D02*
X0135772Y0136414D01*
X0135772Y0133064D02*
X0132969Y0133064D01*
X0132969Y0128146D02*
X0135772Y0128146D01*
X0135772Y0124796D02*
X0132969Y0124796D01*
X0132969Y0119879D02*
X0135772Y0119879D01*
X0135772Y0116528D02*
X0132969Y0116528D01*
X0132969Y0111611D02*
X0135772Y0111611D01*
X0135772Y0108261D02*
X0132969Y0108261D01*
X0132969Y0103343D02*
X0135772Y0103343D01*
X0135772Y0099993D02*
X0132969Y0099993D01*
X0132969Y0095076D02*
X0135772Y0095076D01*
X0135772Y0091725D02*
X0132969Y0091725D01*
X0139757Y0081835D02*
X0139757Y0079032D01*
X0143107Y0079032D02*
X0143107Y0081835D01*
X0124209Y0081835D02*
X0124209Y0079032D01*
X0120859Y0079032D02*
X0120859Y0081835D01*
X0102359Y0081835D02*
X0102359Y0079032D01*
X0099009Y0079032D02*
X0099009Y0081835D01*
X0083461Y0081835D02*
X0083461Y0079032D01*
X0080111Y0079032D02*
X0080111Y0081835D01*
X0084245Y0066481D02*
X0084245Y0063678D01*
X0087595Y0063678D02*
X0087595Y0066481D01*
X0103143Y0066481D02*
X0103143Y0063678D01*
X0106493Y0063678D02*
X0106493Y0066481D01*
X0124993Y0066481D02*
X0124993Y0063678D01*
X0128343Y0063678D02*
X0128343Y0066481D01*
X0143891Y0066481D02*
X0143891Y0063678D01*
X0147241Y0063678D02*
X0147241Y0066481D01*
X0211213Y0089072D02*
X0211213Y0091875D01*
X0214564Y0091875D02*
X0214564Y0089072D01*
X0280308Y0077702D02*
X0280308Y0074898D01*
X0283658Y0074898D02*
X0283658Y0077702D01*
X0283709Y0065891D02*
X0283709Y0063087D01*
X0280359Y0063087D02*
X0280359Y0065891D01*
X0287103Y0054379D02*
X0289906Y0054379D01*
X0289906Y0051028D02*
X0287103Y0051028D01*
X0337643Y0072536D02*
X0337643Y0075339D01*
X0340993Y0075339D02*
X0340993Y0072536D01*
X0377087Y0072363D02*
X0377087Y0071477D01*
X0377132Y0071475D01*
X0377176Y0071470D01*
X0377220Y0071460D01*
X0377263Y0071448D01*
X0377304Y0071431D01*
X0377344Y0071412D01*
X0377383Y0071389D01*
X0377419Y0071363D01*
X0377453Y0071334D01*
X0377485Y0071302D01*
X0377514Y0071268D01*
X0377540Y0071232D01*
X0377563Y0071193D01*
X0377582Y0071153D01*
X0377599Y0071112D01*
X0377611Y0071069D01*
X0377621Y0071025D01*
X0377626Y0070981D01*
X0377628Y0070936D01*
X0377626Y0070891D01*
X0377621Y0070847D01*
X0377611Y0070803D01*
X0377599Y0070760D01*
X0377582Y0070719D01*
X0377563Y0070679D01*
X0377540Y0070640D01*
X0377514Y0070604D01*
X0377485Y0070570D01*
X0377453Y0070538D01*
X0377419Y0070509D01*
X0377383Y0070483D01*
X0377344Y0070460D01*
X0377304Y0070441D01*
X0377263Y0070424D01*
X0377220Y0070412D01*
X0377176Y0070402D01*
X0377132Y0070397D01*
X0377087Y0070395D01*
X0377087Y0070394D02*
X0377087Y0068328D01*
X0377087Y0068327D02*
X0377132Y0068325D01*
X0377176Y0068320D01*
X0377220Y0068310D01*
X0377263Y0068298D01*
X0377304Y0068281D01*
X0377344Y0068262D01*
X0377383Y0068239D01*
X0377419Y0068213D01*
X0377453Y0068184D01*
X0377485Y0068152D01*
X0377514Y0068118D01*
X0377540Y0068082D01*
X0377563Y0068043D01*
X0377582Y0068003D01*
X0377599Y0067962D01*
X0377611Y0067919D01*
X0377621Y0067875D01*
X0377626Y0067831D01*
X0377628Y0067786D01*
X0377626Y0067741D01*
X0377621Y0067697D01*
X0377611Y0067653D01*
X0377599Y0067610D01*
X0377582Y0067569D01*
X0377563Y0067529D01*
X0377540Y0067490D01*
X0377514Y0067454D01*
X0377485Y0067420D01*
X0377453Y0067388D01*
X0377419Y0067359D01*
X0377383Y0067333D01*
X0377344Y0067310D01*
X0377304Y0067291D01*
X0377263Y0067274D01*
X0377220Y0067262D01*
X0377176Y0067252D01*
X0377132Y0067247D01*
X0377087Y0067245D01*
X0377087Y0065178D01*
X0377132Y0065176D01*
X0377176Y0065171D01*
X0377220Y0065161D01*
X0377263Y0065149D01*
X0377304Y0065132D01*
X0377344Y0065113D01*
X0377383Y0065090D01*
X0377419Y0065064D01*
X0377453Y0065035D01*
X0377485Y0065003D01*
X0377514Y0064969D01*
X0377540Y0064933D01*
X0377563Y0064894D01*
X0377582Y0064854D01*
X0377599Y0064813D01*
X0377611Y0064770D01*
X0377621Y0064726D01*
X0377626Y0064682D01*
X0377628Y0064637D01*
X0377626Y0064592D01*
X0377621Y0064548D01*
X0377611Y0064504D01*
X0377599Y0064461D01*
X0377582Y0064420D01*
X0377563Y0064380D01*
X0377540Y0064341D01*
X0377514Y0064305D01*
X0377485Y0064271D01*
X0377453Y0064239D01*
X0377419Y0064210D01*
X0377383Y0064184D01*
X0377344Y0064161D01*
X0377304Y0064142D01*
X0377263Y0064125D01*
X0377220Y0064113D01*
X0377176Y0064103D01*
X0377132Y0064098D01*
X0377087Y0064096D01*
X0377087Y0064095D02*
X0377087Y0062028D01*
X0377132Y0062026D01*
X0377176Y0062021D01*
X0377220Y0062011D01*
X0377263Y0061999D01*
X0377304Y0061982D01*
X0377344Y0061963D01*
X0377383Y0061940D01*
X0377419Y0061914D01*
X0377453Y0061885D01*
X0377485Y0061853D01*
X0377514Y0061819D01*
X0377540Y0061783D01*
X0377563Y0061744D01*
X0377582Y0061704D01*
X0377599Y0061663D01*
X0377611Y0061620D01*
X0377621Y0061576D01*
X0377626Y0061532D01*
X0377628Y0061487D01*
X0377626Y0061442D01*
X0377621Y0061398D01*
X0377611Y0061354D01*
X0377599Y0061311D01*
X0377582Y0061270D01*
X0377563Y0061230D01*
X0377540Y0061191D01*
X0377514Y0061155D01*
X0377485Y0061121D01*
X0377453Y0061089D01*
X0377419Y0061060D01*
X0377383Y0061034D01*
X0377344Y0061011D01*
X0377304Y0060992D01*
X0377263Y0060975D01*
X0377220Y0060963D01*
X0377176Y0060953D01*
X0377132Y0060948D01*
X0377087Y0060946D01*
X0377087Y0060158D01*
X0382993Y0060158D01*
X0382993Y0061044D01*
X0382948Y0061046D01*
X0382904Y0061051D01*
X0382860Y0061061D01*
X0382817Y0061073D01*
X0382776Y0061090D01*
X0382736Y0061109D01*
X0382697Y0061132D01*
X0382661Y0061158D01*
X0382627Y0061187D01*
X0382595Y0061219D01*
X0382566Y0061253D01*
X0382540Y0061289D01*
X0382517Y0061328D01*
X0382498Y0061368D01*
X0382481Y0061409D01*
X0382469Y0061452D01*
X0382459Y0061496D01*
X0382454Y0061540D01*
X0382452Y0061585D01*
X0382454Y0061630D01*
X0382459Y0061674D01*
X0382469Y0061718D01*
X0382481Y0061761D01*
X0382498Y0061802D01*
X0382517Y0061842D01*
X0382540Y0061881D01*
X0382566Y0061917D01*
X0382595Y0061951D01*
X0382627Y0061983D01*
X0382661Y0062012D01*
X0382697Y0062038D01*
X0382736Y0062061D01*
X0382776Y0062080D01*
X0382817Y0062097D01*
X0382860Y0062109D01*
X0382904Y0062119D01*
X0382948Y0062124D01*
X0382993Y0062126D01*
X0382993Y0062127D02*
X0382993Y0064194D01*
X0382948Y0064196D01*
X0382904Y0064201D01*
X0382860Y0064211D01*
X0382817Y0064223D01*
X0382776Y0064240D01*
X0382736Y0064259D01*
X0382697Y0064282D01*
X0382661Y0064308D01*
X0382627Y0064337D01*
X0382595Y0064369D01*
X0382566Y0064403D01*
X0382540Y0064439D01*
X0382517Y0064478D01*
X0382498Y0064518D01*
X0382481Y0064559D01*
X0382469Y0064602D01*
X0382459Y0064646D01*
X0382454Y0064690D01*
X0382452Y0064735D01*
X0382454Y0064780D01*
X0382459Y0064824D01*
X0382469Y0064868D01*
X0382481Y0064911D01*
X0382498Y0064952D01*
X0382517Y0064992D01*
X0382540Y0065031D01*
X0382566Y0065067D01*
X0382595Y0065101D01*
X0382627Y0065133D01*
X0382661Y0065162D01*
X0382697Y0065188D01*
X0382736Y0065211D01*
X0382776Y0065230D01*
X0382817Y0065247D01*
X0382860Y0065259D01*
X0382904Y0065269D01*
X0382948Y0065274D01*
X0382993Y0065276D01*
X0382993Y0067343D01*
X0382993Y0067344D02*
X0382948Y0067346D01*
X0382904Y0067351D01*
X0382860Y0067361D01*
X0382817Y0067373D01*
X0382776Y0067390D01*
X0382736Y0067409D01*
X0382697Y0067432D01*
X0382661Y0067458D01*
X0382627Y0067487D01*
X0382595Y0067519D01*
X0382566Y0067553D01*
X0382540Y0067589D01*
X0382517Y0067628D01*
X0382498Y0067668D01*
X0382481Y0067709D01*
X0382469Y0067752D01*
X0382459Y0067796D01*
X0382454Y0067840D01*
X0382452Y0067885D01*
X0382454Y0067930D01*
X0382459Y0067974D01*
X0382469Y0068018D01*
X0382481Y0068061D01*
X0382498Y0068102D01*
X0382517Y0068142D01*
X0382540Y0068181D01*
X0382566Y0068217D01*
X0382595Y0068251D01*
X0382627Y0068283D01*
X0382661Y0068312D01*
X0382697Y0068338D01*
X0382736Y0068361D01*
X0382776Y0068380D01*
X0382817Y0068397D01*
X0382860Y0068409D01*
X0382904Y0068419D01*
X0382948Y0068424D01*
X0382993Y0068426D01*
X0382993Y0070493D01*
X0382948Y0070495D01*
X0382904Y0070500D01*
X0382860Y0070510D01*
X0382817Y0070522D01*
X0382776Y0070539D01*
X0382736Y0070558D01*
X0382697Y0070581D01*
X0382661Y0070607D01*
X0382627Y0070636D01*
X0382595Y0070668D01*
X0382566Y0070702D01*
X0382540Y0070738D01*
X0382517Y0070777D01*
X0382498Y0070817D01*
X0382481Y0070858D01*
X0382469Y0070901D01*
X0382459Y0070945D01*
X0382454Y0070989D01*
X0382452Y0071034D01*
X0382454Y0071079D01*
X0382459Y0071123D01*
X0382469Y0071167D01*
X0382481Y0071210D01*
X0382498Y0071251D01*
X0382517Y0071291D01*
X0382540Y0071330D01*
X0382566Y0071366D01*
X0382595Y0071400D01*
X0382627Y0071432D01*
X0382661Y0071461D01*
X0382697Y0071487D01*
X0382736Y0071510D01*
X0382776Y0071529D01*
X0382817Y0071546D01*
X0382860Y0071558D01*
X0382904Y0071568D01*
X0382948Y0071573D01*
X0382993Y0071575D01*
X0382993Y0071576D02*
X0382993Y0072363D01*
X0377087Y0072363D01*
X0399898Y0053788D02*
X0402702Y0053788D01*
X0402702Y0050438D02*
X0399898Y0050438D01*
X0442418Y0051568D02*
X0445221Y0051568D01*
X0445221Y0054918D02*
X0442418Y0054918D01*
X0442418Y0059835D02*
X0445221Y0059835D01*
X0445221Y0063186D02*
X0442418Y0063186D01*
X0473858Y0067248D02*
X0473858Y0069550D01*
X0474626Y0070317D01*
X0476160Y0070317D01*
X0476928Y0069550D01*
X0476928Y0067248D01*
X0478462Y0067248D02*
X0473858Y0067248D01*
X0474626Y0071852D02*
X0477695Y0071852D01*
X0478462Y0072619D01*
X0478462Y0074154D01*
X0477695Y0074921D01*
X0478462Y0076456D02*
X0473858Y0076456D01*
X0473858Y0078758D01*
X0474626Y0079525D01*
X0475393Y0079525D01*
X0476160Y0078758D01*
X0476160Y0076456D01*
X0474626Y0074921D02*
X0473858Y0074154D01*
X0473858Y0072619D01*
X0474626Y0071852D01*
X0478462Y0076456D02*
X0478462Y0078758D01*
X0477695Y0079525D01*
X0476928Y0079525D01*
X0476160Y0078758D01*
X0476160Y0085664D02*
X0476160Y0087198D01*
X0473858Y0085664D02*
X0478462Y0085664D01*
X0478462Y0088733D01*
X0477695Y0090268D02*
X0476160Y0090268D01*
X0475393Y0091035D01*
X0475393Y0093337D01*
X0473858Y0093337D02*
X0478462Y0093337D01*
X0478462Y0091035D01*
X0477695Y0090268D01*
X0473858Y0088733D02*
X0473858Y0085664D01*
X0476160Y0094872D02*
X0477695Y0094872D01*
X0478462Y0095639D01*
X0478462Y0097941D01*
X0479230Y0097941D02*
X0475393Y0097941D01*
X0475393Y0095639D01*
X0476160Y0094872D01*
X0479997Y0096406D02*
X0479997Y0097174D01*
X0479230Y0097941D01*
X0477695Y0099476D02*
X0476160Y0099476D01*
X0475393Y0100243D01*
X0475393Y0101777D01*
X0476160Y0102545D01*
X0476928Y0102545D01*
X0476928Y0099476D01*
X0477695Y0099476D02*
X0478462Y0100243D01*
X0478462Y0101777D01*
X0403898Y0122733D02*
X0403898Y0125635D01*
X0398702Y0125635D02*
X0398702Y0122635D01*
X0393269Y0122733D02*
X0393269Y0125635D01*
X0388072Y0125635D02*
X0388072Y0122635D01*
X0376127Y0132524D02*
X0373324Y0132524D01*
X0373324Y0135875D02*
X0376127Y0135875D01*
X0362202Y0129670D02*
X0362202Y0126867D01*
X0358851Y0126867D02*
X0358851Y0129670D01*
X0331761Y0130887D02*
X0331761Y0123288D01*
X0325564Y0123288D02*
X0325564Y0130887D01*
X0305867Y0130359D02*
X0305867Y0127457D01*
X0300670Y0127359D02*
X0300670Y0130359D01*
X0287643Y0130394D02*
X0284741Y0130394D01*
X0284643Y0135591D02*
X0287643Y0135591D01*
X0250265Y0132068D02*
X0250265Y0124469D01*
X0244068Y0124469D02*
X0244068Y0132068D01*
X0340237Y0114316D02*
X0340237Y0111414D01*
X0345434Y0111414D02*
X0345434Y0114414D01*
X0349095Y0114316D02*
X0349095Y0111414D01*
X0354292Y0111414D02*
X0354292Y0114414D01*
X0357954Y0114316D02*
X0357954Y0111414D01*
X0363150Y0111414D02*
X0363150Y0114414D01*
X0100587Y0120961D02*
X0100587Y0123765D01*
X0097237Y0123765D02*
X0097237Y0120961D01*
X0083213Y0119288D02*
X0080410Y0119288D01*
X0080410Y0115938D02*
X0083213Y0115938D01*
X0067269Y0128339D02*
X0064465Y0128339D01*
X0064465Y0131690D02*
X0067269Y0131690D01*
X0094583Y0131934D02*
X0097387Y0131934D01*
X0097387Y0135284D02*
X0094583Y0135284D01*
D13*
X0098918Y0124647D03*
X0098918Y0120047D03*
X0100689Y0082718D03*
X0100689Y0078118D03*
X0081792Y0078118D03*
X0081792Y0082718D03*
X0085926Y0067364D03*
X0085926Y0062764D03*
X0104823Y0062764D03*
X0104823Y0067364D03*
X0126674Y0067364D03*
X0126674Y0062764D03*
X0145571Y0062764D03*
X0145571Y0067364D03*
X0141437Y0078118D03*
X0141437Y0082718D03*
X0122540Y0082718D03*
X0122540Y0078118D03*
X0212894Y0088158D03*
X0212894Y0092758D03*
X0281989Y0078584D03*
X0281989Y0073984D03*
X0282029Y0066805D03*
X0282029Y0062205D03*
X0339312Y0071653D03*
X0339312Y0076253D03*
X0360532Y0125953D03*
X0360532Y0130553D03*
D14*
X0195811Y0116525D02*
X0195811Y0114056D01*
X0195811Y0115291D02*
X0192108Y0115291D01*
X0193343Y0114056D01*
D15*
X0169017Y0109568D02*
X0165867Y0109568D01*
X0165867Y0107206D01*
X0165867Y0100906D02*
X0165867Y0098544D01*
X0169017Y0098544D01*
X0193229Y0093820D02*
X0193229Y0090670D01*
X0193229Y0093820D02*
X0195591Y0093820D01*
X0201891Y0093820D02*
X0204253Y0093820D01*
X0204253Y0090670D01*
X0224740Y0092587D02*
X0224740Y0074187D01*
X0224739Y0074187D02*
X0224751Y0074106D01*
X0224766Y0074026D01*
X0224785Y0073947D01*
X0224807Y0073869D01*
X0224834Y0073792D01*
X0224863Y0073716D01*
X0224897Y0073642D01*
X0224934Y0073570D01*
X0224974Y0073499D01*
X0225018Y0073431D01*
X0225065Y0073364D01*
X0225115Y0073300D01*
X0225168Y0073239D01*
X0225224Y0073180D01*
X0225283Y0073123D01*
X0225344Y0073070D01*
X0225408Y0073019D01*
X0225474Y0072972D01*
X0225542Y0072928D01*
X0225612Y0072887D01*
X0225684Y0072849D01*
X0225758Y0072815D01*
X0225834Y0072785D01*
X0225910Y0072758D01*
X0225988Y0072735D01*
X0226067Y0072715D01*
X0226147Y0072700D01*
X0226228Y0072688D01*
X0226308Y0072680D01*
X0226390Y0072676D01*
X0226471Y0072675D01*
X0226552Y0072679D01*
X0226633Y0072686D01*
X0226683Y0072687D02*
X0230002Y0072687D01*
X0230002Y0072887D02*
X0230004Y0072985D01*
X0230010Y0073083D01*
X0230019Y0073181D01*
X0230033Y0073278D01*
X0230050Y0073375D01*
X0230071Y0073471D01*
X0230096Y0073566D01*
X0230124Y0073660D01*
X0230157Y0073752D01*
X0230192Y0073844D01*
X0230232Y0073934D01*
X0230274Y0074022D01*
X0230321Y0074109D01*
X0230370Y0074193D01*
X0230423Y0074276D01*
X0230479Y0074356D01*
X0230539Y0074435D01*
X0230601Y0074511D01*
X0230666Y0074584D01*
X0230734Y0074655D01*
X0230805Y0074723D01*
X0230878Y0074788D01*
X0230954Y0074850D01*
X0231033Y0074910D01*
X0231113Y0074966D01*
X0231196Y0075019D01*
X0231280Y0075068D01*
X0231367Y0075115D01*
X0231455Y0075157D01*
X0231545Y0075197D01*
X0231637Y0075232D01*
X0231729Y0075265D01*
X0231823Y0075293D01*
X0231918Y0075318D01*
X0232014Y0075339D01*
X0232111Y0075356D01*
X0232208Y0075370D01*
X0232306Y0075379D01*
X0232404Y0075385D01*
X0232502Y0075387D01*
X0232600Y0075385D01*
X0232698Y0075379D01*
X0232796Y0075370D01*
X0232893Y0075356D01*
X0232990Y0075339D01*
X0233086Y0075318D01*
X0233181Y0075293D01*
X0233275Y0075265D01*
X0233367Y0075232D01*
X0233459Y0075197D01*
X0233549Y0075157D01*
X0233637Y0075115D01*
X0233724Y0075068D01*
X0233808Y0075019D01*
X0233891Y0074966D01*
X0233971Y0074910D01*
X0234050Y0074850D01*
X0234126Y0074788D01*
X0234199Y0074723D01*
X0234270Y0074655D01*
X0234338Y0074584D01*
X0234403Y0074511D01*
X0234465Y0074435D01*
X0234525Y0074356D01*
X0234581Y0074276D01*
X0234634Y0074193D01*
X0234683Y0074109D01*
X0234730Y0074022D01*
X0234772Y0073934D01*
X0234812Y0073844D01*
X0234847Y0073752D01*
X0234880Y0073660D01*
X0234908Y0073566D01*
X0234933Y0073471D01*
X0234954Y0073375D01*
X0234971Y0073278D01*
X0234985Y0073181D01*
X0234994Y0073083D01*
X0235000Y0072985D01*
X0235002Y0072887D01*
X0235002Y0072687D02*
X0238959Y0072687D01*
X0239029Y0072699D01*
X0239099Y0072716D01*
X0239167Y0072736D01*
X0239235Y0072759D01*
X0239301Y0072787D01*
X0239365Y0072818D01*
X0239427Y0072852D01*
X0239488Y0072890D01*
X0239547Y0072930D01*
X0239603Y0072974D01*
X0239656Y0073021D01*
X0239708Y0073071D01*
X0239756Y0073124D01*
X0239801Y0073179D01*
X0239844Y0073236D01*
X0239883Y0073296D01*
X0239919Y0073358D01*
X0239951Y0073421D01*
X0239980Y0073486D01*
X0240006Y0073553D01*
X0240028Y0073621D01*
X0240046Y0073690D01*
X0240060Y0073760D01*
X0240070Y0073831D01*
X0240077Y0073902D01*
X0240080Y0073973D01*
X0240079Y0074044D01*
X0240074Y0074116D01*
X0240065Y0074186D01*
X0240065Y0074187D02*
X0240065Y0092980D01*
X0240053Y0093050D01*
X0240036Y0093120D01*
X0240016Y0093188D01*
X0239992Y0093255D01*
X0239965Y0093321D01*
X0239934Y0093386D01*
X0239900Y0093448D01*
X0239862Y0093509D01*
X0239821Y0093567D01*
X0239777Y0093624D01*
X0239730Y0093677D01*
X0239680Y0093728D01*
X0239628Y0093777D01*
X0239573Y0093822D01*
X0239515Y0093865D01*
X0239456Y0093904D01*
X0239394Y0093940D01*
X0239330Y0093972D01*
X0239265Y0094001D01*
X0239199Y0094027D01*
X0239131Y0094048D01*
X0239061Y0094067D01*
X0238992Y0094081D01*
X0238921Y0094091D01*
X0238850Y0094098D01*
X0238779Y0094101D01*
X0238707Y0094100D01*
X0238636Y0094095D01*
X0238565Y0094086D01*
X0238565Y0094087D02*
X0226240Y0094087D01*
X0226239Y0094087D02*
X0226163Y0094085D01*
X0226088Y0094079D01*
X0226012Y0094070D01*
X0225937Y0094056D01*
X0225863Y0094039D01*
X0225790Y0094018D01*
X0225718Y0093994D01*
X0225648Y0093966D01*
X0225579Y0093934D01*
X0225511Y0093899D01*
X0225446Y0093860D01*
X0225382Y0093818D01*
X0225321Y0093773D01*
X0225262Y0093725D01*
X0225206Y0093674D01*
X0225152Y0093620D01*
X0225101Y0093564D01*
X0225053Y0093505D01*
X0225008Y0093444D01*
X0224966Y0093380D01*
X0224927Y0093315D01*
X0224892Y0093247D01*
X0224860Y0093178D01*
X0224832Y0093108D01*
X0224808Y0093036D01*
X0224787Y0092963D01*
X0224770Y0092889D01*
X0224756Y0092814D01*
X0224747Y0092738D01*
X0224741Y0092663D01*
X0224739Y0092587D01*
X0204253Y0071969D02*
X0201891Y0071969D01*
X0204253Y0071969D02*
X0204253Y0068820D01*
X0195591Y0071969D02*
X0193229Y0071969D01*
X0193229Y0068820D01*
X0122426Y0056519D02*
X0122426Y0050019D01*
X0122424Y0049959D01*
X0122419Y0049898D01*
X0122410Y0049839D01*
X0122397Y0049780D01*
X0122381Y0049721D01*
X0122361Y0049664D01*
X0122338Y0049609D01*
X0122311Y0049554D01*
X0122282Y0049502D01*
X0122249Y0049451D01*
X0122213Y0049402D01*
X0122175Y0049356D01*
X0122133Y0049312D01*
X0122089Y0049270D01*
X0122043Y0049232D01*
X0121994Y0049196D01*
X0121943Y0049163D01*
X0121891Y0049134D01*
X0121836Y0049107D01*
X0121781Y0049084D01*
X0121724Y0049064D01*
X0121665Y0049048D01*
X0121606Y0049035D01*
X0121547Y0049026D01*
X0121486Y0049021D01*
X0121426Y0049019D01*
X0115426Y0049019D02*
X0115366Y0049021D01*
X0115305Y0049026D01*
X0115246Y0049035D01*
X0115187Y0049048D01*
X0115128Y0049064D01*
X0115071Y0049084D01*
X0115016Y0049107D01*
X0114961Y0049134D01*
X0114909Y0049163D01*
X0114858Y0049196D01*
X0114809Y0049232D01*
X0114763Y0049270D01*
X0114719Y0049312D01*
X0114677Y0049356D01*
X0114639Y0049402D01*
X0114603Y0049451D01*
X0114570Y0049502D01*
X0114541Y0049554D01*
X0114514Y0049609D01*
X0114491Y0049664D01*
X0114471Y0049721D01*
X0114455Y0049780D01*
X0114442Y0049839D01*
X0114433Y0049898D01*
X0114428Y0049959D01*
X0114426Y0050019D01*
X0114426Y0056519D01*
X0114428Y0056579D01*
X0114433Y0056640D01*
X0114442Y0056699D01*
X0114455Y0056758D01*
X0114471Y0056817D01*
X0114491Y0056874D01*
X0114514Y0056929D01*
X0114541Y0056984D01*
X0114570Y0057036D01*
X0114603Y0057087D01*
X0114639Y0057136D01*
X0114677Y0057182D01*
X0114719Y0057226D01*
X0114763Y0057268D01*
X0114809Y0057306D01*
X0114858Y0057342D01*
X0114909Y0057375D01*
X0114961Y0057404D01*
X0115016Y0057431D01*
X0115071Y0057454D01*
X0115128Y0057474D01*
X0115187Y0057490D01*
X0115246Y0057503D01*
X0115305Y0057512D01*
X0115366Y0057517D01*
X0115426Y0057519D01*
X0121426Y0057519D02*
X0121486Y0057517D01*
X0121547Y0057512D01*
X0121606Y0057503D01*
X0121665Y0057490D01*
X0121724Y0057474D01*
X0121781Y0057454D01*
X0121836Y0057431D01*
X0121891Y0057404D01*
X0121943Y0057375D01*
X0121994Y0057342D01*
X0122043Y0057306D01*
X0122089Y0057268D01*
X0122133Y0057226D01*
X0122175Y0057182D01*
X0122213Y0057136D01*
X0122249Y0057087D01*
X0122282Y0057036D01*
X0122311Y0056984D01*
X0122338Y0056929D01*
X0122361Y0056874D01*
X0122381Y0056817D01*
X0122397Y0056758D01*
X0122410Y0056699D01*
X0122419Y0056640D01*
X0122424Y0056579D01*
X0122426Y0056519D01*
X0100576Y0055928D02*
X0100576Y0049428D01*
X0100574Y0049368D01*
X0100569Y0049307D01*
X0100560Y0049248D01*
X0100547Y0049189D01*
X0100531Y0049130D01*
X0100511Y0049073D01*
X0100488Y0049018D01*
X0100461Y0048963D01*
X0100432Y0048911D01*
X0100399Y0048860D01*
X0100363Y0048811D01*
X0100325Y0048765D01*
X0100283Y0048721D01*
X0100239Y0048679D01*
X0100193Y0048641D01*
X0100144Y0048605D01*
X0100093Y0048572D01*
X0100041Y0048543D01*
X0099986Y0048516D01*
X0099931Y0048493D01*
X0099874Y0048473D01*
X0099815Y0048457D01*
X0099756Y0048444D01*
X0099697Y0048435D01*
X0099636Y0048430D01*
X0099576Y0048428D01*
X0093576Y0048428D02*
X0093516Y0048430D01*
X0093455Y0048435D01*
X0093396Y0048444D01*
X0093337Y0048457D01*
X0093278Y0048473D01*
X0093221Y0048493D01*
X0093166Y0048516D01*
X0093111Y0048543D01*
X0093059Y0048572D01*
X0093008Y0048605D01*
X0092959Y0048641D01*
X0092913Y0048679D01*
X0092869Y0048721D01*
X0092827Y0048765D01*
X0092789Y0048811D01*
X0092753Y0048860D01*
X0092720Y0048911D01*
X0092691Y0048963D01*
X0092664Y0049018D01*
X0092641Y0049073D01*
X0092621Y0049130D01*
X0092605Y0049189D01*
X0092592Y0049248D01*
X0092583Y0049307D01*
X0092578Y0049368D01*
X0092576Y0049428D01*
X0092576Y0055928D01*
X0092578Y0055988D01*
X0092583Y0056049D01*
X0092592Y0056108D01*
X0092605Y0056167D01*
X0092621Y0056226D01*
X0092641Y0056283D01*
X0092664Y0056338D01*
X0092691Y0056393D01*
X0092720Y0056445D01*
X0092753Y0056496D01*
X0092789Y0056545D01*
X0092827Y0056591D01*
X0092869Y0056635D01*
X0092913Y0056677D01*
X0092959Y0056715D01*
X0093008Y0056751D01*
X0093059Y0056784D01*
X0093111Y0056813D01*
X0093166Y0056840D01*
X0093221Y0056863D01*
X0093278Y0056883D01*
X0093337Y0056899D01*
X0093396Y0056912D01*
X0093455Y0056921D01*
X0093516Y0056926D01*
X0093576Y0056928D01*
X0099576Y0056928D02*
X0099636Y0056926D01*
X0099697Y0056921D01*
X0099756Y0056912D01*
X0099815Y0056899D01*
X0099874Y0056883D01*
X0099931Y0056863D01*
X0099986Y0056840D01*
X0100041Y0056813D01*
X0100093Y0056784D01*
X0100144Y0056751D01*
X0100193Y0056715D01*
X0100239Y0056677D01*
X0100283Y0056635D01*
X0100325Y0056591D01*
X0100363Y0056545D01*
X0100399Y0056496D01*
X0100432Y0056445D01*
X0100461Y0056393D01*
X0100488Y0056338D01*
X0100511Y0056283D01*
X0100531Y0056226D01*
X0100547Y0056167D01*
X0100560Y0056108D01*
X0100569Y0056049D01*
X0100574Y0055988D01*
X0100576Y0055928D01*
X0094253Y0095788D02*
X0090867Y0095788D01*
X0090867Y0099237D01*
X0094253Y0095788D01*
X0117639Y0095788D01*
X0117639Y0114686D01*
X0090867Y0114686D01*
X0090867Y0099237D01*
X0261536Y0120985D02*
X0264686Y0120985D01*
X0261536Y0120985D02*
X0261536Y0123347D01*
X0261536Y0129646D02*
X0261536Y0132009D01*
X0264686Y0132009D01*
X0295105Y0117048D02*
X0295107Y0117107D01*
X0295113Y0117165D01*
X0295123Y0117223D01*
X0295136Y0117280D01*
X0295154Y0117337D01*
X0295175Y0117392D01*
X0295200Y0117445D01*
X0295228Y0117496D01*
X0295259Y0117546D01*
X0295294Y0117593D01*
X0295332Y0117638D01*
X0295373Y0117681D01*
X0295417Y0117720D01*
X0295463Y0117756D01*
X0295511Y0117790D01*
X0295562Y0117820D01*
X0295615Y0117846D01*
X0295669Y0117869D01*
X0295724Y0117888D01*
X0295781Y0117904D01*
X0295839Y0117916D01*
X0295897Y0117924D01*
X0295956Y0117928D01*
X0296014Y0117928D01*
X0296073Y0117924D01*
X0296131Y0117916D01*
X0296189Y0117904D01*
X0296246Y0117888D01*
X0296301Y0117869D01*
X0296355Y0117846D01*
X0296408Y0117820D01*
X0296459Y0117790D01*
X0296507Y0117756D01*
X0296553Y0117720D01*
X0296597Y0117681D01*
X0296638Y0117638D01*
X0296676Y0117593D01*
X0296711Y0117546D01*
X0296742Y0117496D01*
X0296770Y0117445D01*
X0296795Y0117392D01*
X0296816Y0117337D01*
X0296834Y0117280D01*
X0296847Y0117223D01*
X0296857Y0117165D01*
X0296863Y0117107D01*
X0296865Y0117048D01*
X0296863Y0116989D01*
X0296857Y0116931D01*
X0296847Y0116873D01*
X0296834Y0116816D01*
X0296816Y0116759D01*
X0296795Y0116704D01*
X0296770Y0116651D01*
X0296742Y0116600D01*
X0296711Y0116550D01*
X0296676Y0116503D01*
X0296638Y0116458D01*
X0296597Y0116415D01*
X0296553Y0116376D01*
X0296507Y0116340D01*
X0296459Y0116306D01*
X0296408Y0116276D01*
X0296355Y0116250D01*
X0296301Y0116227D01*
X0296246Y0116208D01*
X0296189Y0116192D01*
X0296131Y0116180D01*
X0296073Y0116172D01*
X0296014Y0116168D01*
X0295956Y0116168D01*
X0295897Y0116172D01*
X0295839Y0116180D01*
X0295781Y0116192D01*
X0295724Y0116208D01*
X0295669Y0116227D01*
X0295615Y0116250D01*
X0295562Y0116276D01*
X0295511Y0116306D01*
X0295463Y0116340D01*
X0295417Y0116376D01*
X0295373Y0116415D01*
X0295332Y0116458D01*
X0295294Y0116503D01*
X0295259Y0116550D01*
X0295228Y0116600D01*
X0295200Y0116651D01*
X0295175Y0116704D01*
X0295154Y0116759D01*
X0295136Y0116816D01*
X0295123Y0116873D01*
X0295113Y0116931D01*
X0295107Y0116989D01*
X0295105Y0117048D01*
X0294804Y0114686D02*
X0286930Y0114686D01*
X0286930Y0109174D01*
X0288111Y0106418D02*
X0290867Y0106418D01*
X0293229Y0104056D01*
X0288505Y0104056D01*
X0290867Y0106418D01*
X0293623Y0106418D01*
X0294804Y0109174D02*
X0294804Y0114686D01*
X0323150Y0113308D02*
X0323150Y0110158D01*
X0323150Y0113308D02*
X0325513Y0113308D01*
X0331812Y0113308D02*
X0334174Y0113308D01*
X0334174Y0110158D01*
X0334174Y0100316D02*
X0331812Y0100316D01*
X0334174Y0100316D02*
X0334174Y0097166D01*
X0325513Y0100316D02*
X0323150Y0100316D01*
X0323150Y0097166D01*
X0294804Y0095788D02*
X0294804Y0101300D01*
X0286930Y0101300D02*
X0286930Y0095788D01*
X0294804Y0095788D01*
X0386497Y0075198D02*
X0388308Y0075198D01*
X0389228Y0073977D01*
X0390119Y0075198D02*
X0388308Y0075198D01*
X0388208Y0075137D02*
X0387448Y0073977D01*
X0418229Y0075709D02*
X0424528Y0075709D01*
X0418229Y0075709D02*
X0418229Y0111143D01*
X0424922Y0111143D01*
X0440670Y0111143D02*
X0448938Y0111143D01*
X0464686Y0111143D02*
X0470591Y0111143D01*
X0470591Y0103269D01*
X0456812Y0103269D01*
X0470591Y0103269D02*
X0470591Y0083583D01*
X0456812Y0083583D01*
X0470591Y0083583D02*
X0470591Y0075709D01*
X0464686Y0075709D01*
X0470591Y0075709D02*
X0476497Y0075709D01*
X0476497Y0111143D01*
X0470591Y0111143D01*
X0460552Y0121379D02*
X0446772Y0121379D01*
X0446772Y0124528D01*
X0456615Y0124528D01*
X0456615Y0129253D01*
X0476300Y0129253D02*
X0476300Y0145001D01*
X0460552Y0152875D02*
X0446772Y0152875D01*
X0446772Y0149725D01*
X0456615Y0149725D01*
X0456615Y0145001D01*
X0396969Y0111930D02*
X0393820Y0111930D01*
X0393820Y0109568D01*
X0393820Y0103269D02*
X0393820Y0100906D01*
X0396969Y0100906D01*
X0404450Y0098347D02*
X0407599Y0098347D01*
X0407599Y0095985D01*
X0407599Y0089686D02*
X0407599Y0087324D01*
X0404450Y0087324D01*
X0440670Y0075709D02*
X0448938Y0075709D01*
X0456812Y0083583D02*
X0456584Y0083596D01*
X0456357Y0083615D01*
X0456130Y0083639D01*
X0455904Y0083668D01*
X0455679Y0083703D01*
X0455455Y0083743D01*
X0455232Y0083789D01*
X0455009Y0083840D01*
X0454789Y0083896D01*
X0454569Y0083958D01*
X0454351Y0084025D01*
X0454135Y0084097D01*
X0453921Y0084175D01*
X0453709Y0084257D01*
X0453498Y0084345D01*
X0453290Y0084438D01*
X0453084Y0084536D01*
X0452881Y0084638D01*
X0452680Y0084746D01*
X0452482Y0084858D01*
X0452286Y0084976D01*
X0452094Y0085097D01*
X0451904Y0085224D01*
X0451717Y0085355D01*
X0451534Y0085490D01*
X0451354Y0085630D01*
X0451178Y0085775D01*
X0451005Y0085923D01*
X0450836Y0086076D01*
X0450670Y0086232D01*
X0450508Y0086393D01*
X0450350Y0086557D01*
X0450197Y0086725D01*
X0450047Y0086897D01*
X0449901Y0087073D01*
X0449760Y0087252D01*
X0449623Y0087434D01*
X0449491Y0087619D01*
X0449363Y0087808D01*
X0449240Y0088000D01*
X0449121Y0088194D01*
X0449007Y0088392D01*
X0448898Y0088592D01*
X0448794Y0088794D01*
X0448695Y0089000D01*
X0448601Y0089207D01*
X0448511Y0089417D01*
X0448427Y0089629D01*
X0448348Y0089842D01*
X0448274Y0090058D01*
X0448206Y0090275D01*
X0448142Y0090494D01*
X0448084Y0090715D01*
X0448032Y0090936D01*
X0447984Y0091159D01*
X0447942Y0091383D01*
X0447906Y0091608D01*
X0447875Y0091834D01*
X0447849Y0092061D01*
X0447829Y0092288D01*
X0447815Y0092515D01*
X0447806Y0092743D01*
X0447802Y0092971D01*
X0447804Y0093198D01*
X0447811Y0093426D01*
X0447804Y0093654D01*
X0447802Y0093881D01*
X0447806Y0094109D01*
X0447815Y0094337D01*
X0447829Y0094564D01*
X0447849Y0094791D01*
X0447875Y0095018D01*
X0447906Y0095244D01*
X0447942Y0095469D01*
X0447984Y0095693D01*
X0448032Y0095916D01*
X0448084Y0096137D01*
X0448142Y0096358D01*
X0448206Y0096577D01*
X0448274Y0096794D01*
X0448348Y0097010D01*
X0448427Y0097223D01*
X0448511Y0097435D01*
X0448601Y0097645D01*
X0448695Y0097852D01*
X0448794Y0098058D01*
X0448898Y0098260D01*
X0449007Y0098460D01*
X0449121Y0098658D01*
X0449240Y0098852D01*
X0449363Y0099044D01*
X0449491Y0099233D01*
X0449623Y0099418D01*
X0449760Y0099600D01*
X0449901Y0099779D01*
X0450047Y0099955D01*
X0450197Y0100127D01*
X0450350Y0100295D01*
X0450508Y0100459D01*
X0450670Y0100620D01*
X0450836Y0100776D01*
X0451005Y0100929D01*
X0451178Y0101077D01*
X0451354Y0101222D01*
X0451534Y0101362D01*
X0451717Y0101497D01*
X0451904Y0101628D01*
X0452094Y0101755D01*
X0452286Y0101876D01*
X0452482Y0101994D01*
X0452680Y0102106D01*
X0452881Y0102214D01*
X0453084Y0102316D01*
X0453290Y0102414D01*
X0453498Y0102507D01*
X0453709Y0102595D01*
X0453921Y0102677D01*
X0454135Y0102755D01*
X0454351Y0102827D01*
X0454569Y0102894D01*
X0454789Y0102956D01*
X0455009Y0103012D01*
X0455232Y0103063D01*
X0455455Y0103109D01*
X0455679Y0103149D01*
X0455904Y0103184D01*
X0456130Y0103213D01*
X0456357Y0103237D01*
X0456584Y0103256D01*
X0456812Y0103269D01*
X0389758Y0058544D02*
X0388998Y0057384D01*
X0388898Y0057324D02*
X0387978Y0058544D01*
X0387087Y0057324D02*
X0388898Y0057324D01*
X0390709Y0057324D01*
D16*
X0364331Y0067749D02*
X0359135Y0067749D01*
X0359135Y0078946D01*
X0364331Y0078946D01*
X0364331Y0067749D01*
X0353985Y0088481D02*
X0350583Y0088481D01*
X0350583Y0091284D02*
X0353985Y0091284D01*
X0353985Y0096749D02*
X0350583Y0096749D01*
X0350583Y0099552D02*
X0353985Y0099552D01*
X0334262Y0100160D02*
X0334262Y0094960D01*
X0323062Y0094960D01*
X0323062Y0100160D01*
X0334262Y0100160D01*
X0319434Y0099851D02*
X0319434Y0096450D01*
X0316631Y0096450D02*
X0316631Y0099851D01*
X0305560Y0100733D02*
X0302158Y0100733D01*
X0302158Y0097930D02*
X0305560Y0097930D01*
X0316631Y0108851D02*
X0316631Y0112253D01*
X0319434Y0112253D02*
X0319434Y0108851D01*
X0323062Y0107952D02*
X0323062Y0113152D01*
X0334262Y0113152D01*
X0334262Y0107952D01*
X0323062Y0107952D01*
X0283977Y0119017D02*
X0277678Y0119017D01*
X0277678Y0126891D01*
X0283977Y0126891D01*
X0283977Y0119017D01*
X0266892Y0120897D02*
X0261692Y0120897D01*
X0261692Y0132097D01*
X0266892Y0132097D01*
X0266892Y0120897D01*
X0266583Y0117269D02*
X0263182Y0117269D01*
X0263182Y0114465D02*
X0266583Y0114465D01*
X0266973Y0104753D02*
X0263973Y0104753D01*
X0263973Y0101753D01*
X0260973Y0101753D02*
X0269973Y0101753D01*
X0273973Y0101753D01*
X0274033Y0101751D01*
X0274094Y0101746D01*
X0274153Y0101737D01*
X0274212Y0101724D01*
X0274271Y0101708D01*
X0274328Y0101688D01*
X0274383Y0101665D01*
X0274438Y0101638D01*
X0274490Y0101609D01*
X0274541Y0101576D01*
X0274590Y0101540D01*
X0274636Y0101502D01*
X0274680Y0101460D01*
X0274722Y0101416D01*
X0274760Y0101370D01*
X0274796Y0101321D01*
X0274829Y0101270D01*
X0274858Y0101218D01*
X0274885Y0101163D01*
X0274908Y0101108D01*
X0274928Y0101051D01*
X0274944Y0100992D01*
X0274957Y0100933D01*
X0274966Y0100874D01*
X0274971Y0100813D01*
X0274973Y0100753D01*
X0274973Y0057753D01*
X0274971Y0057693D01*
X0274966Y0057632D01*
X0274957Y0057573D01*
X0274944Y0057514D01*
X0274928Y0057455D01*
X0274908Y0057398D01*
X0274885Y0057343D01*
X0274858Y0057288D01*
X0274829Y0057236D01*
X0274796Y0057185D01*
X0274760Y0057136D01*
X0274722Y0057090D01*
X0274680Y0057046D01*
X0274636Y0057004D01*
X0274590Y0056966D01*
X0274541Y0056930D01*
X0274490Y0056897D01*
X0274438Y0056868D01*
X0274383Y0056841D01*
X0274328Y0056818D01*
X0274271Y0056798D01*
X0274212Y0056782D01*
X0274153Y0056769D01*
X0274094Y0056760D01*
X0274033Y0056755D01*
X0273973Y0056753D01*
X0269973Y0056753D01*
X0266973Y0056753D01*
X0266973Y0053753D01*
X0263973Y0053753D01*
X0263973Y0056753D01*
X0260973Y0056753D01*
X0256973Y0056753D01*
X0256913Y0056755D01*
X0256852Y0056760D01*
X0256793Y0056769D01*
X0256734Y0056782D01*
X0256675Y0056798D01*
X0256618Y0056818D01*
X0256563Y0056841D01*
X0256508Y0056868D01*
X0256456Y0056897D01*
X0256405Y0056930D01*
X0256356Y0056966D01*
X0256310Y0057004D01*
X0256266Y0057046D01*
X0256224Y0057090D01*
X0256186Y0057136D01*
X0256150Y0057185D01*
X0256117Y0057236D01*
X0256088Y0057288D01*
X0256061Y0057343D01*
X0256038Y0057398D01*
X0256018Y0057455D01*
X0256002Y0057514D01*
X0255989Y0057573D01*
X0255980Y0057632D01*
X0255975Y0057693D01*
X0255973Y0057753D01*
X0255973Y0100753D01*
X0255975Y0100813D01*
X0255980Y0100874D01*
X0255989Y0100933D01*
X0256002Y0100992D01*
X0256018Y0101051D01*
X0256038Y0101108D01*
X0256061Y0101163D01*
X0256088Y0101218D01*
X0256117Y0101270D01*
X0256150Y0101321D01*
X0256186Y0101370D01*
X0256224Y0101416D01*
X0256266Y0101460D01*
X0256310Y0101502D01*
X0256356Y0101540D01*
X0256405Y0101576D01*
X0256456Y0101609D01*
X0256508Y0101638D01*
X0256563Y0101665D01*
X0256618Y0101688D01*
X0256675Y0101708D01*
X0256734Y0101724D01*
X0256793Y0101737D01*
X0256852Y0101746D01*
X0256913Y0101751D01*
X0256973Y0101753D01*
X0260973Y0101753D01*
X0266973Y0101753D02*
X0266973Y0104753D01*
X0267973Y0081753D02*
X0265473Y0081753D01*
X0262973Y0081753D01*
X0262973Y0080253D02*
X0262973Y0078253D01*
X0267973Y0078253D01*
X0267973Y0080253D01*
X0262973Y0080253D01*
X0262973Y0076753D02*
X0265473Y0076753D01*
X0267973Y0076753D01*
X0225599Y0062363D02*
X0214402Y0062363D01*
X0214402Y0057166D01*
X0225599Y0057166D01*
X0225599Y0062363D01*
X0204341Y0066613D02*
X0193141Y0066613D01*
X0193141Y0071813D01*
X0204341Y0071813D01*
X0204341Y0066613D01*
X0200442Y0059985D02*
X0197040Y0059985D01*
X0197040Y0057182D02*
X0200442Y0057182D01*
X0187450Y0073127D02*
X0184048Y0073127D01*
X0184048Y0075930D02*
X0187450Y0075930D01*
X0197040Y0079032D02*
X0200442Y0079032D01*
X0200442Y0081835D02*
X0197040Y0081835D01*
X0193141Y0088464D02*
X0193141Y0093664D01*
X0204341Y0093664D01*
X0204341Y0088464D01*
X0193141Y0088464D01*
X0187450Y0095568D02*
X0184048Y0095568D01*
X0184048Y0098371D02*
X0187450Y0098371D01*
X0171223Y0098456D02*
X0166023Y0098456D01*
X0166023Y0109656D01*
X0171223Y0109656D01*
X0171223Y0098456D01*
X0170914Y0093056D02*
X0167513Y0093056D01*
X0167513Y0090253D02*
X0170914Y0090253D01*
X0134591Y0082135D02*
X0134591Y0078733D01*
X0131788Y0078733D02*
X0131788Y0082135D01*
X0115694Y0082135D02*
X0115694Y0078733D01*
X0112891Y0078733D02*
X0112891Y0082135D01*
X0093843Y0082135D02*
X0093843Y0078733D01*
X0091040Y0078733D02*
X0091040Y0082135D01*
X0074946Y0082135D02*
X0074946Y0078733D01*
X0072143Y0078733D02*
X0072143Y0082135D01*
X0076276Y0091725D02*
X0076276Y0095127D01*
X0079080Y0095127D02*
X0079080Y0091725D01*
X0079080Y0103536D02*
X0079080Y0106938D01*
X0076276Y0106938D02*
X0076276Y0103536D01*
X0068450Y0114757D02*
X0068450Y0118158D01*
X0065646Y0118158D02*
X0065646Y0114757D01*
X0078623Y0123261D02*
X0078623Y0123631D01*
X0078623Y0123261D02*
X0078623Y0134457D01*
X0078623Y0134087D01*
X0078623Y0134457D02*
X0085001Y0134457D01*
X0085001Y0134087D01*
X0085001Y0134457D02*
X0085001Y0123261D01*
X0085001Y0123631D01*
X0085001Y0123261D02*
X0078623Y0123261D01*
X0078623Y0126804D02*
X0078623Y0127174D01*
X0085001Y0127174D02*
X0085001Y0126804D01*
X0085001Y0130544D02*
X0085001Y0130914D01*
X0079646Y0132796D02*
X0079648Y0132835D01*
X0079654Y0132874D01*
X0079664Y0132912D01*
X0079677Y0132949D01*
X0079694Y0132984D01*
X0079714Y0133018D01*
X0079738Y0133049D01*
X0079765Y0133078D01*
X0079794Y0133104D01*
X0079826Y0133127D01*
X0079860Y0133147D01*
X0079896Y0133163D01*
X0079933Y0133175D01*
X0079972Y0133184D01*
X0080011Y0133189D01*
X0080050Y0133190D01*
X0080089Y0133187D01*
X0080128Y0133180D01*
X0080165Y0133169D01*
X0080202Y0133155D01*
X0080237Y0133137D01*
X0080270Y0133116D01*
X0080301Y0133091D01*
X0080329Y0133064D01*
X0080354Y0133034D01*
X0080376Y0133001D01*
X0080395Y0132967D01*
X0080410Y0132931D01*
X0080422Y0132893D01*
X0080430Y0132855D01*
X0080434Y0132816D01*
X0080434Y0132776D01*
X0080430Y0132737D01*
X0080422Y0132699D01*
X0080410Y0132661D01*
X0080395Y0132625D01*
X0080376Y0132591D01*
X0080354Y0132558D01*
X0080329Y0132528D01*
X0080301Y0132501D01*
X0080270Y0132476D01*
X0080237Y0132455D01*
X0080202Y0132437D01*
X0080165Y0132423D01*
X0080128Y0132412D01*
X0080089Y0132405D01*
X0080050Y0132402D01*
X0080011Y0132403D01*
X0079972Y0132408D01*
X0079933Y0132417D01*
X0079896Y0132429D01*
X0079860Y0132445D01*
X0079826Y0132465D01*
X0079794Y0132488D01*
X0079765Y0132514D01*
X0079738Y0132543D01*
X0079714Y0132574D01*
X0079694Y0132608D01*
X0079677Y0132643D01*
X0079664Y0132680D01*
X0079654Y0132718D01*
X0079648Y0132757D01*
X0079646Y0132796D01*
X0078623Y0130914D02*
X0078623Y0130544D01*
X0079080Y0066780D02*
X0079080Y0063379D01*
X0076276Y0063379D02*
X0076276Y0066780D01*
X0095174Y0066780D02*
X0095174Y0063379D01*
X0097977Y0063379D02*
X0097977Y0066780D01*
X0117024Y0066780D02*
X0117024Y0063379D01*
X0119828Y0063379D02*
X0119828Y0066780D01*
X0135922Y0066780D02*
X0135922Y0063379D01*
X0138725Y0063379D02*
X0138725Y0066780D01*
X0263973Y0056753D02*
X0266973Y0056753D01*
X0392221Y0091135D02*
X0392221Y0094536D01*
X0395024Y0094536D02*
X0395024Y0091135D01*
X0402243Y0087235D02*
X0402243Y0098435D01*
X0407443Y0098435D01*
X0407443Y0087235D01*
X0402243Y0087235D01*
X0399176Y0100818D02*
X0393976Y0100818D01*
X0393976Y0112018D01*
X0399176Y0112018D01*
X0399176Y0100818D01*
X0405804Y0104717D02*
X0405804Y0108119D01*
X0408607Y0108119D02*
X0408607Y0104717D01*
X0353095Y0126568D02*
X0353095Y0129969D01*
X0350292Y0129969D02*
X0350292Y0126568D01*
X0344237Y0126568D02*
X0344237Y0129969D01*
X0341434Y0129969D02*
X0341434Y0126568D01*
X0430308Y0062938D02*
X0433709Y0062938D01*
X0433709Y0060135D02*
X0430308Y0060135D01*
X0430308Y0054670D02*
X0433709Y0054670D01*
X0433709Y0051867D02*
X0430308Y0051867D01*
D17*
X0429509Y0053269D03*
X0434509Y0053269D03*
X0434509Y0061536D03*
X0429509Y0061536D03*
X0354784Y0089883D03*
X0349784Y0089883D03*
X0349784Y0098150D03*
X0354784Y0098150D03*
X0306359Y0099331D03*
X0301359Y0099331D03*
X0267383Y0115867D03*
X0262383Y0115867D03*
X0188249Y0096969D03*
X0183249Y0096969D03*
X0171713Y0091654D03*
X0166713Y0091654D03*
X0196241Y0080434D03*
X0201241Y0080434D03*
X0188249Y0074528D03*
X0183249Y0074528D03*
X0196241Y0058583D03*
X0201241Y0058583D03*
D18*
X0243377Y0075887D03*
X0243377Y0080887D03*
X0243377Y0085887D03*
X0243377Y0090887D03*
D19*
X0221402Y0090887D03*
X0221402Y0085887D03*
X0221402Y0080887D03*
X0221402Y0075887D03*
D20*
X0240559Y0071790D02*
X0240527Y0071512D01*
X0240559Y0071233D01*
X0240651Y0070969D01*
X0240800Y0070732D01*
X0240998Y0070534D01*
X0241235Y0070385D01*
X0241499Y0070293D01*
X0241777Y0070262D01*
X0242056Y0070293D01*
X0242320Y0070385D01*
X0242557Y0070534D01*
X0242755Y0070732D01*
X0242904Y0070969D01*
X0242996Y0071233D01*
X0243027Y0071512D01*
X0242996Y0071790D01*
X0242904Y0072054D01*
X0242755Y0072291D01*
X0242557Y0072489D01*
X0242320Y0072638D01*
X0242056Y0072730D01*
X0241777Y0072762D01*
X0241499Y0072730D01*
X0241235Y0072638D01*
X0240998Y0072489D01*
X0240800Y0072291D01*
X0240651Y0072054D01*
X0240559Y0071790D01*
X0240559Y0071791D02*
X0242996Y0071791D01*
X0242997Y0071783D02*
X0240558Y0071783D01*
X0240557Y0071774D02*
X0242998Y0071774D01*
X0242999Y0071766D02*
X0240556Y0071766D01*
X0240555Y0071757D02*
X0243000Y0071757D01*
X0243001Y0071748D02*
X0240554Y0071748D01*
X0240553Y0071740D02*
X0243002Y0071740D01*
X0243003Y0071731D02*
X0240552Y0071731D01*
X0240551Y0071723D02*
X0243004Y0071723D01*
X0243005Y0071714D02*
X0240550Y0071714D01*
X0240549Y0071706D02*
X0243005Y0071706D01*
X0243006Y0071697D02*
X0240548Y0071697D01*
X0240547Y0071689D02*
X0243007Y0071689D01*
X0243008Y0071680D02*
X0240546Y0071680D01*
X0240545Y0071672D02*
X0243009Y0071672D01*
X0243010Y0071663D02*
X0240544Y0071663D01*
X0240544Y0071655D02*
X0243011Y0071655D01*
X0243012Y0071646D02*
X0240543Y0071646D01*
X0240542Y0071638D02*
X0243013Y0071638D01*
X0243014Y0071629D02*
X0240541Y0071629D01*
X0240540Y0071621D02*
X0243015Y0071621D01*
X0243016Y0071612D02*
X0240539Y0071612D01*
X0240538Y0071604D02*
X0243017Y0071604D01*
X0243018Y0071595D02*
X0240537Y0071595D01*
X0240536Y0071587D02*
X0243019Y0071587D01*
X0243020Y0071578D02*
X0240535Y0071578D01*
X0240534Y0071570D02*
X0243021Y0071570D01*
X0243022Y0071561D02*
X0240533Y0071561D01*
X0240532Y0071553D02*
X0243023Y0071553D01*
X0243024Y0071544D02*
X0240531Y0071544D01*
X0240530Y0071536D02*
X0243025Y0071536D01*
X0243026Y0071527D02*
X0240529Y0071527D01*
X0240528Y0071519D02*
X0243027Y0071519D01*
X0243027Y0071510D02*
X0240528Y0071510D01*
X0240528Y0071502D02*
X0243026Y0071502D01*
X0243025Y0071493D02*
X0240529Y0071493D01*
X0240530Y0071485D02*
X0243024Y0071485D01*
X0243023Y0071476D02*
X0240531Y0071476D01*
X0240532Y0071468D02*
X0243022Y0071468D01*
X0243021Y0071459D02*
X0240533Y0071459D01*
X0240534Y0071450D02*
X0243020Y0071450D01*
X0243020Y0071442D02*
X0240535Y0071442D01*
X0240536Y0071433D02*
X0243019Y0071433D01*
X0243018Y0071425D02*
X0240537Y0071425D01*
X0240538Y0071416D02*
X0243017Y0071416D01*
X0243016Y0071408D02*
X0240539Y0071408D01*
X0240540Y0071399D02*
X0243015Y0071399D01*
X0243014Y0071391D02*
X0240541Y0071391D01*
X0240542Y0071382D02*
X0243013Y0071382D01*
X0243012Y0071374D02*
X0240543Y0071374D01*
X0240544Y0071365D02*
X0243011Y0071365D01*
X0243010Y0071357D02*
X0240545Y0071357D01*
X0240546Y0071348D02*
X0243009Y0071348D01*
X0243008Y0071340D02*
X0240547Y0071340D01*
X0240548Y0071331D02*
X0243007Y0071331D01*
X0243006Y0071323D02*
X0240549Y0071323D01*
X0240550Y0071314D02*
X0243005Y0071314D01*
X0243004Y0071306D02*
X0240551Y0071306D01*
X0240552Y0071297D02*
X0243003Y0071297D01*
X0243002Y0071289D02*
X0240552Y0071289D01*
X0240553Y0071280D02*
X0243001Y0071280D01*
X0243000Y0071272D02*
X0240554Y0071272D01*
X0240555Y0071263D02*
X0242999Y0071263D01*
X0242998Y0071255D02*
X0240556Y0071255D01*
X0240557Y0071246D02*
X0242997Y0071246D01*
X0242996Y0071238D02*
X0240558Y0071238D01*
X0240560Y0071229D02*
X0242995Y0071229D01*
X0242992Y0071221D02*
X0240563Y0071221D01*
X0240566Y0071212D02*
X0242989Y0071212D01*
X0242986Y0071204D02*
X0240569Y0071204D01*
X0240572Y0071195D02*
X0242983Y0071195D01*
X0242980Y0071187D02*
X0240575Y0071187D01*
X0240578Y0071178D02*
X0242977Y0071178D01*
X0242974Y0071170D02*
X0240581Y0071170D01*
X0240584Y0071161D02*
X0242971Y0071161D01*
X0242968Y0071153D02*
X0240587Y0071153D01*
X0240590Y0071144D02*
X0242965Y0071144D01*
X0242962Y0071135D02*
X0240593Y0071135D01*
X0240596Y0071127D02*
X0242959Y0071127D01*
X0242956Y0071118D02*
X0240599Y0071118D01*
X0240602Y0071110D02*
X0242953Y0071110D01*
X0242950Y0071101D02*
X0240605Y0071101D01*
X0240608Y0071093D02*
X0242947Y0071093D01*
X0242944Y0071084D02*
X0240611Y0071084D01*
X0240614Y0071076D02*
X0242941Y0071076D01*
X0242938Y0071067D02*
X0240617Y0071067D01*
X0240620Y0071059D02*
X0242935Y0071059D01*
X0242932Y0071050D02*
X0240623Y0071050D01*
X0240626Y0071042D02*
X0242929Y0071042D01*
X0242926Y0071033D02*
X0240629Y0071033D01*
X0240632Y0071025D02*
X0242923Y0071025D01*
X0242920Y0071016D02*
X0240635Y0071016D01*
X0240638Y0071008D02*
X0242917Y0071008D01*
X0242914Y0070999D02*
X0240641Y0070999D01*
X0240644Y0070991D02*
X0242911Y0070991D01*
X0242908Y0070982D02*
X0240647Y0070982D01*
X0240650Y0070974D02*
X0242905Y0070974D01*
X0242901Y0070965D02*
X0240654Y0070965D01*
X0240659Y0070957D02*
X0242896Y0070957D01*
X0242890Y0070948D02*
X0240664Y0070948D01*
X0240670Y0070940D02*
X0242885Y0070940D01*
X0242880Y0070931D02*
X0240675Y0070931D01*
X0240680Y0070923D02*
X0242874Y0070923D01*
X0242869Y0070914D02*
X0240686Y0070914D01*
X0240691Y0070906D02*
X0242864Y0070906D01*
X0242858Y0070897D02*
X0240696Y0070897D01*
X0240702Y0070889D02*
X0242853Y0070889D01*
X0242848Y0070880D02*
X0240707Y0070880D01*
X0240713Y0070872D02*
X0242842Y0070872D01*
X0242837Y0070863D02*
X0240718Y0070863D01*
X0240723Y0070855D02*
X0242831Y0070855D01*
X0242826Y0070846D02*
X0240729Y0070846D01*
X0240734Y0070838D02*
X0242821Y0070838D01*
X0242815Y0070829D02*
X0240739Y0070829D01*
X0240745Y0070820D02*
X0242810Y0070820D01*
X0242805Y0070812D02*
X0240750Y0070812D01*
X0240755Y0070803D02*
X0242799Y0070803D01*
X0242794Y0070795D02*
X0240761Y0070795D01*
X0240766Y0070786D02*
X0242789Y0070786D01*
X0242783Y0070778D02*
X0240771Y0070778D01*
X0240777Y0070769D02*
X0242778Y0070769D01*
X0242773Y0070761D02*
X0240782Y0070761D01*
X0240787Y0070752D02*
X0242767Y0070752D01*
X0242762Y0070744D02*
X0240793Y0070744D01*
X0240798Y0070735D02*
X0242757Y0070735D01*
X0242749Y0070727D02*
X0240805Y0070727D01*
X0240814Y0070718D02*
X0242741Y0070718D01*
X0242732Y0070710D02*
X0240823Y0070710D01*
X0240831Y0070701D02*
X0242724Y0070701D01*
X0242715Y0070693D02*
X0240840Y0070693D01*
X0240848Y0070684D02*
X0242707Y0070684D01*
X0242698Y0070676D02*
X0240857Y0070676D01*
X0240865Y0070667D02*
X0242690Y0070667D01*
X0242681Y0070659D02*
X0240874Y0070659D01*
X0240882Y0070650D02*
X0242673Y0070650D01*
X0242664Y0070642D02*
X0240891Y0070642D01*
X0240899Y0070633D02*
X0242656Y0070633D01*
X0242647Y0070625D02*
X0240908Y0070625D01*
X0240916Y0070616D02*
X0242639Y0070616D01*
X0242630Y0070608D02*
X0240925Y0070608D01*
X0240933Y0070599D02*
X0242622Y0070599D01*
X0242613Y0070591D02*
X0240942Y0070591D01*
X0240950Y0070582D02*
X0242604Y0070582D01*
X0242596Y0070574D02*
X0240959Y0070574D01*
X0240967Y0070565D02*
X0242587Y0070565D01*
X0242579Y0070557D02*
X0240976Y0070557D01*
X0240984Y0070548D02*
X0242570Y0070548D01*
X0242562Y0070540D02*
X0240993Y0070540D01*
X0241003Y0070531D02*
X0242551Y0070531D01*
X0242538Y0070522D02*
X0241017Y0070522D01*
X0241030Y0070514D02*
X0242524Y0070514D01*
X0242511Y0070505D02*
X0241044Y0070505D01*
X0241057Y0070497D02*
X0242497Y0070497D01*
X0242484Y0070488D02*
X0241071Y0070488D01*
X0241085Y0070480D02*
X0242470Y0070480D01*
X0242457Y0070471D02*
X0241098Y0070471D01*
X0241112Y0070463D02*
X0242443Y0070463D01*
X0242429Y0070454D02*
X0241125Y0070454D01*
X0241139Y0070446D02*
X0242416Y0070446D01*
X0242402Y0070437D02*
X0241152Y0070437D01*
X0241166Y0070429D02*
X0242389Y0070429D01*
X0242375Y0070420D02*
X0241179Y0070420D01*
X0241193Y0070412D02*
X0242362Y0070412D01*
X0242348Y0070403D02*
X0241207Y0070403D01*
X0241220Y0070395D02*
X0242335Y0070395D01*
X0242321Y0070386D02*
X0241234Y0070386D01*
X0241257Y0070378D02*
X0242298Y0070378D01*
X0242274Y0070369D02*
X0241281Y0070369D01*
X0241306Y0070361D02*
X0242249Y0070361D01*
X0242225Y0070352D02*
X0241330Y0070352D01*
X0241354Y0070344D02*
X0242201Y0070344D01*
X0242176Y0070335D02*
X0241379Y0070335D01*
X0241403Y0070327D02*
X0242152Y0070327D01*
X0242128Y0070318D02*
X0241427Y0070318D01*
X0241452Y0070310D02*
X0242103Y0070310D01*
X0242079Y0070301D02*
X0241476Y0070301D01*
X0241502Y0070293D02*
X0242053Y0070293D01*
X0241977Y0070284D02*
X0241578Y0070284D01*
X0241653Y0070276D02*
X0241901Y0070276D01*
X0241826Y0070267D02*
X0241729Y0070267D01*
X0240562Y0071800D02*
X0242993Y0071800D01*
X0242990Y0071808D02*
X0240565Y0071808D01*
X0240568Y0071817D02*
X0242987Y0071817D01*
X0242984Y0071825D02*
X0240571Y0071825D01*
X0240574Y0071834D02*
X0242981Y0071834D01*
X0242978Y0071842D02*
X0240577Y0071842D01*
X0240580Y0071851D02*
X0242975Y0071851D01*
X0242972Y0071859D02*
X0240583Y0071859D01*
X0240586Y0071868D02*
X0242969Y0071868D01*
X0242966Y0071876D02*
X0240589Y0071876D01*
X0240592Y0071885D02*
X0242963Y0071885D01*
X0242960Y0071893D02*
X0240595Y0071893D01*
X0240598Y0071902D02*
X0242957Y0071902D01*
X0242954Y0071910D02*
X0240601Y0071910D01*
X0240604Y0071919D02*
X0242951Y0071919D01*
X0242948Y0071927D02*
X0240607Y0071927D01*
X0240610Y0071936D02*
X0242945Y0071936D01*
X0242942Y0071944D02*
X0240613Y0071944D01*
X0240616Y0071953D02*
X0242939Y0071953D01*
X0242936Y0071961D02*
X0240619Y0071961D01*
X0240622Y0071970D02*
X0242933Y0071970D01*
X0242930Y0071978D02*
X0240625Y0071978D01*
X0240628Y0071987D02*
X0242927Y0071987D01*
X0242924Y0071995D02*
X0240631Y0071995D01*
X0240634Y0072004D02*
X0242921Y0072004D01*
X0242918Y0072012D02*
X0240637Y0072012D01*
X0240640Y0072021D02*
X0242915Y0072021D01*
X0242912Y0072029D02*
X0240643Y0072029D01*
X0240646Y0072038D02*
X0242909Y0072038D01*
X0242906Y0072046D02*
X0240649Y0072046D01*
X0240652Y0072055D02*
X0242903Y0072055D01*
X0242898Y0072063D02*
X0240657Y0072063D01*
X0240662Y0072072D02*
X0242892Y0072072D01*
X0242887Y0072081D02*
X0240668Y0072081D01*
X0240673Y0072089D02*
X0242882Y0072089D01*
X0242876Y0072098D02*
X0240679Y0072098D01*
X0240684Y0072106D02*
X0242871Y0072106D01*
X0242866Y0072115D02*
X0240689Y0072115D01*
X0240695Y0072123D02*
X0242860Y0072123D01*
X0242855Y0072132D02*
X0240700Y0072132D01*
X0240705Y0072140D02*
X0242849Y0072140D01*
X0242844Y0072149D02*
X0240711Y0072149D01*
X0240716Y0072157D02*
X0242839Y0072157D01*
X0242833Y0072166D02*
X0240721Y0072166D01*
X0240727Y0072174D02*
X0242828Y0072174D01*
X0242823Y0072183D02*
X0240732Y0072183D01*
X0240737Y0072191D02*
X0242817Y0072191D01*
X0242812Y0072200D02*
X0240743Y0072200D01*
X0240748Y0072208D02*
X0242807Y0072208D01*
X0242801Y0072217D02*
X0240753Y0072217D01*
X0240759Y0072225D02*
X0242796Y0072225D01*
X0242791Y0072234D02*
X0240764Y0072234D01*
X0240769Y0072242D02*
X0242785Y0072242D01*
X0242780Y0072251D02*
X0240775Y0072251D01*
X0240780Y0072259D02*
X0242775Y0072259D01*
X0242769Y0072268D02*
X0240786Y0072268D01*
X0240791Y0072276D02*
X0242764Y0072276D01*
X0242759Y0072285D02*
X0240796Y0072285D01*
X0240802Y0072293D02*
X0242752Y0072293D01*
X0242744Y0072302D02*
X0240811Y0072302D01*
X0240819Y0072310D02*
X0242735Y0072310D01*
X0242727Y0072319D02*
X0240828Y0072319D01*
X0240837Y0072327D02*
X0242718Y0072327D01*
X0242710Y0072336D02*
X0240845Y0072336D01*
X0240854Y0072344D02*
X0242701Y0072344D01*
X0242693Y0072353D02*
X0240862Y0072353D01*
X0240871Y0072361D02*
X0242684Y0072361D01*
X0242676Y0072370D02*
X0240879Y0072370D01*
X0240888Y0072378D02*
X0242667Y0072378D01*
X0242659Y0072387D02*
X0240896Y0072387D01*
X0240905Y0072396D02*
X0242650Y0072396D01*
X0242642Y0072404D02*
X0240913Y0072404D01*
X0240922Y0072413D02*
X0242633Y0072413D01*
X0242625Y0072421D02*
X0240930Y0072421D01*
X0240939Y0072430D02*
X0242616Y0072430D01*
X0242608Y0072438D02*
X0240947Y0072438D01*
X0240956Y0072447D02*
X0242599Y0072447D01*
X0242591Y0072455D02*
X0240964Y0072455D01*
X0240973Y0072464D02*
X0242582Y0072464D01*
X0242573Y0072472D02*
X0240981Y0072472D01*
X0240990Y0072481D02*
X0242565Y0072481D01*
X0242556Y0072489D02*
X0240998Y0072489D01*
X0241012Y0072498D02*
X0242543Y0072498D01*
X0242529Y0072506D02*
X0241026Y0072506D01*
X0241039Y0072515D02*
X0242516Y0072515D01*
X0242502Y0072523D02*
X0241053Y0072523D01*
X0241066Y0072532D02*
X0242489Y0072532D01*
X0242475Y0072540D02*
X0241080Y0072540D01*
X0241093Y0072549D02*
X0242461Y0072549D01*
X0242448Y0072557D02*
X0241107Y0072557D01*
X0241120Y0072566D02*
X0242434Y0072566D01*
X0242421Y0072574D02*
X0241134Y0072574D01*
X0241147Y0072583D02*
X0242407Y0072583D01*
X0242394Y0072591D02*
X0241161Y0072591D01*
X0241175Y0072600D02*
X0242380Y0072600D01*
X0242367Y0072608D02*
X0241188Y0072608D01*
X0241202Y0072617D02*
X0242353Y0072617D01*
X0242340Y0072625D02*
X0241215Y0072625D01*
X0241229Y0072634D02*
X0242326Y0072634D01*
X0242307Y0072642D02*
X0241248Y0072642D01*
X0241272Y0072651D02*
X0242282Y0072651D01*
X0242258Y0072659D02*
X0241297Y0072659D01*
X0241321Y0072668D02*
X0242234Y0072668D01*
X0242209Y0072676D02*
X0241345Y0072676D01*
X0241370Y0072685D02*
X0242185Y0072685D01*
X0242161Y0072694D02*
X0241394Y0072694D01*
X0241418Y0072702D02*
X0242136Y0072702D01*
X0242112Y0072711D02*
X0241443Y0072711D01*
X0241467Y0072719D02*
X0242088Y0072719D01*
X0242063Y0072728D02*
X0241491Y0072728D01*
X0241551Y0072736D02*
X0242004Y0072736D01*
X0241929Y0072745D02*
X0241626Y0072745D01*
X0241702Y0072753D02*
X0241853Y0072753D01*
D21*
X0286189Y0052698D03*
X0290789Y0052698D03*
X0398984Y0052107D03*
X0403584Y0052107D03*
X0441535Y0053248D03*
X0446135Y0053248D03*
X0446135Y0061516D03*
X0441535Y0061516D03*
X0377010Y0134194D03*
X0372410Y0134194D03*
X0136686Y0134744D03*
X0132086Y0134744D03*
X0132086Y0126477D03*
X0136686Y0126477D03*
X0136686Y0118209D03*
X0132086Y0118209D03*
X0132086Y0109941D03*
X0136686Y0109941D03*
X0136686Y0101674D03*
X0132086Y0101674D03*
X0132086Y0093406D03*
X0136686Y0093406D03*
X0084127Y0117619D03*
X0079527Y0117619D03*
X0068182Y0130020D03*
X0063582Y0130020D03*
X0093669Y0133604D03*
X0098269Y0133604D03*
D22*
X0303264Y0131736D03*
X0303264Y0126036D03*
X0342840Y0115738D03*
X0351698Y0115738D03*
X0360556Y0115738D03*
X0360556Y0110038D03*
X0351698Y0110038D03*
X0342840Y0110038D03*
X0390666Y0121311D03*
X0401295Y0121311D03*
X0401295Y0127011D03*
X0390666Y0127011D03*
D23*
X0351694Y0125769D03*
X0342835Y0125769D03*
X0342835Y0130769D03*
X0351694Y0130769D03*
X0318032Y0113052D03*
X0318032Y0108052D03*
X0318032Y0100650D03*
X0318032Y0095650D03*
X0393623Y0095335D03*
X0393623Y0090335D03*
X0407206Y0103918D03*
X0407206Y0108918D03*
X0137324Y0067580D03*
X0137324Y0062580D03*
X0118426Y0062580D03*
X0118426Y0067580D03*
X0096576Y0067580D03*
X0096576Y0062580D03*
X0077678Y0062580D03*
X0077678Y0067580D03*
X0073544Y0077934D03*
X0073544Y0082934D03*
X0092442Y0082934D03*
X0092442Y0077934D03*
X0114292Y0077934D03*
X0114292Y0082934D03*
X0133190Y0082934D03*
X0133190Y0077934D03*
X0077678Y0090926D03*
X0077678Y0095926D03*
X0077678Y0102737D03*
X0077678Y0107737D03*
X0067048Y0113957D03*
X0067048Y0118957D03*
D24*
X0292048Y0122954D03*
D25*
X0288702Y0123938D03*
X0288702Y0125906D03*
X0295394Y0125906D03*
X0295394Y0123938D03*
X0295394Y0121969D03*
X0295394Y0120001D03*
X0288702Y0120001D03*
X0288702Y0121969D03*
D26*
X0289019Y0132997D03*
X0283319Y0132997D03*
D27*
X0295788Y0084961D02*
X0298150Y0084961D01*
X0320198Y0084961D01*
X0322560Y0084961D01*
X0322560Y0082599D01*
X0322560Y0060552D01*
X0322560Y0058190D01*
X0320198Y0058190D01*
X0298150Y0058190D01*
X0295788Y0058190D01*
X0295788Y0060552D01*
X0295788Y0082599D01*
X0295788Y0084961D01*
X0299694Y0080434D02*
X0299696Y0080483D01*
X0299702Y0080533D01*
X0299712Y0080581D01*
X0299725Y0080629D01*
X0299743Y0080675D01*
X0299763Y0080720D01*
X0299788Y0080763D01*
X0299816Y0080804D01*
X0299847Y0080842D01*
X0299881Y0080878D01*
X0299917Y0080911D01*
X0299956Y0080942D01*
X0299998Y0080968D01*
X0300041Y0080992D01*
X0300087Y0081012D01*
X0300133Y0081029D01*
X0300181Y0081041D01*
X0300230Y0081050D01*
X0300279Y0081055D01*
X0300328Y0081056D01*
X0300378Y0081053D01*
X0300427Y0081046D01*
X0300475Y0081035D01*
X0300522Y0081021D01*
X0300568Y0081003D01*
X0300613Y0080981D01*
X0300655Y0080955D01*
X0300695Y0080927D01*
X0300733Y0080895D01*
X0300769Y0080861D01*
X0300801Y0080823D01*
X0300831Y0080783D01*
X0300857Y0080741D01*
X0300879Y0080697D01*
X0300899Y0080652D01*
X0300914Y0080605D01*
X0300926Y0080557D01*
X0300934Y0080508D01*
X0300938Y0080459D01*
X0300938Y0080409D01*
X0300934Y0080360D01*
X0300926Y0080311D01*
X0300914Y0080263D01*
X0300899Y0080216D01*
X0300879Y0080171D01*
X0300857Y0080127D01*
X0300831Y0080085D01*
X0300801Y0080045D01*
X0300769Y0080007D01*
X0300733Y0079973D01*
X0300695Y0079941D01*
X0300655Y0079913D01*
X0300613Y0079887D01*
X0300568Y0079865D01*
X0300522Y0079847D01*
X0300475Y0079833D01*
X0300427Y0079822D01*
X0300378Y0079815D01*
X0300328Y0079812D01*
X0300279Y0079813D01*
X0300230Y0079818D01*
X0300181Y0079827D01*
X0300133Y0079839D01*
X0300087Y0079856D01*
X0300041Y0079876D01*
X0299998Y0079900D01*
X0299956Y0079926D01*
X0299917Y0079957D01*
X0299881Y0079990D01*
X0299847Y0080026D01*
X0299816Y0080064D01*
X0299788Y0080105D01*
X0299763Y0080148D01*
X0299743Y0080193D01*
X0299725Y0080239D01*
X0299712Y0080287D01*
X0299702Y0080335D01*
X0299696Y0080385D01*
X0299694Y0080434D01*
D28*
X0296379Y0081418D03*
X0296379Y0079450D03*
X0296379Y0077481D03*
X0296379Y0075513D03*
X0296379Y0073544D03*
X0296379Y0071576D03*
X0296379Y0069607D03*
X0296379Y0067639D03*
X0296379Y0065670D03*
X0296379Y0063702D03*
X0296379Y0061733D03*
X0321969Y0061733D03*
X0321969Y0063702D03*
X0321969Y0065670D03*
X0321969Y0067639D03*
X0321969Y0069607D03*
X0321969Y0071576D03*
X0321969Y0073544D03*
X0321969Y0075513D03*
X0321969Y0077481D03*
X0321969Y0079450D03*
X0321969Y0081418D03*
D29*
X0319017Y0084371D03*
X0317048Y0084371D03*
X0315080Y0084371D03*
X0313111Y0084371D03*
X0311143Y0084371D03*
X0309174Y0084371D03*
X0307206Y0084371D03*
X0305237Y0084371D03*
X0303269Y0084371D03*
X0301300Y0084371D03*
X0299331Y0084371D03*
X0299331Y0058780D03*
X0301300Y0058780D03*
X0303269Y0058780D03*
X0305237Y0058780D03*
X0307206Y0058780D03*
X0309174Y0058780D03*
X0311143Y0058780D03*
X0313111Y0058780D03*
X0315080Y0058780D03*
X0317048Y0058780D03*
X0319017Y0058780D03*
D30*
X0401684Y0057032D03*
D31*
X0273473Y0065753D02*
X0273473Y0092753D01*
X0270473Y0092753D02*
X0270473Y0065753D01*
X0269973Y0059139D02*
X0269810Y0059031D01*
X0269645Y0058927D01*
X0269477Y0058827D01*
X0269307Y0058732D01*
X0269135Y0058640D01*
X0268961Y0058553D01*
X0268784Y0058470D01*
X0268605Y0058392D01*
X0268425Y0058318D01*
X0268243Y0058248D01*
X0268059Y0058183D01*
X0267874Y0058122D01*
X0267687Y0058065D01*
X0267499Y0058014D01*
X0267310Y0057967D01*
X0267119Y0057924D01*
X0266928Y0057886D01*
X0266736Y0057853D01*
X0266543Y0057825D01*
X0266349Y0057801D01*
X0266155Y0057782D01*
X0265960Y0057768D01*
X0265766Y0057758D01*
X0265571Y0057754D01*
X0265375Y0057754D01*
X0265180Y0057758D01*
X0264986Y0057768D01*
X0264791Y0057782D01*
X0264597Y0057801D01*
X0264403Y0057825D01*
X0264210Y0057853D01*
X0264018Y0057886D01*
X0263827Y0057924D01*
X0263636Y0057967D01*
X0263447Y0058014D01*
X0263259Y0058065D01*
X0263072Y0058122D01*
X0262887Y0058183D01*
X0262703Y0058248D01*
X0262521Y0058318D01*
X0262341Y0058392D01*
X0262162Y0058470D01*
X0261985Y0058553D01*
X0261811Y0058640D01*
X0261639Y0058732D01*
X0261469Y0058827D01*
X0261301Y0058927D01*
X0261136Y0059031D01*
X0260973Y0059139D01*
X0260473Y0065753D02*
X0260473Y0092753D01*
X0257473Y0092753D02*
X0257473Y0065753D01*
X0260473Y0065753D02*
X0260475Y0065620D01*
X0260480Y0065488D01*
X0260489Y0065356D01*
X0260501Y0065223D01*
X0260517Y0065092D01*
X0260536Y0064960D01*
X0260559Y0064830D01*
X0260585Y0064700D01*
X0260615Y0064570D01*
X0260648Y0064442D01*
X0260684Y0064314D01*
X0260724Y0064188D01*
X0260767Y0064062D01*
X0260814Y0063938D01*
X0260864Y0063815D01*
X0260917Y0063694D01*
X0260973Y0063574D01*
X0269973Y0059139D02*
X0270133Y0059250D01*
X0270289Y0059365D01*
X0270443Y0059484D01*
X0270595Y0059607D01*
X0270743Y0059734D01*
X0270887Y0059864D01*
X0271029Y0059997D01*
X0271168Y0060134D01*
X0271303Y0060274D01*
X0271434Y0060418D01*
X0271562Y0060564D01*
X0271687Y0060714D01*
X0271807Y0060867D01*
X0271924Y0061022D01*
X0272038Y0061181D01*
X0272147Y0061342D01*
X0272252Y0061506D01*
X0272354Y0061672D01*
X0272451Y0061840D01*
X0272544Y0062011D01*
X0272633Y0062185D01*
X0272718Y0062360D01*
X0272798Y0062537D01*
X0272874Y0062716D01*
X0272946Y0062897D01*
X0273013Y0063080D01*
X0273076Y0063264D01*
X0273134Y0063450D01*
X0273188Y0063637D01*
X0273237Y0063826D01*
X0273282Y0064015D01*
X0273322Y0064206D01*
X0273357Y0064397D01*
X0273388Y0064589D01*
X0273414Y0064782D01*
X0273435Y0064976D01*
X0273452Y0065170D01*
X0273464Y0065364D01*
X0273471Y0065559D01*
X0273473Y0065753D01*
X0270473Y0065753D02*
X0270471Y0065620D01*
X0270466Y0065488D01*
X0270457Y0065356D01*
X0270445Y0065223D01*
X0270429Y0065092D01*
X0270410Y0064960D01*
X0270387Y0064830D01*
X0270361Y0064700D01*
X0270331Y0064570D01*
X0270298Y0064442D01*
X0270262Y0064314D01*
X0270222Y0064188D01*
X0270179Y0064062D01*
X0270132Y0063938D01*
X0270082Y0063815D01*
X0270029Y0063694D01*
X0269973Y0063574D01*
X0269973Y0063573D02*
X0269910Y0063448D01*
X0269844Y0063325D01*
X0269774Y0063204D01*
X0269701Y0063084D01*
X0269625Y0062967D01*
X0269545Y0062852D01*
X0269462Y0062739D01*
X0269377Y0062629D01*
X0269288Y0062521D01*
X0269196Y0062415D01*
X0269101Y0062312D01*
X0269003Y0062212D01*
X0268902Y0062115D01*
X0268799Y0062020D01*
X0268694Y0061928D01*
X0268585Y0061840D01*
X0268474Y0061754D01*
X0268361Y0061672D01*
X0268246Y0061592D01*
X0268128Y0061516D01*
X0268009Y0061444D01*
X0267887Y0061374D01*
X0267764Y0061309D01*
X0267638Y0061246D01*
X0267511Y0061187D01*
X0267383Y0061132D01*
X0267253Y0061080D01*
X0267121Y0061032D01*
X0266988Y0060988D01*
X0266854Y0060948D01*
X0266719Y0060911D01*
X0266583Y0060878D01*
X0266447Y0060849D01*
X0266309Y0060823D01*
X0266171Y0060802D01*
X0266032Y0060784D01*
X0265892Y0060771D01*
X0265753Y0060761D01*
X0265613Y0060755D01*
X0265473Y0060753D01*
X0265333Y0060755D01*
X0265193Y0060761D01*
X0265054Y0060771D01*
X0264914Y0060784D01*
X0264775Y0060802D01*
X0264637Y0060823D01*
X0264499Y0060849D01*
X0264363Y0060878D01*
X0264227Y0060911D01*
X0264092Y0060948D01*
X0263958Y0060988D01*
X0263825Y0061032D01*
X0263693Y0061080D01*
X0263563Y0061132D01*
X0263435Y0061187D01*
X0263308Y0061246D01*
X0263182Y0061309D01*
X0263059Y0061374D01*
X0262937Y0061444D01*
X0262818Y0061516D01*
X0262700Y0061592D01*
X0262585Y0061672D01*
X0262472Y0061754D01*
X0262361Y0061840D01*
X0262252Y0061928D01*
X0262147Y0062020D01*
X0262044Y0062115D01*
X0261943Y0062212D01*
X0261845Y0062312D01*
X0261750Y0062415D01*
X0261658Y0062521D01*
X0261569Y0062629D01*
X0261484Y0062739D01*
X0261401Y0062852D01*
X0261321Y0062967D01*
X0261245Y0063084D01*
X0261172Y0063204D01*
X0261102Y0063325D01*
X0261036Y0063448D01*
X0260973Y0063573D01*
X0257473Y0065753D02*
X0257475Y0065558D01*
X0257482Y0065364D01*
X0257494Y0065169D01*
X0257511Y0064975D01*
X0257532Y0064782D01*
X0257558Y0064589D01*
X0257589Y0064397D01*
X0257624Y0064205D01*
X0257664Y0064015D01*
X0257709Y0063825D01*
X0257758Y0063637D01*
X0257812Y0063450D01*
X0257870Y0063264D01*
X0257933Y0063080D01*
X0258000Y0062897D01*
X0258072Y0062716D01*
X0258148Y0062537D01*
X0258228Y0062360D01*
X0258313Y0062184D01*
X0258402Y0062011D01*
X0258495Y0061840D01*
X0258592Y0061672D01*
X0258694Y0061505D01*
X0258799Y0061342D01*
X0258909Y0061181D01*
X0259022Y0061022D01*
X0259139Y0060867D01*
X0259260Y0060714D01*
X0259384Y0060564D01*
X0259512Y0060418D01*
X0259644Y0060274D01*
X0259779Y0060134D01*
X0259917Y0059997D01*
X0260059Y0059864D01*
X0260204Y0059734D01*
X0260352Y0059607D01*
X0260503Y0059484D01*
X0260657Y0059365D01*
X0260814Y0059250D01*
X0260973Y0059138D01*
X0265473Y0075253D02*
X0265473Y0076753D01*
X0265473Y0081753D02*
X0265473Y0083253D01*
X0273473Y0092752D02*
X0273471Y0092947D01*
X0273464Y0093142D01*
X0273452Y0093336D01*
X0273435Y0093530D01*
X0273414Y0093723D01*
X0273388Y0093916D01*
X0273357Y0094109D01*
X0273322Y0094300D01*
X0273282Y0094491D01*
X0273237Y0094680D01*
X0273188Y0094868D01*
X0273134Y0095056D01*
X0273076Y0095241D01*
X0273013Y0095426D01*
X0272946Y0095608D01*
X0272874Y0095789D01*
X0272798Y0095968D01*
X0272718Y0096146D01*
X0272633Y0096321D01*
X0272544Y0096494D01*
X0272451Y0096665D01*
X0272353Y0096834D01*
X0272252Y0097000D01*
X0272147Y0097164D01*
X0272037Y0097325D01*
X0271924Y0097483D01*
X0271807Y0097639D01*
X0271686Y0097791D01*
X0271562Y0097941D01*
X0271434Y0098088D01*
X0271302Y0098231D01*
X0271167Y0098371D01*
X0271029Y0098508D01*
X0270887Y0098642D01*
X0270742Y0098772D01*
X0270594Y0098898D01*
X0270443Y0099021D01*
X0270289Y0099140D01*
X0270132Y0099255D01*
X0269973Y0099367D01*
X0260973Y0099367D02*
X0260813Y0099256D01*
X0260657Y0099141D01*
X0260503Y0099022D01*
X0260351Y0098899D01*
X0260203Y0098772D01*
X0260059Y0098642D01*
X0259917Y0098509D01*
X0259778Y0098372D01*
X0259643Y0098232D01*
X0259512Y0098088D01*
X0259384Y0097942D01*
X0259259Y0097792D01*
X0259139Y0097639D01*
X0259022Y0097484D01*
X0258908Y0097325D01*
X0258799Y0097164D01*
X0258694Y0097000D01*
X0258592Y0096834D01*
X0258495Y0096666D01*
X0258402Y0096495D01*
X0258313Y0096321D01*
X0258228Y0096146D01*
X0258148Y0095969D01*
X0258072Y0095790D01*
X0258000Y0095609D01*
X0257933Y0095426D01*
X0257870Y0095242D01*
X0257812Y0095056D01*
X0257758Y0094869D01*
X0257709Y0094680D01*
X0257664Y0094491D01*
X0257624Y0094300D01*
X0257589Y0094109D01*
X0257558Y0093917D01*
X0257532Y0093724D01*
X0257511Y0093530D01*
X0257494Y0093336D01*
X0257482Y0093142D01*
X0257475Y0092947D01*
X0257473Y0092753D01*
X0260473Y0092753D02*
X0260475Y0092886D01*
X0260480Y0093018D01*
X0260489Y0093150D01*
X0260501Y0093283D01*
X0260517Y0093414D01*
X0260536Y0093546D01*
X0260559Y0093676D01*
X0260585Y0093806D01*
X0260615Y0093936D01*
X0260648Y0094064D01*
X0260684Y0094192D01*
X0260724Y0094318D01*
X0260767Y0094444D01*
X0260814Y0094568D01*
X0260864Y0094691D01*
X0260917Y0094812D01*
X0260973Y0094932D01*
X0269973Y0094932D02*
X0270029Y0094812D01*
X0270082Y0094691D01*
X0270132Y0094568D01*
X0270179Y0094444D01*
X0270222Y0094318D01*
X0270262Y0094192D01*
X0270298Y0094064D01*
X0270331Y0093936D01*
X0270361Y0093806D01*
X0270387Y0093676D01*
X0270410Y0093546D01*
X0270429Y0093414D01*
X0270445Y0093283D01*
X0270457Y0093150D01*
X0270466Y0093018D01*
X0270471Y0092886D01*
X0270473Y0092753D01*
X0269973Y0099367D02*
X0269810Y0099475D01*
X0269645Y0099579D01*
X0269477Y0099679D01*
X0269307Y0099774D01*
X0269135Y0099866D01*
X0268961Y0099953D01*
X0268784Y0100036D01*
X0268605Y0100114D01*
X0268425Y0100188D01*
X0268243Y0100258D01*
X0268059Y0100323D01*
X0267874Y0100384D01*
X0267687Y0100441D01*
X0267499Y0100492D01*
X0267310Y0100539D01*
X0267119Y0100582D01*
X0266928Y0100620D01*
X0266736Y0100653D01*
X0266543Y0100681D01*
X0266349Y0100705D01*
X0266155Y0100724D01*
X0265960Y0100738D01*
X0265766Y0100748D01*
X0265571Y0100752D01*
X0265375Y0100752D01*
X0265180Y0100748D01*
X0264986Y0100738D01*
X0264791Y0100724D01*
X0264597Y0100705D01*
X0264403Y0100681D01*
X0264210Y0100653D01*
X0264018Y0100620D01*
X0263827Y0100582D01*
X0263636Y0100539D01*
X0263447Y0100492D01*
X0263259Y0100441D01*
X0263072Y0100384D01*
X0262887Y0100323D01*
X0262703Y0100258D01*
X0262521Y0100188D01*
X0262341Y0100114D01*
X0262162Y0100036D01*
X0261985Y0099953D01*
X0261811Y0099866D01*
X0261639Y0099774D01*
X0261469Y0099679D01*
X0261301Y0099579D01*
X0261136Y0099475D01*
X0260973Y0099367D01*
X0260973Y0094933D02*
X0261036Y0095058D01*
X0261102Y0095181D01*
X0261172Y0095302D01*
X0261245Y0095422D01*
X0261321Y0095539D01*
X0261401Y0095654D01*
X0261484Y0095767D01*
X0261569Y0095877D01*
X0261658Y0095985D01*
X0261750Y0096091D01*
X0261845Y0096194D01*
X0261943Y0096294D01*
X0262044Y0096391D01*
X0262147Y0096486D01*
X0262252Y0096578D01*
X0262361Y0096666D01*
X0262472Y0096752D01*
X0262585Y0096834D01*
X0262700Y0096914D01*
X0262818Y0096990D01*
X0262937Y0097062D01*
X0263059Y0097132D01*
X0263182Y0097197D01*
X0263308Y0097260D01*
X0263435Y0097319D01*
X0263563Y0097374D01*
X0263693Y0097426D01*
X0263825Y0097474D01*
X0263958Y0097518D01*
X0264092Y0097558D01*
X0264227Y0097595D01*
X0264363Y0097628D01*
X0264499Y0097657D01*
X0264637Y0097683D01*
X0264775Y0097704D01*
X0264914Y0097722D01*
X0265054Y0097735D01*
X0265193Y0097745D01*
X0265333Y0097751D01*
X0265473Y0097753D01*
X0265613Y0097751D01*
X0265753Y0097745D01*
X0265892Y0097735D01*
X0266032Y0097722D01*
X0266171Y0097704D01*
X0266309Y0097683D01*
X0266447Y0097657D01*
X0266583Y0097628D01*
X0266719Y0097595D01*
X0266854Y0097558D01*
X0266988Y0097518D01*
X0267121Y0097474D01*
X0267253Y0097426D01*
X0267383Y0097374D01*
X0267511Y0097319D01*
X0267638Y0097260D01*
X0267764Y0097197D01*
X0267887Y0097132D01*
X0268009Y0097062D01*
X0268128Y0096990D01*
X0268246Y0096914D01*
X0268361Y0096834D01*
X0268474Y0096752D01*
X0268585Y0096666D01*
X0268694Y0096578D01*
X0268799Y0096486D01*
X0268902Y0096391D01*
X0269003Y0096294D01*
X0269101Y0096194D01*
X0269196Y0096091D01*
X0269288Y0095985D01*
X0269377Y0095877D01*
X0269462Y0095767D01*
X0269545Y0095654D01*
X0269625Y0095539D01*
X0269701Y0095422D01*
X0269774Y0095302D01*
X0269844Y0095181D01*
X0269910Y0095058D01*
X0269973Y0094933D01*
D32*
X0220001Y0063715D03*
X0223701Y0055815D03*
X0216301Y0055815D03*
D33*
X0357783Y0069647D03*
X0365683Y0073347D03*
X0357783Y0077047D03*
D34*
X0086438Y0125119D03*
X0086438Y0128859D03*
X0086438Y0132599D03*
X0077186Y0132599D03*
X0077186Y0128859D03*
X0077186Y0125119D03*
D35*
X0382436Y0113702D02*
X0382438Y0113749D01*
X0382444Y0113795D01*
X0382453Y0113841D01*
X0382467Y0113885D01*
X0382484Y0113929D01*
X0382505Y0113970D01*
X0382529Y0114010D01*
X0382556Y0114048D01*
X0382587Y0114083D01*
X0382620Y0114116D01*
X0382656Y0114146D01*
X0382695Y0114172D01*
X0382735Y0114196D01*
X0382777Y0114215D01*
X0382821Y0114232D01*
X0382866Y0114244D01*
X0382912Y0114253D01*
X0382958Y0114258D01*
X0383005Y0114259D01*
X0383051Y0114256D01*
X0383097Y0114249D01*
X0383143Y0114238D01*
X0383187Y0114224D01*
X0383230Y0114206D01*
X0383271Y0114184D01*
X0383311Y0114159D01*
X0383348Y0114131D01*
X0383383Y0114100D01*
X0383415Y0114066D01*
X0383444Y0114029D01*
X0383469Y0113991D01*
X0383492Y0113950D01*
X0383511Y0113907D01*
X0383526Y0113863D01*
X0383538Y0113818D01*
X0383546Y0113772D01*
X0383550Y0113725D01*
X0383550Y0113679D01*
X0383546Y0113632D01*
X0383538Y0113586D01*
X0383526Y0113541D01*
X0383511Y0113497D01*
X0383492Y0113454D01*
X0383469Y0113413D01*
X0383444Y0113375D01*
X0383415Y0113338D01*
X0383383Y0113304D01*
X0383348Y0113273D01*
X0383311Y0113245D01*
X0383272Y0113220D01*
X0383230Y0113198D01*
X0383187Y0113180D01*
X0383143Y0113166D01*
X0383097Y0113155D01*
X0383051Y0113148D01*
X0383005Y0113145D01*
X0382958Y0113146D01*
X0382912Y0113151D01*
X0382866Y0113160D01*
X0382821Y0113172D01*
X0382777Y0113189D01*
X0382735Y0113208D01*
X0382695Y0113232D01*
X0382656Y0113258D01*
X0382620Y0113288D01*
X0382587Y0113321D01*
X0382556Y0113356D01*
X0382529Y0113394D01*
X0382505Y0113434D01*
X0382484Y0113475D01*
X0382467Y0113519D01*
X0382453Y0113563D01*
X0382444Y0113609D01*
X0382438Y0113655D01*
X0382436Y0113702D01*
D36*
X0328666Y0121864D03*
X0328659Y0132311D03*
X0247163Y0133492D03*
X0247170Y0123045D03*
D37*
X0187428Y0120873D02*
X0185732Y0119177D01*
X0183258Y0121194D01*
X0182262Y0120681D01*
X0181194Y0120340D01*
X0180872Y0117164D01*
X0178473Y0117164D01*
X0178150Y0120340D01*
X0177083Y0120681D01*
X0176087Y0121194D01*
X0173613Y0119177D01*
X0171917Y0120873D01*
X0173934Y0123347D01*
X0173421Y0124344D01*
X0173079Y0125411D01*
X0169903Y0125733D01*
X0169903Y0128133D01*
X0173079Y0128455D01*
X0173421Y0129523D01*
X0173934Y0130519D01*
X0171917Y0132993D01*
X0173613Y0134689D01*
X0176087Y0132672D01*
X0177083Y0133185D01*
X0178150Y0133526D01*
X0178473Y0136702D01*
X0180872Y0136702D01*
X0181194Y0133526D01*
X0182262Y0133185D01*
X0183258Y0132672D01*
X0185732Y0134689D01*
X0187428Y0132993D01*
X0185411Y0130519D01*
X0185924Y0129523D01*
X0182514Y0128110D01*
X0182214Y0128666D01*
X0181806Y0129148D01*
X0181309Y0129538D01*
X0180742Y0129817D01*
X0180131Y0129975D01*
X0179500Y0130004D01*
X0178876Y0129904D01*
X0178286Y0129679D01*
X0177755Y0129338D01*
X0177304Y0128895D01*
X0176953Y0128370D01*
X0176717Y0127784D01*
X0176605Y0127163D01*
X0176623Y0126531D01*
X0176769Y0125917D01*
X0177038Y0125345D01*
X0177418Y0124841D01*
X0177893Y0124424D01*
X0178442Y0124114D01*
X0179044Y0123922D01*
X0179672Y0123857D01*
X0180273Y0123916D01*
X0180850Y0124091D01*
X0181381Y0124375D01*
X0181847Y0124758D01*
X0182230Y0125224D01*
X0182514Y0125756D01*
X0185924Y0124343D01*
X0185411Y0123347D01*
X0187428Y0120873D01*
X0187411Y0120895D02*
X0183626Y0120895D01*
X0184348Y0120306D02*
X0186861Y0120306D01*
X0186272Y0119716D02*
X0185071Y0119716D01*
X0186931Y0121484D02*
X0172414Y0121484D01*
X0172895Y0122073D02*
X0186450Y0122073D01*
X0185970Y0122662D02*
X0173375Y0122662D01*
X0173855Y0123251D02*
X0185490Y0123251D01*
X0185665Y0123840D02*
X0173680Y0123840D01*
X0173393Y0124429D02*
X0177887Y0124429D01*
X0177284Y0125018D02*
X0173205Y0125018D01*
X0171148Y0125607D02*
X0176915Y0125607D01*
X0176703Y0126196D02*
X0169903Y0126196D01*
X0169903Y0126785D02*
X0176616Y0126785D01*
X0176643Y0127374D02*
X0169903Y0127374D01*
X0169903Y0127963D02*
X0176789Y0127963D01*
X0177075Y0128552D02*
X0173110Y0128552D01*
X0173299Y0129141D02*
X0177555Y0129141D01*
X0178422Y0129731D02*
X0173528Y0129731D01*
X0173831Y0130320D02*
X0185514Y0130320D01*
X0185729Y0130909D02*
X0173616Y0130909D01*
X0173136Y0131498D02*
X0186209Y0131498D01*
X0186689Y0132087D02*
X0172655Y0132087D01*
X0172175Y0132676D02*
X0176082Y0132676D01*
X0176095Y0132676D02*
X0183250Y0132676D01*
X0183263Y0132676D02*
X0187170Y0132676D01*
X0187156Y0133265D02*
X0183986Y0133265D01*
X0184708Y0133854D02*
X0186567Y0133854D01*
X0185978Y0134443D02*
X0185431Y0134443D01*
X0182012Y0133265D02*
X0177333Y0133265D01*
X0178184Y0133854D02*
X0181161Y0133854D01*
X0181101Y0134443D02*
X0178243Y0134443D01*
X0178303Y0135032D02*
X0181042Y0135032D01*
X0180982Y0135621D02*
X0178363Y0135621D01*
X0178423Y0136210D02*
X0180922Y0136210D01*
X0174637Y0133854D02*
X0172778Y0133854D01*
X0173367Y0134443D02*
X0173914Y0134443D01*
X0175359Y0133265D02*
X0172189Y0133265D01*
X0180917Y0129731D02*
X0185817Y0129731D01*
X0185004Y0129141D02*
X0181812Y0129141D01*
X0182275Y0128552D02*
X0183582Y0128552D01*
X0182873Y0125607D02*
X0182435Y0125607D01*
X0182061Y0125018D02*
X0184296Y0125018D01*
X0185718Y0124429D02*
X0181447Y0124429D01*
X0182676Y0120895D02*
X0176669Y0120895D01*
X0175719Y0120895D02*
X0171934Y0120895D01*
X0172484Y0120306D02*
X0174996Y0120306D01*
X0174274Y0119716D02*
X0173073Y0119716D01*
X0178154Y0120306D02*
X0181191Y0120306D01*
X0181131Y0119716D02*
X0178214Y0119716D01*
X0178273Y0119127D02*
X0181071Y0119127D01*
X0181012Y0118538D02*
X0178333Y0118538D01*
X0178393Y0117949D02*
X0180952Y0117949D01*
X0180892Y0117360D02*
X0178453Y0117360D01*
D38*
X0161020Y0084661D02*
X0161971Y0083659D01*
X0163375Y0082180D01*
X0165050Y0080414D01*
X0166765Y0078607D01*
X0168095Y0077206D01*
X0170078Y0075115D01*
X0171027Y0074115D01*
X0172805Y0072241D01*
X0174089Y0070887D01*
X0174196Y0070810D02*
X0173471Y0071456D01*
X0172714Y0071921D01*
X0171649Y0072330D01*
X0170026Y0072694D01*
X0168506Y0072863D01*
X0167520Y0072903D01*
X0166346Y0072883D01*
X0164656Y0072697D01*
X0163689Y0072445D01*
X0163411Y0072404D01*
X0162724Y0072228D01*
X0161469Y0071593D01*
X0160667Y0070706D01*
X0160369Y0069964D01*
X0160282Y0069038D01*
X0160318Y0068333D01*
X0160570Y0066631D01*
X0161178Y0065316D01*
X0162006Y0064470D01*
X0163250Y0063653D01*
X0164429Y0063245D01*
X0165613Y0063132D01*
X0167658Y0063302D01*
X0169323Y0063696D01*
X0170998Y0064332D01*
X0172432Y0065151D01*
X0173471Y0066071D01*
X0174321Y0067165D01*
X0174925Y0068351D01*
X0174962Y0069591D01*
X0174196Y0070810D01*
X0173041Y0069437D02*
X0172161Y0070318D01*
X0171093Y0070881D01*
X0170060Y0071173D01*
X0168384Y0071405D01*
X0166932Y0071439D01*
X0165878Y0071366D01*
X0164563Y0071086D01*
X0164313Y0071048D01*
X0163711Y0070882D01*
X0162820Y0070411D01*
X0162376Y0069977D01*
X0162053Y0069391D01*
X0161916Y0068439D01*
X0161969Y0067579D01*
X0162136Y0066585D01*
X0162607Y0065554D01*
X0163570Y0064660D01*
X0164222Y0064256D01*
X0165532Y0063883D01*
X0167299Y0063931D01*
X0168725Y0064228D01*
X0169926Y0064645D01*
X0171087Y0065242D01*
X0172161Y0066135D01*
X0172725Y0066844D01*
X0173122Y0067493D01*
X0173370Y0068602D01*
X0173041Y0069437D01*
X0171489Y0068805D02*
X0171755Y0068334D01*
X0171728Y0067628D01*
X0171121Y0066646D01*
X0170988Y0066490D01*
X0170272Y0065894D01*
X0169606Y0065542D01*
X0168099Y0065076D01*
X0166742Y0064972D01*
X0165691Y0065236D01*
X0164860Y0065821D01*
X0164503Y0066275D01*
X0164224Y0067161D01*
X0164153Y0068027D01*
X0164302Y0068800D01*
X0164711Y0069307D01*
X0165117Y0069561D01*
X0165509Y0069708D01*
X0165802Y0069777D01*
X0165919Y0069793D01*
X0166930Y0069994D01*
X0168261Y0070019D01*
X0169280Y0069910D01*
X0170210Y0069680D01*
X0170988Y0069281D01*
X0171489Y0068805D01*
X0170678Y0067764D02*
X0170261Y0068276D01*
X0169829Y0068497D01*
X0169263Y0068629D01*
X0168211Y0068675D01*
X0167505Y0068554D01*
X0167257Y0068501D01*
X0166797Y0068246D01*
X0166609Y0067980D01*
X0166544Y0067595D01*
X0166602Y0067015D01*
X0166756Y0066606D01*
X0167381Y0066076D01*
X0168006Y0065932D01*
X0168807Y0066015D01*
X0169871Y0066435D01*
X0170261Y0066759D01*
X0170618Y0067269D01*
X0170678Y0067764D01*
X0160862Y0065838D02*
X0160685Y0066215D01*
X0159504Y0068710D01*
X0158626Y0070565D01*
X0156967Y0074074D01*
X0155483Y0077207D01*
X0154580Y0079118D01*
X0154024Y0080488D01*
X0153400Y0081949D01*
X0153458Y0082006D02*
X0153900Y0082451D01*
X0154760Y0083233D01*
X0155464Y0083782D01*
X0156052Y0084189D01*
X0156726Y0084539D01*
X0157426Y0084834D01*
X0158202Y0085027D01*
X0158896Y0085137D01*
X0159226Y0085123D01*
X0159704Y0085069D01*
X0160214Y0084958D01*
X0160676Y0084793D01*
X0161128Y0084584D01*
X0163313Y0080172D02*
X0163465Y0080003D01*
X0163846Y0079561D01*
X0164340Y0078948D01*
X0164835Y0078264D01*
X0165208Y0077628D01*
X0165347Y0077259D01*
X0165494Y0076384D01*
X0165582Y0075476D01*
X0165611Y0074981D01*
X0165621Y0074787D01*
X0165683Y0074643D01*
X0165950Y0074457D01*
X0166226Y0074402D01*
X0165237Y0074621D02*
X0165233Y0074799D01*
X0165220Y0075251D01*
X0165132Y0076435D01*
X0165026Y0077076D01*
X0164866Y0077504D01*
X0164652Y0077804D01*
X0164360Y0078209D01*
X0163910Y0078830D01*
X0163487Y0079412D01*
X0163204Y0079801D01*
X0163093Y0079952D01*
X0163313Y0080172D01*
X0158942Y0077820D02*
X0158872Y0077912D01*
X0158020Y0076843D01*
X0157707Y0075873D01*
X0157734Y0075325D01*
X0157994Y0074653D01*
X0158362Y0074179D01*
X0159005Y0073676D01*
X0159892Y0073311D01*
X0160378Y0073265D01*
X0160746Y0073369D01*
X0160925Y0073592D01*
X0160929Y0073944D01*
X0160713Y0074664D01*
X0160421Y0075370D01*
X0160084Y0076040D01*
X0159735Y0076646D01*
X0159406Y0077161D01*
X0159131Y0077561D01*
X0158942Y0077820D01*
X0158759Y0077730D02*
X0158149Y0078897D01*
X0157524Y0079861D01*
X0157297Y0080174D01*
X0157212Y0080286D01*
X0156626Y0079629D01*
X0156255Y0079003D01*
X0156051Y0078276D01*
X0156092Y0077618D01*
X0156379Y0076956D01*
X0156852Y0076411D01*
X0157663Y0075838D01*
X0157435Y0061488D02*
X0156462Y0061488D01*
X0154039Y0055143D01*
X0154945Y0055143D01*
X0155523Y0056770D01*
X0158383Y0056770D01*
X0158961Y0055143D01*
X0159854Y0055143D01*
X0157435Y0061488D01*
X0157045Y0061332D02*
X0159545Y0055332D01*
X0160776Y0055143D02*
X0160776Y0061488D01*
X0161635Y0061488D01*
X0161635Y0055865D01*
X0164724Y0055865D01*
X0164724Y0055143D01*
X0160776Y0055143D01*
X0161045Y0055332D02*
X0161045Y0061332D01*
X0157045Y0061332D02*
X0154545Y0055332D01*
X0155782Y0057485D02*
X0158115Y0057485D01*
X0156946Y0060643D01*
X0155782Y0057485D01*
X0165094Y0057519D02*
X0165237Y0056475D01*
X0165672Y0055683D01*
X0166364Y0055185D01*
X0167279Y0055020D01*
X0168188Y0055185D01*
X0168881Y0055683D01*
X0169317Y0056475D01*
X0169463Y0057519D01*
X0169317Y0058564D01*
X0168881Y0059355D01*
X0168188Y0059852D01*
X0167279Y0060018D01*
X0166364Y0059852D01*
X0165672Y0059355D01*
X0165237Y0058564D01*
X0165094Y0057519D01*
X0165919Y0057519D02*
X0166008Y0056755D01*
X0166280Y0056171D01*
X0166711Y0055805D01*
X0167279Y0055683D01*
X0167837Y0055806D01*
X0168269Y0056176D01*
X0168542Y0056758D01*
X0168635Y0057519D01*
X0168542Y0058276D01*
X0168269Y0058857D01*
X0167837Y0059230D01*
X0167279Y0059355D01*
X0166715Y0059231D01*
X0166284Y0058862D01*
X0166009Y0058281D01*
X0165919Y0057519D01*
X0165545Y0058332D02*
X0165545Y0056332D01*
X0166545Y0055332D01*
X0168045Y0055332D01*
X0169045Y0056332D01*
X0169045Y0058332D01*
X0167545Y0059832D01*
X0167045Y0059832D01*
X0166545Y0059332D02*
X0165545Y0058332D01*
X0170415Y0057578D02*
X0170549Y0056586D01*
X0170951Y0055810D01*
X0171570Y0055310D01*
X0172362Y0055143D01*
X0173267Y0055351D01*
X0173888Y0055980D01*
X0173888Y0055593D01*
X0173792Y0054886D01*
X0173505Y0054382D01*
X0173025Y0054080D01*
X0172353Y0053978D01*
X0171669Y0054068D01*
X0170989Y0054344D01*
X0170989Y0053583D01*
X0171699Y0053396D01*
X0172477Y0053332D01*
X0173446Y0053482D01*
X0174130Y0053927D01*
X0174533Y0054675D01*
X0174670Y0055733D01*
X0174670Y0059903D01*
X0173888Y0059903D01*
X0173888Y0059180D01*
X0173267Y0059809D01*
X0172362Y0060018D01*
X0171570Y0059851D01*
X0170951Y0059350D01*
X0170549Y0058574D01*
X0170415Y0057578D01*
X0171223Y0057578D02*
X0171309Y0056827D01*
X0171571Y0056265D01*
X0171992Y0055914D01*
X0172553Y0055797D01*
X0173114Y0055914D01*
X0173535Y0056265D01*
X0173798Y0056827D01*
X0173888Y0057578D01*
X0173798Y0058333D01*
X0173535Y0058896D01*
X0173114Y0059246D01*
X0172553Y0059363D01*
X0171992Y0059246D01*
X0171571Y0058896D01*
X0171309Y0058333D01*
X0171223Y0057578D01*
X0171045Y0058332D02*
X0171045Y0055832D01*
X0174045Y0055832D02*
X0174545Y0055332D01*
X0174045Y0055832D02*
X0174045Y0059332D01*
M02*
