G75*
%MOIN*%
%OFA0B0*%
%FSLAX25Y25*%
%IPPOS*%
%LPD*%
%AMOC8*
5,1,8,0,0,1.08239X$1,22.5*
%
%ADD10C,0.00000*%
%ADD11R,0.03937X0.04331*%
%ADD12C,0.06400*%
%ADD13R,0.18110X0.03937*%
%ADD14R,0.13386X0.06299*%
%ADD15R,0.06299X0.06299*%
%ADD16C,0.06299*%
%ADD17R,0.03543X0.03150*%
%ADD18R,0.04331X0.03937*%
%ADD19R,0.04724X0.02362*%
%ADD20R,0.00984X0.02756*%
%ADD21R,0.02756X0.00984*%
%ADD22R,0.20472X0.12598*%
%ADD23R,0.00886X0.01673*%
%ADD24R,0.01969X0.00984*%
%ADD25R,0.03307X0.09449*%
%ADD26R,0.03858X0.14567*%
%ADD27R,0.14173X0.05906*%
%ADD28R,0.02559X0.04134*%
%ADD29R,0.03150X0.03543*%
%ADD30R,0.06299X0.07087*%
%ADD31R,0.07087X0.06299*%
%ADD32C,0.00591*%
%ADD33C,0.01969*%
%ADD34C,0.00800*%
%ADD35R,0.05000X0.02500*%
%ADD36C,0.01181*%
%ADD37R,0.02559X0.01969*%
%ADD38R,0.00984X0.03937*%
%ADD39R,0.03937X0.00984*%
%ADD40R,0.07874X0.07874*%
%ADD41R,0.09252X0.01772*%
%ADD42C,0.05118*%
%ADD43R,0.06102X0.05906*%
%ADD44R,0.07600X0.21000*%
%ADD45R,0.05512X0.03937*%
%ADD46R,0.03937X0.05512*%
%ADD47R,0.04724X0.02165*%
%ADD48R,0.03150X0.04724*%
%ADD49R,0.05512X0.04724*%
%ADD50C,0.02381*%
%ADD51C,0.01000*%
%ADD52OC8,0.02559*%
%ADD53C,0.01600*%
%ADD54C,0.22500*%
%ADD55C,0.00600*%
D10*
X0003269Y0007206D02*
X0003269Y0182206D01*
X0478269Y0182206D01*
X0478269Y0007206D01*
X0003269Y0007206D01*
X0151104Y0050709D02*
X0151106Y0050802D01*
X0151112Y0050894D01*
X0151122Y0050986D01*
X0151136Y0051077D01*
X0151153Y0051168D01*
X0151175Y0051258D01*
X0151200Y0051347D01*
X0151229Y0051435D01*
X0151262Y0051521D01*
X0151299Y0051606D01*
X0151339Y0051690D01*
X0151383Y0051771D01*
X0151430Y0051851D01*
X0151480Y0051929D01*
X0151534Y0052004D01*
X0151591Y0052077D01*
X0151651Y0052147D01*
X0151714Y0052215D01*
X0151780Y0052280D01*
X0151848Y0052342D01*
X0151919Y0052402D01*
X0151993Y0052458D01*
X0152069Y0052511D01*
X0152147Y0052560D01*
X0152227Y0052607D01*
X0152309Y0052649D01*
X0152393Y0052689D01*
X0152478Y0052724D01*
X0152565Y0052756D01*
X0152653Y0052785D01*
X0152742Y0052809D01*
X0152832Y0052830D01*
X0152923Y0052846D01*
X0153015Y0052859D01*
X0153107Y0052868D01*
X0153200Y0052873D01*
X0153292Y0052874D01*
X0153385Y0052871D01*
X0153477Y0052864D01*
X0153569Y0052853D01*
X0153660Y0052838D01*
X0153751Y0052820D01*
X0153841Y0052797D01*
X0153929Y0052771D01*
X0154017Y0052741D01*
X0154103Y0052707D01*
X0154187Y0052670D01*
X0154270Y0052628D01*
X0154351Y0052584D01*
X0154431Y0052536D01*
X0154508Y0052485D01*
X0154582Y0052430D01*
X0154655Y0052372D01*
X0154725Y0052312D01*
X0154792Y0052248D01*
X0154856Y0052182D01*
X0154918Y0052112D01*
X0154976Y0052041D01*
X0155031Y0051967D01*
X0155083Y0051890D01*
X0155132Y0051811D01*
X0155178Y0051731D01*
X0155220Y0051648D01*
X0155258Y0051564D01*
X0155293Y0051478D01*
X0155324Y0051391D01*
X0155351Y0051303D01*
X0155374Y0051213D01*
X0155394Y0051123D01*
X0155410Y0051032D01*
X0155422Y0050940D01*
X0155430Y0050848D01*
X0155434Y0050755D01*
X0155434Y0050663D01*
X0155430Y0050570D01*
X0155422Y0050478D01*
X0155410Y0050386D01*
X0155394Y0050295D01*
X0155374Y0050205D01*
X0155351Y0050115D01*
X0155324Y0050027D01*
X0155293Y0049940D01*
X0155258Y0049854D01*
X0155220Y0049770D01*
X0155178Y0049687D01*
X0155132Y0049607D01*
X0155083Y0049528D01*
X0155031Y0049451D01*
X0154976Y0049377D01*
X0154918Y0049306D01*
X0154856Y0049236D01*
X0154792Y0049170D01*
X0154725Y0049106D01*
X0154655Y0049046D01*
X0154582Y0048988D01*
X0154508Y0048933D01*
X0154431Y0048882D01*
X0154352Y0048834D01*
X0154270Y0048790D01*
X0154187Y0048748D01*
X0154103Y0048711D01*
X0154017Y0048677D01*
X0153929Y0048647D01*
X0153841Y0048621D01*
X0153751Y0048598D01*
X0153660Y0048580D01*
X0153569Y0048565D01*
X0153477Y0048554D01*
X0153385Y0048547D01*
X0153292Y0048544D01*
X0153200Y0048545D01*
X0153107Y0048550D01*
X0153015Y0048559D01*
X0152923Y0048572D01*
X0152832Y0048588D01*
X0152742Y0048609D01*
X0152653Y0048633D01*
X0152565Y0048662D01*
X0152478Y0048694D01*
X0152393Y0048729D01*
X0152309Y0048769D01*
X0152227Y0048811D01*
X0152147Y0048858D01*
X0152069Y0048907D01*
X0151993Y0048960D01*
X0151919Y0049016D01*
X0151848Y0049076D01*
X0151780Y0049138D01*
X0151714Y0049203D01*
X0151651Y0049271D01*
X0151591Y0049341D01*
X0151534Y0049414D01*
X0151480Y0049489D01*
X0151430Y0049567D01*
X0151383Y0049647D01*
X0151339Y0049728D01*
X0151299Y0049812D01*
X0151262Y0049897D01*
X0151229Y0049983D01*
X0151200Y0050071D01*
X0151175Y0050160D01*
X0151153Y0050250D01*
X0151136Y0050341D01*
X0151122Y0050432D01*
X0151112Y0050524D01*
X0151106Y0050616D01*
X0151104Y0050709D01*
X0150119Y0133780D02*
X0150121Y0133892D01*
X0150127Y0134003D01*
X0150137Y0134115D01*
X0150151Y0134226D01*
X0150168Y0134336D01*
X0150190Y0134446D01*
X0150216Y0134555D01*
X0150245Y0134663D01*
X0150278Y0134769D01*
X0150315Y0134875D01*
X0150356Y0134979D01*
X0150401Y0135082D01*
X0150449Y0135183D01*
X0150500Y0135282D01*
X0150555Y0135379D01*
X0150614Y0135474D01*
X0150675Y0135568D01*
X0150740Y0135659D01*
X0150809Y0135747D01*
X0150880Y0135833D01*
X0150954Y0135917D01*
X0151032Y0135997D01*
X0151112Y0136075D01*
X0151195Y0136151D01*
X0151280Y0136223D01*
X0151368Y0136292D01*
X0151458Y0136358D01*
X0151551Y0136420D01*
X0151646Y0136480D01*
X0151743Y0136536D01*
X0151841Y0136588D01*
X0151942Y0136637D01*
X0152044Y0136682D01*
X0152148Y0136724D01*
X0152253Y0136762D01*
X0152360Y0136796D01*
X0152467Y0136826D01*
X0152576Y0136853D01*
X0152685Y0136875D01*
X0152796Y0136894D01*
X0152906Y0136909D01*
X0153018Y0136920D01*
X0153129Y0136927D01*
X0153241Y0136930D01*
X0153353Y0136929D01*
X0153465Y0136924D01*
X0153576Y0136915D01*
X0153687Y0136902D01*
X0153798Y0136885D01*
X0153908Y0136865D01*
X0154017Y0136840D01*
X0154125Y0136812D01*
X0154232Y0136779D01*
X0154338Y0136743D01*
X0154442Y0136703D01*
X0154545Y0136660D01*
X0154647Y0136613D01*
X0154746Y0136562D01*
X0154844Y0136508D01*
X0154940Y0136450D01*
X0155034Y0136389D01*
X0155125Y0136325D01*
X0155214Y0136258D01*
X0155301Y0136187D01*
X0155385Y0136113D01*
X0155467Y0136037D01*
X0155545Y0135957D01*
X0155621Y0135875D01*
X0155694Y0135790D01*
X0155764Y0135703D01*
X0155830Y0135613D01*
X0155894Y0135521D01*
X0155954Y0135427D01*
X0156011Y0135331D01*
X0156064Y0135232D01*
X0156114Y0135132D01*
X0156160Y0135031D01*
X0156203Y0134927D01*
X0156242Y0134822D01*
X0156277Y0134716D01*
X0156308Y0134609D01*
X0156336Y0134500D01*
X0156359Y0134391D01*
X0156379Y0134281D01*
X0156395Y0134170D01*
X0156407Y0134059D01*
X0156415Y0133948D01*
X0156419Y0133836D01*
X0156419Y0133724D01*
X0156415Y0133612D01*
X0156407Y0133501D01*
X0156395Y0133390D01*
X0156379Y0133279D01*
X0156359Y0133169D01*
X0156336Y0133060D01*
X0156308Y0132951D01*
X0156277Y0132844D01*
X0156242Y0132738D01*
X0156203Y0132633D01*
X0156160Y0132529D01*
X0156114Y0132428D01*
X0156064Y0132328D01*
X0156011Y0132229D01*
X0155954Y0132133D01*
X0155894Y0132039D01*
X0155830Y0131947D01*
X0155764Y0131857D01*
X0155694Y0131770D01*
X0155621Y0131685D01*
X0155545Y0131603D01*
X0155467Y0131523D01*
X0155385Y0131447D01*
X0155301Y0131373D01*
X0155214Y0131302D01*
X0155125Y0131235D01*
X0155034Y0131171D01*
X0154940Y0131110D01*
X0154844Y0131052D01*
X0154746Y0130998D01*
X0154647Y0130947D01*
X0154545Y0130900D01*
X0154442Y0130857D01*
X0154338Y0130817D01*
X0154232Y0130781D01*
X0154125Y0130748D01*
X0154017Y0130720D01*
X0153908Y0130695D01*
X0153798Y0130675D01*
X0153687Y0130658D01*
X0153576Y0130645D01*
X0153465Y0130636D01*
X0153353Y0130631D01*
X0153241Y0130630D01*
X0153129Y0130633D01*
X0153018Y0130640D01*
X0152906Y0130651D01*
X0152796Y0130666D01*
X0152685Y0130685D01*
X0152576Y0130707D01*
X0152467Y0130734D01*
X0152360Y0130764D01*
X0152253Y0130798D01*
X0152148Y0130836D01*
X0152044Y0130878D01*
X0151942Y0130923D01*
X0151841Y0130972D01*
X0151743Y0131024D01*
X0151646Y0131080D01*
X0151551Y0131140D01*
X0151458Y0131202D01*
X0151368Y0131268D01*
X0151280Y0131337D01*
X0151195Y0131409D01*
X0151112Y0131485D01*
X0151032Y0131563D01*
X0150954Y0131643D01*
X0150880Y0131727D01*
X0150809Y0131813D01*
X0150740Y0131901D01*
X0150675Y0131992D01*
X0150614Y0132086D01*
X0150555Y0132181D01*
X0150500Y0132278D01*
X0150449Y0132377D01*
X0150401Y0132478D01*
X0150356Y0132581D01*
X0150315Y0132685D01*
X0150278Y0132791D01*
X0150245Y0132897D01*
X0150216Y0133005D01*
X0150190Y0133114D01*
X0150168Y0133224D01*
X0150151Y0133334D01*
X0150137Y0133445D01*
X0150127Y0133557D01*
X0150121Y0133668D01*
X0150119Y0133780D01*
D11*
X0203662Y0106418D03*
X0210355Y0106418D03*
X0218820Y0107402D03*
X0218820Y0100709D03*
X0186143Y0085749D03*
X0179450Y0085749D03*
X0141457Y0083780D03*
X0122560Y0083780D03*
X0122560Y0077087D03*
X0141457Y0077087D03*
X0145591Y0068426D03*
X0145591Y0061733D03*
X0126694Y0061733D03*
X0126694Y0068426D03*
X0104843Y0068426D03*
X0104843Y0061733D03*
X0085946Y0061733D03*
X0085946Y0068426D03*
X0081812Y0077087D03*
X0081812Y0083780D03*
X0100709Y0083780D03*
X0100709Y0077087D03*
X0058780Y0113111D03*
X0058780Y0119804D03*
X0204253Y0069213D03*
X0210946Y0069213D03*
X0282009Y0067835D03*
X0282009Y0061143D03*
X0282009Y0079450D03*
X0282009Y0086143D03*
X0295788Y0098150D03*
X0302481Y0098150D03*
X0302284Y0108780D03*
X0308977Y0108780D03*
X0277678Y0111733D03*
X0270985Y0111733D03*
X0342835Y0113898D03*
X0351694Y0113898D03*
X0360552Y0113898D03*
X0360552Y0119607D03*
X0360552Y0126300D03*
X0383583Y0126891D03*
X0391851Y0126891D03*
X0391851Y0120198D03*
X0383583Y0120198D03*
X0360552Y0107206D03*
X0351694Y0107206D03*
X0342835Y0107206D03*
X0348938Y0098150D03*
X0355631Y0098150D03*
X0355631Y0089883D03*
X0348938Y0089883D03*
X0383190Y0086339D03*
X0389883Y0086339D03*
X0389883Y0075119D03*
X0383190Y0075119D03*
X0436143Y0077678D03*
X0448544Y0071379D03*
X0448544Y0064686D03*
X0448544Y0058977D03*
X0448544Y0052284D03*
X0436143Y0084371D03*
D12*
X0219961Y0120906D03*
X0209961Y0120906D03*
X0199961Y0120906D03*
X0199961Y0130906D03*
X0209961Y0130906D03*
X0219961Y0130906D03*
D13*
X0428072Y0116851D03*
X0428072Y0108977D03*
D14*
X0448544Y0099528D03*
X0448544Y0126300D03*
D15*
X0316851Y0168426D03*
X0179253Y0168426D03*
X0041064Y0168426D03*
X0041064Y0020788D03*
X0179253Y0020788D03*
X0316851Y0020788D03*
D16*
X0303269Y0020788D03*
X0289489Y0020788D03*
X0275709Y0020788D03*
X0261930Y0020788D03*
X0248150Y0020788D03*
X0234371Y0020788D03*
X0220591Y0020788D03*
X0206812Y0020788D03*
X0193032Y0020788D03*
X0165080Y0020788D03*
X0151300Y0020788D03*
X0137520Y0020788D03*
X0123741Y0020788D03*
X0109961Y0020788D03*
X0096182Y0020788D03*
X0082402Y0020788D03*
X0068623Y0020788D03*
X0054843Y0020788D03*
X0330631Y0020788D03*
X0344410Y0020788D03*
X0358190Y0020788D03*
X0371969Y0020788D03*
X0385749Y0020788D03*
X0399528Y0020788D03*
X0413308Y0020788D03*
X0427087Y0020788D03*
X0440867Y0020788D03*
X0472757Y0041261D03*
X0472757Y0068820D03*
X0440867Y0168426D03*
X0427087Y0168426D03*
X0413308Y0168426D03*
X0399528Y0168426D03*
X0385749Y0168426D03*
X0371969Y0168426D03*
X0358190Y0168426D03*
X0344410Y0168426D03*
X0330631Y0168426D03*
X0303269Y0168426D03*
X0289489Y0168426D03*
X0275709Y0168426D03*
X0261930Y0168426D03*
X0248150Y0168426D03*
X0234371Y0168426D03*
X0220591Y0168426D03*
X0206812Y0168426D03*
X0193032Y0168426D03*
X0165080Y0168426D03*
X0151300Y0168426D03*
X0137520Y0168426D03*
X0123741Y0168426D03*
X0109961Y0168426D03*
X0096182Y0168426D03*
X0082402Y0168426D03*
X0068623Y0168426D03*
X0054843Y0168426D03*
D17*
X0186143Y0100119D03*
X0177875Y0096379D03*
X0186143Y0092639D03*
X0203662Y0091457D03*
X0211930Y0095198D03*
X0203662Y0098938D03*
X0203662Y0084765D03*
X0211930Y0081024D03*
X0203662Y0077284D03*
X0264686Y0114489D03*
X0256418Y0118229D03*
X0264686Y0121969D03*
X0370985Y0065276D03*
X0362717Y0061536D03*
X0370985Y0057796D03*
D18*
X0377678Y0058190D03*
X0377678Y0064883D03*
X0337324Y0090473D03*
X0330631Y0090473D03*
X0394804Y0096576D03*
X0394804Y0103269D03*
X0351694Y0119607D03*
X0342835Y0119607D03*
X0342835Y0126300D03*
X0351694Y0126300D03*
X0360749Y0134174D03*
X0367442Y0134174D03*
X0298938Y0119410D03*
X0292245Y0119410D03*
X0195788Y0099135D03*
X0195788Y0092442D03*
X0195788Y0083780D03*
X0195788Y0077087D03*
X0137324Y0068426D03*
X0137324Y0061733D03*
X0118426Y0061733D03*
X0118426Y0068426D03*
X0114292Y0077087D03*
X0114292Y0083780D03*
X0133190Y0083780D03*
X0133190Y0077087D03*
X0096576Y0068426D03*
X0096576Y0061733D03*
X0077678Y0061733D03*
X0077678Y0068426D03*
X0073544Y0077087D03*
X0092442Y0077087D03*
X0092442Y0083780D03*
X0073544Y0083780D03*
X0131024Y0093426D03*
X0137717Y0093426D03*
X0137717Y0101694D03*
X0131024Y0101694D03*
X0131024Y0109961D03*
X0137717Y0109961D03*
X0137717Y0118229D03*
X0131024Y0118229D03*
X0131024Y0126497D03*
X0137717Y0126497D03*
X0137717Y0134765D03*
X0131024Y0134765D03*
X0101103Y0132993D03*
X0094410Y0132993D03*
X0069804Y0129450D03*
X0063111Y0129450D03*
X0067048Y0119804D03*
X0067048Y0113111D03*
X0078465Y0117639D03*
X0085158Y0117639D03*
X0440276Y0071379D03*
X0440276Y0064686D03*
X0440276Y0058977D03*
X0440276Y0052284D03*
D19*
X0241064Y0075887D03*
X0241064Y0080887D03*
X0241064Y0085887D03*
X0241064Y0090887D03*
X0219017Y0090887D03*
X0219017Y0085887D03*
X0219017Y0080887D03*
X0219017Y0075887D03*
D20*
X0115080Y0094607D03*
X0113111Y0094607D03*
X0111143Y0094607D03*
X0109174Y0094607D03*
X0107206Y0094607D03*
X0105237Y0094607D03*
X0103269Y0094607D03*
X0101300Y0094607D03*
X0099331Y0094607D03*
X0097363Y0094607D03*
X0095394Y0094607D03*
X0093426Y0094607D03*
X0093426Y0113505D03*
X0095394Y0113505D03*
X0097363Y0113505D03*
X0099331Y0113505D03*
X0101300Y0113505D03*
X0103269Y0113505D03*
X0105237Y0113505D03*
X0107206Y0113505D03*
X0109174Y0113505D03*
X0111143Y0113505D03*
X0113111Y0113505D03*
X0115080Y0113505D03*
D21*
X0117639Y0109961D03*
X0117639Y0107993D03*
X0117639Y0106024D03*
X0117639Y0104056D03*
X0117639Y0102087D03*
X0117639Y0100119D03*
X0117639Y0098150D03*
X0090867Y0098150D03*
X0090867Y0100119D03*
X0090867Y0102087D03*
X0090867Y0104056D03*
X0090867Y0106024D03*
X0090867Y0107993D03*
X0090867Y0109961D03*
D22*
X0104253Y0104056D03*
D23*
X0091408Y0095542D03*
D24*
X0291851Y0126694D03*
X0291851Y0128662D03*
X0291851Y0130631D03*
X0291851Y0132599D03*
X0291851Y0134568D03*
X0299331Y0134568D03*
X0299331Y0132599D03*
X0299331Y0130631D03*
X0299331Y0128662D03*
X0299331Y0126694D03*
X0368623Y0126891D03*
X0368623Y0124922D03*
X0368623Y0122954D03*
X0368623Y0120985D03*
X0368623Y0119017D03*
X0376103Y0119017D03*
X0376103Y0120985D03*
X0376103Y0122954D03*
X0376103Y0124922D03*
X0376103Y0126891D03*
D25*
X0372363Y0122954D03*
X0295591Y0130631D03*
D26*
X0371831Y0105828D03*
X0381162Y0105828D03*
D27*
X0278465Y0122560D03*
X0278465Y0131615D03*
D28*
X0050709Y0128761D03*
X0039686Y0128761D03*
X0039686Y0112422D03*
X0050709Y0112422D03*
X0050709Y0070296D03*
X0039686Y0070296D03*
X0039686Y0053957D03*
X0050709Y0053957D03*
D29*
X0308977Y0116064D03*
X0316457Y0116064D03*
X0312717Y0124331D03*
X0402284Y0096576D03*
X0409765Y0096576D03*
X0409765Y0091457D03*
X0402284Y0091457D03*
X0406024Y0083190D03*
X0406024Y0104843D03*
D30*
X0260355Y0131221D03*
X0249331Y0131221D03*
D31*
X0328662Y0132009D03*
X0328662Y0120985D03*
D32*
X0321083Y0081221D02*
X0320493Y0081221D01*
X0320493Y0083387D01*
X0321083Y0083387D01*
X0321083Y0081221D01*
X0321083Y0081811D02*
X0320493Y0081811D01*
X0320493Y0082401D02*
X0321083Y0082401D01*
X0321083Y0082991D02*
X0320493Y0082991D01*
X0319115Y0081221D02*
X0318525Y0081221D01*
X0318525Y0083387D01*
X0319115Y0083387D01*
X0319115Y0081221D01*
X0319115Y0081811D02*
X0318525Y0081811D01*
X0318525Y0082401D02*
X0319115Y0082401D01*
X0319115Y0082991D02*
X0318525Y0082991D01*
X0317146Y0081221D02*
X0316556Y0081221D01*
X0316556Y0083387D01*
X0317146Y0083387D01*
X0317146Y0081221D01*
X0317146Y0081811D02*
X0316556Y0081811D01*
X0316556Y0082401D02*
X0317146Y0082401D01*
X0317146Y0082991D02*
X0316556Y0082991D01*
X0315178Y0081221D02*
X0314588Y0081221D01*
X0314588Y0083387D01*
X0315178Y0083387D01*
X0315178Y0081221D01*
X0315178Y0081811D02*
X0314588Y0081811D01*
X0314588Y0082401D02*
X0315178Y0082401D01*
X0315178Y0082991D02*
X0314588Y0082991D01*
X0313209Y0081221D02*
X0312619Y0081221D01*
X0312619Y0083387D01*
X0313209Y0083387D01*
X0313209Y0081221D01*
X0313209Y0081811D02*
X0312619Y0081811D01*
X0312619Y0082401D02*
X0313209Y0082401D01*
X0313209Y0082991D02*
X0312619Y0082991D01*
X0311241Y0081221D02*
X0310651Y0081221D01*
X0310651Y0083387D01*
X0311241Y0083387D01*
X0311241Y0081221D01*
X0311241Y0081811D02*
X0310651Y0081811D01*
X0310651Y0082401D02*
X0311241Y0082401D01*
X0311241Y0082991D02*
X0310651Y0082991D01*
X0309272Y0081221D02*
X0308682Y0081221D01*
X0308682Y0083387D01*
X0309272Y0083387D01*
X0309272Y0081221D01*
X0309272Y0081811D02*
X0308682Y0081811D01*
X0308682Y0082401D02*
X0309272Y0082401D01*
X0309272Y0082991D02*
X0308682Y0082991D01*
X0307304Y0081221D02*
X0306714Y0081221D01*
X0306714Y0083387D01*
X0307304Y0083387D01*
X0307304Y0081221D01*
X0307304Y0081811D02*
X0306714Y0081811D01*
X0306714Y0082401D02*
X0307304Y0082401D01*
X0307304Y0082991D02*
X0306714Y0082991D01*
X0305335Y0081221D02*
X0304745Y0081221D01*
X0304745Y0083387D01*
X0305335Y0083387D01*
X0305335Y0081221D01*
X0305335Y0081811D02*
X0304745Y0081811D01*
X0304745Y0082401D02*
X0305335Y0082401D01*
X0305335Y0082991D02*
X0304745Y0082991D01*
X0303367Y0081221D02*
X0302777Y0081221D01*
X0302777Y0083387D01*
X0303367Y0083387D01*
X0303367Y0081221D01*
X0303367Y0081811D02*
X0302777Y0081811D01*
X0302777Y0082401D02*
X0303367Y0082401D01*
X0303367Y0082991D02*
X0302777Y0082991D01*
X0301398Y0081221D02*
X0300808Y0081221D01*
X0300808Y0083387D01*
X0301398Y0083387D01*
X0301398Y0081221D01*
X0301398Y0081811D02*
X0300808Y0081811D01*
X0300808Y0082401D02*
X0301398Y0082401D01*
X0301398Y0082991D02*
X0300808Y0082991D01*
X0298938Y0078761D02*
X0296772Y0078761D01*
X0296772Y0079351D01*
X0298938Y0079351D01*
X0298938Y0078761D01*
X0298938Y0079351D02*
X0296772Y0079351D01*
X0296772Y0076792D02*
X0298938Y0076792D01*
X0296772Y0076792D02*
X0296772Y0077382D01*
X0298938Y0077382D01*
X0298938Y0076792D01*
X0298938Y0077382D02*
X0296772Y0077382D01*
X0296772Y0074824D02*
X0298938Y0074824D01*
X0296772Y0074824D02*
X0296772Y0075414D01*
X0298938Y0075414D01*
X0298938Y0074824D01*
X0298938Y0075414D02*
X0296772Y0075414D01*
X0296772Y0072855D02*
X0298938Y0072855D01*
X0296772Y0072855D02*
X0296772Y0073445D01*
X0298938Y0073445D01*
X0298938Y0072855D01*
X0298938Y0073445D02*
X0296772Y0073445D01*
X0296772Y0070887D02*
X0298938Y0070887D01*
X0296772Y0070887D02*
X0296772Y0071477D01*
X0298938Y0071477D01*
X0298938Y0070887D01*
X0298938Y0071477D02*
X0296772Y0071477D01*
X0296772Y0068918D02*
X0298938Y0068918D01*
X0296772Y0068918D02*
X0296772Y0069508D01*
X0298938Y0069508D01*
X0298938Y0068918D01*
X0298938Y0069508D02*
X0296772Y0069508D01*
X0296772Y0066950D02*
X0298938Y0066950D01*
X0296772Y0066950D02*
X0296772Y0067540D01*
X0298938Y0067540D01*
X0298938Y0066950D01*
X0298938Y0067540D02*
X0296772Y0067540D01*
X0296772Y0064981D02*
X0298938Y0064981D01*
X0296772Y0064981D02*
X0296772Y0065571D01*
X0298938Y0065571D01*
X0298938Y0064981D01*
X0298938Y0065571D02*
X0296772Y0065571D01*
X0296772Y0063013D02*
X0298938Y0063013D01*
X0296772Y0063013D02*
X0296772Y0063603D01*
X0298938Y0063603D01*
X0298938Y0063013D01*
X0298938Y0063603D02*
X0296772Y0063603D01*
X0296772Y0061044D02*
X0298938Y0061044D01*
X0296772Y0061044D02*
X0296772Y0061634D01*
X0298938Y0061634D01*
X0298938Y0061044D01*
X0298938Y0061634D02*
X0296772Y0061634D01*
X0296772Y0059076D02*
X0298938Y0059076D01*
X0296772Y0059076D02*
X0296772Y0059666D01*
X0298938Y0059666D01*
X0298938Y0059076D01*
X0298938Y0059666D02*
X0296772Y0059666D01*
X0300808Y0055040D02*
X0301398Y0055040D01*
X0300808Y0055040D02*
X0300808Y0057206D01*
X0301398Y0057206D01*
X0301398Y0055040D01*
X0301398Y0055630D02*
X0300808Y0055630D01*
X0300808Y0056220D02*
X0301398Y0056220D01*
X0301398Y0056810D02*
X0300808Y0056810D01*
X0302777Y0055040D02*
X0303367Y0055040D01*
X0302777Y0055040D02*
X0302777Y0057206D01*
X0303367Y0057206D01*
X0303367Y0055040D01*
X0303367Y0055630D02*
X0302777Y0055630D01*
X0302777Y0056220D02*
X0303367Y0056220D01*
X0303367Y0056810D02*
X0302777Y0056810D01*
X0304745Y0055040D02*
X0305335Y0055040D01*
X0304745Y0055040D02*
X0304745Y0057206D01*
X0305335Y0057206D01*
X0305335Y0055040D01*
X0305335Y0055630D02*
X0304745Y0055630D01*
X0304745Y0056220D02*
X0305335Y0056220D01*
X0305335Y0056810D02*
X0304745Y0056810D01*
X0306714Y0055040D02*
X0307304Y0055040D01*
X0306714Y0055040D02*
X0306714Y0057206D01*
X0307304Y0057206D01*
X0307304Y0055040D01*
X0307304Y0055630D02*
X0306714Y0055630D01*
X0306714Y0056220D02*
X0307304Y0056220D01*
X0307304Y0056810D02*
X0306714Y0056810D01*
X0308682Y0055040D02*
X0309272Y0055040D01*
X0308682Y0055040D02*
X0308682Y0057206D01*
X0309272Y0057206D01*
X0309272Y0055040D01*
X0309272Y0055630D02*
X0308682Y0055630D01*
X0308682Y0056220D02*
X0309272Y0056220D01*
X0309272Y0056810D02*
X0308682Y0056810D01*
X0310651Y0055040D02*
X0311241Y0055040D01*
X0310651Y0055040D02*
X0310651Y0057206D01*
X0311241Y0057206D01*
X0311241Y0055040D01*
X0311241Y0055630D02*
X0310651Y0055630D01*
X0310651Y0056220D02*
X0311241Y0056220D01*
X0311241Y0056810D02*
X0310651Y0056810D01*
X0312619Y0055040D02*
X0313209Y0055040D01*
X0312619Y0055040D02*
X0312619Y0057206D01*
X0313209Y0057206D01*
X0313209Y0055040D01*
X0313209Y0055630D02*
X0312619Y0055630D01*
X0312619Y0056220D02*
X0313209Y0056220D01*
X0313209Y0056810D02*
X0312619Y0056810D01*
X0314588Y0055040D02*
X0315178Y0055040D01*
X0314588Y0055040D02*
X0314588Y0057206D01*
X0315178Y0057206D01*
X0315178Y0055040D01*
X0315178Y0055630D02*
X0314588Y0055630D01*
X0314588Y0056220D02*
X0315178Y0056220D01*
X0315178Y0056810D02*
X0314588Y0056810D01*
X0316556Y0055040D02*
X0317146Y0055040D01*
X0316556Y0055040D02*
X0316556Y0057206D01*
X0317146Y0057206D01*
X0317146Y0055040D01*
X0317146Y0055630D02*
X0316556Y0055630D01*
X0316556Y0056220D02*
X0317146Y0056220D01*
X0317146Y0056810D02*
X0316556Y0056810D01*
X0318525Y0055040D02*
X0319115Y0055040D01*
X0318525Y0055040D02*
X0318525Y0057206D01*
X0319115Y0057206D01*
X0319115Y0055040D01*
X0319115Y0055630D02*
X0318525Y0055630D01*
X0318525Y0056220D02*
X0319115Y0056220D01*
X0319115Y0056810D02*
X0318525Y0056810D01*
X0320493Y0055040D02*
X0321083Y0055040D01*
X0320493Y0055040D02*
X0320493Y0057206D01*
X0321083Y0057206D01*
X0321083Y0055040D01*
X0321083Y0055630D02*
X0320493Y0055630D01*
X0320493Y0056220D02*
X0321083Y0056220D01*
X0321083Y0056810D02*
X0320493Y0056810D01*
X0322953Y0059076D02*
X0325119Y0059076D01*
X0322953Y0059076D02*
X0322953Y0059666D01*
X0325119Y0059666D01*
X0325119Y0059076D01*
X0325119Y0059666D02*
X0322953Y0059666D01*
X0322953Y0061044D02*
X0325119Y0061044D01*
X0322953Y0061044D02*
X0322953Y0061634D01*
X0325119Y0061634D01*
X0325119Y0061044D01*
X0325119Y0061634D02*
X0322953Y0061634D01*
X0322953Y0063013D02*
X0325119Y0063013D01*
X0322953Y0063013D02*
X0322953Y0063603D01*
X0325119Y0063603D01*
X0325119Y0063013D01*
X0325119Y0063603D02*
X0322953Y0063603D01*
X0322953Y0064981D02*
X0325119Y0064981D01*
X0322953Y0064981D02*
X0322953Y0065571D01*
X0325119Y0065571D01*
X0325119Y0064981D01*
X0325119Y0065571D02*
X0322953Y0065571D01*
X0322953Y0066950D02*
X0325119Y0066950D01*
X0322953Y0066950D02*
X0322953Y0067540D01*
X0325119Y0067540D01*
X0325119Y0066950D01*
X0325119Y0067540D02*
X0322953Y0067540D01*
X0322953Y0068918D02*
X0325119Y0068918D01*
X0322953Y0068918D02*
X0322953Y0069508D01*
X0325119Y0069508D01*
X0325119Y0068918D01*
X0325119Y0069508D02*
X0322953Y0069508D01*
X0322953Y0070887D02*
X0325119Y0070887D01*
X0322953Y0070887D02*
X0322953Y0071477D01*
X0325119Y0071477D01*
X0325119Y0070887D01*
X0325119Y0071477D02*
X0322953Y0071477D01*
X0322953Y0072855D02*
X0325119Y0072855D01*
X0322953Y0072855D02*
X0322953Y0073445D01*
X0325119Y0073445D01*
X0325119Y0072855D01*
X0325119Y0073445D02*
X0322953Y0073445D01*
X0322953Y0074824D02*
X0325119Y0074824D01*
X0322953Y0074824D02*
X0322953Y0075414D01*
X0325119Y0075414D01*
X0325119Y0074824D01*
X0325119Y0075414D02*
X0322953Y0075414D01*
X0322953Y0076792D02*
X0325119Y0076792D01*
X0322953Y0076792D02*
X0322953Y0077382D01*
X0325119Y0077382D01*
X0325119Y0076792D01*
X0325119Y0077382D02*
X0322953Y0077382D01*
X0322953Y0078761D02*
X0325119Y0078761D01*
X0322953Y0078761D02*
X0322953Y0079351D01*
X0325119Y0079351D01*
X0325119Y0078761D01*
X0325119Y0079351D02*
X0322953Y0079351D01*
D33*
X0319804Y0060355D02*
X0302088Y0060355D01*
X0302088Y0078071D01*
X0319804Y0078071D01*
X0319804Y0060355D01*
X0319804Y0062323D02*
X0302088Y0062323D01*
X0302088Y0064291D02*
X0319804Y0064291D01*
X0319804Y0066259D02*
X0302088Y0066259D01*
X0302088Y0068227D02*
X0319804Y0068227D01*
X0319804Y0070195D02*
X0302088Y0070195D01*
X0302088Y0072163D02*
X0319804Y0072163D01*
X0319804Y0074131D02*
X0302088Y0074131D01*
X0302088Y0076099D02*
X0319804Y0076099D01*
X0319804Y0078067D02*
X0302088Y0078067D01*
D34*
X0297855Y0077087D02*
X0297363Y0076891D01*
X0294410Y0076891D01*
X0294410Y0091064D01*
X0299135Y0095788D01*
X0299135Y0115276D01*
X0295591Y0117048D02*
X0295591Y0123544D01*
X0292048Y0119410D02*
X0288505Y0122954D01*
X0288342Y0123137D01*
X0292048Y0119410D02*
X0292245Y0119410D01*
X0295591Y0117048D02*
X0292639Y0114095D01*
X0292639Y0075119D01*
X0297855Y0075119D01*
X0297363Y0073347D02*
X0290867Y0073347D01*
X0288505Y0070985D02*
X0288505Y0052678D01*
X0289686Y0050316D02*
X0290867Y0051497D01*
X0290867Y0065080D01*
X0297363Y0065080D01*
X0297855Y0065276D01*
X0297855Y0063308D02*
X0296182Y0063308D01*
X0293229Y0060355D01*
X0293229Y0050316D01*
X0296772Y0046772D01*
X0303269Y0042639D02*
X0326300Y0019607D01*
X0326300Y0019017D01*
X0332206Y0013111D01*
X0334568Y0010749D02*
X0318623Y0010749D01*
X0312127Y0017245D01*
X0312127Y0023150D01*
X0300906Y0034371D01*
X0300906Y0055631D01*
X0301103Y0056123D01*
X0303072Y0056123D02*
X0303269Y0055631D01*
X0303269Y0042639D01*
X0305040Y0045591D02*
X0320394Y0030237D01*
X0333977Y0030237D01*
X0340473Y0029646D02*
X0340473Y0026103D01*
X0340473Y0029646D02*
X0376497Y0029646D01*
X0385355Y0020788D01*
X0385749Y0020788D01*
X0399528Y0020788D02*
X0407206Y0020788D01*
X0411930Y0016064D01*
X0430237Y0016064D01*
X0455631Y0041457D01*
X0463898Y0041457D01*
X0466261Y0043820D01*
X0466261Y0135355D01*
X0426694Y0174922D01*
X0378859Y0174922D01*
X0372363Y0168426D01*
X0371969Y0168426D01*
X0373544Y0163702D02*
X0399528Y0163702D01*
X0399528Y0168426D01*
X0413111Y0168426D02*
X0413308Y0168426D01*
X0413111Y0168426D02*
X0413111Y0107009D01*
X0405434Y0099331D01*
X0405434Y0089292D01*
X0403072Y0086930D01*
X0403072Y0082206D01*
X0390670Y0069804D01*
X0393524Y0067442D02*
X0393623Y0067442D01*
X0393524Y0067442D02*
X0394213Y0067442D01*
X0399528Y0072757D01*
X0399528Y0076300D01*
X0403072Y0079843D01*
X0410158Y0079843D01*
X0410158Y0089292D01*
X0410158Y0091064D01*
X0409765Y0091457D01*
X0409568Y0091654D01*
X0409568Y0096379D01*
X0409765Y0096576D01*
X0402481Y0096379D02*
X0402284Y0096576D01*
X0401891Y0096379D01*
X0394804Y0096379D01*
X0394804Y0096576D01*
X0394804Y0102875D02*
X0385355Y0093426D01*
X0364095Y0093426D01*
X0364095Y0117048D01*
X0360552Y0113505D01*
X0360552Y0113898D01*
X0360552Y0114095D01*
X0351694Y0114095D01*
X0351694Y0113898D01*
X0351694Y0114095D02*
X0342835Y0114095D01*
X0342835Y0113898D01*
X0342835Y0114095D02*
X0342835Y0119607D01*
X0342835Y0120001D01*
X0338111Y0124725D01*
X0338111Y0173150D01*
X0313308Y0173150D01*
X0309765Y0169607D01*
X0309765Y0124725D01*
X0312717Y0124725D01*
X0312717Y0124331D01*
X0309765Y0124725D02*
X0309765Y0120001D01*
X0303859Y0120001D01*
X0303859Y0128269D01*
X0299725Y0128269D01*
X0299331Y0128662D01*
X0299135Y0128859D01*
X0299135Y0130631D01*
X0299331Y0130631D01*
X0295591Y0130631D02*
X0295591Y0126572D01*
X0297937Y0126589D01*
X0298846Y0126589D01*
X0299331Y0126694D01*
X0295591Y0130631D02*
X0295591Y0134765D01*
X0295394Y0134568D01*
X0291851Y0134568D01*
X0289686Y0133583D02*
X0286733Y0136536D01*
X0269607Y0136536D01*
X0269607Y0142442D01*
X0251891Y0142442D01*
X0269607Y0136536D02*
X0269607Y0127678D01*
X0271379Y0125906D01*
X0271379Y0122363D02*
X0264883Y0122363D01*
X0264686Y0121969D01*
X0260158Y0121772D02*
X0260158Y0131221D01*
X0260355Y0131221D01*
X0253072Y0127678D02*
X0249528Y0131221D01*
X0249331Y0131221D01*
X0249528Y0131221D02*
X0249528Y0156024D01*
X0261930Y0168426D01*
X0260749Y0173150D02*
X0309765Y0173150D01*
X0303269Y0168426D02*
X0306812Y0164292D01*
X0306812Y0122954D01*
X0303859Y0120001D02*
X0303859Y0114095D01*
X0302678Y0112914D01*
X0301497Y0112914D01*
X0302678Y0112914D02*
X0302678Y0108780D01*
X0302284Y0108780D01*
X0308977Y0108780D02*
X0309174Y0108780D01*
X0309174Y0115867D01*
X0308977Y0116064D01*
X0316457Y0116064D02*
X0316851Y0116457D01*
X0324528Y0116457D01*
X0328662Y0120591D01*
X0328662Y0120985D01*
X0335749Y0116457D02*
X0335749Y0125906D01*
X0342835Y0125906D02*
X0342835Y0126300D01*
X0342835Y0125906D02*
X0348741Y0120001D01*
X0351694Y0120001D01*
X0351694Y0119607D01*
X0351694Y0120001D02*
X0360552Y0120001D01*
X0360552Y0119607D01*
X0360552Y0120001D02*
X0360552Y0122954D01*
X0368623Y0122954D01*
X0368623Y0120985D02*
X0368229Y0120591D01*
X0364095Y0120591D01*
X0364095Y0117048D01*
X0375906Y0121182D02*
X0376103Y0120985D01*
X0375906Y0121182D02*
X0375906Y0122954D01*
X0376103Y0122954D01*
X0379450Y0120198D02*
X0379450Y0119410D01*
X0368623Y0126891D02*
X0368229Y0127087D01*
X0367639Y0127678D01*
X0367639Y0134174D01*
X0367442Y0134174D01*
X0340473Y0130631D02*
X0373544Y0163702D01*
X0358190Y0168426D02*
X0348741Y0177875D01*
X0270198Y0177875D01*
X0270198Y0175513D01*
X0260749Y0173150D02*
X0227678Y0140080D01*
X0225316Y0138898D02*
X0225316Y0169607D01*
X0217048Y0177875D01*
X0087127Y0177875D01*
X0087127Y0137717D01*
X0080631Y0131221D01*
X0080631Y0127678D01*
X0078269Y0125316D01*
X0077087Y0125316D01*
X0076694Y0125119D01*
X0070001Y0129450D02*
X0069804Y0129450D01*
X0070001Y0129450D02*
X0072954Y0132402D01*
X0076497Y0132402D01*
X0076694Y0132599D01*
X0086930Y0132599D02*
X0087127Y0132993D01*
X0094410Y0132993D01*
X0094804Y0132993D01*
X0094804Y0130631D01*
X0097757Y0127678D01*
X0103662Y0125316D02*
X0087127Y0125316D01*
X0086930Y0125119D01*
X0086536Y0124725D01*
X0086536Y0118820D01*
X0085355Y0117639D01*
X0085158Y0117639D01*
X0084765Y0117639D01*
X0084765Y0113505D01*
X0067048Y0113505D01*
X0067048Y0113111D01*
X0067048Y0119804D02*
X0067048Y0120001D01*
X0058780Y0120001D01*
X0058780Y0119804D01*
X0058780Y0120001D02*
X0051103Y0120001D01*
X0051103Y0112914D01*
X0050709Y0112422D01*
X0051103Y0120001D02*
X0051103Y0128269D01*
X0050709Y0128761D01*
X0051103Y0128859D01*
X0077678Y0155434D01*
X0077678Y0170788D01*
X0086536Y0179646D01*
X0227678Y0179646D01*
X0227678Y0149528D01*
X0222954Y0144804D02*
X0215276Y0137127D01*
X0215276Y0125316D01*
X0219410Y0121182D01*
X0219961Y0120906D01*
X0220001Y0120591D01*
X0228859Y0111733D01*
X0228859Y0073347D01*
X0246576Y0073347D01*
X0248938Y0070985D02*
X0251300Y0073347D01*
X0251300Y0112914D01*
X0225316Y0138898D01*
X0204646Y0132402D02*
X0201694Y0135355D01*
X0196969Y0135355D01*
X0196969Y0134174D01*
X0182796Y0120001D01*
X0182796Y0095198D01*
X0175119Y0087520D01*
X0175119Y0086339D01*
X0172757Y0082206D02*
X0184568Y0070394D01*
X0184568Y0063308D01*
X0215867Y0032009D01*
X0229450Y0032009D01*
X0238898Y0022560D01*
X0238898Y0014292D01*
X0234765Y0014292D01*
X0228859Y0020198D01*
X0221182Y0012520D01*
X0148544Y0012520D01*
X0140276Y0020788D01*
X0137520Y0020788D01*
X0137324Y0020788D01*
X0132599Y0025513D01*
X0122560Y0025513D01*
X0113111Y0016064D01*
X0081221Y0016064D01*
X0076497Y0020788D01*
X0068623Y0020788D01*
X0064095Y0020788D02*
X0064095Y0019017D01*
X0068820Y0014292D01*
X0123741Y0014292D01*
X0123741Y0020788D01*
X0144410Y0019017D02*
X0144410Y0044410D01*
X0119607Y0044410D01*
X0108387Y0055631D01*
X0108387Y0068623D01*
X0106024Y0068623D01*
X0104843Y0068426D01*
X0104843Y0068623D01*
X0096576Y0068623D01*
X0096576Y0068426D01*
X0093623Y0065080D02*
X0092442Y0066261D01*
X0092442Y0077087D01*
X0090080Y0080434D02*
X0085946Y0076300D01*
X0085946Y0068623D01*
X0085946Y0068426D01*
X0085946Y0068623D02*
X0077678Y0068623D01*
X0077678Y0068426D01*
X0073544Y0066261D02*
X0073544Y0077087D01*
X0070001Y0080434D02*
X0090080Y0080434D01*
X0104253Y0080434D01*
X0104253Y0082206D01*
X0108977Y0086930D01*
X0108977Y0094607D01*
X0109174Y0094607D01*
X0107206Y0094607D02*
X0107206Y0092245D01*
X0106024Y0091064D01*
X0111339Y0089292D02*
X0111339Y0094607D01*
X0111143Y0094607D01*
X0113111Y0094607D02*
X0113111Y0091064D01*
X0113702Y0090473D01*
X0113702Y0086930D01*
X0111339Y0086930D01*
X0108387Y0083977D01*
X0108387Y0068623D01*
X0106024Y0068623D02*
X0104843Y0068623D01*
X0110749Y0069804D02*
X0110749Y0073347D01*
X0114292Y0076891D01*
X0114292Y0077087D01*
X0118426Y0074528D02*
X0118426Y0083977D01*
X0114292Y0083977D01*
X0114292Y0083780D01*
X0118426Y0083977D02*
X0122560Y0083977D01*
X0122560Y0083780D01*
X0122560Y0083977D02*
X0122560Y0087520D01*
X0115473Y0094607D01*
X0115080Y0094607D01*
X0117639Y0098150D02*
X0117835Y0098150D01*
X0123741Y0092245D01*
X0123741Y0088702D01*
X0126694Y0085749D01*
X0126694Y0068623D01*
X0126694Y0068426D01*
X0126694Y0068623D02*
X0123150Y0068623D01*
X0123150Y0059174D01*
X0124922Y0057402D01*
X0127284Y0057402D01*
X0124922Y0055040D02*
X0134961Y0055040D01*
X0134961Y0064489D01*
X0133780Y0065670D01*
X0133780Y0076300D01*
X0133190Y0076891D01*
X0133190Y0077087D01*
X0133190Y0083780D02*
X0133190Y0083977D01*
X0137324Y0083977D01*
X0141457Y0083977D01*
X0141457Y0083780D01*
X0133190Y0083977D02*
X0125513Y0091654D01*
X0125513Y0099922D01*
X0117835Y0099922D01*
X0117639Y0100119D01*
X0117639Y0102087D02*
X0117835Y0102284D01*
X0124922Y0102284D01*
X0123150Y0104056D02*
X0117639Y0104056D01*
X0117639Y0106024D02*
X0117835Y0106418D01*
X0130828Y0106418D01*
X0130828Y0105828D01*
X0134371Y0105828D01*
X0130828Y0105828D02*
X0130828Y0101694D01*
X0131024Y0101694D01*
X0127284Y0104646D02*
X0123741Y0104646D01*
X0123150Y0104056D01*
X0127284Y0104646D02*
X0127284Y0096969D01*
X0130828Y0093426D01*
X0131024Y0093426D01*
X0131418Y0093426D01*
X0136143Y0098150D01*
X0142639Y0098150D01*
X0142639Y0147166D01*
X0156812Y0161339D01*
X0152678Y0163702D02*
X0142639Y0163702D01*
X0137914Y0168426D01*
X0137520Y0168426D01*
X0134371Y0165473D02*
X0133190Y0166654D01*
X0133190Y0170198D01*
X0136143Y0173150D01*
X0150906Y0173150D01*
X0150906Y0168426D01*
X0151300Y0168426D01*
X0152678Y0163702D02*
X0162127Y0173150D01*
X0172757Y0173150D01*
X0172757Y0082206D01*
X0175119Y0076300D02*
X0147363Y0104056D01*
X0147363Y0121182D01*
X0145001Y0116457D02*
X0145001Y0145985D01*
X0165080Y0166064D01*
X0165080Y0168426D01*
X0172757Y0173150D02*
X0194607Y0173150D01*
X0199331Y0168426D01*
X0202875Y0168426D01*
X0211733Y0159568D01*
X0220591Y0164883D02*
X0220591Y0168426D01*
X0220591Y0164883D02*
X0181024Y0125316D01*
X0181024Y0114686D01*
X0175119Y0108780D01*
X0186143Y0100119D02*
X0186339Y0099922D01*
X0192245Y0099922D01*
X0192245Y0088111D01*
X0195788Y0084568D01*
X0195788Y0083780D01*
X0195788Y0083977D01*
X0195788Y0084568D02*
X0203465Y0084568D01*
X0203662Y0084765D01*
X0210552Y0084568D02*
X0211733Y0083387D01*
X0211733Y0081024D01*
X0211930Y0081024D01*
X0211733Y0081024D02*
X0211733Y0069804D01*
X0211143Y0069213D01*
X0210946Y0069213D01*
X0213505Y0065670D02*
X0215276Y0067442D01*
X0215276Y0080434D01*
X0218820Y0080434D01*
X0219017Y0080887D01*
X0221772Y0083387D02*
X0214686Y0083387D01*
X0214686Y0086339D01*
X0210552Y0090473D01*
X0204056Y0091654D02*
X0204056Y0093426D01*
X0205828Y0095198D01*
X0211930Y0095198D02*
X0222363Y0095198D01*
X0222363Y0102875D01*
X0221182Y0104056D01*
X0212324Y0104056D01*
X0213505Y0102875D01*
X0212324Y0104056D02*
X0210552Y0105828D01*
X0210552Y0106418D01*
X0210355Y0106418D01*
X0208190Y0102284D02*
X0204056Y0106418D01*
X0203662Y0106418D01*
X0203465Y0106418D01*
X0196379Y0113505D01*
X0204646Y0126497D02*
X0209961Y0121182D01*
X0209961Y0120906D01*
X0204646Y0126497D02*
X0204646Y0132402D01*
X0199961Y0130906D02*
X0199922Y0130631D01*
X0194017Y0124725D01*
X0194017Y0099922D01*
X0195788Y0099135D01*
X0195788Y0099331D01*
X0203465Y0099331D01*
X0203662Y0098938D01*
X0208190Y0100513D02*
X0218820Y0100513D01*
X0218820Y0100709D01*
X0208190Y0100513D02*
X0208190Y0072757D01*
X0204646Y0069213D01*
X0204253Y0069213D01*
X0201103Y0065670D02*
X0201103Y0077481D01*
X0203465Y0077481D01*
X0203662Y0077284D01*
X0201103Y0077481D02*
X0195788Y0077481D01*
X0195788Y0077087D01*
X0219017Y0075887D02*
X0220001Y0076891D01*
X0250709Y0046182D01*
X0256615Y0048544D02*
X0256615Y0051497D01*
X0256615Y0048544D02*
X0261339Y0048544D01*
X0289095Y0020788D01*
X0289489Y0020788D01*
X0293820Y0019017D02*
X0290867Y0016064D01*
X0280237Y0016064D01*
X0280237Y0022560D01*
X0277284Y0025513D01*
X0266654Y0025513D01*
X0266654Y0019607D01*
X0263111Y0016064D01*
X0240670Y0016064D01*
X0240670Y0025513D01*
X0202284Y0063898D01*
X0186339Y0063898D01*
X0186339Y0085749D01*
X0186143Y0085749D01*
X0186339Y0085749D02*
X0186339Y0092245D01*
X0186143Y0092639D01*
X0195788Y0092442D02*
X0195788Y0091654D01*
X0203465Y0091654D01*
X0203662Y0091457D01*
X0204056Y0091654D01*
X0219017Y0085887D02*
X0219410Y0086339D01*
X0224135Y0086339D01*
X0221772Y0083387D02*
X0222954Y0082206D01*
X0222954Y0079843D01*
X0220001Y0076891D01*
X0219410Y0076300D01*
X0219017Y0075887D01*
X0213505Y0065670D02*
X0201103Y0065670D01*
X0213505Y0065670D02*
X0256024Y0023150D01*
X0261930Y0020788D02*
X0253072Y0029646D01*
X0253072Y0127678D01*
X0260158Y0121772D02*
X0256615Y0118229D01*
X0256418Y0118229D01*
X0264686Y0114489D02*
X0264883Y0114095D01*
X0270788Y0114095D01*
X0270788Y0111733D01*
X0270985Y0111733D01*
X0271379Y0111733D01*
X0271379Y0082796D01*
X0284371Y0082796D01*
X0285552Y0081615D01*
X0285552Y0076300D01*
X0286143Y0075709D01*
X0282009Y0075119D02*
X0282009Y0079450D01*
X0282009Y0079843D01*
X0262520Y0079843D01*
X0262520Y0098253D01*
X0277617Y0107599D02*
X0280478Y0104739D01*
X0280480Y0104739D01*
X0283190Y0102029D01*
X0283190Y0095198D01*
X0288505Y0089883D01*
X0288505Y0090473D01*
X0290276Y0092245D01*
X0288505Y0089883D02*
X0288505Y0070985D01*
X0297363Y0070985D01*
X0297855Y0071182D01*
X0297855Y0073150D02*
X0297363Y0073347D01*
X0286143Y0070985D02*
X0282009Y0075119D01*
X0296182Y0080434D02*
X0296182Y0084568D01*
X0303269Y0091654D01*
X0307402Y0091654D01*
X0307402Y0097560D01*
X0313308Y0103465D01*
X0313308Y0120001D01*
X0316851Y0123544D01*
X0316851Y0168426D01*
X0322757Y0160749D02*
X0330434Y0168426D01*
X0330631Y0168426D01*
X0322757Y0160749D02*
X0322757Y0130631D01*
X0321576Y0129450D01*
X0328662Y0132009D02*
X0328662Y0132402D01*
X0335749Y0132402D01*
X0299331Y0134568D02*
X0299135Y0134765D01*
X0295591Y0134765D01*
X0289686Y0133583D02*
X0289686Y0130631D01*
X0291851Y0130631D01*
X0295591Y0137717D02*
X0289686Y0143623D01*
X0289686Y0168426D01*
X0289489Y0168426D01*
X0206812Y0168426D02*
X0202875Y0168426D01*
X0185158Y0175513D02*
X0185158Y0176103D01*
X0131418Y0176103D01*
X0123741Y0168426D01*
X0134371Y0165473D02*
X0134371Y0122954D01*
X0130828Y0119410D01*
X0131024Y0118229D01*
X0130828Y0118229D01*
X0130828Y0119410D01*
X0127284Y0119410D01*
X0117835Y0109961D01*
X0117639Y0109961D01*
X0117835Y0108190D02*
X0117639Y0107993D01*
X0117835Y0108190D02*
X0130828Y0108190D01*
X0130237Y0109961D01*
X0134371Y0114095D01*
X0131418Y0109961D02*
X0131024Y0109961D01*
X0130237Y0109961D01*
X0124922Y0122954D02*
X0115473Y0113505D01*
X0115080Y0113505D01*
X0113111Y0113505D02*
X0113111Y0119410D01*
X0128465Y0134765D01*
X0119017Y0144213D01*
X0119017Y0173150D01*
X0093623Y0173150D01*
X0089489Y0169017D01*
X0096182Y0168426D02*
X0096576Y0168426D01*
X0117245Y0147757D01*
X0117245Y0130631D01*
X0121379Y0131221D02*
X0109568Y0119410D01*
X0110749Y0118229D01*
X0110749Y0113505D01*
X0111143Y0113505D01*
X0109174Y0113505D02*
X0108977Y0113505D01*
X0108977Y0116457D01*
X0102481Y0122954D01*
X0103662Y0125316D02*
X0109568Y0119410D01*
X0103072Y0118820D02*
X0099528Y0115276D01*
X0099528Y0113505D01*
X0099331Y0113505D01*
X0097363Y0113505D01*
X0101300Y0113505D02*
X0103269Y0113505D01*
X0105237Y0113505D02*
X0107206Y0113505D01*
X0102284Y0106024D02*
X0090867Y0106024D01*
X0096576Y0103465D02*
X0097166Y0104056D01*
X0099528Y0104056D01*
X0104253Y0104056D01*
X0102284Y0106024D01*
X0104253Y0104056D02*
X0103662Y0103465D01*
X0103662Y0094607D01*
X0103269Y0094607D01*
X0099528Y0094607D02*
X0099331Y0094607D01*
X0099528Y0094607D02*
X0099528Y0104056D01*
X0096576Y0103465D02*
X0096576Y0101103D01*
X0093623Y0098150D01*
X0093623Y0094607D01*
X0093426Y0094607D01*
X0095394Y0094607D02*
X0095394Y0092835D01*
X0093623Y0091064D01*
X0097757Y0092835D02*
X0100119Y0090473D01*
X0100119Y0088702D01*
X0103662Y0088702D02*
X0100709Y0083977D01*
X0100709Y0083780D01*
X0100709Y0083977D02*
X0092442Y0083977D01*
X0092442Y0083780D01*
X0087127Y0087520D02*
X0084765Y0087520D01*
X0081812Y0083977D01*
X0081812Y0083780D01*
X0081812Y0083977D02*
X0073544Y0083977D01*
X0073544Y0083780D01*
X0073544Y0083387D01*
X0068229Y0083387D01*
X0068229Y0046182D01*
X0082402Y0032009D01*
X0082402Y0020788D01*
X0095985Y0020788D02*
X0096182Y0020788D01*
X0095985Y0020788D02*
X0070001Y0046772D01*
X0070001Y0080434D01*
X0051103Y0069804D02*
X0050709Y0070296D01*
X0051103Y0069804D02*
X0051103Y0054450D01*
X0050709Y0053957D01*
X0051103Y0053859D01*
X0051103Y0028465D01*
X0052875Y0026694D01*
X0048150Y0027284D02*
X0054646Y0020788D01*
X0054843Y0020788D01*
X0064095Y0020788D01*
X0048150Y0027284D02*
X0048150Y0161930D01*
X0054646Y0168426D01*
X0054843Y0168426D01*
X0128465Y0134765D02*
X0131024Y0134765D01*
X0131024Y0126497D02*
X0128465Y0126497D01*
X0124922Y0122954D01*
X0122560Y0125316D01*
X0087127Y0128859D02*
X0086930Y0128859D01*
X0087127Y0128859D02*
X0087127Y0132402D01*
X0086930Y0132599D01*
X0145001Y0101103D02*
X0145591Y0100513D01*
X0145591Y0094607D01*
X0157402Y0082796D01*
X0157402Y0027875D01*
X0180434Y0027875D01*
X0183977Y0024331D01*
X0183977Y0021969D01*
X0188702Y0017245D01*
X0176891Y0014883D02*
X0220591Y0014883D01*
X0220591Y0020788D01*
X0223544Y0025513D02*
X0228859Y0020198D01*
X0234174Y0020788D02*
X0234371Y0020788D01*
X0234174Y0020788D02*
X0224725Y0030237D01*
X0179843Y0030237D01*
X0179843Y0032599D01*
X0174528Y0025513D02*
X0163898Y0025513D01*
X0160355Y0021969D01*
X0160355Y0016064D01*
X0149725Y0016064D01*
X0146772Y0019017D01*
X0146772Y0044410D01*
X0137324Y0053859D01*
X0124922Y0055040D02*
X0118426Y0061536D01*
X0118426Y0061733D01*
X0118426Y0055269D01*
X0118426Y0054769D02*
X0118426Y0051769D01*
X0096576Y0051178D02*
X0096576Y0054178D01*
X0096576Y0054678D02*
X0094442Y0056812D01*
X0090080Y0056812D01*
X0090080Y0061536D01*
X0093623Y0065080D01*
X0096576Y0062127D01*
X0096576Y0061733D01*
X0089489Y0065080D02*
X0088308Y0063898D01*
X0085946Y0063898D01*
X0085946Y0061733D01*
X0082402Y0056812D02*
X0077678Y0061536D01*
X0077678Y0061733D01*
X0077678Y0062127D01*
X0073544Y0066261D01*
X0082402Y0056812D02*
X0090080Y0056812D01*
X0110749Y0069804D02*
X0118426Y0062127D01*
X0118426Y0061733D01*
X0118426Y0068426D02*
X0118426Y0068623D01*
X0123150Y0068623D01*
X0134961Y0064489D02*
X0137324Y0062127D01*
X0137324Y0061733D01*
X0137324Y0068426D02*
X0137324Y0068623D01*
X0145591Y0068623D01*
X0145591Y0068426D01*
X0145591Y0068623D02*
X0145591Y0094607D01*
X0147954Y0088702D02*
X0149135Y0087520D01*
X0149135Y0022560D01*
X0150906Y0020788D01*
X0151300Y0020788D01*
X0149135Y0014292D02*
X0144410Y0019017D01*
X0149135Y0014292D02*
X0165080Y0014292D01*
X0165080Y0020788D01*
X0174528Y0017245D02*
X0176891Y0014883D01*
X0174528Y0017245D02*
X0174528Y0025513D01*
X0206812Y0020788D02*
X0214686Y0020788D01*
X0219410Y0025513D01*
X0223544Y0025513D01*
X0238898Y0014292D02*
X0269017Y0014292D01*
X0275513Y0020788D01*
X0275709Y0020788D01*
X0293820Y0019017D02*
X0293820Y0034961D01*
X0296772Y0037914D01*
X0299135Y0032599D02*
X0309765Y0021969D01*
X0330631Y0020788D02*
X0331024Y0020788D01*
X0334568Y0017245D01*
X0334568Y0010749D01*
X0335158Y0008977D02*
X0336339Y0010158D01*
X0336339Y0049135D01*
X0344607Y0057402D01*
X0344607Y0063308D01*
X0346969Y0065670D01*
X0346969Y0066064D01*
X0342835Y0065670D02*
X0342835Y0074528D01*
X0343229Y0074725D01*
X0347560Y0076891D02*
X0347560Y0071576D01*
X0348741Y0070394D01*
X0358190Y0070394D01*
X0358190Y0060946D01*
X0364095Y0055040D01*
X0377678Y0055040D01*
X0377678Y0058190D01*
X0377678Y0058583D01*
X0386536Y0067442D01*
X0386536Y0083387D01*
X0389489Y0086339D01*
X0389883Y0086339D01*
X0383190Y0086339D02*
X0374725Y0086339D01*
X0374725Y0084568D01*
X0374331Y0084174D01*
X0365670Y0080434D02*
X0365276Y0080434D01*
X0362324Y0083387D01*
X0362324Y0103465D01*
X0340473Y0103465D01*
X0339883Y0104056D01*
X0327481Y0104056D01*
X0319804Y0101694D02*
X0351103Y0101694D01*
X0352284Y0100513D01*
X0352284Y0087520D01*
X0359961Y0079843D01*
X0359961Y0063898D01*
X0362324Y0061536D01*
X0362717Y0061536D01*
X0364686Y0057993D02*
X0370591Y0057993D01*
X0370985Y0057796D01*
X0377678Y0064489D01*
X0377678Y0064883D01*
X0381221Y0058583D02*
X0388308Y0065670D01*
X0388308Y0073938D01*
X0389489Y0075119D01*
X0389883Y0075119D01*
X0383190Y0075119D02*
X0374725Y0075119D01*
X0374725Y0076300D01*
X0374331Y0076694D01*
X0394213Y0067442D02*
X0395985Y0065670D01*
X0395985Y0057993D01*
X0395985Y0046772D01*
X0397757Y0045001D01*
X0447363Y0045001D01*
X0452087Y0049725D01*
X0459765Y0049725D01*
X0460257Y0049922D01*
X0460257Y0052481D02*
X0459765Y0052678D01*
X0454450Y0052678D01*
X0448544Y0058583D01*
X0448544Y0058977D01*
X0448544Y0059174D01*
X0440276Y0059174D01*
X0440276Y0058977D01*
X0436733Y0056221D02*
X0440276Y0052678D01*
X0440276Y0052284D01*
X0436733Y0056221D02*
X0436733Y0063308D01*
X0436143Y0063898D01*
X0433780Y0065080D02*
X0440276Y0071576D01*
X0440276Y0071379D01*
X0448544Y0071379D02*
X0448544Y0069213D01*
X0452678Y0069213D01*
X0456221Y0065670D01*
X0456221Y0060946D01*
X0456812Y0060355D01*
X0459765Y0060355D01*
X0460257Y0060158D01*
X0455631Y0055040D02*
X0454450Y0056221D01*
X0454450Y0064489D01*
X0448544Y0064489D01*
X0448544Y0064686D01*
X0448544Y0064489D02*
X0440276Y0064489D01*
X0440276Y0064686D01*
X0433780Y0065080D02*
X0430828Y0065080D01*
X0430560Y0064954D01*
X0430828Y0066851D02*
X0430560Y0066922D01*
X0430828Y0066851D02*
X0433190Y0066851D01*
X0433190Y0067442D01*
X0434371Y0068623D01*
X0434371Y0069213D01*
X0430560Y0068891D02*
X0429056Y0070394D01*
X0436143Y0077481D01*
X0436143Y0077678D01*
X0426694Y0076300D02*
X0426694Y0073347D01*
X0426623Y0072828D01*
X0429056Y0070394D01*
X0424654Y0072828D02*
X0424331Y0073347D01*
X0424331Y0075119D01*
X0410158Y0089292D01*
X0402481Y0091654D02*
X0402284Y0091457D01*
X0402481Y0091654D02*
X0402481Y0096379D01*
X0394804Y0102875D02*
X0394804Y0103269D01*
X0394804Y0104646D01*
X0406024Y0104646D01*
X0406024Y0104843D01*
X0359961Y0099922D02*
X0358190Y0098150D01*
X0355631Y0098150D01*
X0349331Y0098150D02*
X0348938Y0098150D01*
X0349331Y0098150D02*
X0349331Y0089883D01*
X0348938Y0089883D01*
X0348741Y0089883D01*
X0348741Y0085158D01*
X0346969Y0083387D01*
X0350513Y0083387D02*
X0350513Y0075119D01*
X0350709Y0074725D01*
X0347560Y0076891D02*
X0344607Y0079843D01*
X0344607Y0094607D01*
X0337520Y0094607D01*
X0337520Y0098150D01*
X0337520Y0094607D02*
X0333387Y0094607D01*
X0330434Y0098150D02*
X0330434Y0090473D01*
X0330631Y0090473D01*
X0331024Y0090473D01*
X0331024Y0067442D01*
X0324528Y0067442D01*
X0324036Y0067245D01*
X0324036Y0065276D02*
X0324528Y0065080D01*
X0325709Y0065080D01*
X0326300Y0065670D01*
X0342835Y0065670D01*
X0342245Y0059174D02*
X0324528Y0059174D01*
X0324036Y0059371D01*
X0323347Y0056812D02*
X0323347Y0056221D01*
X0320985Y0056221D01*
X0320788Y0056123D01*
X0318820Y0056123D02*
X0318623Y0055631D01*
X0318623Y0046772D01*
X0320985Y0044410D01*
X0318623Y0043820D02*
X0318623Y0043229D01*
X0324528Y0037324D01*
X0333977Y0037324D01*
X0338111Y0035552D02*
X0338111Y0020788D01*
X0344607Y0014292D01*
X0440867Y0014292D01*
X0440867Y0020788D01*
X0427087Y0020788D02*
X0426694Y0020788D01*
X0426694Y0039686D01*
X0338702Y0039686D01*
X0338702Y0036143D02*
X0338111Y0035552D01*
X0333977Y0033780D02*
X0319213Y0033780D01*
X0306812Y0046182D01*
X0306812Y0055631D01*
X0307009Y0056123D01*
X0308977Y0056123D02*
X0309174Y0055631D01*
X0309174Y0047363D01*
X0314489Y0042048D01*
X0316851Y0041457D02*
X0322166Y0036143D01*
X0316851Y0041457D02*
X0316851Y0043229D01*
X0315080Y0045001D01*
X0315080Y0055631D01*
X0314883Y0056123D01*
X0316851Y0056123D02*
X0316851Y0045591D01*
X0318623Y0043820D01*
X0305040Y0045591D02*
X0305040Y0056123D01*
X0310946Y0056123D02*
X0310946Y0052678D01*
X0311536Y0052087D01*
X0312914Y0056123D02*
X0312717Y0056221D01*
X0312717Y0069213D01*
X0310946Y0069213D01*
X0324036Y0071182D02*
X0324528Y0070985D01*
X0327481Y0070985D01*
X0328662Y0073347D02*
X0324528Y0073347D01*
X0324036Y0073150D01*
X0328662Y0073347D02*
X0328662Y0082796D01*
X0317442Y0086339D02*
X0315080Y0083977D01*
X0315080Y0082796D01*
X0314883Y0082304D01*
X0312914Y0082304D02*
X0313308Y0084568D01*
X0313308Y0091654D01*
X0309765Y0094607D02*
X0309174Y0094017D01*
X0309174Y0082796D01*
X0308977Y0082304D01*
X0307009Y0082304D02*
X0306812Y0082796D01*
X0306812Y0088111D01*
X0304450Y0085749D02*
X0305040Y0085158D01*
X0305040Y0082304D01*
X0303269Y0082796D02*
X0303072Y0082304D01*
X0303269Y0082796D02*
X0303269Y0083387D01*
X0300906Y0085749D01*
X0300906Y0082796D02*
X0301103Y0082304D01*
X0300906Y0082796D02*
X0298544Y0082796D01*
X0296182Y0080434D02*
X0297363Y0079253D01*
X0297855Y0079056D01*
X0286143Y0085158D02*
X0285552Y0085749D01*
X0285552Y0090473D01*
X0280828Y0095198D01*
X0280828Y0100513D01*
X0287324Y0099922D02*
X0287324Y0098150D01*
X0287324Y0099922D02*
X0290276Y0102875D01*
X0295001Y0102284D02*
X0295001Y0098741D01*
X0295591Y0098150D01*
X0295788Y0098150D01*
X0302481Y0098150D02*
X0302678Y0098150D01*
X0302678Y0096379D01*
X0305040Y0094017D01*
X0315080Y0101103D02*
X0317442Y0098741D01*
X0317442Y0086339D01*
X0315080Y0101103D02*
X0315080Y0102875D01*
X0328662Y0116457D01*
X0335749Y0116457D01*
X0310946Y0104646D02*
X0309174Y0106418D01*
X0309174Y0108780D01*
X0277617Y0107599D02*
X0275513Y0107599D01*
X0274228Y0108087D01*
X0274228Y0114267D01*
X0278465Y0118504D01*
X0278465Y0122560D01*
X0208190Y0102284D02*
X0208190Y0100513D01*
X0195788Y0099922D02*
X0195788Y0099331D01*
X0195788Y0099922D02*
X0194017Y0099922D01*
X0192245Y0099922D01*
X0177875Y0096379D02*
X0177481Y0096379D01*
X0175119Y0094017D01*
X0175119Y0092835D01*
X0241064Y0085887D02*
X0241261Y0086339D01*
X0245985Y0086339D01*
X0245985Y0086930D01*
X0248347Y0085749D02*
X0243623Y0081024D01*
X0241261Y0081024D01*
X0241064Y0080887D01*
X0248347Y0085749D02*
X0248347Y0089292D01*
X0248938Y0089883D01*
X0282009Y0067835D02*
X0282009Y0067442D01*
X0285552Y0063898D01*
X0285552Y0057402D01*
X0262520Y0057402D01*
X0262520Y0060253D01*
X0285552Y0057402D02*
X0285552Y0050316D01*
X0289686Y0050316D01*
X0296772Y0056812D02*
X0295001Y0058583D01*
X0295001Y0059765D01*
X0296772Y0061536D01*
X0297363Y0061536D01*
X0297855Y0061339D01*
X0297855Y0059371D02*
X0297954Y0059174D01*
X0299135Y0057993D01*
X0299135Y0032599D01*
X0340473Y0033190D02*
X0413111Y0033190D01*
X0413111Y0020788D01*
X0413308Y0020788D01*
X0388308Y0056812D02*
X0375906Y0044410D01*
X0373544Y0045591D02*
X0338702Y0045591D01*
X0339883Y0049135D02*
X0374725Y0049135D01*
X0381221Y0055631D01*
X0381221Y0058583D01*
X0382993Y0057993D02*
X0382993Y0055040D01*
X0373544Y0045591D01*
X0388308Y0056812D02*
X0388308Y0060946D01*
X0393032Y0060946D01*
X0393524Y0061143D01*
X0393524Y0057993D02*
X0395985Y0057993D01*
X0398446Y0057993D02*
X0403072Y0057993D01*
X0403072Y0056721D01*
X0398938Y0060946D02*
X0398446Y0061143D01*
X0398938Y0060946D02*
X0410158Y0060946D01*
X0410158Y0060355D01*
X0413111Y0057402D01*
X0418426Y0057402D01*
X0418749Y0057080D01*
X0414812Y0061017D02*
X0414292Y0060946D01*
X0411930Y0060946D01*
X0411930Y0061536D01*
X0410749Y0062717D01*
X0410749Y0063308D01*
X0408387Y0064489D02*
X0410749Y0066851D01*
X0414292Y0066851D01*
X0414812Y0066922D01*
X0408387Y0064489D02*
X0398938Y0064489D01*
X0398446Y0064292D01*
X0393524Y0064292D02*
X0393032Y0063898D01*
X0388898Y0063898D01*
X0382993Y0057993D01*
X0403072Y0050316D02*
X0403072Y0049816D01*
X0403072Y0050316D02*
X0433780Y0050316D01*
X0433780Y0062127D01*
X0433190Y0062717D01*
X0430828Y0062717D01*
X0430560Y0062985D01*
X0455631Y0055040D02*
X0460257Y0055040D01*
X0420717Y0072828D02*
X0420788Y0073347D01*
X0420788Y0076300D01*
X0417835Y0076300D01*
X0417245Y0075709D01*
X0417245Y0074528D01*
X0403072Y0074528D01*
X0403072Y0074438D01*
X0403072Y0067532D02*
X0403072Y0067442D01*
X0398446Y0067442D01*
X0425513Y0077481D02*
X0426694Y0076300D01*
X0327481Y0063308D02*
X0324036Y0063308D01*
X0297855Y0067245D02*
X0297363Y0067442D01*
X0290867Y0067442D01*
X0335158Y0008977D02*
X0046379Y0008977D01*
X0046379Y0020198D01*
X0097757Y0092835D02*
X0097757Y0094607D01*
X0097363Y0094607D01*
D35*
X0096576Y0054678D03*
X0096576Y0050678D03*
X0118426Y0051269D03*
X0118426Y0055269D03*
D36*
X0401694Y0058099D02*
X0404450Y0058099D01*
X0404450Y0055343D01*
X0401694Y0055343D01*
X0401694Y0058099D01*
X0401694Y0056523D02*
X0404450Y0056523D01*
X0404450Y0057703D02*
X0401694Y0057703D01*
X0401694Y0051194D02*
X0404450Y0051194D01*
X0404450Y0048438D01*
X0401694Y0048438D01*
X0401694Y0051194D01*
X0401694Y0049618D02*
X0404450Y0049618D01*
X0404450Y0050798D02*
X0401694Y0050798D01*
X0401694Y0066154D02*
X0404450Y0066154D01*
X0401694Y0066154D02*
X0401694Y0068910D01*
X0404450Y0068910D01*
X0404450Y0066154D01*
X0404450Y0067334D02*
X0401694Y0067334D01*
X0401694Y0068514D02*
X0404450Y0068514D01*
X0404450Y0073060D02*
X0401694Y0073060D01*
X0401694Y0075816D01*
X0404450Y0075816D01*
X0404450Y0073060D01*
X0404450Y0074240D02*
X0401694Y0074240D01*
X0401694Y0075420D02*
X0404450Y0075420D01*
D37*
X0398446Y0067442D03*
X0393524Y0067442D03*
X0393524Y0064292D03*
X0398446Y0064292D03*
X0398446Y0061143D03*
X0398446Y0057993D03*
X0393524Y0057993D03*
X0393524Y0061143D03*
D38*
X0418749Y0057080D03*
X0420717Y0057080D03*
X0422686Y0057080D03*
X0424654Y0057080D03*
X0426623Y0057080D03*
X0426623Y0072828D03*
X0424654Y0072828D03*
X0422686Y0072828D03*
X0420717Y0072828D03*
X0418749Y0072828D03*
D39*
X0414812Y0068891D03*
X0414812Y0066922D03*
X0414812Y0064954D03*
X0414812Y0062985D03*
X0414812Y0061017D03*
X0430560Y0061017D03*
X0430560Y0062985D03*
X0430560Y0064954D03*
X0430560Y0066922D03*
X0430560Y0068891D03*
M02*
