%
M48
M72
T01C0.01200
T02C0.01378
T03C0.01575
T04C0.03543
T05C0.04331
T06C0.04724
T07C0.06299
T08C0.08000
T09C0.12500
%
T01
X67639Y11930
X77087Y21379
X90080Y28465
X157993Y16064
X267835Y10158
X316261Y27284
X308583Y28465
X312127Y32009
X320495Y43851
X325119Y44410
X318623Y46772
X318623Y50906
X312717Y52087
X309174Y54450
X321576Y57993
X325709Y63898
X327481Y67442
X332206Y67442
X338702Y64489
X345198Y73938
X343426Y76891
X332796Y78072
X355828Y84568
X375316Y85749
X339883Y96969
X342835Y104056
X364095Y100513
X388308Y115867
X396576Y124135
X346379Y140080
X318623Y159568
X269607Y137127
X241261Y135946
X212914Y142442
X202875Y137127
X203465Y155434
X176300Y157206
X119017Y128269
X106024Y129450
X102481Y122363
X92442Y118229
X61733Y117639
X69410Y94607
X95394Y92245
X99528Y92245
X111339Y89883
X105434Y83977
X105434Y79843
X122560Y72757
X112520Y72166
X132599Y63898
X141457Y66261
X137324Y72757
X151497Y75119
X137324Y83387
X145591Y85749
X138505Y88111
X147363Y93426
X164489Y98741
X147954Y101694
X124922Y95788
X176891Y114095
X192245Y112324
X208190Y111733
X196969Y104056
X196969Y100513
X192245Y100513
X205828Y102284
X240670Y94607
X251891Y95198
X251891Y90473
X248347Y90473
X251891Y86339
X279056Y84568
X285552Y86339
X296772Y83977
X303859Y88702
X310946Y92245
X313308Y89883
X301497Y95198
X296182Y96969
X287914Y92835
X313898Y96969
X303859Y105237
X299725Y107599
X282009Y109961
X317442Y118820
X420788Y81615
X411930Y74528
X393032Y66261
X398938Y61536
X395394Y60355
X400119Y56221
X408977Y55040
X420788Y52678
X451497Y50906
X374269Y64706
X373544Y68032
X363505Y57993
X365276Y54450
X341654Y41457
X288505Y46772
X286143Y60946
X290867Y63308
X288505Y73938
X291457Y75709
X287914Y79843
X251891Y73938
X248347Y73938
X225316Y78072
X220001Y72757
X202284Y75119
X198741Y69804
X191654Y62717
X175119Y64489
X122560Y62127
X112520Y56812
X191064Y87520
X251300Y62717
X235946Y59765
X389489Y10158
X145591Y123544
X80040Y161339
X59371Y164883
T02
X279056Y108190
X280828Y92835
T03
X377087Y120001
X377087Y124725
T04
X219961Y120906
X209961Y120906
X199961Y120906
X199961Y130906
X209961Y130906
X219961Y130906
X462127Y60158
X462127Y40473
T05
X153269Y50709
T06
X151300Y20788
X165080Y20788
X179253Y20788
X193032Y20788
X206812Y20788
X220591Y20788
X234371Y20788
X248150Y20788
X261930Y20788
X275709Y20788
X289489Y20788
X303269Y20788
X316851Y20788
X330631Y20788
X344410Y20788
X358190Y20788
X371969Y20788
X385749Y20788
X399528Y20788
X413308Y20788
X427087Y20788
X440867Y20788
X472757Y36536
X472757Y64095
X440867Y168426
X427087Y168426
X413308Y168426
X399528Y168426
X385749Y168426
X371969Y168426
X358190Y168426
X344410Y168426
X330631Y168426
X316851Y168426
X303269Y168426
X289489Y168426
X275709Y168426
X261930Y168426
X248150Y168426
X234371Y168426
X220591Y168426
X206812Y168426
X193032Y168426
X179253Y168426
X165080Y168426
X151300Y168426
X137520Y168426
X123741Y168426
X109961Y168426
X96182Y168426
X82402Y168426
X68623Y168426
X54843Y168426
X41064Y168426
X41064Y20788
X54843Y20788
X68623Y20788
X82402Y20788
X96182Y20788
X109961Y20788
X123741Y20788
X137520Y20788
T07
X153269Y133780
T08
X438812Y93426
X456812Y93426
T09
X15080Y19017
X15080Y170198
X466261Y170198
X466261Y19017
M30
