%
M48
M72
T01C0.01200
T02C0.01378
T03C0.01575
T04C0.03543
T05C0.04331
T06C0.04724
T07C0.06299
T08C0.12500
%
T01
X46379Y20198
X52875Y26694
X127284Y57402
X137324Y53859
X89489Y65080
X118426Y74528
X137324Y83977
X147954Y88702
X175119Y86339
X175119Y92835
X145001Y101103
X134371Y105828
X124922Y102284
X134371Y114095
X145001Y116457
X147363Y121182
X122560Y125316
X121379Y131221
X117245Y130631
X102481Y122954
X103072Y118820
X97757Y127678
X82402Y125316
X93623Y91064
X100119Y88702
X103662Y88702
X111339Y89292
X106024Y91064
X87127Y87520
X175119Y76300
X188702Y66261
X205828Y81024
X210552Y84568
X224135Y86339
X210552Y90473
X205828Y95198
X213505Y102875
X214686Y106418
X196379Y113505
X185158Y114686
X175119Y112324
X175119Y108780
X175119Y121182
X191654Y121182
X230040Y130631
X227678Y140080
X225316Y142442
X222954Y144804
X227678Y149528
X211733Y159568
X185158Y175513
X156812Y161339
X89489Y169017
X236536Y121772
X289095Y120591
X299135Y121772
X314489Y128859
X323938Y126497
X338702Y127087
X327481Y115867
X327481Y104056
X319804Y101694
X310946Y104646
X295001Y102284
X290276Y102875
X309765Y94607
X305040Y94017
X306812Y88111
X304450Y85749
X300906Y85749
X298544Y82796
X314489Y88111
X328662Y82796
X346969Y83387
X350513Y83387
X341654Y90473
X333977Y94607
X289686Y92245
X286143Y75709
X290867Y73347
X286143Y70985
X290867Y67442
X288505Y62717
X296772Y56812
X311536Y52087
X323347Y56812
X327481Y63308
X331024Y63308
X342245Y59174
X364686Y57993
X339883Y49135
X338702Y45591
X338702Y39686
X333977Y37324
X338702Y36143
X333977Y33780
X340473Y33190
X333977Y30237
X340473Y26103
X322166Y36143
X314489Y42048
X320985Y44410
X296772Y46772
X296772Y37914
X256615Y51497
X250709Y46182
X256024Y23150
X309765Y21969
X332206Y13111
X375906Y44410
X410749Y63308
X434371Y69213
X436143Y63898
X425513Y77481
X339292Y71576
X327481Y70985
X248938Y70985
X246576Y73347
X245985Y86930
X248938Y89883
X236536Y91064
X179843Y32599
X188702Y17245
X309765Y173150
X270198Y175513
T02
X294410Y158977
X302678Y124725
X333977Y111733
X313898Y95198
X281418Y107009
X256024Y108190
X238898Y106418
X224135Y108190
X276103Y94017
X335749Y75119
X364686Y72166
X400119Y85158
X436143Y47954
X181615Y81024
X153269Y78072
X137324Y73347
X152678Y63898
X144410Y55040
X126694Y49725
X142048Y30828
X165080Y31418
X113702Y71576
X105434Y73938
X77678Y73347
X78269Y99331
X142639Y93426
X151497Y94017
X143229Y160158
X93623Y160749
X402481Y159568
X430828Y159568
T03
X377087Y124725
X377087Y120001
T04
X462127Y64883
X462127Y45198
X219961Y120906
X209961Y120906
X199961Y120906
X199961Y130906
X209961Y130906
X219961Y130906
T05
X153269Y50709
T06
X151300Y20788
X137520Y20788
X123741Y20788
X109961Y20788
X96182Y20788
X82402Y20788
X68623Y20788
X54843Y20788
X41064Y20788
X165080Y20788
X179253Y20788
X193032Y20788
X206812Y20788
X220591Y20788
X234371Y20788
X248150Y20788
X261930Y20788
X275709Y20788
X289489Y20788
X303269Y20788
X316851Y20788
X330631Y20788
X344410Y20788
X358190Y20788
X371969Y20788
X385749Y20788
X399528Y20788
X413308Y20788
X427087Y20788
X440867Y20788
X472757Y41261
X472757Y68820
X440867Y168426
X427087Y168426
X413308Y168426
X399528Y168426
X385749Y168426
X371969Y168426
X358190Y168426
X344410Y168426
X330631Y168426
X316851Y168426
X303269Y168426
X289489Y168426
X275709Y168426
X261930Y168426
X248150Y168426
X234371Y168426
X220591Y168426
X206812Y168426
X193032Y168426
X179253Y168426
X165080Y168426
X151300Y168426
X137520Y168426
X123741Y168426
X109961Y168426
X96182Y168426
X82402Y168426
X68623Y168426
X54843Y168426
X41064Y168426
T07
X153269Y133780
T08
X15080Y19017
X15080Y170198
X466261Y170198
X466261Y19017
M30
