G75*
%MOIN*%
%OFA0B0*%
%FSLAX25Y25*%
%IPPOS*%
%LPD*%
%AMOC8*
5,1,8,0,0,1.08239X$1,22.5*
%
%ADD10C,0.00700*%
%ADD11C,0.00500*%
%ADD12C,0.00400*%
%ADD13R,0.03740X0.01969*%
%ADD14C,0.00300*%
%ADD15C,0.00800*%
%ADD16C,0.00600*%
%ADD17R,0.03400X0.01600*%
%ADD18R,0.01600X0.03400*%
%ADD19R,0.04050X0.02000*%
%ADD20R,0.04000X0.02000*%
%ADD21C,0.00010*%
%ADD22R,0.01969X0.03740*%
%ADD23R,0.05709X0.02953*%
%ADD24R,0.03543X0.06299*%
%ADD25R,0.01181X0.00984*%
%ADD26R,0.02953X0.05709*%
%ADD27R,0.06693X0.02953*%
%ADD28C,0.01000*%
%ADD29R,0.01969X0.00984*%
%ADD30R,0.00984X0.01969*%
%ADD31R,0.02500X0.01000*%
%ADD32C,0.00200*%
%ADD33R,0.02300X0.01800*%
%ADD34R,0.01800X0.02300*%
%ADD35R,0.02559X0.01969*%
%ADD36C,0.01200*%
D10*
X0028090Y0053681D02*
X0034396Y0053681D01*
X0034396Y0057885D01*
X0033345Y0060127D02*
X0034396Y0061178D01*
X0034396Y0063280D01*
X0033345Y0064331D01*
X0029141Y0064331D01*
X0028090Y0063280D01*
X0028090Y0061178D01*
X0029141Y0060127D01*
X0033345Y0060127D01*
X0033345Y0066572D02*
X0029141Y0066572D01*
X0028090Y0067623D01*
X0028090Y0069725D01*
X0029141Y0070776D01*
X0031243Y0070776D02*
X0031243Y0068674D01*
X0031243Y0070776D02*
X0033345Y0070776D01*
X0034396Y0069725D01*
X0034396Y0067623D01*
X0033345Y0066572D01*
X0033310Y0107595D02*
X0033310Y0110748D01*
X0032259Y0111798D01*
X0030157Y0111798D01*
X0029106Y0110748D01*
X0029106Y0107595D01*
X0035412Y0107595D01*
X0033310Y0109697D02*
X0035412Y0111798D01*
X0035412Y0114040D02*
X0035412Y0118244D01*
X0032259Y0116142D02*
X0032259Y0114040D01*
X0029106Y0114040D02*
X0035412Y0114040D01*
X0029106Y0114040D02*
X0029106Y0118244D01*
X0030157Y0120486D02*
X0029106Y0121537D01*
X0029106Y0123639D01*
X0030157Y0124689D01*
X0032259Y0123639D02*
X0033310Y0124689D01*
X0034361Y0124689D01*
X0035412Y0123639D01*
X0035412Y0121537D01*
X0034361Y0120486D01*
X0032259Y0121537D02*
X0032259Y0123639D01*
X0032259Y0121537D02*
X0031208Y0120486D01*
X0030157Y0120486D01*
X0029106Y0126931D02*
X0035412Y0126931D01*
X0035412Y0131135D01*
X0032259Y0129033D02*
X0032259Y0126931D01*
X0029106Y0126931D02*
X0029106Y0131135D01*
X0029106Y0133377D02*
X0029106Y0137580D01*
X0029106Y0135479D02*
X0035412Y0135479D01*
D11*
X0033190Y0007009D02*
X0031221Y0007009D01*
X0031221Y0034568D01*
X0033190Y0034568D01*
X0033190Y0007009D01*
X0172954Y0007009D01*
X0172954Y0034568D01*
X0033190Y0034568D01*
X0036490Y0038838D02*
X0038613Y0036715D01*
X0039674Y0036715D01*
X0040736Y0037776D01*
X0040736Y0038838D01*
X0039674Y0039900D01*
X0038613Y0038838D01*
X0036490Y0038838D02*
X0036490Y0039900D01*
X0037551Y0040961D01*
X0038613Y0040961D01*
X0039214Y0042624D02*
X0042399Y0039440D01*
X0044522Y0041563D02*
X0039214Y0042624D01*
X0041337Y0044747D02*
X0044522Y0041563D01*
X0045654Y0042695D02*
X0047247Y0044287D01*
X0047247Y0045349D01*
X0045124Y0047472D01*
X0044062Y0047472D01*
X0042470Y0045880D01*
X0045654Y0042695D01*
X0050490Y0039900D02*
X0051551Y0040961D01*
X0052613Y0040961D01*
X0053144Y0040430D01*
X0053144Y0039369D01*
X0054205Y0039369D01*
X0054736Y0038838D01*
X0054736Y0037776D01*
X0053674Y0036715D01*
X0052613Y0036715D01*
X0052613Y0038838D02*
X0053144Y0039369D01*
X0055337Y0040501D02*
X0053214Y0042624D01*
X0055337Y0040501D02*
X0057461Y0040501D01*
X0057461Y0042624D01*
X0055337Y0044747D01*
X0057001Y0045349D02*
X0057001Y0046410D01*
X0058062Y0047472D01*
X0059124Y0047472D01*
X0059654Y0046941D01*
X0059654Y0045880D01*
X0060716Y0045880D01*
X0061247Y0045349D01*
X0061247Y0044287D01*
X0060185Y0043226D01*
X0059124Y0043226D01*
X0059124Y0045349D02*
X0059654Y0045880D01*
X0067589Y0042999D02*
X0069712Y0040876D01*
X0071836Y0040876D01*
X0071836Y0042999D01*
X0069712Y0045122D01*
X0066457Y0041867D02*
X0064334Y0039744D01*
X0065926Y0038151D01*
X0066457Y0039744D01*
X0066988Y0040275D01*
X0068049Y0040275D01*
X0069111Y0039213D01*
X0069111Y0038151D01*
X0068049Y0037090D01*
X0066988Y0037090D01*
X0079020Y0038682D02*
X0081144Y0036559D01*
X0079551Y0038151D02*
X0081674Y0040275D01*
X0081144Y0040805D02*
X0083267Y0038682D01*
X0083868Y0040345D02*
X0083868Y0044592D01*
X0085991Y0042468D01*
X0085991Y0041407D01*
X0084930Y0040345D01*
X0083868Y0040345D01*
X0081745Y0042468D01*
X0081745Y0043530D01*
X0082807Y0044592D01*
X0083868Y0044592D01*
X0081144Y0040805D02*
X0079020Y0040805D01*
X0079020Y0038682D01*
X0091645Y0038682D02*
X0091645Y0040805D01*
X0093769Y0040805D01*
X0095892Y0038682D01*
X0097024Y0039815D02*
X0099147Y0041938D01*
X0098086Y0040876D02*
X0094901Y0044061D01*
X0094901Y0041938D01*
X0094299Y0040275D02*
X0092176Y0038151D01*
X0091645Y0038682D02*
X0093769Y0036559D01*
X0106490Y0038838D02*
X0106490Y0039900D01*
X0107551Y0040961D01*
X0108613Y0040961D01*
X0109674Y0039900D02*
X0108613Y0038838D01*
X0109674Y0039900D02*
X0110736Y0038838D01*
X0110736Y0037776D01*
X0109674Y0036715D01*
X0108613Y0036715D01*
X0106490Y0038838D01*
X0109214Y0042624D02*
X0112399Y0039440D01*
X0114522Y0041563D02*
X0109214Y0042624D01*
X0111337Y0044747D02*
X0114522Y0041563D01*
X0115654Y0042695D02*
X0117247Y0044287D01*
X0117247Y0045349D01*
X0115124Y0047472D01*
X0114062Y0047472D01*
X0112470Y0045880D01*
X0115654Y0042695D01*
X0120490Y0039900D02*
X0121551Y0040961D01*
X0122613Y0040961D01*
X0123144Y0040430D01*
X0123144Y0039369D01*
X0124205Y0039369D01*
X0124736Y0038838D01*
X0124736Y0037776D01*
X0123674Y0036715D01*
X0122613Y0036715D01*
X0122613Y0038838D02*
X0123144Y0039369D01*
X0125337Y0040501D02*
X0127461Y0040501D01*
X0127461Y0042624D01*
X0125337Y0044747D01*
X0127001Y0045349D02*
X0127001Y0046410D01*
X0128062Y0047472D01*
X0129124Y0047472D01*
X0129654Y0046941D01*
X0129654Y0045880D01*
X0130716Y0045880D01*
X0131247Y0045349D01*
X0131247Y0044287D01*
X0130185Y0043226D01*
X0129124Y0043226D01*
X0129124Y0045349D02*
X0129654Y0045880D01*
X0125337Y0040501D02*
X0123214Y0042624D01*
X0120490Y0039900D02*
X0120490Y0038838D01*
X0134334Y0039744D02*
X0135926Y0038151D01*
X0136457Y0039744D01*
X0136988Y0040275D01*
X0138049Y0040275D01*
X0139111Y0039213D01*
X0139111Y0038151D01*
X0138049Y0037090D01*
X0136988Y0037090D01*
X0134334Y0039744D02*
X0136457Y0041867D01*
X0137589Y0042999D02*
X0139712Y0040876D01*
X0141836Y0040876D01*
X0141836Y0042999D01*
X0139712Y0045122D01*
X0149020Y0040805D02*
X0151144Y0040805D01*
X0153267Y0038682D01*
X0154399Y0039815D02*
X0154399Y0044061D01*
X0153868Y0044592D01*
X0152807Y0044592D01*
X0151745Y0043530D01*
X0151745Y0042468D01*
X0151674Y0040275D02*
X0149551Y0038151D01*
X0149020Y0038682D02*
X0149020Y0040805D01*
X0154399Y0039815D02*
X0156522Y0041938D01*
X0161645Y0040805D02*
X0163769Y0040805D01*
X0165892Y0038682D01*
X0166493Y0040345D02*
X0167555Y0040345D01*
X0168616Y0041407D01*
X0168616Y0042468D01*
X0168086Y0042999D01*
X0167024Y0042999D01*
X0166493Y0042468D01*
X0167024Y0042999D02*
X0167024Y0044061D01*
X0166493Y0044592D01*
X0165432Y0044592D01*
X0164370Y0043530D01*
X0164370Y0042468D01*
X0164299Y0040275D02*
X0162176Y0038151D01*
X0161645Y0038682D02*
X0161645Y0040805D01*
X0161645Y0038682D02*
X0163769Y0036559D01*
X0169410Y0034568D02*
X0171379Y0034568D01*
X0171379Y0007009D01*
X0311143Y0007009D01*
X0311143Y0034568D01*
X0171379Y0034568D01*
X0169410Y0034568D02*
X0169410Y0007009D01*
X0171379Y0007009D01*
X0178613Y0036715D02*
X0179674Y0036715D01*
X0180736Y0037776D01*
X0180736Y0038838D01*
X0179674Y0039900D01*
X0178613Y0038838D01*
X0176490Y0038838D02*
X0178613Y0036715D01*
X0176490Y0038838D02*
X0176490Y0039900D01*
X0177551Y0040961D01*
X0178613Y0040961D01*
X0179214Y0042624D02*
X0184522Y0041563D01*
X0181337Y0044747D01*
X0182470Y0045880D02*
X0184062Y0047472D01*
X0185124Y0047472D01*
X0187247Y0045349D01*
X0187247Y0044287D01*
X0185654Y0042695D01*
X0182470Y0045880D01*
X0179214Y0042624D02*
X0182399Y0039440D01*
X0190490Y0039900D02*
X0190490Y0038838D01*
X0190490Y0039900D02*
X0191551Y0040961D01*
X0192613Y0040961D01*
X0193144Y0040430D01*
X0193144Y0039369D01*
X0194205Y0039369D01*
X0194736Y0038838D01*
X0194736Y0037776D01*
X0193674Y0036715D01*
X0192613Y0036715D01*
X0192613Y0038838D02*
X0193144Y0039369D01*
X0195337Y0040501D02*
X0197461Y0040501D01*
X0197461Y0042624D01*
X0195337Y0044747D01*
X0197001Y0045349D02*
X0197001Y0046410D01*
X0198062Y0047472D01*
X0199124Y0047472D01*
X0199654Y0046941D01*
X0199654Y0045880D01*
X0200716Y0045880D01*
X0201247Y0045349D01*
X0201247Y0044287D01*
X0200185Y0043226D01*
X0199124Y0043226D01*
X0199124Y0045349D02*
X0199654Y0045880D01*
X0195337Y0040501D02*
X0193214Y0042624D01*
X0204334Y0039744D02*
X0205926Y0038151D01*
X0206457Y0039744D01*
X0206988Y0040275D01*
X0208049Y0040275D01*
X0209111Y0039213D01*
X0209111Y0038151D01*
X0208049Y0037090D01*
X0206988Y0037090D01*
X0204334Y0039744D02*
X0206457Y0041867D01*
X0207589Y0042999D02*
X0209712Y0040876D01*
X0211836Y0040876D01*
X0211836Y0042999D01*
X0209712Y0045122D01*
X0219020Y0040805D02*
X0221144Y0040805D01*
X0223267Y0038682D01*
X0221674Y0040275D02*
X0219551Y0038151D01*
X0219020Y0038682D02*
X0219020Y0040805D01*
X0222807Y0041407D02*
X0224930Y0043530D01*
X0225991Y0041407D02*
X0222807Y0044592D01*
X0222807Y0041407D01*
X0219020Y0038682D02*
X0221144Y0036559D01*
X0231645Y0038682D02*
X0233769Y0036559D01*
X0232176Y0038151D02*
X0234299Y0040275D01*
X0233769Y0040805D02*
X0235892Y0038682D01*
X0236493Y0040345D02*
X0237555Y0040345D01*
X0238616Y0041407D01*
X0238616Y0042468D01*
X0237555Y0043530D01*
X0236493Y0043530D01*
X0235962Y0042999D01*
X0235432Y0041407D01*
X0233839Y0042999D01*
X0235962Y0045122D01*
X0233769Y0040805D02*
X0231645Y0040805D01*
X0231645Y0038682D01*
X0246490Y0038838D02*
X0248613Y0036715D01*
X0249674Y0036715D01*
X0250736Y0037776D01*
X0250736Y0038838D01*
X0249674Y0039900D01*
X0248613Y0038838D01*
X0246490Y0038838D02*
X0246490Y0039900D01*
X0247551Y0040961D01*
X0248613Y0040961D01*
X0249214Y0042624D02*
X0254522Y0041563D01*
X0251337Y0044747D01*
X0252470Y0045880D02*
X0254062Y0047472D01*
X0255124Y0047472D01*
X0257247Y0045349D01*
X0257247Y0044287D01*
X0255654Y0042695D01*
X0252470Y0045880D01*
X0249214Y0042624D02*
X0252399Y0039440D01*
X0260490Y0039900D02*
X0260490Y0038838D01*
X0260490Y0039900D02*
X0261551Y0040961D01*
X0262613Y0040961D01*
X0263144Y0040430D01*
X0263144Y0039369D01*
X0264205Y0039369D01*
X0264736Y0038838D01*
X0264736Y0037776D01*
X0263674Y0036715D01*
X0262613Y0036715D01*
X0262613Y0038838D02*
X0263144Y0039369D01*
X0265337Y0040501D02*
X0263214Y0042624D01*
X0265337Y0040501D02*
X0267461Y0040501D01*
X0267461Y0042624D01*
X0265337Y0044747D01*
X0267001Y0045349D02*
X0267001Y0046410D01*
X0268062Y0047472D01*
X0269124Y0047472D01*
X0269654Y0046941D01*
X0269654Y0045880D01*
X0270716Y0045880D01*
X0271247Y0045349D01*
X0271247Y0044287D01*
X0270185Y0043226D01*
X0269124Y0043226D01*
X0269124Y0045349D02*
X0269654Y0045880D01*
X0277589Y0042999D02*
X0279712Y0040876D01*
X0281836Y0040876D01*
X0281836Y0042999D01*
X0279712Y0045122D01*
X0276457Y0041867D02*
X0274334Y0039744D01*
X0275926Y0038151D01*
X0276457Y0039744D01*
X0276988Y0040275D01*
X0278049Y0040275D01*
X0279111Y0039213D01*
X0279111Y0038151D01*
X0278049Y0037090D01*
X0276988Y0037090D01*
X0289020Y0038682D02*
X0291144Y0036559D01*
X0289551Y0038151D02*
X0291674Y0040275D01*
X0291144Y0040805D02*
X0293267Y0038682D01*
X0293868Y0040345D02*
X0294930Y0040345D01*
X0295991Y0041407D01*
X0295991Y0042468D01*
X0295461Y0042999D01*
X0294399Y0042999D01*
X0292807Y0041407D01*
X0293868Y0040345D01*
X0292807Y0041407D02*
X0292807Y0043530D01*
X0293337Y0045122D01*
X0291144Y0040805D02*
X0289020Y0040805D01*
X0289020Y0038682D01*
X0301645Y0038682D02*
X0301645Y0040805D01*
X0303769Y0040805D01*
X0305892Y0038682D01*
X0307024Y0039815D02*
X0306493Y0040345D01*
X0306493Y0044592D01*
X0305962Y0045122D01*
X0303839Y0042999D01*
X0304299Y0040275D02*
X0302176Y0038151D01*
X0301645Y0038682D02*
X0303769Y0036559D01*
X0307009Y0034568D02*
X0308977Y0034568D01*
X0308977Y0007009D01*
X0448741Y0007009D01*
X0448741Y0034568D01*
X0308977Y0034568D01*
X0307009Y0034568D02*
X0307009Y0007009D01*
X0308977Y0007009D01*
X0317144Y0037184D02*
X0313959Y0040369D01*
X0315551Y0041961D01*
X0316613Y0041961D01*
X0317674Y0040900D01*
X0317674Y0039838D01*
X0316082Y0038246D01*
X0317144Y0039307D02*
X0319267Y0039307D01*
X0320399Y0040440D02*
X0319337Y0045747D01*
X0317214Y0043624D02*
X0322522Y0042563D01*
X0323654Y0043695D02*
X0322593Y0049003D01*
X0323725Y0050135D02*
X0324787Y0051197D01*
X0324256Y0050666D02*
X0327441Y0047481D01*
X0326910Y0046950D02*
X0327971Y0048012D01*
X0329080Y0049121D02*
X0325895Y0052305D01*
X0331203Y0051244D01*
X0328019Y0054429D01*
X0329151Y0055561D02*
X0331274Y0057684D01*
X0330213Y0056622D02*
X0333397Y0053438D01*
X0337725Y0050135D02*
X0338787Y0051197D01*
X0338256Y0050666D02*
X0341441Y0047481D01*
X0340910Y0046950D02*
X0341971Y0048012D01*
X0343080Y0049121D02*
X0339895Y0052305D01*
X0345203Y0051244D01*
X0342019Y0054429D01*
X0343151Y0055561D02*
X0345274Y0057684D01*
X0344213Y0056622D02*
X0347397Y0053438D01*
X0352100Y0051572D02*
X0354223Y0051572D01*
X0354223Y0052633D01*
X0352100Y0051572D02*
X0352100Y0050510D01*
X0351499Y0048847D02*
X0350437Y0048847D01*
X0349376Y0047785D01*
X0349376Y0046724D01*
X0351499Y0048847D02*
X0352029Y0048316D01*
X0352029Y0044070D01*
X0354153Y0046193D01*
X0350897Y0042938D02*
X0348774Y0040815D01*
X0349836Y0041876D02*
X0346651Y0045061D01*
X0346651Y0042938D01*
X0344988Y0042336D02*
X0343926Y0042336D01*
X0342334Y0040744D01*
X0345519Y0037559D01*
X0347111Y0039151D01*
X0347111Y0040213D01*
X0344988Y0042336D01*
X0337654Y0043695D02*
X0336593Y0049003D01*
X0333337Y0045747D02*
X0334399Y0040440D01*
X0336522Y0042563D02*
X0331214Y0043624D01*
X0330082Y0042492D02*
X0327959Y0040369D01*
X0329020Y0041430D02*
X0332205Y0038246D01*
X0355959Y0040744D02*
X0357551Y0042336D01*
X0358613Y0042336D01*
X0360736Y0040213D01*
X0360736Y0039151D01*
X0359144Y0037559D01*
X0355959Y0040744D01*
X0360276Y0042938D02*
X0360276Y0045061D01*
X0363461Y0041876D01*
X0362399Y0040815D02*
X0364522Y0042938D01*
X0365124Y0044601D02*
X0366185Y0044601D01*
X0367247Y0045662D01*
X0367247Y0046724D01*
X0366716Y0047255D01*
X0365654Y0047255D01*
X0365124Y0046724D01*
X0365654Y0047255D02*
X0365654Y0048316D01*
X0365124Y0048847D01*
X0364062Y0048847D01*
X0363001Y0047785D01*
X0363001Y0046724D01*
X0365725Y0050510D02*
X0365725Y0051572D01*
X0367848Y0051572D01*
X0367848Y0052633D01*
X0375095Y0047255D02*
X0376687Y0048847D01*
X0377749Y0048847D01*
X0379872Y0046724D01*
X0379872Y0045662D01*
X0378279Y0044070D01*
X0375095Y0047255D01*
X0373962Y0046122D02*
X0377147Y0042938D01*
X0371839Y0043999D01*
X0375024Y0040815D01*
X0373361Y0040213D02*
X0372299Y0041275D01*
X0371238Y0040213D01*
X0373361Y0040213D02*
X0373361Y0039151D01*
X0372299Y0038090D01*
X0371238Y0038090D01*
X0369115Y0040213D01*
X0369115Y0041275D01*
X0370176Y0042336D01*
X0371238Y0042336D01*
X0384490Y0040900D02*
X0384490Y0039838D01*
X0384490Y0040900D02*
X0385551Y0041961D01*
X0386613Y0041961D01*
X0387144Y0041430D01*
X0387144Y0040369D01*
X0388205Y0040369D01*
X0388736Y0039838D01*
X0388736Y0038776D01*
X0387674Y0037715D01*
X0386613Y0037715D01*
X0386613Y0039838D02*
X0387144Y0040369D01*
X0389337Y0041501D02*
X0391461Y0041501D01*
X0391461Y0043624D01*
X0389337Y0045747D01*
X0391001Y0046349D02*
X0391001Y0047410D01*
X0392062Y0048472D01*
X0393124Y0048472D01*
X0393654Y0047941D01*
X0393654Y0046880D01*
X0394716Y0046880D01*
X0395247Y0046349D01*
X0395247Y0045287D01*
X0394185Y0044226D01*
X0393124Y0044226D01*
X0389337Y0041501D02*
X0387214Y0043624D01*
X0393124Y0046349D02*
X0393654Y0046880D01*
X0401214Y0043624D02*
X0403337Y0041501D01*
X0405461Y0041501D01*
X0405461Y0043624D01*
X0403337Y0045747D01*
X0400082Y0042492D02*
X0397959Y0040369D01*
X0399551Y0038776D01*
X0400082Y0040369D01*
X0400613Y0040900D01*
X0401674Y0040900D01*
X0402736Y0039838D01*
X0402736Y0038776D01*
X0401674Y0037715D01*
X0400613Y0037715D01*
X0412334Y0040744D02*
X0413926Y0042336D01*
X0414988Y0042336D01*
X0417111Y0040213D01*
X0417111Y0039151D01*
X0415519Y0037559D01*
X0412334Y0040744D01*
X0416651Y0045061D02*
X0419836Y0041876D01*
X0418774Y0040815D02*
X0420897Y0042938D01*
X0420437Y0045662D02*
X0422560Y0047785D01*
X0423622Y0045662D02*
X0420437Y0048847D01*
X0420437Y0045662D01*
X0416651Y0045061D02*
X0416651Y0042938D01*
X0426490Y0041275D02*
X0426490Y0040213D01*
X0427020Y0039682D01*
X0428082Y0039682D01*
X0429144Y0040744D01*
X0430205Y0040744D01*
X0430736Y0040213D01*
X0430736Y0039151D01*
X0429674Y0038090D01*
X0428613Y0038090D01*
X0426490Y0041275D02*
X0427551Y0042336D01*
X0428613Y0042336D01*
X0429745Y0043468D02*
X0431868Y0041345D01*
X0432930Y0041345D01*
X0433991Y0042407D01*
X0433991Y0043468D01*
X0435654Y0044070D02*
X0437778Y0046193D01*
X0435654Y0044070D02*
X0432470Y0047255D01*
X0431868Y0045592D02*
X0430807Y0045592D01*
X0429745Y0044530D01*
X0429745Y0043468D01*
X0439115Y0041275D02*
X0439115Y0040213D01*
X0439645Y0039682D01*
X0440707Y0039682D01*
X0441769Y0040744D01*
X0442830Y0040744D01*
X0443361Y0040213D01*
X0443361Y0039151D01*
X0442299Y0038090D01*
X0441238Y0038090D01*
X0439115Y0041275D02*
X0440176Y0042336D01*
X0441238Y0042336D01*
X0441839Y0043999D02*
X0443432Y0045592D01*
X0444493Y0045592D01*
X0446616Y0043468D01*
X0446616Y0042407D01*
X0445024Y0040815D01*
X0441839Y0043999D01*
X0446156Y0046193D02*
X0446156Y0048316D01*
X0448279Y0048316D01*
X0450403Y0046193D01*
X0448810Y0047785D02*
X0446687Y0045662D01*
X0446156Y0046193D02*
X0448279Y0044070D01*
X0461536Y0041261D02*
X0461536Y0068820D01*
X0461930Y0068820D02*
X0467835Y0068820D01*
X0477678Y0068820D02*
X0481024Y0068820D01*
X0481221Y0068820D01*
X0481024Y0067244D02*
X0481134Y0067246D01*
X0481244Y0067252D01*
X0481353Y0067261D01*
X0481462Y0067275D01*
X0481571Y0067292D01*
X0481679Y0067313D01*
X0481786Y0067338D01*
X0481892Y0067366D01*
X0481997Y0067398D01*
X0482101Y0067434D01*
X0482204Y0067473D01*
X0482305Y0067516D01*
X0482405Y0067563D01*
X0482503Y0067613D01*
X0482599Y0067666D01*
X0482693Y0067723D01*
X0482785Y0067783D01*
X0482876Y0067846D01*
X0482963Y0067912D01*
X0483049Y0067981D01*
X0483132Y0068053D01*
X0483212Y0068128D01*
X0483290Y0068206D01*
X0483365Y0068286D01*
X0483437Y0068369D01*
X0483506Y0068455D01*
X0483572Y0068542D01*
X0483635Y0068633D01*
X0483695Y0068725D01*
X0483752Y0068819D01*
X0483805Y0068915D01*
X0483855Y0069013D01*
X0483902Y0069113D01*
X0483945Y0069214D01*
X0483984Y0069317D01*
X0484020Y0069421D01*
X0484052Y0069526D01*
X0484080Y0069632D01*
X0484105Y0069739D01*
X0484126Y0069847D01*
X0484143Y0069956D01*
X0484157Y0070065D01*
X0484166Y0070174D01*
X0484172Y0070284D01*
X0484174Y0070394D01*
X0482993Y0070788D01*
X0482991Y0070702D01*
X0482986Y0070616D01*
X0482976Y0070531D01*
X0482963Y0070446D01*
X0482946Y0070362D01*
X0482926Y0070278D01*
X0482902Y0070196D01*
X0482874Y0070115D01*
X0482843Y0070034D01*
X0482809Y0069956D01*
X0482771Y0069879D01*
X0482729Y0069804D01*
X0482685Y0069730D01*
X0482637Y0069659D01*
X0482586Y0069589D01*
X0482532Y0069522D01*
X0482476Y0069458D01*
X0482416Y0069396D01*
X0482354Y0069336D01*
X0482290Y0069280D01*
X0482223Y0069226D01*
X0482153Y0069175D01*
X0482082Y0069127D01*
X0482009Y0069083D01*
X0481933Y0069041D01*
X0481856Y0069003D01*
X0481778Y0068969D01*
X0481697Y0068938D01*
X0481616Y0068910D01*
X0481534Y0068886D01*
X0481450Y0068866D01*
X0481366Y0068849D01*
X0481281Y0068836D01*
X0481196Y0068826D01*
X0481110Y0068821D01*
X0481024Y0068819D01*
X0481024Y0067245D02*
X0479843Y0067245D01*
X0479843Y0066064D01*
X0479920Y0066062D01*
X0479997Y0066056D01*
X0480074Y0066047D01*
X0480150Y0066034D01*
X0480226Y0066017D01*
X0480300Y0065996D01*
X0480374Y0065972D01*
X0480446Y0065944D01*
X0480516Y0065913D01*
X0480585Y0065878D01*
X0480653Y0065840D01*
X0480718Y0065799D01*
X0480781Y0065754D01*
X0480842Y0065706D01*
X0480901Y0065656D01*
X0480957Y0065603D01*
X0481010Y0065547D01*
X0481060Y0065488D01*
X0481108Y0065427D01*
X0481153Y0065364D01*
X0481194Y0065299D01*
X0481232Y0065231D01*
X0481267Y0065162D01*
X0481298Y0065092D01*
X0481326Y0065020D01*
X0481350Y0064946D01*
X0481371Y0064872D01*
X0481388Y0064796D01*
X0481401Y0064720D01*
X0481410Y0064643D01*
X0481416Y0064566D01*
X0481418Y0064489D01*
X0481418Y0063702D01*
X0481418Y0064095D02*
X0481418Y0045591D01*
X0481416Y0045514D01*
X0481410Y0045437D01*
X0481401Y0045360D01*
X0481388Y0045284D01*
X0481371Y0045208D01*
X0481350Y0045134D01*
X0481326Y0045060D01*
X0481298Y0044988D01*
X0481267Y0044918D01*
X0481232Y0044849D01*
X0481194Y0044781D01*
X0481153Y0044716D01*
X0481108Y0044653D01*
X0481060Y0044592D01*
X0481010Y0044533D01*
X0480957Y0044477D01*
X0480901Y0044424D01*
X0480842Y0044374D01*
X0480781Y0044326D01*
X0480718Y0044281D01*
X0480653Y0044240D01*
X0480585Y0044202D01*
X0480516Y0044167D01*
X0480446Y0044136D01*
X0480374Y0044108D01*
X0480300Y0044084D01*
X0480226Y0044063D01*
X0480150Y0044046D01*
X0480074Y0044033D01*
X0479997Y0044024D01*
X0479920Y0044018D01*
X0479843Y0044016D01*
X0479843Y0044017D02*
X0479843Y0042835D01*
X0481024Y0042835D01*
X0481024Y0041261D02*
X0477678Y0041261D01*
X0481024Y0041261D02*
X0481221Y0041261D01*
X0481024Y0042836D02*
X0481134Y0042834D01*
X0481244Y0042828D01*
X0481353Y0042819D01*
X0481462Y0042805D01*
X0481571Y0042788D01*
X0481679Y0042767D01*
X0481786Y0042742D01*
X0481892Y0042714D01*
X0481997Y0042682D01*
X0482101Y0042646D01*
X0482204Y0042607D01*
X0482305Y0042564D01*
X0482405Y0042517D01*
X0482503Y0042467D01*
X0482599Y0042414D01*
X0482693Y0042357D01*
X0482785Y0042297D01*
X0482876Y0042234D01*
X0482963Y0042168D01*
X0483049Y0042099D01*
X0483132Y0042027D01*
X0483212Y0041952D01*
X0483290Y0041874D01*
X0483365Y0041794D01*
X0483437Y0041711D01*
X0483506Y0041625D01*
X0483572Y0041538D01*
X0483635Y0041447D01*
X0483695Y0041355D01*
X0483752Y0041261D01*
X0483805Y0041165D01*
X0483855Y0041067D01*
X0483902Y0040967D01*
X0483945Y0040866D01*
X0483984Y0040763D01*
X0484020Y0040659D01*
X0484052Y0040554D01*
X0484080Y0040448D01*
X0484105Y0040341D01*
X0484126Y0040233D01*
X0484143Y0040124D01*
X0484157Y0040015D01*
X0484166Y0039906D01*
X0484172Y0039796D01*
X0484174Y0039686D01*
X0482993Y0039292D01*
X0482991Y0039378D01*
X0482986Y0039464D01*
X0482976Y0039549D01*
X0482963Y0039634D01*
X0482946Y0039718D01*
X0482926Y0039802D01*
X0482902Y0039884D01*
X0482874Y0039965D01*
X0482843Y0040046D01*
X0482809Y0040124D01*
X0482771Y0040201D01*
X0482729Y0040277D01*
X0482685Y0040350D01*
X0482637Y0040421D01*
X0482586Y0040491D01*
X0482532Y0040558D01*
X0482476Y0040622D01*
X0482416Y0040684D01*
X0482354Y0040744D01*
X0482290Y0040800D01*
X0482223Y0040854D01*
X0482153Y0040905D01*
X0482082Y0040953D01*
X0482009Y0040997D01*
X0481933Y0041039D01*
X0481856Y0041077D01*
X0481778Y0041111D01*
X0481697Y0041142D01*
X0481616Y0041170D01*
X0481534Y0041194D01*
X0481450Y0041214D01*
X0481366Y0041231D01*
X0481281Y0041244D01*
X0481196Y0041254D01*
X0481110Y0041259D01*
X0481024Y0041261D01*
X0467835Y0041261D02*
X0461930Y0041261D01*
X0478465Y0034371D02*
X0478465Y0072757D01*
X0430560Y0072828D02*
X0430560Y0070859D01*
X0430560Y0072828D02*
X0428591Y0072828D01*
X0416780Y0072828D02*
X0414812Y0072828D01*
X0414812Y0070859D01*
X0414812Y0059048D02*
X0414812Y0057080D01*
X0416780Y0057080D01*
X0424223Y0052633D02*
X0424223Y0051572D01*
X0422100Y0051572D01*
X0422100Y0050510D01*
X0428591Y0057080D02*
X0430560Y0057080D01*
X0430560Y0059048D01*
X0351714Y0057755D02*
X0349591Y0055632D01*
X0350653Y0056693D02*
X0347468Y0059878D01*
X0347468Y0057755D01*
X0337183Y0058286D02*
X0337183Y0057224D01*
X0336122Y0056162D01*
X0335060Y0056162D01*
X0335060Y0060409D01*
X0337183Y0058286D01*
X0335060Y0060409D02*
X0333999Y0060409D01*
X0332937Y0059347D01*
X0332937Y0058286D01*
X0335060Y0056162D01*
X0367087Y0093465D02*
X0387087Y0093465D01*
X0387087Y0113465D01*
X0367087Y0113465D01*
X0367087Y0093465D01*
X0370493Y0115769D02*
X0371812Y0115769D01*
X0370887Y0116162D02*
X0383288Y0116162D01*
X0383288Y0128564D01*
X0370887Y0128564D01*
X0370887Y0116162D01*
X0370493Y0115769D02*
X0370493Y0117087D01*
X0382363Y0115769D02*
X0383682Y0115769D01*
X0383682Y0117087D01*
X0383682Y0127639D02*
X0383682Y0128957D01*
X0382363Y0128957D01*
X0371812Y0128957D02*
X0370493Y0128957D01*
X0370493Y0127639D01*
X0388028Y0138909D02*
X0390151Y0136786D01*
X0388559Y0138378D02*
X0390682Y0140502D01*
X0390151Y0141032D02*
X0392274Y0138909D01*
X0393407Y0140042D02*
X0394999Y0141634D01*
X0394999Y0142695D01*
X0392876Y0144819D01*
X0391814Y0144819D01*
X0390222Y0143226D01*
X0393407Y0140042D01*
X0390151Y0141032D02*
X0388028Y0141032D01*
X0388028Y0138909D01*
X0381999Y0141634D02*
X0381999Y0142695D01*
X0379876Y0144819D01*
X0378814Y0144819D01*
X0377222Y0143226D01*
X0380407Y0140042D01*
X0381999Y0141634D01*
X0383131Y0143828D02*
X0384193Y0143828D01*
X0385255Y0144889D01*
X0385255Y0145951D01*
X0384724Y0146482D01*
X0383662Y0146482D01*
X0383131Y0145951D01*
X0383662Y0146482D02*
X0383662Y0147543D01*
X0383131Y0148074D01*
X0382070Y0148074D01*
X0381008Y0147012D01*
X0381008Y0145951D01*
X0372979Y0147239D02*
X0372979Y0149362D01*
X0370856Y0151485D01*
X0368733Y0149362D02*
X0370856Y0147239D01*
X0372979Y0147239D01*
X0370255Y0145576D02*
X0370255Y0144514D01*
X0369193Y0143453D01*
X0368131Y0143453D01*
X0367070Y0144514D02*
X0367601Y0146107D01*
X0368131Y0146637D01*
X0369193Y0146637D01*
X0370255Y0145576D01*
X0367070Y0144514D02*
X0365477Y0146107D01*
X0367601Y0148230D01*
X0359885Y0147770D02*
X0358823Y0146708D01*
X0357762Y0146708D01*
X0356099Y0146107D02*
X0353976Y0148230D01*
X0355639Y0148831D02*
X0355639Y0149893D01*
X0356700Y0150955D01*
X0357762Y0150955D01*
X0358293Y0150424D01*
X0358293Y0149362D01*
X0359354Y0149362D01*
X0359885Y0148831D01*
X0359885Y0147770D01*
X0358293Y0149362D02*
X0357762Y0148831D01*
X0356099Y0146107D02*
X0356099Y0143984D01*
X0353976Y0143984D01*
X0351852Y0146107D01*
X0351251Y0144444D02*
X0351782Y0143913D01*
X0351782Y0142851D01*
X0352843Y0142851D01*
X0353374Y0142320D01*
X0353374Y0141259D01*
X0352312Y0140197D01*
X0351251Y0140197D01*
X0351251Y0142320D02*
X0351782Y0142851D01*
X0351251Y0144444D02*
X0350189Y0144444D01*
X0349128Y0143382D01*
X0349128Y0142320D01*
X0345135Y0147770D02*
X0343543Y0146177D01*
X0340358Y0149362D01*
X0341950Y0150955D01*
X0343012Y0150955D01*
X0345135Y0148831D01*
X0345135Y0147770D01*
X0342410Y0145045D02*
X0339226Y0148230D01*
X0337102Y0146107D02*
X0342410Y0145045D01*
X0340287Y0142922D02*
X0337102Y0146107D01*
X0336501Y0144444D02*
X0335439Y0144444D01*
X0334378Y0143382D01*
X0334378Y0142320D01*
X0336501Y0140197D01*
X0337562Y0140197D01*
X0338624Y0141259D01*
X0338624Y0142320D01*
X0337562Y0143382D01*
X0336501Y0142320D01*
X0330254Y0144889D02*
X0327070Y0148074D01*
X0327070Y0144889D01*
X0329193Y0147012D01*
X0328733Y0149737D02*
X0328733Y0150799D01*
X0330856Y0150799D01*
X0330856Y0151860D01*
X0319064Y0148699D02*
X0318003Y0147638D01*
X0318534Y0148168D02*
X0315349Y0151353D01*
X0314818Y0150822D02*
X0315880Y0151884D01*
X0314217Y0149159D02*
X0313155Y0149159D01*
X0312093Y0148098D01*
X0312093Y0147036D01*
X0312624Y0146505D01*
X0313686Y0146505D01*
X0314747Y0147567D01*
X0315809Y0147567D01*
X0316340Y0147036D01*
X0316340Y0145974D01*
X0315278Y0144913D01*
X0314217Y0144913D01*
X0313084Y0143781D02*
X0310961Y0145904D01*
X0309900Y0145904D01*
X0308838Y0144842D01*
X0308838Y0143781D01*
X0310961Y0141657D01*
X0312023Y0141657D01*
X0313084Y0142719D01*
X0313084Y0143781D01*
X0321090Y0142094D02*
X0322151Y0136786D01*
X0320488Y0136184D02*
X0320488Y0135123D01*
X0319427Y0134061D01*
X0318365Y0134061D01*
X0317233Y0132929D02*
X0317233Y0131867D01*
X0316171Y0130806D01*
X0315109Y0130806D01*
X0314579Y0132398D02*
X0315640Y0133460D01*
X0316702Y0133460D01*
X0317233Y0132929D01*
X0314579Y0132398D02*
X0313517Y0132398D01*
X0312986Y0132929D01*
X0312986Y0133991D01*
X0314048Y0135052D01*
X0315109Y0135052D01*
X0316242Y0136184D02*
X0316773Y0135654D01*
X0317834Y0135654D01*
X0318896Y0136715D01*
X0319957Y0136715D01*
X0320488Y0136184D01*
X0318365Y0138308D02*
X0317303Y0138308D01*
X0316242Y0137246D01*
X0316242Y0136184D01*
X0308236Y0137871D02*
X0305052Y0141056D01*
X0307175Y0141056D01*
X0307175Y0143179D01*
X0310360Y0139994D01*
X0300254Y0144514D02*
X0299193Y0143453D01*
X0298131Y0143453D01*
X0297601Y0145045D02*
X0298662Y0146107D01*
X0299724Y0146107D01*
X0300254Y0145576D01*
X0300254Y0144514D01*
X0297601Y0145045D02*
X0296539Y0145045D01*
X0296008Y0145576D01*
X0296008Y0146637D01*
X0297070Y0147699D01*
X0298131Y0147699D01*
X0299264Y0148831D02*
X0301387Y0146708D01*
X0302448Y0146708D01*
X0303510Y0147770D01*
X0303510Y0148831D01*
X0301387Y0150954D01*
X0300325Y0150954D01*
X0299264Y0149893D01*
X0299264Y0148831D01*
X0294369Y0144998D02*
X0293307Y0143936D01*
X0293838Y0144467D02*
X0297023Y0141282D01*
X0296492Y0140752D02*
X0297553Y0141813D01*
X0295360Y0139619D02*
X0292175Y0142804D01*
X0292175Y0140681D01*
X0290052Y0140681D01*
X0293236Y0137496D01*
X0288465Y0137087D02*
X0268465Y0137087D01*
X0268465Y0117087D01*
X0270965Y0117087D01*
X0288465Y0117087D01*
X0288465Y0137087D01*
X0283374Y0141259D02*
X0282312Y0140197D01*
X0281251Y0140197D01*
X0280720Y0141790D02*
X0281782Y0142851D01*
X0282843Y0142851D01*
X0283374Y0142320D01*
X0283374Y0141259D01*
X0284506Y0143453D02*
X0285568Y0143453D01*
X0286630Y0144514D01*
X0286630Y0145576D01*
X0288293Y0146177D02*
X0285108Y0149362D01*
X0284506Y0147699D02*
X0283445Y0147699D01*
X0282383Y0146637D01*
X0282383Y0145576D01*
X0284506Y0143453D01*
X0281251Y0144444D02*
X0280189Y0144444D01*
X0279128Y0143382D01*
X0279128Y0142320D01*
X0279659Y0141790D01*
X0280720Y0141790D01*
X0274880Y0144514D02*
X0273818Y0143453D01*
X0272756Y0143453D01*
X0271695Y0144514D02*
X0272226Y0146107D01*
X0272756Y0146637D01*
X0273818Y0146637D01*
X0274880Y0145576D01*
X0274880Y0144514D01*
X0271695Y0144514D02*
X0270102Y0146107D01*
X0272226Y0148230D01*
X0273358Y0149362D02*
X0275481Y0147239D01*
X0277604Y0147239D01*
X0277604Y0149362D01*
X0275481Y0151485D01*
X0266510Y0149206D02*
X0266510Y0148145D01*
X0265448Y0147083D01*
X0264387Y0147083D01*
X0262724Y0146482D02*
X0260601Y0148605D01*
X0262264Y0149206D02*
X0262264Y0150268D01*
X0263325Y0151330D01*
X0264387Y0151330D01*
X0264918Y0150799D01*
X0264918Y0149737D01*
X0265979Y0149737D01*
X0266510Y0149206D01*
X0264918Y0149737D02*
X0264387Y0149206D01*
X0262724Y0146482D02*
X0262724Y0144359D01*
X0260601Y0144359D01*
X0258477Y0146482D01*
X0257876Y0144819D02*
X0258407Y0144288D01*
X0258407Y0143226D01*
X0259468Y0143226D01*
X0259999Y0142695D01*
X0259999Y0141634D01*
X0258937Y0140572D01*
X0257876Y0140572D01*
X0257876Y0142695D02*
X0258407Y0143226D01*
X0257876Y0144819D02*
X0256814Y0144819D01*
X0255753Y0143757D01*
X0255753Y0142695D01*
X0248785Y0145420D02*
X0245601Y0148605D01*
X0246733Y0149737D02*
X0248325Y0151330D01*
X0249387Y0151330D01*
X0251510Y0149206D01*
X0251510Y0148145D01*
X0249918Y0146552D01*
X0246733Y0149737D01*
X0243477Y0146482D02*
X0248785Y0145420D01*
X0246662Y0143297D02*
X0243477Y0146482D01*
X0242876Y0144819D02*
X0241814Y0144819D01*
X0240753Y0143757D01*
X0240753Y0142695D01*
X0242876Y0140572D01*
X0243937Y0140572D01*
X0244999Y0141634D01*
X0244999Y0142695D01*
X0243937Y0143757D01*
X0242876Y0142695D01*
X0233785Y0145045D02*
X0231662Y0147168D01*
X0229539Y0147168D01*
X0229539Y0145045D01*
X0231662Y0142922D01*
X0230070Y0144514D02*
X0232193Y0146637D01*
X0233856Y0147239D02*
X0233856Y0148301D01*
X0234918Y0149362D01*
X0235979Y0149362D01*
X0236510Y0148831D01*
X0236510Y0147770D01*
X0235448Y0146708D01*
X0234387Y0146708D01*
X0233856Y0147239D01*
X0233856Y0148301D02*
X0232795Y0148301D01*
X0232264Y0148831D01*
X0232264Y0149893D01*
X0233325Y0150955D01*
X0234387Y0150955D01*
X0234918Y0150424D01*
X0234918Y0149362D01*
X0222885Y0148831D02*
X0222885Y0147770D01*
X0221823Y0146708D01*
X0220762Y0146708D01*
X0220231Y0148301D02*
X0219170Y0148301D01*
X0218639Y0148831D01*
X0218639Y0149893D01*
X0219700Y0150955D01*
X0220762Y0150955D01*
X0222885Y0148831D01*
X0221823Y0149893D02*
X0220231Y0148301D01*
X0218568Y0146637D02*
X0216445Y0144514D01*
X0215914Y0145045D02*
X0218037Y0142922D01*
X0215914Y0145045D02*
X0215914Y0147168D01*
X0218037Y0147168D01*
X0220160Y0145045D01*
X0207604Y0147239D02*
X0207604Y0149362D01*
X0205481Y0151485D01*
X0203358Y0149362D02*
X0205481Y0147239D01*
X0207604Y0147239D01*
X0204880Y0145576D02*
X0204880Y0144514D01*
X0203818Y0143453D01*
X0202756Y0143453D01*
X0201695Y0144514D02*
X0202226Y0146107D01*
X0202756Y0146637D01*
X0203818Y0146637D01*
X0204880Y0145576D01*
X0201695Y0144514D02*
X0200102Y0146107D01*
X0202226Y0148230D01*
X0196510Y0148145D02*
X0196510Y0149206D01*
X0195979Y0149737D01*
X0194918Y0149737D01*
X0194387Y0149206D01*
X0194918Y0149737D02*
X0194918Y0150799D01*
X0194387Y0151330D01*
X0193325Y0151330D01*
X0192264Y0150268D01*
X0192264Y0149206D01*
X0190601Y0148605D02*
X0192724Y0146482D01*
X0192724Y0144359D01*
X0190601Y0144359D01*
X0188477Y0146482D01*
X0187876Y0144819D02*
X0188407Y0144288D01*
X0188407Y0143226D01*
X0189468Y0143226D01*
X0189999Y0142695D01*
X0189999Y0141634D01*
X0188937Y0140572D01*
X0187876Y0140572D01*
X0187876Y0142695D02*
X0188407Y0143226D01*
X0187876Y0144819D02*
X0186814Y0144819D01*
X0185753Y0143757D01*
X0185753Y0142695D01*
X0178785Y0145420D02*
X0175601Y0148605D01*
X0176733Y0149737D02*
X0179918Y0146552D01*
X0181510Y0148145D01*
X0181510Y0149206D01*
X0179387Y0151330D01*
X0178325Y0151330D01*
X0176733Y0149737D01*
X0173477Y0146482D02*
X0178785Y0145420D01*
X0176662Y0143297D02*
X0173477Y0146482D01*
X0172876Y0144819D02*
X0171814Y0144819D01*
X0170753Y0143757D01*
X0170753Y0142695D01*
X0172876Y0140572D01*
X0173937Y0140572D01*
X0174999Y0141634D01*
X0174999Y0142695D01*
X0173937Y0143757D01*
X0172876Y0142695D01*
X0163785Y0145045D02*
X0161662Y0142922D01*
X0162724Y0143984D02*
X0159539Y0147168D01*
X0159539Y0145045D01*
X0158407Y0143913D02*
X0156284Y0143913D01*
X0156284Y0141790D01*
X0158407Y0139667D01*
X0156814Y0141259D02*
X0158937Y0143382D01*
X0158407Y0143913D02*
X0160530Y0141790D01*
X0153416Y0148301D02*
X0151293Y0146177D01*
X0152354Y0147239D02*
X0149170Y0150424D01*
X0149170Y0148301D01*
X0145914Y0147168D02*
X0149099Y0143984D01*
X0150160Y0145045D02*
X0148037Y0142922D01*
X0146905Y0141790D02*
X0144782Y0143913D01*
X0142659Y0143913D01*
X0142659Y0141790D01*
X0144782Y0139667D01*
X0143189Y0141259D02*
X0145312Y0143382D01*
X0145914Y0145045D02*
X0145914Y0147168D01*
X0137604Y0147239D02*
X0137604Y0149362D01*
X0135481Y0151485D01*
X0133358Y0149362D02*
X0135481Y0147239D01*
X0137604Y0147239D01*
X0134880Y0145576D02*
X0134880Y0144514D01*
X0133818Y0143453D01*
X0132756Y0143453D01*
X0131695Y0144514D02*
X0130102Y0146107D01*
X0132226Y0148230D01*
X0132756Y0146637D02*
X0133818Y0146637D01*
X0134880Y0145576D01*
X0132756Y0146637D02*
X0132226Y0146107D01*
X0131695Y0144514D01*
X0122724Y0144359D02*
X0122724Y0146482D01*
X0120601Y0148605D01*
X0122264Y0149206D02*
X0122264Y0150268D01*
X0123325Y0151330D01*
X0124387Y0151330D01*
X0124918Y0150799D01*
X0124918Y0149737D01*
X0125979Y0149737D01*
X0126510Y0149206D01*
X0126510Y0148145D01*
X0125448Y0147083D01*
X0124387Y0147083D01*
X0124387Y0149206D02*
X0124918Y0149737D01*
X0120601Y0144359D02*
X0118477Y0146482D01*
X0117876Y0144819D02*
X0116814Y0144819D01*
X0115753Y0143757D01*
X0115753Y0142695D01*
X0117876Y0142695D02*
X0118407Y0143226D01*
X0119468Y0143226D01*
X0119999Y0142695D01*
X0119999Y0141634D01*
X0118937Y0140572D01*
X0117876Y0140572D01*
X0118407Y0143226D02*
X0118407Y0144288D01*
X0117876Y0144819D01*
X0120601Y0144359D02*
X0122724Y0144359D01*
X0111510Y0148145D02*
X0111510Y0149206D01*
X0109387Y0151330D01*
X0108325Y0151330D01*
X0106733Y0149737D01*
X0109918Y0146552D01*
X0111510Y0148145D01*
X0108785Y0145420D02*
X0105601Y0148605D01*
X0103477Y0146482D02*
X0108785Y0145420D01*
X0106662Y0143297D02*
X0103477Y0146482D01*
X0102876Y0144819D02*
X0101814Y0144819D01*
X0100753Y0143757D01*
X0100753Y0142695D01*
X0102876Y0140572D01*
X0103937Y0140572D01*
X0104999Y0141634D01*
X0104999Y0142695D01*
X0103937Y0143757D01*
X0102876Y0142695D01*
X0097041Y0148301D02*
X0094918Y0146177D01*
X0094918Y0150424D01*
X0094387Y0150955D01*
X0093325Y0150955D01*
X0092264Y0149893D01*
X0092264Y0148831D01*
X0089539Y0147168D02*
X0092724Y0143984D01*
X0093785Y0145045D02*
X0091662Y0142922D01*
X0090530Y0141790D02*
X0088407Y0143913D01*
X0086284Y0143913D01*
X0086284Y0141790D01*
X0088407Y0139667D01*
X0086814Y0141259D02*
X0088937Y0143382D01*
X0089539Y0145045D02*
X0089539Y0147168D01*
X0082885Y0147770D02*
X0081823Y0146708D01*
X0080762Y0146708D01*
X0080160Y0145045D02*
X0078037Y0142922D01*
X0079099Y0143984D02*
X0075914Y0147168D01*
X0075914Y0145045D01*
X0074782Y0143913D02*
X0072659Y0143913D01*
X0072659Y0141790D01*
X0074782Y0139667D01*
X0073189Y0141259D02*
X0075312Y0143382D01*
X0074782Y0143913D02*
X0076905Y0141790D01*
X0064880Y0144514D02*
X0064880Y0145576D01*
X0063818Y0146637D01*
X0062756Y0146637D01*
X0062226Y0146107D01*
X0061695Y0144514D01*
X0060102Y0146107D01*
X0062226Y0148230D01*
X0063358Y0149362D02*
X0065481Y0147239D01*
X0067604Y0147239D01*
X0067604Y0149362D01*
X0065481Y0151485D01*
X0056510Y0149206D02*
X0056510Y0148145D01*
X0055448Y0147083D01*
X0054387Y0147083D01*
X0052724Y0146482D02*
X0050601Y0148605D01*
X0052264Y0149206D02*
X0052264Y0150268D01*
X0053325Y0151330D01*
X0054387Y0151330D01*
X0054918Y0150799D01*
X0054918Y0149737D01*
X0055979Y0149737D01*
X0056510Y0149206D01*
X0054918Y0149737D02*
X0054387Y0149206D01*
X0052724Y0146482D02*
X0052724Y0144359D01*
X0050601Y0144359D01*
X0048477Y0146482D01*
X0047876Y0144819D02*
X0048407Y0144288D01*
X0048407Y0143226D01*
X0049468Y0143226D01*
X0049999Y0142695D01*
X0049999Y0141634D01*
X0048937Y0140572D01*
X0047876Y0140572D01*
X0047876Y0142695D02*
X0048407Y0143226D01*
X0047876Y0144819D02*
X0046814Y0144819D01*
X0045753Y0143757D01*
X0045753Y0142695D01*
X0038785Y0145420D02*
X0035601Y0148605D01*
X0036733Y0149737D02*
X0038325Y0151330D01*
X0039387Y0151330D01*
X0041510Y0149206D01*
X0041510Y0148145D01*
X0039918Y0146552D01*
X0036733Y0149737D01*
X0033477Y0146482D02*
X0038785Y0145420D01*
X0036662Y0143297D02*
X0033477Y0146482D01*
X0032876Y0144819D02*
X0031814Y0144819D01*
X0030753Y0143757D01*
X0030753Y0142695D01*
X0032876Y0140572D01*
X0033937Y0140572D01*
X0034999Y0141634D01*
X0034999Y0142695D01*
X0033937Y0143757D01*
X0032876Y0142695D01*
X0062756Y0143453D02*
X0063818Y0143453D01*
X0064880Y0144514D01*
X0078639Y0148831D02*
X0078639Y0149893D01*
X0079700Y0150955D01*
X0080762Y0150955D01*
X0081293Y0150424D01*
X0081293Y0149362D01*
X0082354Y0149362D01*
X0082885Y0148831D01*
X0082885Y0147770D01*
X0081293Y0149362D02*
X0080762Y0148831D01*
X0033190Y0154646D02*
X0033190Y0182206D01*
X0031221Y0182206D01*
X0031221Y0154646D01*
X0033190Y0154646D01*
X0172954Y0154646D01*
X0172954Y0182206D01*
X0033190Y0182206D01*
X0162264Y0149893D02*
X0163325Y0150955D01*
X0164387Y0150955D01*
X0164387Y0146708D01*
X0165448Y0146708D01*
X0166510Y0147770D01*
X0166510Y0148831D01*
X0164387Y0150955D01*
X0162264Y0149893D02*
X0162264Y0148831D01*
X0164387Y0146708D01*
X0169410Y0154646D02*
X0171379Y0154646D01*
X0171379Y0182206D01*
X0169410Y0182206D01*
X0169410Y0154646D01*
X0171379Y0154646D02*
X0311143Y0154646D01*
X0311143Y0182206D01*
X0171379Y0182206D01*
X0194387Y0147083D02*
X0195448Y0147083D01*
X0196510Y0148145D01*
X0197961Y0135906D02*
X0202961Y0135906D01*
X0204961Y0133906D01*
X0206961Y0135906D01*
X0212961Y0135906D01*
X0214961Y0133906D01*
X0216961Y0135906D01*
X0221961Y0135906D01*
X0224961Y0132906D01*
X0224961Y0118906D01*
X0221961Y0115906D01*
X0216961Y0115906D01*
X0214961Y0117906D01*
X0212961Y0115906D01*
X0206961Y0115906D01*
X0204961Y0117906D01*
X0202961Y0115906D01*
X0197961Y0115906D01*
X0194961Y0118906D01*
X0194961Y0132906D01*
X0197961Y0135906D01*
X0287231Y0147239D02*
X0287231Y0151485D01*
X0287231Y0148301D02*
X0290416Y0148301D01*
X0307009Y0154646D02*
X0308977Y0154646D01*
X0308977Y0182206D01*
X0307009Y0182206D01*
X0307009Y0154646D01*
X0308977Y0154646D02*
X0448741Y0154646D01*
X0448741Y0182206D01*
X0308977Y0182206D01*
X0383733Y0150799D02*
X0385856Y0150799D01*
X0385856Y0151860D01*
X0383733Y0150799D02*
X0383733Y0149737D01*
X0394008Y0147012D02*
X0394008Y0145951D01*
X0396131Y0143828D01*
X0397193Y0143828D01*
X0398254Y0144889D01*
X0398254Y0145951D01*
X0399387Y0147083D02*
X0399387Y0151329D01*
X0401510Y0149206D01*
X0401510Y0148145D01*
X0400448Y0147083D01*
X0399387Y0147083D01*
X0397264Y0149206D01*
X0397264Y0150268D01*
X0398325Y0151329D01*
X0399387Y0151329D01*
X0396131Y0148074D02*
X0395070Y0148074D01*
X0394008Y0147012D01*
X0404909Y0143913D02*
X0408093Y0140728D01*
X0407032Y0139667D02*
X0409155Y0141790D01*
X0409756Y0143453D02*
X0410818Y0143453D01*
X0411879Y0144514D01*
X0411879Y0145576D01*
X0410818Y0146637D01*
X0409756Y0146637D01*
X0409226Y0146107D01*
X0408695Y0144514D01*
X0407102Y0146107D01*
X0409226Y0148230D01*
X0410358Y0149362D02*
X0410358Y0150424D01*
X0412481Y0150424D01*
X0412481Y0151485D01*
X0420879Y0146482D02*
X0423002Y0148605D01*
X0421941Y0147543D02*
X0425125Y0144359D01*
X0422931Y0142165D02*
X0420808Y0144288D01*
X0418685Y0144288D01*
X0418685Y0142165D01*
X0420808Y0140042D01*
X0419145Y0139440D02*
X0419145Y0138378D01*
X0417553Y0136786D01*
X0414368Y0139971D01*
X0415960Y0141563D01*
X0417022Y0141563D01*
X0417553Y0141032D01*
X0417553Y0139971D01*
X0415960Y0138378D01*
X0417553Y0139971D02*
X0418614Y0139971D01*
X0419145Y0139440D01*
X0419216Y0141634D02*
X0421339Y0143757D01*
X0428381Y0147614D02*
X0425196Y0150799D01*
X0424134Y0149737D02*
X0426258Y0151860D01*
X0433871Y0146482D02*
X0439179Y0145420D01*
X0435994Y0148605D01*
X0437127Y0149737D02*
X0438719Y0151330D01*
X0439781Y0151330D01*
X0441904Y0149206D01*
X0441904Y0148145D01*
X0440311Y0146552D01*
X0437127Y0149737D01*
X0433871Y0146482D02*
X0437056Y0143297D01*
X0435393Y0142695D02*
X0434331Y0143757D01*
X0433270Y0142695D01*
X0433270Y0140572D02*
X0431146Y0142695D01*
X0431146Y0143757D01*
X0432208Y0144819D01*
X0433270Y0144819D01*
X0435393Y0142695D02*
X0435393Y0141634D01*
X0434331Y0140572D01*
X0433270Y0140572D01*
X0405369Y0139065D02*
X0405369Y0138003D01*
X0403776Y0136411D01*
X0400592Y0139596D01*
X0402184Y0141188D01*
X0403245Y0141188D01*
X0405369Y0139065D01*
X0404909Y0141790D02*
X0404909Y0143913D01*
X0326999Y0142695D02*
X0324876Y0144819D01*
X0323814Y0144819D01*
X0322222Y0143226D01*
X0325407Y0140042D01*
X0326999Y0141634D01*
X0326999Y0142695D01*
X0298938Y0131024D02*
X0291064Y0131024D01*
X0298938Y0131024D01*
X0298938Y0123150D01*
X0298741Y0123150D02*
X0298743Y0123177D01*
X0298749Y0123204D01*
X0298758Y0123230D01*
X0298771Y0123254D01*
X0298787Y0123277D01*
X0298806Y0123296D01*
X0298828Y0123313D01*
X0298852Y0123327D01*
X0298877Y0123337D01*
X0298904Y0123344D01*
X0298931Y0123347D01*
X0298959Y0123346D01*
X0298986Y0123341D01*
X0299012Y0123333D01*
X0299036Y0123321D01*
X0299059Y0123305D01*
X0299080Y0123287D01*
X0299097Y0123266D01*
X0299112Y0123242D01*
X0299123Y0123217D01*
X0299131Y0123191D01*
X0299135Y0123164D01*
X0299135Y0123136D01*
X0299131Y0123109D01*
X0299123Y0123083D01*
X0299112Y0123058D01*
X0299097Y0123034D01*
X0299080Y0123013D01*
X0299059Y0122995D01*
X0299037Y0122979D01*
X0299012Y0122967D01*
X0298986Y0122959D01*
X0298959Y0122954D01*
X0298931Y0122953D01*
X0298904Y0122956D01*
X0298877Y0122963D01*
X0298852Y0122973D01*
X0298828Y0122987D01*
X0298806Y0123004D01*
X0298787Y0123023D01*
X0298771Y0123046D01*
X0298758Y0123070D01*
X0298749Y0123096D01*
X0298743Y0123123D01*
X0298741Y0123150D01*
X0298938Y0123150D02*
X0291064Y0123150D01*
X0291064Y0131024D01*
X0291064Y0123150D02*
X0298938Y0123150D01*
X0298058Y0121182D02*
X0298060Y0121241D01*
X0298066Y0121299D01*
X0298076Y0121357D01*
X0298089Y0121414D01*
X0298107Y0121471D01*
X0298128Y0121526D01*
X0298153Y0121579D01*
X0298181Y0121630D01*
X0298212Y0121680D01*
X0298247Y0121727D01*
X0298285Y0121772D01*
X0298326Y0121815D01*
X0298370Y0121854D01*
X0298416Y0121890D01*
X0298464Y0121924D01*
X0298515Y0121954D01*
X0298568Y0121980D01*
X0298622Y0122003D01*
X0298677Y0122022D01*
X0298734Y0122038D01*
X0298792Y0122050D01*
X0298850Y0122058D01*
X0298909Y0122062D01*
X0298967Y0122062D01*
X0299026Y0122058D01*
X0299084Y0122050D01*
X0299142Y0122038D01*
X0299199Y0122022D01*
X0299254Y0122003D01*
X0299308Y0121980D01*
X0299361Y0121954D01*
X0299412Y0121924D01*
X0299460Y0121890D01*
X0299506Y0121854D01*
X0299550Y0121815D01*
X0299591Y0121772D01*
X0299629Y0121727D01*
X0299664Y0121680D01*
X0299695Y0121630D01*
X0299723Y0121579D01*
X0299748Y0121526D01*
X0299769Y0121471D01*
X0299787Y0121414D01*
X0299800Y0121357D01*
X0299810Y0121299D01*
X0299816Y0121241D01*
X0299818Y0121182D01*
X0299816Y0121123D01*
X0299810Y0121065D01*
X0299800Y0121007D01*
X0299787Y0120950D01*
X0299769Y0120893D01*
X0299748Y0120838D01*
X0299723Y0120785D01*
X0299695Y0120734D01*
X0299664Y0120684D01*
X0299629Y0120637D01*
X0299591Y0120592D01*
X0299550Y0120549D01*
X0299506Y0120510D01*
X0299460Y0120474D01*
X0299412Y0120440D01*
X0299361Y0120410D01*
X0299308Y0120384D01*
X0299254Y0120361D01*
X0299199Y0120342D01*
X0299142Y0120326D01*
X0299084Y0120314D01*
X0299026Y0120306D01*
X0298967Y0120302D01*
X0298909Y0120302D01*
X0298850Y0120306D01*
X0298792Y0120314D01*
X0298734Y0120326D01*
X0298677Y0120342D01*
X0298622Y0120361D01*
X0298568Y0120384D01*
X0298515Y0120410D01*
X0298464Y0120440D01*
X0298416Y0120474D01*
X0298370Y0120510D01*
X0298326Y0120549D01*
X0298285Y0120592D01*
X0298247Y0120637D01*
X0298212Y0120684D01*
X0298181Y0120734D01*
X0298153Y0120785D01*
X0298128Y0120838D01*
X0298107Y0120893D01*
X0298089Y0120950D01*
X0298076Y0121007D01*
X0298066Y0121065D01*
X0298060Y0121123D01*
X0298058Y0121182D01*
X0151144Y0036559D02*
X0149020Y0038682D01*
X0050490Y0038838D02*
X0050490Y0039900D01*
X0051497Y0053072D02*
X0038898Y0053072D01*
X0038898Y0071182D01*
X0051497Y0071182D01*
X0051497Y0053072D01*
X0051497Y0111536D02*
X0038898Y0111536D01*
X0038898Y0129646D01*
X0051497Y0129646D01*
X0051497Y0111536D01*
D12*
X0057131Y0115056D02*
X0057131Y0117859D01*
X0060481Y0117859D02*
X0060481Y0115056D01*
X0080410Y0115938D02*
X0083213Y0115938D01*
X0083213Y0119288D02*
X0080410Y0119288D01*
X0067859Y0127749D02*
X0065056Y0127749D01*
X0065056Y0131099D02*
X0067859Y0131099D01*
X0096355Y0131343D02*
X0099158Y0131343D01*
X0099158Y0134694D02*
X0096355Y0134694D01*
X0132969Y0133064D02*
X0135772Y0133064D01*
X0135772Y0136414D02*
X0132969Y0136414D01*
X0132969Y0128146D02*
X0135772Y0128146D01*
X0135772Y0124796D02*
X0132969Y0124796D01*
X0132969Y0119879D02*
X0135772Y0119879D01*
X0135772Y0116528D02*
X0132969Y0116528D01*
X0132969Y0111611D02*
X0135772Y0111611D01*
X0135772Y0108261D02*
X0132969Y0108261D01*
X0132969Y0103343D02*
X0135772Y0103343D01*
X0135772Y0099993D02*
X0132969Y0099993D01*
X0132969Y0095076D02*
X0135772Y0095076D01*
X0135772Y0091725D02*
X0132969Y0091725D01*
X0139757Y0081835D02*
X0139757Y0079032D01*
X0143107Y0079032D02*
X0143107Y0081835D01*
X0124209Y0081835D02*
X0124209Y0079032D01*
X0120859Y0079032D02*
X0120859Y0081835D01*
X0102359Y0081835D02*
X0102359Y0079032D01*
X0099009Y0079032D02*
X0099009Y0081835D01*
X0083461Y0081835D02*
X0083461Y0079032D01*
X0080111Y0079032D02*
X0080111Y0081835D01*
X0084245Y0066481D02*
X0084245Y0063678D01*
X0087595Y0063678D02*
X0087595Y0066481D01*
X0103143Y0066481D02*
X0103143Y0063678D01*
X0106493Y0063678D02*
X0106493Y0066481D01*
X0124993Y0066481D02*
X0124993Y0063678D01*
X0128343Y0063678D02*
X0128343Y0066481D01*
X0143891Y0066481D02*
X0143891Y0063678D01*
X0147241Y0063678D02*
X0147241Y0066481D01*
X0217119Y0102654D02*
X0217119Y0105457D01*
X0220469Y0105457D02*
X0220469Y0102654D01*
X0280308Y0084198D02*
X0280308Y0081394D01*
X0283658Y0081394D02*
X0283658Y0084198D01*
X0283709Y0065891D02*
X0283709Y0063087D01*
X0280359Y0063087D02*
X0280359Y0065891D01*
X0332576Y0088824D02*
X0335379Y0088824D01*
X0335379Y0092174D02*
X0332576Y0092174D01*
X0340237Y0111414D02*
X0340237Y0114316D01*
X0345434Y0114414D02*
X0345434Y0111414D01*
X0349095Y0111414D02*
X0349095Y0114316D01*
X0354292Y0114414D02*
X0354292Y0111414D01*
X0357954Y0111414D02*
X0357954Y0114316D01*
X0363150Y0114414D02*
X0363150Y0111414D01*
X0390434Y0122635D02*
X0390434Y0125635D01*
X0395631Y0125635D02*
X0395631Y0122733D01*
X0398702Y0122635D02*
X0398702Y0125635D01*
X0403898Y0125635D02*
X0403898Y0122733D01*
X0376127Y0132524D02*
X0373324Y0132524D01*
X0373324Y0135875D02*
X0376127Y0135875D01*
X0362202Y0129670D02*
X0362202Y0126867D01*
X0358851Y0126867D02*
X0358851Y0129670D01*
X0261658Y0129804D02*
X0258658Y0129804D01*
X0258658Y0135001D02*
X0261560Y0135001D01*
X0393032Y0068820D02*
X0398938Y0068820D01*
X0398938Y0068032D01*
X0398893Y0068030D01*
X0398849Y0068025D01*
X0398805Y0068015D01*
X0398762Y0068003D01*
X0398721Y0067986D01*
X0398681Y0067967D01*
X0398642Y0067944D01*
X0398606Y0067918D01*
X0398572Y0067889D01*
X0398540Y0067857D01*
X0398511Y0067823D01*
X0398485Y0067787D01*
X0398462Y0067748D01*
X0398443Y0067708D01*
X0398426Y0067667D01*
X0398414Y0067624D01*
X0398404Y0067580D01*
X0398399Y0067536D01*
X0398397Y0067491D01*
X0398399Y0067446D01*
X0398404Y0067402D01*
X0398414Y0067358D01*
X0398426Y0067315D01*
X0398443Y0067274D01*
X0398462Y0067234D01*
X0398485Y0067195D01*
X0398511Y0067159D01*
X0398540Y0067125D01*
X0398572Y0067093D01*
X0398606Y0067064D01*
X0398642Y0067038D01*
X0398681Y0067015D01*
X0398721Y0066996D01*
X0398762Y0066979D01*
X0398805Y0066967D01*
X0398849Y0066957D01*
X0398893Y0066952D01*
X0398938Y0066950D01*
X0398938Y0064883D01*
X0398938Y0064882D02*
X0398893Y0064880D01*
X0398849Y0064875D01*
X0398805Y0064865D01*
X0398762Y0064853D01*
X0398721Y0064836D01*
X0398681Y0064817D01*
X0398642Y0064794D01*
X0398606Y0064768D01*
X0398572Y0064739D01*
X0398540Y0064707D01*
X0398511Y0064673D01*
X0398485Y0064637D01*
X0398462Y0064598D01*
X0398443Y0064558D01*
X0398426Y0064517D01*
X0398414Y0064474D01*
X0398404Y0064430D01*
X0398399Y0064386D01*
X0398397Y0064341D01*
X0398399Y0064296D01*
X0398404Y0064252D01*
X0398414Y0064208D01*
X0398426Y0064165D01*
X0398443Y0064124D01*
X0398462Y0064084D01*
X0398485Y0064045D01*
X0398511Y0064009D01*
X0398540Y0063975D01*
X0398572Y0063943D01*
X0398606Y0063914D01*
X0398642Y0063888D01*
X0398681Y0063865D01*
X0398721Y0063846D01*
X0398762Y0063829D01*
X0398805Y0063817D01*
X0398849Y0063807D01*
X0398893Y0063802D01*
X0398938Y0063800D01*
X0398938Y0061733D01*
X0398893Y0061731D01*
X0398849Y0061726D01*
X0398805Y0061716D01*
X0398762Y0061704D01*
X0398721Y0061687D01*
X0398681Y0061668D01*
X0398642Y0061645D01*
X0398606Y0061619D01*
X0398572Y0061590D01*
X0398540Y0061558D01*
X0398511Y0061524D01*
X0398485Y0061488D01*
X0398462Y0061449D01*
X0398443Y0061409D01*
X0398426Y0061368D01*
X0398414Y0061325D01*
X0398404Y0061281D01*
X0398399Y0061237D01*
X0398397Y0061192D01*
X0398399Y0061147D01*
X0398404Y0061103D01*
X0398414Y0061059D01*
X0398426Y0061016D01*
X0398443Y0060975D01*
X0398462Y0060935D01*
X0398485Y0060896D01*
X0398511Y0060860D01*
X0398540Y0060826D01*
X0398572Y0060794D01*
X0398606Y0060765D01*
X0398642Y0060739D01*
X0398681Y0060716D01*
X0398721Y0060697D01*
X0398762Y0060680D01*
X0398805Y0060668D01*
X0398849Y0060658D01*
X0398893Y0060653D01*
X0398938Y0060651D01*
X0398938Y0060650D02*
X0398938Y0058583D01*
X0398893Y0058581D01*
X0398849Y0058576D01*
X0398805Y0058566D01*
X0398762Y0058554D01*
X0398721Y0058537D01*
X0398681Y0058518D01*
X0398642Y0058495D01*
X0398606Y0058469D01*
X0398572Y0058440D01*
X0398540Y0058408D01*
X0398511Y0058374D01*
X0398485Y0058338D01*
X0398462Y0058299D01*
X0398443Y0058259D01*
X0398426Y0058218D01*
X0398414Y0058175D01*
X0398404Y0058131D01*
X0398399Y0058087D01*
X0398397Y0058042D01*
X0398399Y0057997D01*
X0398404Y0057953D01*
X0398414Y0057909D01*
X0398426Y0057866D01*
X0398443Y0057825D01*
X0398462Y0057785D01*
X0398485Y0057746D01*
X0398511Y0057710D01*
X0398540Y0057676D01*
X0398572Y0057644D01*
X0398606Y0057615D01*
X0398642Y0057589D01*
X0398681Y0057566D01*
X0398721Y0057547D01*
X0398762Y0057530D01*
X0398805Y0057518D01*
X0398849Y0057508D01*
X0398893Y0057503D01*
X0398938Y0057501D01*
X0398938Y0056615D01*
X0393032Y0056615D01*
X0393032Y0057402D01*
X0393032Y0057403D02*
X0393077Y0057405D01*
X0393121Y0057410D01*
X0393165Y0057420D01*
X0393208Y0057432D01*
X0393249Y0057449D01*
X0393289Y0057468D01*
X0393328Y0057491D01*
X0393364Y0057517D01*
X0393398Y0057546D01*
X0393430Y0057578D01*
X0393459Y0057612D01*
X0393485Y0057648D01*
X0393508Y0057687D01*
X0393527Y0057727D01*
X0393544Y0057768D01*
X0393556Y0057811D01*
X0393566Y0057855D01*
X0393571Y0057899D01*
X0393573Y0057944D01*
X0393571Y0057989D01*
X0393566Y0058033D01*
X0393556Y0058077D01*
X0393544Y0058120D01*
X0393527Y0058161D01*
X0393508Y0058201D01*
X0393485Y0058240D01*
X0393459Y0058276D01*
X0393430Y0058310D01*
X0393398Y0058342D01*
X0393364Y0058371D01*
X0393328Y0058397D01*
X0393289Y0058420D01*
X0393249Y0058439D01*
X0393208Y0058456D01*
X0393165Y0058468D01*
X0393121Y0058478D01*
X0393077Y0058483D01*
X0393032Y0058485D01*
X0393032Y0060552D01*
X0393077Y0060554D01*
X0393121Y0060559D01*
X0393165Y0060569D01*
X0393208Y0060581D01*
X0393249Y0060598D01*
X0393289Y0060617D01*
X0393328Y0060640D01*
X0393364Y0060666D01*
X0393398Y0060695D01*
X0393430Y0060727D01*
X0393459Y0060761D01*
X0393485Y0060797D01*
X0393508Y0060836D01*
X0393527Y0060876D01*
X0393544Y0060917D01*
X0393556Y0060960D01*
X0393566Y0061004D01*
X0393571Y0061048D01*
X0393573Y0061093D01*
X0393571Y0061138D01*
X0393566Y0061182D01*
X0393556Y0061226D01*
X0393544Y0061269D01*
X0393527Y0061310D01*
X0393508Y0061350D01*
X0393485Y0061389D01*
X0393459Y0061425D01*
X0393430Y0061459D01*
X0393398Y0061491D01*
X0393364Y0061520D01*
X0393328Y0061546D01*
X0393289Y0061569D01*
X0393249Y0061588D01*
X0393208Y0061605D01*
X0393165Y0061617D01*
X0393121Y0061627D01*
X0393077Y0061632D01*
X0393032Y0061634D01*
X0393032Y0061635D02*
X0393032Y0063702D01*
X0393077Y0063704D01*
X0393121Y0063709D01*
X0393165Y0063719D01*
X0393208Y0063731D01*
X0393249Y0063748D01*
X0393289Y0063767D01*
X0393328Y0063790D01*
X0393364Y0063816D01*
X0393398Y0063845D01*
X0393430Y0063877D01*
X0393459Y0063911D01*
X0393485Y0063947D01*
X0393508Y0063986D01*
X0393527Y0064026D01*
X0393544Y0064067D01*
X0393556Y0064110D01*
X0393566Y0064154D01*
X0393571Y0064198D01*
X0393573Y0064243D01*
X0393571Y0064288D01*
X0393566Y0064332D01*
X0393556Y0064376D01*
X0393544Y0064419D01*
X0393527Y0064460D01*
X0393508Y0064500D01*
X0393485Y0064539D01*
X0393459Y0064575D01*
X0393430Y0064609D01*
X0393398Y0064641D01*
X0393364Y0064670D01*
X0393328Y0064696D01*
X0393289Y0064719D01*
X0393249Y0064738D01*
X0393208Y0064755D01*
X0393165Y0064767D01*
X0393121Y0064777D01*
X0393077Y0064782D01*
X0393032Y0064784D01*
X0393032Y0066851D01*
X0393032Y0066852D02*
X0393077Y0066854D01*
X0393121Y0066859D01*
X0393165Y0066869D01*
X0393208Y0066881D01*
X0393249Y0066898D01*
X0393289Y0066917D01*
X0393328Y0066940D01*
X0393364Y0066966D01*
X0393398Y0066995D01*
X0393430Y0067027D01*
X0393459Y0067061D01*
X0393485Y0067097D01*
X0393508Y0067136D01*
X0393527Y0067176D01*
X0393544Y0067217D01*
X0393556Y0067260D01*
X0393566Y0067304D01*
X0393571Y0067348D01*
X0393573Y0067393D01*
X0393571Y0067438D01*
X0393566Y0067482D01*
X0393556Y0067526D01*
X0393544Y0067569D01*
X0393527Y0067610D01*
X0393508Y0067650D01*
X0393485Y0067689D01*
X0393459Y0067725D01*
X0393430Y0067759D01*
X0393398Y0067791D01*
X0393364Y0067820D01*
X0393328Y0067846D01*
X0393289Y0067869D01*
X0393249Y0067888D01*
X0393208Y0067905D01*
X0393165Y0067917D01*
X0393121Y0067927D01*
X0393077Y0067932D01*
X0393032Y0067934D01*
X0393032Y0068820D01*
X0434442Y0079623D02*
X0434442Y0082426D01*
X0437792Y0082426D02*
X0437792Y0079623D01*
X0446894Y0069434D02*
X0446894Y0066631D01*
X0450245Y0066631D02*
X0450245Y0069434D01*
X0473858Y0071972D02*
X0473858Y0074274D01*
X0474626Y0075042D01*
X0476160Y0075042D01*
X0476928Y0074274D01*
X0476928Y0071972D01*
X0478462Y0071972D02*
X0473858Y0071972D01*
X0474626Y0076576D02*
X0473858Y0077344D01*
X0473858Y0078878D01*
X0474626Y0079646D01*
X0473858Y0081180D02*
X0473858Y0083482D01*
X0474626Y0084250D01*
X0475393Y0084250D01*
X0476160Y0083482D01*
X0476160Y0081180D01*
X0477695Y0079646D02*
X0478462Y0078878D01*
X0478462Y0077344D01*
X0477695Y0076576D01*
X0474626Y0076576D01*
X0473858Y0081180D02*
X0478462Y0081180D01*
X0478462Y0083482D01*
X0477695Y0084250D01*
X0476928Y0084250D01*
X0476160Y0083482D01*
X0476160Y0090388D02*
X0476160Y0091923D01*
X0473858Y0093457D02*
X0473858Y0090388D01*
X0478462Y0090388D01*
X0478462Y0093457D01*
X0477695Y0094992D02*
X0476160Y0094992D01*
X0475393Y0095759D01*
X0475393Y0098061D01*
X0473858Y0098061D02*
X0478462Y0098061D01*
X0478462Y0095759D01*
X0477695Y0094992D01*
X0477695Y0099596D02*
X0478462Y0100363D01*
X0478462Y0102665D01*
X0479230Y0102665D02*
X0475393Y0102665D01*
X0475393Y0100363D01*
X0476160Y0099596D01*
X0477695Y0099596D01*
X0479997Y0101131D02*
X0479997Y0101898D01*
X0479230Y0102665D01*
X0477695Y0104200D02*
X0476160Y0104200D01*
X0475393Y0104967D01*
X0475393Y0106502D01*
X0476160Y0107269D01*
X0476928Y0107269D01*
X0476928Y0104200D01*
X0477695Y0104200D02*
X0478462Y0104967D01*
X0478462Y0106502D01*
X0450194Y0057032D02*
X0450194Y0054229D01*
X0446843Y0054229D02*
X0446843Y0057032D01*
D13*
X0448524Y0057915D03*
X0448524Y0053315D03*
X0448564Y0065748D03*
X0448564Y0070348D03*
X0436122Y0078709D03*
X0436122Y0083309D03*
X0360532Y0125953D03*
X0360532Y0130553D03*
X0281989Y0085081D03*
X0281989Y0080481D03*
X0282029Y0066805D03*
X0282029Y0062205D03*
X0218800Y0101740D03*
X0218800Y0106340D03*
X0141437Y0082718D03*
X0141437Y0078118D03*
X0122540Y0078118D03*
X0122540Y0082718D03*
X0100689Y0082718D03*
X0100689Y0078118D03*
X0081792Y0078118D03*
X0081792Y0082718D03*
X0085926Y0067364D03*
X0085926Y0062764D03*
X0104823Y0062764D03*
X0104823Y0067364D03*
X0126674Y0067364D03*
X0126674Y0062764D03*
X0145571Y0062764D03*
X0145571Y0067364D03*
X0058800Y0114173D03*
X0058800Y0118773D03*
D14*
X0192108Y0115291D02*
X0193343Y0114056D01*
X0192108Y0115291D02*
X0195811Y0115291D01*
X0195811Y0116525D02*
X0195811Y0114056D01*
D15*
X0207206Y0100709D02*
X0210355Y0100709D01*
X0210355Y0098347D01*
X0223878Y0094087D02*
X0236203Y0094087D01*
X0236203Y0094086D02*
X0236274Y0094095D01*
X0236345Y0094100D01*
X0236417Y0094101D01*
X0236488Y0094098D01*
X0236559Y0094091D01*
X0236630Y0094081D01*
X0236699Y0094067D01*
X0236769Y0094048D01*
X0236837Y0094027D01*
X0236903Y0094001D01*
X0236968Y0093972D01*
X0237032Y0093940D01*
X0237094Y0093904D01*
X0237153Y0093865D01*
X0237211Y0093822D01*
X0237266Y0093777D01*
X0237318Y0093728D01*
X0237368Y0093677D01*
X0237415Y0093624D01*
X0237459Y0093567D01*
X0237500Y0093509D01*
X0237538Y0093448D01*
X0237572Y0093386D01*
X0237603Y0093321D01*
X0237630Y0093255D01*
X0237654Y0093188D01*
X0237674Y0093120D01*
X0237691Y0093050D01*
X0237703Y0092980D01*
X0237703Y0074187D01*
X0237702Y0074186D02*
X0237711Y0074116D01*
X0237716Y0074044D01*
X0237717Y0073973D01*
X0237714Y0073902D01*
X0237707Y0073831D01*
X0237697Y0073760D01*
X0237683Y0073690D01*
X0237665Y0073621D01*
X0237643Y0073553D01*
X0237617Y0073486D01*
X0237588Y0073421D01*
X0237556Y0073358D01*
X0237520Y0073296D01*
X0237481Y0073236D01*
X0237438Y0073179D01*
X0237393Y0073124D01*
X0237345Y0073071D01*
X0237293Y0073021D01*
X0237240Y0072974D01*
X0237184Y0072930D01*
X0237125Y0072890D01*
X0237064Y0072852D01*
X0237002Y0072818D01*
X0236938Y0072787D01*
X0236872Y0072759D01*
X0236804Y0072736D01*
X0236736Y0072716D01*
X0236666Y0072699D01*
X0236596Y0072687D01*
X0232640Y0072687D01*
X0232640Y0072887D02*
X0232638Y0072985D01*
X0232632Y0073083D01*
X0232623Y0073181D01*
X0232609Y0073278D01*
X0232592Y0073375D01*
X0232571Y0073471D01*
X0232546Y0073566D01*
X0232518Y0073660D01*
X0232485Y0073752D01*
X0232450Y0073844D01*
X0232410Y0073934D01*
X0232368Y0074022D01*
X0232321Y0074109D01*
X0232272Y0074193D01*
X0232219Y0074276D01*
X0232163Y0074356D01*
X0232103Y0074435D01*
X0232041Y0074511D01*
X0231976Y0074584D01*
X0231908Y0074655D01*
X0231837Y0074723D01*
X0231764Y0074788D01*
X0231688Y0074850D01*
X0231609Y0074910D01*
X0231529Y0074966D01*
X0231446Y0075019D01*
X0231362Y0075068D01*
X0231275Y0075115D01*
X0231187Y0075157D01*
X0231097Y0075197D01*
X0231005Y0075232D01*
X0230913Y0075265D01*
X0230819Y0075293D01*
X0230724Y0075318D01*
X0230628Y0075339D01*
X0230531Y0075356D01*
X0230434Y0075370D01*
X0230336Y0075379D01*
X0230238Y0075385D01*
X0230140Y0075387D01*
X0230042Y0075385D01*
X0229944Y0075379D01*
X0229846Y0075370D01*
X0229749Y0075356D01*
X0229652Y0075339D01*
X0229556Y0075318D01*
X0229461Y0075293D01*
X0229367Y0075265D01*
X0229275Y0075232D01*
X0229183Y0075197D01*
X0229093Y0075157D01*
X0229005Y0075115D01*
X0228918Y0075068D01*
X0228834Y0075019D01*
X0228751Y0074966D01*
X0228671Y0074910D01*
X0228592Y0074850D01*
X0228516Y0074788D01*
X0228443Y0074723D01*
X0228372Y0074655D01*
X0228304Y0074584D01*
X0228239Y0074511D01*
X0228177Y0074435D01*
X0228117Y0074356D01*
X0228061Y0074276D01*
X0228008Y0074193D01*
X0227959Y0074109D01*
X0227912Y0074022D01*
X0227870Y0073934D01*
X0227830Y0073844D01*
X0227795Y0073752D01*
X0227762Y0073660D01*
X0227734Y0073566D01*
X0227709Y0073471D01*
X0227688Y0073375D01*
X0227671Y0073278D01*
X0227657Y0073181D01*
X0227648Y0073083D01*
X0227642Y0072985D01*
X0227640Y0072887D01*
X0227640Y0072687D02*
X0224321Y0072687D01*
X0224271Y0072686D02*
X0224190Y0072679D01*
X0224109Y0072675D01*
X0224028Y0072676D01*
X0223946Y0072680D01*
X0223866Y0072688D01*
X0223785Y0072700D01*
X0223705Y0072715D01*
X0223626Y0072735D01*
X0223548Y0072758D01*
X0223472Y0072785D01*
X0223396Y0072815D01*
X0223322Y0072849D01*
X0223250Y0072887D01*
X0223180Y0072928D01*
X0223112Y0072972D01*
X0223046Y0073019D01*
X0222982Y0073070D01*
X0222921Y0073123D01*
X0222862Y0073180D01*
X0222806Y0073239D01*
X0222753Y0073300D01*
X0222703Y0073364D01*
X0222656Y0073431D01*
X0222612Y0073499D01*
X0222572Y0073570D01*
X0222535Y0073642D01*
X0222501Y0073716D01*
X0222472Y0073792D01*
X0222445Y0073869D01*
X0222423Y0073947D01*
X0222404Y0074026D01*
X0222389Y0074106D01*
X0222377Y0074187D01*
X0222378Y0074187D02*
X0222378Y0092587D01*
X0222377Y0092587D02*
X0222379Y0092663D01*
X0222385Y0092738D01*
X0222394Y0092814D01*
X0222408Y0092889D01*
X0222425Y0092963D01*
X0222446Y0093036D01*
X0222470Y0093108D01*
X0222498Y0093178D01*
X0222530Y0093247D01*
X0222565Y0093315D01*
X0222604Y0093380D01*
X0222646Y0093444D01*
X0222691Y0093505D01*
X0222739Y0093564D01*
X0222790Y0093620D01*
X0222844Y0093674D01*
X0222900Y0093725D01*
X0222959Y0093773D01*
X0223020Y0093818D01*
X0223084Y0093860D01*
X0223149Y0093899D01*
X0223217Y0093934D01*
X0223286Y0093966D01*
X0223356Y0093994D01*
X0223428Y0094018D01*
X0223501Y0094039D01*
X0223575Y0094056D01*
X0223650Y0094070D01*
X0223726Y0094079D01*
X0223801Y0094085D01*
X0223877Y0094087D01*
X0210355Y0092048D02*
X0210355Y0089686D01*
X0207206Y0089686D01*
X0207206Y0086536D02*
X0210355Y0086536D01*
X0210355Y0084174D01*
X0210355Y0077875D02*
X0210355Y0075513D01*
X0207206Y0075513D01*
X0182599Y0090867D02*
X0179450Y0090867D01*
X0179450Y0093229D01*
X0179450Y0099528D02*
X0179450Y0101891D01*
X0182599Y0101891D01*
X0241906Y0120335D02*
X0241906Y0127934D01*
X0247702Y0127934D02*
X0247702Y0120335D01*
X0257993Y0121379D02*
X0257993Y0123741D01*
X0261143Y0123741D01*
X0257993Y0115080D02*
X0257993Y0112717D01*
X0261143Y0112717D01*
X0283387Y0113505D02*
X0283387Y0107993D01*
X0284568Y0105237D02*
X0287324Y0105237D01*
X0289686Y0102875D01*
X0284961Y0102875D01*
X0287324Y0105237D01*
X0290080Y0105237D01*
X0291261Y0107993D02*
X0291261Y0113505D01*
X0283387Y0113505D01*
X0298058Y0121182D02*
X0298060Y0121241D01*
X0298066Y0121299D01*
X0298076Y0121357D01*
X0298089Y0121414D01*
X0298107Y0121471D01*
X0298128Y0121526D01*
X0298153Y0121579D01*
X0298181Y0121630D01*
X0298212Y0121680D01*
X0298247Y0121727D01*
X0298285Y0121772D01*
X0298326Y0121815D01*
X0298370Y0121854D01*
X0298416Y0121890D01*
X0298464Y0121924D01*
X0298515Y0121954D01*
X0298568Y0121980D01*
X0298622Y0122003D01*
X0298677Y0122022D01*
X0298734Y0122038D01*
X0298792Y0122050D01*
X0298850Y0122058D01*
X0298909Y0122062D01*
X0298967Y0122062D01*
X0299026Y0122058D01*
X0299084Y0122050D01*
X0299142Y0122038D01*
X0299199Y0122022D01*
X0299254Y0122003D01*
X0299308Y0121980D01*
X0299361Y0121954D01*
X0299412Y0121924D01*
X0299460Y0121890D01*
X0299506Y0121854D01*
X0299550Y0121815D01*
X0299591Y0121772D01*
X0299629Y0121727D01*
X0299664Y0121680D01*
X0299695Y0121630D01*
X0299723Y0121579D01*
X0299748Y0121526D01*
X0299769Y0121471D01*
X0299787Y0121414D01*
X0299800Y0121357D01*
X0299810Y0121299D01*
X0299816Y0121241D01*
X0299818Y0121182D01*
X0299816Y0121123D01*
X0299810Y0121065D01*
X0299800Y0121007D01*
X0299787Y0120950D01*
X0299769Y0120893D01*
X0299748Y0120838D01*
X0299723Y0120785D01*
X0299695Y0120734D01*
X0299664Y0120684D01*
X0299629Y0120637D01*
X0299591Y0120592D01*
X0299550Y0120549D01*
X0299506Y0120510D01*
X0299460Y0120474D01*
X0299412Y0120440D01*
X0299361Y0120410D01*
X0299308Y0120384D01*
X0299254Y0120361D01*
X0299199Y0120342D01*
X0299142Y0120326D01*
X0299084Y0120314D01*
X0299026Y0120306D01*
X0298967Y0120302D01*
X0298909Y0120302D01*
X0298850Y0120306D01*
X0298792Y0120314D01*
X0298734Y0120326D01*
X0298677Y0120342D01*
X0298622Y0120361D01*
X0298568Y0120384D01*
X0298515Y0120410D01*
X0298464Y0120440D01*
X0298416Y0120474D01*
X0298370Y0120510D01*
X0298326Y0120549D01*
X0298285Y0120592D01*
X0298247Y0120637D01*
X0298212Y0120684D01*
X0298181Y0120734D01*
X0298153Y0120785D01*
X0298128Y0120838D01*
X0298107Y0120893D01*
X0298089Y0120950D01*
X0298076Y0121007D01*
X0298066Y0121065D01*
X0298060Y0121123D01*
X0298058Y0121182D01*
X0307206Y0122757D02*
X0307206Y0119607D01*
X0307206Y0122757D02*
X0309568Y0122757D01*
X0315867Y0122757D02*
X0318229Y0122757D01*
X0318229Y0119607D01*
X0325764Y0122698D02*
X0325764Y0130296D01*
X0331561Y0130296D02*
X0331561Y0122698D01*
X0291261Y0100119D02*
X0291261Y0094607D01*
X0283387Y0094607D01*
X0283387Y0100119D01*
X0364292Y0067048D02*
X0367442Y0067048D01*
X0364292Y0067048D02*
X0364292Y0064686D01*
X0364292Y0058387D02*
X0364292Y0056024D01*
X0367442Y0056024D01*
X0401261Y0052599D02*
X0403072Y0052599D01*
X0402151Y0053820D01*
X0403072Y0052599D02*
X0404883Y0052599D01*
X0403931Y0053820D02*
X0403172Y0052660D01*
X0403992Y0070434D02*
X0403072Y0071654D01*
X0401261Y0071654D01*
X0402212Y0070434D02*
X0402972Y0071594D01*
X0403072Y0071654D02*
X0404883Y0071654D01*
X0404056Y0091261D02*
X0401694Y0091261D01*
X0401694Y0094410D01*
X0410355Y0091261D02*
X0412717Y0091261D01*
X0412717Y0094410D01*
X0424922Y0097166D02*
X0438702Y0097166D01*
X0434765Y0100316D02*
X0424922Y0100316D01*
X0424922Y0097166D01*
X0434765Y0100316D02*
X0434765Y0105040D01*
X0454450Y0105040D02*
X0454450Y0120788D01*
X0438702Y0128662D02*
X0424922Y0128662D01*
X0424922Y0125513D01*
X0434765Y0125513D01*
X0434765Y0120788D01*
X0412717Y0109765D02*
X0410355Y0109765D01*
X0412717Y0109765D02*
X0412717Y0106615D01*
X0404056Y0109765D02*
X0401694Y0109765D01*
X0401694Y0106615D01*
X0122426Y0056519D02*
X0122426Y0050019D01*
X0122424Y0049959D01*
X0122419Y0049898D01*
X0122410Y0049839D01*
X0122397Y0049780D01*
X0122381Y0049721D01*
X0122361Y0049664D01*
X0122338Y0049609D01*
X0122311Y0049554D01*
X0122282Y0049502D01*
X0122249Y0049451D01*
X0122213Y0049402D01*
X0122175Y0049356D01*
X0122133Y0049312D01*
X0122089Y0049270D01*
X0122043Y0049232D01*
X0121994Y0049196D01*
X0121943Y0049163D01*
X0121891Y0049134D01*
X0121836Y0049107D01*
X0121781Y0049084D01*
X0121724Y0049064D01*
X0121665Y0049048D01*
X0121606Y0049035D01*
X0121547Y0049026D01*
X0121486Y0049021D01*
X0121426Y0049019D01*
X0115426Y0049019D02*
X0115366Y0049021D01*
X0115305Y0049026D01*
X0115246Y0049035D01*
X0115187Y0049048D01*
X0115128Y0049064D01*
X0115071Y0049084D01*
X0115016Y0049107D01*
X0114961Y0049134D01*
X0114909Y0049163D01*
X0114858Y0049196D01*
X0114809Y0049232D01*
X0114763Y0049270D01*
X0114719Y0049312D01*
X0114677Y0049356D01*
X0114639Y0049402D01*
X0114603Y0049451D01*
X0114570Y0049502D01*
X0114541Y0049554D01*
X0114514Y0049609D01*
X0114491Y0049664D01*
X0114471Y0049721D01*
X0114455Y0049780D01*
X0114442Y0049839D01*
X0114433Y0049898D01*
X0114428Y0049959D01*
X0114426Y0050019D01*
X0114426Y0056519D01*
X0114428Y0056579D01*
X0114433Y0056640D01*
X0114442Y0056699D01*
X0114455Y0056758D01*
X0114471Y0056817D01*
X0114491Y0056874D01*
X0114514Y0056929D01*
X0114541Y0056984D01*
X0114570Y0057036D01*
X0114603Y0057087D01*
X0114639Y0057136D01*
X0114677Y0057182D01*
X0114719Y0057226D01*
X0114763Y0057268D01*
X0114809Y0057306D01*
X0114858Y0057342D01*
X0114909Y0057375D01*
X0114961Y0057404D01*
X0115016Y0057431D01*
X0115071Y0057454D01*
X0115128Y0057474D01*
X0115187Y0057490D01*
X0115246Y0057503D01*
X0115305Y0057512D01*
X0115366Y0057517D01*
X0115426Y0057519D01*
X0121426Y0057519D02*
X0121486Y0057517D01*
X0121547Y0057512D01*
X0121606Y0057503D01*
X0121665Y0057490D01*
X0121724Y0057474D01*
X0121781Y0057454D01*
X0121836Y0057431D01*
X0121891Y0057404D01*
X0121943Y0057375D01*
X0121994Y0057342D01*
X0122043Y0057306D01*
X0122089Y0057268D01*
X0122133Y0057226D01*
X0122175Y0057182D01*
X0122213Y0057136D01*
X0122249Y0057087D01*
X0122282Y0057036D01*
X0122311Y0056984D01*
X0122338Y0056929D01*
X0122361Y0056874D01*
X0122381Y0056817D01*
X0122397Y0056758D01*
X0122410Y0056699D01*
X0122419Y0056640D01*
X0122424Y0056579D01*
X0122426Y0056519D01*
X0100576Y0055928D02*
X0100576Y0049428D01*
X0100574Y0049368D01*
X0100569Y0049307D01*
X0100560Y0049248D01*
X0100547Y0049189D01*
X0100531Y0049130D01*
X0100511Y0049073D01*
X0100488Y0049018D01*
X0100461Y0048963D01*
X0100432Y0048911D01*
X0100399Y0048860D01*
X0100363Y0048811D01*
X0100325Y0048765D01*
X0100283Y0048721D01*
X0100239Y0048679D01*
X0100193Y0048641D01*
X0100144Y0048605D01*
X0100093Y0048572D01*
X0100041Y0048543D01*
X0099986Y0048516D01*
X0099931Y0048493D01*
X0099874Y0048473D01*
X0099815Y0048457D01*
X0099756Y0048444D01*
X0099697Y0048435D01*
X0099636Y0048430D01*
X0099576Y0048428D01*
X0093576Y0048428D02*
X0093516Y0048430D01*
X0093455Y0048435D01*
X0093396Y0048444D01*
X0093337Y0048457D01*
X0093278Y0048473D01*
X0093221Y0048493D01*
X0093166Y0048516D01*
X0093111Y0048543D01*
X0093059Y0048572D01*
X0093008Y0048605D01*
X0092959Y0048641D01*
X0092913Y0048679D01*
X0092869Y0048721D01*
X0092827Y0048765D01*
X0092789Y0048811D01*
X0092753Y0048860D01*
X0092720Y0048911D01*
X0092691Y0048963D01*
X0092664Y0049018D01*
X0092641Y0049073D01*
X0092621Y0049130D01*
X0092605Y0049189D01*
X0092592Y0049248D01*
X0092583Y0049307D01*
X0092578Y0049368D01*
X0092576Y0049428D01*
X0092576Y0055928D01*
X0092578Y0055988D01*
X0092583Y0056049D01*
X0092592Y0056108D01*
X0092605Y0056167D01*
X0092621Y0056226D01*
X0092641Y0056283D01*
X0092664Y0056338D01*
X0092691Y0056393D01*
X0092720Y0056445D01*
X0092753Y0056496D01*
X0092789Y0056545D01*
X0092827Y0056591D01*
X0092869Y0056635D01*
X0092913Y0056677D01*
X0092959Y0056715D01*
X0093008Y0056751D01*
X0093059Y0056784D01*
X0093111Y0056813D01*
X0093166Y0056840D01*
X0093221Y0056863D01*
X0093278Y0056883D01*
X0093337Y0056899D01*
X0093396Y0056912D01*
X0093455Y0056921D01*
X0093516Y0056926D01*
X0093576Y0056928D01*
X0099576Y0056928D02*
X0099636Y0056926D01*
X0099697Y0056921D01*
X0099756Y0056912D01*
X0099815Y0056899D01*
X0099874Y0056883D01*
X0099931Y0056863D01*
X0099986Y0056840D01*
X0100041Y0056813D01*
X0100093Y0056784D01*
X0100144Y0056751D01*
X0100193Y0056715D01*
X0100239Y0056677D01*
X0100283Y0056635D01*
X0100325Y0056591D01*
X0100363Y0056545D01*
X0100399Y0056496D01*
X0100432Y0056445D01*
X0100461Y0056393D01*
X0100488Y0056338D01*
X0100511Y0056283D01*
X0100531Y0056226D01*
X0100547Y0056167D01*
X0100560Y0056108D01*
X0100569Y0056049D01*
X0100574Y0055988D01*
X0100576Y0055928D01*
X0094253Y0094607D02*
X0090867Y0094607D01*
X0090867Y0098056D01*
X0094253Y0094607D01*
X0117639Y0094607D01*
X0117639Y0113505D01*
X0090867Y0113505D01*
X0090867Y0098056D01*
D16*
X0091040Y0082135D02*
X0091040Y0078733D01*
X0093843Y0078733D02*
X0093843Y0082135D01*
X0074946Y0082135D02*
X0074946Y0078733D01*
X0072143Y0078733D02*
X0072143Y0082135D01*
X0076276Y0066780D02*
X0076276Y0063379D01*
X0079080Y0063379D02*
X0079080Y0066780D01*
X0095174Y0066780D02*
X0095174Y0063379D01*
X0097977Y0063379D02*
X0097977Y0066780D01*
X0117024Y0066780D02*
X0117024Y0063379D01*
X0119828Y0063379D02*
X0119828Y0066780D01*
X0135922Y0066780D02*
X0135922Y0063379D01*
X0138725Y0063379D02*
X0138725Y0066780D01*
X0134591Y0078733D02*
X0134591Y0082135D01*
X0131788Y0082135D02*
X0131788Y0078733D01*
X0115694Y0078733D02*
X0115694Y0082135D01*
X0112891Y0082135D02*
X0112891Y0078733D01*
X0179606Y0090779D02*
X0179606Y0101979D01*
X0184806Y0101979D01*
X0184806Y0090779D01*
X0179606Y0090779D01*
X0181095Y0087150D02*
X0184497Y0087150D01*
X0184497Y0084347D02*
X0181095Y0084347D01*
X0194387Y0082135D02*
X0194387Y0078733D01*
X0197190Y0078733D02*
X0197190Y0082135D01*
X0204999Y0086624D02*
X0210199Y0086624D01*
X0210199Y0075424D01*
X0204999Y0075424D01*
X0204999Y0086624D01*
X0204999Y0089598D02*
X0204999Y0100798D01*
X0210199Y0100798D01*
X0210199Y0089598D01*
X0204999Y0089598D01*
X0197190Y0094087D02*
X0197190Y0097489D01*
X0194387Y0097489D02*
X0194387Y0094087D01*
X0205308Y0105017D02*
X0208709Y0105017D01*
X0208709Y0107820D02*
X0205308Y0107820D01*
X0253020Y0100753D02*
X0253020Y0057753D01*
X0253022Y0057693D01*
X0253027Y0057632D01*
X0253036Y0057573D01*
X0253049Y0057514D01*
X0253065Y0057455D01*
X0253085Y0057398D01*
X0253108Y0057343D01*
X0253135Y0057288D01*
X0253164Y0057236D01*
X0253197Y0057185D01*
X0253233Y0057136D01*
X0253271Y0057090D01*
X0253313Y0057046D01*
X0253357Y0057004D01*
X0253403Y0056966D01*
X0253452Y0056930D01*
X0253503Y0056897D01*
X0253555Y0056868D01*
X0253610Y0056841D01*
X0253665Y0056818D01*
X0253722Y0056798D01*
X0253781Y0056782D01*
X0253840Y0056769D01*
X0253899Y0056760D01*
X0253960Y0056755D01*
X0254020Y0056753D01*
X0258020Y0056753D01*
X0261020Y0056753D01*
X0261020Y0053753D01*
X0264020Y0053753D01*
X0264020Y0056753D01*
X0261020Y0056753D01*
X0264020Y0056753D02*
X0267020Y0056753D01*
X0271020Y0056753D01*
X0271080Y0056755D01*
X0271141Y0056760D01*
X0271200Y0056769D01*
X0271259Y0056782D01*
X0271318Y0056798D01*
X0271375Y0056818D01*
X0271430Y0056841D01*
X0271485Y0056868D01*
X0271537Y0056897D01*
X0271588Y0056930D01*
X0271637Y0056966D01*
X0271683Y0057004D01*
X0271727Y0057046D01*
X0271769Y0057090D01*
X0271807Y0057136D01*
X0271843Y0057185D01*
X0271876Y0057236D01*
X0271905Y0057288D01*
X0271932Y0057343D01*
X0271955Y0057398D01*
X0271975Y0057455D01*
X0271991Y0057514D01*
X0272004Y0057573D01*
X0272013Y0057632D01*
X0272018Y0057693D01*
X0272020Y0057753D01*
X0272020Y0100753D01*
X0272018Y0100813D01*
X0272013Y0100874D01*
X0272004Y0100933D01*
X0271991Y0100992D01*
X0271975Y0101051D01*
X0271955Y0101108D01*
X0271932Y0101163D01*
X0271905Y0101218D01*
X0271876Y0101270D01*
X0271843Y0101321D01*
X0271807Y0101370D01*
X0271769Y0101416D01*
X0271727Y0101460D01*
X0271683Y0101502D01*
X0271637Y0101540D01*
X0271588Y0101576D01*
X0271537Y0101609D01*
X0271485Y0101638D01*
X0271430Y0101665D01*
X0271375Y0101688D01*
X0271318Y0101708D01*
X0271259Y0101724D01*
X0271200Y0101737D01*
X0271141Y0101746D01*
X0271080Y0101751D01*
X0271020Y0101753D01*
X0267020Y0101753D01*
X0258020Y0101753D01*
X0254020Y0101753D01*
X0253960Y0101751D01*
X0253899Y0101746D01*
X0253840Y0101737D01*
X0253781Y0101724D01*
X0253722Y0101708D01*
X0253665Y0101688D01*
X0253610Y0101665D01*
X0253555Y0101638D01*
X0253503Y0101609D01*
X0253452Y0101576D01*
X0253403Y0101540D01*
X0253357Y0101502D01*
X0253313Y0101460D01*
X0253271Y0101416D01*
X0253233Y0101370D01*
X0253197Y0101321D01*
X0253164Y0101270D01*
X0253135Y0101218D01*
X0253108Y0101163D01*
X0253085Y0101108D01*
X0253065Y0101051D01*
X0253049Y0100992D01*
X0253036Y0100933D01*
X0253027Y0100874D01*
X0253022Y0100813D01*
X0253020Y0100753D01*
X0261020Y0101753D02*
X0261020Y0104753D01*
X0264020Y0104753D01*
X0264020Y0101753D01*
X0272631Y0110331D02*
X0276032Y0110331D01*
X0276032Y0113135D02*
X0272631Y0113135D01*
X0263349Y0112629D02*
X0258149Y0112629D01*
X0258149Y0123829D01*
X0263349Y0123829D01*
X0263349Y0112629D01*
X0297434Y0099552D02*
X0300835Y0099552D01*
X0300835Y0096749D02*
X0297434Y0096749D01*
X0303930Y0107379D02*
X0307331Y0107379D01*
X0307331Y0110182D02*
X0303930Y0110182D01*
X0307117Y0117401D02*
X0307117Y0122601D01*
X0318317Y0122601D01*
X0318317Y0117401D01*
X0307117Y0117401D01*
X0341434Y0126568D02*
X0341434Y0129969D01*
X0344237Y0129969D02*
X0344237Y0126568D01*
X0350292Y0126568D02*
X0350292Y0129969D01*
X0353095Y0129969D02*
X0353095Y0126568D01*
X0394583Y0108119D02*
X0394583Y0104717D01*
X0397387Y0104717D02*
X0397387Y0108119D01*
X0401606Y0109609D02*
X0412806Y0109609D01*
X0412806Y0104409D01*
X0401606Y0104409D01*
X0401606Y0109609D01*
X0401606Y0096617D02*
X0412806Y0096617D01*
X0412806Y0091417D01*
X0401606Y0091417D01*
X0401606Y0096617D01*
X0388237Y0087741D02*
X0384835Y0087741D01*
X0384835Y0084938D02*
X0388237Y0084938D01*
X0372599Y0086032D02*
X0372599Y0074835D01*
X0367402Y0074835D01*
X0367402Y0086032D01*
X0372599Y0086032D01*
X0353985Y0088481D02*
X0350583Y0088481D01*
X0350583Y0091284D02*
X0353985Y0091284D01*
X0353985Y0096749D02*
X0350583Y0096749D01*
X0350583Y0099552D02*
X0353985Y0099552D01*
X0335158Y0100513D02*
X0332796Y0100513D01*
X0332796Y0095788D02*
X0335158Y0095788D01*
X0384835Y0076520D02*
X0388237Y0076520D01*
X0388237Y0073717D02*
X0384835Y0073717D01*
X0369648Y0067136D02*
X0369648Y0055936D01*
X0364448Y0055936D01*
X0364448Y0067136D01*
X0369648Y0067136D01*
X0376276Y0063237D02*
X0376276Y0059835D01*
X0379080Y0059835D02*
X0379080Y0063237D01*
X0352568Y0067796D02*
X0352568Y0072993D01*
X0341371Y0072993D01*
X0341371Y0067796D01*
X0352568Y0067796D01*
X0438875Y0066331D02*
X0438875Y0069733D01*
X0441678Y0069733D02*
X0441678Y0066331D01*
X0441678Y0057331D02*
X0441678Y0053930D01*
X0438875Y0053930D02*
X0438875Y0057331D01*
X0265020Y0076753D02*
X0262520Y0076753D01*
X0260020Y0076753D01*
X0260020Y0078253D02*
X0260020Y0080253D01*
X0265020Y0080253D01*
X0265020Y0078253D01*
X0260020Y0078253D01*
X0260020Y0081753D02*
X0262520Y0081753D01*
X0265020Y0081753D01*
X0209300Y0070615D02*
X0205898Y0070615D01*
X0205898Y0067812D02*
X0209300Y0067812D01*
X0068450Y0114757D02*
X0068450Y0118158D01*
X0065646Y0118158D02*
X0065646Y0114757D01*
X0078623Y0123261D02*
X0078623Y0123631D01*
X0078623Y0123261D02*
X0078623Y0134457D01*
X0078623Y0134087D01*
X0078623Y0134457D02*
X0085001Y0134457D01*
X0085001Y0134087D01*
X0085001Y0134457D02*
X0085001Y0123261D01*
X0085001Y0123631D01*
X0085001Y0123261D02*
X0078623Y0123261D01*
X0078623Y0126804D02*
X0078623Y0127174D01*
X0085001Y0127174D02*
X0085001Y0126804D01*
X0085001Y0130544D02*
X0085001Y0130914D01*
X0079646Y0132796D02*
X0079648Y0132835D01*
X0079654Y0132874D01*
X0079664Y0132912D01*
X0079677Y0132949D01*
X0079694Y0132984D01*
X0079714Y0133018D01*
X0079738Y0133049D01*
X0079765Y0133078D01*
X0079794Y0133104D01*
X0079826Y0133127D01*
X0079860Y0133147D01*
X0079896Y0133163D01*
X0079933Y0133175D01*
X0079972Y0133184D01*
X0080011Y0133189D01*
X0080050Y0133190D01*
X0080089Y0133187D01*
X0080128Y0133180D01*
X0080165Y0133169D01*
X0080202Y0133155D01*
X0080237Y0133137D01*
X0080270Y0133116D01*
X0080301Y0133091D01*
X0080329Y0133064D01*
X0080354Y0133034D01*
X0080376Y0133001D01*
X0080395Y0132967D01*
X0080410Y0132931D01*
X0080422Y0132893D01*
X0080430Y0132855D01*
X0080434Y0132816D01*
X0080434Y0132776D01*
X0080430Y0132737D01*
X0080422Y0132699D01*
X0080410Y0132661D01*
X0080395Y0132625D01*
X0080376Y0132591D01*
X0080354Y0132558D01*
X0080329Y0132528D01*
X0080301Y0132501D01*
X0080270Y0132476D01*
X0080237Y0132455D01*
X0080202Y0132437D01*
X0080165Y0132423D01*
X0080128Y0132412D01*
X0080089Y0132405D01*
X0080050Y0132402D01*
X0080011Y0132403D01*
X0079972Y0132408D01*
X0079933Y0132417D01*
X0079896Y0132429D01*
X0079860Y0132445D01*
X0079826Y0132465D01*
X0079794Y0132488D01*
X0079765Y0132514D01*
X0079738Y0132543D01*
X0079714Y0132574D01*
X0079694Y0132608D01*
X0079677Y0132643D01*
X0079664Y0132680D01*
X0079654Y0132718D01*
X0079648Y0132757D01*
X0079646Y0132796D01*
X0078623Y0130914D02*
X0078623Y0130544D01*
D17*
X0067048Y0118957D03*
X0067048Y0113957D03*
X0073544Y0082934D03*
X0073544Y0077934D03*
X0092442Y0077934D03*
X0092442Y0082934D03*
X0114292Y0082934D03*
X0114292Y0077934D03*
X0133190Y0077934D03*
X0133190Y0082934D03*
X0137324Y0067580D03*
X0137324Y0062580D03*
X0118426Y0062580D03*
X0118426Y0067580D03*
X0096576Y0067580D03*
X0096576Y0062580D03*
X0077678Y0062580D03*
X0077678Y0067580D03*
X0195788Y0077934D03*
X0195788Y0082934D03*
X0195788Y0093288D03*
X0195788Y0098288D03*
X0342835Y0125769D03*
X0351694Y0125769D03*
X0351694Y0130769D03*
X0342835Y0130769D03*
X0395985Y0108918D03*
X0395985Y0103918D03*
X0440276Y0070532D03*
X0440276Y0065532D03*
X0440276Y0058131D03*
X0440276Y0053131D03*
X0377678Y0059036D03*
X0377678Y0064036D03*
D18*
X0384036Y0075119D03*
X0389036Y0075119D03*
X0389036Y0086339D03*
X0384036Y0086339D03*
X0354784Y0089883D03*
X0349784Y0089883D03*
X0349784Y0098150D03*
X0354784Y0098150D03*
X0308131Y0108780D03*
X0303131Y0108780D03*
X0301635Y0098150D03*
X0296635Y0098150D03*
X0276831Y0111733D03*
X0271831Y0111733D03*
X0209509Y0106418D03*
X0204509Y0106418D03*
X0185296Y0085749D03*
X0180296Y0085749D03*
X0205099Y0069213D03*
X0210099Y0069213D03*
D19*
X0241015Y0075887D03*
X0241015Y0080887D03*
X0241015Y0085887D03*
X0241015Y0090887D03*
D20*
X0219040Y0090887D03*
X0219040Y0085887D03*
X0219040Y0080887D03*
X0219040Y0075887D03*
D21*
X0238196Y0071790D02*
X0238165Y0071512D01*
X0238196Y0071233D01*
X0238289Y0070969D01*
X0238438Y0070732D01*
X0238636Y0070534D01*
X0238873Y0070385D01*
X0239137Y0070293D01*
X0239415Y0070262D01*
X0239693Y0070293D01*
X0239958Y0070385D01*
X0240195Y0070534D01*
X0240392Y0070732D01*
X0240541Y0070969D01*
X0240634Y0071233D01*
X0240665Y0071512D01*
X0240634Y0071790D01*
X0240541Y0072054D01*
X0240392Y0072291D01*
X0240195Y0072489D01*
X0239958Y0072638D01*
X0239693Y0072730D01*
X0239415Y0072762D01*
X0239137Y0072730D01*
X0238873Y0072638D01*
X0238636Y0072489D01*
X0238438Y0072291D01*
X0238289Y0072054D01*
X0238196Y0071790D01*
X0238197Y0071791D02*
X0240633Y0071791D01*
X0240635Y0071783D02*
X0238196Y0071783D01*
X0238195Y0071774D02*
X0240636Y0071774D01*
X0240637Y0071766D02*
X0238194Y0071766D01*
X0238193Y0071757D02*
X0240638Y0071757D01*
X0240638Y0071748D02*
X0238192Y0071748D01*
X0238191Y0071740D02*
X0240639Y0071740D01*
X0240640Y0071731D02*
X0238190Y0071731D01*
X0238189Y0071723D02*
X0240641Y0071723D01*
X0240642Y0071714D02*
X0238188Y0071714D01*
X0238187Y0071706D02*
X0240643Y0071706D01*
X0240644Y0071697D02*
X0238186Y0071697D01*
X0238185Y0071689D02*
X0240645Y0071689D01*
X0240646Y0071680D02*
X0238184Y0071680D01*
X0238183Y0071672D02*
X0240647Y0071672D01*
X0240648Y0071663D02*
X0238182Y0071663D01*
X0238181Y0071655D02*
X0240649Y0071655D01*
X0240650Y0071646D02*
X0238180Y0071646D01*
X0238179Y0071638D02*
X0240651Y0071638D01*
X0240652Y0071629D02*
X0238178Y0071629D01*
X0238177Y0071621D02*
X0240653Y0071621D01*
X0240654Y0071612D02*
X0238177Y0071612D01*
X0238176Y0071604D02*
X0240655Y0071604D01*
X0240656Y0071595D02*
X0238175Y0071595D01*
X0238174Y0071587D02*
X0240657Y0071587D01*
X0240658Y0071578D02*
X0238173Y0071578D01*
X0238172Y0071570D02*
X0240659Y0071570D01*
X0240660Y0071561D02*
X0238171Y0071561D01*
X0238170Y0071553D02*
X0240661Y0071553D01*
X0240662Y0071544D02*
X0238169Y0071544D01*
X0238168Y0071536D02*
X0240662Y0071536D01*
X0240663Y0071527D02*
X0238167Y0071527D01*
X0238166Y0071519D02*
X0240664Y0071519D01*
X0240665Y0071510D02*
X0238165Y0071510D01*
X0238166Y0071502D02*
X0240664Y0071502D01*
X0240663Y0071493D02*
X0238167Y0071493D01*
X0238168Y0071485D02*
X0240662Y0071485D01*
X0240661Y0071476D02*
X0238169Y0071476D01*
X0238170Y0071468D02*
X0240660Y0071468D01*
X0240659Y0071459D02*
X0238171Y0071459D01*
X0238172Y0071450D02*
X0240658Y0071450D01*
X0240657Y0071442D02*
X0238173Y0071442D01*
X0238174Y0071433D02*
X0240656Y0071433D01*
X0240655Y0071425D02*
X0238175Y0071425D01*
X0238176Y0071416D02*
X0240654Y0071416D01*
X0240653Y0071408D02*
X0238177Y0071408D01*
X0238178Y0071399D02*
X0240653Y0071399D01*
X0240652Y0071391D02*
X0238179Y0071391D01*
X0238180Y0071382D02*
X0240651Y0071382D01*
X0240650Y0071374D02*
X0238181Y0071374D01*
X0238182Y0071365D02*
X0240649Y0071365D01*
X0240648Y0071357D02*
X0238183Y0071357D01*
X0238184Y0071348D02*
X0240647Y0071348D01*
X0240646Y0071340D02*
X0238185Y0071340D01*
X0238185Y0071331D02*
X0240645Y0071331D01*
X0240644Y0071323D02*
X0238186Y0071323D01*
X0238187Y0071314D02*
X0240643Y0071314D01*
X0240642Y0071306D02*
X0238188Y0071306D01*
X0238189Y0071297D02*
X0240641Y0071297D01*
X0240640Y0071289D02*
X0238190Y0071289D01*
X0238191Y0071280D02*
X0240639Y0071280D01*
X0240638Y0071272D02*
X0238192Y0071272D01*
X0238193Y0071263D02*
X0240637Y0071263D01*
X0240636Y0071255D02*
X0238194Y0071255D01*
X0238195Y0071246D02*
X0240635Y0071246D01*
X0240634Y0071238D02*
X0238196Y0071238D01*
X0238198Y0071229D02*
X0240632Y0071229D01*
X0240629Y0071221D02*
X0238201Y0071221D01*
X0238204Y0071212D02*
X0240626Y0071212D01*
X0240623Y0071204D02*
X0238207Y0071204D01*
X0238210Y0071195D02*
X0240620Y0071195D01*
X0240617Y0071187D02*
X0238213Y0071187D01*
X0238216Y0071178D02*
X0240614Y0071178D01*
X0240611Y0071170D02*
X0238219Y0071170D01*
X0238222Y0071161D02*
X0240608Y0071161D01*
X0240605Y0071153D02*
X0238225Y0071153D01*
X0238228Y0071144D02*
X0240603Y0071144D01*
X0240600Y0071135D02*
X0238231Y0071135D01*
X0238234Y0071127D02*
X0240597Y0071127D01*
X0240594Y0071118D02*
X0238237Y0071118D01*
X0238240Y0071110D02*
X0240591Y0071110D01*
X0240588Y0071101D02*
X0238243Y0071101D01*
X0238246Y0071093D02*
X0240585Y0071093D01*
X0240582Y0071084D02*
X0238249Y0071084D01*
X0238252Y0071076D02*
X0240579Y0071076D01*
X0240576Y0071067D02*
X0238255Y0071067D01*
X0238258Y0071059D02*
X0240573Y0071059D01*
X0240570Y0071050D02*
X0238261Y0071050D01*
X0238264Y0071042D02*
X0240567Y0071042D01*
X0240564Y0071033D02*
X0238267Y0071033D01*
X0238270Y0071025D02*
X0240561Y0071025D01*
X0240558Y0071016D02*
X0238272Y0071016D01*
X0238275Y0071008D02*
X0240555Y0071008D01*
X0240552Y0070999D02*
X0238278Y0070999D01*
X0238281Y0070991D02*
X0240549Y0070991D01*
X0240546Y0070982D02*
X0238284Y0070982D01*
X0238287Y0070974D02*
X0240543Y0070974D01*
X0240539Y0070965D02*
X0238291Y0070965D01*
X0238297Y0070957D02*
X0240533Y0070957D01*
X0240528Y0070948D02*
X0238302Y0070948D01*
X0238308Y0070940D02*
X0240523Y0070940D01*
X0240517Y0070931D02*
X0238313Y0070931D01*
X0238318Y0070923D02*
X0240512Y0070923D01*
X0240507Y0070914D02*
X0238324Y0070914D01*
X0238329Y0070906D02*
X0240501Y0070906D01*
X0240496Y0070897D02*
X0238334Y0070897D01*
X0238340Y0070889D02*
X0240491Y0070889D01*
X0240485Y0070880D02*
X0238345Y0070880D01*
X0238350Y0070872D02*
X0240480Y0070872D01*
X0240475Y0070863D02*
X0238356Y0070863D01*
X0238361Y0070855D02*
X0240469Y0070855D01*
X0240464Y0070846D02*
X0238366Y0070846D01*
X0238372Y0070838D02*
X0240459Y0070838D01*
X0240453Y0070829D02*
X0238377Y0070829D01*
X0238382Y0070820D02*
X0240448Y0070820D01*
X0240443Y0070812D02*
X0238388Y0070812D01*
X0238393Y0070803D02*
X0240437Y0070803D01*
X0240432Y0070795D02*
X0238398Y0070795D01*
X0238404Y0070786D02*
X0240426Y0070786D01*
X0240421Y0070778D02*
X0238409Y0070778D01*
X0238415Y0070769D02*
X0240416Y0070769D01*
X0240410Y0070761D02*
X0238420Y0070761D01*
X0238425Y0070752D02*
X0240405Y0070752D01*
X0240400Y0070744D02*
X0238431Y0070744D01*
X0238436Y0070735D02*
X0240394Y0070735D01*
X0240387Y0070727D02*
X0238443Y0070727D01*
X0238452Y0070718D02*
X0240379Y0070718D01*
X0240370Y0070710D02*
X0238460Y0070710D01*
X0238469Y0070701D02*
X0240361Y0070701D01*
X0240353Y0070693D02*
X0238477Y0070693D01*
X0238486Y0070684D02*
X0240344Y0070684D01*
X0240336Y0070676D02*
X0238494Y0070676D01*
X0238503Y0070667D02*
X0240327Y0070667D01*
X0240319Y0070659D02*
X0238511Y0070659D01*
X0238520Y0070650D02*
X0240310Y0070650D01*
X0240302Y0070642D02*
X0238528Y0070642D01*
X0238537Y0070633D02*
X0240293Y0070633D01*
X0240285Y0070625D02*
X0238545Y0070625D01*
X0238554Y0070616D02*
X0240276Y0070616D01*
X0240268Y0070608D02*
X0238562Y0070608D01*
X0238571Y0070599D02*
X0240259Y0070599D01*
X0240251Y0070591D02*
X0238580Y0070591D01*
X0238588Y0070582D02*
X0240242Y0070582D01*
X0240234Y0070574D02*
X0238597Y0070574D01*
X0238605Y0070565D02*
X0240225Y0070565D01*
X0240217Y0070557D02*
X0238614Y0070557D01*
X0238622Y0070548D02*
X0240208Y0070548D01*
X0240200Y0070540D02*
X0238631Y0070540D01*
X0238641Y0070531D02*
X0240189Y0070531D01*
X0240176Y0070522D02*
X0238655Y0070522D01*
X0238668Y0070514D02*
X0240162Y0070514D01*
X0240149Y0070505D02*
X0238682Y0070505D01*
X0238695Y0070497D02*
X0240135Y0070497D01*
X0240121Y0070488D02*
X0238709Y0070488D01*
X0238722Y0070480D02*
X0240108Y0070480D01*
X0240094Y0070471D02*
X0238736Y0070471D01*
X0238749Y0070463D02*
X0240081Y0070463D01*
X0240067Y0070454D02*
X0238763Y0070454D01*
X0238777Y0070446D02*
X0240054Y0070446D01*
X0240040Y0070437D02*
X0238790Y0070437D01*
X0238804Y0070429D02*
X0240027Y0070429D01*
X0240013Y0070420D02*
X0238817Y0070420D01*
X0238831Y0070412D02*
X0240000Y0070412D01*
X0239986Y0070403D02*
X0238844Y0070403D01*
X0238858Y0070395D02*
X0239972Y0070395D01*
X0239959Y0070386D02*
X0238871Y0070386D01*
X0238895Y0070378D02*
X0239936Y0070378D01*
X0239911Y0070369D02*
X0238919Y0070369D01*
X0238943Y0070361D02*
X0239887Y0070361D01*
X0239863Y0070352D02*
X0238968Y0070352D01*
X0238992Y0070344D02*
X0239838Y0070344D01*
X0239814Y0070335D02*
X0239016Y0070335D01*
X0239041Y0070327D02*
X0239790Y0070327D01*
X0239765Y0070318D02*
X0239065Y0070318D01*
X0239089Y0070310D02*
X0239741Y0070310D01*
X0239717Y0070301D02*
X0239114Y0070301D01*
X0239140Y0070293D02*
X0239690Y0070293D01*
X0239615Y0070284D02*
X0239216Y0070284D01*
X0239291Y0070276D02*
X0239539Y0070276D01*
X0239464Y0070267D02*
X0239367Y0070267D01*
X0238200Y0071800D02*
X0240630Y0071800D01*
X0240627Y0071808D02*
X0238203Y0071808D01*
X0238206Y0071817D02*
X0240624Y0071817D01*
X0240621Y0071825D02*
X0238209Y0071825D01*
X0238212Y0071834D02*
X0240618Y0071834D01*
X0240616Y0071842D02*
X0238215Y0071842D01*
X0238218Y0071851D02*
X0240613Y0071851D01*
X0240610Y0071859D02*
X0238221Y0071859D01*
X0238224Y0071868D02*
X0240607Y0071868D01*
X0240604Y0071876D02*
X0238227Y0071876D01*
X0238230Y0071885D02*
X0240601Y0071885D01*
X0240598Y0071893D02*
X0238233Y0071893D01*
X0238236Y0071902D02*
X0240595Y0071902D01*
X0240592Y0071910D02*
X0238239Y0071910D01*
X0238242Y0071919D02*
X0240589Y0071919D01*
X0240586Y0071927D02*
X0238245Y0071927D01*
X0238248Y0071936D02*
X0240583Y0071936D01*
X0240580Y0071944D02*
X0238251Y0071944D01*
X0238254Y0071953D02*
X0240577Y0071953D01*
X0240574Y0071961D02*
X0238257Y0071961D01*
X0238260Y0071970D02*
X0240571Y0071970D01*
X0240568Y0071978D02*
X0238262Y0071978D01*
X0238265Y0071987D02*
X0240565Y0071987D01*
X0240562Y0071995D02*
X0238268Y0071995D01*
X0238271Y0072004D02*
X0240559Y0072004D01*
X0240556Y0072012D02*
X0238274Y0072012D01*
X0238277Y0072021D02*
X0240553Y0072021D01*
X0240550Y0072029D02*
X0238280Y0072029D01*
X0238283Y0072038D02*
X0240547Y0072038D01*
X0240544Y0072046D02*
X0238286Y0072046D01*
X0238290Y0072055D02*
X0240541Y0072055D01*
X0240535Y0072063D02*
X0238295Y0072063D01*
X0238300Y0072072D02*
X0240530Y0072072D01*
X0240525Y0072081D02*
X0238306Y0072081D01*
X0238311Y0072089D02*
X0240519Y0072089D01*
X0240514Y0072098D02*
X0238316Y0072098D01*
X0238322Y0072106D02*
X0240509Y0072106D01*
X0240503Y0072115D02*
X0238327Y0072115D01*
X0238332Y0072123D02*
X0240498Y0072123D01*
X0240493Y0072132D02*
X0238338Y0072132D01*
X0238343Y0072140D02*
X0240487Y0072140D01*
X0240482Y0072149D02*
X0238348Y0072149D01*
X0238354Y0072157D02*
X0240477Y0072157D01*
X0240471Y0072166D02*
X0238359Y0072166D01*
X0238364Y0072174D02*
X0240466Y0072174D01*
X0240461Y0072183D02*
X0238370Y0072183D01*
X0238375Y0072191D02*
X0240455Y0072191D01*
X0240450Y0072200D02*
X0238381Y0072200D01*
X0238386Y0072208D02*
X0240444Y0072208D01*
X0240439Y0072217D02*
X0238391Y0072217D01*
X0238397Y0072225D02*
X0240434Y0072225D01*
X0240428Y0072234D02*
X0238402Y0072234D01*
X0238407Y0072242D02*
X0240423Y0072242D01*
X0240418Y0072251D02*
X0238413Y0072251D01*
X0238418Y0072259D02*
X0240412Y0072259D01*
X0240407Y0072268D02*
X0238423Y0072268D01*
X0238429Y0072276D02*
X0240402Y0072276D01*
X0240396Y0072285D02*
X0238434Y0072285D01*
X0238440Y0072293D02*
X0240390Y0072293D01*
X0240382Y0072302D02*
X0238449Y0072302D01*
X0238457Y0072310D02*
X0240373Y0072310D01*
X0240365Y0072319D02*
X0238466Y0072319D01*
X0238474Y0072327D02*
X0240356Y0072327D01*
X0240348Y0072336D02*
X0238483Y0072336D01*
X0238491Y0072344D02*
X0240339Y0072344D01*
X0240330Y0072353D02*
X0238500Y0072353D01*
X0238508Y0072361D02*
X0240322Y0072361D01*
X0240313Y0072370D02*
X0238517Y0072370D01*
X0238525Y0072378D02*
X0240305Y0072378D01*
X0240296Y0072387D02*
X0238534Y0072387D01*
X0238542Y0072396D02*
X0240288Y0072396D01*
X0240279Y0072404D02*
X0238551Y0072404D01*
X0238559Y0072413D02*
X0240271Y0072413D01*
X0240262Y0072421D02*
X0238568Y0072421D01*
X0238576Y0072430D02*
X0240254Y0072430D01*
X0240245Y0072438D02*
X0238585Y0072438D01*
X0238593Y0072447D02*
X0240237Y0072447D01*
X0240228Y0072455D02*
X0238602Y0072455D01*
X0238611Y0072464D02*
X0240220Y0072464D01*
X0240211Y0072472D02*
X0238619Y0072472D01*
X0238628Y0072481D02*
X0240203Y0072481D01*
X0240194Y0072489D02*
X0238636Y0072489D01*
X0238650Y0072498D02*
X0240181Y0072498D01*
X0240167Y0072506D02*
X0238663Y0072506D01*
X0238677Y0072515D02*
X0240153Y0072515D01*
X0240140Y0072523D02*
X0238690Y0072523D01*
X0238704Y0072532D02*
X0240126Y0072532D01*
X0240113Y0072540D02*
X0238718Y0072540D01*
X0238731Y0072549D02*
X0240099Y0072549D01*
X0240086Y0072557D02*
X0238745Y0072557D01*
X0238758Y0072566D02*
X0240072Y0072566D01*
X0240059Y0072574D02*
X0238772Y0072574D01*
X0238785Y0072583D02*
X0240045Y0072583D01*
X0240031Y0072591D02*
X0238799Y0072591D01*
X0238812Y0072600D02*
X0240018Y0072600D01*
X0240004Y0072608D02*
X0238826Y0072608D01*
X0238839Y0072617D02*
X0239991Y0072617D01*
X0239977Y0072625D02*
X0238853Y0072625D01*
X0238867Y0072634D02*
X0239964Y0072634D01*
X0239944Y0072642D02*
X0238886Y0072642D01*
X0238910Y0072651D02*
X0239920Y0072651D01*
X0239896Y0072659D02*
X0238935Y0072659D01*
X0238959Y0072668D02*
X0239871Y0072668D01*
X0239847Y0072676D02*
X0238983Y0072676D01*
X0239008Y0072685D02*
X0239823Y0072685D01*
X0239798Y0072694D02*
X0239032Y0072694D01*
X0239056Y0072702D02*
X0239774Y0072702D01*
X0239750Y0072711D02*
X0239081Y0072711D01*
X0239105Y0072719D02*
X0239725Y0072719D01*
X0239701Y0072728D02*
X0239129Y0072728D01*
X0239188Y0072736D02*
X0239642Y0072736D01*
X0239566Y0072745D02*
X0239264Y0072745D01*
X0239340Y0072753D02*
X0239491Y0072753D01*
D22*
X0331662Y0090493D03*
X0336262Y0090493D03*
X0372410Y0134194D03*
X0377010Y0134194D03*
X0136686Y0134744D03*
X0132086Y0134744D03*
X0132086Y0126477D03*
X0136686Y0126477D03*
X0136686Y0118209D03*
X0132086Y0118209D03*
X0132086Y0109941D03*
X0136686Y0109941D03*
X0136686Y0101674D03*
X0132086Y0101674D03*
X0132086Y0093406D03*
X0136686Y0093406D03*
X0084127Y0117619D03*
X0079527Y0117619D03*
X0068773Y0129430D03*
X0064173Y0129430D03*
X0095441Y0133013D03*
X0100041Y0133013D03*
D23*
X0342840Y0115738D03*
X0351698Y0115738D03*
X0360556Y0115738D03*
X0360556Y0110038D03*
X0351698Y0110038D03*
X0342840Y0110038D03*
X0393028Y0121311D03*
X0401295Y0121311D03*
X0401295Y0127011D03*
X0393028Y0127011D03*
D24*
X0295001Y0127087D03*
D25*
X0298347Y0126103D03*
X0298347Y0128072D03*
X0298347Y0130040D03*
X0291654Y0130040D03*
X0291654Y0128072D03*
X0291654Y0126103D03*
X0291654Y0124135D03*
X0298347Y0124135D03*
D26*
X0262982Y0132398D03*
X0257282Y0132398D03*
D27*
X0244800Y0129358D03*
X0244807Y0118911D03*
X0328666Y0121273D03*
X0328659Y0131720D03*
D28*
X0324331Y0082599D02*
X0321969Y0082599D01*
X0299922Y0082599D01*
X0297560Y0082599D01*
X0297560Y0080237D01*
X0297560Y0058190D01*
X0297560Y0055828D01*
X0299922Y0055828D01*
X0321969Y0055828D01*
X0324331Y0055828D01*
X0324331Y0058190D01*
X0324331Y0080237D01*
X0324331Y0082599D01*
X0301465Y0078072D02*
X0301467Y0078121D01*
X0301473Y0078171D01*
X0301483Y0078219D01*
X0301496Y0078267D01*
X0301514Y0078313D01*
X0301534Y0078358D01*
X0301559Y0078401D01*
X0301587Y0078442D01*
X0301618Y0078480D01*
X0301652Y0078516D01*
X0301688Y0078549D01*
X0301727Y0078580D01*
X0301769Y0078606D01*
X0301812Y0078630D01*
X0301858Y0078650D01*
X0301904Y0078667D01*
X0301952Y0078679D01*
X0302001Y0078688D01*
X0302050Y0078693D01*
X0302099Y0078694D01*
X0302149Y0078691D01*
X0302198Y0078684D01*
X0302246Y0078673D01*
X0302293Y0078659D01*
X0302339Y0078641D01*
X0302384Y0078619D01*
X0302426Y0078593D01*
X0302466Y0078565D01*
X0302504Y0078533D01*
X0302540Y0078499D01*
X0302572Y0078461D01*
X0302602Y0078421D01*
X0302628Y0078379D01*
X0302650Y0078335D01*
X0302670Y0078290D01*
X0302685Y0078243D01*
X0302697Y0078195D01*
X0302705Y0078146D01*
X0302709Y0078097D01*
X0302709Y0078047D01*
X0302705Y0077998D01*
X0302697Y0077949D01*
X0302685Y0077901D01*
X0302670Y0077854D01*
X0302650Y0077809D01*
X0302628Y0077765D01*
X0302602Y0077723D01*
X0302572Y0077683D01*
X0302540Y0077645D01*
X0302504Y0077611D01*
X0302466Y0077579D01*
X0302426Y0077551D01*
X0302384Y0077525D01*
X0302339Y0077503D01*
X0302293Y0077485D01*
X0302246Y0077471D01*
X0302198Y0077460D01*
X0302149Y0077453D01*
X0302099Y0077450D01*
X0302050Y0077451D01*
X0302001Y0077456D01*
X0301952Y0077465D01*
X0301904Y0077477D01*
X0301858Y0077494D01*
X0301812Y0077514D01*
X0301769Y0077538D01*
X0301727Y0077564D01*
X0301688Y0077595D01*
X0301652Y0077628D01*
X0301618Y0077664D01*
X0301587Y0077702D01*
X0301559Y0077743D01*
X0301534Y0077786D01*
X0301514Y0077831D01*
X0301496Y0077877D01*
X0301483Y0077925D01*
X0301473Y0077973D01*
X0301467Y0078023D01*
X0301465Y0078072D01*
D29*
X0298150Y0079056D03*
X0298150Y0077087D03*
X0298150Y0075119D03*
X0298150Y0073150D03*
X0298150Y0071182D03*
X0298150Y0069213D03*
X0298150Y0067245D03*
X0298150Y0065276D03*
X0298150Y0063308D03*
X0298150Y0061339D03*
X0298150Y0059371D03*
X0323741Y0059371D03*
X0323741Y0061339D03*
X0323741Y0063308D03*
X0323741Y0065276D03*
X0323741Y0067245D03*
X0323741Y0069213D03*
X0323741Y0071182D03*
X0323741Y0073150D03*
X0323741Y0075119D03*
X0323741Y0077087D03*
X0323741Y0079056D03*
D30*
X0320788Y0082009D03*
X0318820Y0082009D03*
X0316851Y0082009D03*
X0314883Y0082009D03*
X0312914Y0082009D03*
X0310946Y0082009D03*
X0308977Y0082009D03*
X0307009Y0082009D03*
X0305040Y0082009D03*
X0303072Y0082009D03*
X0301103Y0082009D03*
X0301103Y0056418D03*
X0303072Y0056418D03*
X0305040Y0056418D03*
X0307009Y0056418D03*
X0308977Y0056418D03*
X0310946Y0056418D03*
X0312914Y0056418D03*
X0314883Y0056418D03*
X0316851Y0056418D03*
X0318820Y0056418D03*
X0320788Y0056418D03*
D31*
X0418810Y0054080D03*
D32*
X0270520Y0065753D02*
X0270520Y0092753D01*
X0267520Y0092753D02*
X0267520Y0065753D01*
X0267020Y0059139D02*
X0266857Y0059031D01*
X0266692Y0058927D01*
X0266524Y0058827D01*
X0266354Y0058732D01*
X0266182Y0058640D01*
X0266008Y0058553D01*
X0265831Y0058470D01*
X0265652Y0058392D01*
X0265472Y0058318D01*
X0265290Y0058248D01*
X0265106Y0058183D01*
X0264921Y0058122D01*
X0264734Y0058065D01*
X0264546Y0058014D01*
X0264357Y0057967D01*
X0264166Y0057924D01*
X0263975Y0057886D01*
X0263783Y0057853D01*
X0263590Y0057825D01*
X0263396Y0057801D01*
X0263202Y0057782D01*
X0263007Y0057768D01*
X0262813Y0057758D01*
X0262618Y0057754D01*
X0262422Y0057754D01*
X0262227Y0057758D01*
X0262033Y0057768D01*
X0261838Y0057782D01*
X0261644Y0057801D01*
X0261450Y0057825D01*
X0261257Y0057853D01*
X0261065Y0057886D01*
X0260874Y0057924D01*
X0260683Y0057967D01*
X0260494Y0058014D01*
X0260306Y0058065D01*
X0260119Y0058122D01*
X0259934Y0058183D01*
X0259750Y0058248D01*
X0259568Y0058318D01*
X0259388Y0058392D01*
X0259209Y0058470D01*
X0259032Y0058553D01*
X0258858Y0058640D01*
X0258686Y0058732D01*
X0258516Y0058827D01*
X0258348Y0058927D01*
X0258183Y0059031D01*
X0258020Y0059139D01*
X0257520Y0065753D02*
X0257520Y0092753D01*
X0254520Y0092753D02*
X0254520Y0065753D01*
X0257520Y0065753D02*
X0257522Y0065620D01*
X0257527Y0065488D01*
X0257536Y0065356D01*
X0257548Y0065223D01*
X0257564Y0065092D01*
X0257583Y0064960D01*
X0257606Y0064830D01*
X0257632Y0064700D01*
X0257662Y0064570D01*
X0257695Y0064442D01*
X0257731Y0064314D01*
X0257771Y0064188D01*
X0257814Y0064062D01*
X0257861Y0063938D01*
X0257911Y0063815D01*
X0257964Y0063694D01*
X0258020Y0063574D01*
X0267020Y0059139D02*
X0267180Y0059250D01*
X0267336Y0059365D01*
X0267490Y0059484D01*
X0267642Y0059607D01*
X0267790Y0059734D01*
X0267934Y0059864D01*
X0268076Y0059997D01*
X0268215Y0060134D01*
X0268350Y0060274D01*
X0268481Y0060418D01*
X0268609Y0060564D01*
X0268734Y0060714D01*
X0268854Y0060867D01*
X0268971Y0061022D01*
X0269085Y0061181D01*
X0269194Y0061342D01*
X0269299Y0061506D01*
X0269401Y0061672D01*
X0269498Y0061840D01*
X0269591Y0062011D01*
X0269680Y0062185D01*
X0269765Y0062360D01*
X0269845Y0062537D01*
X0269921Y0062716D01*
X0269993Y0062897D01*
X0270060Y0063080D01*
X0270123Y0063264D01*
X0270181Y0063450D01*
X0270235Y0063637D01*
X0270284Y0063826D01*
X0270329Y0064015D01*
X0270369Y0064206D01*
X0270404Y0064397D01*
X0270435Y0064589D01*
X0270461Y0064782D01*
X0270482Y0064976D01*
X0270499Y0065170D01*
X0270511Y0065364D01*
X0270518Y0065559D01*
X0270520Y0065753D01*
X0267520Y0065753D02*
X0267518Y0065620D01*
X0267513Y0065488D01*
X0267504Y0065356D01*
X0267492Y0065223D01*
X0267476Y0065092D01*
X0267457Y0064960D01*
X0267434Y0064830D01*
X0267408Y0064700D01*
X0267378Y0064570D01*
X0267345Y0064442D01*
X0267309Y0064314D01*
X0267269Y0064188D01*
X0267226Y0064062D01*
X0267179Y0063938D01*
X0267129Y0063815D01*
X0267076Y0063694D01*
X0267020Y0063574D01*
X0267020Y0063573D02*
X0266957Y0063448D01*
X0266891Y0063325D01*
X0266821Y0063204D01*
X0266748Y0063084D01*
X0266672Y0062967D01*
X0266592Y0062852D01*
X0266509Y0062739D01*
X0266424Y0062629D01*
X0266335Y0062521D01*
X0266243Y0062415D01*
X0266148Y0062312D01*
X0266050Y0062212D01*
X0265949Y0062115D01*
X0265846Y0062020D01*
X0265741Y0061928D01*
X0265632Y0061840D01*
X0265521Y0061754D01*
X0265408Y0061672D01*
X0265293Y0061592D01*
X0265175Y0061516D01*
X0265056Y0061444D01*
X0264934Y0061374D01*
X0264811Y0061309D01*
X0264685Y0061246D01*
X0264558Y0061187D01*
X0264430Y0061132D01*
X0264300Y0061080D01*
X0264168Y0061032D01*
X0264035Y0060988D01*
X0263901Y0060948D01*
X0263766Y0060911D01*
X0263630Y0060878D01*
X0263494Y0060849D01*
X0263356Y0060823D01*
X0263218Y0060802D01*
X0263079Y0060784D01*
X0262939Y0060771D01*
X0262800Y0060761D01*
X0262660Y0060755D01*
X0262520Y0060753D01*
X0262380Y0060755D01*
X0262240Y0060761D01*
X0262101Y0060771D01*
X0261961Y0060784D01*
X0261822Y0060802D01*
X0261684Y0060823D01*
X0261546Y0060849D01*
X0261410Y0060878D01*
X0261274Y0060911D01*
X0261139Y0060948D01*
X0261005Y0060988D01*
X0260872Y0061032D01*
X0260740Y0061080D01*
X0260610Y0061132D01*
X0260482Y0061187D01*
X0260355Y0061246D01*
X0260229Y0061309D01*
X0260106Y0061374D01*
X0259984Y0061444D01*
X0259865Y0061516D01*
X0259747Y0061592D01*
X0259632Y0061672D01*
X0259519Y0061754D01*
X0259408Y0061840D01*
X0259299Y0061928D01*
X0259194Y0062020D01*
X0259091Y0062115D01*
X0258990Y0062212D01*
X0258892Y0062312D01*
X0258797Y0062415D01*
X0258705Y0062521D01*
X0258616Y0062629D01*
X0258531Y0062739D01*
X0258448Y0062852D01*
X0258368Y0062967D01*
X0258292Y0063084D01*
X0258219Y0063204D01*
X0258149Y0063325D01*
X0258083Y0063448D01*
X0258020Y0063573D01*
X0254520Y0065753D02*
X0254522Y0065558D01*
X0254529Y0065364D01*
X0254541Y0065169D01*
X0254558Y0064975D01*
X0254579Y0064782D01*
X0254605Y0064589D01*
X0254636Y0064397D01*
X0254671Y0064205D01*
X0254711Y0064015D01*
X0254756Y0063825D01*
X0254805Y0063637D01*
X0254859Y0063450D01*
X0254917Y0063264D01*
X0254980Y0063080D01*
X0255047Y0062897D01*
X0255119Y0062716D01*
X0255195Y0062537D01*
X0255275Y0062360D01*
X0255360Y0062184D01*
X0255449Y0062011D01*
X0255542Y0061840D01*
X0255639Y0061672D01*
X0255741Y0061505D01*
X0255846Y0061342D01*
X0255956Y0061181D01*
X0256069Y0061022D01*
X0256186Y0060867D01*
X0256307Y0060714D01*
X0256431Y0060564D01*
X0256559Y0060418D01*
X0256691Y0060274D01*
X0256826Y0060134D01*
X0256964Y0059997D01*
X0257106Y0059864D01*
X0257251Y0059734D01*
X0257399Y0059607D01*
X0257550Y0059484D01*
X0257704Y0059365D01*
X0257861Y0059250D01*
X0258020Y0059138D01*
X0262520Y0075253D02*
X0262520Y0076753D01*
X0262520Y0081753D02*
X0262520Y0083253D01*
X0270520Y0092752D02*
X0270518Y0092947D01*
X0270511Y0093142D01*
X0270499Y0093336D01*
X0270482Y0093530D01*
X0270461Y0093723D01*
X0270435Y0093916D01*
X0270404Y0094109D01*
X0270369Y0094300D01*
X0270329Y0094491D01*
X0270284Y0094680D01*
X0270235Y0094868D01*
X0270181Y0095056D01*
X0270123Y0095241D01*
X0270060Y0095426D01*
X0269993Y0095608D01*
X0269921Y0095789D01*
X0269845Y0095968D01*
X0269765Y0096146D01*
X0269680Y0096321D01*
X0269591Y0096494D01*
X0269498Y0096665D01*
X0269400Y0096834D01*
X0269299Y0097000D01*
X0269194Y0097164D01*
X0269084Y0097325D01*
X0268971Y0097483D01*
X0268854Y0097639D01*
X0268733Y0097791D01*
X0268609Y0097941D01*
X0268481Y0098088D01*
X0268349Y0098231D01*
X0268214Y0098371D01*
X0268076Y0098508D01*
X0267934Y0098642D01*
X0267789Y0098772D01*
X0267641Y0098898D01*
X0267490Y0099021D01*
X0267336Y0099140D01*
X0267179Y0099255D01*
X0267020Y0099367D01*
X0258020Y0099367D02*
X0257860Y0099256D01*
X0257704Y0099141D01*
X0257550Y0099022D01*
X0257398Y0098899D01*
X0257250Y0098772D01*
X0257106Y0098642D01*
X0256964Y0098509D01*
X0256825Y0098372D01*
X0256690Y0098232D01*
X0256559Y0098088D01*
X0256431Y0097942D01*
X0256306Y0097792D01*
X0256186Y0097639D01*
X0256069Y0097484D01*
X0255955Y0097325D01*
X0255846Y0097164D01*
X0255741Y0097000D01*
X0255639Y0096834D01*
X0255542Y0096666D01*
X0255449Y0096495D01*
X0255360Y0096321D01*
X0255275Y0096146D01*
X0255195Y0095969D01*
X0255119Y0095790D01*
X0255047Y0095609D01*
X0254980Y0095426D01*
X0254917Y0095242D01*
X0254859Y0095056D01*
X0254805Y0094869D01*
X0254756Y0094680D01*
X0254711Y0094491D01*
X0254671Y0094300D01*
X0254636Y0094109D01*
X0254605Y0093917D01*
X0254579Y0093724D01*
X0254558Y0093530D01*
X0254541Y0093336D01*
X0254529Y0093142D01*
X0254522Y0092947D01*
X0254520Y0092753D01*
X0257520Y0092753D02*
X0257522Y0092886D01*
X0257527Y0093018D01*
X0257536Y0093150D01*
X0257548Y0093283D01*
X0257564Y0093414D01*
X0257583Y0093546D01*
X0257606Y0093676D01*
X0257632Y0093806D01*
X0257662Y0093936D01*
X0257695Y0094064D01*
X0257731Y0094192D01*
X0257771Y0094318D01*
X0257814Y0094444D01*
X0257861Y0094568D01*
X0257911Y0094691D01*
X0257964Y0094812D01*
X0258020Y0094932D01*
X0267020Y0094932D02*
X0267076Y0094812D01*
X0267129Y0094691D01*
X0267179Y0094568D01*
X0267226Y0094444D01*
X0267269Y0094318D01*
X0267309Y0094192D01*
X0267345Y0094064D01*
X0267378Y0093936D01*
X0267408Y0093806D01*
X0267434Y0093676D01*
X0267457Y0093546D01*
X0267476Y0093414D01*
X0267492Y0093283D01*
X0267504Y0093150D01*
X0267513Y0093018D01*
X0267518Y0092886D01*
X0267520Y0092753D01*
X0267020Y0099367D02*
X0266857Y0099475D01*
X0266692Y0099579D01*
X0266524Y0099679D01*
X0266354Y0099774D01*
X0266182Y0099866D01*
X0266008Y0099953D01*
X0265831Y0100036D01*
X0265652Y0100114D01*
X0265472Y0100188D01*
X0265290Y0100258D01*
X0265106Y0100323D01*
X0264921Y0100384D01*
X0264734Y0100441D01*
X0264546Y0100492D01*
X0264357Y0100539D01*
X0264166Y0100582D01*
X0263975Y0100620D01*
X0263783Y0100653D01*
X0263590Y0100681D01*
X0263396Y0100705D01*
X0263202Y0100724D01*
X0263007Y0100738D01*
X0262813Y0100748D01*
X0262618Y0100752D01*
X0262422Y0100752D01*
X0262227Y0100748D01*
X0262033Y0100738D01*
X0261838Y0100724D01*
X0261644Y0100705D01*
X0261450Y0100681D01*
X0261257Y0100653D01*
X0261065Y0100620D01*
X0260874Y0100582D01*
X0260683Y0100539D01*
X0260494Y0100492D01*
X0260306Y0100441D01*
X0260119Y0100384D01*
X0259934Y0100323D01*
X0259750Y0100258D01*
X0259568Y0100188D01*
X0259388Y0100114D01*
X0259209Y0100036D01*
X0259032Y0099953D01*
X0258858Y0099866D01*
X0258686Y0099774D01*
X0258516Y0099679D01*
X0258348Y0099579D01*
X0258183Y0099475D01*
X0258020Y0099367D01*
X0258020Y0094933D02*
X0258083Y0095058D01*
X0258149Y0095181D01*
X0258219Y0095302D01*
X0258292Y0095422D01*
X0258368Y0095539D01*
X0258448Y0095654D01*
X0258531Y0095767D01*
X0258616Y0095877D01*
X0258705Y0095985D01*
X0258797Y0096091D01*
X0258892Y0096194D01*
X0258990Y0096294D01*
X0259091Y0096391D01*
X0259194Y0096486D01*
X0259299Y0096578D01*
X0259408Y0096666D01*
X0259519Y0096752D01*
X0259632Y0096834D01*
X0259747Y0096914D01*
X0259865Y0096990D01*
X0259984Y0097062D01*
X0260106Y0097132D01*
X0260229Y0097197D01*
X0260355Y0097260D01*
X0260482Y0097319D01*
X0260610Y0097374D01*
X0260740Y0097426D01*
X0260872Y0097474D01*
X0261005Y0097518D01*
X0261139Y0097558D01*
X0261274Y0097595D01*
X0261410Y0097628D01*
X0261546Y0097657D01*
X0261684Y0097683D01*
X0261822Y0097704D01*
X0261961Y0097722D01*
X0262101Y0097735D01*
X0262240Y0097745D01*
X0262380Y0097751D01*
X0262520Y0097753D01*
X0262660Y0097751D01*
X0262800Y0097745D01*
X0262939Y0097735D01*
X0263079Y0097722D01*
X0263218Y0097704D01*
X0263356Y0097683D01*
X0263494Y0097657D01*
X0263630Y0097628D01*
X0263766Y0097595D01*
X0263901Y0097558D01*
X0264035Y0097518D01*
X0264168Y0097474D01*
X0264300Y0097426D01*
X0264430Y0097374D01*
X0264558Y0097319D01*
X0264685Y0097260D01*
X0264811Y0097197D01*
X0264934Y0097132D01*
X0265056Y0097062D01*
X0265175Y0096990D01*
X0265293Y0096914D01*
X0265408Y0096834D01*
X0265521Y0096752D01*
X0265632Y0096666D01*
X0265741Y0096578D01*
X0265846Y0096486D01*
X0265949Y0096391D01*
X0266050Y0096294D01*
X0266148Y0096194D01*
X0266243Y0096091D01*
X0266335Y0095985D01*
X0266424Y0095877D01*
X0266509Y0095767D01*
X0266592Y0095654D01*
X0266672Y0095539D01*
X0266748Y0095422D01*
X0266821Y0095302D01*
X0266891Y0095181D01*
X0266957Y0095058D01*
X0267020Y0094933D01*
D33*
X0366051Y0080434D03*
X0373951Y0084134D03*
X0373951Y0076734D03*
D34*
X0350669Y0074344D03*
X0343269Y0074344D03*
X0346969Y0066444D03*
D35*
X0086438Y0125119D03*
X0086438Y0128859D03*
X0086438Y0132599D03*
X0077186Y0132599D03*
X0077186Y0128859D03*
X0077186Y0125119D03*
D36*
X0382436Y0113702D02*
X0382438Y0113749D01*
X0382444Y0113795D01*
X0382453Y0113841D01*
X0382467Y0113885D01*
X0382484Y0113929D01*
X0382505Y0113970D01*
X0382529Y0114010D01*
X0382556Y0114048D01*
X0382587Y0114083D01*
X0382620Y0114116D01*
X0382656Y0114146D01*
X0382695Y0114172D01*
X0382735Y0114196D01*
X0382777Y0114215D01*
X0382821Y0114232D01*
X0382866Y0114244D01*
X0382912Y0114253D01*
X0382958Y0114258D01*
X0383005Y0114259D01*
X0383051Y0114256D01*
X0383097Y0114249D01*
X0383143Y0114238D01*
X0383187Y0114224D01*
X0383230Y0114206D01*
X0383271Y0114184D01*
X0383311Y0114159D01*
X0383348Y0114131D01*
X0383383Y0114100D01*
X0383415Y0114066D01*
X0383444Y0114029D01*
X0383469Y0113991D01*
X0383492Y0113950D01*
X0383511Y0113907D01*
X0383526Y0113863D01*
X0383538Y0113818D01*
X0383546Y0113772D01*
X0383550Y0113725D01*
X0383550Y0113679D01*
X0383546Y0113632D01*
X0383538Y0113586D01*
X0383526Y0113541D01*
X0383511Y0113497D01*
X0383492Y0113454D01*
X0383469Y0113413D01*
X0383444Y0113375D01*
X0383415Y0113338D01*
X0383383Y0113304D01*
X0383348Y0113273D01*
X0383311Y0113245D01*
X0383272Y0113220D01*
X0383230Y0113198D01*
X0383187Y0113180D01*
X0383143Y0113166D01*
X0383097Y0113155D01*
X0383051Y0113148D01*
X0383005Y0113145D01*
X0382958Y0113146D01*
X0382912Y0113151D01*
X0382866Y0113160D01*
X0382821Y0113172D01*
X0382777Y0113189D01*
X0382735Y0113208D01*
X0382695Y0113232D01*
X0382656Y0113258D01*
X0382620Y0113288D01*
X0382587Y0113321D01*
X0382556Y0113356D01*
X0382529Y0113394D01*
X0382505Y0113434D01*
X0382484Y0113475D01*
X0382467Y0113519D01*
X0382453Y0113563D01*
X0382444Y0113609D01*
X0382438Y0113655D01*
X0382436Y0113702D01*
M02*
