G75*
%MOIN*%
%OFA0B0*%
%FSLAX24Y24*%
%IPPOS*%
%LPD*%
%AMOC8*
5,1,8,0,0,1.08239X$1,22.5*
%
%ADD10R,0.0394X0.0433*%
%ADD11R,0.0472X0.0315*%
%ADD12R,0.0433X0.0394*%
%ADD13R,0.0800X0.0260*%
%ADD14R,0.0472X0.0217*%
%ADD15R,0.1102X0.0787*%
%ADD16R,0.1575X0.0276*%
%ADD17R,0.1575X0.0472*%
%ADD18R,0.1560X0.1560*%
%ADD19R,0.0866X0.0236*%
%ADD20R,0.0500X0.0220*%
%ADD21R,0.0220X0.0500*%
%ADD22R,0.0394X0.0551*%
%ADD23R,0.0480X0.0245*%
%ADD24R,0.0160X0.0320*%
%ADD25R,0.0320X0.0160*%
%ADD26R,0.0551X0.0630*%
%ADD27R,0.0315X0.0315*%
%ADD28R,0.0551X0.0394*%
%ADD29R,0.0276X0.0276*%
%ADD30R,0.0550X0.0137*%
%ADD31R,0.0256X0.0197*%
%ADD32R,0.0315X0.0138*%
%ADD33R,0.0472X0.0787*%
%ADD34R,0.0630X0.0551*%
D10*
X012305Y005595D03*
X012305Y006265D03*
X012305Y006845D03*
X012305Y007515D03*
X022560Y008095D03*
X022560Y008765D03*
X022680Y009830D03*
X022680Y010500D03*
X029375Y006400D03*
X030045Y006400D03*
X022555Y005640D03*
X022555Y004970D03*
X037255Y012970D03*
X038055Y012970D03*
X038055Y013640D03*
X037255Y013640D03*
X038430Y014345D03*
X038430Y015015D03*
D11*
X017305Y005784D03*
X017305Y005076D03*
D12*
X022555Y006635D03*
X022555Y007305D03*
X016515Y008655D03*
X015845Y008655D03*
X018180Y011720D03*
X018180Y012390D03*
X030036Y013646D03*
X030036Y014315D03*
X036555Y016470D03*
X036555Y017140D03*
X031390Y010680D03*
X030720Y010680D03*
X030756Y009635D03*
X031425Y009635D03*
D13*
X015015Y009555D03*
X015015Y009055D03*
X015015Y010055D03*
X015015Y010555D03*
X015015Y011055D03*
X015015Y011555D03*
X015015Y012055D03*
X015015Y012555D03*
X012595Y012555D03*
X012595Y012055D03*
X012595Y011555D03*
X012595Y011055D03*
X012595Y010555D03*
X012595Y010055D03*
X012595Y009555D03*
X012595Y009055D03*
D14*
X013168Y005929D03*
X014192Y005929D03*
X014192Y005555D03*
X014192Y005181D03*
X013168Y005181D03*
X015168Y004931D03*
X016192Y004931D03*
X016192Y005305D03*
X016192Y005679D03*
X015168Y005679D03*
X020293Y005804D03*
X021317Y005804D03*
X021317Y005430D03*
X021317Y005056D03*
X020293Y005056D03*
D15*
X001847Y003754D03*
X010076Y004699D03*
X001847Y014738D03*
X010036Y014777D03*
D16*
X010784Y014108D03*
X010784Y013636D03*
X010784Y013124D03*
D17*
X010784Y012494D03*
X010784Y011510D03*
X010784Y010525D03*
X010784Y009541D03*
X010784Y008557D03*
X010784Y007573D03*
X010784Y006588D03*
X010784Y005604D03*
D18*
X033055Y015430D03*
D19*
X027451Y011160D03*
X027451Y010660D03*
X027451Y010160D03*
X027451Y009660D03*
X027451Y009160D03*
X027451Y008660D03*
X027451Y008160D03*
X027451Y007660D03*
X023829Y007660D03*
X023829Y008160D03*
X023829Y008660D03*
X023829Y009160D03*
X023829Y009660D03*
X023829Y010160D03*
X023829Y010660D03*
X023829Y011160D03*
D20*
X020935Y009472D03*
X020935Y009157D03*
X020935Y008842D03*
X020935Y008527D03*
X020935Y008213D03*
X020935Y007898D03*
X020935Y007583D03*
X020935Y007268D03*
X017555Y007268D03*
X017555Y007583D03*
X017555Y007898D03*
X017555Y008213D03*
X017555Y008527D03*
X017555Y008842D03*
X017555Y009157D03*
X017555Y009472D03*
D21*
X018143Y010060D03*
X018458Y010060D03*
X018773Y010060D03*
X019088Y010060D03*
X019402Y010060D03*
X019717Y010060D03*
X020032Y010060D03*
X020347Y010060D03*
X020347Y006680D03*
X020032Y006680D03*
X019717Y006680D03*
X019402Y006680D03*
X019088Y006680D03*
X018773Y006680D03*
X018458Y006680D03*
X018143Y006680D03*
D22*
X032113Y012445D03*
X032861Y012445D03*
X033436Y012435D03*
X034184Y012435D03*
X033810Y011569D03*
X032487Y011579D03*
D23*
X036639Y014357D03*
X036639Y014731D03*
X036639Y015105D03*
X037670Y015105D03*
X037670Y014731D03*
X037670Y014357D03*
D24*
X019067Y005613D03*
X018752Y005613D03*
X018437Y005613D03*
X018122Y005613D03*
X018122Y004904D03*
X018437Y004904D03*
X018752Y004904D03*
X019067Y004904D03*
D25*
X016424Y006786D03*
X016424Y007101D03*
X016424Y007416D03*
X016424Y007731D03*
X015715Y007731D03*
X015715Y007416D03*
X015715Y007101D03*
X015715Y006786D03*
D26*
X030026Y012281D03*
X031129Y012281D03*
D27*
X035933Y001841D03*
X036625Y001841D03*
X036625Y001251D03*
X035933Y001251D03*
D28*
X032400Y009864D03*
X033267Y010238D03*
X032400Y010612D03*
X016988Y010929D03*
X016122Y010555D03*
X016988Y010181D03*
D29*
X028423Y007868D03*
X028935Y007868D03*
X029450Y007873D03*
X029961Y007873D03*
X029706Y007145D03*
X028679Y007140D03*
D30*
X030866Y007183D03*
X030866Y007439D03*
X030866Y007695D03*
X030866Y007951D03*
X030866Y008207D03*
X030866Y008462D03*
X030866Y008718D03*
X033744Y008718D03*
X033744Y008462D03*
X033744Y008207D03*
X033744Y007951D03*
X033744Y007695D03*
X033744Y007439D03*
X033744Y007183D03*
X033744Y006927D03*
X033744Y006671D03*
X033744Y006415D03*
X033744Y006159D03*
X033744Y005903D03*
X033744Y005648D03*
X033744Y005392D03*
X030866Y005392D03*
X030866Y005648D03*
X030866Y005903D03*
X030866Y006159D03*
X030866Y006415D03*
X030866Y006671D03*
X030866Y006927D03*
D31*
X024531Y006492D03*
X024039Y006492D03*
X024039Y006177D03*
X024039Y005863D03*
X024531Y005863D03*
X024531Y006177D03*
X024531Y005548D03*
X024039Y005548D03*
X034684Y002527D03*
X034684Y002212D03*
X035176Y002212D03*
X035176Y002527D03*
X035176Y001898D03*
X034684Y001898D03*
X034684Y001583D03*
X035176Y001583D03*
D32*
X028600Y006125D03*
X028600Y006381D03*
X028600Y006637D03*
X027931Y006637D03*
X027931Y006381D03*
X027931Y006125D03*
D33*
X028962Y005257D03*
X030222Y005257D03*
D34*
X026908Y005600D03*
X025818Y005605D03*
X025818Y006707D03*
X026908Y006702D03*
M02*
