%
M48
M72
T01C0.01200
T02C0.03150
T03C0.03200
T04C0.03543
T05C0.03600
T06C0.04000
T07C0.04331
T08C0.04724
T09C0.06299
T10C0.07300
T11C0.09000
T12C0.11800
T13C0.13000
%
T01
X84300Y49800
X118300Y68300
X118300Y72300
X122300Y72300
X141800Y76300
X146800Y68300
X161800Y61800
X165800Y61300
X155800Y58800
X169800Y55800
X201300Y61300
X205300Y57300
X219800Y54800
X224800Y54300
X228800Y54300
X226800Y48300
X219800Y48800
X231800Y40800
X229300Y35300
X236800Y46300
X243300Y49800
X247300Y45800
X260300Y35800
X254800Y30300
X269800Y26300
X284800Y26800
X298800Y32800
X327300Y40800
X315800Y48800
X325800Y56300
X341300Y64300
X347800Y71300
X317800Y70300
X303300Y71300
X291300Y74300
X287300Y72800
X278800Y71800
X291300Y78300
X297800Y82800
X302300Y81300
X311300Y87300
X288300Y84300
X277300Y81300
X266800Y81800
X263300Y86300
X264800Y94300
X256300Y96800
X265300Y99800
X272300Y100800
X278300Y97300
X285800Y98300
X289300Y100800
X279800Y104300
X290800Y115300
X300800Y123800
X311300Y118800
X321300Y120800
X311300Y109300
X314800Y105300
X276300Y118800
X284300Y134300
X269800Y137300
X279300Y143300
X241800Y157300
X220800Y141800
X222800Y135800
X208300Y135300
X204800Y130800
X193300Y135800
X188300Y136300
X178300Y140800
X162800Y132800
X153800Y128800
X143800Y127800
X133300Y128800
X124300Y125300
X118800Y116300
X129800Y104800
X119800Y99800
X107800Y90300
X113800Y80800
X149300Y94300
X151300Y85800
X174800Y75800
X186800Y86800
X189300Y96300
X191300Y100300
X194800Y107300
X186300Y110800
X191300Y114800
X182800Y117800
X179800Y122800
X194300Y121300
X211800Y107800
X210800Y99800
X222800Y90300
X225300Y85800
X227800Y82300
X231800Y83800
X234300Y87300
X245800Y87300
X221800Y79300
X218800Y83300
X212800Y75800
X217300Y67300
X220300Y64300
X223300Y67300
X231800Y61300
X241300Y61300
X248300Y62300
X252300Y61300
X245300Y65300
X244800Y69300
X245800Y74300
X262800Y73300
X270800Y60800
X281800Y59300
X294300Y60800
X298300Y64300
X303300Y55800
X298300Y48800
X292300Y48800
X343300Y43300
X349300Y37300
X367800Y42800
X342300Y27300
X355300Y23300
X355300Y14300
X354300Y8300
X371800Y8300
X241300Y12300
X237300Y8300
X189300Y11800
X189800Y27300
X134300Y29300
X128800Y61800
X203800Y66800
X232300Y99800
X236300Y99800
X242800Y100300
X166800Y118800
X164300Y122800
X158800Y122800
X124800Y145800
X159300Y159800
X167800Y155300
X43300Y93300
X321300Y135800
X332300Y141800
X341300Y134800
T02
X383300Y134363
X383300Y142237
T03
X175300Y89800
X165300Y89800
X155300Y89800
X145300Y89800
X135300Y89800
X125300Y89800
X125300Y49800
X135300Y49800
X145300Y49800
X155300Y49800
X165300Y49800
X175300Y49800
T04
X96800Y160300
X86800Y160300
X76800Y160300
X76800Y170300
X86800Y170300
X96800Y170300
T05
X349000Y59221
X356800Y59221
X356800Y49379
X349000Y49379
T06
X63600Y151900
X38000Y151900
X38000Y169700
X63600Y169700
X58100Y35700
X32500Y35700
X32500Y17900
X58100Y17900
T07
X96032Y138969
T08
X140300Y163800
X154080Y163800
X167859Y163800
X181639Y163800
X195418Y163800
X209198Y163800
X222977Y163800
X236757Y163800
X250536Y163800
X264316Y163800
X265213Y19300
X278993Y19300
X292772Y19300
X306552Y19300
X320331Y19300
X334111Y19300
X251434Y19300
X237654Y19300
X223875Y19300
X210095Y19300
X196316Y19300
X182536Y19300
X168757Y19300
X154977Y19300
X141198Y19300
X127418Y19300
X113639Y19300
X99859Y19300
X86080Y19300
X72300Y19300
T09
X96032Y55898
T10
X308300Y154300
X360300Y154300
T11
X367500Y78000
X367500Y30600
T12
X371429Y105050
X347807Y105050
X359618Y123554
T13
X16800Y16800
X16800Y165550
X381800Y165550
X381800Y16800
M30
