G75*
%MOIN*%
%OFA0B0*%
%FSLAX25Y25*%
%IPPOS*%
%LPD*%
%AMOC8*
5,1,8,0,0,1.08239X$1,22.5*
%
%ADD10C,0.05600*%
%ADD11R,0.10950X0.10950*%
%ADD12OC8,0.05600*%
%ADD13C,0.06400*%
%ADD14C,0.07400*%
%ADD15C,0.17000*%
%ADD16C,0.06600*%
%ADD17C,0.13000*%
%ADD18R,0.08000X0.08000*%
%ADD19C,0.08000*%
%ADD20C,0.00800*%
%ADD21C,0.03200*%
%ADD22C,0.01600*%
%ADD23OC8,0.03200*%
D10*
X0219800Y0120300D03*
X0238800Y0120300D03*
X0383300Y0134363D03*
X0383300Y0142237D03*
D11*
X0360300Y0154300D03*
X0308300Y0154300D03*
D12*
X0174800Y0088300D03*
X0164800Y0088300D03*
X0154800Y0088300D03*
X0144800Y0088300D03*
X0134800Y0088300D03*
X0124800Y0088300D03*
X0124800Y0048300D03*
X0134800Y0048300D03*
X0144800Y0048300D03*
X0154800Y0048300D03*
X0164800Y0048300D03*
X0174800Y0048300D03*
D13*
X0096800Y0160300D03*
X0086800Y0160300D03*
X0076800Y0160300D03*
X0076800Y0170300D03*
X0086800Y0170300D03*
X0096800Y0170300D03*
D14*
X0116300Y0169800D03*
X0116300Y0159800D03*
X0063600Y0151900D03*
X0038000Y0151900D03*
X0038000Y0169700D03*
X0063600Y0169700D03*
X0058100Y0035700D03*
X0032500Y0035700D03*
X0032500Y0017900D03*
X0058100Y0017900D03*
D15*
X0347807Y0105050D03*
X0371429Y0105050D03*
X0359618Y0123554D03*
D16*
X0356800Y0059221D03*
X0349000Y0059221D03*
X0349000Y0049379D03*
X0356800Y0049379D03*
D17*
X0367500Y0030600D03*
X0367500Y0078000D03*
D18*
X0210095Y0019300D03*
X0072300Y0019300D03*
X0140300Y0163800D03*
D19*
X0154080Y0163800D03*
X0167859Y0163800D03*
X0181639Y0163800D03*
X0195418Y0163800D03*
X0209198Y0163800D03*
X0222977Y0163800D03*
X0236757Y0163800D03*
X0250536Y0163800D03*
X0264316Y0163800D03*
X0265213Y0019300D03*
X0251434Y0019300D03*
X0237654Y0019300D03*
X0223875Y0019300D03*
X0196316Y0019300D03*
X0182536Y0019300D03*
X0168757Y0019300D03*
X0154977Y0019300D03*
X0141198Y0019300D03*
X0127418Y0019300D03*
X0113639Y0019300D03*
X0099859Y0019300D03*
X0086080Y0019300D03*
X0278993Y0019300D03*
X0292772Y0019300D03*
X0306552Y0019300D03*
X0320331Y0019300D03*
X0334111Y0019300D03*
D20*
X0336300Y0019300D01*
X0348300Y0007300D01*
X0355300Y0014300D02*
X0342300Y0027300D01*
X0359300Y0023300D02*
X0371300Y0011300D01*
X0325800Y0017300D02*
X0325800Y0038300D01*
X0320800Y0043300D01*
X0320800Y0089800D01*
X0286300Y0124300D01*
X0229800Y0124300D01*
X0213300Y0107800D01*
X0206800Y0107800D01*
X0191300Y0114800D02*
X0187300Y0110800D01*
X0186300Y0110800D01*
X0183300Y0110800D01*
X0179800Y0114300D01*
X0179800Y0122800D01*
X0187300Y0117800D02*
X0183800Y0114300D01*
X0187300Y0117800D02*
X0192800Y0117800D01*
X0210800Y0099800D01*
X0208800Y0097300D02*
X0186800Y0097300D01*
X0176800Y0107300D01*
X0172300Y0107300D01*
X0172300Y0107800D01*
X0160800Y0096300D01*
X0160800Y0084800D01*
X0151800Y0075800D01*
X0151800Y0072800D01*
X0158800Y0076300D02*
X0168800Y0086300D01*
X0168800Y0092800D01*
X0176800Y0100800D01*
X0177800Y0103800D02*
X0173800Y0103800D01*
X0169800Y0099800D01*
X0177800Y0103800D02*
X0203800Y0077800D01*
X0203800Y0067800D01*
X0208800Y0071800D02*
X0208800Y0074300D01*
X0251800Y0117300D01*
X0290800Y0117300D01*
X0298300Y0109800D01*
X0298300Y0068300D01*
X0292300Y0062300D01*
X0292300Y0034800D01*
X0306300Y0020800D01*
X0306300Y0019300D01*
X0306552Y0019300D01*
X0301300Y0018300D02*
X0301300Y0016800D01*
X0304300Y0013800D01*
X0322300Y0013800D01*
X0325800Y0017300D01*
X0320331Y0019300D02*
X0318300Y0019300D01*
X0295300Y0042300D01*
X0298300Y0048800D02*
X0298300Y0064300D01*
X0290300Y0060800D02*
X0290300Y0029300D01*
X0301300Y0018300D01*
X0292772Y0019300D02*
X0292300Y0019300D01*
X0292300Y0020800D01*
X0264800Y0048300D01*
X0264800Y0058800D01*
X0261800Y0059800D02*
X0273800Y0071800D01*
X0284300Y0071800D01*
X0286800Y0069300D01*
X0290800Y0069300D01*
X0296300Y0074800D01*
X0296300Y0107800D01*
X0295300Y0108800D01*
X0292050Y0092550D02*
X0272300Y0112300D01*
X0261300Y0114300D02*
X0242800Y0095800D01*
X0242800Y0091300D01*
X0245800Y0088300D01*
X0245800Y0087300D01*
X0245800Y0092300D02*
X0264300Y0073800D01*
X0264300Y0071800D01*
X0251800Y0059300D01*
X0250300Y0059300D01*
X0246800Y0066800D02*
X0241300Y0061300D01*
X0235300Y0065300D02*
X0229300Y0059300D01*
X0229300Y0042300D01*
X0228300Y0039300D02*
X0238800Y0039300D01*
X0292050Y0092550D01*
X0293300Y0091300D01*
X0267800Y0097800D02*
X0267800Y0103800D01*
X0267800Y0097800D02*
X0267800Y0072800D01*
X0240300Y0045300D01*
X0251800Y0041800D02*
X0261800Y0051800D01*
X0261800Y0059800D01*
X0272800Y0064800D02*
X0282300Y0064800D01*
X0284800Y0062300D01*
X0284300Y0066800D02*
X0290300Y0060800D01*
X0303300Y0055800D02*
X0311050Y0063550D01*
X0303300Y0071300D01*
X0311050Y0063550D02*
X0317800Y0070300D01*
X0347800Y0071300D02*
X0347800Y0060300D01*
X0348800Y0059300D01*
X0349000Y0059221D01*
X0343300Y0043300D02*
X0349300Y0037300D01*
X0261300Y0072800D02*
X0259300Y0070800D01*
X0244800Y0070800D01*
X0232300Y0058300D01*
X0225300Y0062800D02*
X0229800Y0067300D01*
X0235300Y0065300D02*
X0235300Y0086300D01*
X0233300Y0088300D01*
X0226800Y0088300D01*
X0214300Y0075800D01*
X0221800Y0078800D02*
X0206800Y0063800D01*
X0209800Y0064300D02*
X0209800Y0062800D01*
X0207800Y0060800D01*
X0200300Y0060800D01*
X0193300Y0067800D01*
X0188300Y0069300D02*
X0183300Y0064300D01*
X0179300Y0064300D01*
X0176800Y0066800D01*
X0173800Y0066800D01*
X0155300Y0048300D01*
X0154800Y0048300D01*
X0152800Y0056300D02*
X0144800Y0048300D01*
X0134800Y0048300D02*
X0129800Y0053300D01*
X0124800Y0052300D02*
X0124800Y0048300D01*
X0124800Y0052300D02*
X0141300Y0068800D01*
X0178800Y0068800D01*
X0188300Y0078300D01*
X0192800Y0079800D02*
X0192800Y0075800D01*
X0188300Y0073300D02*
X0182300Y0067300D01*
X0175300Y0063800D02*
X0175300Y0060800D01*
X0183300Y0052800D01*
X0186300Y0052800D01*
X0219800Y0019300D01*
X0223875Y0019300D01*
X0237300Y0008300D02*
X0241300Y0012300D01*
X0251434Y0019300D02*
X0251800Y0019300D01*
X0251800Y0041800D01*
X0255300Y0049300D02*
X0239300Y0033300D01*
X0229300Y0033300D01*
X0221800Y0040800D01*
X0214800Y0040800D01*
X0209800Y0038800D02*
X0209800Y0043800D01*
X0215300Y0049300D01*
X0215300Y0065800D01*
X0215800Y0068800D02*
X0214300Y0068800D01*
X0209800Y0064300D01*
X0215800Y0068800D02*
X0232300Y0085300D01*
X0218300Y0087800D02*
X0208800Y0097300D01*
X0191300Y0100300D02*
X0176800Y0114800D01*
X0176800Y0139300D01*
X0178300Y0140800D01*
X0189300Y0143800D02*
X0140300Y0143800D01*
X0143300Y0140800D02*
X0138300Y0135800D01*
X0133300Y0140800D02*
X0148300Y0155800D01*
X0158800Y0155800D01*
X0166800Y0163800D01*
X0167859Y0163800D01*
X0181300Y0163800D02*
X0181639Y0163800D01*
X0181300Y0163800D02*
X0164300Y0146800D01*
X0189300Y0143800D02*
X0204800Y0128300D01*
X0194300Y0134800D02*
X0193300Y0135800D01*
X0194300Y0134800D02*
X0194300Y0121300D01*
X0168300Y0109300D02*
X0150800Y0091800D01*
X0145300Y0095300D02*
X0118800Y0095300D01*
X0059300Y0035800D01*
X0058300Y0035800D01*
X0058100Y0035700D01*
X0152800Y0056300D02*
X0159300Y0056300D01*
X0160800Y0057800D01*
X0171800Y0060800D02*
X0196300Y0036300D01*
X0196300Y0019300D01*
X0196316Y0019300D01*
X0215800Y0028800D02*
X0189300Y0055300D01*
X0188800Y0055300D01*
X0195300Y0061800D01*
X0190800Y0062300D02*
X0184300Y0055800D01*
X0216800Y0046800D02*
X0218300Y0046800D01*
X0228800Y0036300D01*
X0232300Y0036300D01*
X0228300Y0039300D02*
X0219300Y0048300D01*
X0219300Y0065800D01*
X0192800Y0079800D02*
X0177800Y0094800D01*
X0174800Y0094800D01*
X0181300Y0085300D02*
X0185300Y0081300D01*
X0163800Y0113800D02*
X0145300Y0095300D01*
X0143800Y0113300D02*
X0096800Y0160300D01*
X0086800Y0160300D02*
X0127800Y0119300D01*
X0098300Y0119800D02*
X0092300Y0113800D01*
X0070800Y0161800D02*
X0070800Y0164300D01*
X0076800Y0170300D01*
X0254800Y0098800D02*
X0263300Y0090300D01*
D21*
X0263300Y0090300D03*
X0267800Y0097800D03*
X0267800Y0103800D03*
X0254800Y0098800D03*
X0245800Y0092300D03*
X0245800Y0087300D03*
X0232300Y0085300D03*
X0221800Y0078800D03*
X0214300Y0075800D03*
X0208800Y0071800D03*
X0203800Y0067800D03*
X0206800Y0063800D03*
X0215300Y0065800D03*
X0219300Y0065800D03*
X0225300Y0062800D03*
X0229800Y0067300D03*
X0241300Y0061300D03*
X0250300Y0059300D03*
X0264800Y0058800D03*
X0272800Y0064800D03*
X0284300Y0066800D03*
X0284800Y0062300D03*
X0298300Y0064300D03*
X0303300Y0071300D03*
X0317800Y0070300D03*
X0347800Y0071300D03*
X0303300Y0055800D03*
X0298300Y0048800D03*
X0295300Y0042300D03*
X0255300Y0049300D03*
X0240300Y0045300D03*
X0229300Y0042300D03*
X0216800Y0046800D03*
X0214800Y0040800D03*
X0209800Y0038800D03*
X0215800Y0028800D03*
X0232300Y0036300D03*
X0188800Y0055300D03*
X0184300Y0055800D03*
X0195300Y0061800D03*
X0190800Y0062300D03*
X0182300Y0067300D03*
X0188300Y0069300D03*
X0193300Y0067800D03*
X0188300Y0073300D03*
X0192800Y0075800D03*
X0188300Y0078300D03*
X0185300Y0081300D03*
X0181300Y0085300D03*
X0174800Y0094800D03*
X0169800Y0099800D03*
X0176800Y0100800D03*
X0172300Y0107800D03*
X0168300Y0109300D03*
X0163800Y0113800D03*
X0143800Y0113300D03*
X0127800Y0119300D03*
X0098300Y0119800D03*
X0092300Y0113800D03*
X0138300Y0135800D03*
X0133300Y0140800D03*
X0140300Y0143800D03*
X0143300Y0140800D03*
X0164300Y0146800D03*
X0178300Y0140800D03*
X0193300Y0135800D03*
X0204800Y0128300D03*
X0194300Y0121300D03*
X0191300Y0114800D03*
X0186300Y0110800D03*
X0183800Y0114300D03*
X0179800Y0122800D03*
X0206800Y0107800D03*
X0191300Y0100300D03*
X0210800Y0099800D03*
X0218300Y0087800D03*
X0244800Y0070800D03*
X0246800Y0066800D03*
X0261300Y0072800D03*
X0232300Y0058300D03*
X0175300Y0063800D03*
X0171800Y0060800D03*
X0160800Y0057800D03*
X0152800Y0056300D03*
X0129800Y0053300D03*
X0151800Y0072800D03*
X0158800Y0076300D03*
X0150800Y0091800D03*
X0261300Y0114300D03*
X0272300Y0112300D03*
X0295300Y0108800D03*
X0293300Y0091300D03*
X0343300Y0043300D03*
X0349300Y0037300D03*
X0342300Y0027300D03*
X0359300Y0023300D03*
X0355300Y0014300D03*
X0348300Y0007300D03*
X0371300Y0011300D03*
X0241300Y0012300D03*
X0237300Y0008300D03*
X0070800Y0161800D03*
D22*
X0008896Y0008856D02*
X0011278Y0007126D01*
X0014078Y0006216D01*
X0015550Y0006100D01*
X0234975Y0006100D01*
X0234587Y0006487D01*
X0234100Y0007663D01*
X0234100Y0008937D01*
X0234587Y0010113D01*
X0235487Y0011013D01*
X0236663Y0011500D01*
X0237672Y0011500D01*
X0238100Y0011928D01*
X0238100Y0012937D01*
X0238416Y0013700D01*
X0236540Y0013700D01*
X0234482Y0014553D01*
X0232907Y0016128D01*
X0232054Y0018186D01*
X0232054Y0020414D01*
X0232907Y0022472D01*
X0234482Y0024047D01*
X0236540Y0024900D01*
X0238768Y0024900D01*
X0240826Y0024047D01*
X0242402Y0022472D01*
X0243254Y0020414D01*
X0243254Y0018186D01*
X0242402Y0016128D01*
X0241774Y0015500D01*
X0241937Y0015500D01*
X0243113Y0015013D01*
X0244013Y0014113D01*
X0244500Y0012937D01*
X0244500Y0011663D01*
X0244013Y0010487D01*
X0243113Y0009587D01*
X0241937Y0009100D01*
X0240928Y0009100D01*
X0240500Y0008672D01*
X0240500Y0007663D01*
X0240013Y0006487D01*
X0239625Y0006100D01*
X0345333Y0006100D01*
X0345100Y0006663D01*
X0345100Y0007672D01*
X0337751Y0015020D01*
X0337283Y0014553D01*
X0335225Y0013700D01*
X0332997Y0013700D01*
X0330939Y0014553D01*
X0329364Y0016128D01*
X0328511Y0018186D01*
X0328511Y0020414D01*
X0329364Y0022472D01*
X0330939Y0024047D01*
X0332997Y0024900D01*
X0335225Y0024900D01*
X0337283Y0024047D01*
X0338858Y0022472D01*
X0339711Y0020414D01*
X0339711Y0018717D01*
X0347928Y0010500D01*
X0348937Y0010500D01*
X0350113Y0010013D01*
X0351013Y0009113D01*
X0351500Y0007937D01*
X0351500Y0006663D01*
X0351267Y0006100D01*
X0382548Y0006100D01*
X0384105Y0006223D01*
X0387066Y0007185D01*
X0389585Y0009015D01*
X0391415Y0011534D01*
X0392377Y0014495D01*
X0392500Y0016052D01*
X0392500Y0166883D01*
X0392298Y0168401D01*
X0391187Y0171286D01*
X0389238Y0173686D01*
X0386643Y0175367D01*
X0383656Y0176164D01*
X0382209Y0176200D01*
X0382057Y0176200D01*
X0381361Y0176163D01*
X0381319Y0176200D01*
X0016547Y0176200D01*
X0016547Y0176200D01*
X0015804Y0176200D01*
X0015802Y0176200D01*
X0014290Y0176081D01*
X0011415Y0175147D01*
X0008969Y0173370D01*
X0007193Y0170925D01*
X0006258Y0168050D01*
X0006139Y0166539D01*
X0006139Y0015511D01*
X0006255Y0014038D01*
X0007165Y0011238D01*
X0008896Y0008856D01*
X0008722Y0009096D02*
X0013189Y0009096D01*
X0011985Y0009594D02*
X0015109Y0008300D01*
X0017297Y0008300D01*
X0018491Y0008300D01*
X0021615Y0009594D01*
X0024006Y0011985D01*
X0024006Y0011985D01*
X0025300Y0015109D01*
X0025300Y0018491D01*
X0024006Y0021615D01*
X0021615Y0024006D01*
X0021615Y0024006D01*
X0018491Y0025300D01*
X0015109Y0025300D01*
X0011985Y0024006D01*
X0009594Y0021615D01*
X0009594Y0021615D01*
X0008300Y0018491D01*
X0008300Y0015109D01*
X0009594Y0011985D01*
X0011985Y0009594D01*
X0011985Y0009594D01*
X0010885Y0010694D02*
X0007560Y0010694D01*
X0006823Y0012293D02*
X0009467Y0012293D01*
X0009594Y0011985D02*
X0009594Y0011985D01*
X0008805Y0013891D02*
X0006303Y0013891D01*
X0006141Y0015490D02*
X0008300Y0015490D01*
X0008300Y0017088D02*
X0006139Y0017088D01*
X0006139Y0018687D02*
X0008381Y0018687D01*
X0009043Y0020285D02*
X0006139Y0020285D01*
X0006139Y0021884D02*
X0009863Y0021884D01*
X0011461Y0023482D02*
X0006139Y0023482D01*
X0006139Y0025081D02*
X0014580Y0025081D01*
X0011985Y0024006D02*
X0011985Y0024006D01*
X0006139Y0026679D02*
X0194300Y0026679D01*
X0194300Y0025081D02*
X0155556Y0025081D01*
X0155434Y0025100D02*
X0155358Y0025100D01*
X0155358Y0019681D01*
X0154596Y0019681D01*
X0154596Y0018919D01*
X0149177Y0018919D01*
X0149177Y0018844D01*
X0149320Y0017942D01*
X0149602Y0017074D01*
X0150017Y0016260D01*
X0150553Y0015522D01*
X0151199Y0014876D01*
X0151937Y0014339D01*
X0152751Y0013925D01*
X0153619Y0013643D01*
X0154521Y0013500D01*
X0154596Y0013500D01*
X0154596Y0018919D01*
X0155358Y0018919D01*
X0155358Y0013500D01*
X0155434Y0013500D01*
X0156335Y0013643D01*
X0157204Y0013925D01*
X0158017Y0014339D01*
X0158756Y0014876D01*
X0159401Y0015522D01*
X0159938Y0016260D01*
X0160352Y0017074D01*
X0160634Y0017942D01*
X0160777Y0018844D01*
X0160777Y0018919D01*
X0155358Y0018919D01*
X0155358Y0019681D01*
X0160777Y0019681D01*
X0160777Y0019756D01*
X0160634Y0020658D01*
X0160352Y0021526D01*
X0159938Y0022340D01*
X0159401Y0023078D01*
X0158756Y0023724D01*
X0158017Y0024261D01*
X0157204Y0024675D01*
X0156335Y0024957D01*
X0155434Y0025100D01*
X0155358Y0025081D02*
X0154596Y0025081D01*
X0154596Y0025100D02*
X0154521Y0025100D01*
X0153619Y0024957D01*
X0152751Y0024675D01*
X0151937Y0024261D01*
X0151199Y0023724D01*
X0150553Y0023078D01*
X0150017Y0022340D01*
X0149602Y0021526D01*
X0149320Y0020658D01*
X0149177Y0019756D01*
X0149177Y0019681D01*
X0154596Y0019681D01*
X0154596Y0025100D01*
X0154399Y0025081D02*
X0076609Y0025081D01*
X0076537Y0025100D02*
X0072681Y0025100D01*
X0072681Y0019681D01*
X0078100Y0019681D01*
X0078100Y0023537D01*
X0077977Y0023995D01*
X0077740Y0024405D01*
X0077405Y0024740D01*
X0076995Y0024977D01*
X0076537Y0025100D01*
X0078100Y0023482D02*
X0082342Y0023482D01*
X0082907Y0024047D02*
X0081332Y0022472D01*
X0080480Y0020414D01*
X0080480Y0018186D01*
X0081332Y0016128D01*
X0082907Y0014553D01*
X0084966Y0013700D01*
X0087193Y0013700D01*
X0089252Y0014553D01*
X0090827Y0016128D01*
X0091680Y0018186D01*
X0091680Y0020414D01*
X0090827Y0022472D01*
X0089252Y0024047D01*
X0087193Y0024900D01*
X0084966Y0024900D01*
X0082907Y0024047D01*
X0081088Y0021884D02*
X0078100Y0021884D01*
X0078100Y0020285D02*
X0080480Y0020285D01*
X0080480Y0018687D02*
X0078100Y0018687D01*
X0078100Y0018919D02*
X0072681Y0018919D01*
X0072681Y0019681D01*
X0071919Y0019681D01*
X0071919Y0018919D01*
X0072681Y0018919D01*
X0072681Y0013500D01*
X0076537Y0013500D01*
X0076995Y0013623D01*
X0077405Y0013860D01*
X0077740Y0014195D01*
X0077977Y0014605D01*
X0078100Y0015063D01*
X0078100Y0018919D01*
X0078100Y0017088D02*
X0080934Y0017088D01*
X0081970Y0015490D02*
X0078100Y0015490D01*
X0077437Y0013891D02*
X0084504Y0013891D01*
X0087655Y0013891D02*
X0098284Y0013891D01*
X0098745Y0013700D02*
X0100973Y0013700D01*
X0103031Y0014553D01*
X0104606Y0016128D01*
X0105459Y0018186D01*
X0105459Y0020414D01*
X0104606Y0022472D01*
X0103031Y0024047D01*
X0100973Y0024900D01*
X0098745Y0024900D01*
X0096687Y0024047D01*
X0095112Y0022472D01*
X0094259Y0020414D01*
X0094259Y0018186D01*
X0095112Y0016128D01*
X0096687Y0014553D01*
X0098745Y0013700D01*
X0101434Y0013891D02*
X0112063Y0013891D01*
X0112525Y0013700D02*
X0114752Y0013700D01*
X0116811Y0014553D01*
X0118386Y0016128D01*
X0119239Y0018186D01*
X0119239Y0020414D01*
X0118386Y0022472D01*
X0116811Y0024047D01*
X0114752Y0024900D01*
X0112525Y0024900D01*
X0110466Y0024047D01*
X0108891Y0022472D01*
X0108039Y0020414D01*
X0108039Y0018186D01*
X0108891Y0016128D01*
X0110466Y0014553D01*
X0112525Y0013700D01*
X0115214Y0013891D02*
X0125843Y0013891D01*
X0126304Y0013700D02*
X0128532Y0013700D01*
X0130590Y0014553D01*
X0132166Y0016128D01*
X0133018Y0018186D01*
X0133018Y0020414D01*
X0132166Y0022472D01*
X0130590Y0024047D01*
X0128532Y0024900D01*
X0126304Y0024900D01*
X0124246Y0024047D01*
X0122671Y0022472D01*
X0121818Y0020414D01*
X0121818Y0018186D01*
X0122671Y0016128D01*
X0124246Y0014553D01*
X0126304Y0013700D01*
X0128993Y0013891D02*
X0139622Y0013891D01*
X0140084Y0013700D02*
X0142312Y0013700D01*
X0144370Y0014553D01*
X0145945Y0016128D01*
X0146798Y0018186D01*
X0146798Y0020414D01*
X0145945Y0022472D01*
X0144370Y0024047D01*
X0142312Y0024900D01*
X0140084Y0024900D01*
X0138025Y0024047D01*
X0136450Y0022472D01*
X0135598Y0020414D01*
X0135598Y0018186D01*
X0136450Y0016128D01*
X0138025Y0014553D01*
X0140084Y0013700D01*
X0142773Y0013891D02*
X0152855Y0013891D01*
X0154596Y0013891D02*
X0155358Y0013891D01*
X0155358Y0015490D02*
X0154596Y0015490D01*
X0154596Y0017088D02*
X0155358Y0017088D01*
X0155358Y0018687D02*
X0154596Y0018687D01*
X0154596Y0020285D02*
X0155358Y0020285D01*
X0155358Y0021884D02*
X0154596Y0021884D01*
X0154596Y0023482D02*
X0155358Y0023482D01*
X0158997Y0023482D02*
X0165019Y0023482D01*
X0165585Y0024047D02*
X0164009Y0022472D01*
X0163157Y0020414D01*
X0163157Y0018186D01*
X0164009Y0016128D01*
X0165585Y0014553D01*
X0167643Y0013700D01*
X0169871Y0013700D01*
X0171929Y0014553D01*
X0173504Y0016128D01*
X0174357Y0018186D01*
X0174357Y0020414D01*
X0173504Y0022472D01*
X0171929Y0024047D01*
X0169871Y0024900D01*
X0167643Y0024900D01*
X0165585Y0024047D01*
X0163765Y0021884D02*
X0160170Y0021884D01*
X0160693Y0020285D02*
X0163157Y0020285D01*
X0163157Y0018687D02*
X0160752Y0018687D01*
X0160357Y0017088D02*
X0163611Y0017088D01*
X0164648Y0015490D02*
X0159369Y0015490D01*
X0157099Y0013891D02*
X0167181Y0013891D01*
X0170332Y0013891D02*
X0180961Y0013891D01*
X0181422Y0013700D02*
X0179364Y0014553D01*
X0177789Y0016128D01*
X0176936Y0018186D01*
X0176936Y0020414D01*
X0177789Y0022472D01*
X0179364Y0024047D01*
X0181422Y0024900D01*
X0183650Y0024900D01*
X0185708Y0024047D01*
X0187284Y0022472D01*
X0188136Y0020414D01*
X0188136Y0018186D01*
X0187284Y0016128D01*
X0185708Y0014553D01*
X0183650Y0013700D01*
X0181422Y0013700D01*
X0184111Y0013891D02*
X0194741Y0013891D01*
X0195202Y0013700D02*
X0197430Y0013700D01*
X0199488Y0014553D01*
X0201063Y0016128D01*
X0201916Y0018186D01*
X0201916Y0020414D01*
X0201063Y0022472D01*
X0199488Y0024047D01*
X0198300Y0024539D01*
X0198300Y0037128D01*
X0184628Y0050800D01*
X0185472Y0050800D01*
X0211372Y0024900D01*
X0205433Y0024900D01*
X0204495Y0023963D01*
X0204495Y0014637D01*
X0205433Y0013700D01*
X0214758Y0013700D01*
X0215695Y0014637D01*
X0215695Y0020576D01*
X0218409Y0017863D01*
X0219127Y0016128D01*
X0220703Y0014553D01*
X0222761Y0013700D01*
X0224989Y0013700D01*
X0227047Y0014553D01*
X0228622Y0016128D01*
X0229475Y0018186D01*
X0229475Y0020414D01*
X0228622Y0022472D01*
X0227047Y0024047D01*
X0224989Y0024900D01*
X0222761Y0024900D01*
X0220703Y0024047D01*
X0219292Y0022637D01*
X0216328Y0025600D01*
X0216437Y0025600D01*
X0217613Y0026087D01*
X0218513Y0026987D01*
X0219000Y0028163D01*
X0219000Y0029437D01*
X0218513Y0030613D01*
X0217613Y0031513D01*
X0216437Y0032000D01*
X0215428Y0032000D01*
X0211421Y0036008D01*
X0211613Y0036087D01*
X0212513Y0036987D01*
X0212974Y0038101D01*
X0212987Y0038087D01*
X0214163Y0037600D01*
X0215437Y0037600D01*
X0216613Y0038087D01*
X0217325Y0038800D01*
X0220972Y0038800D01*
X0227300Y0032472D01*
X0228472Y0031300D01*
X0240128Y0031300D01*
X0249800Y0040972D01*
X0249800Y0024685D01*
X0248262Y0024047D01*
X0246686Y0022472D01*
X0245834Y0020414D01*
X0245834Y0018186D01*
X0246686Y0016128D01*
X0248262Y0014553D01*
X0250320Y0013700D01*
X0252548Y0013700D01*
X0254606Y0014553D01*
X0256181Y0016128D01*
X0257034Y0018186D01*
X0257034Y0020414D01*
X0256181Y0022472D01*
X0254606Y0024047D01*
X0253800Y0024381D01*
X0253800Y0040972D01*
X0262628Y0049800D01*
X0262800Y0049972D01*
X0262800Y0047472D01*
X0287959Y0022313D01*
X0287172Y0020414D01*
X0287172Y0018186D01*
X0288025Y0016128D01*
X0289600Y0014553D01*
X0291659Y0013700D01*
X0293886Y0013700D01*
X0295945Y0014553D01*
X0297520Y0016128D01*
X0298372Y0018186D01*
X0298372Y0018399D01*
X0299300Y0017472D01*
X0299300Y0015972D01*
X0302300Y0012972D01*
X0303472Y0011800D01*
X0323128Y0011800D01*
X0326628Y0015300D01*
X0327800Y0016472D01*
X0327800Y0039128D01*
X0322800Y0044128D01*
X0322800Y0090628D01*
X0288300Y0125128D01*
X0287128Y0126300D01*
X0228972Y0126300D01*
X0224097Y0121425D01*
X0223530Y0122792D01*
X0222292Y0124030D01*
X0220675Y0124700D01*
X0218925Y0124700D01*
X0217308Y0124030D01*
X0216070Y0122792D01*
X0215400Y0121175D01*
X0215400Y0119425D01*
X0216070Y0117808D01*
X0217308Y0116570D01*
X0218675Y0116003D01*
X0212472Y0109800D01*
X0209325Y0109800D01*
X0208613Y0110513D01*
X0207437Y0111000D01*
X0206163Y0111000D01*
X0204987Y0110513D01*
X0204087Y0109613D01*
X0204008Y0109421D01*
X0195214Y0118215D01*
X0196113Y0118587D01*
X0197013Y0119487D01*
X0197500Y0120663D01*
X0197500Y0121937D01*
X0197013Y0123113D01*
X0196300Y0123825D01*
X0196300Y0133972D01*
X0201600Y0128672D01*
X0201600Y0127663D01*
X0202087Y0126487D01*
X0202987Y0125587D01*
X0204163Y0125100D01*
X0205437Y0125100D01*
X0206613Y0125587D01*
X0207513Y0126487D01*
X0208000Y0127663D01*
X0208000Y0128937D01*
X0207513Y0130113D01*
X0206613Y0131013D01*
X0205437Y0131500D01*
X0204428Y0131500D01*
X0191300Y0144628D01*
X0190128Y0145800D01*
X0167349Y0145800D01*
X0167500Y0146163D01*
X0167500Y0147172D01*
X0179113Y0158785D01*
X0180525Y0158200D01*
X0182752Y0158200D01*
X0184811Y0159053D01*
X0186386Y0160628D01*
X0187239Y0162686D01*
X0187239Y0164914D01*
X0186386Y0166972D01*
X0184811Y0168547D01*
X0182752Y0169400D01*
X0180525Y0169400D01*
X0178466Y0168547D01*
X0176891Y0166972D01*
X0176039Y0164914D01*
X0176039Y0162686D01*
X0176425Y0161753D01*
X0164672Y0150000D01*
X0163663Y0150000D01*
X0162487Y0149513D01*
X0161587Y0148613D01*
X0161100Y0147437D01*
X0161100Y0146163D01*
X0161251Y0145800D01*
X0142825Y0145800D01*
X0142113Y0146513D01*
X0141921Y0146592D01*
X0149128Y0153800D01*
X0159628Y0153800D01*
X0164824Y0158996D01*
X0166745Y0158200D01*
X0168973Y0158200D01*
X0171031Y0159053D01*
X0172606Y0160628D01*
X0173459Y0162686D01*
X0173459Y0164914D01*
X0172606Y0166972D01*
X0171031Y0168547D01*
X0168973Y0169400D01*
X0166745Y0169400D01*
X0164687Y0168547D01*
X0163112Y0166972D01*
X0162259Y0164914D01*
X0162259Y0162686D01*
X0162434Y0162263D01*
X0157972Y0157800D01*
X0147472Y0157800D01*
X0146300Y0156628D01*
X0133672Y0144000D01*
X0132663Y0144000D01*
X0131487Y0143513D01*
X0130587Y0142613D01*
X0130100Y0141437D01*
X0130100Y0140163D01*
X0130587Y0138987D01*
X0131487Y0138087D01*
X0132663Y0137600D01*
X0133937Y0137600D01*
X0135113Y0138087D01*
X0136013Y0138987D01*
X0136500Y0140163D01*
X0136500Y0141172D01*
X0137508Y0142179D01*
X0137587Y0141987D01*
X0138487Y0141087D01*
X0139663Y0140600D01*
X0140100Y0140600D01*
X0140100Y0140428D01*
X0138672Y0139000D01*
X0137663Y0139000D01*
X0136487Y0138513D01*
X0135587Y0137613D01*
X0135100Y0136437D01*
X0135100Y0135163D01*
X0135587Y0133987D01*
X0136487Y0133087D01*
X0137663Y0132600D01*
X0138937Y0132600D01*
X0140113Y0133087D01*
X0141013Y0133987D01*
X0141500Y0135163D01*
X0141500Y0136172D01*
X0142928Y0137600D01*
X0143937Y0137600D01*
X0145113Y0138087D01*
X0146013Y0138987D01*
X0146500Y0140163D01*
X0146500Y0141437D01*
X0146349Y0141800D01*
X0175251Y0141800D01*
X0175100Y0141437D01*
X0175100Y0140428D01*
X0174800Y0140128D01*
X0174800Y0113972D01*
X0175972Y0112800D01*
X0188100Y0100672D01*
X0188100Y0099663D01*
X0188251Y0099300D01*
X0187628Y0099300D01*
X0178800Y0108128D01*
X0177628Y0109300D01*
X0175142Y0109300D01*
X0175013Y0109613D01*
X0174113Y0110513D01*
X0172937Y0111000D01*
X0171663Y0111000D01*
X0171148Y0110786D01*
X0171013Y0111113D01*
X0170113Y0112013D01*
X0168937Y0112500D01*
X0167663Y0112500D01*
X0166531Y0112031D01*
X0167000Y0113163D01*
X0167000Y0114437D01*
X0166513Y0115613D01*
X0165613Y0116513D01*
X0164437Y0117000D01*
X0163163Y0117000D01*
X0161987Y0116513D01*
X0161087Y0115613D01*
X0160600Y0114437D01*
X0160600Y0113428D01*
X0144472Y0097300D01*
X0117972Y0097300D01*
X0060934Y0040263D01*
X0059154Y0041000D01*
X0057046Y0041000D01*
X0055098Y0040193D01*
X0053607Y0038702D01*
X0052800Y0036754D01*
X0052800Y0034646D01*
X0053607Y0032698D01*
X0055098Y0031207D01*
X0057046Y0030400D01*
X0059154Y0030400D01*
X0061102Y0031207D01*
X0062593Y0032698D01*
X0063400Y0034646D01*
X0063400Y0036754D01*
X0063307Y0036979D01*
X0119628Y0093300D01*
X0146128Y0093300D01*
X0147300Y0094472D01*
X0163428Y0110600D01*
X0164437Y0110600D01*
X0165569Y0111069D01*
X0165100Y0109937D01*
X0165100Y0108928D01*
X0151172Y0095000D01*
X0150163Y0095000D01*
X0148987Y0094513D01*
X0148087Y0093613D01*
X0147600Y0092437D01*
X0147600Y0092005D01*
X0146705Y0092900D01*
X0144800Y0092900D01*
X0144800Y0088300D01*
X0149400Y0088300D01*
X0149400Y0088916D01*
X0150163Y0088600D01*
X0150200Y0088600D01*
X0150200Y0088300D01*
X0154800Y0088300D01*
X0154800Y0088300D01*
X0154800Y0092900D01*
X0156705Y0092900D01*
X0158800Y0090805D01*
X0158800Y0095472D01*
X0158800Y0096972D01*
X0154728Y0092900D01*
X0154800Y0092900D01*
X0154800Y0088300D01*
X0154800Y0083700D01*
X0156705Y0083700D01*
X0158800Y0085795D01*
X0158800Y0085628D01*
X0150972Y0077800D01*
X0150972Y0077800D01*
X0149800Y0076628D01*
X0149800Y0075325D01*
X0149087Y0074613D01*
X0148600Y0073437D01*
X0148600Y0072163D01*
X0149087Y0070987D01*
X0149275Y0070800D01*
X0140472Y0070800D01*
X0123972Y0054300D01*
X0122800Y0053128D01*
X0122800Y0052523D01*
X0120400Y0050123D01*
X0120400Y0046477D01*
X0122977Y0043900D01*
X0126623Y0043900D01*
X0129200Y0046477D01*
X0129200Y0050100D01*
X0130172Y0050100D01*
X0130400Y0049872D01*
X0130400Y0046477D01*
X0132977Y0043900D01*
X0136623Y0043900D01*
X0139200Y0046477D01*
X0139200Y0050123D01*
X0136623Y0052700D01*
X0133228Y0052700D01*
X0133000Y0052928D01*
X0133000Y0053937D01*
X0132513Y0055113D01*
X0131613Y0056013D01*
X0131421Y0056092D01*
X0142128Y0066800D01*
X0170972Y0066800D01*
X0163592Y0059421D01*
X0163513Y0059613D01*
X0162613Y0060513D01*
X0161437Y0061000D01*
X0160163Y0061000D01*
X0158987Y0060513D01*
X0158087Y0059613D01*
X0157600Y0058437D01*
X0157600Y0058300D01*
X0155325Y0058300D01*
X0154613Y0059013D01*
X0153437Y0059500D01*
X0152163Y0059500D01*
X0150987Y0059013D01*
X0150087Y0058113D01*
X0149600Y0056937D01*
X0149600Y0055928D01*
X0146372Y0052700D01*
X0142977Y0052700D01*
X0140400Y0050123D01*
X0140400Y0046477D01*
X0142977Y0043900D01*
X0146623Y0043900D01*
X0149200Y0046477D01*
X0149200Y0049872D01*
X0152428Y0053100D01*
X0153437Y0053100D01*
X0154613Y0053587D01*
X0155325Y0054300D01*
X0158472Y0054300D01*
X0156747Y0052575D01*
X0156623Y0052700D01*
X0152977Y0052700D01*
X0150400Y0050123D01*
X0150400Y0046477D01*
X0152977Y0043900D01*
X0156623Y0043900D01*
X0159200Y0046477D01*
X0159200Y0049372D01*
X0169008Y0059179D01*
X0169087Y0058987D01*
X0169987Y0058087D01*
X0171163Y0057600D01*
X0172172Y0057600D01*
X0194300Y0035472D01*
X0194300Y0024526D01*
X0193144Y0024047D01*
X0191568Y0022472D01*
X0190716Y0020414D01*
X0190716Y0018186D01*
X0191568Y0016128D01*
X0193144Y0014553D01*
X0195202Y0013700D01*
X0197891Y0013891D02*
X0205241Y0013891D01*
X0204495Y0015490D02*
X0200425Y0015490D01*
X0201461Y0017088D02*
X0204495Y0017088D01*
X0204495Y0018687D02*
X0201916Y0018687D01*
X0201916Y0020285D02*
X0204495Y0020285D01*
X0204495Y0021884D02*
X0201307Y0021884D01*
X0200053Y0023482D02*
X0204495Y0023482D01*
X0198300Y0025081D02*
X0211191Y0025081D01*
X0209592Y0026679D02*
X0198300Y0026679D01*
X0198300Y0028278D02*
X0207994Y0028278D01*
X0206395Y0029876D02*
X0198300Y0029876D01*
X0198300Y0031475D02*
X0204797Y0031475D01*
X0203198Y0033073D02*
X0198300Y0033073D01*
X0198300Y0034672D02*
X0201600Y0034672D01*
X0200001Y0036270D02*
X0198300Y0036270D01*
X0198403Y0037869D02*
X0197560Y0037869D01*
X0196804Y0039467D02*
X0195961Y0039467D01*
X0195206Y0041066D02*
X0194363Y0041066D01*
X0193607Y0042664D02*
X0192764Y0042664D01*
X0192009Y0044263D02*
X0191166Y0044263D01*
X0190410Y0045861D02*
X0189567Y0045861D01*
X0188812Y0047460D02*
X0187969Y0047460D01*
X0187213Y0049058D02*
X0186370Y0049058D01*
X0185615Y0050657D02*
X0184772Y0050657D01*
X0182312Y0047460D02*
X0179400Y0047460D01*
X0179400Y0048300D02*
X0174800Y0048300D01*
X0174800Y0048300D01*
X0174800Y0052900D01*
X0176705Y0052900D01*
X0179400Y0050205D01*
X0179400Y0048300D01*
X0174800Y0048300D01*
X0174800Y0048300D01*
X0174800Y0048300D01*
X0170200Y0048300D01*
X0170200Y0050205D01*
X0172895Y0052900D01*
X0174800Y0052900D01*
X0174800Y0048300D01*
X0174800Y0043700D01*
X0176705Y0043700D01*
X0179400Y0046395D01*
X0179400Y0048300D01*
X0179400Y0049058D02*
X0180713Y0049058D01*
X0179115Y0050657D02*
X0178949Y0050657D01*
X0177516Y0052255D02*
X0177350Y0052255D01*
X0175918Y0053854D02*
X0163682Y0053854D01*
X0162895Y0052900D02*
X0160200Y0050205D01*
X0160200Y0048300D01*
X0164800Y0048300D01*
X0164800Y0048300D01*
X0164800Y0052900D01*
X0166705Y0052900D01*
X0169400Y0050205D01*
X0169400Y0048300D01*
X0164800Y0048300D01*
X0164800Y0048300D01*
X0164800Y0048300D01*
X0164800Y0052900D01*
X0162895Y0052900D01*
X0162250Y0052255D02*
X0162084Y0052255D01*
X0160651Y0050657D02*
X0160485Y0050657D01*
X0160200Y0049058D02*
X0159200Y0049058D01*
X0160200Y0048300D02*
X0160200Y0046395D01*
X0162895Y0043700D01*
X0164800Y0043700D01*
X0166705Y0043700D01*
X0169400Y0046395D01*
X0169400Y0048300D01*
X0164800Y0048300D01*
X0164800Y0043700D01*
X0164800Y0048300D01*
X0164800Y0048300D01*
X0160200Y0048300D01*
X0160200Y0047460D02*
X0159200Y0047460D01*
X0158584Y0045861D02*
X0160733Y0045861D01*
X0162332Y0044263D02*
X0156985Y0044263D01*
X0152615Y0044263D02*
X0146985Y0044263D01*
X0148584Y0045861D02*
X0151016Y0045861D01*
X0150400Y0047460D02*
X0149200Y0047460D01*
X0149200Y0049058D02*
X0150400Y0049058D01*
X0149985Y0050657D02*
X0150934Y0050657D01*
X0151584Y0052255D02*
X0152533Y0052255D01*
X0154879Y0053854D02*
X0158025Y0053854D01*
X0164800Y0052255D02*
X0164800Y0052255D01*
X0164800Y0050657D02*
X0164800Y0050657D01*
X0164800Y0049058D02*
X0164800Y0049058D01*
X0164800Y0047460D02*
X0164800Y0047460D01*
X0164800Y0045861D02*
X0164800Y0045861D01*
X0164800Y0044263D02*
X0164800Y0044263D01*
X0167268Y0044263D02*
X0172332Y0044263D01*
X0172895Y0043700D02*
X0170200Y0046395D01*
X0170200Y0048300D01*
X0174800Y0048300D01*
X0174800Y0048300D01*
X0174800Y0043700D01*
X0172895Y0043700D01*
X0174800Y0044263D02*
X0174800Y0044263D01*
X0174800Y0045861D02*
X0174800Y0045861D01*
X0174800Y0047460D02*
X0174800Y0047460D01*
X0174800Y0049058D02*
X0174800Y0049058D01*
X0174800Y0050657D02*
X0174800Y0050657D01*
X0174800Y0052255D02*
X0174800Y0052255D01*
X0172250Y0052255D02*
X0167350Y0052255D01*
X0168949Y0050657D02*
X0170651Y0050657D01*
X0170200Y0049058D02*
X0169400Y0049058D01*
X0169400Y0047460D02*
X0170200Y0047460D01*
X0170733Y0045861D02*
X0168867Y0045861D01*
X0177268Y0044263D02*
X0185509Y0044263D01*
X0183910Y0045861D02*
X0178867Y0045861D01*
X0187107Y0042664D02*
X0068993Y0042664D01*
X0070591Y0044263D02*
X0122615Y0044263D01*
X0121016Y0045861D02*
X0072190Y0045861D01*
X0073788Y0047460D02*
X0120400Y0047460D01*
X0120400Y0049058D02*
X0075387Y0049058D01*
X0076985Y0050657D02*
X0120934Y0050657D01*
X0122533Y0052255D02*
X0099389Y0052255D01*
X0098836Y0051702D02*
X0100228Y0053095D01*
X0100982Y0054914D01*
X0100982Y0056883D01*
X0100228Y0058702D01*
X0098836Y0060094D01*
X0097017Y0060848D01*
X0095048Y0060848D01*
X0093229Y0060094D01*
X0091836Y0058702D01*
X0091083Y0056883D01*
X0091083Y0054914D01*
X0091836Y0053095D01*
X0093229Y0051702D01*
X0095048Y0050949D01*
X0097017Y0050949D01*
X0098836Y0051702D01*
X0100543Y0053854D02*
X0123525Y0053854D01*
X0125124Y0055452D02*
X0100982Y0055452D01*
X0100912Y0057051D02*
X0126722Y0057051D01*
X0128321Y0058649D02*
X0100250Y0058649D01*
X0098466Y0060248D02*
X0129919Y0060248D01*
X0131518Y0061846D02*
X0088175Y0061846D01*
X0086576Y0060248D02*
X0093599Y0060248D01*
X0091814Y0058649D02*
X0084978Y0058649D01*
X0083379Y0057051D02*
X0091152Y0057051D01*
X0091083Y0055452D02*
X0081781Y0055452D01*
X0080182Y0053854D02*
X0091522Y0053854D01*
X0092676Y0052255D02*
X0078584Y0052255D01*
X0074525Y0053854D02*
X0006139Y0053854D01*
X0006139Y0055452D02*
X0076124Y0055452D01*
X0077722Y0057051D02*
X0006139Y0057051D01*
X0006139Y0058649D02*
X0079321Y0058649D01*
X0080919Y0060248D02*
X0006139Y0060248D01*
X0006139Y0061846D02*
X0082518Y0061846D01*
X0084116Y0063445D02*
X0006139Y0063445D01*
X0006139Y0065043D02*
X0085715Y0065043D01*
X0087314Y0066642D02*
X0006139Y0066642D01*
X0006139Y0068240D02*
X0088912Y0068240D01*
X0090511Y0069839D02*
X0006139Y0069839D01*
X0006139Y0071437D02*
X0092109Y0071437D01*
X0093708Y0073036D02*
X0006139Y0073036D01*
X0006139Y0074634D02*
X0095306Y0074634D01*
X0096905Y0076233D02*
X0006139Y0076233D01*
X0006139Y0077832D02*
X0098503Y0077832D01*
X0100102Y0079430D02*
X0006139Y0079430D01*
X0006139Y0081029D02*
X0101700Y0081029D01*
X0103299Y0082627D02*
X0006139Y0082627D01*
X0006139Y0084226D02*
X0104897Y0084226D01*
X0106496Y0085824D02*
X0006139Y0085824D01*
X0006139Y0087423D02*
X0108094Y0087423D01*
X0109693Y0089021D02*
X0006139Y0089021D01*
X0006139Y0090620D02*
X0111291Y0090620D01*
X0112890Y0092218D02*
X0006139Y0092218D01*
X0006139Y0093817D02*
X0114488Y0093817D01*
X0116087Y0095415D02*
X0006139Y0095415D01*
X0006139Y0097014D02*
X0117685Y0097014D01*
X0118547Y0092218D02*
X0122213Y0092218D01*
X0122895Y0092900D02*
X0120200Y0090205D01*
X0120200Y0088300D01*
X0124800Y0088300D01*
X0124800Y0088300D01*
X0124800Y0092900D01*
X0126705Y0092900D01*
X0129400Y0090205D01*
X0129400Y0088300D01*
X0124800Y0088300D01*
X0124800Y0088300D01*
X0124800Y0088300D01*
X0124800Y0092900D01*
X0122895Y0092900D01*
X0124800Y0092218D02*
X0124800Y0092218D01*
X0124800Y0090620D02*
X0124800Y0090620D01*
X0124800Y0089021D02*
X0124800Y0089021D01*
X0124800Y0088300D02*
X0120200Y0088300D01*
X0120200Y0086395D01*
X0122895Y0083700D01*
X0124800Y0083700D01*
X0126705Y0083700D01*
X0129400Y0086395D01*
X0129400Y0088300D01*
X0124800Y0088300D01*
X0124800Y0083700D01*
X0124800Y0088300D01*
X0124800Y0088300D01*
X0124800Y0087423D02*
X0124800Y0087423D01*
X0124800Y0085824D02*
X0124800Y0085824D01*
X0124800Y0084226D02*
X0124800Y0084226D01*
X0127231Y0084226D02*
X0132369Y0084226D01*
X0132895Y0083700D02*
X0130200Y0086395D01*
X0130200Y0088300D01*
X0134800Y0088300D01*
X0134800Y0088300D01*
X0134800Y0092900D01*
X0136705Y0092900D01*
X0139400Y0090205D01*
X0139400Y0088300D01*
X0134800Y0088300D01*
X0134800Y0088300D01*
X0134800Y0088300D01*
X0134800Y0092900D01*
X0132895Y0092900D01*
X0130200Y0090205D01*
X0130200Y0088300D01*
X0134800Y0088300D01*
X0139400Y0088300D01*
X0139400Y0086395D01*
X0136705Y0083700D01*
X0134800Y0083700D01*
X0134800Y0088300D01*
X0134800Y0088300D01*
X0134800Y0083700D01*
X0132895Y0083700D01*
X0134800Y0084226D02*
X0134800Y0084226D01*
X0134800Y0085824D02*
X0134800Y0085824D01*
X0134800Y0087423D02*
X0134800Y0087423D01*
X0134800Y0089021D02*
X0134800Y0089021D01*
X0134800Y0090620D02*
X0134800Y0090620D01*
X0134800Y0092218D02*
X0134800Y0092218D01*
X0137387Y0092218D02*
X0142213Y0092218D01*
X0142895Y0092900D02*
X0140200Y0090205D01*
X0140200Y0088300D01*
X0144800Y0088300D01*
X0144800Y0088300D01*
X0144800Y0088300D01*
X0149400Y0088300D01*
X0149400Y0086395D01*
X0146705Y0083700D01*
X0144800Y0083700D01*
X0144800Y0088300D01*
X0144800Y0088300D01*
X0144800Y0088300D01*
X0144800Y0092900D01*
X0142895Y0092900D01*
X0144800Y0092218D02*
X0144800Y0092218D01*
X0144800Y0090620D02*
X0144800Y0090620D01*
X0144800Y0089021D02*
X0144800Y0089021D01*
X0144800Y0088300D02*
X0140200Y0088300D01*
X0140200Y0086395D01*
X0142895Y0083700D01*
X0144800Y0083700D01*
X0144800Y0088300D01*
X0144800Y0087423D02*
X0144800Y0087423D01*
X0144800Y0085824D02*
X0144800Y0085824D01*
X0144800Y0084226D02*
X0144800Y0084226D01*
X0147231Y0084226D02*
X0152369Y0084226D01*
X0152895Y0083700D02*
X0150200Y0086395D01*
X0150200Y0088300D01*
X0154800Y0088300D01*
X0154800Y0088300D01*
X0154800Y0088300D01*
X0154800Y0083700D01*
X0152895Y0083700D01*
X0154800Y0084226D02*
X0154800Y0084226D01*
X0154800Y0085824D02*
X0154800Y0085824D01*
X0154800Y0087423D02*
X0154800Y0087423D01*
X0154800Y0089021D02*
X0154800Y0089021D01*
X0154800Y0090620D02*
X0154800Y0090620D01*
X0154800Y0092218D02*
X0154800Y0092218D01*
X0155645Y0093817D02*
X0158800Y0093817D01*
X0158800Y0095415D02*
X0157244Y0095415D01*
X0153185Y0097014D02*
X0149842Y0097014D01*
X0151441Y0098612D02*
X0154784Y0098612D01*
X0156382Y0100211D02*
X0153039Y0100211D01*
X0154638Y0101809D02*
X0157981Y0101809D01*
X0159579Y0103408D02*
X0156236Y0103408D01*
X0157835Y0105006D02*
X0161178Y0105006D01*
X0162776Y0106605D02*
X0159433Y0106605D01*
X0161032Y0108203D02*
X0164375Y0108203D01*
X0165100Y0109802D02*
X0162630Y0109802D01*
X0160170Y0112999D02*
X0147000Y0112999D01*
X0147000Y0112663D02*
X0147000Y0113937D01*
X0146513Y0115113D01*
X0145613Y0116013D01*
X0144437Y0116500D01*
X0143428Y0116500D01*
X0101302Y0158626D01*
X0101600Y0159345D01*
X0101600Y0161255D01*
X0100869Y0163019D01*
X0099519Y0164369D01*
X0097755Y0165100D01*
X0095845Y0165100D01*
X0094081Y0164369D01*
X0092731Y0163019D01*
X0092000Y0161255D01*
X0092000Y0159345D01*
X0092731Y0157581D01*
X0094081Y0156231D01*
X0095845Y0155500D01*
X0097755Y0155500D01*
X0098474Y0155798D01*
X0140600Y0113672D01*
X0140600Y0112663D01*
X0141087Y0111487D01*
X0141987Y0110587D01*
X0143163Y0110100D01*
X0144437Y0110100D01*
X0145613Y0110587D01*
X0146513Y0111487D01*
X0147000Y0112663D01*
X0146426Y0111400D02*
X0158572Y0111400D01*
X0156973Y0109802D02*
X0006139Y0109802D01*
X0006139Y0111400D02*
X0090174Y0111400D01*
X0090487Y0111087D02*
X0089587Y0111987D01*
X0089100Y0113163D01*
X0089100Y0114437D01*
X0089587Y0115613D01*
X0090487Y0116513D01*
X0091663Y0117000D01*
X0092672Y0117000D01*
X0095100Y0119428D01*
X0095100Y0120437D01*
X0095587Y0121613D01*
X0096487Y0122513D01*
X0097663Y0123000D01*
X0098937Y0123000D01*
X0100113Y0122513D01*
X0101013Y0121613D01*
X0101500Y0120437D01*
X0101500Y0119163D01*
X0101013Y0117987D01*
X0100113Y0117087D01*
X0098937Y0116600D01*
X0097928Y0116600D01*
X0095500Y0114172D01*
X0095500Y0113163D01*
X0095013Y0111987D01*
X0094113Y0111087D01*
X0092937Y0110600D01*
X0091663Y0110600D01*
X0090487Y0111087D01*
X0089168Y0112999D02*
X0006139Y0112999D01*
X0006139Y0114597D02*
X0089167Y0114597D01*
X0090170Y0116196D02*
X0006139Y0116196D01*
X0006139Y0117794D02*
X0093466Y0117794D01*
X0095064Y0119393D02*
X0006139Y0119393D01*
X0006139Y0120991D02*
X0095330Y0120991D01*
X0096673Y0122590D02*
X0006139Y0122590D01*
X0006139Y0124188D02*
X0120083Y0124188D01*
X0121682Y0122590D02*
X0099927Y0122590D01*
X0101270Y0120991D02*
X0123280Y0120991D01*
X0124600Y0119672D02*
X0124600Y0118663D01*
X0125087Y0117487D01*
X0125987Y0116587D01*
X0127163Y0116100D01*
X0128437Y0116100D01*
X0129613Y0116587D01*
X0130513Y0117487D01*
X0131000Y0118663D01*
X0131000Y0119937D01*
X0130513Y0121113D01*
X0129613Y0122013D01*
X0128437Y0122500D01*
X0127428Y0122500D01*
X0091302Y0158626D01*
X0091600Y0159345D01*
X0091600Y0161255D01*
X0090869Y0163019D01*
X0089519Y0164369D01*
X0087755Y0165100D01*
X0085845Y0165100D01*
X0084081Y0164369D01*
X0082731Y0163019D01*
X0082000Y0161255D01*
X0082000Y0159345D01*
X0082731Y0157581D01*
X0084081Y0156231D01*
X0085845Y0155500D01*
X0087755Y0155500D01*
X0088474Y0155798D01*
X0124600Y0119672D01*
X0124600Y0119393D02*
X0101500Y0119393D01*
X0100820Y0117794D02*
X0124960Y0117794D01*
X0126932Y0116196D02*
X0097524Y0116196D01*
X0095926Y0114597D02*
X0139674Y0114597D01*
X0140600Y0112999D02*
X0095432Y0112999D01*
X0094426Y0111400D02*
X0141174Y0111400D01*
X0146726Y0114597D02*
X0160667Y0114597D01*
X0161670Y0116196D02*
X0145171Y0116196D01*
X0142134Y0117794D02*
X0174800Y0117794D01*
X0174800Y0116196D02*
X0165930Y0116196D01*
X0166933Y0114597D02*
X0174800Y0114597D01*
X0175773Y0112999D02*
X0166932Y0112999D01*
X0170725Y0111400D02*
X0177371Y0111400D01*
X0178970Y0109802D02*
X0174824Y0109802D01*
X0178725Y0108203D02*
X0180568Y0108203D01*
X0180324Y0106605D02*
X0182167Y0106605D01*
X0181922Y0105006D02*
X0183765Y0105006D01*
X0183521Y0103408D02*
X0185364Y0103408D01*
X0185119Y0101809D02*
X0186962Y0101809D01*
X0186718Y0100211D02*
X0188100Y0100211D01*
X0208421Y0105008D02*
X0210428Y0103000D01*
X0211437Y0103000D01*
X0212613Y0102513D01*
X0213513Y0101613D01*
X0214000Y0100437D01*
X0214000Y0099163D01*
X0213513Y0097987D01*
X0212613Y0097087D01*
X0212067Y0096861D01*
X0217928Y0091000D01*
X0218937Y0091000D01*
X0220113Y0090513D01*
X0221013Y0089613D01*
X0221092Y0089421D01*
X0249800Y0118128D01*
X0250972Y0119300D01*
X0288472Y0119300D01*
X0285472Y0122300D01*
X0242734Y0122300D01*
X0243200Y0121175D01*
X0243200Y0119425D01*
X0242530Y0117808D01*
X0241292Y0116570D01*
X0239675Y0115900D01*
X0237925Y0115900D01*
X0236308Y0116570D01*
X0235070Y0117808D01*
X0234400Y0119425D01*
X0234400Y0121175D01*
X0234866Y0122300D01*
X0230628Y0122300D01*
X0215300Y0106972D01*
X0214128Y0105800D01*
X0209325Y0105800D01*
X0208613Y0105087D01*
X0208421Y0105008D01*
X0208422Y0105006D02*
X0236678Y0105006D01*
X0235079Y0103408D02*
X0210021Y0103408D01*
X0213316Y0101809D02*
X0233481Y0101809D01*
X0231882Y0100211D02*
X0214000Y0100211D01*
X0213772Y0098612D02*
X0230284Y0098612D01*
X0228685Y0097014D02*
X0212435Y0097014D01*
X0213513Y0095415D02*
X0227087Y0095415D01*
X0225488Y0093817D02*
X0215112Y0093817D01*
X0216710Y0092218D02*
X0223890Y0092218D01*
X0222291Y0090620D02*
X0219855Y0090620D01*
X0231928Y0082100D02*
X0232937Y0082100D01*
X0233300Y0082251D01*
X0233300Y0066128D01*
X0228472Y0061300D01*
X0227300Y0060128D01*
X0227300Y0044825D01*
X0226587Y0044113D01*
X0226508Y0043921D01*
X0221300Y0049128D01*
X0221300Y0063275D01*
X0222013Y0063987D01*
X0222500Y0065163D01*
X0222500Y0066437D01*
X0222013Y0067613D01*
X0221113Y0068513D01*
X0219937Y0069000D01*
X0218828Y0069000D01*
X0231928Y0082100D01*
X0230857Y0081029D02*
X0233300Y0081029D01*
X0233300Y0079430D02*
X0229258Y0079430D01*
X0227660Y0077832D02*
X0233300Y0077832D01*
X0233300Y0076233D02*
X0226061Y0076233D01*
X0224463Y0074634D02*
X0233300Y0074634D01*
X0233300Y0073036D02*
X0222864Y0073036D01*
X0221266Y0071437D02*
X0233300Y0071437D01*
X0233300Y0069839D02*
X0231787Y0069839D01*
X0231613Y0070013D02*
X0232513Y0069113D01*
X0233000Y0067937D01*
X0233000Y0066663D01*
X0232513Y0065487D01*
X0231613Y0064587D01*
X0230437Y0064100D01*
X0229428Y0064100D01*
X0228500Y0063172D01*
X0228500Y0062163D01*
X0228013Y0060987D01*
X0227113Y0060087D01*
X0225937Y0059600D01*
X0224663Y0059600D01*
X0223487Y0060087D01*
X0222587Y0060987D01*
X0222100Y0062163D01*
X0222100Y0063437D01*
X0222587Y0064613D01*
X0223487Y0065513D01*
X0224663Y0066000D01*
X0225672Y0066000D01*
X0226600Y0066928D01*
X0226600Y0067937D01*
X0227087Y0069113D01*
X0227987Y0070013D01*
X0229163Y0070500D01*
X0230437Y0070500D01*
X0231613Y0070013D01*
X0232874Y0068240D02*
X0233300Y0068240D01*
X0233300Y0066642D02*
X0232991Y0066642D01*
X0232215Y0065043D02*
X0232069Y0065043D01*
X0230616Y0063445D02*
X0228773Y0063445D01*
X0229018Y0061846D02*
X0228369Y0061846D01*
X0227419Y0060248D02*
X0227273Y0060248D01*
X0227300Y0058649D02*
X0221300Y0058649D01*
X0221300Y0057051D02*
X0227300Y0057051D01*
X0227300Y0055452D02*
X0221300Y0055452D01*
X0221300Y0053854D02*
X0227300Y0053854D01*
X0227300Y0052255D02*
X0221300Y0052255D01*
X0221300Y0050657D02*
X0227300Y0050657D01*
X0227300Y0049058D02*
X0221370Y0049058D01*
X0222969Y0047460D02*
X0227300Y0047460D01*
X0227300Y0045861D02*
X0224567Y0045861D01*
X0226166Y0044263D02*
X0226737Y0044263D01*
X0213300Y0050128D02*
X0208972Y0045800D01*
X0207800Y0044628D01*
X0207800Y0041325D01*
X0207087Y0040613D01*
X0207008Y0040421D01*
X0192000Y0055428D01*
X0192000Y0055672D01*
X0194928Y0058600D01*
X0195937Y0058600D01*
X0197113Y0059087D01*
X0198013Y0059987D01*
X0198092Y0060179D01*
X0199472Y0058800D01*
X0208628Y0058800D01*
X0209800Y0059972D01*
X0211800Y0061972D01*
X0211800Y0063472D01*
X0212508Y0064179D01*
X0212587Y0063987D01*
X0213300Y0063275D01*
X0213300Y0050128D01*
X0213300Y0050657D02*
X0196772Y0050657D01*
X0198370Y0049058D02*
X0212230Y0049058D01*
X0210631Y0047460D02*
X0199969Y0047460D01*
X0201567Y0045861D02*
X0209033Y0045861D01*
X0207800Y0044263D02*
X0203166Y0044263D01*
X0204764Y0042664D02*
X0207800Y0042664D01*
X0207540Y0041066D02*
X0206363Y0041066D01*
X0212878Y0037869D02*
X0213515Y0037869D01*
X0211796Y0036270D02*
X0223501Y0036270D01*
X0221903Y0037869D02*
X0216085Y0037869D01*
X0212757Y0034672D02*
X0225100Y0034672D01*
X0226698Y0033073D02*
X0214355Y0033073D01*
X0217651Y0031475D02*
X0228297Y0031475D01*
X0218818Y0029876D02*
X0249800Y0029876D01*
X0249800Y0028278D02*
X0219000Y0028278D01*
X0218205Y0026679D02*
X0249800Y0026679D01*
X0249800Y0025081D02*
X0216848Y0025081D01*
X0218446Y0023482D02*
X0220137Y0023482D01*
X0215986Y0020285D02*
X0215695Y0020285D01*
X0215695Y0018687D02*
X0217585Y0018687D01*
X0218730Y0017088D02*
X0215695Y0017088D01*
X0215695Y0015490D02*
X0219766Y0015490D01*
X0222300Y0013891D02*
X0214949Y0013891D01*
X0225450Y0013891D02*
X0236079Y0013891D01*
X0238100Y0012293D02*
X0024133Y0012293D01*
X0024795Y0013891D02*
X0029014Y0013891D01*
X0029498Y0013407D02*
X0031446Y0012600D01*
X0033554Y0012600D01*
X0035502Y0013407D01*
X0036993Y0014898D01*
X0037800Y0016846D01*
X0037800Y0018954D01*
X0036993Y0020902D01*
X0035502Y0022393D01*
X0033554Y0023200D01*
X0031446Y0023200D01*
X0029498Y0022393D01*
X0028007Y0020902D01*
X0027200Y0018954D01*
X0027200Y0016846D01*
X0028007Y0014898D01*
X0029498Y0013407D01*
X0027762Y0015490D02*
X0025300Y0015490D01*
X0025300Y0017088D02*
X0027200Y0017088D01*
X0027200Y0018687D02*
X0025219Y0018687D01*
X0024557Y0020285D02*
X0027751Y0020285D01*
X0028988Y0021884D02*
X0023737Y0021884D01*
X0024006Y0021615D02*
X0024006Y0021615D01*
X0022139Y0023482D02*
X0066500Y0023482D01*
X0066500Y0023537D02*
X0066500Y0019681D01*
X0071919Y0019681D01*
X0071919Y0025100D01*
X0068063Y0025100D01*
X0067605Y0024977D01*
X0067195Y0024740D01*
X0066860Y0024405D01*
X0066623Y0023995D01*
X0066500Y0023537D01*
X0066500Y0021884D02*
X0061895Y0021884D01*
X0061683Y0022095D02*
X0060983Y0022604D01*
X0060211Y0022997D01*
X0059388Y0023265D01*
X0058533Y0023400D01*
X0058300Y0023400D01*
X0058300Y0018100D01*
X0063600Y0018100D01*
X0063600Y0018333D01*
X0063465Y0019188D01*
X0063197Y0020011D01*
X0062804Y0020783D01*
X0062295Y0021483D01*
X0061683Y0022095D01*
X0063058Y0020285D02*
X0066500Y0020285D01*
X0066500Y0018919D02*
X0066500Y0015063D01*
X0066623Y0014605D01*
X0066860Y0014195D01*
X0067195Y0013860D01*
X0067605Y0013623D01*
X0068063Y0013500D01*
X0071919Y0013500D01*
X0071919Y0018919D01*
X0066500Y0018919D01*
X0066500Y0018687D02*
X0063544Y0018687D01*
X0063600Y0017700D02*
X0058300Y0017700D01*
X0058300Y0018100D01*
X0057900Y0018100D01*
X0057900Y0023400D01*
X0057667Y0023400D01*
X0056812Y0023265D01*
X0055989Y0022997D01*
X0055217Y0022604D01*
X0054517Y0022095D01*
X0053905Y0021483D01*
X0053396Y0020783D01*
X0053003Y0020011D01*
X0052735Y0019188D01*
X0052600Y0018333D01*
X0052600Y0018100D01*
X0057900Y0018100D01*
X0057900Y0017700D01*
X0058300Y0017700D01*
X0058300Y0012400D01*
X0058533Y0012400D01*
X0059388Y0012535D01*
X0060211Y0012803D01*
X0060983Y0013196D01*
X0061683Y0013705D01*
X0062295Y0014317D01*
X0062804Y0015017D01*
X0063197Y0015789D01*
X0063465Y0016612D01*
X0063600Y0017467D01*
X0063600Y0017700D01*
X0063540Y0017088D02*
X0066500Y0017088D01*
X0066500Y0015490D02*
X0063045Y0015490D01*
X0061869Y0013891D02*
X0067163Y0013891D01*
X0071919Y0013891D02*
X0072681Y0013891D01*
X0072681Y0015490D02*
X0071919Y0015490D01*
X0071919Y0017088D02*
X0072681Y0017088D01*
X0072681Y0018687D02*
X0071919Y0018687D01*
X0071919Y0020285D02*
X0072681Y0020285D01*
X0072681Y0021884D02*
X0071919Y0021884D01*
X0071919Y0023482D02*
X0072681Y0023482D01*
X0072681Y0025081D02*
X0071919Y0025081D01*
X0067991Y0025081D02*
X0019020Y0025081D01*
X0029498Y0031207D02*
X0031446Y0030400D01*
X0033554Y0030400D01*
X0035502Y0031207D01*
X0036993Y0032698D01*
X0037800Y0034646D01*
X0037800Y0036754D01*
X0036993Y0038702D01*
X0035502Y0040193D01*
X0033554Y0041000D01*
X0031446Y0041000D01*
X0029498Y0040193D01*
X0028007Y0038702D01*
X0027200Y0036754D01*
X0027200Y0034646D01*
X0028007Y0032698D01*
X0029498Y0031207D01*
X0029230Y0031475D02*
X0006139Y0031475D01*
X0006139Y0033073D02*
X0027851Y0033073D01*
X0027200Y0034672D02*
X0006139Y0034672D01*
X0006139Y0036270D02*
X0027200Y0036270D01*
X0027662Y0037869D02*
X0006139Y0037869D01*
X0006139Y0039467D02*
X0028772Y0039467D01*
X0036228Y0039467D02*
X0054372Y0039467D01*
X0053262Y0037869D02*
X0037338Y0037869D01*
X0037800Y0036270D02*
X0052800Y0036270D01*
X0052800Y0034672D02*
X0037800Y0034672D01*
X0037149Y0033073D02*
X0053451Y0033073D01*
X0054830Y0031475D02*
X0035770Y0031475D01*
X0036012Y0021884D02*
X0054305Y0021884D01*
X0053142Y0020285D02*
X0037249Y0020285D01*
X0037800Y0018687D02*
X0052656Y0018687D01*
X0052600Y0017700D02*
X0052600Y0017467D01*
X0052735Y0016612D01*
X0053003Y0015789D01*
X0053396Y0015017D01*
X0053905Y0014317D01*
X0054517Y0013705D01*
X0055217Y0013196D01*
X0055989Y0012803D01*
X0056812Y0012535D01*
X0057667Y0012400D01*
X0057900Y0012400D01*
X0057900Y0017700D01*
X0052600Y0017700D01*
X0052660Y0017088D02*
X0037800Y0017088D01*
X0037238Y0015490D02*
X0053155Y0015490D01*
X0054331Y0013891D02*
X0035986Y0013891D01*
X0022715Y0010694D02*
X0235169Y0010694D01*
X0234166Y0009096D02*
X0020411Y0009096D01*
X0021615Y0009594D02*
X0021615Y0009594D01*
X0018491Y0008300D02*
X0018491Y0008300D01*
X0010767Y0007497D02*
X0234169Y0007497D01*
X0240431Y0007497D02*
X0345100Y0007497D01*
X0343676Y0009096D02*
X0240924Y0009096D01*
X0244098Y0010694D02*
X0342078Y0010694D01*
X0340479Y0012293D02*
X0323621Y0012293D01*
X0325219Y0013891D02*
X0332536Y0013891D01*
X0330002Y0015490D02*
X0326818Y0015490D01*
X0327800Y0017088D02*
X0328966Y0017088D01*
X0328511Y0018687D02*
X0327800Y0018687D01*
X0327800Y0020285D02*
X0328511Y0020285D01*
X0329120Y0021884D02*
X0327800Y0021884D01*
X0327800Y0023482D02*
X0330374Y0023482D01*
X0327800Y0025081D02*
X0339994Y0025081D01*
X0339587Y0025487D02*
X0340487Y0024587D01*
X0341663Y0024100D01*
X0342672Y0024100D01*
X0352100Y0014672D01*
X0352100Y0013663D01*
X0352587Y0012487D01*
X0353487Y0011587D01*
X0354663Y0011100D01*
X0355937Y0011100D01*
X0357113Y0011587D01*
X0358013Y0012487D01*
X0358500Y0013663D01*
X0358500Y0014937D01*
X0358013Y0016113D01*
X0357113Y0017013D01*
X0355937Y0017500D01*
X0354928Y0017500D01*
X0345500Y0026928D01*
X0345500Y0027937D01*
X0345013Y0029113D01*
X0344113Y0030013D01*
X0342937Y0030500D01*
X0341663Y0030500D01*
X0340487Y0030013D01*
X0339587Y0029113D01*
X0339100Y0027937D01*
X0339100Y0026663D01*
X0339587Y0025487D01*
X0339100Y0026679D02*
X0327800Y0026679D01*
X0327800Y0028278D02*
X0339241Y0028278D01*
X0340351Y0029876D02*
X0327800Y0029876D01*
X0327800Y0031475D02*
X0359400Y0031475D01*
X0359400Y0032211D02*
X0359400Y0028989D01*
X0360533Y0026253D01*
X0359937Y0026500D01*
X0358663Y0026500D01*
X0357487Y0026013D01*
X0356587Y0025113D01*
X0356100Y0023937D01*
X0356100Y0022663D01*
X0356587Y0021487D01*
X0357487Y0020587D01*
X0358663Y0020100D01*
X0359672Y0020100D01*
X0368100Y0011672D01*
X0368100Y0010663D01*
X0368587Y0009487D01*
X0369487Y0008587D01*
X0370663Y0008100D01*
X0371937Y0008100D01*
X0373113Y0008587D01*
X0374013Y0009487D01*
X0374500Y0010663D01*
X0374500Y0011937D01*
X0374013Y0013113D01*
X0373113Y0014013D01*
X0371937Y0014500D01*
X0370928Y0014500D01*
X0362500Y0022928D01*
X0362500Y0023937D01*
X0362353Y0024292D01*
X0362912Y0023733D01*
X0365889Y0022500D01*
X0369111Y0022500D01*
X0372088Y0023733D01*
X0374367Y0026012D01*
X0375600Y0028989D01*
X0375600Y0032211D01*
X0374367Y0035188D01*
X0372088Y0037467D01*
X0369111Y0038700D01*
X0365889Y0038700D01*
X0362912Y0037467D01*
X0360633Y0035188D01*
X0359400Y0032211D01*
X0359757Y0033073D02*
X0327800Y0033073D01*
X0327800Y0034672D02*
X0347403Y0034672D01*
X0347487Y0034587D02*
X0346587Y0035487D01*
X0346100Y0036663D01*
X0346100Y0037672D01*
X0343672Y0040100D01*
X0342663Y0040100D01*
X0341487Y0040587D01*
X0340587Y0041487D01*
X0340100Y0042663D01*
X0340100Y0043937D01*
X0340587Y0045113D01*
X0341487Y0046013D01*
X0342663Y0046500D01*
X0343937Y0046500D01*
X0345113Y0046013D01*
X0346013Y0045113D01*
X0346500Y0043937D01*
X0346500Y0042928D01*
X0348928Y0040500D01*
X0349937Y0040500D01*
X0351113Y0040013D01*
X0352013Y0039113D01*
X0352500Y0037937D01*
X0352500Y0036663D01*
X0352013Y0035487D01*
X0351113Y0034587D01*
X0349937Y0034100D01*
X0348663Y0034100D01*
X0347487Y0034587D01*
X0346263Y0036270D02*
X0327800Y0036270D01*
X0327800Y0037869D02*
X0345903Y0037869D01*
X0344304Y0039467D02*
X0327461Y0039467D01*
X0325863Y0041066D02*
X0341009Y0041066D01*
X0340100Y0042664D02*
X0324264Y0042664D01*
X0322800Y0044263D02*
X0340235Y0044263D01*
X0341336Y0045861D02*
X0322800Y0045861D01*
X0322800Y0047460D02*
X0344491Y0047460D01*
X0344846Y0046603D02*
X0344100Y0048404D01*
X0344100Y0050353D01*
X0344846Y0052154D01*
X0346224Y0053533D01*
X0348025Y0054279D01*
X0349975Y0054279D01*
X0351776Y0053533D01*
X0352900Y0052408D01*
X0354024Y0053533D01*
X0355709Y0054230D01*
X0355606Y0054247D01*
X0354842Y0054495D01*
X0354127Y0054859D01*
X0353478Y0055331D01*
X0352910Y0055899D01*
X0352783Y0056074D01*
X0351776Y0055067D01*
X0349975Y0054321D01*
X0348025Y0054321D01*
X0346224Y0055067D01*
X0344846Y0056446D01*
X0344100Y0058247D01*
X0344100Y0060196D01*
X0344846Y0061997D01*
X0345800Y0062951D01*
X0345800Y0068775D01*
X0345087Y0069487D01*
X0344600Y0070663D01*
X0344600Y0071937D01*
X0345087Y0073113D01*
X0345987Y0074013D01*
X0347163Y0074500D01*
X0348437Y0074500D01*
X0349613Y0074013D01*
X0350513Y0073113D01*
X0351000Y0071937D01*
X0351000Y0070663D01*
X0350513Y0069487D01*
X0349800Y0068775D01*
X0349800Y0064121D01*
X0349975Y0064121D01*
X0351776Y0063375D01*
X0352783Y0062368D01*
X0352910Y0062544D01*
X0353478Y0063111D01*
X0354127Y0063583D01*
X0354842Y0063948D01*
X0355606Y0064196D01*
X0356399Y0064321D01*
X0356700Y0064321D01*
X0356700Y0059321D01*
X0356900Y0059321D01*
X0361900Y0059321D01*
X0361900Y0059623D01*
X0361774Y0060416D01*
X0361526Y0061179D01*
X0361162Y0061894D01*
X0360690Y0062544D01*
X0360122Y0063111D01*
X0359473Y0063583D01*
X0358758Y0063948D01*
X0357994Y0064196D01*
X0357201Y0064321D01*
X0356900Y0064321D01*
X0356900Y0059321D01*
X0356900Y0059121D01*
X0361900Y0059121D01*
X0361900Y0058820D01*
X0361774Y0058027D01*
X0361526Y0057264D01*
X0361162Y0056548D01*
X0360690Y0055899D01*
X0360122Y0055331D01*
X0359473Y0054859D01*
X0358758Y0054495D01*
X0357994Y0054247D01*
X0357891Y0054230D01*
X0359576Y0053533D01*
X0360954Y0052154D01*
X0361700Y0050353D01*
X0361700Y0048404D01*
X0360954Y0046603D01*
X0359576Y0045225D01*
X0357775Y0044479D01*
X0355825Y0044479D01*
X0354024Y0045225D01*
X0352900Y0046349D01*
X0351776Y0045225D01*
X0349975Y0044479D01*
X0348025Y0044479D01*
X0346224Y0045225D01*
X0344846Y0046603D01*
X0345264Y0045861D02*
X0345588Y0045861D01*
X0346365Y0044263D02*
X0392500Y0044263D01*
X0392500Y0045861D02*
X0360212Y0045861D01*
X0361309Y0047460D02*
X0392500Y0047460D01*
X0392500Y0049058D02*
X0361700Y0049058D01*
X0361574Y0050657D02*
X0392500Y0050657D01*
X0392500Y0052255D02*
X0360853Y0052255D01*
X0358800Y0053854D02*
X0392500Y0053854D01*
X0392500Y0055452D02*
X0360244Y0055452D01*
X0361418Y0057051D02*
X0392500Y0057051D01*
X0392500Y0058649D02*
X0361873Y0058649D01*
X0361801Y0060248D02*
X0392500Y0060248D01*
X0392500Y0061846D02*
X0361186Y0061846D01*
X0359663Y0063445D02*
X0392500Y0063445D01*
X0392500Y0065043D02*
X0349800Y0065043D01*
X0349800Y0066642D02*
X0392500Y0066642D01*
X0392500Y0068240D02*
X0349800Y0068240D01*
X0350658Y0069839D02*
X0392500Y0069839D01*
X0392500Y0071437D02*
X0372393Y0071437D01*
X0372088Y0071133D02*
X0374367Y0073412D01*
X0375600Y0076389D01*
X0375600Y0079611D01*
X0374367Y0082588D01*
X0372088Y0084867D01*
X0369111Y0086100D01*
X0365889Y0086100D01*
X0362912Y0084867D01*
X0360633Y0082588D01*
X0359400Y0079611D01*
X0359400Y0076389D01*
X0360633Y0073412D01*
X0362912Y0071133D01*
X0365889Y0069900D01*
X0369111Y0069900D01*
X0372088Y0071133D01*
X0373991Y0073036D02*
X0392500Y0073036D01*
X0392500Y0074634D02*
X0374873Y0074634D01*
X0375535Y0076233D02*
X0392500Y0076233D01*
X0392500Y0077832D02*
X0375600Y0077832D01*
X0375600Y0079430D02*
X0392500Y0079430D01*
X0392500Y0081029D02*
X0375013Y0081029D01*
X0374328Y0082627D02*
X0392500Y0082627D01*
X0392500Y0084226D02*
X0372730Y0084226D01*
X0369777Y0085824D02*
X0392500Y0085824D01*
X0392500Y0087423D02*
X0322800Y0087423D01*
X0322800Y0089021D02*
X0392500Y0089021D01*
X0392500Y0090620D02*
X0322800Y0090620D01*
X0321210Y0092218D02*
X0392500Y0092218D01*
X0392500Y0093817D02*
X0319612Y0093817D01*
X0318013Y0095415D02*
X0344741Y0095415D01*
X0343908Y0095638D02*
X0346477Y0094950D01*
X0349136Y0094950D01*
X0351705Y0095638D01*
X0354008Y0096968D01*
X0355889Y0098848D01*
X0357218Y0101152D01*
X0357907Y0103720D01*
X0357907Y0106380D01*
X0357218Y0108948D01*
X0355889Y0111252D01*
X0354008Y0113132D01*
X0351705Y0114462D01*
X0349136Y0115150D01*
X0346477Y0115150D01*
X0343908Y0114462D01*
X0341605Y0113132D01*
X0339725Y0111252D01*
X0338395Y0108948D01*
X0337707Y0106380D01*
X0337707Y0103720D01*
X0338395Y0101152D01*
X0339725Y0098848D01*
X0341605Y0096968D01*
X0343908Y0095638D01*
X0341559Y0097014D02*
X0316415Y0097014D01*
X0314816Y0098612D02*
X0339961Y0098612D01*
X0338938Y0100211D02*
X0313218Y0100211D01*
X0311619Y0101809D02*
X0338219Y0101809D01*
X0337790Y0103408D02*
X0310021Y0103408D01*
X0308422Y0105006D02*
X0337707Y0105006D01*
X0337767Y0106605D02*
X0306824Y0106605D01*
X0305225Y0108203D02*
X0338195Y0108203D01*
X0338888Y0109802D02*
X0303627Y0109802D01*
X0302028Y0111400D02*
X0339873Y0111400D01*
X0341472Y0112999D02*
X0300430Y0112999D01*
X0298831Y0114597D02*
X0344414Y0114597D01*
X0351199Y0114597D02*
X0354512Y0114597D01*
X0354628Y0114525D02*
X0355670Y0114023D01*
X0356762Y0113641D01*
X0357890Y0113383D01*
X0358818Y0113279D01*
X0358818Y0122754D01*
X0360418Y0122754D01*
X0360418Y0124354D01*
X0369893Y0124354D01*
X0369788Y0125282D01*
X0369531Y0126410D01*
X0369149Y0127502D01*
X0368647Y0128544D01*
X0368031Y0129524D01*
X0367310Y0130428D01*
X0366492Y0131246D01*
X0365587Y0131967D01*
X0364608Y0132583D01*
X0363566Y0133085D01*
X0362474Y0133467D01*
X0361346Y0133724D01*
X0360418Y0133829D01*
X0360418Y0124354D01*
X0358818Y0124354D01*
X0358818Y0133829D01*
X0357890Y0133724D01*
X0356762Y0133467D01*
X0355670Y0133085D01*
X0354628Y0132583D01*
X0353648Y0131967D01*
X0352744Y0131246D01*
X0351925Y0130428D01*
X0351204Y0129524D01*
X0350589Y0128544D01*
X0350087Y0127502D01*
X0349705Y0126410D01*
X0349447Y0125282D01*
X0349343Y0124354D01*
X0358818Y0124354D01*
X0358818Y0122754D01*
X0349343Y0122754D01*
X0349447Y0121826D01*
X0349705Y0120698D01*
X0350087Y0119606D01*
X0350589Y0118564D01*
X0351204Y0117584D01*
X0351925Y0116680D01*
X0352744Y0115862D01*
X0353648Y0115140D01*
X0354628Y0114525D01*
X0354141Y0112999D02*
X0364876Y0112999D01*
X0364555Y0112742D02*
X0363737Y0111924D01*
X0363015Y0111020D01*
X0362400Y0110040D01*
X0361898Y0108998D01*
X0361516Y0107906D01*
X0361258Y0106778D01*
X0361154Y0105850D01*
X0370629Y0105850D01*
X0370629Y0115325D01*
X0369701Y0115220D01*
X0368573Y0114963D01*
X0367481Y0114581D01*
X0366439Y0114079D01*
X0365459Y0113464D01*
X0364555Y0112742D01*
X0363566Y0114023D02*
X0364608Y0114525D01*
X0365587Y0115140D01*
X0366492Y0115862D01*
X0367310Y0116680D01*
X0368031Y0117584D01*
X0368647Y0118564D01*
X0369149Y0119606D01*
X0369531Y0120698D01*
X0369788Y0121826D01*
X0369893Y0122754D01*
X0360418Y0122754D01*
X0360418Y0113279D01*
X0361346Y0113383D01*
X0362474Y0113641D01*
X0363566Y0114023D01*
X0364723Y0114597D02*
X0367528Y0114597D01*
X0366826Y0116196D02*
X0392500Y0116196D01*
X0392500Y0117794D02*
X0368163Y0117794D01*
X0369046Y0119393D02*
X0392500Y0119393D01*
X0392500Y0120991D02*
X0369598Y0120991D01*
X0369874Y0122590D02*
X0392500Y0122590D01*
X0392500Y0124188D02*
X0360418Y0124188D01*
X0360418Y0122590D02*
X0358818Y0122590D01*
X0358818Y0124188D02*
X0289240Y0124188D01*
X0290839Y0122590D02*
X0349361Y0122590D01*
X0349638Y0120991D02*
X0292437Y0120991D01*
X0294036Y0119393D02*
X0350189Y0119393D01*
X0351072Y0117794D02*
X0295634Y0117794D01*
X0297233Y0116196D02*
X0352409Y0116196D01*
X0355740Y0111400D02*
X0363319Y0111400D01*
X0362285Y0109802D02*
X0356726Y0109802D01*
X0357418Y0108203D02*
X0361620Y0108203D01*
X0361239Y0106605D02*
X0357846Y0106605D01*
X0357907Y0105006D02*
X0370629Y0105006D01*
X0370629Y0104250D02*
X0361154Y0104250D01*
X0361258Y0103322D01*
X0361516Y0102194D01*
X0361898Y0101102D01*
X0362400Y0100060D01*
X0363015Y0099080D01*
X0363737Y0098176D01*
X0364555Y0097358D01*
X0365459Y0096636D01*
X0366439Y0096021D01*
X0367481Y0095519D01*
X0368573Y0095137D01*
X0369701Y0094880D01*
X0370629Y0094775D01*
X0370629Y0104250D01*
X0372229Y0104250D01*
X0372229Y0105850D01*
X0381704Y0105850D01*
X0381599Y0106778D01*
X0381342Y0107906D01*
X0380960Y0108998D01*
X0380458Y0110040D01*
X0379842Y0111020D01*
X0379121Y0111924D01*
X0378303Y0112742D01*
X0377398Y0113464D01*
X0376419Y0114079D01*
X0375377Y0114581D01*
X0374285Y0114963D01*
X0373157Y0115220D01*
X0372229Y0115325D01*
X0372229Y0105850D01*
X0370629Y0105850D01*
X0370629Y0104250D01*
X0370629Y0103408D02*
X0372229Y0103408D01*
X0372229Y0104250D02*
X0372229Y0094775D01*
X0373157Y0094880D01*
X0374285Y0095137D01*
X0375377Y0095519D01*
X0376419Y0096021D01*
X0377398Y0096636D01*
X0378303Y0097358D01*
X0379121Y0098176D01*
X0379842Y0099080D01*
X0380458Y0100060D01*
X0380960Y0101102D01*
X0381342Y0102194D01*
X0381599Y0103322D01*
X0381704Y0104250D01*
X0372229Y0104250D01*
X0372229Y0105006D02*
X0392500Y0105006D01*
X0392500Y0103408D02*
X0381609Y0103408D01*
X0381207Y0101809D02*
X0392500Y0101809D01*
X0392500Y0100211D02*
X0380530Y0100211D01*
X0379469Y0098612D02*
X0392500Y0098612D01*
X0392500Y0097014D02*
X0377871Y0097014D01*
X0375080Y0095415D02*
X0392500Y0095415D01*
X0372229Y0095415D02*
X0370629Y0095415D01*
X0370629Y0097014D02*
X0372229Y0097014D01*
X0372229Y0098612D02*
X0370629Y0098612D01*
X0370629Y0100211D02*
X0372229Y0100211D01*
X0372229Y0101809D02*
X0370629Y0101809D01*
X0363389Y0098612D02*
X0355652Y0098612D01*
X0356675Y0100211D02*
X0362327Y0100211D01*
X0361650Y0101809D02*
X0357395Y0101809D01*
X0357823Y0103408D02*
X0361249Y0103408D01*
X0370629Y0106605D02*
X0372229Y0106605D01*
X0372229Y0108203D02*
X0370629Y0108203D01*
X0370629Y0109802D02*
X0372229Y0109802D01*
X0372229Y0111400D02*
X0370629Y0111400D01*
X0370629Y0112999D02*
X0372229Y0112999D01*
X0372229Y0114597D02*
X0370629Y0114597D01*
X0375330Y0114597D02*
X0392500Y0114597D01*
X0392500Y0112999D02*
X0377981Y0112999D01*
X0379539Y0111400D02*
X0392500Y0111400D01*
X0392500Y0109802D02*
X0380573Y0109802D01*
X0381238Y0108203D02*
X0392500Y0108203D01*
X0392500Y0106605D02*
X0381619Y0106605D01*
X0364986Y0097014D02*
X0354054Y0097014D01*
X0350872Y0095415D02*
X0367778Y0095415D01*
X0365223Y0085824D02*
X0322800Y0085824D01*
X0322800Y0084226D02*
X0362270Y0084226D01*
X0360672Y0082627D02*
X0322800Y0082627D01*
X0322800Y0081029D02*
X0359987Y0081029D01*
X0359400Y0079430D02*
X0322800Y0079430D01*
X0322800Y0077832D02*
X0359400Y0077832D01*
X0359465Y0076233D02*
X0322800Y0076233D01*
X0322800Y0074634D02*
X0360127Y0074634D01*
X0361009Y0073036D02*
X0350545Y0073036D01*
X0351000Y0071437D02*
X0362607Y0071437D01*
X0345800Y0068240D02*
X0322800Y0068240D01*
X0322800Y0066642D02*
X0345800Y0066642D01*
X0345800Y0065043D02*
X0322800Y0065043D01*
X0322800Y0063445D02*
X0345800Y0063445D01*
X0344784Y0061846D02*
X0322800Y0061846D01*
X0322800Y0060248D02*
X0344122Y0060248D01*
X0344100Y0058649D02*
X0322800Y0058649D01*
X0322800Y0057051D02*
X0344595Y0057051D01*
X0345839Y0055452D02*
X0322800Y0055452D01*
X0322800Y0053854D02*
X0347000Y0053854D01*
X0344947Y0052255D02*
X0322800Y0052255D01*
X0322800Y0050657D02*
X0344226Y0050657D01*
X0344100Y0049058D02*
X0322800Y0049058D01*
X0318800Y0049058D02*
X0301500Y0049058D01*
X0301500Y0049437D02*
X0301500Y0048163D01*
X0301013Y0046987D01*
X0300113Y0046087D01*
X0298937Y0045600D01*
X0297663Y0045600D01*
X0296487Y0046087D01*
X0295587Y0046987D01*
X0295100Y0048163D01*
X0295100Y0049437D01*
X0295587Y0050613D01*
X0296300Y0051325D01*
X0296300Y0061775D01*
X0295587Y0062487D01*
X0295508Y0062679D01*
X0294300Y0061472D01*
X0294300Y0045349D01*
X0294663Y0045500D01*
X0295937Y0045500D01*
X0297113Y0045013D01*
X0298013Y0044113D01*
X0298500Y0042937D01*
X0298500Y0041928D01*
X0316770Y0023658D01*
X0317159Y0024047D01*
X0319218Y0024900D01*
X0321445Y0024900D01*
X0323504Y0024047D01*
X0323800Y0023751D01*
X0323800Y0037472D01*
X0319972Y0041300D01*
X0318800Y0042472D01*
X0318800Y0067251D01*
X0318437Y0067100D01*
X0317428Y0067100D01*
X0313050Y0062722D01*
X0311878Y0061550D01*
X0306500Y0056172D01*
X0306500Y0055163D01*
X0306013Y0053987D01*
X0305113Y0053087D01*
X0303937Y0052600D01*
X0302663Y0052600D01*
X0301487Y0053087D01*
X0300587Y0053987D01*
X0300300Y0054681D01*
X0300300Y0051325D01*
X0301013Y0050613D01*
X0301500Y0049437D01*
X0300969Y0050657D02*
X0318800Y0050657D01*
X0318800Y0052255D02*
X0300300Y0052255D01*
X0300300Y0053854D02*
X0300721Y0053854D01*
X0296300Y0053854D02*
X0294300Y0053854D01*
X0294300Y0055452D02*
X0296300Y0055452D01*
X0296300Y0057051D02*
X0294300Y0057051D01*
X0294300Y0058649D02*
X0296300Y0058649D01*
X0296300Y0060248D02*
X0294300Y0060248D01*
X0294675Y0061846D02*
X0296228Y0061846D01*
X0288300Y0059972D02*
X0288300Y0028472D01*
X0291872Y0024900D01*
X0291659Y0024900D01*
X0291213Y0024715D01*
X0266800Y0049128D01*
X0266800Y0056275D01*
X0267513Y0056987D01*
X0268000Y0058163D01*
X0268000Y0059437D01*
X0267513Y0060613D01*
X0266613Y0061513D01*
X0266421Y0061592D01*
X0269600Y0064772D01*
X0269600Y0064163D01*
X0270087Y0062987D01*
X0270987Y0062087D01*
X0272163Y0061600D01*
X0273437Y0061600D01*
X0274613Y0062087D01*
X0275325Y0062800D01*
X0281472Y0062800D01*
X0281600Y0062672D01*
X0281600Y0061663D01*
X0282087Y0060487D01*
X0282987Y0059587D01*
X0284163Y0059100D01*
X0285437Y0059100D01*
X0286613Y0059587D01*
X0287513Y0060487D01*
X0287592Y0060679D01*
X0288300Y0059972D01*
X0288024Y0060248D02*
X0287273Y0060248D01*
X0288300Y0058649D02*
X0268000Y0058649D01*
X0267664Y0060248D02*
X0282327Y0060248D01*
X0281600Y0061846D02*
X0274031Y0061846D01*
X0271569Y0061846D02*
X0266675Y0061846D01*
X0268273Y0063445D02*
X0269898Y0063445D01*
X0274613Y0067513D02*
X0275325Y0066800D01*
X0281100Y0066800D01*
X0281100Y0067437D01*
X0281587Y0068613D01*
X0282487Y0069513D01*
X0283181Y0069800D01*
X0274628Y0069800D01*
X0272828Y0068000D01*
X0273437Y0068000D01*
X0274613Y0067513D01*
X0273069Y0068240D02*
X0281433Y0068240D01*
X0271306Y0074634D02*
X0269800Y0074634D01*
X0269800Y0073628D02*
X0269800Y0073128D01*
X0289222Y0092550D01*
X0272672Y0109100D01*
X0271663Y0109100D01*
X0270487Y0109587D01*
X0269587Y0110487D01*
X0269100Y0111663D01*
X0269100Y0112937D01*
X0269587Y0114113D01*
X0270487Y0115013D01*
X0271181Y0115300D01*
X0264349Y0115300D01*
X0264500Y0114937D01*
X0264500Y0113663D01*
X0264013Y0112487D01*
X0263113Y0111587D01*
X0261937Y0111100D01*
X0260928Y0111100D01*
X0245328Y0095500D01*
X0246437Y0095500D01*
X0247613Y0095013D01*
X0248513Y0094113D01*
X0249000Y0092937D01*
X0249000Y0091928D01*
X0265800Y0075128D01*
X0265800Y0088275D01*
X0265113Y0087587D01*
X0263937Y0087100D01*
X0262663Y0087100D01*
X0261487Y0087587D01*
X0260587Y0088487D01*
X0260100Y0089663D01*
X0260100Y0090672D01*
X0255172Y0095600D01*
X0254163Y0095600D01*
X0252987Y0096087D01*
X0252087Y0096987D01*
X0251600Y0098163D01*
X0251600Y0099437D01*
X0252087Y0100613D01*
X0252987Y0101513D01*
X0254163Y0102000D01*
X0255437Y0102000D01*
X0256613Y0101513D01*
X0257513Y0100613D01*
X0258000Y0099437D01*
X0258000Y0098428D01*
X0262928Y0093500D01*
X0263937Y0093500D01*
X0265113Y0093013D01*
X0265800Y0092325D01*
X0265800Y0095275D01*
X0265087Y0095987D01*
X0264600Y0097163D01*
X0264600Y0098437D01*
X0265087Y0099613D01*
X0265800Y0100325D01*
X0265800Y0101275D01*
X0265087Y0101987D01*
X0264600Y0103163D01*
X0264600Y0104437D01*
X0265087Y0105613D01*
X0265987Y0106513D01*
X0267163Y0107000D01*
X0268437Y0107000D01*
X0269613Y0106513D01*
X0270513Y0105613D01*
X0271000Y0104437D01*
X0271000Y0103163D01*
X0270513Y0101987D01*
X0269800Y0101275D01*
X0269800Y0100325D01*
X0270513Y0099613D01*
X0271000Y0098437D01*
X0271000Y0097163D01*
X0270513Y0095987D01*
X0269800Y0095275D01*
X0269800Y0073628D01*
X0269800Y0076233D02*
X0272905Y0076233D01*
X0274503Y0077832D02*
X0269800Y0077832D01*
X0269800Y0079430D02*
X0276102Y0079430D01*
X0277700Y0081029D02*
X0269800Y0081029D01*
X0269800Y0082627D02*
X0279299Y0082627D01*
X0280897Y0084226D02*
X0269800Y0084226D01*
X0269800Y0085824D02*
X0282496Y0085824D01*
X0284094Y0087423D02*
X0269800Y0087423D01*
X0269800Y0089021D02*
X0285693Y0089021D01*
X0287291Y0090620D02*
X0269800Y0090620D01*
X0269800Y0092218D02*
X0288890Y0092218D01*
X0287955Y0093817D02*
X0269800Y0093817D01*
X0269941Y0095415D02*
X0286356Y0095415D01*
X0284758Y0097014D02*
X0270938Y0097014D01*
X0270927Y0098612D02*
X0283159Y0098612D01*
X0281561Y0100211D02*
X0269915Y0100211D01*
X0270335Y0101809D02*
X0279962Y0101809D01*
X0278364Y0103408D02*
X0271000Y0103408D01*
X0270764Y0105006D02*
X0276765Y0105006D01*
X0275167Y0106605D02*
X0269391Y0106605D01*
X0266209Y0106605D02*
X0256433Y0106605D01*
X0258032Y0108203D02*
X0273568Y0108203D01*
X0270273Y0109802D02*
X0259630Y0109802D01*
X0262661Y0111400D02*
X0269209Y0111400D01*
X0269126Y0112999D02*
X0264225Y0112999D01*
X0264500Y0114597D02*
X0270072Y0114597D01*
X0273419Y0115300D02*
X0289972Y0115300D01*
X0293679Y0111592D01*
X0293487Y0111513D01*
X0292587Y0110613D01*
X0292100Y0109437D01*
X0292100Y0108163D01*
X0292587Y0106987D01*
X0293487Y0106087D01*
X0294300Y0105751D01*
X0294300Y0094349D01*
X0293937Y0094500D01*
X0292928Y0094500D01*
X0292878Y0094550D01*
X0275500Y0111928D01*
X0275500Y0112937D01*
X0275013Y0114113D01*
X0274113Y0115013D01*
X0273419Y0115300D01*
X0274528Y0114597D02*
X0290674Y0114597D01*
X0292273Y0112999D02*
X0275474Y0112999D01*
X0276028Y0111400D02*
X0293375Y0111400D01*
X0292251Y0109802D02*
X0277627Y0109802D01*
X0279225Y0108203D02*
X0292100Y0108203D01*
X0292970Y0106605D02*
X0280824Y0106605D01*
X0282422Y0105006D02*
X0294300Y0105006D01*
X0294300Y0103408D02*
X0284021Y0103408D01*
X0285619Y0101809D02*
X0294300Y0101809D01*
X0294300Y0100211D02*
X0287218Y0100211D01*
X0288816Y0098612D02*
X0294300Y0098612D01*
X0294300Y0097014D02*
X0290415Y0097014D01*
X0292013Y0095415D02*
X0294300Y0095415D01*
X0300300Y0095415D02*
X0312356Y0095415D01*
X0310758Y0097014D02*
X0300300Y0097014D01*
X0300300Y0098612D02*
X0309159Y0098612D01*
X0307561Y0100211D02*
X0300300Y0100211D01*
X0300300Y0101809D02*
X0305962Y0101809D01*
X0304364Y0103408D02*
X0300300Y0103408D01*
X0300300Y0105006D02*
X0302765Y0105006D01*
X0301167Y0106605D02*
X0300300Y0106605D01*
X0300300Y0107472D02*
X0318800Y0088972D01*
X0318800Y0073349D01*
X0318437Y0073500D01*
X0317163Y0073500D01*
X0315987Y0073013D01*
X0315087Y0072113D01*
X0314600Y0070937D01*
X0314600Y0069928D01*
X0311050Y0066378D01*
X0306500Y0070928D01*
X0306500Y0071937D01*
X0306013Y0073113D01*
X0305113Y0074013D01*
X0303937Y0074500D01*
X0302663Y0074500D01*
X0301487Y0074013D01*
X0300587Y0073113D01*
X0300300Y0072419D01*
X0300300Y0107472D01*
X0300300Y0093817D02*
X0313955Y0093817D01*
X0315553Y0092218D02*
X0300300Y0092218D01*
X0300300Y0090620D02*
X0317152Y0090620D01*
X0318750Y0089021D02*
X0300300Y0089021D01*
X0300300Y0087423D02*
X0318800Y0087423D01*
X0318800Y0085824D02*
X0300300Y0085824D01*
X0300300Y0084226D02*
X0318800Y0084226D01*
X0318800Y0082627D02*
X0300300Y0082627D01*
X0300300Y0081029D02*
X0318800Y0081029D01*
X0318800Y0079430D02*
X0300300Y0079430D01*
X0300300Y0077832D02*
X0318800Y0077832D01*
X0318800Y0076233D02*
X0300300Y0076233D01*
X0300300Y0074634D02*
X0318800Y0074634D01*
X0316043Y0073036D02*
X0306045Y0073036D01*
X0306500Y0071437D02*
X0314808Y0071437D01*
X0314511Y0069839D02*
X0307589Y0069839D01*
X0309188Y0068240D02*
X0312912Y0068240D01*
X0311314Y0066642D02*
X0310786Y0066642D01*
X0315372Y0065043D02*
X0318800Y0065043D01*
X0318800Y0063445D02*
X0313773Y0063445D01*
X0312175Y0061846D02*
X0318800Y0061846D01*
X0318800Y0060248D02*
X0310576Y0060248D01*
X0308978Y0058649D02*
X0318800Y0058649D01*
X0318800Y0057051D02*
X0307379Y0057051D01*
X0306500Y0055452D02*
X0318800Y0055452D01*
X0318800Y0053854D02*
X0305879Y0053854D01*
X0296300Y0052255D02*
X0294300Y0052255D01*
X0294300Y0050657D02*
X0295631Y0050657D01*
X0295100Y0049058D02*
X0294300Y0049058D01*
X0294300Y0047460D02*
X0295391Y0047460D01*
X0294300Y0045861D02*
X0297033Y0045861D01*
X0297863Y0044263D02*
X0318800Y0044263D01*
X0318800Y0045861D02*
X0299567Y0045861D01*
X0301209Y0047460D02*
X0318800Y0047460D01*
X0318800Y0042664D02*
X0298500Y0042664D01*
X0299363Y0041066D02*
X0320206Y0041066D01*
X0321804Y0039467D02*
X0300961Y0039467D01*
X0302560Y0037869D02*
X0323403Y0037869D01*
X0323800Y0036270D02*
X0304158Y0036270D01*
X0305757Y0034672D02*
X0323800Y0034672D01*
X0323800Y0033073D02*
X0307355Y0033073D01*
X0308954Y0031475D02*
X0323800Y0031475D01*
X0323800Y0029876D02*
X0310552Y0029876D01*
X0312151Y0028278D02*
X0323800Y0028278D01*
X0323800Y0026679D02*
X0313749Y0026679D01*
X0315348Y0025081D02*
X0323800Y0025081D01*
X0337848Y0023482D02*
X0343289Y0023482D01*
X0344888Y0021884D02*
X0339102Y0021884D01*
X0339711Y0020285D02*
X0346486Y0020285D01*
X0348085Y0018687D02*
X0339742Y0018687D01*
X0341340Y0017088D02*
X0349683Y0017088D01*
X0351282Y0015490D02*
X0342939Y0015490D01*
X0344537Y0013891D02*
X0352100Y0013891D01*
X0352782Y0012293D02*
X0346136Y0012293D01*
X0347734Y0010694D02*
X0368100Y0010694D01*
X0367479Y0012293D02*
X0357818Y0012293D01*
X0358500Y0013891D02*
X0365880Y0013891D01*
X0364282Y0015490D02*
X0358271Y0015490D01*
X0356931Y0017088D02*
X0362683Y0017088D01*
X0361085Y0018687D02*
X0353742Y0018687D01*
X0352143Y0020285D02*
X0358217Y0020285D01*
X0356423Y0021884D02*
X0350545Y0021884D01*
X0348946Y0023482D02*
X0356100Y0023482D01*
X0356574Y0025081D02*
X0347348Y0025081D01*
X0345749Y0026679D02*
X0360357Y0026679D01*
X0359695Y0028278D02*
X0345359Y0028278D01*
X0344249Y0029876D02*
X0359400Y0029876D01*
X0360419Y0034672D02*
X0351197Y0034672D01*
X0352337Y0036270D02*
X0361715Y0036270D01*
X0363882Y0037869D02*
X0352500Y0037869D01*
X0351658Y0039467D02*
X0392500Y0039467D01*
X0392500Y0037869D02*
X0371118Y0037869D01*
X0373285Y0036270D02*
X0392500Y0036270D01*
X0392500Y0034672D02*
X0374581Y0034672D01*
X0375243Y0033073D02*
X0392500Y0033073D01*
X0392500Y0031475D02*
X0375600Y0031475D01*
X0375600Y0029876D02*
X0392500Y0029876D01*
X0392500Y0028278D02*
X0375305Y0028278D01*
X0374643Y0026679D02*
X0392500Y0026679D01*
X0392500Y0025081D02*
X0384020Y0025081D01*
X0383491Y0025300D02*
X0386615Y0024006D01*
X0386615Y0024006D01*
X0389006Y0021615D01*
X0389006Y0021615D01*
X0390300Y0018491D01*
X0390300Y0016303D01*
X0390300Y0015109D01*
X0389006Y0011985D01*
X0389006Y0011985D01*
X0386615Y0009594D01*
X0386615Y0009594D01*
X0383491Y0008300D01*
X0380109Y0008300D01*
X0376985Y0009594D01*
X0376985Y0009594D01*
X0374594Y0011985D01*
X0374594Y0011985D01*
X0373300Y0015109D01*
X0373300Y0018491D01*
X0374594Y0021615D01*
X0376985Y0024006D01*
X0376985Y0024006D01*
X0380109Y0025300D01*
X0383491Y0025300D01*
X0379580Y0025081D02*
X0373436Y0025081D01*
X0371482Y0023482D02*
X0376461Y0023482D01*
X0374863Y0021884D02*
X0363545Y0021884D01*
X0363518Y0023482D02*
X0362500Y0023482D01*
X0365143Y0020285D02*
X0374043Y0020285D01*
X0373381Y0018687D02*
X0366742Y0018687D01*
X0368340Y0017088D02*
X0373300Y0017088D01*
X0373300Y0015490D02*
X0369939Y0015490D01*
X0373234Y0013891D02*
X0373805Y0013891D01*
X0374353Y0012293D02*
X0374467Y0012293D01*
X0374500Y0010694D02*
X0375885Y0010694D01*
X0373621Y0009096D02*
X0378189Y0009096D01*
X0385411Y0009096D02*
X0389644Y0009096D01*
X0390805Y0010694D02*
X0387715Y0010694D01*
X0389133Y0012293D02*
X0391662Y0012293D01*
X0392181Y0013891D02*
X0389795Y0013891D01*
X0390300Y0015490D02*
X0392456Y0015490D01*
X0392500Y0017088D02*
X0390300Y0017088D01*
X0390219Y0018687D02*
X0392500Y0018687D01*
X0392500Y0020285D02*
X0389557Y0020285D01*
X0388737Y0021884D02*
X0392500Y0021884D01*
X0392500Y0023482D02*
X0387139Y0023482D01*
X0387496Y0007497D02*
X0351500Y0007497D01*
X0351020Y0009096D02*
X0368979Y0009096D01*
X0338880Y0013891D02*
X0335686Y0013891D01*
X0302979Y0012293D02*
X0244500Y0012293D01*
X0244105Y0013891D02*
X0249859Y0013891D01*
X0247325Y0015490D02*
X0241962Y0015490D01*
X0242800Y0017088D02*
X0246289Y0017088D01*
X0245834Y0018687D02*
X0243254Y0018687D01*
X0243254Y0020285D02*
X0245834Y0020285D01*
X0246443Y0021884D02*
X0242646Y0021884D01*
X0241392Y0023482D02*
X0247696Y0023482D01*
X0253800Y0025081D02*
X0278414Y0025081D01*
X0278536Y0025100D02*
X0277635Y0024957D01*
X0276766Y0024675D01*
X0275953Y0024261D01*
X0275214Y0023724D01*
X0274569Y0023078D01*
X0274032Y0022340D01*
X0273618Y0021526D01*
X0273336Y0020658D01*
X0273193Y0019756D01*
X0273193Y0019681D01*
X0278612Y0019681D01*
X0278612Y0025100D01*
X0278536Y0025100D01*
X0278612Y0025081D02*
X0279374Y0025081D01*
X0279374Y0025100D02*
X0279449Y0025100D01*
X0280351Y0024957D01*
X0281219Y0024675D01*
X0282033Y0024261D01*
X0282771Y0023724D01*
X0283417Y0023078D01*
X0283954Y0022340D01*
X0284368Y0021526D01*
X0284650Y0020658D01*
X0284793Y0019756D01*
X0284793Y0019681D01*
X0279374Y0019681D01*
X0279374Y0018919D01*
X0284793Y0018919D01*
X0284793Y0018844D01*
X0284650Y0017942D01*
X0284368Y0017074D01*
X0283954Y0016260D01*
X0283417Y0015522D01*
X0282771Y0014876D01*
X0282033Y0014339D01*
X0281219Y0013925D01*
X0280351Y0013643D01*
X0279449Y0013500D01*
X0279374Y0013500D01*
X0279374Y0018919D01*
X0278612Y0018919D01*
X0278612Y0013500D01*
X0278536Y0013500D01*
X0277635Y0013643D01*
X0276766Y0013925D01*
X0275953Y0014339D01*
X0275214Y0014876D01*
X0274569Y0015522D01*
X0274032Y0016260D01*
X0273618Y0017074D01*
X0273336Y0017942D01*
X0273193Y0018844D01*
X0273193Y0018919D01*
X0278612Y0018919D01*
X0278612Y0019681D01*
X0279374Y0019681D01*
X0279374Y0025100D01*
X0279572Y0025081D02*
X0285191Y0025081D01*
X0283592Y0026679D02*
X0253800Y0026679D01*
X0253800Y0028278D02*
X0281994Y0028278D01*
X0280395Y0029876D02*
X0253800Y0029876D01*
X0253800Y0031475D02*
X0278797Y0031475D01*
X0277198Y0033073D02*
X0253800Y0033073D01*
X0253800Y0034672D02*
X0275600Y0034672D01*
X0274001Y0036270D02*
X0253800Y0036270D01*
X0253800Y0037869D02*
X0272403Y0037869D01*
X0270804Y0039467D02*
X0253800Y0039467D01*
X0253894Y0041066D02*
X0269206Y0041066D01*
X0267607Y0042664D02*
X0255493Y0042664D01*
X0257091Y0044263D02*
X0266009Y0044263D01*
X0264410Y0045861D02*
X0258690Y0045861D01*
X0260288Y0047460D02*
X0262812Y0047460D01*
X0262800Y0049058D02*
X0261887Y0049058D01*
X0266870Y0049058D02*
X0288300Y0049058D01*
X0288300Y0047460D02*
X0268469Y0047460D01*
X0270067Y0045861D02*
X0288300Y0045861D01*
X0288300Y0044263D02*
X0271666Y0044263D01*
X0273264Y0042664D02*
X0288300Y0042664D01*
X0288300Y0041066D02*
X0274863Y0041066D01*
X0276461Y0039467D02*
X0288300Y0039467D01*
X0288300Y0037869D02*
X0278060Y0037869D01*
X0279658Y0036270D02*
X0288300Y0036270D01*
X0288300Y0034672D02*
X0281257Y0034672D01*
X0282855Y0033073D02*
X0288300Y0033073D01*
X0288300Y0031475D02*
X0284454Y0031475D01*
X0286052Y0029876D02*
X0288300Y0029876D01*
X0288494Y0028278D02*
X0287651Y0028278D01*
X0289249Y0026679D02*
X0290092Y0026679D01*
X0290848Y0025081D02*
X0291691Y0025081D01*
X0287781Y0021884D02*
X0284186Y0021884D01*
X0284709Y0020285D02*
X0287172Y0020285D01*
X0287172Y0018687D02*
X0284768Y0018687D01*
X0284373Y0017088D02*
X0287627Y0017088D01*
X0288663Y0015490D02*
X0283385Y0015490D01*
X0281115Y0013891D02*
X0291197Y0013891D01*
X0294348Y0013891D02*
X0301380Y0013891D01*
X0299782Y0015490D02*
X0296882Y0015490D01*
X0297918Y0017088D02*
X0299300Y0017088D01*
X0286789Y0023482D02*
X0283013Y0023482D01*
X0279374Y0023482D02*
X0278612Y0023482D01*
X0278612Y0021884D02*
X0279374Y0021884D01*
X0279374Y0020285D02*
X0278612Y0020285D01*
X0278612Y0018687D02*
X0279374Y0018687D01*
X0279374Y0017088D02*
X0278612Y0017088D01*
X0278612Y0015490D02*
X0279374Y0015490D01*
X0279374Y0013891D02*
X0278612Y0013891D01*
X0276871Y0013891D02*
X0266789Y0013891D01*
X0266327Y0013700D02*
X0268386Y0014553D01*
X0269961Y0016128D01*
X0270813Y0018186D01*
X0270813Y0020414D01*
X0269961Y0022472D01*
X0268386Y0024047D01*
X0266327Y0024900D01*
X0264099Y0024900D01*
X0262041Y0024047D01*
X0260466Y0022472D01*
X0259613Y0020414D01*
X0259613Y0018186D01*
X0260466Y0016128D01*
X0262041Y0014553D01*
X0264099Y0013700D01*
X0266327Y0013700D01*
X0263638Y0013891D02*
X0253009Y0013891D01*
X0255543Y0015490D02*
X0261104Y0015490D01*
X0260068Y0017088D02*
X0256579Y0017088D01*
X0257034Y0018687D02*
X0259613Y0018687D01*
X0259613Y0020285D02*
X0257034Y0020285D01*
X0256425Y0021884D02*
X0260222Y0021884D01*
X0261476Y0023482D02*
X0255171Y0023482D01*
X0268951Y0023482D02*
X0274973Y0023482D01*
X0273800Y0021884D02*
X0270205Y0021884D01*
X0270813Y0020285D02*
X0273277Y0020285D01*
X0273218Y0018687D02*
X0270813Y0018687D01*
X0270359Y0017088D02*
X0273613Y0017088D01*
X0274601Y0015490D02*
X0269323Y0015490D01*
X0233545Y0015490D02*
X0227984Y0015490D01*
X0229020Y0017088D02*
X0232509Y0017088D01*
X0232054Y0018687D02*
X0229475Y0018687D01*
X0229475Y0020285D02*
X0232054Y0020285D01*
X0232663Y0021884D02*
X0228866Y0021884D01*
X0227612Y0023482D02*
X0233917Y0023482D01*
X0240303Y0031475D02*
X0249800Y0031475D01*
X0249800Y0033073D02*
X0241902Y0033073D01*
X0243500Y0034672D02*
X0249800Y0034672D01*
X0249800Y0036270D02*
X0245099Y0036270D01*
X0246697Y0037869D02*
X0249800Y0037869D01*
X0249800Y0039467D02*
X0248296Y0039467D01*
X0266800Y0050657D02*
X0288300Y0050657D01*
X0288300Y0052255D02*
X0266800Y0052255D01*
X0266800Y0053854D02*
X0288300Y0053854D01*
X0288300Y0055452D02*
X0266800Y0055452D01*
X0267539Y0057051D02*
X0288300Y0057051D01*
X0316970Y0066642D02*
X0318800Y0066642D01*
X0322800Y0069839D02*
X0344942Y0069839D01*
X0344600Y0071437D02*
X0322800Y0071437D01*
X0322800Y0073036D02*
X0345055Y0073036D01*
X0351607Y0063445D02*
X0353937Y0063445D01*
X0356700Y0063445D02*
X0356900Y0063445D01*
X0356900Y0061846D02*
X0356700Y0061846D01*
X0356700Y0060248D02*
X0356900Y0060248D01*
X0353356Y0055452D02*
X0352161Y0055452D01*
X0351000Y0053854D02*
X0354800Y0053854D01*
X0353388Y0045861D02*
X0352412Y0045861D01*
X0346764Y0042664D02*
X0392500Y0042664D01*
X0392500Y0041066D02*
X0348363Y0041066D01*
X0300555Y0073036D02*
X0300300Y0073036D01*
X0265800Y0076233D02*
X0264695Y0076233D01*
X0265800Y0077832D02*
X0263097Y0077832D01*
X0261498Y0079430D02*
X0265800Y0079430D01*
X0265800Y0081029D02*
X0259900Y0081029D01*
X0258301Y0082627D02*
X0265800Y0082627D01*
X0265800Y0084226D02*
X0256703Y0084226D01*
X0255104Y0085824D02*
X0265800Y0085824D01*
X0265800Y0087423D02*
X0264715Y0087423D01*
X0261885Y0087423D02*
X0253506Y0087423D01*
X0251907Y0089021D02*
X0260366Y0089021D01*
X0260100Y0090620D02*
X0250309Y0090620D01*
X0249000Y0092218D02*
X0258553Y0092218D01*
X0256955Y0093817D02*
X0248635Y0093817D01*
X0246641Y0095415D02*
X0255356Y0095415D01*
X0252076Y0097014D02*
X0246842Y0097014D01*
X0248441Y0098612D02*
X0251600Y0098612D01*
X0251921Y0100211D02*
X0250039Y0100211D01*
X0251638Y0101809D02*
X0253703Y0101809D01*
X0253236Y0103408D02*
X0264600Y0103408D01*
X0264836Y0105006D02*
X0254835Y0105006D01*
X0255897Y0101809D02*
X0265265Y0101809D01*
X0265685Y0100211D02*
X0257679Y0100211D01*
X0258000Y0098612D02*
X0264673Y0098612D01*
X0264662Y0097014D02*
X0259415Y0097014D01*
X0261013Y0095415D02*
X0265659Y0095415D01*
X0265800Y0093817D02*
X0262612Y0093817D01*
X0238276Y0106605D02*
X0214933Y0106605D01*
X0216532Y0108203D02*
X0239875Y0108203D01*
X0241473Y0109802D02*
X0218130Y0109802D01*
X0219729Y0111400D02*
X0243072Y0111400D01*
X0244670Y0112999D02*
X0221327Y0112999D01*
X0222926Y0114597D02*
X0246269Y0114597D01*
X0247867Y0116196D02*
X0240389Y0116196D01*
X0242517Y0117794D02*
X0249466Y0117794D01*
X0243187Y0119393D02*
X0288379Y0119393D01*
X0286780Y0120991D02*
X0243200Y0120991D01*
X0235083Y0117794D02*
X0226123Y0117794D01*
X0224524Y0116196D02*
X0237211Y0116196D01*
X0234413Y0119393D02*
X0227721Y0119393D01*
X0229320Y0120991D02*
X0234400Y0120991D01*
X0228458Y0125787D02*
X0206812Y0125787D01*
X0207885Y0127385D02*
X0350046Y0127385D01*
X0349562Y0125787D02*
X0287642Y0125787D01*
X0302162Y0147225D02*
X0314438Y0147225D01*
X0315375Y0148162D01*
X0315375Y0160438D01*
X0314438Y0161375D01*
X0302162Y0161375D01*
X0301225Y0160438D01*
X0301225Y0148162D01*
X0302162Y0147225D01*
X0301225Y0148166D02*
X0168494Y0148166D01*
X0167500Y0146568D02*
X0382257Y0146568D01*
X0382425Y0146637D02*
X0380808Y0145967D01*
X0379570Y0144729D01*
X0378900Y0143112D01*
X0378900Y0141362D01*
X0379570Y0139745D01*
X0380808Y0138507D01*
X0381079Y0138394D01*
X0380889Y0138297D01*
X0380303Y0137872D01*
X0379791Y0137360D01*
X0379366Y0136774D01*
X0379037Y0136129D01*
X0378813Y0135440D01*
X0378700Y0134725D01*
X0378700Y0134363D01*
X0383300Y0134363D01*
X0387900Y0134363D01*
X0387900Y0134725D01*
X0387787Y0135440D01*
X0387563Y0136129D01*
X0387234Y0136774D01*
X0386809Y0137360D01*
X0386297Y0137872D01*
X0385711Y0138297D01*
X0385521Y0138394D01*
X0385792Y0138507D01*
X0387030Y0139745D01*
X0387700Y0141362D01*
X0387700Y0143112D01*
X0387030Y0144729D01*
X0385792Y0145967D01*
X0384175Y0146637D01*
X0382425Y0146637D01*
X0384343Y0146568D02*
X0392500Y0146568D01*
X0392500Y0148166D02*
X0367375Y0148166D01*
X0367375Y0148162D02*
X0366438Y0147225D01*
X0354162Y0147225D01*
X0353225Y0148162D01*
X0353225Y0160438D01*
X0354162Y0161375D01*
X0366438Y0161375D01*
X0367375Y0160438D01*
X0367375Y0148162D01*
X0367375Y0149765D02*
X0392500Y0149765D01*
X0392500Y0151363D02*
X0367375Y0151363D01*
X0367375Y0152962D02*
X0392500Y0152962D01*
X0392500Y0154560D02*
X0367375Y0154560D01*
X0367375Y0156159D02*
X0392500Y0156159D01*
X0392500Y0157757D02*
X0385198Y0157757D01*
X0386615Y0158344D02*
X0386615Y0158344D01*
X0389006Y0160735D01*
X0389006Y0160735D01*
X0390300Y0163859D01*
X0390300Y0166047D01*
X0390300Y0167241D01*
X0389006Y0170365D01*
X0386615Y0172756D01*
X0386615Y0172756D01*
X0383491Y0174050D01*
X0380109Y0174050D01*
X0376985Y0172756D01*
X0374594Y0170365D01*
X0374594Y0170365D01*
X0373300Y0167241D01*
X0373300Y0163859D01*
X0374594Y0160735D01*
X0376985Y0158344D01*
X0376985Y0158344D01*
X0380109Y0157050D01*
X0383491Y0157050D01*
X0386615Y0158344D01*
X0387626Y0159356D02*
X0392500Y0159356D01*
X0392500Y0160954D02*
X0389097Y0160954D01*
X0389759Y0162553D02*
X0392500Y0162553D01*
X0392500Y0164151D02*
X0390300Y0164151D01*
X0390300Y0165750D02*
X0392500Y0165750D01*
X0392438Y0167348D02*
X0390255Y0167348D01*
X0390300Y0167241D02*
X0390300Y0167241D01*
X0389593Y0168947D02*
X0392088Y0168947D01*
X0391472Y0170545D02*
X0388826Y0170545D01*
X0389006Y0170365D02*
X0389006Y0170365D01*
X0390490Y0172144D02*
X0387227Y0172144D01*
X0389152Y0173742D02*
X0384234Y0173742D01*
X0386684Y0175341D02*
X0012011Y0175341D01*
X0011985Y0172756D02*
X0015109Y0174050D01*
X0018491Y0174050D01*
X0021615Y0172756D01*
X0021615Y0172756D01*
X0024006Y0170365D01*
X0024006Y0170365D01*
X0025300Y0167241D01*
X0025300Y0163859D01*
X0024006Y0160735D01*
X0024006Y0160735D01*
X0024006Y0160735D01*
X0021615Y0158344D01*
X0021615Y0158344D01*
X0018491Y0157050D01*
X0017297Y0157050D01*
X0015109Y0157050D01*
X0011985Y0158344D01*
X0011985Y0158344D01*
X0009594Y0160735D01*
X0009594Y0160735D01*
X0008300Y0163859D01*
X0008300Y0167241D01*
X0009594Y0170365D01*
X0009594Y0170365D01*
X0011985Y0172756D01*
X0011985Y0172756D01*
X0011373Y0172144D02*
X0008078Y0172144D01*
X0007069Y0170545D02*
X0009774Y0170545D01*
X0009007Y0168947D02*
X0006550Y0168947D01*
X0006203Y0167348D02*
X0008345Y0167348D01*
X0008300Y0165750D02*
X0006139Y0165750D01*
X0006139Y0164151D02*
X0008300Y0164151D01*
X0008841Y0162553D02*
X0006139Y0162553D01*
X0006139Y0160954D02*
X0009503Y0160954D01*
X0010974Y0159356D02*
X0006139Y0159356D01*
X0006139Y0157757D02*
X0013402Y0157757D01*
X0020198Y0157757D02*
X0072658Y0157757D01*
X0072731Y0157581D02*
X0074081Y0156231D01*
X0075845Y0155500D01*
X0077755Y0155500D01*
X0079519Y0156231D01*
X0080869Y0157581D01*
X0081600Y0159345D01*
X0081600Y0161255D01*
X0080869Y0163019D01*
X0079519Y0164369D01*
X0077755Y0165100D01*
X0075845Y0165100D01*
X0074081Y0164369D01*
X0073419Y0163707D01*
X0073227Y0163899D01*
X0075126Y0165798D01*
X0075845Y0165500D01*
X0077755Y0165500D01*
X0079519Y0166231D01*
X0080869Y0167581D01*
X0081600Y0169345D01*
X0081600Y0171255D01*
X0080869Y0173019D01*
X0079519Y0174369D01*
X0077755Y0175100D01*
X0075845Y0175100D01*
X0074081Y0174369D01*
X0072731Y0173019D01*
X0072000Y0171255D01*
X0072000Y0169345D01*
X0072298Y0168626D01*
X0068800Y0165128D01*
X0068800Y0164325D01*
X0068087Y0163613D01*
X0067600Y0162437D01*
X0067600Y0161163D01*
X0068087Y0159987D01*
X0068987Y0159087D01*
X0070163Y0158600D01*
X0071437Y0158600D01*
X0072181Y0158908D01*
X0072731Y0157581D01*
X0074255Y0156159D02*
X0067096Y0156159D01*
X0067183Y0156095D02*
X0066483Y0156604D01*
X0065711Y0156997D01*
X0064888Y0157265D01*
X0064033Y0157400D01*
X0063800Y0157400D01*
X0063800Y0152100D01*
X0069100Y0152100D01*
X0069100Y0152333D01*
X0068965Y0153188D01*
X0068697Y0154011D01*
X0068304Y0154783D01*
X0067795Y0155483D01*
X0067183Y0156095D01*
X0068417Y0154560D02*
X0089712Y0154560D01*
X0091310Y0152962D02*
X0069000Y0152962D01*
X0069100Y0151700D02*
X0063800Y0151700D01*
X0063800Y0152100D01*
X0063400Y0152100D01*
X0063400Y0157400D01*
X0063167Y0157400D01*
X0062312Y0157265D01*
X0061489Y0156997D01*
X0060717Y0156604D01*
X0060017Y0156095D01*
X0059405Y0155483D01*
X0058896Y0154783D01*
X0058503Y0154011D01*
X0058235Y0153188D01*
X0058100Y0152333D01*
X0058100Y0152100D01*
X0063400Y0152100D01*
X0063400Y0151700D01*
X0063800Y0151700D01*
X0063800Y0146400D01*
X0064033Y0146400D01*
X0064888Y0146535D01*
X0065711Y0146803D01*
X0066483Y0147196D01*
X0067183Y0147705D01*
X0067795Y0148317D01*
X0068304Y0149017D01*
X0068697Y0149789D01*
X0068965Y0150612D01*
X0069100Y0151467D01*
X0069100Y0151700D01*
X0069084Y0151363D02*
X0092909Y0151363D01*
X0094507Y0149765D02*
X0068685Y0149765D01*
X0067644Y0148166D02*
X0096106Y0148166D01*
X0097704Y0146568D02*
X0064987Y0146568D01*
X0063800Y0146568D02*
X0063400Y0146568D01*
X0063400Y0146400D02*
X0063400Y0151700D01*
X0058100Y0151700D01*
X0058100Y0151467D01*
X0058235Y0150612D01*
X0058503Y0149789D01*
X0058896Y0149017D01*
X0059405Y0148317D01*
X0060017Y0147705D01*
X0060717Y0147196D01*
X0061489Y0146803D01*
X0062312Y0146535D01*
X0063167Y0146400D01*
X0063400Y0146400D01*
X0062213Y0146568D02*
X0006139Y0146568D01*
X0006139Y0148166D02*
X0034239Y0148166D01*
X0033507Y0148898D02*
X0032700Y0150846D01*
X0032700Y0152954D01*
X0033507Y0154902D01*
X0034998Y0156393D01*
X0036946Y0157200D01*
X0039054Y0157200D01*
X0041002Y0156393D01*
X0042493Y0154902D01*
X0043300Y0152954D01*
X0043300Y0150846D01*
X0042493Y0148898D01*
X0041002Y0147407D01*
X0039054Y0146600D01*
X0036946Y0146600D01*
X0034998Y0147407D01*
X0033507Y0148898D01*
X0033148Y0149765D02*
X0006139Y0149765D01*
X0006139Y0151363D02*
X0032700Y0151363D01*
X0032703Y0152962D02*
X0006139Y0152962D01*
X0006139Y0154560D02*
X0033365Y0154560D01*
X0034763Y0156159D02*
X0006139Y0156159D01*
X0022626Y0159356D02*
X0068719Y0159356D01*
X0067687Y0160954D02*
X0024097Y0160954D01*
X0024759Y0162553D02*
X0067648Y0162553D01*
X0068626Y0164151D02*
X0025300Y0164151D01*
X0025300Y0165750D02*
X0034455Y0165750D01*
X0034998Y0165207D02*
X0036946Y0164400D01*
X0039054Y0164400D01*
X0041002Y0165207D01*
X0042493Y0166698D01*
X0043300Y0168646D01*
X0043300Y0170754D01*
X0042493Y0172702D01*
X0041002Y0174193D01*
X0039054Y0175000D01*
X0036946Y0175000D01*
X0034998Y0174193D01*
X0033507Y0172702D01*
X0032700Y0170754D01*
X0032700Y0168646D01*
X0033507Y0166698D01*
X0034998Y0165207D01*
X0033237Y0167348D02*
X0025255Y0167348D01*
X0024593Y0168947D02*
X0032700Y0168947D01*
X0032700Y0170545D02*
X0023826Y0170545D01*
X0022227Y0172144D02*
X0033276Y0172144D01*
X0034547Y0173742D02*
X0019234Y0173742D01*
X0014366Y0173742D02*
X0009481Y0173742D01*
X0041453Y0173742D02*
X0060147Y0173742D01*
X0060598Y0174193D02*
X0059107Y0172702D01*
X0058300Y0170754D01*
X0058300Y0168646D01*
X0059107Y0166698D01*
X0060598Y0165207D01*
X0062546Y0164400D01*
X0064654Y0164400D01*
X0066602Y0165207D01*
X0068093Y0166698D01*
X0068900Y0168646D01*
X0068900Y0170754D01*
X0068093Y0172702D01*
X0066602Y0174193D01*
X0064654Y0175000D01*
X0062546Y0175000D01*
X0060598Y0174193D01*
X0058876Y0172144D02*
X0042724Y0172144D01*
X0043300Y0170545D02*
X0058300Y0170545D01*
X0058300Y0168947D02*
X0043300Y0168947D01*
X0042763Y0167348D02*
X0058837Y0167348D01*
X0060055Y0165750D02*
X0041545Y0165750D01*
X0041237Y0156159D02*
X0060104Y0156159D01*
X0058783Y0154560D02*
X0042635Y0154560D01*
X0043297Y0152962D02*
X0058200Y0152962D01*
X0058116Y0151363D02*
X0043300Y0151363D01*
X0042852Y0149765D02*
X0058515Y0149765D01*
X0059556Y0148166D02*
X0041761Y0148166D01*
X0063400Y0148166D02*
X0063800Y0148166D01*
X0063800Y0149765D02*
X0063400Y0149765D01*
X0063400Y0151363D02*
X0063800Y0151363D01*
X0063800Y0152962D02*
X0063400Y0152962D01*
X0063400Y0154560D02*
X0063800Y0154560D01*
X0063800Y0156159D02*
X0063400Y0156159D01*
X0079345Y0156159D02*
X0084255Y0156159D01*
X0082658Y0157757D02*
X0080942Y0157757D01*
X0081600Y0159356D02*
X0082000Y0159356D01*
X0082000Y0160954D02*
X0081600Y0160954D01*
X0081062Y0162553D02*
X0082538Y0162553D01*
X0083863Y0164151D02*
X0079737Y0164151D01*
X0078357Y0165750D02*
X0085243Y0165750D01*
X0085845Y0165500D02*
X0087755Y0165500D01*
X0089519Y0166231D01*
X0090869Y0167581D01*
X0091600Y0169345D01*
X0091600Y0171255D01*
X0090869Y0173019D01*
X0089519Y0174369D01*
X0087755Y0175100D01*
X0085845Y0175100D01*
X0084081Y0174369D01*
X0082731Y0173019D01*
X0082000Y0171255D01*
X0082000Y0169345D01*
X0082731Y0167581D01*
X0084081Y0166231D01*
X0085845Y0165500D01*
X0088357Y0165750D02*
X0094717Y0165750D01*
X0094881Y0165666D02*
X0095629Y0165423D01*
X0096406Y0165300D01*
X0096714Y0165300D01*
X0096714Y0170214D01*
X0091800Y0170214D01*
X0091800Y0169906D01*
X0091923Y0169129D01*
X0092166Y0168381D01*
X0092524Y0167679D01*
X0092986Y0167043D01*
X0093543Y0166486D01*
X0094179Y0166024D01*
X0094881Y0165666D01*
X0093863Y0164151D02*
X0089737Y0164151D01*
X0091062Y0162553D02*
X0092538Y0162553D01*
X0092000Y0160954D02*
X0091600Y0160954D01*
X0091600Y0159356D02*
X0092000Y0159356D01*
X0092171Y0157757D02*
X0092658Y0157757D01*
X0093770Y0156159D02*
X0094255Y0156159D01*
X0095368Y0154560D02*
X0099712Y0154560D01*
X0101310Y0152962D02*
X0096967Y0152962D01*
X0098565Y0151363D02*
X0102909Y0151363D01*
X0104507Y0149765D02*
X0100164Y0149765D01*
X0101762Y0148166D02*
X0106106Y0148166D01*
X0107704Y0146568D02*
X0103361Y0146568D01*
X0104959Y0144969D02*
X0109303Y0144969D01*
X0110901Y0143370D02*
X0106558Y0143370D01*
X0108156Y0141772D02*
X0112500Y0141772D01*
X0114098Y0140173D02*
X0109755Y0140173D01*
X0111353Y0138575D02*
X0115697Y0138575D01*
X0117295Y0136976D02*
X0112952Y0136976D01*
X0114550Y0135378D02*
X0118894Y0135378D01*
X0120492Y0133779D02*
X0116149Y0133779D01*
X0117748Y0132181D02*
X0122091Y0132181D01*
X0123689Y0130582D02*
X0119346Y0130582D01*
X0120945Y0128984D02*
X0125288Y0128984D01*
X0126886Y0127385D02*
X0122543Y0127385D01*
X0124142Y0125787D02*
X0128485Y0125787D01*
X0130083Y0124188D02*
X0125740Y0124188D01*
X0127339Y0122590D02*
X0131682Y0122590D01*
X0130563Y0120991D02*
X0133280Y0120991D01*
X0134879Y0119393D02*
X0131000Y0119393D01*
X0130640Y0117794D02*
X0136477Y0117794D01*
X0138076Y0116196D02*
X0128668Y0116196D01*
X0138937Y0120991D02*
X0174800Y0120991D01*
X0174800Y0119393D02*
X0140536Y0119393D01*
X0137339Y0122590D02*
X0174800Y0122590D01*
X0174800Y0124188D02*
X0135740Y0124188D01*
X0134142Y0125787D02*
X0174800Y0125787D01*
X0174800Y0127385D02*
X0132543Y0127385D01*
X0130945Y0128984D02*
X0174800Y0128984D01*
X0174800Y0130582D02*
X0129346Y0130582D01*
X0127748Y0132181D02*
X0174800Y0132181D01*
X0174800Y0133779D02*
X0140805Y0133779D01*
X0141500Y0135378D02*
X0174800Y0135378D01*
X0174800Y0136976D02*
X0142305Y0136976D01*
X0145600Y0138575D02*
X0174800Y0138575D01*
X0174845Y0140173D02*
X0146500Y0140173D01*
X0146361Y0141772D02*
X0175239Y0141772D01*
X0161100Y0146568D02*
X0141981Y0146568D01*
X0143494Y0148166D02*
X0161402Y0148166D01*
X0163095Y0149765D02*
X0145093Y0149765D01*
X0146691Y0151363D02*
X0166035Y0151363D01*
X0167633Y0152962D02*
X0148290Y0152962D01*
X0144232Y0154560D02*
X0117499Y0154560D01*
X0117354Y0154500D02*
X0119302Y0155307D01*
X0120793Y0156798D01*
X0121600Y0158746D01*
X0121600Y0160854D01*
X0120793Y0162802D01*
X0119302Y0164293D01*
X0118356Y0164685D01*
X0118411Y0164703D01*
X0119183Y0165096D01*
X0119883Y0165605D01*
X0120495Y0166217D01*
X0121004Y0166917D01*
X0121397Y0167689D01*
X0121665Y0168512D01*
X0121800Y0169367D01*
X0121800Y0169800D01*
X0121800Y0170233D01*
X0121665Y0171088D01*
X0121397Y0171911D01*
X0121004Y0172683D01*
X0120495Y0173383D01*
X0119883Y0173995D01*
X0119183Y0174504D01*
X0118411Y0174897D01*
X0117588Y0175165D01*
X0116733Y0175300D01*
X0116300Y0175300D01*
X0116300Y0169800D01*
X0121800Y0169800D01*
X0116300Y0169800D01*
X0116300Y0169800D01*
X0116300Y0169800D01*
X0116300Y0169800D01*
X0110800Y0169800D01*
X0110800Y0170233D01*
X0110935Y0171088D01*
X0111203Y0171911D01*
X0111596Y0172683D01*
X0112105Y0173383D01*
X0112717Y0173995D01*
X0113417Y0174504D01*
X0114189Y0174897D01*
X0115012Y0175165D01*
X0115867Y0175300D01*
X0116300Y0175300D01*
X0116300Y0169800D01*
X0110800Y0169800D01*
X0110800Y0169367D01*
X0110935Y0168512D01*
X0111203Y0167689D01*
X0111596Y0166917D01*
X0112105Y0166217D01*
X0112717Y0165605D01*
X0113417Y0165096D01*
X0114189Y0164703D01*
X0114244Y0164685D01*
X0113298Y0164293D01*
X0111807Y0162802D01*
X0111000Y0160854D01*
X0111000Y0158746D01*
X0111807Y0156798D01*
X0113298Y0155307D01*
X0115246Y0154500D01*
X0117354Y0154500D01*
X0115101Y0154560D02*
X0105368Y0154560D01*
X0103770Y0156159D02*
X0112446Y0156159D01*
X0111410Y0157757D02*
X0102171Y0157757D01*
X0101600Y0159356D02*
X0111000Y0159356D01*
X0111041Y0160954D02*
X0101600Y0160954D01*
X0101062Y0162553D02*
X0111704Y0162553D01*
X0113156Y0164151D02*
X0099737Y0164151D01*
X0098883Y0165750D02*
X0112572Y0165750D01*
X0111376Y0167348D02*
X0100836Y0167348D01*
X0100614Y0167043D02*
X0101076Y0167679D01*
X0101434Y0168381D01*
X0101677Y0169129D01*
X0101800Y0169906D01*
X0101800Y0170214D01*
X0096886Y0170214D01*
X0096886Y0170386D01*
X0096714Y0170386D01*
X0096714Y0175300D01*
X0096406Y0175300D01*
X0095629Y0175177D01*
X0094881Y0174934D01*
X0094179Y0174576D01*
X0093543Y0174114D01*
X0092986Y0173557D01*
X0092524Y0172921D01*
X0092166Y0172219D01*
X0091923Y0171471D01*
X0091800Y0170694D01*
X0091800Y0170386D01*
X0096714Y0170386D01*
X0096714Y0170214D01*
X0096886Y0170214D01*
X0096886Y0165300D01*
X0097194Y0165300D01*
X0097971Y0165423D01*
X0098719Y0165666D01*
X0099421Y0166024D01*
X0100057Y0166486D01*
X0100614Y0167043D01*
X0101618Y0168947D02*
X0110867Y0168947D01*
X0110849Y0170545D02*
X0101800Y0170545D01*
X0101800Y0170694D02*
X0101677Y0171471D01*
X0101434Y0172219D01*
X0101076Y0172921D01*
X0100614Y0173557D01*
X0100057Y0174114D01*
X0099421Y0174576D01*
X0098719Y0174934D01*
X0097971Y0175177D01*
X0097194Y0175300D01*
X0096886Y0175300D01*
X0096886Y0170386D01*
X0101800Y0170386D01*
X0101800Y0170694D01*
X0101458Y0172144D02*
X0111321Y0172144D01*
X0112464Y0173742D02*
X0100429Y0173742D01*
X0096886Y0173742D02*
X0096714Y0173742D01*
X0096714Y0172144D02*
X0096886Y0172144D01*
X0096886Y0170545D02*
X0096714Y0170545D01*
X0096714Y0168947D02*
X0096886Y0168947D01*
X0096886Y0167348D02*
X0096714Y0167348D01*
X0096714Y0165750D02*
X0096886Y0165750D01*
X0092764Y0167348D02*
X0090636Y0167348D01*
X0091435Y0168947D02*
X0091982Y0168947D01*
X0091800Y0170545D02*
X0091600Y0170545D01*
X0091232Y0172144D02*
X0092142Y0172144D01*
X0093171Y0173742D02*
X0090146Y0173742D01*
X0083454Y0173742D02*
X0080146Y0173742D01*
X0081232Y0172144D02*
X0082368Y0172144D01*
X0082000Y0170545D02*
X0081600Y0170545D01*
X0081435Y0168947D02*
X0082165Y0168947D01*
X0082964Y0167348D02*
X0080636Y0167348D01*
X0075243Y0165750D02*
X0075078Y0165750D01*
X0073863Y0164151D02*
X0073480Y0164151D01*
X0071020Y0167348D02*
X0068363Y0167348D01*
X0068900Y0168947D02*
X0072165Y0168947D01*
X0072000Y0170545D02*
X0068900Y0170545D01*
X0068324Y0172144D02*
X0072368Y0172144D01*
X0073454Y0173742D02*
X0067053Y0173742D01*
X0067145Y0165750D02*
X0069421Y0165750D01*
X0106967Y0152962D02*
X0142633Y0152962D01*
X0141035Y0151363D02*
X0108565Y0151363D01*
X0110164Y0149765D02*
X0139436Y0149765D01*
X0137838Y0148166D02*
X0111762Y0148166D01*
X0113361Y0146568D02*
X0136239Y0146568D01*
X0134641Y0144969D02*
X0114959Y0144969D01*
X0116558Y0143370D02*
X0131345Y0143370D01*
X0130239Y0141772D02*
X0118156Y0141772D01*
X0119755Y0140173D02*
X0130100Y0140173D01*
X0131000Y0138575D02*
X0121353Y0138575D01*
X0122952Y0136976D02*
X0135324Y0136976D01*
X0135100Y0135378D02*
X0124550Y0135378D01*
X0126149Y0133779D02*
X0135795Y0133779D01*
X0135600Y0138575D02*
X0136637Y0138575D01*
X0136500Y0140173D02*
X0139845Y0140173D01*
X0137803Y0141772D02*
X0137100Y0141772D01*
X0113689Y0130582D02*
X0006139Y0130582D01*
X0006139Y0128984D02*
X0115288Y0128984D01*
X0116886Y0127385D02*
X0006139Y0127385D01*
X0006139Y0125787D02*
X0118485Y0125787D01*
X0112091Y0132181D02*
X0006139Y0132181D01*
X0006139Y0133779D02*
X0110492Y0133779D01*
X0108894Y0135378D02*
X0097724Y0135378D01*
X0098278Y0135608D02*
X0099394Y0136723D01*
X0099998Y0138181D01*
X0099998Y0139758D01*
X0099394Y0141215D01*
X0098278Y0142331D01*
X0096821Y0142935D01*
X0095244Y0142935D01*
X0093786Y0142331D01*
X0092671Y0141215D01*
X0092067Y0139758D01*
X0092067Y0138181D01*
X0092671Y0136723D01*
X0093786Y0135608D01*
X0095244Y0135004D01*
X0096821Y0135004D01*
X0098278Y0135608D01*
X0099499Y0136976D02*
X0107295Y0136976D01*
X0105697Y0138575D02*
X0099998Y0138575D01*
X0099826Y0140173D02*
X0104098Y0140173D01*
X0102500Y0141772D02*
X0098837Y0141772D01*
X0100901Y0143370D02*
X0006139Y0143370D01*
X0006139Y0141772D02*
X0093227Y0141772D01*
X0092239Y0140173D02*
X0006139Y0140173D01*
X0006139Y0138575D02*
X0092067Y0138575D01*
X0092566Y0136976D02*
X0006139Y0136976D01*
X0006139Y0135378D02*
X0094341Y0135378D01*
X0099303Y0144969D02*
X0006139Y0144969D01*
X0006139Y0108203D02*
X0155375Y0108203D01*
X0153776Y0106605D02*
X0006139Y0106605D01*
X0006139Y0105006D02*
X0152178Y0105006D01*
X0150579Y0103408D02*
X0006139Y0103408D01*
X0006139Y0101809D02*
X0148981Y0101809D01*
X0147382Y0100211D02*
X0006139Y0100211D01*
X0006139Y0098612D02*
X0145784Y0098612D01*
X0148244Y0095415D02*
X0151587Y0095415D01*
X0148291Y0093817D02*
X0146645Y0093817D01*
X0147300Y0094472D02*
X0147300Y0094472D01*
X0147387Y0092218D02*
X0147600Y0092218D01*
X0140614Y0090620D02*
X0138986Y0090620D01*
X0139400Y0089021D02*
X0140200Y0089021D01*
X0140200Y0087423D02*
X0139400Y0087423D01*
X0138829Y0085824D02*
X0140771Y0085824D01*
X0142369Y0084226D02*
X0137231Y0084226D01*
X0130771Y0085824D02*
X0128829Y0085824D01*
X0129400Y0087423D02*
X0130200Y0087423D01*
X0130200Y0089021D02*
X0129400Y0089021D01*
X0128986Y0090620D02*
X0130614Y0090620D01*
X0132213Y0092218D02*
X0127387Y0092218D01*
X0120614Y0090620D02*
X0116948Y0090620D01*
X0115350Y0089021D02*
X0120200Y0089021D01*
X0120200Y0087423D02*
X0113751Y0087423D01*
X0112152Y0085824D02*
X0120771Y0085824D01*
X0122369Y0084226D02*
X0110554Y0084226D01*
X0108955Y0082627D02*
X0155799Y0082627D01*
X0157231Y0084226D02*
X0157397Y0084226D01*
X0154200Y0081029D02*
X0107357Y0081029D01*
X0105758Y0079430D02*
X0152602Y0079430D01*
X0151003Y0077832D02*
X0104160Y0077832D01*
X0102561Y0076233D02*
X0149800Y0076233D01*
X0149109Y0074634D02*
X0100963Y0074634D01*
X0099364Y0073036D02*
X0148600Y0073036D01*
X0148901Y0071437D02*
X0097766Y0071437D01*
X0096167Y0069839D02*
X0139511Y0069839D01*
X0137912Y0068240D02*
X0094569Y0068240D01*
X0092970Y0066642D02*
X0136314Y0066642D01*
X0134715Y0065043D02*
X0091372Y0065043D01*
X0089773Y0063445D02*
X0133116Y0063445D01*
X0135576Y0060248D02*
X0158722Y0060248D01*
X0157688Y0058649D02*
X0154976Y0058649D01*
X0150624Y0058649D02*
X0133978Y0058649D01*
X0132379Y0057051D02*
X0149647Y0057051D01*
X0149124Y0055452D02*
X0132173Y0055452D01*
X0133000Y0053854D02*
X0147525Y0053854D01*
X0142533Y0052255D02*
X0137067Y0052255D01*
X0138666Y0050657D02*
X0140934Y0050657D01*
X0140400Y0049058D02*
X0139200Y0049058D01*
X0139200Y0047460D02*
X0140400Y0047460D01*
X0141016Y0045861D02*
X0138584Y0045861D01*
X0136985Y0044263D02*
X0142615Y0044263D01*
X0132615Y0044263D02*
X0126985Y0044263D01*
X0128584Y0045861D02*
X0131016Y0045861D01*
X0130400Y0047460D02*
X0129200Y0047460D01*
X0129200Y0049058D02*
X0130400Y0049058D01*
X0137175Y0061846D02*
X0166018Y0061846D01*
X0164419Y0060248D02*
X0162878Y0060248D01*
X0167617Y0063445D02*
X0138773Y0063445D01*
X0140372Y0065043D02*
X0169215Y0065043D01*
X0170814Y0066642D02*
X0141970Y0066642D01*
X0165281Y0055452D02*
X0174319Y0055452D01*
X0172721Y0057051D02*
X0166879Y0057051D01*
X0168478Y0058649D02*
X0169425Y0058649D01*
X0192000Y0055452D02*
X0213300Y0055452D01*
X0213300Y0053854D02*
X0193575Y0053854D01*
X0195173Y0052255D02*
X0213300Y0052255D01*
X0213300Y0057051D02*
X0193379Y0057051D01*
X0196056Y0058649D02*
X0213300Y0058649D01*
X0213300Y0060248D02*
X0210076Y0060248D01*
X0211675Y0061846D02*
X0213300Y0061846D01*
X0213130Y0063445D02*
X0211800Y0063445D01*
X0221300Y0061846D02*
X0222231Y0061846D01*
X0222103Y0063445D02*
X0221470Y0063445D01*
X0222450Y0065043D02*
X0223018Y0065043D01*
X0222415Y0066642D02*
X0226314Y0066642D01*
X0226726Y0068240D02*
X0221385Y0068240D01*
X0219667Y0069839D02*
X0227813Y0069839D01*
X0223327Y0060248D02*
X0221300Y0060248D01*
X0188706Y0041066D02*
X0067394Y0041066D01*
X0065796Y0039467D02*
X0190304Y0039467D01*
X0191903Y0037869D02*
X0064197Y0037869D01*
X0063400Y0036270D02*
X0193501Y0036270D01*
X0194300Y0034672D02*
X0063400Y0034672D01*
X0062749Y0033073D02*
X0194300Y0033073D01*
X0194300Y0031475D02*
X0061370Y0031475D01*
X0061737Y0041066D02*
X0006139Y0041066D01*
X0006139Y0042664D02*
X0063336Y0042664D01*
X0064934Y0044263D02*
X0006139Y0044263D01*
X0006139Y0045861D02*
X0066533Y0045861D01*
X0068131Y0047460D02*
X0006139Y0047460D01*
X0006139Y0049058D02*
X0069730Y0049058D01*
X0071328Y0050657D02*
X0006139Y0050657D01*
X0006139Y0052255D02*
X0072927Y0052255D01*
X0089817Y0023482D02*
X0096122Y0023482D01*
X0094868Y0021884D02*
X0091071Y0021884D01*
X0091680Y0020285D02*
X0094259Y0020285D01*
X0094259Y0018687D02*
X0091680Y0018687D01*
X0091225Y0017088D02*
X0094714Y0017088D01*
X0095750Y0015490D02*
X0090189Y0015490D01*
X0103968Y0015490D02*
X0109529Y0015490D01*
X0108493Y0017088D02*
X0105004Y0017088D01*
X0105459Y0018687D02*
X0108039Y0018687D01*
X0108039Y0020285D02*
X0105459Y0020285D01*
X0104850Y0021884D02*
X0108647Y0021884D01*
X0109901Y0023482D02*
X0103596Y0023482D01*
X0117376Y0023482D02*
X0123681Y0023482D01*
X0122427Y0021884D02*
X0118630Y0021884D01*
X0119239Y0020285D02*
X0121818Y0020285D01*
X0121818Y0018687D02*
X0119239Y0018687D01*
X0118784Y0017088D02*
X0122273Y0017088D01*
X0123309Y0015490D02*
X0117748Y0015490D01*
X0131527Y0015490D02*
X0137088Y0015490D01*
X0136052Y0017088D02*
X0132563Y0017088D01*
X0133018Y0018687D02*
X0135598Y0018687D01*
X0135598Y0020285D02*
X0133018Y0020285D01*
X0132409Y0021884D02*
X0136206Y0021884D01*
X0137460Y0023482D02*
X0131156Y0023482D01*
X0144935Y0023482D02*
X0150957Y0023482D01*
X0149784Y0021884D02*
X0146189Y0021884D01*
X0146798Y0020285D02*
X0149261Y0020285D01*
X0149202Y0018687D02*
X0146798Y0018687D01*
X0146343Y0017088D02*
X0149597Y0017088D01*
X0150585Y0015490D02*
X0145307Y0015490D01*
X0172494Y0023482D02*
X0178799Y0023482D01*
X0177545Y0021884D02*
X0173748Y0021884D01*
X0174357Y0020285D02*
X0176936Y0020285D01*
X0176936Y0018687D02*
X0174357Y0018687D01*
X0173902Y0017088D02*
X0177391Y0017088D01*
X0178427Y0015490D02*
X0172866Y0015490D01*
X0186645Y0015490D02*
X0192207Y0015490D01*
X0191171Y0017088D02*
X0187681Y0017088D01*
X0188136Y0018687D02*
X0190716Y0018687D01*
X0190716Y0020285D02*
X0188136Y0020285D01*
X0187527Y0021884D02*
X0191325Y0021884D01*
X0192578Y0023482D02*
X0186274Y0023482D01*
X0194300Y0028278D02*
X0006139Y0028278D01*
X0006139Y0029876D02*
X0194300Y0029876D01*
X0150771Y0085824D02*
X0148829Y0085824D01*
X0149400Y0087423D02*
X0150200Y0087423D01*
X0157387Y0092218D02*
X0158800Y0092218D01*
X0200430Y0112999D02*
X0215670Y0112999D01*
X0214072Y0111400D02*
X0202028Y0111400D01*
X0203627Y0109802D02*
X0204276Y0109802D01*
X0209324Y0109802D02*
X0212473Y0109802D01*
X0217269Y0114597D02*
X0198831Y0114597D01*
X0197233Y0116196D02*
X0218211Y0116196D01*
X0216083Y0117794D02*
X0195634Y0117794D01*
X0196918Y0119393D02*
X0215413Y0119393D01*
X0215400Y0120991D02*
X0197500Y0120991D01*
X0197229Y0122590D02*
X0215986Y0122590D01*
X0217690Y0124188D02*
X0196300Y0124188D01*
X0196300Y0125787D02*
X0202788Y0125787D01*
X0201715Y0127385D02*
X0196300Y0127385D01*
X0196300Y0128984D02*
X0201288Y0128984D01*
X0199689Y0130582D02*
X0196300Y0130582D01*
X0196300Y0132181D02*
X0198091Y0132181D01*
X0196492Y0133779D02*
X0196300Y0133779D01*
X0200550Y0135378D02*
X0378803Y0135378D01*
X0378700Y0134363D02*
X0378700Y0134001D01*
X0378813Y0133286D01*
X0379037Y0132597D01*
X0379366Y0131952D01*
X0379791Y0131366D01*
X0380303Y0130854D01*
X0380889Y0130429D01*
X0381534Y0130100D01*
X0382223Y0129876D01*
X0382938Y0129763D01*
X0383300Y0129763D01*
X0383662Y0129763D01*
X0384377Y0129876D01*
X0385066Y0130100D01*
X0385711Y0130429D01*
X0386297Y0130854D01*
X0386809Y0131366D01*
X0387234Y0131952D01*
X0387563Y0132597D01*
X0387787Y0133286D01*
X0387900Y0134001D01*
X0387900Y0134363D01*
X0383300Y0134363D01*
X0383300Y0134363D01*
X0383300Y0134363D01*
X0383300Y0129763D01*
X0383300Y0134363D01*
X0383300Y0134363D01*
X0378700Y0134363D01*
X0378735Y0133779D02*
X0360857Y0133779D01*
X0360418Y0133779D02*
X0358818Y0133779D01*
X0358378Y0133779D02*
X0202149Y0133779D01*
X0203748Y0132181D02*
X0353988Y0132181D01*
X0352080Y0130582D02*
X0207043Y0130582D01*
X0207980Y0128984D02*
X0350865Y0128984D01*
X0358818Y0128984D02*
X0360418Y0128984D01*
X0360418Y0130582D02*
X0358818Y0130582D01*
X0358818Y0132181D02*
X0360418Y0132181D01*
X0365248Y0132181D02*
X0379249Y0132181D01*
X0380678Y0130582D02*
X0367156Y0130582D01*
X0368370Y0128984D02*
X0392500Y0128984D01*
X0392500Y0130582D02*
X0385922Y0130582D01*
X0387351Y0132181D02*
X0392500Y0132181D01*
X0392500Y0133779D02*
X0387865Y0133779D01*
X0387797Y0135378D02*
X0392500Y0135378D01*
X0392500Y0136976D02*
X0387087Y0136976D01*
X0385860Y0138575D02*
X0392500Y0138575D01*
X0392500Y0140173D02*
X0387208Y0140173D01*
X0387700Y0141772D02*
X0392500Y0141772D01*
X0392500Y0143370D02*
X0387593Y0143370D01*
X0386791Y0144969D02*
X0392500Y0144969D01*
X0379809Y0144969D02*
X0190959Y0144969D01*
X0192558Y0143370D02*
X0379007Y0143370D01*
X0378900Y0141772D02*
X0194156Y0141772D01*
X0195755Y0140173D02*
X0379392Y0140173D01*
X0380740Y0138575D02*
X0197353Y0138575D01*
X0198952Y0136976D02*
X0379513Y0136976D01*
X0383300Y0133779D02*
X0383300Y0133779D01*
X0383300Y0132181D02*
X0383300Y0132181D01*
X0383300Y0130582D02*
X0383300Y0130582D01*
X0392500Y0127385D02*
X0369189Y0127385D01*
X0369673Y0125787D02*
X0392500Y0125787D01*
X0360418Y0125787D02*
X0358818Y0125787D01*
X0358818Y0127385D02*
X0360418Y0127385D01*
X0360418Y0120991D02*
X0358818Y0120991D01*
X0358818Y0119393D02*
X0360418Y0119393D01*
X0360418Y0117794D02*
X0358818Y0117794D01*
X0358818Y0116196D02*
X0360418Y0116196D01*
X0360418Y0114597D02*
X0358818Y0114597D01*
X0353225Y0148166D02*
X0315375Y0148166D01*
X0315375Y0149765D02*
X0353225Y0149765D01*
X0353225Y0151363D02*
X0315375Y0151363D01*
X0315375Y0152962D02*
X0353225Y0152962D01*
X0353225Y0154560D02*
X0315375Y0154560D01*
X0315375Y0156159D02*
X0353225Y0156159D01*
X0353225Y0157757D02*
X0315375Y0157757D01*
X0315375Y0159356D02*
X0353225Y0159356D01*
X0353741Y0160954D02*
X0314859Y0160954D01*
X0301741Y0160954D02*
X0269375Y0160954D01*
X0269276Y0160760D02*
X0269691Y0161574D01*
X0269973Y0162442D01*
X0270116Y0163344D01*
X0270116Y0163419D01*
X0264697Y0163419D01*
X0264697Y0164181D01*
X0270116Y0164181D01*
X0270116Y0164256D01*
X0269973Y0165158D01*
X0269691Y0166026D01*
X0269276Y0166840D01*
X0268740Y0167578D01*
X0268094Y0168224D01*
X0267356Y0168761D01*
X0266542Y0169175D01*
X0265674Y0169457D01*
X0264772Y0169600D01*
X0264697Y0169600D01*
X0264697Y0164181D01*
X0263935Y0164181D01*
X0263935Y0169600D01*
X0263859Y0169600D01*
X0262958Y0169457D01*
X0262089Y0169175D01*
X0261276Y0168761D01*
X0260537Y0168224D01*
X0259892Y0167578D01*
X0259355Y0166840D01*
X0258941Y0166026D01*
X0258659Y0165158D01*
X0258516Y0164256D01*
X0258516Y0164181D01*
X0263935Y0164181D01*
X0263935Y0163419D01*
X0264697Y0163419D01*
X0264697Y0158000D01*
X0264772Y0158000D01*
X0265674Y0158143D01*
X0266542Y0158425D01*
X0267356Y0158839D01*
X0268094Y0159376D01*
X0268740Y0160022D01*
X0269276Y0160760D01*
X0268066Y0159356D02*
X0301225Y0159356D01*
X0301225Y0157757D02*
X0178085Y0157757D01*
X0176487Y0156159D02*
X0301225Y0156159D01*
X0301225Y0154560D02*
X0174888Y0154560D01*
X0173290Y0152962D02*
X0301225Y0152962D01*
X0301225Y0151363D02*
X0171691Y0151363D01*
X0170093Y0149765D02*
X0301225Y0149765D01*
X0269990Y0162553D02*
X0373841Y0162553D01*
X0373300Y0164151D02*
X0264697Y0164151D01*
X0263935Y0164151D02*
X0256136Y0164151D01*
X0256136Y0164914D02*
X0255284Y0166972D01*
X0253708Y0168547D01*
X0251650Y0169400D01*
X0249422Y0169400D01*
X0247364Y0168547D01*
X0245789Y0166972D01*
X0244936Y0164914D01*
X0244936Y0162686D01*
X0245789Y0160628D01*
X0247364Y0159053D01*
X0249422Y0158200D01*
X0251650Y0158200D01*
X0253708Y0159053D01*
X0255284Y0160628D01*
X0256136Y0162686D01*
X0256136Y0164914D01*
X0255790Y0165750D02*
X0258851Y0165750D01*
X0259724Y0167348D02*
X0254908Y0167348D01*
X0252745Y0168947D02*
X0261641Y0168947D01*
X0263935Y0168947D02*
X0264697Y0168947D01*
X0264697Y0167348D02*
X0263935Y0167348D01*
X0263935Y0165750D02*
X0264697Y0165750D01*
X0263935Y0163419D02*
X0258516Y0163419D01*
X0258516Y0163344D01*
X0258659Y0162442D01*
X0258941Y0161574D01*
X0259355Y0160760D01*
X0259892Y0160022D01*
X0260537Y0159376D01*
X0261276Y0158839D01*
X0262089Y0158425D01*
X0262958Y0158143D01*
X0263859Y0158000D01*
X0263935Y0158000D01*
X0263935Y0163419D01*
X0263935Y0162553D02*
X0264697Y0162553D01*
X0264697Y0160954D02*
X0263935Y0160954D01*
X0263935Y0159356D02*
X0264697Y0159356D01*
X0260565Y0159356D02*
X0254011Y0159356D01*
X0255419Y0160954D02*
X0259256Y0160954D01*
X0258641Y0162553D02*
X0256081Y0162553D01*
X0247061Y0159356D02*
X0240232Y0159356D01*
X0239929Y0159053D02*
X0237871Y0158200D01*
X0235643Y0158200D01*
X0233585Y0159053D01*
X0232009Y0160628D01*
X0231157Y0162686D01*
X0231157Y0164914D01*
X0232009Y0166972D01*
X0233585Y0168547D01*
X0235643Y0169400D01*
X0237871Y0169400D01*
X0239929Y0168547D01*
X0241504Y0166972D01*
X0242357Y0164914D01*
X0242357Y0162686D01*
X0241504Y0160628D01*
X0239929Y0159053D01*
X0241639Y0160954D02*
X0245654Y0160954D01*
X0244991Y0162553D02*
X0242301Y0162553D01*
X0242357Y0164151D02*
X0244936Y0164151D01*
X0245282Y0165750D02*
X0242011Y0165750D01*
X0241128Y0167348D02*
X0246165Y0167348D01*
X0248328Y0168947D02*
X0238965Y0168947D01*
X0234548Y0168947D02*
X0225185Y0168947D01*
X0226149Y0168547D02*
X0224091Y0169400D01*
X0221863Y0169400D01*
X0219805Y0168547D01*
X0218230Y0166972D01*
X0217377Y0164914D01*
X0217377Y0162686D01*
X0218230Y0160628D01*
X0219805Y0159053D01*
X0221863Y0158200D01*
X0224091Y0158200D01*
X0226149Y0159053D01*
X0227725Y0160628D01*
X0228577Y0162686D01*
X0228577Y0164914D01*
X0227725Y0166972D01*
X0226149Y0168547D01*
X0227349Y0167348D02*
X0232385Y0167348D01*
X0231503Y0165750D02*
X0228231Y0165750D01*
X0228577Y0164151D02*
X0231157Y0164151D01*
X0231212Y0162553D02*
X0228522Y0162553D01*
X0227860Y0160954D02*
X0231874Y0160954D01*
X0233281Y0159356D02*
X0226452Y0159356D01*
X0219502Y0159356D02*
X0212673Y0159356D01*
X0212370Y0159053D02*
X0213945Y0160628D01*
X0214798Y0162686D01*
X0214798Y0164914D01*
X0213945Y0166972D01*
X0212370Y0168547D01*
X0210312Y0169400D01*
X0208084Y0169400D01*
X0206025Y0168547D01*
X0204450Y0166972D01*
X0203598Y0164914D01*
X0203598Y0162686D01*
X0204450Y0160628D01*
X0206025Y0159053D01*
X0208084Y0158200D01*
X0210312Y0158200D01*
X0212370Y0159053D01*
X0214080Y0160954D02*
X0218095Y0160954D01*
X0217432Y0162553D02*
X0214742Y0162553D01*
X0214798Y0164151D02*
X0217377Y0164151D01*
X0217723Y0165750D02*
X0214451Y0165750D01*
X0213569Y0167348D02*
X0218606Y0167348D01*
X0220769Y0168947D02*
X0211406Y0168947D01*
X0206989Y0168947D02*
X0197626Y0168947D01*
X0198590Y0168547D02*
X0196532Y0169400D01*
X0194304Y0169400D01*
X0192246Y0168547D01*
X0190671Y0166972D01*
X0189818Y0164914D01*
X0189818Y0162686D01*
X0190671Y0160628D01*
X0192246Y0159053D01*
X0194304Y0158200D01*
X0196532Y0158200D01*
X0198590Y0159053D01*
X0200166Y0160628D01*
X0201018Y0162686D01*
X0201018Y0164914D01*
X0200166Y0166972D01*
X0198590Y0168547D01*
X0199790Y0167348D02*
X0204826Y0167348D01*
X0203944Y0165750D02*
X0200672Y0165750D01*
X0201018Y0164151D02*
X0203598Y0164151D01*
X0203653Y0162553D02*
X0200963Y0162553D01*
X0200301Y0160954D02*
X0204315Y0160954D01*
X0205722Y0159356D02*
X0198893Y0159356D01*
X0191943Y0159356D02*
X0185114Y0159356D01*
X0186521Y0160954D02*
X0190536Y0160954D01*
X0189873Y0162553D02*
X0187183Y0162553D01*
X0187239Y0164151D02*
X0189818Y0164151D01*
X0190164Y0165750D02*
X0186892Y0165750D01*
X0186010Y0167348D02*
X0191047Y0167348D01*
X0193210Y0168947D02*
X0183847Y0168947D01*
X0179430Y0168947D02*
X0170067Y0168947D01*
X0172230Y0167348D02*
X0177267Y0167348D01*
X0176385Y0165750D02*
X0173113Y0165750D01*
X0173459Y0164151D02*
X0176039Y0164151D01*
X0176094Y0162553D02*
X0173404Y0162553D01*
X0172742Y0160954D02*
X0175626Y0160954D01*
X0174027Y0159356D02*
X0171334Y0159356D01*
X0172429Y0157757D02*
X0163585Y0157757D01*
X0161987Y0156159D02*
X0170830Y0156159D01*
X0169232Y0154560D02*
X0160388Y0154560D01*
X0157252Y0159053D02*
X0155193Y0158200D01*
X0152966Y0158200D01*
X0150907Y0159053D01*
X0149332Y0160628D01*
X0148480Y0162686D01*
X0148480Y0164914D01*
X0149332Y0166972D01*
X0150907Y0168547D01*
X0152966Y0169400D01*
X0155193Y0169400D01*
X0157252Y0168547D01*
X0158827Y0166972D01*
X0159680Y0164914D01*
X0159680Y0162686D01*
X0158827Y0160628D01*
X0157252Y0159053D01*
X0157555Y0159356D02*
X0159527Y0159356D01*
X0158962Y0160954D02*
X0161126Y0160954D01*
X0162314Y0162553D02*
X0159624Y0162553D01*
X0159680Y0164151D02*
X0162259Y0164151D01*
X0162605Y0165750D02*
X0159333Y0165750D01*
X0158451Y0167348D02*
X0163488Y0167348D01*
X0165651Y0168947D02*
X0156288Y0168947D01*
X0151871Y0168947D02*
X0145699Y0168947D01*
X0145740Y0168905D02*
X0145405Y0169240D01*
X0144995Y0169477D01*
X0144537Y0169600D01*
X0140681Y0169600D01*
X0140681Y0164181D01*
X0146100Y0164181D01*
X0146100Y0168037D01*
X0145977Y0168495D01*
X0145740Y0168905D01*
X0146100Y0167348D02*
X0149708Y0167348D01*
X0148826Y0165750D02*
X0146100Y0165750D01*
X0146100Y0163419D02*
X0140681Y0163419D01*
X0140681Y0164181D01*
X0139919Y0164181D01*
X0139919Y0163419D01*
X0140681Y0163419D01*
X0140681Y0158000D01*
X0144537Y0158000D01*
X0144995Y0158123D01*
X0145405Y0158360D01*
X0145740Y0158695D01*
X0145977Y0159105D01*
X0146100Y0159563D01*
X0146100Y0163419D01*
X0146100Y0162553D02*
X0148535Y0162553D01*
X0148480Y0164151D02*
X0140681Y0164151D01*
X0139919Y0164151D02*
X0119444Y0164151D01*
X0120028Y0165750D02*
X0134500Y0165750D01*
X0134500Y0164181D02*
X0139919Y0164181D01*
X0139919Y0169600D01*
X0136063Y0169600D01*
X0135605Y0169477D01*
X0135195Y0169240D01*
X0134860Y0168905D01*
X0134623Y0168495D01*
X0134500Y0168037D01*
X0134500Y0164181D01*
X0134500Y0163419D02*
X0134500Y0159563D01*
X0134623Y0159105D01*
X0134860Y0158695D01*
X0135195Y0158360D01*
X0135605Y0158123D01*
X0136063Y0158000D01*
X0139919Y0158000D01*
X0139919Y0163419D01*
X0134500Y0163419D01*
X0134500Y0162553D02*
X0120896Y0162553D01*
X0121559Y0160954D02*
X0134500Y0160954D01*
X0134556Y0159356D02*
X0121600Y0159356D01*
X0121190Y0157757D02*
X0147429Y0157757D01*
X0146044Y0159356D02*
X0150604Y0159356D01*
X0149197Y0160954D02*
X0146100Y0160954D01*
X0140681Y0160954D02*
X0139919Y0160954D01*
X0139919Y0159356D02*
X0140681Y0159356D01*
X0140681Y0162553D02*
X0139919Y0162553D01*
X0139919Y0165750D02*
X0140681Y0165750D01*
X0140681Y0167348D02*
X0139919Y0167348D01*
X0139919Y0168947D02*
X0140681Y0168947D01*
X0134901Y0168947D02*
X0121733Y0168947D01*
X0121751Y0170545D02*
X0374774Y0170545D01*
X0374007Y0168947D02*
X0266990Y0168947D01*
X0268907Y0167348D02*
X0373345Y0167348D01*
X0373300Y0165750D02*
X0269781Y0165750D01*
X0226860Y0124188D02*
X0221910Y0124188D01*
X0223614Y0122590D02*
X0225261Y0122590D01*
X0145830Y0156159D02*
X0120154Y0156159D01*
X0121223Y0167348D02*
X0134500Y0167348D01*
X0121279Y0172144D02*
X0376373Y0172144D01*
X0376985Y0172756D02*
X0376985Y0172756D01*
X0379366Y0173742D02*
X0120136Y0173742D01*
X0116300Y0173742D02*
X0116300Y0173742D01*
X0116300Y0172144D02*
X0116300Y0172144D01*
X0116300Y0170545D02*
X0116300Y0170545D01*
X0366859Y0160954D02*
X0374503Y0160954D01*
X0374594Y0160735D02*
X0374594Y0160735D01*
X0375974Y0159356D02*
X0367375Y0159356D01*
X0367375Y0157757D02*
X0378402Y0157757D01*
X0058300Y0021884D02*
X0057900Y0021884D01*
X0057900Y0020285D02*
X0058300Y0020285D01*
X0058300Y0018687D02*
X0057900Y0018687D01*
X0057900Y0017088D02*
X0058300Y0017088D01*
X0058300Y0015490D02*
X0057900Y0015490D01*
X0057900Y0013891D02*
X0058300Y0013891D01*
D23*
X0084300Y0049800D03*
X0144800Y0062300D03*
X0129800Y0083300D03*
X0107800Y0090300D03*
X0119800Y0099800D03*
X0118800Y0116300D03*
X0164300Y0122800D03*
X0126300Y0136800D03*
X0208300Y0135300D03*
X0222800Y0135800D03*
X0269800Y0137300D03*
X0284300Y0134300D03*
X0300800Y0123800D03*
X0311300Y0118800D03*
X0314800Y0105300D03*
X0289300Y0100800D03*
X0278300Y0097300D03*
X0274300Y0104800D03*
X0257800Y0103800D03*
X0217800Y0097800D03*
X0264800Y0081800D03*
X0277300Y0068300D03*
X0302300Y0081300D03*
X0311300Y0087300D03*
X0341300Y0064300D03*
X0325800Y0056300D03*
X0315800Y0048800D03*
X0327300Y0040800D03*
X0367800Y0042800D03*
X0284800Y0045800D03*
X0223300Y0067300D03*
X0205300Y0057300D03*
X0204300Y0045300D03*
X0189800Y0027300D03*
X0189300Y0011800D03*
X0043300Y0093300D03*
X0341300Y0134800D03*
M02*
