G75*
%MOIN*%
%OFA0B0*%
%FSLAX24Y24*%
%IPPOS*%
%LPD*%
%AMOC8*
5,1,8,0,0,1.08239X$1,22.5*
%
%ADD10C,0.0560*%
%ADD11R,0.1095X0.1095*%
%ADD12R,0.0800X0.0800*%
%ADD13C,0.0800*%
%ADD14OC8,0.0560*%
%ADD15C,0.0640*%
%ADD16C,0.0740*%
%ADD17C,0.1700*%
%ADD18C,0.0660*%
%ADD19C,0.1300*%
%ADD20C,0.0080*%
%ADD21C,0.0320*%
D10*
X020896Y011455D03*
X022796Y011455D03*
D11*
X030121Y015205D03*
X035321Y015205D03*
D12*
X013221Y016205D03*
X017920Y001705D03*
X028943Y001705D03*
X006896Y001705D03*
D13*
X008274Y001705D03*
X009652Y001705D03*
X011030Y001705D03*
X012408Y001705D03*
X013786Y001705D03*
X015164Y001705D03*
X016542Y001705D03*
X019298Y001705D03*
X020676Y001705D03*
X022054Y001705D03*
X023431Y001705D03*
X024809Y001705D03*
X026187Y001705D03*
X027565Y001705D03*
X030321Y001705D03*
X031699Y001705D03*
X033077Y001705D03*
X022867Y016205D03*
X021489Y016205D03*
X020111Y016205D03*
X018733Y016205D03*
X017355Y016205D03*
X015977Y016205D03*
X014599Y016205D03*
D14*
X024721Y015955D03*
X024721Y016955D03*
X028721Y016955D03*
X028721Y015955D03*
X028721Y014955D03*
X028721Y013955D03*
X028721Y012955D03*
X028721Y011955D03*
X024721Y011955D03*
X024721Y012955D03*
X024721Y013955D03*
X024721Y014955D03*
X022103Y009053D03*
X019743Y009053D03*
X019743Y007093D03*
X022103Y007093D03*
D15*
X009221Y015830D03*
X008221Y015830D03*
X007221Y015830D03*
X007221Y016830D03*
X008221Y016830D03*
X009221Y016830D03*
D16*
X010471Y016580D03*
X011471Y016580D03*
X005251Y017095D03*
X002691Y017095D03*
X002691Y015315D03*
X005251Y015315D03*
D17*
X034447Y010280D03*
X036809Y010280D03*
X035628Y012130D03*
D18*
X035346Y005697D03*
X034566Y005697D03*
X034566Y004713D03*
X035346Y004713D03*
D19*
X036416Y002835D03*
X036416Y007575D03*
D20*
X003096Y000985D02*
X002376Y001705D01*
X002376Y006145D01*
X010656Y014425D01*
X010656Y015265D02*
X013056Y012865D01*
X012936Y012565D02*
X012636Y012865D01*
X010116Y015385D01*
X008076Y015385D01*
X007656Y014965D01*
X007656Y014065D01*
X007596Y015325D02*
X005256Y015325D01*
X005251Y015315D01*
X005976Y016345D02*
X005256Y017065D01*
X005251Y017095D01*
X005976Y016345D02*
X008376Y016345D01*
X008856Y015865D01*
X009216Y015865D01*
X009221Y015830D01*
X009276Y015805D01*
X012636Y015805D01*
X014976Y013465D01*
X015276Y014125D02*
X013356Y016045D01*
X013221Y016205D01*
X013236Y016165D01*
X013356Y016045D01*
X010296Y016045D01*
X010056Y016285D01*
X009096Y016285D01*
X008556Y016825D01*
X008256Y016825D01*
X008221Y016830D01*
X008016Y017305D02*
X017616Y017305D01*
X018696Y016225D01*
X018733Y016205D01*
X018516Y015685D02*
X018156Y016045D01*
X018156Y016165D01*
X017196Y017125D01*
X011316Y017125D01*
X010776Y016585D01*
X010476Y016585D01*
X010471Y016580D01*
X008221Y015830D02*
X008196Y015805D01*
X008196Y015505D01*
X008076Y015385D01*
X007596Y016885D02*
X007236Y016885D01*
X007221Y016830D01*
X007596Y016885D02*
X008016Y017305D01*
X015276Y014125D02*
X015276Y010945D01*
X013416Y009085D01*
X013536Y008965D01*
X013416Y009085D02*
X013056Y008725D01*
X010176Y008725D01*
X008496Y007045D01*
X008496Y006145D01*
X008736Y005905D01*
X011616Y005905D01*
X011856Y006265D02*
X009636Y006265D01*
X009396Y006505D01*
X009096Y006805D02*
X011916Y006805D01*
X012216Y006925D02*
X012216Y005365D01*
X012036Y005185D01*
X012036Y002965D01*
X011976Y002605D02*
X012036Y002545D01*
X011976Y002605D02*
X008196Y002605D01*
X007296Y001705D01*
X006896Y001705D01*
X007416Y001585D02*
X007416Y001225D01*
X007176Y000985D01*
X003096Y000985D01*
X003036Y001285D02*
X002556Y001765D01*
X002556Y004585D01*
X011376Y013405D01*
X011616Y013405D01*
X012636Y012385D01*
X012636Y011245D01*
X012816Y011065D01*
X014856Y011065D01*
X014976Y011185D01*
X015936Y011365D02*
X019776Y015205D01*
X023796Y015205D01*
X024696Y014905D02*
X024721Y014955D01*
X024696Y014905D02*
X019896Y014905D01*
X017076Y012085D01*
X015876Y011905D02*
X015876Y013045D01*
X018516Y015685D01*
X019596Y015685D01*
X020076Y016165D01*
X020111Y016205D01*
X017355Y016205D02*
X017316Y016165D01*
X015576Y014425D01*
X015576Y010585D01*
X013176Y008185D01*
X012636Y008185D01*
X012516Y007885D02*
X012336Y008065D01*
X011796Y008065D01*
X011556Y007825D01*
X009696Y007825D01*
X008796Y006925D01*
X008796Y006265D01*
X006876Y007645D02*
X005916Y006685D01*
X006876Y007645D02*
X008256Y007645D01*
X009396Y008365D02*
X009576Y008365D01*
X010236Y009025D01*
X011676Y009025D01*
X013296Y009385D02*
X014316Y010405D01*
X013716Y010585D02*
X010176Y010585D01*
X009096Y009505D01*
X009096Y008665D01*
X009396Y008365D02*
X003636Y002605D01*
X003876Y002365D01*
X003876Y002065D01*
X003636Y001885D02*
X003756Y001765D01*
X004176Y001765D01*
X005256Y002845D01*
X003636Y002605D02*
X003096Y003145D01*
X002796Y003985D02*
X002796Y001945D01*
X002856Y001885D01*
X003636Y001885D01*
X003396Y001585D02*
X005796Y001585D01*
X007956Y003745D01*
X008256Y002425D02*
X007416Y001585D01*
X008274Y001705D02*
X008316Y001705D01*
X008856Y002245D01*
X009876Y002245D01*
X010416Y001705D01*
X011030Y001705D01*
X011076Y001705D01*
X011616Y001165D01*
X012936Y001165D01*
X013476Y001705D01*
X013786Y001705D01*
X014376Y001705D01*
X014916Y002245D01*
X015996Y002245D01*
X018396Y002245D01*
X018936Y001705D01*
X019298Y001705D01*
X020136Y001645D02*
X020136Y001465D01*
X020436Y001165D01*
X022836Y001165D01*
X023376Y001705D01*
X023431Y001705D01*
X024756Y001705D02*
X024809Y001705D01*
X024756Y001705D02*
X024756Y004405D01*
X024336Y004825D01*
X024996Y004825D01*
X024336Y004825D02*
X022116Y007045D01*
X022103Y007093D01*
X021696Y007465D02*
X021696Y002725D01*
X020676Y001705D01*
X020676Y001705D01*
X020616Y001705D01*
X017796Y004525D01*
X014616Y004525D01*
X013896Y004825D02*
X013056Y003985D01*
X012756Y003865D02*
X013476Y003145D01*
X018216Y003145D01*
X017496Y003565D02*
X016116Y003565D01*
X016956Y003865D02*
X017916Y003865D01*
X020136Y001645D01*
X017916Y000865D02*
X024756Y000865D01*
X025656Y001765D01*
X025656Y006085D01*
X026436Y006865D01*
X025836Y007465D01*
X024396Y007465D01*
X023736Y007765D02*
X025296Y007765D01*
X025716Y007165D02*
X022656Y007165D01*
X022056Y007765D01*
X020556Y007765D01*
X020856Y007405D02*
X020856Y007225D01*
X018696Y005065D01*
X018096Y005065D01*
X018096Y004645D01*
X017796Y004945D02*
X016476Y006265D01*
X016356Y006565D02*
X016176Y006385D01*
X016176Y005725D01*
X016476Y005425D01*
X016776Y005305D02*
X016296Y004825D01*
X015576Y004825D01*
X013896Y004825D01*
X014256Y005245D02*
X013956Y005545D01*
X013656Y005845D02*
X014076Y006265D01*
X015396Y006265D01*
X015576Y006445D01*
X015576Y006625D01*
X016176Y007225D01*
X016596Y007225D01*
X016956Y006865D01*
X017736Y006865D01*
X018276Y007405D01*
X018276Y005485D01*
X018696Y005485D02*
X018696Y007405D01*
X018276Y007405D02*
X018936Y008065D01*
X022536Y008065D01*
X023136Y008365D02*
X023736Y007765D01*
X023496Y008425D02*
X021996Y009925D01*
X022656Y010285D02*
X020316Y012625D01*
X019476Y012625D01*
X019356Y012505D01*
X018756Y012505D01*
X015276Y009025D01*
X015276Y007165D01*
X015156Y006865D02*
X014256Y007765D01*
X014256Y007885D01*
X013656Y007885D02*
X012516Y007885D01*
X011916Y007765D02*
X011916Y007225D01*
X012216Y006925D01*
X013296Y006385D02*
X013296Y006205D01*
X012336Y005245D01*
X012336Y002425D01*
X012156Y002245D01*
X010116Y002245D01*
X009936Y002425D01*
X008256Y002425D01*
X004296Y001285D02*
X003036Y001285D01*
X003276Y000565D02*
X002196Y001645D01*
X002196Y006205D01*
X002496Y006505D01*
X002496Y006685D01*
X002796Y003985D02*
X011496Y012685D01*
X011496Y013105D02*
X008616Y010225D01*
X009396Y009385D02*
X013296Y009385D01*
X013956Y008725D02*
X015936Y010705D01*
X015936Y011365D01*
X016236Y010825D02*
X019896Y014485D01*
X036936Y014485D01*
X037836Y013585D01*
X037836Y005725D01*
X035736Y003625D01*
X032916Y003625D01*
X032436Y004105D01*
X032196Y004105D01*
X030696Y002605D01*
X030636Y002245D02*
X032496Y002245D01*
X033036Y001705D01*
X033077Y001705D01*
X033876Y001645D02*
X032316Y003205D01*
X032316Y003805D01*
X032016Y004165D02*
X031116Y004165D01*
X030516Y003865D02*
X030036Y004345D01*
X030036Y004585D01*
X032196Y006745D01*
X032676Y006745D01*
X032736Y007045D02*
X032256Y007045D01*
X029736Y004525D01*
X029556Y004525D01*
X029256Y004525D02*
X029256Y004645D01*
X031596Y006985D01*
X031596Y008605D01*
X031176Y008425D02*
X031176Y007585D01*
X028416Y004825D01*
X028296Y004525D02*
X028116Y004705D01*
X028116Y005185D01*
X026436Y006865D01*
X026196Y006205D02*
X026196Y002485D01*
X027036Y001645D01*
X027036Y001465D01*
X027336Y001165D01*
X028356Y001165D01*
X028896Y001705D01*
X028943Y001705D01*
X029376Y002245D02*
X029496Y002125D01*
X029496Y001285D01*
X028776Y000565D01*
X003276Y000565D01*
X012576Y002305D02*
X013116Y001765D01*
X012576Y002305D02*
X012576Y005245D01*
X013896Y006565D01*
X015276Y006565D01*
X015156Y006865D02*
X015396Y006865D01*
X016056Y007525D01*
X016236Y007525D01*
X016236Y008845D01*
X018396Y011005D01*
X021336Y011005D01*
X023016Y009325D01*
X024936Y011245D01*
X030456Y011245D01*
X028236Y010945D02*
X032676Y010945D01*
X032916Y011185D01*
X032916Y007225D01*
X032736Y007045D01*
X032616Y007345D02*
X032616Y008005D01*
X031296Y009325D01*
X024576Y009325D01*
X024156Y009325D02*
X024636Y009805D01*
X025176Y009805D01*
X024156Y009325D02*
X023436Y009325D01*
X023016Y009325D02*
X023436Y008905D01*
X023136Y008365D02*
X018996Y008365D01*
X018456Y007825D01*
X016536Y007825D01*
X016716Y007525D02*
X016236Y007525D01*
X016716Y007525D02*
X017076Y007165D01*
X017496Y007165D01*
X016596Y006565D02*
X016356Y006565D01*
X016596Y006565D02*
X018096Y005065D01*
X016776Y005305D02*
X016776Y005545D01*
X016476Y005845D01*
X015456Y006085D02*
X015156Y006085D01*
X014616Y005545D01*
X014736Y005245D02*
X015276Y005785D01*
X015456Y006085D02*
X016296Y006925D01*
X013956Y007345D02*
X013956Y008725D01*
X016596Y008605D02*
X019296Y008605D01*
X019716Y009025D01*
X019743Y009053D01*
X022656Y010285D02*
X023556Y010285D01*
X022796Y011455D02*
X022776Y011485D01*
X021456Y012805D01*
X019236Y012805D01*
X018936Y013105D02*
X017076Y011245D01*
X018396Y011005D02*
X019716Y012325D01*
X018936Y013105D02*
X021396Y013105D01*
X021996Y012505D01*
X024756Y012505D01*
X025176Y012085D01*
X025776Y012085D01*
X025716Y011545D02*
X027576Y013405D01*
X029016Y013405D01*
X026196Y013405D02*
X023376Y013405D01*
X023196Y013225D01*
X022476Y012925D02*
X022356Y012805D01*
X022476Y012925D02*
X024696Y012925D01*
X024721Y012955D01*
X027336Y011065D02*
X026436Y010165D01*
X027996Y010765D02*
X029136Y009625D01*
X028836Y009025D02*
X028836Y005905D01*
X031716Y005545D02*
X032496Y004765D01*
X033876Y004765D01*
X034296Y004465D02*
X034536Y004705D01*
X034566Y004713D01*
X034296Y004465D02*
X030336Y004465D01*
X029256Y004525D02*
X028296Y004525D01*
X029256Y004525D02*
X029256Y003625D01*
X030636Y002245D01*
X030336Y001705D02*
X030321Y001705D01*
X030336Y001705D02*
X031536Y000505D01*
X035736Y000505D01*
X036216Y000505D02*
X035076Y001645D01*
X033876Y001645D01*
X033996Y001945D02*
X036096Y001945D01*
X035616Y003925D02*
X035616Y004345D01*
X035796Y004525D01*
X035796Y006085D01*
X035376Y005725D02*
X035346Y005697D01*
X035376Y005725D02*
X035376Y008845D01*
X036756Y010225D01*
X036809Y010280D01*
X036756Y011845D02*
X035196Y010285D01*
X034476Y010285D01*
X034447Y010280D01*
X032916Y011185D02*
X034836Y013105D01*
X036516Y013105D01*
X037176Y012445D01*
X037476Y012445D01*
X036756Y012445D02*
X036756Y011845D01*
X035496Y014185D02*
X034056Y012745D01*
X034536Y013645D02*
X033096Y012205D01*
X035496Y014185D02*
X036816Y014185D01*
X028236Y010945D02*
X028116Y011065D01*
X027336Y011065D01*
X021276Y007405D02*
X021276Y003265D01*
X016542Y001705D02*
X016536Y001705D01*
X015996Y002245D01*
X012756Y003865D02*
X012756Y004105D01*
X013296Y004645D01*
X013296Y005545D01*
X014256Y005245D02*
X014736Y005245D01*
X022116Y005725D02*
X022116Y006565D01*
X012456Y010285D02*
X011436Y010285D01*
X010956Y009805D01*
X012936Y011365D02*
X012936Y012565D01*
X032016Y004165D02*
X032136Y004285D01*
X034356Y004285D01*
X034416Y004225D01*
X034836Y004225D01*
X035316Y004705D01*
X035346Y004713D01*
X029376Y002245D02*
X028116Y002245D01*
X027576Y001705D01*
X027565Y001705D01*
D21*
X030696Y002605D03*
X030516Y003865D03*
X031116Y004165D03*
X030336Y004465D03*
X029556Y004525D03*
X028416Y004825D03*
X028836Y005905D03*
X026196Y006205D03*
X025716Y007165D03*
X025296Y007765D03*
X024396Y007465D03*
X023496Y008425D03*
X023436Y008905D03*
X023436Y009325D03*
X024576Y009325D03*
X025176Y009805D03*
X026436Y010165D03*
X027996Y010765D03*
X029136Y009625D03*
X028836Y009025D03*
X031176Y008425D03*
X031596Y008605D03*
X032616Y007345D03*
X032676Y006745D03*
X031716Y005545D03*
X033876Y004765D03*
X032316Y003805D03*
X035616Y003925D03*
X036096Y001945D03*
X033996Y001945D03*
X035736Y000505D03*
X036216Y000505D03*
X024996Y004825D03*
X022116Y005725D03*
X022116Y006565D03*
X021276Y007405D03*
X020856Y007405D03*
X020556Y007765D03*
X021696Y007465D03*
X022536Y008065D03*
X018696Y007405D03*
X017496Y007165D03*
X016596Y007225D03*
X016296Y006925D03*
X015276Y007165D03*
X015276Y006565D03*
X016476Y006265D03*
X016476Y005845D03*
X016476Y005425D03*
X015576Y004825D03*
X014616Y004525D03*
X013056Y003985D03*
X012036Y002965D03*
X012036Y002545D03*
X013116Y001765D03*
X016116Y003565D03*
X016956Y003865D03*
X017496Y003565D03*
X018216Y003145D03*
X021276Y003265D03*
X018096Y004645D03*
X017796Y004945D03*
X018276Y005485D03*
X018696Y005485D03*
X015276Y005785D03*
X014616Y005545D03*
X013956Y005545D03*
X013656Y005845D03*
X013296Y005545D03*
X011856Y006265D03*
X011616Y005905D03*
X013296Y006385D03*
X011916Y006805D03*
X011916Y007765D03*
X012636Y008185D03*
X013656Y007885D03*
X014256Y007885D03*
X013956Y007345D03*
X016536Y007825D03*
X016596Y008605D03*
X013536Y008965D03*
X011676Y009025D03*
X010956Y009805D03*
X012456Y010285D03*
X013716Y010585D03*
X014316Y010405D03*
X014976Y011185D03*
X016236Y010825D03*
X017076Y011245D03*
X015876Y011905D03*
X017076Y012085D03*
X018756Y012505D03*
X019236Y012805D03*
X019716Y012325D03*
X022356Y012805D03*
X023196Y013225D03*
X025776Y012085D03*
X025716Y011545D03*
X023556Y010285D03*
X021996Y009925D03*
X026196Y013405D03*
X029016Y013405D03*
X033096Y012205D03*
X034056Y012745D03*
X034536Y013645D03*
X036816Y014185D03*
X036756Y012445D03*
X037476Y012445D03*
X030456Y011245D03*
X023796Y015205D03*
X014976Y013465D03*
X013056Y012865D03*
X012636Y012865D03*
X011496Y012685D03*
X011496Y013105D03*
X010656Y014425D03*
X010656Y015265D03*
X007596Y015325D03*
X007656Y014065D03*
X012936Y011365D03*
X008616Y010225D03*
X009396Y009385D03*
X009096Y008665D03*
X009396Y008365D03*
X009696Y007825D03*
X008256Y007645D03*
X009096Y006805D03*
X009396Y006505D03*
X008796Y006265D03*
X005916Y006685D03*
X002496Y006685D03*
X007956Y003745D03*
X005256Y002845D03*
X003876Y002065D03*
X002856Y001885D03*
X003396Y001585D03*
X004296Y001285D03*
X003096Y003145D03*
X017916Y000865D03*
X035796Y006085D03*
M02*
