G75*
%MOIN*%
%OFA0B0*%
%FSLAX24Y24*%
%IPPOS*%
%LPD*%
%AMOC8*
5,1,8,0,0,1.08239X$1,22.5*
%
%ADD10C,0.0000*%
%ADD11C,0.0560*%
%ADD12R,0.0433X0.0394*%
%ADD13R,0.0315X0.0472*%
%ADD14R,0.0260X0.0800*%
%ADD15R,0.0472X0.0217*%
%ADD16R,0.1102X0.0787*%
%ADD17R,0.1575X0.0276*%
%ADD18R,0.1575X0.0472*%
%ADD19R,0.1095X0.1095*%
%ADD20R,0.1560X0.1560*%
%ADD21R,0.0394X0.0433*%
%ADD22OC8,0.0560*%
%ADD23C,0.0640*%
%ADD24C,0.0740*%
%ADD25C,0.1700*%
%ADD26R,0.0394X0.0551*%
%ADD27R,0.0480X0.0245*%
%ADD28C,0.0660*%
%ADD29C,0.1300*%
%ADD30R,0.0800X0.0800*%
%ADD31C,0.0800*%
%ADD32R,0.0160X0.0320*%
%ADD33R,0.0551X0.0630*%
%ADD34R,0.0315X0.0315*%
%ADD35R,0.0276X0.0276*%
%ADD36R,0.0256X0.0197*%
%ADD37R,0.0140X0.0240*%
%ADD38R,0.0630X0.0390*%
%ADD39R,0.0210X0.0780*%
%ADD40R,0.0098X0.0394*%
%ADD41R,0.0394X0.0098*%
%ADD42R,0.0787X0.0787*%
%ADD43R,0.0630X0.0551*%
%ADD44R,0.0320X0.0120*%
%ADD45R,0.0120X0.0320*%
%ADD46R,0.1280X0.1280*%
%ADD47C,0.0080*%
%ADD48C,0.0320*%
%ADD49C,0.0160*%
%ADD50OC8,0.0320*%
D10*
X001555Y000430D02*
X038255Y000430D01*
X038321Y000432D01*
X038387Y000437D01*
X038452Y000447D01*
X038516Y000459D01*
X038580Y000476D01*
X038643Y000496D01*
X038705Y000519D01*
X038765Y000546D01*
X038823Y000577D01*
X038880Y000610D01*
X038935Y000647D01*
X038988Y000686D01*
X039038Y000729D01*
X039086Y000774D01*
X039131Y000822D01*
X039174Y000872D01*
X039213Y000925D01*
X039250Y000980D01*
X039283Y001037D01*
X039314Y001095D01*
X039341Y001155D01*
X039364Y001217D01*
X039384Y001280D01*
X039401Y001344D01*
X039413Y001408D01*
X039423Y001473D01*
X039428Y001539D01*
X039430Y001605D01*
X039430Y016696D01*
X039429Y016696D02*
X039424Y016761D01*
X039415Y016826D01*
X039402Y016890D01*
X039386Y016953D01*
X039366Y017016D01*
X039343Y017077D01*
X039317Y017137D01*
X039287Y017195D01*
X039254Y017252D01*
X039217Y017306D01*
X039178Y017359D01*
X039136Y017409D01*
X039091Y017457D01*
X039044Y017502D01*
X038994Y017544D01*
X038941Y017584D01*
X038887Y017620D01*
X038831Y017654D01*
X038772Y017684D01*
X038713Y017711D01*
X038652Y017734D01*
X038589Y017755D01*
X038526Y017771D01*
X038462Y017784D01*
X038397Y017793D01*
X038331Y017799D01*
X038266Y017801D01*
X038200Y017799D01*
X038201Y017800D02*
X001580Y017800D01*
X001513Y017798D01*
X001447Y017792D01*
X001381Y017783D01*
X001316Y017769D01*
X001251Y017752D01*
X001188Y017731D01*
X001126Y017706D01*
X001066Y017678D01*
X001007Y017646D01*
X000950Y017611D01*
X000896Y017573D01*
X000843Y017532D01*
X000794Y017488D01*
X000746Y017440D01*
X000702Y017391D01*
X000661Y017338D01*
X000623Y017284D01*
X000588Y017227D01*
X000556Y017168D01*
X000528Y017108D01*
X000503Y017046D01*
X000482Y016983D01*
X000465Y016918D01*
X000451Y016853D01*
X000442Y016787D01*
X000436Y016721D01*
X000434Y016654D01*
X000434Y001551D01*
X000436Y001486D01*
X000442Y001421D01*
X000451Y001356D01*
X000464Y001292D01*
X000481Y001229D01*
X000502Y001168D01*
X000526Y001107D01*
X000553Y001048D01*
X000584Y000991D01*
X000618Y000935D01*
X000656Y000882D01*
X000696Y000830D01*
X000740Y000782D01*
X000786Y000736D01*
X000834Y000692D01*
X000886Y000652D01*
X000939Y000614D01*
X000994Y000580D01*
X001052Y000549D01*
X001111Y000522D01*
X001172Y000498D01*
X001233Y000477D01*
X001296Y000460D01*
X001360Y000447D01*
X001425Y000438D01*
X001490Y000432D01*
X001555Y000430D01*
X001030Y001680D02*
X001032Y001730D01*
X001038Y001780D01*
X001048Y001830D01*
X001061Y001878D01*
X001078Y001926D01*
X001099Y001972D01*
X001123Y002016D01*
X001151Y002058D01*
X001182Y002098D01*
X001216Y002135D01*
X001253Y002170D01*
X001292Y002201D01*
X001333Y002230D01*
X001377Y002255D01*
X001423Y002277D01*
X001470Y002295D01*
X001518Y002309D01*
X001567Y002320D01*
X001617Y002327D01*
X001667Y002330D01*
X001718Y002329D01*
X001768Y002324D01*
X001818Y002315D01*
X001866Y002303D01*
X001914Y002286D01*
X001960Y002266D01*
X002005Y002243D01*
X002048Y002216D01*
X002088Y002186D01*
X002126Y002153D01*
X002161Y002117D01*
X002194Y002078D01*
X002223Y002037D01*
X002249Y001994D01*
X002272Y001949D01*
X002291Y001902D01*
X002306Y001854D01*
X002318Y001805D01*
X002326Y001755D01*
X002330Y001705D01*
X002330Y001655D01*
X002326Y001605D01*
X002318Y001555D01*
X002306Y001506D01*
X002291Y001458D01*
X002272Y001411D01*
X002249Y001366D01*
X002223Y001323D01*
X002194Y001282D01*
X002161Y001243D01*
X002126Y001207D01*
X002088Y001174D01*
X002048Y001144D01*
X002005Y001117D01*
X001960Y001094D01*
X001914Y001074D01*
X001866Y001057D01*
X001818Y001045D01*
X001768Y001036D01*
X001718Y001031D01*
X001667Y001030D01*
X001617Y001033D01*
X001567Y001040D01*
X001518Y001051D01*
X001470Y001065D01*
X001423Y001083D01*
X001377Y001105D01*
X001333Y001130D01*
X001292Y001159D01*
X001253Y001190D01*
X001216Y001225D01*
X001182Y001262D01*
X001151Y001302D01*
X001123Y001344D01*
X001099Y001388D01*
X001078Y001434D01*
X001061Y001482D01*
X001048Y001530D01*
X001038Y001580D01*
X001032Y001630D01*
X001030Y001680D01*
X009288Y005590D02*
X009290Y005625D01*
X009296Y005660D01*
X009306Y005694D01*
X009319Y005727D01*
X009336Y005758D01*
X009357Y005786D01*
X009380Y005813D01*
X009407Y005836D01*
X009435Y005857D01*
X009466Y005874D01*
X009499Y005887D01*
X009533Y005897D01*
X009568Y005903D01*
X009603Y005905D01*
X009638Y005903D01*
X009673Y005897D01*
X009707Y005887D01*
X009740Y005874D01*
X009771Y005857D01*
X009799Y005836D01*
X009826Y005813D01*
X009849Y005786D01*
X009870Y005758D01*
X009887Y005727D01*
X009900Y005694D01*
X009910Y005660D01*
X009916Y005625D01*
X009918Y005590D01*
X009916Y005555D01*
X009910Y005520D01*
X009900Y005486D01*
X009887Y005453D01*
X009870Y005422D01*
X009849Y005394D01*
X009826Y005367D01*
X009799Y005344D01*
X009771Y005323D01*
X009740Y005306D01*
X009707Y005293D01*
X009673Y005283D01*
X009638Y005277D01*
X009603Y005275D01*
X009568Y005277D01*
X009533Y005283D01*
X009499Y005293D01*
X009466Y005306D01*
X009435Y005323D01*
X009407Y005344D01*
X009380Y005367D01*
X009357Y005394D01*
X009336Y005422D01*
X009319Y005453D01*
X009306Y005486D01*
X009296Y005520D01*
X009290Y005555D01*
X009288Y005590D01*
X009386Y013897D02*
X009388Y013926D01*
X009394Y013954D01*
X009403Y013982D01*
X009416Y014008D01*
X009433Y014031D01*
X009452Y014053D01*
X009474Y014072D01*
X009499Y014087D01*
X009525Y014100D01*
X009553Y014108D01*
X009581Y014113D01*
X009610Y014114D01*
X009639Y014111D01*
X009667Y014104D01*
X009694Y014094D01*
X009720Y014080D01*
X009743Y014063D01*
X009764Y014043D01*
X009782Y014020D01*
X009797Y013995D01*
X009808Y013968D01*
X009816Y013940D01*
X009820Y013911D01*
X009820Y013883D01*
X009816Y013854D01*
X009808Y013826D01*
X009797Y013799D01*
X009782Y013774D01*
X009764Y013751D01*
X009743Y013731D01*
X009720Y013714D01*
X009694Y013700D01*
X009667Y013690D01*
X009639Y013683D01*
X009610Y013680D01*
X009581Y013681D01*
X009553Y013686D01*
X009525Y013694D01*
X009499Y013707D01*
X009474Y013722D01*
X009452Y013741D01*
X009433Y013763D01*
X009416Y013786D01*
X009403Y013812D01*
X009394Y013840D01*
X009388Y013868D01*
X009386Y013897D01*
X001030Y016555D02*
X001032Y016605D01*
X001038Y016655D01*
X001048Y016705D01*
X001061Y016753D01*
X001078Y016801D01*
X001099Y016847D01*
X001123Y016891D01*
X001151Y016933D01*
X001182Y016973D01*
X001216Y017010D01*
X001253Y017045D01*
X001292Y017076D01*
X001333Y017105D01*
X001377Y017130D01*
X001423Y017152D01*
X001470Y017170D01*
X001518Y017184D01*
X001567Y017195D01*
X001617Y017202D01*
X001667Y017205D01*
X001718Y017204D01*
X001768Y017199D01*
X001818Y017190D01*
X001866Y017178D01*
X001914Y017161D01*
X001960Y017141D01*
X002005Y017118D01*
X002048Y017091D01*
X002088Y017061D01*
X002126Y017028D01*
X002161Y016992D01*
X002194Y016953D01*
X002223Y016912D01*
X002249Y016869D01*
X002272Y016824D01*
X002291Y016777D01*
X002306Y016729D01*
X002318Y016680D01*
X002326Y016630D01*
X002330Y016580D01*
X002330Y016530D01*
X002326Y016480D01*
X002318Y016430D01*
X002306Y016381D01*
X002291Y016333D01*
X002272Y016286D01*
X002249Y016241D01*
X002223Y016198D01*
X002194Y016157D01*
X002161Y016118D01*
X002126Y016082D01*
X002088Y016049D01*
X002048Y016019D01*
X002005Y015992D01*
X001960Y015969D01*
X001914Y015949D01*
X001866Y015932D01*
X001818Y015920D01*
X001768Y015911D01*
X001718Y015906D01*
X001667Y015905D01*
X001617Y015908D01*
X001567Y015915D01*
X001518Y015926D01*
X001470Y015940D01*
X001423Y015958D01*
X001377Y015980D01*
X001333Y016005D01*
X001292Y016034D01*
X001253Y016065D01*
X001216Y016100D01*
X001182Y016137D01*
X001151Y016177D01*
X001123Y016219D01*
X001099Y016263D01*
X001078Y016309D01*
X001061Y016357D01*
X001048Y016405D01*
X001038Y016455D01*
X001032Y016505D01*
X001030Y016555D01*
X037530Y016555D02*
X037532Y016605D01*
X037538Y016655D01*
X037548Y016705D01*
X037561Y016753D01*
X037578Y016801D01*
X037599Y016847D01*
X037623Y016891D01*
X037651Y016933D01*
X037682Y016973D01*
X037716Y017010D01*
X037753Y017045D01*
X037792Y017076D01*
X037833Y017105D01*
X037877Y017130D01*
X037923Y017152D01*
X037970Y017170D01*
X038018Y017184D01*
X038067Y017195D01*
X038117Y017202D01*
X038167Y017205D01*
X038218Y017204D01*
X038268Y017199D01*
X038318Y017190D01*
X038366Y017178D01*
X038414Y017161D01*
X038460Y017141D01*
X038505Y017118D01*
X038548Y017091D01*
X038588Y017061D01*
X038626Y017028D01*
X038661Y016992D01*
X038694Y016953D01*
X038723Y016912D01*
X038749Y016869D01*
X038772Y016824D01*
X038791Y016777D01*
X038806Y016729D01*
X038818Y016680D01*
X038826Y016630D01*
X038830Y016580D01*
X038830Y016530D01*
X038826Y016480D01*
X038818Y016430D01*
X038806Y016381D01*
X038791Y016333D01*
X038772Y016286D01*
X038749Y016241D01*
X038723Y016198D01*
X038694Y016157D01*
X038661Y016118D01*
X038626Y016082D01*
X038588Y016049D01*
X038548Y016019D01*
X038505Y015992D01*
X038460Y015969D01*
X038414Y015949D01*
X038366Y015932D01*
X038318Y015920D01*
X038268Y015911D01*
X038218Y015906D01*
X038167Y015905D01*
X038117Y015908D01*
X038067Y015915D01*
X038018Y015926D01*
X037970Y015940D01*
X037923Y015958D01*
X037877Y015980D01*
X037833Y016005D01*
X037792Y016034D01*
X037753Y016065D01*
X037716Y016100D01*
X037682Y016137D01*
X037651Y016177D01*
X037623Y016219D01*
X037599Y016263D01*
X037578Y016309D01*
X037561Y016357D01*
X037548Y016405D01*
X037538Y016455D01*
X037532Y016505D01*
X037530Y016555D01*
X037530Y001680D02*
X037532Y001730D01*
X037538Y001780D01*
X037548Y001830D01*
X037561Y001878D01*
X037578Y001926D01*
X037599Y001972D01*
X037623Y002016D01*
X037651Y002058D01*
X037682Y002098D01*
X037716Y002135D01*
X037753Y002170D01*
X037792Y002201D01*
X037833Y002230D01*
X037877Y002255D01*
X037923Y002277D01*
X037970Y002295D01*
X038018Y002309D01*
X038067Y002320D01*
X038117Y002327D01*
X038167Y002330D01*
X038218Y002329D01*
X038268Y002324D01*
X038318Y002315D01*
X038366Y002303D01*
X038414Y002286D01*
X038460Y002266D01*
X038505Y002243D01*
X038548Y002216D01*
X038588Y002186D01*
X038626Y002153D01*
X038661Y002117D01*
X038694Y002078D01*
X038723Y002037D01*
X038749Y001994D01*
X038772Y001949D01*
X038791Y001902D01*
X038806Y001854D01*
X038818Y001805D01*
X038826Y001755D01*
X038830Y001705D01*
X038830Y001655D01*
X038826Y001605D01*
X038818Y001555D01*
X038806Y001506D01*
X038791Y001458D01*
X038772Y001411D01*
X038749Y001366D01*
X038723Y001323D01*
X038694Y001282D01*
X038661Y001243D01*
X038626Y001207D01*
X038588Y001174D01*
X038548Y001144D01*
X038505Y001117D01*
X038460Y001094D01*
X038414Y001074D01*
X038366Y001057D01*
X038318Y001045D01*
X038268Y001036D01*
X038218Y001031D01*
X038167Y001030D01*
X038117Y001033D01*
X038067Y001040D01*
X038018Y001051D01*
X037970Y001065D01*
X037923Y001083D01*
X037877Y001105D01*
X037833Y001130D01*
X037792Y001159D01*
X037753Y001190D01*
X037716Y001225D01*
X037682Y001262D01*
X037651Y001302D01*
X037623Y001344D01*
X037599Y001388D01*
X037578Y001434D01*
X037561Y001482D01*
X037548Y001530D01*
X037538Y001580D01*
X037532Y001630D01*
X037530Y001680D01*
D11*
X023880Y012030D03*
X021980Y012030D03*
D12*
X021995Y010480D03*
X022665Y010480D03*
X023195Y010480D03*
X023865Y010480D03*
X025995Y010630D03*
X026665Y010630D03*
X027695Y010080D03*
X028365Y010080D03*
X032345Y010430D03*
X033015Y010430D03*
X030430Y012295D03*
X029630Y012295D03*
X029630Y012965D03*
X030430Y012965D03*
X027065Y012830D03*
X026395Y012830D03*
X028145Y014930D03*
X028815Y014930D03*
X036780Y014315D03*
X036780Y013645D03*
X037745Y013030D03*
X038415Y013030D03*
X033665Y006830D03*
X032995Y006830D03*
X032995Y005230D03*
X033665Y005230D03*
X027665Y006180D03*
X026995Y006180D03*
X026315Y005630D03*
X025645Y005630D03*
X017565Y012130D03*
X016895Y012130D03*
D13*
X017576Y010930D03*
X018284Y010930D03*
D14*
X015880Y010520D03*
X015380Y010520D03*
X014880Y010520D03*
X014380Y010520D03*
X013880Y010520D03*
X013380Y010520D03*
X012880Y010520D03*
X012380Y010520D03*
X012380Y012940D03*
X012880Y012940D03*
X013380Y012940D03*
X013880Y012940D03*
X014380Y012940D03*
X014880Y012940D03*
X015380Y012940D03*
X015880Y012940D03*
D15*
X025318Y013706D03*
X025318Y014080D03*
X025318Y014454D03*
X026342Y014454D03*
X026342Y013706D03*
X027983Y013850D03*
X027983Y013476D03*
X029007Y013476D03*
X029007Y014224D03*
X027983Y014224D03*
D16*
X010036Y014802D03*
X001847Y014763D03*
X010076Y004724D03*
X001847Y003779D03*
D17*
X010784Y013149D03*
X010784Y013661D03*
X010784Y014133D03*
D18*
X010784Y012519D03*
X010784Y011535D03*
X010784Y010550D03*
X010784Y009566D03*
X010784Y008582D03*
X010784Y007598D03*
X010784Y006613D03*
X010784Y005629D03*
D19*
X030830Y015430D03*
X036030Y015430D03*
D20*
X033430Y015430D03*
D21*
X029730Y014265D03*
X029730Y013595D03*
X027080Y013745D03*
X027080Y014415D03*
X025630Y015245D03*
X025630Y015915D03*
X027730Y012015D03*
X027730Y011345D03*
X032995Y007630D03*
X033665Y007630D03*
X033665Y006030D03*
X032995Y006030D03*
X029730Y006745D03*
X029730Y007415D03*
X025065Y005630D03*
X024395Y005630D03*
X023130Y005495D03*
X023130Y006165D03*
X012065Y014930D03*
X011395Y014930D03*
D22*
X012430Y009030D03*
X013430Y009030D03*
X014430Y009030D03*
X015430Y009030D03*
X016430Y009030D03*
X017430Y009030D03*
X017430Y005030D03*
X016430Y005030D03*
X015430Y005030D03*
X014430Y005030D03*
X013430Y005030D03*
X012430Y005030D03*
D23*
X009680Y016030D03*
X008680Y016030D03*
X007680Y016030D03*
X007680Y017030D03*
X008680Y017030D03*
X009680Y017030D03*
D24*
X011630Y016980D03*
X011630Y015980D03*
X006360Y015190D03*
X003800Y015190D03*
X003800Y016970D03*
X006360Y016970D03*
X005810Y003570D03*
X003250Y003570D03*
X003250Y001790D03*
X005810Y001790D03*
D25*
X034781Y010505D03*
X037143Y010505D03*
X035962Y012355D03*
D26*
X033804Y012163D03*
X033056Y012163D03*
X032404Y012163D03*
X031656Y012163D03*
X030454Y011563D03*
X029706Y011563D03*
X030080Y010697D03*
X032030Y011297D03*
X033430Y011297D03*
X020054Y011897D03*
X019306Y011897D03*
X019680Y012763D03*
D27*
X037664Y014006D03*
X037664Y014380D03*
X037664Y014754D03*
X038696Y014754D03*
X038696Y014380D03*
X038696Y014006D03*
D28*
X035680Y005922D03*
X034900Y005922D03*
X034900Y004938D03*
X035680Y004938D03*
D29*
X036750Y003060D03*
X036750Y007800D03*
D30*
X029277Y001930D03*
X018254Y001930D03*
X007230Y001930D03*
X014030Y016380D03*
D31*
X015408Y016380D03*
X016786Y016380D03*
X018164Y016380D03*
X019542Y016380D03*
X020920Y016380D03*
X022298Y016380D03*
X023676Y016380D03*
X023765Y001930D03*
X025143Y001930D03*
X026521Y001930D03*
X027899Y001930D03*
X030655Y001930D03*
X032033Y001930D03*
X033411Y001930D03*
X022387Y001930D03*
X021010Y001930D03*
X019632Y001930D03*
X016876Y001930D03*
X015498Y001930D03*
X014120Y001930D03*
X012742Y001930D03*
X011364Y001930D03*
X009986Y001930D03*
X008608Y001930D03*
D32*
X012458Y006676D03*
X012773Y006676D03*
X013087Y006676D03*
X013402Y006676D03*
X013402Y007384D03*
X013087Y007384D03*
X012773Y007384D03*
X012458Y007384D03*
X015458Y007384D03*
X015773Y007384D03*
X016087Y007384D03*
X016402Y007384D03*
X016402Y006676D03*
X016087Y006676D03*
X015773Y006676D03*
X015458Y006676D03*
D33*
X032479Y009030D03*
X033581Y009030D03*
D34*
X036030Y001925D03*
X036730Y001925D03*
X036730Y001335D03*
X036030Y001335D03*
D35*
X029930Y004966D03*
X028730Y004966D03*
X028474Y005694D03*
X028986Y005694D03*
X029674Y005694D03*
X030186Y005694D03*
D36*
X034634Y002352D03*
X034634Y002037D03*
X035126Y002037D03*
X035126Y002352D03*
X035126Y001723D03*
X034634Y001723D03*
X034634Y001408D03*
X035126Y001408D03*
X020226Y005708D03*
X019734Y005708D03*
X019734Y006023D03*
X019734Y006337D03*
X020226Y006337D03*
X020226Y006023D03*
X020226Y006652D03*
X019734Y006652D03*
D37*
X026370Y011320D03*
X026630Y011320D03*
X026890Y011320D03*
X026890Y012140D03*
X026630Y012140D03*
X026370Y012140D03*
D38*
X026630Y011730D03*
D39*
X024130Y009350D03*
X023630Y009350D03*
X023130Y009350D03*
X022630Y009350D03*
X026880Y009200D03*
X027380Y009200D03*
X027880Y009200D03*
X028380Y009200D03*
X024130Y007410D03*
X023630Y007410D03*
X023130Y007410D03*
X022630Y007410D03*
X026880Y007260D03*
X027380Y007260D03*
X027880Y007260D03*
X028380Y007260D03*
D40*
X030899Y007805D03*
X031096Y007805D03*
X031293Y007805D03*
X031489Y007805D03*
X031686Y007805D03*
X031686Y006230D03*
X031489Y006230D03*
X031293Y006230D03*
X031096Y006230D03*
X030899Y006230D03*
D41*
X030505Y006624D03*
X030505Y006821D03*
X030505Y007017D03*
X030505Y007214D03*
X030505Y007411D03*
X032080Y007411D03*
X032080Y007214D03*
X032080Y007017D03*
X032080Y006821D03*
X032080Y006624D03*
D42*
X031293Y007017D03*
D43*
X022030Y006181D03*
X022030Y005079D03*
D44*
X021200Y008390D03*
X021200Y008590D03*
X021200Y008780D03*
X021200Y008980D03*
X021200Y009180D03*
X021200Y009380D03*
X021200Y009570D03*
X021200Y009770D03*
X019260Y009770D03*
X019260Y009570D03*
X019260Y009380D03*
X019260Y009180D03*
X019260Y008980D03*
X019260Y008780D03*
X019260Y008590D03*
X019260Y008390D03*
D45*
X019540Y008110D03*
X019740Y008110D03*
X019930Y008110D03*
X020130Y008110D03*
X020330Y008110D03*
X020530Y008110D03*
X020720Y008110D03*
X020920Y008110D03*
X020920Y010050D03*
X020720Y010050D03*
X020530Y010050D03*
X020330Y010050D03*
X020130Y010050D03*
X019930Y010050D03*
X019740Y010050D03*
X019540Y010050D03*
D46*
X020230Y009080D03*
D47*
X019260Y008980D02*
X018730Y008980D01*
X018680Y008930D01*
X018780Y008780D02*
X018530Y008530D01*
X017080Y008530D01*
X017005Y008605D01*
X016430Y008030D01*
X016430Y007430D01*
X016402Y007384D01*
X016130Y007430D02*
X016087Y007384D01*
X016130Y007430D02*
X016130Y008730D01*
X016430Y009030D01*
X016830Y009430D01*
X017630Y009430D01*
X017780Y009530D01*
X018680Y009530D01*
X018830Y009380D01*
X019260Y009380D01*
X019260Y009570D02*
X019230Y009580D01*
X018930Y009580D01*
X018780Y009730D01*
X016980Y009730D01*
X017680Y009930D02*
X014880Y012730D01*
X014880Y012940D01*
X014880Y013630D01*
X016730Y015480D01*
X016730Y016380D01*
X016786Y016380D01*
X016780Y016380D01*
X015680Y017480D01*
X009480Y017480D01*
X009230Y017230D01*
X009230Y016930D01*
X008680Y016380D01*
X008680Y016030D01*
X008880Y015580D02*
X009330Y016030D01*
X009680Y016030D01*
X008880Y015580D02*
X007480Y015580D01*
X006380Y016680D01*
X006380Y016930D01*
X006360Y016970D01*
X006130Y017480D02*
X005830Y017180D01*
X005830Y012780D01*
X009430Y009180D01*
X009430Y006730D01*
X009930Y006230D01*
X012480Y006230D01*
X012480Y006630D01*
X012458Y006676D01*
X012730Y006680D02*
X012730Y006830D01*
X012480Y007080D01*
X012330Y007080D01*
X011730Y007680D01*
X011730Y008830D01*
X011605Y008955D01*
X012630Y009980D01*
X012630Y010980D01*
X013130Y011480D01*
X015730Y011480D01*
X016130Y011880D02*
X016130Y012680D01*
X015880Y012930D01*
X015880Y012940D01*
X015880Y014380D01*
X017630Y016130D01*
X017630Y016630D01*
X017930Y016930D01*
X022530Y016930D01*
X023130Y016330D01*
X023130Y014930D01*
X024180Y013880D01*
X024680Y013730D02*
X025280Y013730D01*
X025318Y013706D01*
X025580Y013430D02*
X025980Y013830D01*
X025980Y014080D01*
X026330Y014430D01*
X026342Y014454D01*
X026380Y014430D01*
X027080Y014430D01*
X027080Y014415D01*
X027983Y014224D02*
X028280Y014230D01*
X028630Y013930D01*
X028630Y013330D01*
X028955Y013005D01*
X028930Y012980D01*
X028930Y012630D01*
X030680Y012630D01*
X031130Y012180D01*
X031630Y012180D01*
X031656Y012163D01*
X031680Y012180D01*
X032080Y012580D01*
X032630Y012580D01*
X033030Y012180D01*
X033056Y012163D01*
X033080Y012130D01*
X033080Y010980D01*
X033530Y010530D01*
X034780Y010530D01*
X034781Y010505D01*
X033581Y009863D02*
X033015Y010430D01*
X032380Y010430D02*
X032345Y010430D01*
X032330Y010430D01*
X032030Y010730D01*
X032030Y011297D01*
X032430Y011980D02*
X032730Y011680D01*
X032430Y011980D02*
X032430Y012130D01*
X032404Y012163D01*
X033056Y012163D02*
X033080Y012180D01*
X034530Y013630D01*
X036780Y013630D01*
X036780Y013645D01*
X036780Y013680D01*
X037080Y013680D01*
X037730Y013030D01*
X037745Y013030D01*
X037930Y013480D02*
X038380Y013030D01*
X038415Y013030D01*
X038730Y013330D02*
X038780Y013280D01*
X038780Y012780D01*
X037480Y011480D01*
X036480Y011480D01*
X036380Y011380D01*
X035280Y011380D01*
X035180Y011480D01*
X033580Y011480D01*
X033430Y011330D01*
X033430Y011297D01*
X032380Y010430D02*
X032380Y009030D01*
X032479Y009030D01*
X032430Y009030D01*
X031955Y008555D01*
X032530Y007980D01*
X031980Y007730D02*
X031780Y007730D01*
X032080Y007430D01*
X032080Y007411D01*
X032080Y007230D02*
X032080Y007214D01*
X032080Y007230D02*
X032580Y007230D01*
X032980Y007630D01*
X032995Y007630D01*
X033665Y007630D02*
X033680Y007630D01*
X033680Y006830D01*
X033665Y006830D01*
X033680Y006830D02*
X035680Y006830D01*
X036330Y006180D01*
X036330Y004930D01*
X035880Y004480D01*
X035380Y004480D01*
X034930Y004930D01*
X034900Y004938D01*
X034330Y005330D02*
X034880Y005880D01*
X034900Y005922D01*
X034680Y006380D02*
X034330Y006030D01*
X033665Y006030D01*
X033665Y005230D01*
X034330Y005330D02*
X034330Y004030D01*
X034630Y003730D01*
X034630Y002380D01*
X034634Y002352D01*
X034630Y002330D01*
X034630Y002080D01*
X034634Y002037D01*
X034230Y001980D02*
X034230Y002630D01*
X030880Y005980D01*
X030880Y006230D01*
X030899Y006230D01*
X030580Y006330D02*
X030530Y006380D01*
X030530Y006580D01*
X030505Y006624D01*
X030080Y006480D02*
X029980Y006380D01*
X029480Y006380D01*
X028930Y006930D01*
X028930Y007080D01*
X028630Y006980D02*
X028630Y007680D01*
X028530Y007780D01*
X025580Y007780D01*
X025180Y007780D02*
X026230Y006730D01*
X027030Y006730D01*
X027380Y007080D01*
X027380Y007260D01*
X027030Y006730D02*
X027030Y006180D01*
X026995Y006180D01*
X026980Y006180D01*
X026980Y005680D01*
X025730Y004430D01*
X024780Y004430D01*
X025080Y004730D02*
X024705Y005105D01*
X024730Y005130D01*
X024730Y006180D01*
X024330Y006530D02*
X024030Y006530D01*
X024030Y005780D01*
X023380Y005130D01*
X022880Y005130D01*
X022330Y005680D01*
X021480Y005680D01*
X021380Y005980D02*
X021380Y006630D01*
X020230Y006630D01*
X020226Y006652D01*
X020030Y006930D02*
X019780Y006680D01*
X019734Y006652D01*
X019730Y006630D01*
X019730Y006380D01*
X019734Y006337D01*
X019480Y006180D02*
X019480Y006930D01*
X019430Y006930D01*
X019480Y006930D02*
X019480Y007130D01*
X020130Y007780D01*
X020130Y008110D01*
X020330Y008110D02*
X020330Y007630D01*
X020830Y007130D01*
X021680Y007130D01*
X022630Y008080D01*
X023380Y008080D01*
X023680Y008380D01*
X023630Y008080D02*
X023130Y007580D01*
X023130Y007410D01*
X022830Y007430D02*
X022830Y007410D01*
X022730Y007380D02*
X022730Y007480D01*
X022630Y007410D01*
X022630Y007430D01*
X022630Y007410D01*
X022630Y007410D01*
X022730Y007380D01*
X022680Y007430D02*
X022630Y007410D01*
X022280Y007330D02*
X021880Y006930D01*
X020030Y006930D01*
X020530Y007680D02*
X020880Y007330D01*
X021480Y007330D01*
X022230Y008080D01*
X021830Y008380D02*
X023280Y008380D01*
X023630Y008080D02*
X023880Y008080D01*
X023880Y006980D01*
X023830Y006930D01*
X023830Y006880D01*
X023130Y006180D01*
X023130Y006165D01*
X023130Y006180D02*
X022030Y006180D01*
X022030Y006181D01*
X021380Y005980D02*
X021180Y005780D01*
X021180Y004780D01*
X021730Y004230D01*
X023880Y004230D01*
X024730Y003380D01*
X025180Y003380D01*
X027480Y005680D01*
X028430Y005680D01*
X028474Y005694D01*
X028980Y005730D02*
X028986Y005694D01*
X029030Y005680D01*
X029230Y005680D01*
X029480Y005430D01*
X029930Y005430D01*
X030180Y005680D01*
X030186Y005694D01*
X029674Y005694D02*
X029630Y005730D01*
X029630Y005980D01*
X028630Y006980D01*
X029280Y007230D02*
X029280Y007980D01*
X029605Y008259D01*
X029630Y008280D01*
X030280Y008280D01*
X030580Y007980D01*
X030980Y008180D02*
X031080Y008080D01*
X031080Y007830D01*
X031096Y007805D01*
X031293Y007805D02*
X031293Y007017D01*
X031686Y006624D01*
X032080Y006624D01*
X032080Y006821D02*
X032080Y006830D01*
X032330Y006830D01*
X032430Y006730D01*
X032430Y004830D01*
X033530Y003730D01*
X034230Y003730D01*
X034930Y003730D02*
X036730Y001930D01*
X036730Y001925D01*
X036530Y001630D02*
X036280Y001880D01*
X036030Y001880D01*
X036030Y001925D01*
X035730Y001830D02*
X035730Y001730D01*
X035830Y001630D01*
X036280Y001630D01*
X036575Y001335D01*
X036730Y001335D01*
X036930Y001630D02*
X036530Y001630D01*
X036930Y001630D02*
X037530Y002230D01*
X037530Y005230D01*
X034680Y008080D01*
X033480Y008080D01*
X032980Y008580D01*
X033581Y009030D02*
X033581Y009863D01*
X032030Y009530D02*
X030980Y008480D01*
X030980Y008180D01*
X031280Y008280D02*
X031293Y008267D01*
X031293Y007805D01*
X031480Y007830D02*
X031489Y007805D01*
X031480Y007830D02*
X031480Y008080D01*
X031955Y008555D01*
X031686Y007805D02*
X031730Y007780D01*
X031780Y007730D01*
X032080Y007030D02*
X032080Y007017D01*
X032080Y007030D02*
X032380Y007030D01*
X032630Y006780D01*
X032630Y006380D01*
X032980Y006030D01*
X032995Y006030D01*
X031293Y006230D02*
X031293Y007017D01*
X030505Y007017D02*
X030480Y007030D01*
X030280Y007030D01*
X030080Y006830D01*
X030080Y006480D01*
X029730Y006745D02*
X029730Y006780D01*
X029280Y007230D01*
X030180Y007280D02*
X030180Y007680D01*
X030180Y007280D02*
X030230Y007230D01*
X030480Y007230D01*
X030505Y007214D01*
X028980Y005830D02*
X028180Y006630D01*
X028080Y006630D01*
X026530Y006080D02*
X026530Y005830D01*
X026330Y005630D01*
X026315Y005630D01*
X025645Y005630D02*
X025065Y005630D01*
X025030Y005630D01*
X025030Y006630D01*
X024480Y007180D01*
X024480Y007580D01*
X024130Y007410D02*
X024130Y006980D01*
X024030Y006880D01*
X024030Y006530D01*
X023630Y007230D02*
X022980Y006580D01*
X022180Y006580D01*
X022130Y006630D01*
X021380Y006630D01*
X021080Y006080D02*
X020830Y006330D01*
X020230Y006330D01*
X020226Y006337D01*
X020226Y006023D02*
X020230Y005980D01*
X020230Y005730D01*
X020226Y005708D01*
X020180Y005680D01*
X020105Y005605D01*
X021680Y004030D01*
X023080Y004030D01*
X024380Y002730D01*
X026130Y002730D01*
X026130Y003380D01*
X025480Y003280D02*
X027430Y005230D01*
X029680Y005230D01*
X029930Y004980D01*
X029930Y004966D01*
X029930Y004930D01*
X030380Y004930D01*
X033380Y001930D01*
X033411Y001930D01*
X033930Y001680D02*
X033630Y001380D01*
X031230Y001380D01*
X030680Y001930D01*
X030655Y001930D01*
X030530Y001930D01*
X029780Y001180D01*
X023780Y001180D01*
X023080Y001880D01*
X023080Y002280D01*
X023730Y002730D02*
X022430Y002730D01*
X021630Y001930D01*
X021010Y001930D01*
X020380Y001930D01*
X019830Y001380D01*
X017730Y001380D01*
X017705Y001405D01*
X017680Y001380D01*
X013930Y001380D01*
X013380Y001930D01*
X012742Y001930D01*
X012730Y001930D01*
X012180Y002480D01*
X011130Y002480D01*
X010580Y001930D01*
X009986Y001930D01*
X008630Y001930D02*
X008608Y001930D01*
X008630Y001930D02*
X011730Y005030D01*
X012430Y005030D01*
X013130Y005480D02*
X019980Y005480D01*
X020105Y005605D01*
X019734Y005708D02*
X019730Y005730D01*
X019630Y005730D01*
X019355Y006005D01*
X019330Y005980D01*
X019330Y005930D01*
X019355Y006005D02*
X019130Y006230D01*
X019130Y007030D01*
X019930Y007830D01*
X019930Y008110D01*
X019740Y008110D02*
X019730Y008080D01*
X019730Y007880D01*
X017780Y005930D01*
X015930Y005930D01*
X015905Y005955D01*
X015880Y005930D01*
X015880Y005780D01*
X015905Y005955D02*
X015730Y006130D01*
X015730Y006630D01*
X015773Y006676D01*
X015458Y006676D02*
X015430Y006630D01*
X014580Y005780D01*
X013480Y005780D02*
X013430Y005830D01*
X013430Y006630D01*
X013402Y006676D01*
X013130Y006680D02*
X013087Y006676D01*
X013080Y006630D01*
X013080Y005930D01*
X013130Y005480D02*
X012480Y006130D01*
X012480Y006230D01*
X012730Y006680D02*
X012773Y006676D01*
X013130Y006680D02*
X013130Y006830D01*
X013380Y007080D01*
X017330Y007080D01*
X018830Y008580D01*
X019230Y008580D01*
X019260Y008590D01*
X019260Y008780D02*
X018780Y008780D01*
X019230Y008380D02*
X019260Y008390D01*
X019230Y008380D02*
X018880Y008380D01*
X017280Y006780D01*
X016730Y006780D01*
X017280Y006230D02*
X017180Y006130D01*
X016130Y006130D01*
X016030Y006230D01*
X017280Y006230D02*
X019080Y008080D01*
X019530Y008080D01*
X019540Y008110D01*
X020530Y008110D02*
X020530Y007680D01*
X020730Y007880D02*
X020980Y007630D01*
X021530Y007780D02*
X021530Y008180D01*
X021330Y008380D01*
X021230Y008380D01*
X021200Y008390D01*
X021230Y008580D02*
X021200Y008590D01*
X021230Y008580D02*
X021630Y008580D01*
X021830Y008380D01*
X021230Y008080D02*
X020930Y008080D01*
X020920Y008110D01*
X020730Y008080D02*
X020730Y007880D01*
X020730Y008080D02*
X020720Y008110D01*
X021830Y008780D02*
X021930Y008680D01*
X021930Y008580D01*
X021930Y008680D02*
X022080Y008630D01*
X022080Y008730D02*
X021930Y008680D01*
X021830Y008780D02*
X021630Y008780D01*
X021630Y008780D01*
X021456Y008780D01*
X021380Y008780D01*
X021200Y008780D01*
X021200Y008980D02*
X021830Y008980D01*
X022005Y009155D01*
X022030Y009130D01*
X022180Y009130D01*
X022630Y008680D01*
X026130Y008680D01*
X026130Y008380D01*
X026130Y008680D02*
X027530Y008680D01*
X027880Y009030D01*
X027880Y009200D01*
X027880Y009230D01*
X027730Y009380D01*
X027730Y009580D01*
X026680Y010630D01*
X026665Y010630D01*
X026630Y010630D01*
X026630Y011320D01*
X026380Y011330D02*
X026370Y011320D01*
X026380Y011330D02*
X026380Y011480D01*
X026630Y011730D01*
X027230Y011980D02*
X027230Y011330D01*
X026930Y011330D01*
X026890Y011320D01*
X027230Y011330D02*
X027730Y011330D01*
X027730Y011345D01*
X027730Y010730D02*
X028930Y011930D01*
X028930Y012630D01*
X028980Y012980D02*
X029630Y012980D01*
X029630Y012965D01*
X028980Y012980D02*
X028955Y013005D01*
X027980Y013430D02*
X027983Y013476D01*
X027980Y013430D02*
X027930Y013380D01*
X026330Y013380D01*
X026080Y013130D01*
X022480Y013130D01*
X021580Y012230D01*
X021580Y011430D01*
X020730Y010580D01*
X020730Y010080D01*
X020720Y010050D01*
X020530Y010050D02*
X020530Y010780D01*
X020580Y010830D01*
X020330Y010680D02*
X020280Y010730D01*
X020280Y011180D01*
X022480Y013380D01*
X024330Y013380D01*
X024680Y013730D01*
X024280Y013580D02*
X025630Y014930D01*
X028130Y014930D01*
X028145Y014930D01*
X028130Y014930D02*
X028130Y014330D01*
X028030Y014230D01*
X027983Y014224D01*
X029007Y014224D02*
X029180Y014230D01*
X029180Y015330D01*
X028230Y016280D01*
X025380Y016280D01*
X023780Y014680D01*
X025318Y014454D02*
X025330Y014480D01*
X025630Y014780D01*
X025630Y014930D01*
X025630Y015245D01*
X024280Y013580D02*
X024080Y013580D01*
X024030Y013630D01*
X018280Y013630D01*
X018280Y010930D01*
X018284Y010930D01*
X017630Y010880D02*
X017580Y010930D01*
X017576Y010930D01*
X017580Y010930D02*
X017580Y012130D01*
X017565Y012130D01*
X018480Y012080D02*
X018480Y013230D01*
X018580Y013330D01*
X018280Y013630D02*
X018280Y016280D01*
X018180Y016380D01*
X018164Y016380D01*
X019542Y016380D02*
X019580Y016380D01*
X019580Y014330D01*
X017930Y013930D02*
X016880Y014980D01*
X017930Y013930D02*
X017930Y010380D01*
X018180Y010130D01*
X019530Y010130D01*
X019540Y010050D01*
X019730Y010080D02*
X019730Y010280D01*
X019580Y010430D01*
X018280Y010430D01*
X017630Y010380D02*
X017630Y010880D01*
X018580Y011380D02*
X018880Y011380D01*
X019930Y010330D01*
X019930Y010050D01*
X019740Y010050D02*
X019730Y010080D01*
X020130Y010050D02*
X020130Y010430D01*
X018480Y012080D01*
X019230Y012430D02*
X019330Y012430D01*
X019430Y012330D01*
X019630Y012330D01*
X020030Y011930D01*
X020054Y011897D01*
X019830Y011380D02*
X019330Y011880D01*
X019306Y011897D01*
X019830Y011380D02*
X020080Y011380D01*
X020330Y010680D02*
X020330Y010050D01*
X020920Y010050D02*
X020930Y010080D01*
X020930Y010380D01*
X021030Y010480D01*
X021230Y009780D02*
X021930Y010480D01*
X021980Y010480D01*
X021995Y010480D01*
X021980Y010480D02*
X021980Y012030D01*
X023619Y011669D02*
X023630Y011680D01*
X023880Y012030D02*
X023880Y010480D01*
X023865Y010480D01*
X023830Y010480D01*
X023480Y010130D01*
X021930Y010130D01*
X021380Y009580D01*
X021210Y009580D01*
X021200Y009570D01*
X021200Y009380D02*
X021430Y009380D01*
X021630Y009580D01*
X021830Y009580D01*
X022030Y009380D01*
X022030Y009180D01*
X022005Y009155D01*
X021730Y009280D02*
X021630Y009180D01*
X021200Y009180D01*
X022280Y009530D02*
X022280Y009680D01*
X022480Y009880D01*
X022780Y009880D01*
X023130Y009530D01*
X023130Y009350D01*
X023630Y009350D02*
X023630Y009580D01*
X023880Y009830D01*
X023730Y009980D01*
X023880Y009830D02*
X025330Y011280D01*
X025330Y012030D01*
X025630Y012080D02*
X025650Y012080D01*
X025630Y011430D02*
X026330Y012130D01*
X026370Y012140D01*
X026630Y012140D02*
X026630Y012630D01*
X026430Y012830D01*
X026395Y012830D01*
X026930Y012730D02*
X027030Y012830D01*
X027065Y012830D01*
X026930Y012730D02*
X026930Y012180D01*
X026890Y012140D01*
X025630Y011430D02*
X025630Y010730D01*
X024480Y009580D01*
X025630Y010380D02*
X026280Y009730D01*
X027030Y009730D01*
X027380Y009380D01*
X027380Y009200D01*
X027730Y009580D02*
X027730Y010080D01*
X027695Y010080D01*
X027730Y010080D02*
X027730Y010730D01*
X029630Y011630D02*
X029680Y011580D01*
X029706Y011563D01*
X029630Y011630D02*
X029630Y012295D01*
X030430Y012295D02*
X030430Y011580D01*
X030454Y011563D01*
X030080Y010697D02*
X030080Y010230D01*
X027930Y008080D01*
X023880Y008080D01*
X023630Y007410D02*
X023630Y007230D01*
X023580Y005980D02*
X023130Y005530D01*
X023130Y005495D01*
X023580Y004930D02*
X022130Y004930D01*
X022030Y005030D01*
X022030Y005079D01*
X021830Y004530D02*
X024230Y004530D01*
X025080Y003680D01*
X026480Y003880D02*
X027280Y003880D01*
X029230Y001930D01*
X029277Y001930D01*
X029730Y001380D02*
X030130Y001780D01*
X030130Y003780D01*
X030155Y003805D01*
X029030Y004930D01*
X028730Y004930D01*
X028730Y004966D01*
X028980Y005730D02*
X028980Y005830D01*
X030155Y003805D02*
X032030Y001930D01*
X032033Y001930D01*
X033580Y001080D02*
X030080Y001080D01*
X029730Y001380D02*
X024930Y001380D01*
X024580Y001730D01*
X024580Y002280D01*
X023830Y003030D01*
X022430Y003030D01*
X020380Y005080D01*
X020180Y005080D01*
X019734Y006023D02*
X019730Y006030D01*
X019630Y006030D01*
X019480Y006180D01*
X015430Y005030D02*
X015430Y003330D01*
X016830Y001930D01*
X016876Y001930D01*
X017705Y001405D02*
X018230Y001930D01*
X018254Y001930D01*
X014130Y001930D02*
X014120Y001930D01*
X014130Y001930D02*
X014130Y004730D01*
X014430Y005030D01*
X010784Y006613D02*
X010780Y006630D01*
X010530Y006630D01*
X009630Y007530D01*
X009630Y011580D01*
X009980Y011930D01*
X011430Y011930D01*
X012130Y012630D01*
X012130Y013430D01*
X012180Y013480D01*
X013080Y013480D01*
X013380Y013180D01*
X013380Y012940D01*
X012880Y012940D02*
X012880Y012730D01*
X013230Y012380D01*
X013530Y012380D01*
X013630Y012480D01*
X013630Y013430D01*
X013680Y013480D01*
X013730Y013480D01*
X014180Y013930D01*
X014605Y013905D02*
X014030Y014480D01*
X014030Y016380D01*
X013930Y016480D01*
X009230Y016480D01*
X007680Y017030D02*
X007030Y017030D01*
X006580Y017480D01*
X006130Y017480D01*
X008430Y015280D02*
X008430Y014380D01*
X010280Y012530D01*
X010780Y012530D01*
X010784Y012519D01*
X010830Y012530D01*
X011280Y012530D01*
X011930Y013180D01*
X011930Y013480D01*
X013730Y015280D01*
X012730Y014680D02*
X012330Y014680D01*
X012080Y014930D01*
X012065Y014930D01*
X011430Y014930D02*
X011395Y014930D01*
X011430Y014930D02*
X011430Y015780D01*
X011630Y015980D01*
X013880Y013180D02*
X014605Y013905D01*
X014630Y013930D01*
X014780Y013930D01*
X013880Y013180D02*
X013880Y012940D01*
X014380Y012940D02*
X014380Y012730D01*
X013630Y011980D01*
X012630Y011980D01*
X011580Y010930D01*
X009930Y010930D01*
X009830Y010830D01*
X009830Y008330D01*
X010530Y007630D01*
X010780Y007630D01*
X010784Y007598D01*
X009030Y006780D02*
X005830Y003580D01*
X005810Y003570D01*
X009030Y006780D02*
X009030Y009180D01*
X010784Y009566D02*
X010830Y009530D01*
X011030Y009530D01*
X011605Y008955D01*
X010784Y010550D02*
X010830Y010580D01*
X011480Y010580D01*
X012680Y011780D01*
X013680Y011780D01*
X014180Y012280D01*
X014930Y012280D01*
X015380Y012630D02*
X015730Y012280D01*
X015380Y012630D02*
X015380Y012940D01*
X012380Y012940D02*
X012380Y012630D01*
X011330Y011580D01*
X010830Y011580D01*
X010784Y011535D01*
X017005Y008605D02*
X017430Y009030D01*
X018030Y009180D02*
X019260Y009180D01*
X019260Y009570D02*
X019280Y009580D01*
X019260Y009770D02*
X019230Y009780D01*
X019030Y009780D01*
X018880Y009930D01*
X017680Y009930D01*
X021200Y009770D02*
X021230Y009780D01*
X025630Y010380D02*
X025630Y010730D01*
X030430Y012965D02*
X030430Y015030D01*
X030830Y015430D01*
X029730Y014265D02*
X029730Y014230D01*
X029180Y014230D01*
X029030Y014230D01*
X029007Y014224D01*
X025580Y013430D02*
X024780Y013430D01*
X019680Y012763D02*
X019680Y012730D01*
X018780Y012730D01*
X033804Y012163D02*
X033830Y012180D01*
X034980Y013330D01*
X034930Y014280D02*
X033980Y013330D01*
X033830Y013330D01*
X035630Y013980D02*
X037030Y013980D01*
X037430Y014380D01*
X037664Y014380D01*
X037480Y014730D02*
X037080Y014330D01*
X036780Y014330D01*
X036780Y014315D01*
X036780Y014280D01*
X034930Y014280D01*
X037080Y013680D02*
X037330Y013680D01*
X037630Y013980D01*
X037664Y014006D01*
X038696Y014006D02*
X038730Y013980D01*
X038730Y013330D01*
X037664Y014754D02*
X037630Y014730D01*
X037480Y014730D01*
X035880Y006380D02*
X034680Y006380D01*
X035880Y006380D02*
X036130Y006130D01*
X036130Y005430D01*
X035680Y004980D01*
X035680Y004938D01*
X033930Y004430D02*
X033928Y004426D01*
X033530Y003730D02*
X033480Y003730D01*
X035126Y002352D02*
X035130Y002330D01*
X035230Y002330D01*
X035730Y001830D01*
X035530Y001730D02*
X035230Y002030D01*
X035130Y002030D01*
X035126Y002037D01*
X035126Y001723D02*
X035130Y001680D01*
X035280Y001680D01*
X035380Y001580D01*
X035380Y001230D01*
X035180Y001030D01*
X034880Y000930D02*
X034880Y001180D01*
X035080Y001380D01*
X035126Y001408D01*
X035530Y001680D02*
X035830Y001380D01*
X036030Y001380D01*
X036030Y001335D01*
X035530Y001680D02*
X035530Y001730D01*
X034634Y001723D02*
X034630Y001680D01*
X033930Y001680D01*
X033880Y001380D02*
X033580Y001080D01*
X033880Y001380D02*
X034630Y001380D01*
X034634Y001408D01*
X034880Y000930D02*
X035080Y000730D01*
X035480Y000730D01*
X026521Y001930D02*
X026480Y001930D01*
X026130Y002280D01*
X026130Y002730D01*
X024705Y005105D02*
X024430Y005380D01*
X024430Y005630D01*
X024395Y005630D01*
D48*
X023580Y005980D03*
X024330Y006530D03*
X024730Y006180D03*
X026530Y006080D03*
X028080Y006630D03*
X028930Y007080D03*
X030180Y007680D03*
X030580Y007980D03*
X031980Y007730D03*
X032530Y007980D03*
X032980Y008580D03*
X032030Y009530D03*
X032730Y011680D03*
X033830Y013330D03*
X034980Y013330D03*
X035630Y013980D03*
X037930Y013480D03*
X027230Y011980D03*
X025330Y012030D03*
X024780Y013430D03*
X024180Y013880D03*
X023780Y014680D03*
X019580Y014330D03*
X018580Y013330D03*
X018780Y012730D03*
X019230Y012430D03*
X018580Y011380D03*
X020080Y011380D03*
X020580Y010830D03*
X021030Y010480D03*
X022280Y009530D03*
X023730Y009980D03*
X024480Y009580D03*
X023680Y008380D03*
X023280Y008380D03*
X022230Y008080D03*
X021530Y007780D03*
X020980Y007630D03*
X021230Y008080D03*
X021930Y008680D03*
X022280Y007330D03*
X024480Y007580D03*
X025180Y007780D03*
X025580Y007780D03*
X026130Y008380D03*
X030580Y006330D03*
X026480Y003880D03*
X026130Y003380D03*
X025480Y003280D03*
X025080Y003680D03*
X024780Y004430D03*
X025080Y004730D03*
X023580Y004930D03*
X021830Y004530D03*
X020180Y005080D03*
X021480Y005680D03*
X021080Y006080D03*
X019330Y005930D03*
X019430Y006930D03*
X016730Y006780D03*
X016030Y006230D03*
X015880Y005780D03*
X014580Y005780D03*
X013480Y005780D03*
X013080Y005930D03*
X009030Y009180D03*
X015730Y011480D03*
X016130Y011880D03*
X015730Y012280D03*
X014930Y012280D03*
X014780Y013930D03*
X014180Y013930D03*
X012730Y014680D03*
X013730Y015280D03*
X016880Y014980D03*
X009230Y016480D03*
X008430Y015280D03*
X018280Y010430D03*
X017630Y010380D03*
X016980Y009730D03*
X018030Y009180D03*
X023730Y002730D03*
X023080Y002280D03*
X030080Y001080D03*
X034230Y001980D03*
X035180Y001030D03*
X035480Y000730D03*
X034930Y003730D03*
X034230Y003730D03*
D49*
X001128Y000713D02*
X000890Y000886D01*
X000717Y001124D01*
X000626Y001404D01*
X000614Y001551D01*
X000614Y016654D01*
X000626Y016805D01*
X000719Y017092D01*
X000897Y017337D01*
X001142Y017515D01*
X001429Y017608D01*
X001580Y017620D01*
X001580Y017620D01*
X001655Y017620D01*
X005987Y017620D01*
X005747Y017380D01*
X005630Y017263D01*
X005630Y012697D01*
X008868Y009459D01*
X008849Y009451D01*
X008759Y009361D01*
X008710Y009244D01*
X008710Y009116D01*
X008759Y008999D01*
X008830Y008927D01*
X008830Y006863D01*
X006023Y004056D01*
X005915Y004100D01*
X005705Y004100D01*
X005510Y004019D01*
X005361Y003870D01*
X005280Y003675D01*
X005280Y003465D01*
X005361Y003270D01*
X005510Y003121D01*
X005705Y003040D01*
X005915Y003040D01*
X006110Y003121D01*
X006259Y003270D01*
X006340Y003465D01*
X006340Y003675D01*
X006301Y003769D01*
X009230Y006697D01*
X009230Y008927D01*
X009230Y008927D01*
X009230Y006647D01*
X009730Y006147D01*
X009847Y006030D01*
X012297Y006030D01*
X012930Y005397D01*
X013047Y005280D01*
X013058Y005280D01*
X012990Y005212D01*
X012990Y004848D01*
X013248Y004590D01*
X013612Y004590D01*
X013870Y004848D01*
X013870Y005212D01*
X013802Y005280D01*
X014058Y005280D01*
X013990Y005212D01*
X013990Y004873D01*
X013930Y004813D01*
X013930Y002458D01*
X013803Y002405D01*
X013645Y002247D01*
X013560Y002041D01*
X013560Y002033D01*
X013463Y002130D01*
X013265Y002130D01*
X013217Y002247D01*
X013059Y002405D01*
X012853Y002490D01*
X012630Y002490D01*
X012505Y002438D01*
X012263Y002680D01*
X011047Y002680D01*
X010930Y002563D01*
X010506Y002139D01*
X010461Y002247D01*
X010303Y002405D01*
X010097Y002490D01*
X009875Y002490D01*
X009669Y002405D01*
X009511Y002247D01*
X009426Y002041D01*
X009426Y001819D01*
X009511Y001613D01*
X009669Y001455D01*
X009875Y001370D01*
X010097Y001370D01*
X010303Y001455D01*
X010461Y001613D01*
X010509Y001730D01*
X010663Y001730D01*
X010804Y001871D01*
X010804Y001819D01*
X010889Y001613D01*
X011047Y001455D01*
X011252Y001370D01*
X011475Y001370D01*
X011681Y001455D01*
X011839Y001613D01*
X011924Y001819D01*
X011924Y002041D01*
X011839Y002247D01*
X011806Y002280D01*
X012097Y002280D01*
X012227Y002150D01*
X012182Y002041D01*
X012182Y001819D01*
X012267Y001613D01*
X012425Y001455D01*
X012630Y001370D01*
X012853Y001370D01*
X013059Y001455D01*
X013217Y001613D01*
X013265Y001730D01*
X013297Y001730D01*
X013730Y001297D01*
X013847Y001180D01*
X019913Y001180D01*
X020030Y001297D01*
X020463Y001730D01*
X020486Y001730D01*
X020535Y001613D01*
X020692Y001455D01*
X020898Y001370D01*
X021121Y001370D01*
X021327Y001455D01*
X021484Y001613D01*
X021533Y001730D01*
X021713Y001730D01*
X021827Y001845D01*
X021827Y001819D01*
X021913Y001613D01*
X022070Y001455D01*
X022276Y001370D01*
X022499Y001370D01*
X022705Y001455D01*
X022862Y001613D01*
X022921Y001756D01*
X023580Y001097D01*
X023697Y000980D01*
X029775Y000980D01*
X029809Y000899D01*
X029899Y000809D01*
X030016Y000760D01*
X030144Y000760D01*
X030261Y000809D01*
X030333Y000880D01*
X033663Y000880D01*
X033780Y000997D01*
X033963Y001180D01*
X034409Y001180D01*
X034440Y001149D01*
X034680Y001149D01*
X034680Y000847D01*
X034880Y000647D01*
X034917Y000610D01*
X001555Y000610D01*
X001408Y000622D01*
X001128Y000713D01*
X001080Y000747D02*
X034780Y000747D01*
X034680Y000906D02*
X033688Y000906D01*
X033847Y001064D02*
X034680Y001064D01*
X035500Y001064D02*
X035759Y001064D01*
X035713Y001111D02*
X035806Y001017D01*
X036254Y001017D01*
X036347Y001111D01*
X036347Y001280D01*
X036413Y001215D01*
X036413Y001111D01*
X036506Y001017D01*
X036954Y001017D01*
X037047Y001111D01*
X037047Y001465D01*
X037330Y001747D01*
X037330Y001511D01*
X037459Y001199D01*
X037699Y000959D01*
X038011Y000830D01*
X038349Y000830D01*
X038661Y000959D01*
X038661Y000959D01*
X038901Y001199D01*
X039030Y001511D01*
X039030Y001849D01*
X038901Y002161D01*
X038901Y002161D01*
X038661Y002401D01*
X038349Y002530D01*
X038011Y002530D01*
X037730Y002414D01*
X037730Y005313D01*
X034880Y008163D01*
X034763Y008280D01*
X033563Y008280D01*
X033308Y008535D01*
X033523Y008535D01*
X033523Y008972D01*
X033126Y008972D01*
X033126Y008866D01*
X033044Y008900D01*
X032916Y008900D01*
X032914Y008899D01*
X032914Y009411D01*
X032821Y009505D01*
X032580Y009505D01*
X032580Y010073D01*
X032628Y010073D01*
X032666Y010111D01*
X032688Y010089D01*
X032729Y010065D01*
X032774Y010053D01*
X032996Y010053D01*
X032996Y010412D01*
X033033Y010412D01*
X033033Y010053D01*
X033255Y010053D01*
X033301Y010065D01*
X033342Y010089D01*
X033375Y010123D01*
X033399Y010164D01*
X033411Y010209D01*
X033411Y010366D01*
X033447Y010330D01*
X033782Y010330D01*
X033839Y010115D01*
X033972Y009885D01*
X034161Y009697D01*
X034391Y009564D01*
X034648Y009495D01*
X034914Y009495D01*
X035171Y009564D01*
X035401Y009697D01*
X035589Y009885D01*
X035722Y010115D01*
X035791Y010372D01*
X035791Y010638D01*
X035722Y010895D01*
X035589Y011125D01*
X035534Y011180D01*
X036364Y011180D01*
X036302Y011102D01*
X036240Y011004D01*
X036190Y010900D01*
X036152Y010791D01*
X036126Y010678D01*
X036115Y010585D01*
X037063Y010585D01*
X037063Y010425D01*
X037223Y010425D01*
X037223Y010585D01*
X038170Y010585D01*
X038160Y010678D01*
X038134Y010791D01*
X038096Y010900D01*
X038046Y011004D01*
X037984Y011102D01*
X037912Y011192D01*
X037830Y011274D01*
X037740Y011346D01*
X037672Y011389D01*
X037680Y011397D01*
X038980Y012697D01*
X038980Y013363D01*
X038930Y013413D01*
X038930Y013724D01*
X039002Y013724D01*
X039096Y013817D01*
X039096Y014175D01*
X039104Y014188D01*
X039116Y014234D01*
X039116Y014380D01*
X039116Y014526D01*
X039105Y014567D01*
X039116Y014608D01*
X039116Y014754D01*
X038696Y014754D01*
X039116Y014754D01*
X039116Y014900D01*
X039104Y014946D01*
X039080Y014987D01*
X039046Y015020D01*
X039005Y015044D01*
X038960Y015056D01*
X038696Y015056D01*
X038696Y014754D01*
X038696Y014754D01*
X038696Y014380D01*
X039116Y014380D01*
X038696Y014380D01*
X038696Y014380D01*
X038696Y014380D01*
X038696Y014682D01*
X038696Y014754D01*
X038696Y014754D01*
X038696Y014754D01*
X038696Y015056D01*
X038432Y015056D01*
X038386Y015044D01*
X038345Y015020D01*
X038312Y014987D01*
X038288Y014946D01*
X038276Y014900D01*
X038276Y014754D01*
X038276Y014608D01*
X038287Y014567D01*
X038276Y014526D01*
X038276Y014380D01*
X038276Y014234D01*
X038288Y014188D01*
X038296Y014175D01*
X038296Y013817D01*
X038389Y013724D01*
X038530Y013724D01*
X038530Y013407D01*
X038433Y013407D01*
X038433Y013048D01*
X038396Y013048D01*
X038396Y013012D01*
X038122Y013012D01*
X038122Y013048D01*
X038396Y013048D01*
X038396Y013407D01*
X038174Y013407D01*
X038129Y013395D01*
X038088Y013371D01*
X038066Y013349D01*
X038028Y013387D01*
X037656Y013387D01*
X037488Y013555D01*
X037656Y013724D01*
X037971Y013724D01*
X038064Y013817D01*
X038064Y014943D01*
X037971Y015036D01*
X037358Y015036D01*
X037264Y014943D01*
X037264Y014797D01*
X037101Y014634D01*
X037063Y014671D01*
X036497Y014671D01*
X036403Y014578D01*
X036403Y014480D01*
X034847Y014480D01*
X034730Y014363D01*
X033981Y013614D01*
X033894Y013650D01*
X033766Y013650D01*
X033649Y013601D01*
X033559Y013511D01*
X033510Y013394D01*
X033510Y013266D01*
X033559Y013149D01*
X033649Y013059D01*
X033668Y013051D01*
X033216Y012599D01*
X032894Y012599D01*
X032713Y012780D01*
X031997Y012780D01*
X031880Y012663D01*
X031880Y012663D01*
X031816Y012599D01*
X031393Y012599D01*
X031299Y012505D01*
X031299Y012380D01*
X031213Y012380D01*
X030880Y012713D01*
X030807Y012786D01*
X030807Y013228D01*
X030713Y013321D01*
X030630Y013321D01*
X030630Y014723D01*
X031444Y014723D01*
X031537Y014816D01*
X031537Y016044D01*
X031444Y016137D01*
X030216Y016137D01*
X030123Y016044D01*
X030123Y014816D01*
X030216Y014723D01*
X030230Y014723D01*
X030230Y013321D01*
X030147Y013321D01*
X030053Y013228D01*
X030053Y012830D01*
X030007Y012830D01*
X030007Y013217D01*
X030037Y013235D01*
X030071Y013268D01*
X030095Y013309D01*
X030107Y013355D01*
X030107Y013577D01*
X029748Y013577D01*
X029748Y013614D01*
X030107Y013614D01*
X030107Y013836D01*
X030095Y013881D01*
X030071Y013922D01*
X030049Y013944D01*
X030087Y013982D01*
X030087Y014547D01*
X029993Y014641D01*
X029467Y014641D01*
X029380Y014554D01*
X029380Y015413D01*
X028430Y016363D01*
X028313Y016480D01*
X025297Y016480D01*
X023817Y015000D01*
X023716Y015000D01*
X023599Y014951D01*
X023509Y014861D01*
X023501Y014842D01*
X023330Y015013D01*
X023330Y015914D01*
X023372Y015884D01*
X023453Y015842D01*
X023540Y015814D01*
X023630Y015800D01*
X023638Y015800D01*
X023638Y016342D01*
X023714Y016342D01*
X023714Y016418D01*
X024256Y016418D01*
X024256Y016426D01*
X024241Y016516D01*
X024213Y016603D01*
X024172Y016684D01*
X024118Y016758D01*
X024054Y016822D01*
X023980Y016876D01*
X023898Y016918D01*
X023811Y016946D01*
X023721Y016960D01*
X023714Y016960D01*
X023714Y016418D01*
X023638Y016418D01*
X023638Y016960D01*
X023630Y016960D01*
X023540Y016946D01*
X023453Y016918D01*
X023372Y016876D01*
X023298Y016822D01*
X023233Y016758D01*
X023180Y016684D01*
X023139Y016604D01*
X022613Y017130D01*
X017847Y017130D01*
X017430Y016713D01*
X017430Y016213D01*
X016930Y015713D01*
X016930Y015834D01*
X017103Y015905D01*
X017261Y016063D01*
X017346Y016269D01*
X017346Y016491D01*
X017261Y016697D01*
X017103Y016855D01*
X016897Y016940D01*
X016675Y016940D01*
X016553Y016890D01*
X015823Y017620D01*
X038132Y017620D01*
X038136Y017616D01*
X038206Y017620D01*
X038221Y017620D01*
X038366Y017616D01*
X038664Y017537D01*
X038924Y017369D01*
X039119Y017129D01*
X039230Y016840D01*
X039250Y016688D01*
X039250Y001605D01*
X039238Y001450D01*
X039142Y001153D01*
X038959Y000901D01*
X038707Y000718D01*
X038410Y000622D01*
X038255Y000610D01*
X035777Y000610D01*
X035800Y000666D01*
X035800Y000794D01*
X035751Y000911D01*
X035661Y001001D01*
X035544Y001050D01*
X035500Y001050D01*
X035500Y001067D01*
X035580Y001147D01*
X035580Y001347D01*
X035630Y001297D01*
X035713Y001215D01*
X035713Y001111D01*
X035705Y001223D02*
X035580Y001223D01*
X035754Y000906D02*
X037829Y000906D01*
X037699Y000959D02*
X037699Y000959D01*
X037594Y001064D02*
X037001Y001064D01*
X037047Y001223D02*
X037449Y001223D01*
X037459Y001199D02*
X037459Y001199D01*
X037384Y001381D02*
X037047Y001381D01*
X037122Y001540D02*
X037330Y001540D01*
X037330Y001698D02*
X037281Y001698D01*
X036405Y001223D02*
X036347Y001223D01*
X036301Y001064D02*
X036459Y001064D01*
X035800Y000747D02*
X038746Y000747D01*
X038531Y000906D02*
X038961Y000906D01*
X039077Y001064D02*
X038766Y001064D01*
X038911Y001223D02*
X039164Y001223D01*
X039215Y001381D02*
X038976Y001381D01*
X039030Y001540D02*
X039245Y001540D01*
X039250Y001698D02*
X039030Y001698D01*
X039027Y001857D02*
X039250Y001857D01*
X039250Y002015D02*
X038961Y002015D01*
X038889Y002174D02*
X039250Y002174D01*
X039250Y002332D02*
X038730Y002332D01*
X038661Y002401D02*
X038661Y002401D01*
X038444Y002491D02*
X039250Y002491D01*
X039250Y002649D02*
X037730Y002649D01*
X037730Y002491D02*
X037916Y002491D01*
X037730Y002808D02*
X039250Y002808D01*
X039250Y002966D02*
X037730Y002966D01*
X037730Y003125D02*
X039250Y003125D01*
X039250Y003283D02*
X037730Y003283D01*
X037730Y003442D02*
X039250Y003442D01*
X039250Y003600D02*
X037730Y003600D01*
X037730Y003759D02*
X039250Y003759D01*
X039250Y003917D02*
X037730Y003917D01*
X037730Y004076D02*
X039250Y004076D01*
X039250Y004234D02*
X037730Y004234D01*
X037730Y004393D02*
X039250Y004393D01*
X039250Y004551D02*
X037730Y004551D01*
X037730Y004710D02*
X039250Y004710D01*
X039250Y004868D02*
X037730Y004868D01*
X037730Y005027D02*
X039250Y005027D01*
X039250Y005185D02*
X037730Y005185D01*
X037699Y005344D02*
X039250Y005344D01*
X039250Y005502D02*
X037541Y005502D01*
X037382Y005661D02*
X039250Y005661D01*
X039250Y005819D02*
X037224Y005819D01*
X037065Y005978D02*
X039250Y005978D01*
X039250Y006136D02*
X036907Y006136D01*
X036748Y006295D02*
X039250Y006295D01*
X039250Y006453D02*
X036590Y006453D01*
X036431Y006612D02*
X039250Y006612D01*
X039250Y006770D02*
X036273Y006770D01*
X036114Y006929D02*
X039250Y006929D01*
X039250Y007087D02*
X037145Y007087D01*
X037209Y007113D02*
X037437Y007341D01*
X037560Y007639D01*
X037560Y007961D01*
X037437Y008259D01*
X037209Y008487D01*
X036911Y008610D01*
X036589Y008610D01*
X036291Y008487D01*
X036063Y008259D01*
X035940Y007961D01*
X035940Y007639D01*
X036063Y007341D01*
X036291Y007113D01*
X036589Y006990D01*
X036911Y006990D01*
X037209Y007113D01*
X037341Y007246D02*
X039250Y007246D01*
X039250Y007404D02*
X037463Y007404D01*
X037528Y007563D02*
X039250Y007563D01*
X039250Y007721D02*
X037560Y007721D01*
X037560Y007880D02*
X039250Y007880D01*
X039250Y008038D02*
X037528Y008038D01*
X037462Y008197D02*
X039250Y008197D01*
X039250Y008355D02*
X037340Y008355D01*
X037144Y008514D02*
X039250Y008514D01*
X039250Y008672D02*
X034032Y008672D01*
X034037Y008691D02*
X034037Y008972D01*
X033639Y008972D01*
X033639Y008535D01*
X033880Y008535D01*
X033926Y008547D01*
X033967Y008571D01*
X034001Y008605D01*
X034025Y008646D01*
X034037Y008691D01*
X034037Y008831D02*
X039250Y008831D01*
X039250Y008989D02*
X033639Y008989D01*
X033639Y008972D02*
X033639Y009088D01*
X033523Y009088D01*
X033523Y008972D01*
X033639Y008972D01*
X033639Y009088D02*
X034037Y009088D01*
X034037Y009369D01*
X034025Y009414D01*
X034001Y009455D01*
X033967Y009489D01*
X033926Y009513D01*
X033880Y009525D01*
X033639Y009525D01*
X033639Y009088D01*
X033639Y009148D02*
X033523Y009148D01*
X033523Y009088D02*
X033523Y009525D01*
X033282Y009525D01*
X033236Y009513D01*
X033195Y009489D01*
X033162Y009455D01*
X033138Y009414D01*
X033126Y009369D01*
X033126Y009088D01*
X033523Y009088D01*
X033523Y008989D02*
X032914Y008989D01*
X032914Y009148D02*
X033126Y009148D01*
X033126Y009306D02*
X032914Y009306D01*
X032861Y009465D02*
X033171Y009465D01*
X033523Y009465D02*
X033639Y009465D01*
X033639Y009306D02*
X033523Y009306D01*
X033992Y009465D02*
X039250Y009465D01*
X039250Y009623D02*
X037675Y009623D01*
X037642Y009602D02*
X037740Y009664D01*
X037830Y009736D01*
X037912Y009818D01*
X037984Y009908D01*
X038046Y010006D01*
X038096Y010110D01*
X038134Y010219D01*
X038160Y010332D01*
X038170Y010425D01*
X037223Y010425D01*
X037223Y009477D01*
X037316Y009488D01*
X037428Y009514D01*
X037538Y009552D01*
X037642Y009602D01*
X037876Y009782D02*
X039250Y009782D01*
X039250Y009940D02*
X038004Y009940D01*
X038090Y010099D02*
X039250Y010099D01*
X039250Y010257D02*
X038143Y010257D01*
X038169Y010416D02*
X039250Y010416D01*
X039250Y010574D02*
X037223Y010574D01*
X037223Y010416D02*
X037063Y010416D01*
X037063Y010425D02*
X037063Y009477D01*
X036970Y009488D01*
X036857Y009514D01*
X036748Y009552D01*
X036644Y009602D01*
X036546Y009664D01*
X036455Y009736D01*
X036374Y009818D01*
X036302Y009908D01*
X036240Y010006D01*
X036190Y010110D01*
X036152Y010219D01*
X036126Y010332D01*
X036115Y010425D01*
X037063Y010425D01*
X037063Y010574D02*
X035791Y010574D01*
X035791Y010416D02*
X036116Y010416D01*
X036143Y010257D02*
X035760Y010257D01*
X035712Y010099D02*
X036195Y010099D01*
X036281Y009940D02*
X035621Y009940D01*
X035486Y009782D02*
X036410Y009782D01*
X036611Y009623D02*
X035273Y009623D01*
X034288Y009623D02*
X032580Y009623D01*
X032580Y009782D02*
X034076Y009782D01*
X033941Y009940D02*
X032580Y009940D01*
X032654Y010099D02*
X032678Y010099D01*
X032996Y010099D02*
X033033Y010099D01*
X033033Y010257D02*
X032996Y010257D01*
X033351Y010099D02*
X033849Y010099D01*
X033801Y010257D02*
X033411Y010257D01*
X032180Y010073D02*
X032180Y009814D01*
X032094Y009850D01*
X031966Y009850D01*
X031849Y009801D01*
X031759Y009711D01*
X031710Y009594D01*
X031710Y009493D01*
X030897Y008680D01*
X030780Y008563D01*
X030780Y008233D01*
X030761Y008251D01*
X030644Y008300D01*
X030543Y008300D01*
X030363Y008480D01*
X029638Y008480D01*
X029563Y008486D01*
X029556Y008480D01*
X029547Y008480D01*
X029494Y008427D01*
X029412Y008357D01*
X029412Y008357D01*
X029206Y008180D01*
X029197Y008180D01*
X029144Y008127D01*
X029087Y008078D01*
X029086Y008069D01*
X029080Y008063D01*
X029080Y007988D01*
X029074Y007913D01*
X029080Y007906D01*
X029080Y007364D01*
X028994Y007400D01*
X028866Y007400D01*
X028830Y007385D01*
X028830Y007763D01*
X028613Y007980D01*
X028113Y007980D01*
X028130Y007997D01*
X030280Y010147D01*
X030280Y010261D01*
X030343Y010261D01*
X030437Y010355D01*
X030437Y011039D01*
X030348Y011127D01*
X030717Y011127D01*
X030811Y011221D01*
X030811Y011905D01*
X030745Y011971D01*
X030807Y012032D01*
X030807Y012221D01*
X031047Y011980D01*
X031299Y011980D01*
X031299Y011821D01*
X031393Y011727D01*
X031762Y011727D01*
X031673Y011639D01*
X031673Y010955D01*
X031767Y010861D01*
X031830Y010861D01*
X031830Y010647D01*
X031969Y010508D01*
X031969Y010167D01*
X032063Y010073D01*
X032180Y010073D01*
X032180Y009940D02*
X030073Y009940D01*
X030231Y010099D02*
X032037Y010099D01*
X031969Y010257D02*
X030280Y010257D01*
X030437Y010416D02*
X031969Y010416D01*
X031903Y010574D02*
X030437Y010574D01*
X030437Y010733D02*
X031830Y010733D01*
X031737Y010891D02*
X030437Y010891D01*
X030426Y011050D02*
X031673Y011050D01*
X031673Y011208D02*
X030798Y011208D01*
X030811Y011367D02*
X031673Y011367D01*
X031673Y011525D02*
X030811Y011525D01*
X030811Y011684D02*
X031718Y011684D01*
X031299Y011842D02*
X030811Y011842D01*
X030775Y012001D02*
X031027Y012001D01*
X030868Y012159D02*
X030807Y012159D01*
X031117Y012476D02*
X031299Y012476D01*
X030958Y012635D02*
X031852Y012635D01*
X032858Y012635D02*
X033252Y012635D01*
X033410Y012793D02*
X030807Y012793D01*
X030807Y012952D02*
X033569Y012952D01*
X033597Y013110D02*
X030807Y013110D01*
X030766Y013269D02*
X033510Y013269D01*
X033524Y013427D02*
X030630Y013427D01*
X030630Y013586D02*
X033633Y013586D01*
X034111Y013744D02*
X030630Y013744D01*
X030630Y013903D02*
X034270Y013903D01*
X034428Y014061D02*
X030630Y014061D01*
X030630Y014220D02*
X034587Y014220D01*
X034745Y014378D02*
X030630Y014378D01*
X030630Y014537D02*
X032509Y014537D01*
X032506Y014539D02*
X032539Y014506D01*
X032581Y014482D01*
X032626Y014470D01*
X033350Y014470D01*
X033350Y015350D01*
X033510Y015350D01*
X033510Y015510D01*
X034390Y015510D01*
X034390Y016234D01*
X034378Y016279D01*
X034354Y016321D01*
X034321Y016354D01*
X034279Y016378D01*
X034234Y016390D01*
X033510Y016390D01*
X033510Y015510D01*
X033350Y015510D01*
X033350Y016390D01*
X032626Y016390D01*
X032581Y016378D01*
X032539Y016354D01*
X032506Y016321D01*
X032482Y016279D01*
X032470Y016234D01*
X032470Y015510D01*
X033350Y015510D01*
X033350Y015350D01*
X032470Y015350D01*
X032470Y014626D01*
X032482Y014581D01*
X032506Y014539D01*
X032470Y014695D02*
X030630Y014695D01*
X030230Y014695D02*
X029380Y014695D01*
X029380Y014854D02*
X030123Y014854D01*
X030123Y015012D02*
X029380Y015012D01*
X029380Y015171D02*
X030123Y015171D01*
X030123Y015329D02*
X029380Y015329D01*
X029305Y015488D02*
X030123Y015488D01*
X030123Y015646D02*
X029147Y015646D01*
X028988Y015805D02*
X030123Y015805D01*
X030123Y015963D02*
X028830Y015963D01*
X028671Y016122D02*
X030200Y016122D01*
X031460Y016122D02*
X032470Y016122D01*
X032483Y016280D02*
X028513Y016280D01*
X028354Y016439D02*
X037330Y016439D01*
X037330Y016386D02*
X037459Y016074D01*
X037699Y015834D01*
X038011Y015705D01*
X038349Y015705D01*
X038661Y015834D01*
X038661Y015834D01*
X038901Y016074D01*
X039030Y016386D01*
X039030Y016505D01*
X039030Y016724D01*
X038901Y017036D01*
X038901Y017036D01*
X038661Y017276D01*
X038349Y017405D01*
X038011Y017405D01*
X037699Y017276D01*
X037459Y017036D01*
X037330Y016724D01*
X037330Y016386D01*
X037374Y016280D02*
X034377Y016280D01*
X034390Y016122D02*
X035400Y016122D01*
X035416Y016137D02*
X035323Y016044D01*
X035323Y014816D01*
X035416Y014723D01*
X036644Y014723D01*
X036737Y014816D01*
X036737Y016044D01*
X036644Y016137D01*
X035416Y016137D01*
X035323Y015963D02*
X034390Y015963D01*
X034390Y015805D02*
X035323Y015805D01*
X035323Y015646D02*
X034390Y015646D01*
X034390Y015350D02*
X033510Y015350D01*
X033510Y014470D01*
X034234Y014470D01*
X034279Y014482D01*
X034321Y014506D01*
X034354Y014539D01*
X034378Y014581D01*
X034390Y014626D01*
X034390Y015350D01*
X034390Y015329D02*
X035323Y015329D01*
X035323Y015171D02*
X034390Y015171D01*
X034390Y015012D02*
X035323Y015012D01*
X035323Y014854D02*
X034390Y014854D01*
X034390Y014695D02*
X037162Y014695D01*
X037264Y014854D02*
X036737Y014854D01*
X036737Y015012D02*
X037333Y015012D01*
X036737Y015171D02*
X039250Y015171D01*
X039250Y015329D02*
X036737Y015329D01*
X036737Y015488D02*
X039250Y015488D01*
X039250Y015646D02*
X036737Y015646D01*
X036737Y015805D02*
X037771Y015805D01*
X037699Y015834D02*
X037699Y015834D01*
X037570Y015963D02*
X036737Y015963D01*
X036660Y016122D02*
X037440Y016122D01*
X037459Y016074D02*
X037459Y016074D01*
X037330Y016597D02*
X024215Y016597D01*
X024254Y016439D02*
X025256Y016439D01*
X025097Y016280D02*
X024247Y016280D01*
X024241Y016244D02*
X024256Y016334D01*
X024256Y016342D01*
X023714Y016342D01*
X023714Y015800D01*
X023721Y015800D01*
X023811Y015814D01*
X023898Y015842D01*
X023980Y015884D01*
X024054Y015938D01*
X024118Y016002D01*
X024172Y016076D01*
X024213Y016157D01*
X024241Y016244D01*
X024195Y016122D02*
X024939Y016122D01*
X024780Y015963D02*
X024079Y015963D01*
X023714Y015963D02*
X023638Y015963D01*
X023638Y015805D02*
X023714Y015805D01*
X023750Y015805D02*
X024622Y015805D01*
X024463Y015646D02*
X023330Y015646D01*
X023330Y015488D02*
X024305Y015488D01*
X024146Y015329D02*
X023330Y015329D01*
X023330Y015171D02*
X023988Y015171D01*
X023829Y015012D02*
X023331Y015012D01*
X023489Y014854D02*
X023506Y014854D01*
X023601Y015805D02*
X023330Y015805D01*
X023638Y016122D02*
X023714Y016122D01*
X023714Y016280D02*
X023638Y016280D01*
X023638Y016439D02*
X023714Y016439D01*
X023714Y016597D02*
X023638Y016597D01*
X023638Y016756D02*
X023714Y016756D01*
X023714Y016914D02*
X023638Y016914D01*
X023446Y016914D02*
X022829Y016914D01*
X022987Y016756D02*
X023232Y016756D01*
X023905Y016914D02*
X037409Y016914D01*
X037459Y017036D02*
X037459Y017036D01*
X037495Y017073D02*
X022670Y017073D01*
X024120Y016756D02*
X037343Y016756D01*
X037654Y017231D02*
X016212Y017231D01*
X016370Y017073D02*
X017790Y017073D01*
X017631Y016914D02*
X016960Y016914D01*
X017202Y016756D02*
X017473Y016756D01*
X017430Y016597D02*
X017302Y016597D01*
X017346Y016439D02*
X017430Y016439D01*
X017430Y016280D02*
X017346Y016280D01*
X017339Y016122D02*
X017285Y016122D01*
X017180Y015963D02*
X017161Y015963D01*
X017022Y015805D02*
X016930Y015805D01*
X016530Y015805D02*
X014230Y015805D01*
X014230Y015820D02*
X014496Y015820D01*
X014590Y015914D01*
X014590Y016846D01*
X014496Y016940D01*
X013564Y016940D01*
X013470Y016846D01*
X013470Y016680D01*
X012092Y016680D01*
X012100Y016692D01*
X012140Y016769D01*
X012166Y016851D01*
X012180Y016937D01*
X012180Y016980D01*
X012180Y017023D01*
X012166Y017109D01*
X012140Y017191D01*
X012100Y017268D01*
X012092Y017280D01*
X015597Y017280D01*
X016273Y016604D01*
X016226Y016491D01*
X016226Y016269D01*
X016311Y016063D01*
X016469Y015905D01*
X016530Y015880D01*
X016530Y015563D01*
X015059Y014092D01*
X015051Y014111D01*
X014961Y014201D01*
X014844Y014250D01*
X014716Y014250D01*
X014599Y014201D01*
X014595Y014198D01*
X014230Y014563D01*
X014230Y015820D01*
X014230Y015646D02*
X016530Y015646D01*
X016455Y015488D02*
X014230Y015488D01*
X014230Y015329D02*
X016296Y015329D01*
X016138Y015171D02*
X014230Y015171D01*
X014230Y015012D02*
X015979Y015012D01*
X015821Y014854D02*
X014230Y014854D01*
X014230Y014695D02*
X015662Y014695D01*
X015504Y014537D02*
X014256Y014537D01*
X014415Y014378D02*
X015345Y014378D01*
X015187Y014220D02*
X014917Y014220D01*
X014643Y014220D02*
X014573Y014220D01*
X016080Y014220D02*
X017358Y014220D01*
X017199Y014378D02*
X016161Y014378D01*
X016080Y014297D02*
X016601Y014818D01*
X016609Y014799D01*
X016699Y014709D01*
X016816Y014660D01*
X016917Y014660D01*
X017730Y013847D01*
X017730Y012487D01*
X017282Y012487D01*
X017244Y012449D01*
X017222Y012471D01*
X017181Y012495D01*
X017136Y012507D01*
X016914Y012507D01*
X016914Y012148D01*
X016877Y012148D01*
X016877Y012112D01*
X016499Y012112D01*
X016499Y011909D01*
X016511Y011864D01*
X016535Y011823D01*
X016568Y011789D01*
X016609Y011765D01*
X016655Y011753D01*
X016877Y011753D01*
X016877Y012112D01*
X016914Y012112D01*
X016914Y011753D01*
X017136Y011753D01*
X017181Y011765D01*
X017222Y011789D01*
X017244Y011811D01*
X017282Y011773D01*
X017380Y011773D01*
X017380Y011326D01*
X017352Y011326D01*
X017258Y011232D01*
X017258Y010635D01*
X016292Y011601D01*
X016311Y011609D01*
X016401Y011699D01*
X016450Y011816D01*
X016450Y011944D01*
X016401Y012061D01*
X016330Y012133D01*
X016330Y012763D01*
X016170Y012923D01*
X016170Y013406D01*
X016080Y013496D01*
X016080Y014297D01*
X016080Y014061D02*
X017516Y014061D01*
X017675Y013903D02*
X016080Y013903D01*
X016080Y013744D02*
X017730Y013744D01*
X017730Y013586D02*
X016080Y013586D01*
X016149Y013427D02*
X017730Y013427D01*
X017730Y013269D02*
X016170Y013269D01*
X016170Y013110D02*
X017730Y013110D01*
X017730Y012952D02*
X016170Y012952D01*
X016300Y012793D02*
X017730Y012793D01*
X017730Y012635D02*
X016330Y012635D01*
X016330Y012476D02*
X016577Y012476D01*
X016568Y012471D02*
X016535Y012437D01*
X016511Y012396D01*
X016499Y012351D01*
X016499Y012148D01*
X016877Y012148D01*
X016877Y012507D01*
X016655Y012507D01*
X016609Y012495D01*
X016568Y012471D01*
X016499Y012318D02*
X016330Y012318D01*
X016330Y012159D02*
X016499Y012159D01*
X016499Y012001D02*
X016426Y012001D01*
X016450Y011842D02*
X016524Y011842D01*
X016386Y011684D02*
X017380Y011684D01*
X017380Y011525D02*
X016368Y011525D01*
X016526Y011367D02*
X017380Y011367D01*
X017258Y011208D02*
X016685Y011208D01*
X016843Y011050D02*
X017258Y011050D01*
X017258Y010891D02*
X017002Y010891D01*
X017160Y010733D02*
X017258Y010733D01*
X016912Y010416D02*
X016170Y010416D01*
X016170Y010574D02*
X016753Y010574D01*
X016595Y010733D02*
X016170Y010733D01*
X016170Y010891D02*
X016436Y010891D01*
X016278Y011050D02*
X016107Y011050D01*
X016076Y011080D02*
X015684Y011080D01*
X015630Y011026D01*
X015576Y011080D01*
X015184Y011080D01*
X015144Y011040D01*
X015121Y011064D01*
X015079Y011088D01*
X015034Y011100D01*
X014880Y011100D01*
X014880Y010520D01*
X014880Y010520D01*
X014880Y011100D01*
X014726Y011100D01*
X014681Y011088D01*
X014639Y011064D01*
X014616Y011040D01*
X014576Y011080D01*
X014184Y011080D01*
X014130Y011026D01*
X014076Y011080D01*
X013684Y011080D01*
X013644Y011040D01*
X013621Y011064D01*
X013579Y011088D01*
X013534Y011100D01*
X013380Y011100D01*
X013380Y010520D01*
X013380Y010520D01*
X013380Y011100D01*
X013226Y011100D01*
X013181Y011088D01*
X013139Y011064D01*
X013116Y011040D01*
X013076Y011080D01*
X013013Y011080D01*
X013213Y011280D01*
X015477Y011280D01*
X015549Y011209D01*
X015666Y011160D01*
X015794Y011160D01*
X015911Y011209D01*
X016001Y011299D01*
X016009Y011318D01*
X017397Y009930D01*
X017233Y009930D01*
X017161Y010001D01*
X017044Y010050D01*
X016916Y010050D01*
X016799Y010001D01*
X016709Y009911D01*
X016660Y009794D01*
X016660Y009666D01*
X016696Y009579D01*
X016587Y009470D01*
X016248Y009470D01*
X015990Y009212D01*
X015990Y008873D01*
X015930Y008813D01*
X015930Y007707D01*
X015922Y007712D01*
X015876Y007724D01*
X015773Y007724D01*
X015773Y007384D01*
X015773Y007384D01*
X015458Y007384D01*
X015458Y007384D01*
X015718Y007384D01*
X015773Y007384D01*
X015773Y007384D01*
X015773Y007724D01*
X015669Y007724D01*
X015623Y007712D01*
X015615Y007707D01*
X015607Y007712D01*
X015561Y007724D01*
X015458Y007724D01*
X015458Y007384D01*
X015458Y007384D01*
X015198Y007384D01*
X015198Y007280D01*
X013662Y007280D01*
X013662Y007384D01*
X013402Y007384D01*
X013347Y007384D01*
X013087Y007384D01*
X012773Y007384D01*
X012773Y007384D01*
X013033Y007384D01*
X013087Y007384D01*
X013087Y007384D01*
X013087Y007724D01*
X012984Y007724D01*
X012938Y007712D01*
X012930Y007707D01*
X012922Y007712D01*
X012876Y007724D01*
X012773Y007724D01*
X012773Y007384D01*
X012773Y007384D01*
X012458Y007384D01*
X012458Y007384D01*
X012718Y007384D01*
X012773Y007384D01*
X012773Y007384D01*
X012773Y007724D01*
X012669Y007724D01*
X012623Y007712D01*
X012615Y007707D01*
X012607Y007712D01*
X012561Y007724D01*
X012458Y007724D01*
X012458Y007384D01*
X012458Y007384D01*
X012458Y007724D01*
X012354Y007724D01*
X012308Y007712D01*
X012267Y007688D01*
X012234Y007655D01*
X012210Y007614D01*
X012198Y007568D01*
X012198Y007495D01*
X011930Y007763D01*
X011930Y008913D01*
X011888Y008955D01*
X011970Y009037D01*
X011970Y009030D01*
X012430Y009030D01*
X012430Y009030D01*
X012430Y009490D01*
X012621Y009490D01*
X012890Y009221D01*
X012890Y009030D01*
X012430Y009030D01*
X012430Y009030D01*
X012430Y009490D01*
X012423Y009490D01*
X012713Y009780D01*
X012830Y009897D01*
X012830Y009960D01*
X013076Y009960D01*
X013116Y010000D01*
X013139Y009976D01*
X013181Y009952D01*
X013226Y009940D01*
X012830Y009940D01*
X012714Y009782D02*
X016660Y009782D01*
X016678Y009623D02*
X012556Y009623D01*
X012646Y009465D02*
X013214Y009465D01*
X013239Y009490D02*
X012970Y009221D01*
X012970Y009030D01*
X013430Y009030D01*
X013430Y009030D01*
X013430Y009490D01*
X013621Y009490D01*
X013890Y009221D01*
X013890Y009030D01*
X013430Y009030D01*
X013430Y009030D01*
X013430Y009030D01*
X013430Y009490D01*
X013239Y009490D01*
X013430Y009465D02*
X013430Y009465D01*
X013430Y009306D02*
X013430Y009306D01*
X013430Y009148D02*
X013430Y009148D01*
X013430Y009030D02*
X012970Y009030D01*
X012970Y008839D01*
X013239Y008570D01*
X013430Y008570D01*
X013621Y008570D01*
X013890Y008839D01*
X013890Y009030D01*
X013430Y009030D01*
X013430Y008570D01*
X013430Y009030D01*
X013430Y009030D01*
X013430Y008989D02*
X013430Y008989D01*
X013430Y008831D02*
X013430Y008831D01*
X013430Y008672D02*
X013430Y008672D01*
X013723Y008672D02*
X014137Y008672D01*
X014239Y008570D02*
X013970Y008839D01*
X013970Y009030D01*
X014430Y009030D01*
X014430Y009030D01*
X014430Y009490D01*
X014621Y009490D01*
X014890Y009221D01*
X014890Y009030D01*
X014430Y009030D01*
X014430Y009030D01*
X014430Y009030D01*
X014430Y009490D01*
X014239Y009490D01*
X013970Y009221D01*
X013970Y009030D01*
X014430Y009030D01*
X014890Y009030D01*
X014890Y008839D01*
X014621Y008570D01*
X014430Y008570D01*
X014430Y009030D01*
X014430Y009030D01*
X014430Y008570D01*
X014239Y008570D01*
X014430Y008672D02*
X014430Y008672D01*
X014430Y008831D02*
X014430Y008831D01*
X014430Y008989D02*
X014430Y008989D01*
X014430Y009148D02*
X014430Y009148D01*
X014430Y009306D02*
X014430Y009306D01*
X014430Y009465D02*
X014430Y009465D01*
X014646Y009465D02*
X015214Y009465D01*
X015239Y009490D02*
X014970Y009221D01*
X014970Y009030D01*
X015430Y009030D01*
X015430Y009030D01*
X015430Y009490D01*
X015621Y009490D01*
X015890Y009221D01*
X015890Y009030D01*
X015430Y009030D01*
X015430Y009030D01*
X015430Y009030D01*
X015430Y009490D01*
X015239Y009490D01*
X015430Y009465D02*
X015430Y009465D01*
X015430Y009306D02*
X015430Y009306D01*
X015430Y009148D02*
X015430Y009148D01*
X015430Y009030D02*
X014970Y009030D01*
X014970Y008839D01*
X015239Y008570D01*
X015430Y008570D01*
X015621Y008570D01*
X015890Y008839D01*
X015890Y009030D01*
X015430Y009030D01*
X015430Y008570D01*
X015430Y009030D01*
X015430Y009030D01*
X015430Y008989D02*
X015430Y008989D01*
X015430Y008831D02*
X015430Y008831D01*
X015430Y008672D02*
X015430Y008672D01*
X015723Y008672D02*
X015930Y008672D01*
X015930Y008514D02*
X011930Y008514D01*
X011930Y008672D02*
X012137Y008672D01*
X012239Y008570D02*
X011970Y008839D01*
X011970Y009030D01*
X012430Y009030D01*
X012890Y009030D01*
X012890Y008839D01*
X012621Y008570D01*
X012430Y008570D01*
X012430Y009030D01*
X012430Y009030D01*
X012430Y009030D01*
X012430Y008570D01*
X012239Y008570D01*
X012430Y008672D02*
X012430Y008672D01*
X012430Y008831D02*
X012430Y008831D01*
X012430Y008989D02*
X012430Y008989D01*
X012430Y009148D02*
X012430Y009148D01*
X012430Y009306D02*
X012430Y009306D01*
X012430Y009465D02*
X012430Y009465D01*
X012805Y009306D02*
X013055Y009306D01*
X012970Y009148D02*
X012890Y009148D01*
X012890Y008989D02*
X012970Y008989D01*
X012979Y008831D02*
X012881Y008831D01*
X012723Y008672D02*
X013137Y008672D01*
X013881Y008831D02*
X013979Y008831D01*
X013970Y008989D02*
X013890Y008989D01*
X013890Y009148D02*
X013970Y009148D01*
X014055Y009306D02*
X013805Y009306D01*
X013646Y009465D02*
X014214Y009465D01*
X014805Y009306D02*
X015055Y009306D01*
X014970Y009148D02*
X014890Y009148D01*
X014890Y008989D02*
X014970Y008989D01*
X014979Y008831D02*
X014881Y008831D01*
X014723Y008672D02*
X015137Y008672D01*
X015881Y008831D02*
X015948Y008831D01*
X015990Y008989D02*
X015890Y008989D01*
X015890Y009148D02*
X015990Y009148D01*
X016084Y009306D02*
X015805Y009306D01*
X015646Y009465D02*
X016242Y009465D01*
X016076Y009960D02*
X015684Y009960D01*
X015630Y010014D01*
X015576Y009960D01*
X015184Y009960D01*
X015144Y010000D01*
X015121Y009976D01*
X015079Y009952D01*
X015034Y009940D01*
X016737Y009940D01*
X017223Y009940D02*
X017387Y009940D01*
X017229Y010099D02*
X016170Y010099D01*
X016170Y010054D02*
X016170Y010986D01*
X016076Y011080D01*
X016119Y011208D02*
X015910Y011208D01*
X015653Y011050D02*
X015607Y011050D01*
X015550Y011208D02*
X013141Y011208D01*
X013125Y011050D02*
X013107Y011050D01*
X013380Y011050D02*
X013380Y011050D01*
X013380Y010891D02*
X013380Y010891D01*
X013380Y010733D02*
X013380Y010733D01*
X013380Y010574D02*
X013380Y010574D01*
X013380Y010520D02*
X013380Y009940D01*
X013534Y009940D01*
X014726Y009940D01*
X014880Y009940D01*
X015034Y009940D01*
X014880Y009940D02*
X014880Y009940D01*
X014880Y010520D01*
X014880Y010520D01*
X014880Y009940D01*
X014726Y009940D02*
X014681Y009952D01*
X014639Y009976D01*
X014616Y010000D01*
X014576Y009960D01*
X014184Y009960D01*
X014130Y010014D01*
X014076Y009960D01*
X013684Y009960D01*
X013644Y010000D01*
X013621Y009976D01*
X013579Y009952D01*
X013534Y009940D01*
X013380Y009940D02*
X013380Y009940D01*
X013380Y010520D01*
X013380Y010520D01*
X013380Y010416D02*
X013380Y010416D01*
X013380Y010257D02*
X013380Y010257D01*
X013380Y010099D02*
X013380Y010099D01*
X013380Y009940D02*
X013226Y009940D01*
X012307Y009940D02*
X011732Y009365D01*
X011732Y009869D01*
X011638Y009962D01*
X010030Y009962D01*
X010030Y010154D01*
X011638Y010154D01*
X011732Y010248D01*
X011732Y010549D01*
X012070Y010887D01*
X012070Y010520D01*
X012380Y010520D01*
X012380Y010520D01*
X012380Y011100D01*
X012467Y011100D01*
X012930Y011563D01*
X012947Y011580D01*
X012763Y011580D01*
X012283Y011100D01*
X012380Y011100D01*
X012380Y010520D01*
X012380Y010520D01*
X012070Y010520D01*
X012070Y010096D01*
X012082Y010051D01*
X012106Y010009D01*
X012139Y009976D01*
X012181Y009952D01*
X012226Y009940D01*
X011660Y009940D01*
X011732Y009782D02*
X012149Y009782D01*
X012226Y009940D02*
X012307Y009940D01*
X012070Y010099D02*
X010030Y010099D01*
X009430Y010099D02*
X008794Y010099D01*
X008636Y010257D02*
X009430Y010257D01*
X009430Y010416D02*
X008477Y010416D01*
X008319Y010574D02*
X009430Y010574D01*
X009430Y010733D02*
X008160Y010733D01*
X008002Y010891D02*
X009430Y010891D01*
X009430Y011050D02*
X007843Y011050D01*
X007685Y011208D02*
X009430Y011208D01*
X009430Y011367D02*
X007526Y011367D01*
X007368Y011525D02*
X009430Y011525D01*
X009430Y011663D02*
X009430Y009463D01*
X006030Y012863D01*
X006030Y014750D01*
X006072Y014720D01*
X006149Y014680D01*
X006231Y014654D01*
X006317Y014640D01*
X006340Y014640D01*
X006340Y015170D01*
X006380Y015170D01*
X006380Y015210D01*
X006340Y015210D01*
X006340Y015740D01*
X006317Y015740D01*
X006231Y015726D01*
X006149Y015700D01*
X006072Y015660D01*
X006030Y015630D01*
X006030Y016550D01*
X006060Y016521D01*
X006255Y016440D01*
X006337Y016440D01*
X007397Y015380D01*
X008125Y015380D01*
X008110Y015344D01*
X008110Y015216D01*
X008159Y015099D01*
X008230Y015027D01*
X008230Y014297D01*
X009837Y012690D01*
X009837Y012216D01*
X009923Y012130D01*
X009897Y012130D01*
X009547Y011780D01*
X009430Y011663D01*
X009451Y011684D02*
X007209Y011684D01*
X007051Y011842D02*
X009609Y011842D01*
X009768Y012001D02*
X006892Y012001D01*
X006734Y012159D02*
X009894Y012159D01*
X009837Y012318D02*
X006575Y012318D01*
X006417Y012476D02*
X009837Y012476D01*
X009837Y012635D02*
X006258Y012635D01*
X006100Y012793D02*
X009734Y012793D01*
X009576Y012952D02*
X006030Y012952D01*
X006030Y013110D02*
X009417Y013110D01*
X009259Y013269D02*
X006030Y013269D01*
X006030Y013427D02*
X009100Y013427D01*
X008942Y013586D02*
X006030Y013586D01*
X006030Y013744D02*
X008783Y013744D01*
X008625Y013903D02*
X006030Y013903D01*
X006030Y014061D02*
X008466Y014061D01*
X008308Y014220D02*
X006030Y014220D01*
X006030Y014378D02*
X008230Y014378D01*
X008230Y014537D02*
X006030Y014537D01*
X006030Y014695D02*
X006120Y014695D01*
X006340Y014695D02*
X006380Y014695D01*
X006380Y014640D02*
X006403Y014640D01*
X006489Y014654D01*
X006571Y014680D01*
X006648Y014720D01*
X006718Y014770D01*
X006780Y014832D01*
X006830Y014902D01*
X006870Y014979D01*
X006896Y015061D01*
X006910Y015147D01*
X006910Y015170D01*
X006380Y015170D01*
X006380Y014640D01*
X006380Y014854D02*
X006340Y014854D01*
X006340Y015012D02*
X006380Y015012D01*
X006380Y015171D02*
X008129Y015171D01*
X008110Y015329D02*
X006893Y015329D01*
X006896Y015319D02*
X006870Y015401D01*
X006830Y015478D01*
X006780Y015548D01*
X006718Y015610D01*
X006648Y015660D01*
X006571Y015700D01*
X006489Y015726D01*
X006403Y015740D01*
X006380Y015740D01*
X006380Y015210D01*
X006910Y015210D01*
X006910Y015233D01*
X006896Y015319D01*
X006824Y015488D02*
X007290Y015488D01*
X007131Y015646D02*
X006668Y015646D01*
X006380Y015646D02*
X006340Y015646D01*
X006340Y015488D02*
X006380Y015488D01*
X006380Y015329D02*
X006340Y015329D01*
X006052Y015646D02*
X006030Y015646D01*
X006030Y015805D02*
X006973Y015805D01*
X006814Y015963D02*
X006030Y015963D01*
X006030Y016122D02*
X006656Y016122D01*
X006497Y016280D02*
X006030Y016280D01*
X006030Y016439D02*
X006339Y016439D01*
X005630Y016439D02*
X002530Y016439D01*
X002530Y016386D02*
X002530Y016724D01*
X002401Y017036D01*
X002401Y017036D01*
X002161Y017276D01*
X001849Y017405D01*
X001511Y017405D01*
X001199Y017276D01*
X001199Y017276D01*
X000959Y017036D01*
X000830Y016724D01*
X000830Y016386D01*
X000959Y016074D01*
X001199Y015834D01*
X001511Y015705D01*
X001730Y015705D01*
X001849Y015705D01*
X001849Y015705D01*
X002161Y015834D01*
X002161Y015834D01*
X002401Y016074D01*
X002530Y016386D01*
X002486Y016280D02*
X005630Y016280D01*
X005630Y016122D02*
X002420Y016122D01*
X002401Y016074D02*
X002401Y016074D01*
X002290Y015963D02*
X005630Y015963D01*
X005630Y015805D02*
X002089Y015805D01*
X001927Y015337D02*
X002422Y015337D01*
X002468Y015325D01*
X002509Y015301D01*
X002543Y015267D01*
X002566Y015226D01*
X002579Y015180D01*
X002579Y014843D01*
X001927Y014843D01*
X001767Y014843D01*
X001767Y014683D01*
X001116Y014683D01*
X001116Y014346D01*
X001128Y014300D01*
X001152Y014259D01*
X001186Y014225D01*
X001227Y014202D01*
X001272Y014189D01*
X001767Y014189D01*
X001767Y014683D01*
X001927Y014683D01*
X001927Y014189D01*
X002422Y014189D01*
X002468Y014202D01*
X002509Y014225D01*
X002543Y014259D01*
X002566Y014300D01*
X002579Y014346D01*
X002579Y014683D01*
X001927Y014683D01*
X001927Y014843D01*
X001927Y015337D01*
X001927Y015329D02*
X001767Y015329D01*
X001767Y015337D02*
X001272Y015337D01*
X001227Y015325D01*
X001186Y015301D01*
X001152Y015267D01*
X001128Y015226D01*
X001116Y015180D01*
X001116Y014843D01*
X001767Y014843D01*
X001767Y015337D01*
X001767Y015171D02*
X001927Y015171D01*
X001927Y015012D02*
X001767Y015012D01*
X001767Y014854D02*
X001927Y014854D01*
X001927Y014695D02*
X003610Y014695D01*
X003695Y014660D02*
X003500Y014741D01*
X003351Y014890D01*
X003270Y015085D01*
X003270Y015295D01*
X003351Y015490D01*
X003500Y015639D01*
X003695Y015720D01*
X003905Y015720D01*
X004100Y015639D01*
X004249Y015490D01*
X004330Y015295D01*
X004330Y015085D01*
X004249Y014890D01*
X004100Y014741D01*
X003905Y014660D01*
X003695Y014660D01*
X003990Y014695D02*
X005630Y014695D01*
X005630Y014537D02*
X002579Y014537D01*
X002579Y014378D02*
X005630Y014378D01*
X005630Y014220D02*
X002499Y014220D01*
X001927Y014220D02*
X001767Y014220D01*
X001767Y014378D02*
X001927Y014378D01*
X001927Y014537D02*
X001767Y014537D01*
X001767Y014695D02*
X000614Y014695D01*
X000614Y014537D02*
X001116Y014537D01*
X001116Y014378D02*
X000614Y014378D01*
X000614Y014220D02*
X001196Y014220D01*
X000614Y014061D02*
X005630Y014061D01*
X005630Y013903D02*
X000614Y013903D01*
X000614Y013744D02*
X005630Y013744D01*
X005630Y013586D02*
X000614Y013586D01*
X000614Y013427D02*
X005630Y013427D01*
X005630Y013269D02*
X000614Y013269D01*
X000614Y013110D02*
X005630Y013110D01*
X005630Y012952D02*
X000614Y012952D01*
X000614Y012793D02*
X005630Y012793D01*
X005693Y012635D02*
X000614Y012635D01*
X000614Y012476D02*
X005851Y012476D01*
X006010Y012318D02*
X000614Y012318D01*
X000614Y012159D02*
X006168Y012159D01*
X006327Y012001D02*
X000614Y012001D01*
X000614Y011842D02*
X006485Y011842D01*
X006644Y011684D02*
X000614Y011684D01*
X000614Y011525D02*
X006802Y011525D01*
X006961Y011367D02*
X000614Y011367D01*
X000614Y011208D02*
X007119Y011208D01*
X007278Y011050D02*
X000614Y011050D01*
X000614Y010891D02*
X007436Y010891D01*
X007595Y010733D02*
X000614Y010733D01*
X000614Y010574D02*
X007753Y010574D01*
X007912Y010416D02*
X000614Y010416D01*
X000614Y010257D02*
X008070Y010257D01*
X008229Y010099D02*
X000614Y010099D01*
X000614Y009940D02*
X008387Y009940D01*
X008546Y009782D02*
X000614Y009782D01*
X000614Y009623D02*
X008704Y009623D01*
X008863Y009465D02*
X000614Y009465D01*
X000614Y009306D02*
X008736Y009306D01*
X008710Y009148D02*
X000614Y009148D01*
X000614Y008989D02*
X008768Y008989D01*
X008830Y008831D02*
X000614Y008831D01*
X000614Y008672D02*
X008830Y008672D01*
X008830Y008514D02*
X000614Y008514D01*
X000614Y008355D02*
X008830Y008355D01*
X008830Y008197D02*
X000614Y008197D01*
X000614Y008038D02*
X008830Y008038D01*
X008830Y007880D02*
X000614Y007880D01*
X000614Y007721D02*
X008830Y007721D01*
X008830Y007563D02*
X000614Y007563D01*
X000614Y007404D02*
X008830Y007404D01*
X008830Y007246D02*
X000614Y007246D01*
X000614Y007087D02*
X008830Y007087D01*
X008830Y006929D02*
X000614Y006929D01*
X000614Y006770D02*
X008737Y006770D01*
X008579Y006612D02*
X000614Y006612D01*
X000614Y006453D02*
X008420Y006453D01*
X008262Y006295D02*
X000614Y006295D01*
X000614Y006136D02*
X008103Y006136D01*
X007945Y005978D02*
X000614Y005978D01*
X000614Y005819D02*
X007786Y005819D01*
X007628Y005661D02*
X000614Y005661D01*
X000614Y005502D02*
X007469Y005502D01*
X007311Y005344D02*
X000614Y005344D01*
X000614Y005185D02*
X007152Y005185D01*
X006994Y005027D02*
X000614Y005027D01*
X000614Y004868D02*
X006835Y004868D01*
X006677Y004710D02*
X000614Y004710D01*
X000614Y004551D02*
X006518Y004551D01*
X006360Y004393D02*
X000614Y004393D01*
X000614Y004234D02*
X001136Y004234D01*
X001136Y004239D02*
X001136Y003319D01*
X001230Y003225D01*
X002465Y003225D01*
X002559Y003319D01*
X002559Y004239D01*
X002465Y004333D01*
X001230Y004333D01*
X001136Y004239D01*
X001136Y004076D02*
X000614Y004076D01*
X000614Y003917D02*
X001136Y003917D01*
X001136Y003759D02*
X000614Y003759D01*
X000614Y003600D02*
X001136Y003600D01*
X001136Y003442D02*
X000614Y003442D01*
X000614Y003283D02*
X001172Y003283D01*
X000614Y003125D02*
X002946Y003125D01*
X002950Y003121D02*
X003145Y003040D01*
X003355Y003040D01*
X003550Y003121D01*
X003699Y003270D01*
X003780Y003465D01*
X003780Y003675D01*
X003699Y003870D01*
X003550Y004019D01*
X003355Y004100D01*
X003145Y004100D01*
X002950Y004019D01*
X002801Y003870D01*
X002720Y003675D01*
X002720Y003465D01*
X002801Y003270D01*
X002950Y003121D01*
X002795Y003283D02*
X002523Y003283D01*
X002559Y003442D02*
X002730Y003442D01*
X002720Y003600D02*
X002559Y003600D01*
X002559Y003759D02*
X002754Y003759D01*
X002847Y003917D02*
X002559Y003917D01*
X002559Y004076D02*
X003085Y004076D01*
X003415Y004076D02*
X005645Y004076D01*
X005407Y003917D02*
X003653Y003917D01*
X003746Y003759D02*
X005314Y003759D01*
X005280Y003600D02*
X003780Y003600D01*
X003770Y003442D02*
X005290Y003442D01*
X005355Y003283D02*
X003705Y003283D01*
X003554Y003125D02*
X005506Y003125D01*
X006114Y003125D02*
X009542Y003125D01*
X009700Y003283D02*
X006265Y003283D01*
X006330Y003442D02*
X009859Y003442D01*
X010017Y003600D02*
X006340Y003600D01*
X006306Y003759D02*
X010176Y003759D01*
X010334Y003917D02*
X006450Y003917D01*
X006608Y004076D02*
X010493Y004076D01*
X010567Y004150D02*
X008852Y002435D01*
X008719Y002490D01*
X008497Y002490D01*
X008291Y002405D01*
X008133Y002247D01*
X008048Y002041D01*
X008048Y001819D01*
X008133Y001613D01*
X008291Y001455D01*
X008497Y001370D01*
X008719Y001370D01*
X008925Y001455D01*
X009083Y001613D01*
X009168Y001819D01*
X009168Y002041D01*
X009126Y002143D01*
X011813Y004830D01*
X012008Y004830D01*
X012248Y004590D01*
X012612Y004590D01*
X012870Y004848D01*
X012870Y005212D01*
X012612Y005470D01*
X012248Y005470D01*
X012008Y005230D01*
X011647Y005230D01*
X010807Y004390D01*
X010807Y004644D01*
X010156Y004644D01*
X010156Y004804D01*
X010807Y004804D01*
X010807Y005141D01*
X010795Y005187D01*
X010771Y005228D01*
X010766Y005233D01*
X011638Y005233D01*
X011732Y005327D01*
X011732Y005932D01*
X011638Y006025D01*
X009931Y006025D01*
X009899Y005994D01*
X009884Y006009D01*
X009702Y006085D01*
X009505Y006085D01*
X009323Y006009D01*
X009184Y005870D01*
X009108Y005688D01*
X009108Y005491D01*
X009184Y005309D01*
X009323Y005170D01*
X009349Y005159D01*
X009344Y005141D01*
X009344Y004804D01*
X009996Y004804D01*
X009996Y004644D01*
X009344Y004644D01*
X009344Y004306D01*
X009357Y004261D01*
X009380Y004219D01*
X009414Y004186D01*
X009455Y004162D01*
X009501Y004150D01*
X009996Y004150D01*
X009996Y004644D01*
X010156Y004644D01*
X010156Y004150D01*
X010567Y004150D01*
X010900Y003917D02*
X013930Y003917D01*
X013930Y003759D02*
X010741Y003759D01*
X010583Y003600D02*
X013930Y003600D01*
X013930Y003442D02*
X010424Y003442D01*
X010266Y003283D02*
X013930Y003283D01*
X013930Y003125D02*
X010107Y003125D01*
X009949Y002966D02*
X013930Y002966D01*
X013930Y002808D02*
X009790Y002808D01*
X009632Y002649D02*
X011016Y002649D01*
X010858Y002491D02*
X009473Y002491D01*
X009596Y002332D02*
X009315Y002332D01*
X009156Y002174D02*
X009481Y002174D01*
X009426Y002015D02*
X009168Y002015D01*
X009168Y001857D02*
X009426Y001857D01*
X009476Y001698D02*
X009118Y001698D01*
X009009Y001540D02*
X009584Y001540D01*
X009848Y001381D02*
X008746Y001381D01*
X008470Y001381D02*
X007732Y001381D01*
X007741Y001386D02*
X007774Y001419D01*
X007798Y001461D01*
X007810Y001506D01*
X007810Y001892D01*
X007268Y001892D01*
X007268Y001968D01*
X007810Y001968D01*
X007810Y002354D01*
X007798Y002399D01*
X007774Y002441D01*
X007741Y002474D01*
X007699Y002498D01*
X007654Y002510D01*
X007268Y002510D01*
X007268Y001968D01*
X007192Y001968D01*
X007192Y001892D01*
X007268Y001892D01*
X007268Y001350D01*
X007654Y001350D01*
X007699Y001362D01*
X007741Y001386D01*
X007810Y001540D02*
X008206Y001540D01*
X008098Y001698D02*
X007810Y001698D01*
X007810Y001857D02*
X008048Y001857D01*
X008048Y002015D02*
X007810Y002015D01*
X007810Y002174D02*
X008103Y002174D01*
X008218Y002332D02*
X007810Y002332D01*
X007712Y002491D02*
X008908Y002491D01*
X009066Y002649D02*
X000614Y002649D01*
X000614Y002491D02*
X001416Y002491D01*
X001511Y002530D02*
X001199Y002401D01*
X001199Y002401D01*
X000959Y002161D01*
X000830Y001849D01*
X000830Y001511D01*
X000959Y001199D01*
X000959Y001199D01*
X001199Y000959D01*
X001511Y000830D01*
X001630Y000830D01*
X001849Y000830D01*
X002161Y000959D01*
X002161Y000959D01*
X002401Y001199D01*
X002530Y001511D01*
X002530Y001849D01*
X002401Y002161D01*
X002401Y002161D01*
X002161Y002401D01*
X001849Y002530D01*
X001511Y002530D01*
X001130Y002332D02*
X000614Y002332D01*
X000614Y002174D02*
X000971Y002174D01*
X000959Y002161D02*
X000959Y002161D01*
X000899Y002015D02*
X000614Y002015D01*
X000614Y001857D02*
X000833Y001857D01*
X000830Y001698D02*
X000614Y001698D01*
X000615Y001540D02*
X000830Y001540D01*
X000884Y001381D02*
X000633Y001381D01*
X000684Y001223D02*
X000949Y001223D01*
X001094Y001064D02*
X000760Y001064D01*
X000875Y000906D02*
X001329Y000906D01*
X001199Y000959D02*
X001199Y000959D01*
X002031Y000906D02*
X029806Y000906D01*
X028717Y001580D02*
X028362Y001580D01*
X028395Y001626D01*
X028437Y001707D01*
X028465Y001794D01*
X028479Y001884D01*
X028479Y001892D01*
X027937Y001892D01*
X027937Y001968D01*
X027861Y001968D01*
X027861Y001892D01*
X027319Y001892D01*
X027319Y001884D01*
X027334Y001794D01*
X027362Y001707D01*
X027403Y001626D01*
X027437Y001580D01*
X026963Y001580D01*
X026996Y001613D01*
X027081Y001819D01*
X027081Y002041D01*
X026996Y002247D01*
X026839Y002405D01*
X026633Y002490D01*
X026410Y002490D01*
X026330Y002457D01*
X026330Y003127D01*
X026401Y003199D01*
X026450Y003316D01*
X026450Y003444D01*
X026401Y003561D01*
X026393Y003570D01*
X026416Y003560D01*
X026544Y003560D01*
X026661Y003609D01*
X026733Y003680D01*
X027197Y003680D01*
X028717Y002160D01*
X028717Y001580D01*
X028717Y001698D02*
X028432Y001698D01*
X028475Y001857D02*
X028717Y001857D01*
X028717Y002015D02*
X028473Y002015D01*
X028479Y001976D02*
X028465Y002066D01*
X028437Y002153D01*
X028395Y002234D01*
X028342Y002308D01*
X028277Y002372D01*
X028203Y002426D01*
X028122Y002468D01*
X028035Y002496D01*
X027945Y002510D01*
X027937Y002510D01*
X027937Y001968D01*
X028479Y001968D01*
X028479Y001976D01*
X028426Y002174D02*
X028704Y002174D01*
X028545Y002332D02*
X028318Y002332D01*
X028387Y002491D02*
X028051Y002491D01*
X027937Y002491D02*
X027861Y002491D01*
X027861Y002510D02*
X027854Y002510D01*
X027763Y002496D01*
X027677Y002468D01*
X027595Y002426D01*
X027521Y002372D01*
X027457Y002308D01*
X027403Y002234D01*
X027362Y002153D01*
X027334Y002066D01*
X027319Y001976D01*
X027319Y001968D01*
X027861Y001968D01*
X027861Y002510D01*
X027747Y002491D02*
X026330Y002491D01*
X026330Y002649D02*
X028228Y002649D01*
X028070Y002808D02*
X026330Y002808D01*
X026330Y002966D02*
X027911Y002966D01*
X027753Y003125D02*
X026330Y003125D01*
X026436Y003283D02*
X027594Y003283D01*
X027436Y003442D02*
X026450Y003442D01*
X026640Y003600D02*
X027277Y003600D01*
X027684Y003759D02*
X029919Y003759D01*
X029930Y003747D02*
X029930Y001863D01*
X029837Y001770D01*
X029837Y002396D01*
X029744Y002490D01*
X028953Y002490D01*
X027363Y004080D01*
X026733Y004080D01*
X026661Y004151D01*
X026642Y004159D01*
X027513Y005030D01*
X028432Y005030D01*
X028432Y004762D01*
X028526Y004668D01*
X028934Y004668D01*
X028972Y004706D01*
X029930Y003747D01*
X029930Y003600D02*
X027843Y003600D01*
X028001Y003442D02*
X029930Y003442D01*
X029930Y003283D02*
X028160Y003283D01*
X028318Y003125D02*
X029930Y003125D01*
X029930Y002966D02*
X028477Y002966D01*
X028635Y002808D02*
X029930Y002808D01*
X029930Y002649D02*
X028794Y002649D01*
X028952Y002491D02*
X029930Y002491D01*
X029930Y002332D02*
X029837Y002332D01*
X029837Y002174D02*
X029930Y002174D01*
X029930Y002015D02*
X029837Y002015D01*
X029837Y001857D02*
X029924Y001857D01*
X027937Y002015D02*
X027861Y002015D01*
X027861Y002174D02*
X027937Y002174D01*
X027937Y002332D02*
X027861Y002332D01*
X027481Y002332D02*
X026911Y002332D01*
X027027Y002174D02*
X027372Y002174D01*
X027326Y002015D02*
X027081Y002015D01*
X027081Y001857D02*
X027324Y001857D01*
X027367Y001698D02*
X027031Y001698D01*
X025930Y002930D02*
X024463Y002930D01*
X023363Y004030D01*
X023797Y004030D01*
X024647Y003180D01*
X024813Y003180D01*
X025175Y003180D01*
X025209Y003099D01*
X025299Y003009D01*
X025416Y002960D01*
X025544Y002960D01*
X025661Y003009D01*
X025751Y003099D01*
X025800Y003216D01*
X025800Y003317D01*
X025810Y003327D01*
X025810Y003316D01*
X025859Y003199D01*
X025930Y003127D01*
X025930Y002930D01*
X025930Y002966D02*
X025558Y002966D01*
X025402Y002966D02*
X024427Y002966D01*
X024268Y003125D02*
X025198Y003125D01*
X024544Y003283D02*
X024110Y003283D01*
X023951Y003442D02*
X024386Y003442D01*
X024227Y003600D02*
X023793Y003600D01*
X023634Y003759D02*
X024069Y003759D01*
X023910Y003917D02*
X023476Y003917D01*
X024313Y004730D02*
X024486Y004557D01*
X024509Y004611D01*
X024599Y004701D01*
X024716Y004750D01*
X024760Y004750D01*
X024760Y004767D01*
X024622Y004905D01*
X024274Y005253D01*
X024132Y005253D01*
X024039Y005347D01*
X024039Y005506D01*
X023463Y004930D01*
X022797Y004930D01*
X022680Y005047D01*
X022525Y005202D01*
X022525Y005137D01*
X022088Y005137D01*
X022088Y005021D01*
X022525Y005021D01*
X022525Y004780D01*
X022513Y004734D01*
X022511Y004730D01*
X024313Y004730D01*
X024333Y004710D02*
X024619Y004710D01*
X024659Y004868D02*
X022525Y004868D01*
X022701Y005027D02*
X022088Y005027D01*
X021972Y005027D02*
X021380Y005027D01*
X021535Y005021D02*
X021535Y004780D01*
X021547Y004734D01*
X021560Y004712D01*
X021559Y004711D01*
X021551Y004692D01*
X021380Y004863D01*
X021380Y005375D01*
X021416Y005360D01*
X021535Y005360D01*
X021535Y005137D01*
X021972Y005137D01*
X021972Y005021D01*
X021535Y005021D01*
X021535Y004868D02*
X021380Y004868D01*
X021533Y004710D02*
X021558Y004710D01*
X020785Y004393D02*
X015630Y004393D01*
X015630Y004551D02*
X020626Y004551D01*
X020468Y004710D02*
X017760Y004710D01*
X017890Y004839D02*
X017621Y004570D01*
X017430Y004570D01*
X017430Y005030D01*
X017890Y005030D01*
X017890Y005221D01*
X017831Y005280D01*
X019927Y005280D01*
X019909Y005261D01*
X019860Y005144D01*
X019860Y005016D01*
X019909Y004899D01*
X019999Y004809D01*
X020116Y004760D01*
X020244Y004760D01*
X020361Y004809D01*
X020365Y004812D01*
X022230Y002947D01*
X022297Y002880D01*
X022230Y002813D01*
X021547Y002130D01*
X021533Y002130D01*
X021484Y002247D01*
X021327Y002405D01*
X021121Y002490D01*
X020898Y002490D01*
X020692Y002405D01*
X020535Y002247D01*
X020486Y002130D01*
X020297Y002130D01*
X020192Y002024D01*
X020192Y002041D01*
X020106Y002247D01*
X019949Y002405D01*
X019743Y002490D01*
X019520Y002490D01*
X019314Y002405D01*
X019157Y002247D01*
X019072Y002041D01*
X019072Y001819D01*
X019157Y001613D01*
X019190Y001580D01*
X018814Y001580D01*
X018814Y002396D01*
X018720Y002490D01*
X017787Y002490D01*
X017694Y002396D01*
X017694Y001676D01*
X017622Y001605D01*
X017597Y001580D01*
X017318Y001580D01*
X017350Y001613D01*
X017436Y001819D01*
X017436Y002041D01*
X017350Y002247D01*
X017193Y002405D01*
X016987Y002490D01*
X016764Y002490D01*
X016615Y002428D01*
X015630Y003413D01*
X015630Y004608D01*
X015870Y004848D01*
X015870Y005212D01*
X015802Y005280D01*
X016029Y005280D01*
X015970Y005221D01*
X015970Y005030D01*
X016430Y005030D01*
X016890Y005030D01*
X016890Y005221D01*
X016831Y005280D01*
X017029Y005280D01*
X016970Y005221D01*
X016970Y005030D01*
X017430Y005030D01*
X017430Y005030D01*
X017890Y005030D01*
X017890Y004839D01*
X017890Y004868D02*
X019939Y004868D01*
X019860Y005027D02*
X017890Y005027D01*
X017890Y005185D02*
X019877Y005185D01*
X021380Y005185D02*
X021535Y005185D01*
X021535Y005344D02*
X021380Y005344D01*
X022525Y005185D02*
X022542Y005185D01*
X023112Y005514D02*
X023112Y005788D01*
X023148Y005788D01*
X023148Y005514D01*
X023112Y005514D01*
X023112Y005661D02*
X023148Y005661D01*
X023449Y005844D02*
X023487Y005882D01*
X023487Y006254D01*
X023830Y006597D01*
X023830Y005863D01*
X023507Y005540D01*
X023507Y005736D01*
X023495Y005781D01*
X023471Y005822D01*
X023449Y005844D01*
X023473Y005819D02*
X023786Y005819D01*
X023830Y005978D02*
X023487Y005978D01*
X023487Y006136D02*
X023830Y006136D01*
X023830Y006295D02*
X023527Y006295D01*
X023686Y006453D02*
X023830Y006453D01*
X022977Y006860D02*
X022897Y006780D01*
X022263Y006780D01*
X022213Y006830D01*
X022063Y006830D01*
X022243Y007010D01*
X022344Y007010D01*
X022345Y007011D01*
X022345Y006996D01*
X022357Y006951D01*
X022381Y006909D01*
X022414Y006876D01*
X022456Y006852D01*
X022501Y006840D01*
X022630Y006840D01*
X022759Y006840D01*
X022804Y006852D01*
X022846Y006876D01*
X022879Y006909D01*
X022890Y006929D01*
X022959Y006860D01*
X022977Y006860D01*
X022890Y006929D02*
X022890Y006929D01*
X022630Y006929D02*
X022630Y006929D01*
X022630Y006840D02*
X022630Y007410D01*
X022865Y007410D01*
X022865Y007410D01*
X022630Y007410D01*
X022630Y007410D01*
X022630Y007797D01*
X022630Y007797D01*
X022630Y007410D01*
X022630Y007410D01*
X022630Y007410D01*
X022593Y007410D01*
X022593Y007410D01*
X022630Y007410D01*
X022630Y007410D01*
X022630Y006840D01*
X022630Y007087D02*
X022630Y007087D01*
X022630Y007246D02*
X022630Y007246D01*
X022630Y007404D02*
X022630Y007404D01*
X022630Y007563D02*
X022630Y007563D01*
X022630Y007721D02*
X022630Y007721D01*
X022370Y006929D02*
X022161Y006929D01*
X023507Y005661D02*
X023628Y005661D01*
X024035Y005502D02*
X024039Y005502D01*
X024042Y005344D02*
X023876Y005344D01*
X023718Y005185D02*
X024342Y005185D01*
X024501Y005027D02*
X023559Y005027D01*
X021260Y003917D02*
X015630Y003917D01*
X015630Y003759D02*
X021419Y003759D01*
X021577Y003600D02*
X015630Y003600D01*
X015630Y003442D02*
X021736Y003442D01*
X021894Y003283D02*
X015760Y003283D01*
X015918Y003125D02*
X022053Y003125D01*
X022211Y002966D02*
X016077Y002966D01*
X016235Y002808D02*
X022225Y002808D01*
X022066Y002649D02*
X016394Y002649D01*
X016552Y002491D02*
X021908Y002491D01*
X021749Y002332D02*
X021399Y002332D01*
X021515Y002174D02*
X021591Y002174D01*
X021520Y001698D02*
X021877Y001698D01*
X021986Y001540D02*
X021411Y001540D01*
X021147Y001381D02*
X022250Y001381D01*
X022525Y001381D02*
X023296Y001381D01*
X023138Y001540D02*
X022789Y001540D01*
X022898Y001698D02*
X022979Y001698D01*
X023455Y001223D02*
X019955Y001223D01*
X020114Y001381D02*
X020872Y001381D01*
X020608Y001540D02*
X020272Y001540D01*
X020431Y001698D02*
X020499Y001698D01*
X020504Y002174D02*
X020137Y002174D01*
X020022Y002332D02*
X020620Y002332D01*
X019242Y002332D02*
X018814Y002332D01*
X018814Y002174D02*
X019126Y002174D01*
X019072Y002015D02*
X018814Y002015D01*
X018814Y001857D02*
X019072Y001857D01*
X019122Y001698D02*
X018814Y001698D01*
X017694Y001698D02*
X017386Y001698D01*
X017436Y001857D02*
X017694Y001857D01*
X017694Y002015D02*
X017436Y002015D01*
X017381Y002174D02*
X017694Y002174D01*
X017694Y002332D02*
X017266Y002332D01*
X016351Y002126D02*
X016316Y002041D01*
X016316Y001819D01*
X016401Y001613D01*
X016434Y001580D01*
X015960Y001580D01*
X015994Y001626D01*
X016035Y001707D01*
X016063Y001794D01*
X016078Y001884D01*
X016078Y001892D01*
X015536Y001892D01*
X015536Y001968D01*
X016078Y001968D01*
X016078Y001976D01*
X016063Y002066D01*
X016035Y002153D01*
X015994Y002234D01*
X015940Y002308D01*
X015876Y002372D01*
X015802Y002426D01*
X015720Y002468D01*
X015634Y002496D01*
X015543Y002510D01*
X015536Y002510D01*
X015536Y001968D01*
X015460Y001968D01*
X015460Y002510D01*
X015452Y002510D01*
X015362Y002496D01*
X015275Y002468D01*
X015194Y002426D01*
X015120Y002372D01*
X015055Y002308D01*
X015002Y002234D01*
X014960Y002153D01*
X014932Y002066D01*
X014918Y001976D01*
X014918Y001968D01*
X015460Y001968D01*
X015460Y001892D01*
X014918Y001892D01*
X014918Y001884D01*
X014932Y001794D01*
X014960Y001707D01*
X015002Y001626D01*
X015035Y001580D01*
X014562Y001580D01*
X014595Y001613D01*
X014680Y001819D01*
X014680Y002041D01*
X014595Y002247D01*
X014437Y002405D01*
X014330Y002449D01*
X014330Y004590D01*
X014612Y004590D01*
X014870Y004848D01*
X014870Y005212D01*
X014802Y005280D01*
X015058Y005280D01*
X014990Y005212D01*
X014990Y004848D01*
X015230Y004608D01*
X015230Y003247D01*
X016351Y002126D01*
X016304Y002174D02*
X016025Y002174D01*
X016071Y002015D02*
X016316Y002015D01*
X016316Y001857D02*
X016073Y001857D01*
X016030Y001698D02*
X016366Y001698D01*
X015536Y002015D02*
X015460Y002015D01*
X015460Y002174D02*
X015536Y002174D01*
X015536Y002332D02*
X015460Y002332D01*
X015460Y002491D02*
X015536Y002491D01*
X015650Y002491D02*
X015987Y002491D01*
X015916Y002332D02*
X016145Y002332D01*
X015828Y002649D02*
X014330Y002649D01*
X014330Y002491D02*
X015346Y002491D01*
X015079Y002332D02*
X014510Y002332D01*
X014625Y002174D02*
X014971Y002174D01*
X014924Y002015D02*
X014680Y002015D01*
X014680Y001857D02*
X014922Y001857D01*
X014965Y001698D02*
X014630Y001698D01*
X013646Y001381D02*
X012880Y001381D01*
X012604Y001381D02*
X011502Y001381D01*
X011226Y001381D02*
X010124Y001381D01*
X010387Y001540D02*
X010962Y001540D01*
X010854Y001698D02*
X010496Y001698D01*
X010789Y001857D02*
X010804Y001857D01*
X010541Y002174D02*
X010491Y002174D01*
X010376Y002332D02*
X010699Y002332D01*
X011869Y002174D02*
X012204Y002174D01*
X012182Y002015D02*
X011924Y002015D01*
X011924Y001857D02*
X012182Y001857D01*
X012232Y001698D02*
X011874Y001698D01*
X011765Y001540D02*
X012340Y001540D01*
X013143Y001540D02*
X013488Y001540D01*
X013329Y001698D02*
X013252Y001698D01*
X013247Y002174D02*
X013614Y002174D01*
X013730Y002332D02*
X013132Y002332D01*
X012452Y002491D02*
X013930Y002491D01*
X013930Y002649D02*
X012294Y002649D01*
X014330Y002808D02*
X015670Y002808D01*
X015511Y002966D02*
X014330Y002966D01*
X014330Y003125D02*
X015353Y003125D01*
X015230Y003283D02*
X014330Y003283D01*
X014330Y003442D02*
X015230Y003442D01*
X015230Y003600D02*
X014330Y003600D01*
X014330Y003759D02*
X015230Y003759D01*
X015230Y003917D02*
X014330Y003917D01*
X014330Y004076D02*
X015230Y004076D01*
X015230Y004234D02*
X014330Y004234D01*
X014330Y004393D02*
X015230Y004393D01*
X015230Y004551D02*
X014330Y004551D01*
X013930Y004551D02*
X011534Y004551D01*
X011692Y004710D02*
X012128Y004710D01*
X012732Y004710D02*
X013128Y004710D01*
X012990Y004868D02*
X012870Y004868D01*
X012870Y005027D02*
X012990Y005027D01*
X012990Y005185D02*
X012870Y005185D01*
X012984Y005344D02*
X012739Y005344D01*
X012825Y005502D02*
X011732Y005502D01*
X011732Y005344D02*
X012121Y005344D01*
X011602Y005185D02*
X010795Y005185D01*
X010807Y005027D02*
X011444Y005027D01*
X011285Y004868D02*
X010807Y004868D01*
X011127Y004710D02*
X010156Y004710D01*
X010156Y004551D02*
X009996Y004551D01*
X009996Y004393D02*
X010156Y004393D01*
X010156Y004234D02*
X009996Y004234D01*
X009372Y004234D02*
X006767Y004234D01*
X006925Y004393D02*
X009344Y004393D01*
X009344Y004551D02*
X007084Y004551D01*
X007242Y004710D02*
X009996Y004710D01*
X009344Y004868D02*
X007401Y004868D01*
X007559Y005027D02*
X009344Y005027D01*
X009308Y005185D02*
X007718Y005185D01*
X007876Y005344D02*
X009170Y005344D01*
X009108Y005502D02*
X008035Y005502D01*
X008193Y005661D02*
X009108Y005661D01*
X009162Y005819D02*
X008352Y005819D01*
X008510Y005978D02*
X009291Y005978D01*
X009741Y006136D02*
X008669Y006136D01*
X008827Y006295D02*
X009583Y006295D01*
X009424Y006453D02*
X008986Y006453D01*
X009144Y006612D02*
X009266Y006612D01*
X009230Y006770D02*
X009230Y006770D01*
X009230Y006929D02*
X009230Y006929D01*
X009230Y007087D02*
X009230Y007087D01*
X009230Y007246D02*
X009230Y007246D01*
X009230Y007404D02*
X009230Y007404D01*
X009230Y007563D02*
X009230Y007563D01*
X009230Y007721D02*
X009230Y007721D01*
X009230Y007880D02*
X009230Y007880D01*
X009230Y008038D02*
X009230Y008038D01*
X009230Y008197D02*
X009230Y008197D01*
X009230Y008355D02*
X009230Y008355D01*
X009230Y008514D02*
X009230Y008514D01*
X009230Y008672D02*
X009230Y008672D01*
X009230Y008831D02*
X009230Y008831D01*
X010030Y008998D02*
X010030Y009170D01*
X011107Y009170D01*
X011279Y008998D01*
X010822Y008998D01*
X010822Y008620D01*
X010746Y008620D01*
X010746Y008998D01*
X010030Y008998D01*
X010030Y009148D02*
X011130Y009148D01*
X010822Y008989D02*
X010746Y008989D01*
X010746Y008831D02*
X010822Y008831D01*
X010822Y008672D02*
X010746Y008672D01*
X010746Y008544D02*
X010822Y008544D01*
X010822Y008166D01*
X011530Y008166D01*
X011530Y007994D01*
X010449Y007994D01*
X010277Y008166D01*
X010746Y008166D01*
X010746Y008544D01*
X010746Y008514D02*
X010822Y008514D01*
X010822Y008355D02*
X010746Y008355D01*
X010746Y008197D02*
X010822Y008197D01*
X010405Y008038D02*
X011530Y008038D01*
X011930Y008038D02*
X015930Y008038D01*
X015930Y007880D02*
X011930Y007880D01*
X011972Y007721D02*
X012341Y007721D01*
X012458Y007721D02*
X012458Y007721D01*
X012574Y007721D02*
X012656Y007721D01*
X012773Y007721D02*
X012773Y007721D01*
X012889Y007721D02*
X012971Y007721D01*
X013087Y007721D02*
X013087Y007721D01*
X013087Y007724D02*
X013087Y007384D01*
X013087Y007384D01*
X013087Y007384D01*
X013402Y007384D01*
X013402Y007384D01*
X013402Y007724D01*
X013299Y007724D01*
X013253Y007712D01*
X013245Y007707D01*
X013237Y007712D01*
X013191Y007724D01*
X013087Y007724D01*
X013204Y007721D02*
X013286Y007721D01*
X013402Y007721D02*
X013402Y007721D01*
X013402Y007724D02*
X013402Y007384D01*
X013402Y007384D01*
X013402Y007384D01*
X013662Y007384D01*
X013662Y007568D01*
X013650Y007614D01*
X013626Y007655D01*
X013593Y007688D01*
X013552Y007712D01*
X013506Y007724D01*
X013402Y007724D01*
X013519Y007721D02*
X015341Y007721D01*
X015354Y007724D02*
X015308Y007712D01*
X015267Y007688D01*
X015234Y007655D01*
X015210Y007614D01*
X015198Y007568D01*
X015198Y007384D01*
X015458Y007384D01*
X015458Y007384D01*
X015458Y007724D01*
X015354Y007724D01*
X015458Y007721D02*
X015458Y007721D01*
X015574Y007721D02*
X015656Y007721D01*
X015773Y007721D02*
X015773Y007721D01*
X015889Y007721D02*
X015930Y007721D01*
X015773Y007563D02*
X015773Y007563D01*
X015773Y007404D02*
X015773Y007404D01*
X015458Y007404D02*
X015458Y007404D01*
X015458Y007563D02*
X015458Y007563D01*
X015198Y007563D02*
X013662Y007563D01*
X013662Y007404D02*
X015198Y007404D01*
X015930Y008197D02*
X011930Y008197D01*
X011930Y008355D02*
X015930Y008355D01*
X017752Y008730D02*
X017870Y008848D01*
X017870Y008900D01*
X017966Y008860D01*
X018094Y008860D01*
X018211Y008909D01*
X018283Y008980D01*
X019014Y008980D01*
X019014Y008980D01*
X018697Y008980D01*
X018447Y008730D01*
X017752Y008730D01*
X017853Y008831D02*
X018548Y008831D01*
X016170Y010054D02*
X016076Y009960D01*
X016170Y010257D02*
X017070Y010257D01*
X015153Y011050D02*
X015135Y011050D01*
X014880Y011050D02*
X014880Y011050D01*
X014880Y010891D02*
X014880Y010891D01*
X014880Y010733D02*
X014880Y010733D01*
X014880Y010574D02*
X014880Y010574D01*
X014880Y010416D02*
X014880Y010416D01*
X014880Y010257D02*
X014880Y010257D01*
X014880Y010099D02*
X014880Y010099D01*
X014625Y011050D02*
X014607Y011050D01*
X014153Y011050D02*
X014107Y011050D01*
X013653Y011050D02*
X013635Y011050D01*
X012734Y011367D02*
X012549Y011367D01*
X012575Y011208D02*
X012391Y011208D01*
X012380Y011050D02*
X012380Y011050D01*
X012380Y010891D02*
X012380Y010891D01*
X012380Y010733D02*
X012380Y010733D01*
X012380Y010574D02*
X012380Y010574D01*
X012070Y010574D02*
X011757Y010574D01*
X011732Y010416D02*
X012070Y010416D01*
X012070Y010257D02*
X011732Y010257D01*
X011915Y010733D02*
X012070Y010733D01*
X011752Y011385D02*
X011752Y011497D01*
X010822Y011497D01*
X010822Y011573D01*
X011752Y011573D01*
X011752Y011795D01*
X011739Y011840D01*
X011716Y011881D01*
X011690Y011907D01*
X012164Y012382D01*
X012181Y012372D01*
X012226Y012360D01*
X012380Y012360D01*
X012534Y012360D01*
X012579Y012372D01*
X012621Y012396D01*
X012644Y012420D01*
X012684Y012380D01*
X012947Y012380D01*
X013147Y012180D01*
X013547Y012180D01*
X012547Y012180D01*
X011752Y011385D01*
X011892Y011525D02*
X010822Y011525D01*
X011752Y011684D02*
X012051Y011684D01*
X012209Y011842D02*
X011739Y011842D01*
X011783Y012001D02*
X012368Y012001D01*
X012526Y012159D02*
X011942Y012159D01*
X012100Y012318D02*
X013010Y012318D01*
X012380Y012360D02*
X012380Y012940D01*
X012380Y012940D01*
X012380Y012360D01*
X012380Y012476D02*
X012380Y012476D01*
X012380Y012635D02*
X012380Y012635D01*
X012380Y012793D02*
X012380Y012793D01*
X013547Y012180D02*
X013547Y012180D01*
X012892Y011525D02*
X012708Y011525D01*
X009430Y009940D02*
X008953Y009940D01*
X009111Y009782D02*
X009430Y009782D01*
X009430Y009623D02*
X009270Y009623D01*
X009428Y009465D02*
X009430Y009465D01*
X011732Y009465D02*
X011832Y009465D01*
X011732Y009623D02*
X011990Y009623D01*
X011970Y008989D02*
X011922Y008989D01*
X011930Y008831D02*
X011979Y008831D01*
X012130Y007563D02*
X012198Y007563D01*
X012458Y007563D02*
X012458Y007563D01*
X012458Y007404D02*
X012458Y007404D01*
X012773Y007404D02*
X012773Y007404D01*
X012773Y007563D02*
X012773Y007563D01*
X013087Y007563D02*
X013087Y007563D01*
X013087Y007404D02*
X013087Y007404D01*
X013402Y007404D02*
X013402Y007404D01*
X013402Y007563D02*
X013402Y007563D01*
X016087Y006676D02*
X016402Y006676D01*
X016402Y006676D01*
X016142Y006676D01*
X016087Y006676D01*
X016087Y006676D01*
X016402Y006676D02*
X016402Y006676D01*
X016402Y006336D01*
X016333Y006336D01*
X016335Y006330D01*
X017097Y006330D01*
X017138Y006370D01*
X017341Y006580D01*
X016983Y006580D01*
X016911Y006509D01*
X016794Y006460D01*
X016666Y006460D01*
X016655Y006465D01*
X016650Y006446D01*
X016626Y006405D01*
X016593Y006372D01*
X016552Y006348D01*
X016506Y006336D01*
X016402Y006336D01*
X016402Y006676D01*
X016402Y006612D02*
X016402Y006612D01*
X016402Y006453D02*
X016402Y006453D01*
X016652Y006453D02*
X017218Y006453D01*
X016970Y005185D02*
X016890Y005185D01*
X016890Y005030D02*
X016430Y005030D01*
X016430Y005030D01*
X016430Y004570D01*
X016621Y004570D01*
X016890Y004839D01*
X016890Y005030D01*
X016890Y005027D02*
X016970Y005027D01*
X016970Y005030D02*
X016970Y004839D01*
X017239Y004570D01*
X017430Y004570D01*
X017430Y005030D01*
X017430Y005030D01*
X017430Y005030D01*
X016970Y005030D01*
X016970Y004868D02*
X016890Y004868D01*
X016760Y004710D02*
X017100Y004710D01*
X017430Y004710D02*
X017430Y004710D01*
X017430Y004868D02*
X017430Y004868D01*
X017430Y005027D02*
X017430Y005027D01*
X016430Y005027D02*
X016430Y005027D01*
X016430Y005030D02*
X016430Y005030D01*
X016430Y005030D01*
X016430Y004570D01*
X016239Y004570D01*
X015970Y004839D01*
X015970Y005030D01*
X016430Y005030D01*
X016430Y004868D02*
X016430Y004868D01*
X016430Y004710D02*
X016430Y004710D01*
X016100Y004710D02*
X015732Y004710D01*
X015870Y004868D02*
X015970Y004868D01*
X015970Y005027D02*
X015870Y005027D01*
X015870Y005185D02*
X015970Y005185D01*
X015128Y004710D02*
X014732Y004710D01*
X014870Y004868D02*
X014990Y004868D01*
X014990Y005027D02*
X014870Y005027D01*
X014870Y005185D02*
X014990Y005185D01*
X013990Y005185D02*
X013870Y005185D01*
X013870Y005027D02*
X013990Y005027D01*
X013985Y004868D02*
X013870Y004868D01*
X013930Y004710D02*
X013732Y004710D01*
X013930Y004393D02*
X011375Y004393D01*
X011217Y004234D02*
X013930Y004234D01*
X013930Y004076D02*
X011058Y004076D01*
X010810Y004393D02*
X010807Y004393D01*
X010807Y004551D02*
X010968Y004551D01*
X011732Y005661D02*
X012667Y005661D01*
X012508Y005819D02*
X011732Y005819D01*
X011686Y005978D02*
X012350Y005978D01*
X015630Y004234D02*
X020943Y004234D01*
X021102Y004076D02*
X015630Y004076D01*
X009383Y002966D02*
X000614Y002966D01*
X000614Y002808D02*
X009225Y002808D01*
X007268Y002491D02*
X007192Y002491D01*
X007192Y002510D02*
X006806Y002510D01*
X006761Y002498D01*
X006719Y002474D01*
X006686Y002441D01*
X006662Y002399D01*
X006650Y002354D01*
X006650Y001968D01*
X007192Y001968D01*
X007192Y002510D01*
X007192Y002332D02*
X007268Y002332D01*
X007268Y002174D02*
X007192Y002174D01*
X007192Y002015D02*
X007268Y002015D01*
X007192Y001892D02*
X006650Y001892D01*
X006650Y001506D01*
X006662Y001461D01*
X006686Y001419D01*
X006719Y001386D01*
X006761Y001362D01*
X006806Y001350D01*
X007192Y001350D01*
X007192Y001892D01*
X007192Y001857D02*
X007268Y001857D01*
X007268Y001698D02*
X007192Y001698D01*
X007192Y001540D02*
X007268Y001540D01*
X007268Y001381D02*
X007192Y001381D01*
X006728Y001381D02*
X006179Y001381D01*
X006168Y001370D02*
X006230Y001432D01*
X006280Y001502D01*
X006320Y001579D01*
X006346Y001661D01*
X006360Y001747D01*
X006360Y001770D01*
X005830Y001770D01*
X005830Y001810D01*
X006360Y001810D01*
X006360Y001833D01*
X006346Y001919D01*
X006320Y002001D01*
X006280Y002078D01*
X006230Y002148D01*
X006168Y002210D01*
X006098Y002260D01*
X006021Y002300D01*
X005939Y002326D01*
X005853Y002340D01*
X005830Y002340D01*
X005830Y001810D01*
X005790Y001810D01*
X005790Y002340D01*
X005767Y002340D01*
X005681Y002326D01*
X005599Y002300D01*
X005522Y002260D01*
X005452Y002210D01*
X005390Y002148D01*
X005340Y002078D01*
X005300Y002001D01*
X005274Y001919D01*
X005260Y001833D01*
X005260Y001810D01*
X005790Y001810D01*
X005790Y001770D01*
X005830Y001770D01*
X005830Y001240D01*
X005853Y001240D01*
X005939Y001254D01*
X006021Y001280D01*
X006098Y001320D01*
X006168Y001370D01*
X006300Y001540D02*
X006650Y001540D01*
X006650Y001698D02*
X006352Y001698D01*
X006356Y001857D02*
X006650Y001857D01*
X006650Y002015D02*
X006313Y002015D01*
X006204Y002174D02*
X006650Y002174D01*
X006650Y002332D02*
X005904Y002332D01*
X005830Y002332D02*
X005790Y002332D01*
X005716Y002332D02*
X002230Y002332D01*
X002161Y002401D02*
X002161Y002401D01*
X001944Y002491D02*
X006748Y002491D01*
X005830Y002174D02*
X005790Y002174D01*
X005790Y002015D02*
X005830Y002015D01*
X005830Y001857D02*
X005790Y001857D01*
X005790Y001770D02*
X005260Y001770D01*
X005260Y001747D01*
X005274Y001661D01*
X005300Y001579D01*
X005340Y001502D01*
X005390Y001432D01*
X005452Y001370D01*
X005522Y001320D01*
X005599Y001280D01*
X005681Y001254D01*
X005767Y001240D01*
X005790Y001240D01*
X005790Y001770D01*
X005790Y001698D02*
X005830Y001698D01*
X005830Y001540D02*
X005790Y001540D01*
X005790Y001381D02*
X005830Y001381D01*
X005441Y001381D02*
X003591Y001381D01*
X003550Y001341D02*
X003699Y001490D01*
X003780Y001685D01*
X003780Y001895D01*
X003699Y002090D01*
X003550Y002239D01*
X003355Y002320D01*
X003145Y002320D01*
X002950Y002239D01*
X002801Y002090D01*
X002720Y001895D01*
X002720Y001685D01*
X002801Y001490D01*
X002950Y001341D01*
X003145Y001260D01*
X003355Y001260D01*
X003550Y001341D01*
X003720Y001540D02*
X005320Y001540D01*
X005268Y001698D02*
X003780Y001698D01*
X003780Y001857D02*
X005264Y001857D01*
X005307Y002015D02*
X003730Y002015D01*
X003616Y002174D02*
X005416Y002174D01*
X002884Y002174D02*
X002389Y002174D01*
X002461Y002015D02*
X002770Y002015D01*
X002720Y001857D02*
X002527Y001857D01*
X002530Y001698D02*
X002720Y001698D01*
X002780Y001540D02*
X002530Y001540D01*
X002476Y001381D02*
X002909Y001381D01*
X002411Y001223D02*
X013805Y001223D01*
X006201Y004234D02*
X002559Y004234D01*
X005975Y004076D02*
X006043Y004076D01*
X002401Y001199D02*
X002401Y001199D01*
X002266Y001064D02*
X023613Y001064D01*
X025762Y003125D02*
X025930Y003125D01*
X025824Y003283D02*
X025800Y003283D01*
X027367Y004076D02*
X029602Y004076D01*
X029443Y004234D02*
X026717Y004234D01*
X026875Y004393D02*
X029285Y004393D01*
X029126Y004551D02*
X027034Y004551D01*
X027192Y004710D02*
X028484Y004710D01*
X028432Y004868D02*
X027351Y004868D01*
X027509Y005027D02*
X028432Y005027D01*
X028176Y005880D02*
X028029Y005880D01*
X028049Y005914D01*
X028061Y005959D01*
X028061Y006162D01*
X027683Y006162D01*
X027683Y006198D01*
X028061Y006198D01*
X028061Y006310D01*
X028144Y006310D01*
X028196Y006332D01*
X028535Y005992D01*
X028270Y005992D01*
X028176Y005898D01*
X028176Y005880D01*
X028256Y005978D02*
X028061Y005978D01*
X028061Y006136D02*
X028391Y006136D01*
X028233Y006295D02*
X028061Y006295D01*
X027683Y006295D02*
X027646Y006295D01*
X027646Y006198D02*
X027646Y006557D01*
X027424Y006557D01*
X027379Y006545D01*
X027338Y006521D01*
X027316Y006499D01*
X027278Y006537D01*
X027230Y006537D01*
X027230Y006647D01*
X027293Y006710D01*
X027551Y006710D01*
X027630Y006789D01*
X027709Y006710D01*
X027767Y006710D01*
X027760Y006694D01*
X027760Y006566D01*
X027764Y006557D01*
X027683Y006557D01*
X027683Y006198D01*
X027646Y006198D01*
X027646Y006453D02*
X027683Y006453D01*
X027760Y006612D02*
X027230Y006612D01*
X027611Y006770D02*
X027649Y006770D01*
X028830Y007404D02*
X029080Y007404D01*
X029080Y007563D02*
X028830Y007563D01*
X028830Y007721D02*
X029080Y007721D01*
X029080Y007880D02*
X028713Y007880D01*
X029080Y008038D02*
X028171Y008038D01*
X028329Y008197D02*
X029225Y008197D01*
X029410Y008355D02*
X028488Y008355D01*
X028646Y008514D02*
X030780Y008514D01*
X030780Y008355D02*
X030488Y008355D01*
X030197Y008080D02*
X030260Y008017D01*
X030260Y007993D01*
X030244Y008000D01*
X030116Y008000D01*
X029999Y007951D01*
X029909Y007861D01*
X029888Y007811D01*
X029748Y007811D01*
X029748Y007433D01*
X029712Y007433D01*
X029712Y007811D01*
X029509Y007811D01*
X029480Y007803D01*
X029480Y007888D01*
X029673Y008053D01*
X029704Y008080D01*
X030197Y008080D01*
X030239Y008038D02*
X029655Y008038D01*
X029480Y007880D02*
X029927Y007880D01*
X029748Y007721D02*
X029712Y007721D01*
X029712Y007563D02*
X029748Y007563D01*
X031180Y008263D02*
X031261Y008182D01*
X031293Y008182D01*
X031293Y008175D01*
X031293Y008182D01*
X031299Y008182D01*
X031755Y008638D01*
X031755Y008638D01*
X031872Y008755D01*
X031872Y008755D01*
X032043Y008926D01*
X032043Y009210D01*
X031993Y009210D01*
X031180Y008397D01*
X031180Y008263D01*
X031180Y008355D02*
X031472Y008355D01*
X031314Y008197D02*
X031246Y008197D01*
X031293Y008175D02*
X031293Y008175D01*
X031296Y008514D02*
X031631Y008514D01*
X031789Y008672D02*
X031455Y008672D01*
X031613Y008831D02*
X031948Y008831D01*
X032043Y008989D02*
X031772Y008989D01*
X031930Y009148D02*
X032043Y009148D01*
X031682Y009465D02*
X029597Y009465D01*
X029756Y009623D02*
X031722Y009623D01*
X031829Y009782D02*
X029914Y009782D01*
X029507Y009940D02*
X028761Y009940D01*
X028761Y009859D02*
X028761Y010062D01*
X028383Y010062D01*
X028383Y010098D01*
X028761Y010098D01*
X028761Y010301D01*
X028749Y010346D01*
X028725Y010387D01*
X028692Y010421D01*
X028651Y010445D01*
X028605Y010457D01*
X028383Y010457D01*
X028383Y010098D01*
X028346Y010098D01*
X028346Y010457D01*
X028124Y010457D01*
X028079Y010445D01*
X028038Y010421D01*
X028016Y010399D01*
X027978Y010437D01*
X027930Y010437D01*
X027930Y010647D01*
X029013Y011730D01*
X029130Y011847D01*
X029130Y012430D01*
X029253Y012430D01*
X029253Y012032D01*
X029347Y011939D01*
X029383Y011939D01*
X029349Y011905D01*
X029349Y011221D01*
X029443Y011127D01*
X029812Y011127D01*
X029723Y011039D01*
X029723Y010355D01*
X029817Y010261D01*
X029828Y010261D01*
X028645Y009078D01*
X028645Y009656D01*
X028598Y009703D01*
X028605Y009703D01*
X028651Y009715D01*
X028692Y009739D01*
X028725Y009773D01*
X028749Y009814D01*
X028761Y009859D01*
X028730Y009782D02*
X029349Y009782D01*
X029190Y009623D02*
X028645Y009623D01*
X028645Y009465D02*
X029032Y009465D01*
X028873Y009306D02*
X028645Y009306D01*
X028645Y009148D02*
X028715Y009148D01*
X029122Y008989D02*
X031206Y008989D01*
X031048Y008831D02*
X028963Y008831D01*
X028805Y008672D02*
X030889Y008672D01*
X031365Y009148D02*
X029280Y009148D01*
X029439Y009306D02*
X031523Y009306D01*
X029824Y010257D02*
X028761Y010257D01*
X028761Y010099D02*
X029666Y010099D01*
X029723Y010416D02*
X028697Y010416D01*
X028383Y010416D02*
X028346Y010416D01*
X028346Y010257D02*
X028383Y010257D01*
X028383Y010099D02*
X028346Y010099D01*
X028032Y010416D02*
X027999Y010416D01*
X027930Y010574D02*
X029723Y010574D01*
X029723Y010733D02*
X028015Y010733D01*
X028174Y010891D02*
X029723Y010891D01*
X029734Y011050D02*
X028332Y011050D01*
X028491Y011208D02*
X029362Y011208D01*
X029349Y011367D02*
X028649Y011367D01*
X028808Y011525D02*
X029349Y011525D01*
X029349Y011684D02*
X028966Y011684D01*
X029125Y011842D02*
X029349Y011842D01*
X029285Y012001D02*
X029130Y012001D01*
X029130Y012159D02*
X029253Y012159D01*
X029253Y012318D02*
X029130Y012318D01*
X028730Y012318D02*
X028085Y012318D01*
X028095Y012301D02*
X028071Y012342D01*
X028037Y012375D01*
X027996Y012399D01*
X027951Y012411D01*
X027748Y012411D01*
X027748Y012033D01*
X027712Y012033D01*
X027712Y012411D01*
X027509Y012411D01*
X027464Y012399D01*
X027423Y012375D01*
X027389Y012342D01*
X027365Y012301D01*
X027358Y012273D01*
X027294Y012300D01*
X027166Y012300D01*
X027130Y012285D01*
X027130Y012473D01*
X027347Y012473D01*
X027441Y012567D01*
X027441Y013093D01*
X027354Y013180D01*
X028013Y013180D01*
X028041Y013208D01*
X028286Y013208D01*
X028379Y013301D01*
X028379Y013651D01*
X028376Y013654D01*
X028387Y013672D01*
X028399Y013718D01*
X028399Y013850D01*
X028399Y013864D01*
X028430Y013838D01*
X028430Y013247D01*
X028730Y012947D01*
X028730Y012013D01*
X028087Y011370D01*
X028087Y011628D01*
X028049Y011666D01*
X028071Y011688D01*
X028095Y011729D01*
X028107Y011774D01*
X028107Y011996D01*
X027748Y011996D01*
X027748Y012033D01*
X028107Y012033D01*
X028107Y012255D01*
X028095Y012301D01*
X028107Y012159D02*
X028730Y012159D01*
X028718Y012001D02*
X027748Y012001D01*
X027748Y012159D02*
X027712Y012159D01*
X027712Y012318D02*
X027748Y012318D01*
X027375Y012318D02*
X027130Y012318D01*
X027350Y012476D02*
X028730Y012476D01*
X028730Y012635D02*
X027441Y012635D01*
X027441Y012793D02*
X028730Y012793D01*
X028726Y012952D02*
X027441Y012952D01*
X027424Y013110D02*
X028567Y013110D01*
X028430Y013269D02*
X028346Y013269D01*
X028379Y013427D02*
X028430Y013427D01*
X028430Y013586D02*
X028379Y013586D01*
X028399Y013744D02*
X028430Y013744D01*
X028399Y013850D02*
X027983Y013850D01*
X027567Y013850D01*
X027567Y013718D01*
X027579Y013672D01*
X027590Y013654D01*
X027587Y013651D01*
X027587Y013580D01*
X027457Y013580D01*
X027457Y013727D01*
X027098Y013727D01*
X027098Y013764D01*
X027457Y013764D01*
X027457Y013986D01*
X027445Y014031D01*
X027421Y014072D01*
X027399Y014094D01*
X027437Y014132D01*
X027437Y014697D01*
X027404Y014730D01*
X027769Y014730D01*
X027769Y014667D01*
X027863Y014573D01*
X027930Y014573D01*
X027930Y014492D01*
X027681Y014492D01*
X027587Y014399D01*
X027587Y014049D01*
X027590Y014046D01*
X027579Y014028D01*
X027567Y013982D01*
X027567Y013850D01*
X027983Y013850D01*
X027983Y013850D01*
X028399Y013850D01*
X027983Y013850D02*
X027983Y013850D01*
X027567Y013903D02*
X027457Y013903D01*
X027427Y014061D02*
X027587Y014061D01*
X027587Y014220D02*
X027437Y014220D01*
X027437Y014378D02*
X027587Y014378D01*
X027437Y014537D02*
X027930Y014537D01*
X027769Y014695D02*
X027437Y014695D01*
X027769Y015130D02*
X025987Y015130D01*
X025987Y015528D01*
X025949Y015566D01*
X025971Y015588D01*
X025995Y015629D01*
X026007Y015674D01*
X026007Y015896D01*
X025648Y015896D01*
X025648Y015933D01*
X026007Y015933D01*
X026007Y016080D01*
X028147Y016080D01*
X028920Y015307D01*
X028833Y015307D01*
X028833Y014948D01*
X028796Y014948D01*
X028796Y015307D01*
X028574Y015307D01*
X028529Y015295D01*
X028488Y015271D01*
X028466Y015249D01*
X028428Y015287D01*
X027863Y015287D01*
X027769Y015193D01*
X027769Y015130D01*
X027769Y015171D02*
X025987Y015171D01*
X025987Y015329D02*
X028898Y015329D01*
X028833Y015171D02*
X028796Y015171D01*
X028796Y015012D02*
X028833Y015012D01*
X028833Y014912D02*
X028833Y014553D01*
X028980Y014553D01*
X028980Y014492D01*
X028704Y014492D01*
X028611Y014399D01*
X028611Y014210D01*
X028414Y014378D01*
X028359Y014432D01*
X028352Y014431D01*
X028347Y014436D01*
X028343Y014435D01*
X028330Y014448D01*
X028330Y014573D01*
X028428Y014573D01*
X028466Y014611D01*
X028488Y014589D01*
X028529Y014565D01*
X028574Y014553D01*
X028796Y014553D01*
X028796Y014912D01*
X028833Y014912D01*
X028833Y014854D02*
X028796Y014854D01*
X028796Y014695D02*
X028833Y014695D01*
X028980Y014537D02*
X028330Y014537D01*
X028415Y014378D02*
X028611Y014378D01*
X028600Y014220D02*
X028611Y014220D01*
X027567Y013744D02*
X027098Y013744D01*
X027457Y013586D02*
X027587Y013586D01*
X026019Y012930D02*
X026019Y012567D01*
X026113Y012473D01*
X026430Y012473D01*
X026430Y012420D01*
X026234Y012420D01*
X026140Y012326D01*
X026140Y012223D01*
X025547Y011630D01*
X025530Y011613D01*
X025530Y011777D01*
X025601Y011849D01*
X025650Y011966D01*
X025650Y012094D01*
X025601Y012211D01*
X025511Y012301D01*
X025394Y012350D01*
X025266Y012350D01*
X025149Y012301D01*
X025059Y012211D01*
X025010Y012094D01*
X025010Y011966D01*
X025059Y011849D01*
X025130Y011777D01*
X025130Y011363D01*
X024241Y010474D01*
X024241Y010743D01*
X024147Y010837D01*
X024080Y010837D01*
X024080Y011637D01*
X024129Y011657D01*
X024253Y011781D01*
X024320Y011942D01*
X024320Y012118D01*
X024253Y012279D01*
X024129Y012403D01*
X023968Y012470D01*
X023792Y012470D01*
X023631Y012403D01*
X023507Y012279D01*
X023440Y012118D01*
X023440Y011942D01*
X023507Y011781D01*
X023631Y011657D01*
X023680Y011637D01*
X023680Y010837D01*
X023582Y010837D01*
X023544Y010799D01*
X023522Y010821D01*
X023481Y010845D01*
X023436Y010857D01*
X023214Y010857D01*
X023214Y010498D01*
X023177Y010498D01*
X023177Y010462D01*
X022799Y010462D01*
X022683Y010462D01*
X022683Y010498D01*
X023177Y010498D01*
X023177Y010857D01*
X022955Y010857D01*
X022930Y010850D01*
X022905Y010857D01*
X022683Y010857D01*
X022683Y010498D01*
X022646Y010498D01*
X022646Y010857D01*
X022424Y010857D01*
X022379Y010845D01*
X022338Y010821D01*
X022316Y010799D01*
X022278Y010837D01*
X022180Y010837D01*
X022180Y011637D01*
X022229Y011657D01*
X022353Y011781D01*
X022420Y011942D01*
X022420Y012118D01*
X022353Y012279D01*
X022229Y012403D01*
X022092Y012460D01*
X022563Y012930D01*
X026019Y012930D01*
X026019Y012793D02*
X022426Y012793D01*
X022267Y012635D02*
X026019Y012635D01*
X026110Y012476D02*
X022109Y012476D01*
X022315Y012318D02*
X023545Y012318D01*
X023457Y012159D02*
X022403Y012159D01*
X022420Y012001D02*
X023440Y012001D01*
X023482Y011842D02*
X022378Y011842D01*
X022256Y011684D02*
X023604Y011684D01*
X023680Y011525D02*
X022180Y011525D01*
X022180Y011367D02*
X023680Y011367D01*
X023680Y011208D02*
X022180Y011208D01*
X022180Y011050D02*
X023680Y011050D01*
X023680Y010891D02*
X022180Y010891D01*
X022646Y010733D02*
X022683Y010733D01*
X022683Y010574D02*
X022646Y010574D01*
X023177Y010574D02*
X023214Y010574D01*
X023214Y010733D02*
X023177Y010733D01*
X024080Y010891D02*
X024658Y010891D01*
X024500Y010733D02*
X024241Y010733D01*
X024241Y010574D02*
X024341Y010574D01*
X024080Y011050D02*
X024817Y011050D01*
X024975Y011208D02*
X024080Y011208D01*
X024080Y011367D02*
X025130Y011367D01*
X025130Y011525D02*
X024080Y011525D01*
X024156Y011684D02*
X025130Y011684D01*
X025065Y011842D02*
X024278Y011842D01*
X024320Y012001D02*
X025010Y012001D01*
X025037Y012159D02*
X024303Y012159D01*
X024215Y012318D02*
X025188Y012318D01*
X025472Y012318D02*
X026140Y012318D01*
X026076Y012159D02*
X025623Y012159D01*
X025650Y012001D02*
X025918Y012001D01*
X025759Y011842D02*
X025595Y011842D01*
X025601Y011684D02*
X025530Y011684D01*
X026008Y011525D02*
X026135Y011525D01*
X026135Y011514D02*
X026135Y011652D01*
X025830Y011347D01*
X025830Y011007D01*
X025977Y011007D01*
X025977Y010648D01*
X026014Y010648D01*
X026014Y011007D01*
X026236Y011007D01*
X026281Y010995D01*
X026322Y010971D01*
X026344Y010949D01*
X026382Y010987D01*
X026430Y010987D01*
X026430Y011020D01*
X026370Y011020D01*
X026370Y011320D01*
X026370Y011320D01*
X026370Y011320D01*
X026120Y011320D01*
X026120Y011464D01*
X026132Y011509D01*
X026135Y011514D01*
X026120Y011367D02*
X025849Y011367D01*
X025830Y011208D02*
X026120Y011208D01*
X026120Y011176D02*
X026132Y011131D01*
X026156Y011089D01*
X026189Y011056D01*
X026231Y011032D01*
X026276Y011020D01*
X026370Y011020D01*
X026370Y011320D01*
X026120Y011320D01*
X026120Y011176D01*
X026201Y011050D02*
X025830Y011050D01*
X025977Y010891D02*
X026014Y010891D01*
X026014Y010733D02*
X025977Y010733D01*
X026370Y011050D02*
X026370Y011050D01*
X026370Y011208D02*
X026370Y011208D01*
X028087Y011525D02*
X028242Y011525D01*
X028401Y011684D02*
X028067Y011684D01*
X028107Y011842D02*
X028559Y011842D01*
X030007Y012952D02*
X030053Y012952D01*
X030053Y013110D02*
X030007Y013110D01*
X030071Y013269D02*
X030094Y013269D01*
X030107Y013427D02*
X030230Y013427D01*
X030230Y013586D02*
X029748Y013586D01*
X030107Y013744D02*
X030230Y013744D01*
X030230Y013903D02*
X030082Y013903D01*
X030087Y014061D02*
X030230Y014061D01*
X030230Y014220D02*
X030087Y014220D01*
X030087Y014378D02*
X030230Y014378D01*
X030230Y014537D02*
X030087Y014537D01*
X031537Y014854D02*
X032470Y014854D01*
X032470Y015012D02*
X031537Y015012D01*
X031537Y015171D02*
X032470Y015171D01*
X032470Y015329D02*
X031537Y015329D01*
X031537Y015488D02*
X033350Y015488D01*
X033350Y015646D02*
X033510Y015646D01*
X033510Y015488D02*
X035323Y015488D01*
X033510Y015329D02*
X033350Y015329D01*
X033350Y015171D02*
X033510Y015171D01*
X033510Y015012D02*
X033350Y015012D01*
X033350Y014854D02*
X033510Y014854D01*
X033510Y014695D02*
X033350Y014695D01*
X033350Y014537D02*
X033510Y014537D01*
X034351Y014537D02*
X036403Y014537D01*
X038064Y014537D02*
X038278Y014537D01*
X038276Y014380D02*
X038696Y014380D01*
X038276Y014380D01*
X038276Y014378D02*
X038064Y014378D01*
X038064Y014220D02*
X038279Y014220D01*
X038296Y014061D02*
X038064Y014061D01*
X038064Y013903D02*
X038296Y013903D01*
X038369Y013744D02*
X037991Y013744D01*
X037518Y013586D02*
X038530Y013586D01*
X038530Y013427D02*
X037616Y013427D01*
X037369Y013108D02*
X037126Y013351D01*
X037063Y013289D01*
X036497Y013289D01*
X036403Y013382D01*
X036403Y013430D01*
X035285Y013430D01*
X035300Y013394D01*
X035300Y013266D01*
X035251Y013149D01*
X035161Y013059D01*
X035044Y013010D01*
X034943Y013010D01*
X034161Y012228D01*
X034161Y011821D01*
X034067Y011727D01*
X033698Y011727D01*
X033746Y011680D01*
X035183Y011680D01*
X035120Y011758D01*
X035059Y011856D01*
X035009Y011961D01*
X034970Y012070D01*
X034945Y012183D01*
X034934Y012275D01*
X035882Y012275D01*
X035882Y012435D01*
X034934Y012435D01*
X034945Y012528D01*
X034970Y012641D01*
X035009Y012750D01*
X035059Y012854D01*
X035120Y012952D01*
X034884Y012952D01*
X035029Y012793D02*
X034726Y012793D01*
X034567Y012635D02*
X034969Y012635D01*
X034939Y012476D02*
X034409Y012476D01*
X034250Y012318D02*
X035882Y012318D01*
X035882Y012435D02*
X035882Y013383D01*
X035789Y013372D01*
X035676Y013347D01*
X035567Y013308D01*
X035463Y013258D01*
X035365Y013197D01*
X035274Y013125D01*
X035193Y013043D01*
X035120Y012952D01*
X035213Y013110D02*
X035260Y013110D01*
X035300Y013269D02*
X035484Y013269D01*
X035286Y013427D02*
X036403Y013427D01*
X036357Y013308D02*
X036247Y013347D01*
X036135Y013372D01*
X036042Y013383D01*
X036042Y012435D01*
X036989Y012435D01*
X036979Y012528D01*
X036953Y012641D01*
X036915Y012750D01*
X036865Y012854D01*
X036803Y012952D01*
X036731Y013043D01*
X036649Y013125D01*
X036559Y013197D01*
X036461Y013258D01*
X036357Y013308D01*
X036440Y013269D02*
X037209Y013269D01*
X037367Y013110D02*
X036664Y013110D01*
X036804Y012952D02*
X037369Y012952D01*
X037369Y013108D02*
X037369Y012767D01*
X037463Y012673D01*
X038028Y012673D01*
X038066Y012711D01*
X038088Y012689D01*
X038129Y012665D01*
X038174Y012653D01*
X038370Y012653D01*
X037397Y011680D01*
X036741Y011680D01*
X036803Y011758D01*
X036865Y011856D01*
X036915Y011961D01*
X036953Y012070D01*
X036979Y012183D01*
X036989Y012275D01*
X036042Y012275D01*
X036042Y012435D01*
X035882Y012435D01*
X035882Y012476D02*
X036042Y012476D01*
X036042Y012318D02*
X038035Y012318D01*
X038193Y012476D02*
X036985Y012476D01*
X036955Y012635D02*
X038352Y012635D01*
X038759Y012476D02*
X039250Y012476D01*
X039250Y012318D02*
X038600Y012318D01*
X038442Y012159D02*
X039250Y012159D01*
X039250Y012001D02*
X038283Y012001D01*
X038125Y011842D02*
X039250Y011842D01*
X039250Y011684D02*
X037966Y011684D01*
X037808Y011525D02*
X039250Y011525D01*
X039250Y011367D02*
X037708Y011367D01*
X037896Y011208D02*
X039250Y011208D01*
X039250Y011050D02*
X038017Y011050D01*
X038099Y010891D02*
X039250Y010891D01*
X039250Y010733D02*
X038147Y010733D01*
X037223Y010257D02*
X037063Y010257D01*
X037063Y010099D02*
X037223Y010099D01*
X037223Y009940D02*
X037063Y009940D01*
X037063Y009782D02*
X037223Y009782D01*
X037223Y009623D02*
X037063Y009623D01*
X036356Y008514D02*
X033329Y008514D01*
X033488Y008355D02*
X036159Y008355D01*
X036038Y008197D02*
X034846Y008197D01*
X035005Y008038D02*
X035972Y008038D01*
X035940Y007880D02*
X035163Y007880D01*
X035322Y007721D02*
X035940Y007721D01*
X035972Y007563D02*
X035480Y007563D01*
X035639Y007404D02*
X036037Y007404D01*
X036159Y007246D02*
X035797Y007246D01*
X035956Y007087D02*
X036355Y007087D01*
X035647Y006580D02*
X034597Y006580D01*
X034480Y006463D01*
X034247Y006230D01*
X034021Y006230D01*
X034021Y006313D01*
X033928Y006407D01*
X033402Y006407D01*
X033330Y006335D01*
X033258Y006407D01*
X032886Y006407D01*
X032840Y006453D01*
X034470Y006453D01*
X034312Y006295D02*
X034021Y006295D01*
X033947Y006473D02*
X034041Y006567D01*
X034041Y006630D01*
X035597Y006630D01*
X035647Y006580D01*
X035616Y006612D02*
X034041Y006612D01*
X033947Y006473D02*
X033382Y006473D01*
X033344Y006511D01*
X033322Y006489D01*
X033281Y006465D01*
X033236Y006453D01*
X033014Y006453D01*
X033014Y006812D01*
X032977Y006812D01*
X032977Y006453D01*
X032840Y006453D01*
X032977Y006612D02*
X033014Y006612D01*
X033014Y006770D02*
X032977Y006770D01*
X032977Y006848D02*
X032977Y007207D01*
X032840Y007207D01*
X032886Y007253D01*
X033258Y007253D01*
X033330Y007325D01*
X033402Y007253D01*
X033480Y007253D01*
X033480Y007187D01*
X033382Y007187D01*
X033344Y007149D01*
X033322Y007171D01*
X033281Y007195D01*
X033236Y007207D01*
X033014Y007207D01*
X033014Y006848D01*
X032977Y006848D01*
X032977Y006929D02*
X033014Y006929D01*
X033014Y007087D02*
X032977Y007087D01*
X032878Y007246D02*
X033480Y007246D01*
X032230Y006394D02*
X032080Y006394D01*
X032080Y006611D01*
X032080Y006611D01*
X032080Y006394D01*
X031896Y006394D01*
X031896Y005967D01*
X031802Y005873D01*
X031425Y005873D01*
X031411Y005865D01*
X031366Y005853D01*
X031293Y005853D01*
X031293Y005955D01*
X031293Y005955D01*
X031293Y005955D01*
X031293Y005853D01*
X031290Y005853D01*
X032230Y004913D01*
X032230Y006394D01*
X032230Y006295D02*
X031896Y006295D01*
X031896Y006136D02*
X032230Y006136D01*
X032230Y005978D02*
X031896Y005978D01*
X032230Y005819D02*
X031324Y005819D01*
X031482Y005661D02*
X032230Y005661D01*
X032230Y005502D02*
X031641Y005502D01*
X031799Y005344D02*
X032230Y005344D01*
X032230Y005185D02*
X031958Y005185D01*
X032116Y005027D02*
X032230Y005027D01*
X032630Y004931D02*
X032635Y004923D01*
X032668Y004889D01*
X032709Y004865D01*
X032755Y004853D01*
X032977Y004853D01*
X032977Y005212D01*
X033014Y005212D01*
X033014Y004853D01*
X033236Y004853D01*
X033281Y004865D01*
X033322Y004889D01*
X033344Y004911D01*
X033382Y004873D01*
X033947Y004873D01*
X034041Y004967D01*
X034041Y005493D01*
X033947Y005587D01*
X033865Y005587D01*
X033865Y005653D01*
X033928Y005653D01*
X034021Y005747D01*
X034021Y005830D01*
X034410Y005830D01*
X034410Y005825D01*
X034449Y005731D01*
X034130Y005413D01*
X034130Y004035D01*
X034049Y004001D01*
X033977Y003930D01*
X033613Y003930D01*
X032630Y004913D01*
X032630Y004931D01*
X032675Y004868D02*
X032705Y004868D01*
X032833Y004710D02*
X034130Y004710D01*
X034130Y004868D02*
X033286Y004868D01*
X033014Y004868D02*
X032977Y004868D01*
X032977Y005027D02*
X033014Y005027D01*
X033014Y005185D02*
X032977Y005185D01*
X032977Y005248D02*
X032977Y005607D01*
X032755Y005607D01*
X032709Y005595D01*
X032668Y005571D01*
X032635Y005537D01*
X032630Y005529D01*
X032630Y006097D01*
X032639Y006089D01*
X032639Y005747D01*
X032732Y005653D01*
X033258Y005653D01*
X033330Y005725D01*
X033402Y005653D01*
X033465Y005653D01*
X033465Y005587D01*
X033382Y005587D01*
X033344Y005549D01*
X033322Y005571D01*
X033281Y005595D01*
X033236Y005607D01*
X033014Y005607D01*
X033014Y005248D01*
X032977Y005248D01*
X032977Y005344D02*
X033014Y005344D01*
X033014Y005502D02*
X032977Y005502D01*
X032725Y005661D02*
X032630Y005661D01*
X032630Y005819D02*
X032639Y005819D01*
X032630Y005978D02*
X032639Y005978D01*
X033266Y005661D02*
X033394Y005661D01*
X033935Y005661D02*
X034378Y005661D01*
X034412Y005819D02*
X034021Y005819D01*
X034032Y005502D02*
X034219Y005502D01*
X034130Y005344D02*
X034041Y005344D01*
X034041Y005185D02*
X034130Y005185D01*
X034130Y005027D02*
X034041Y005027D01*
X034130Y004551D02*
X032992Y004551D01*
X033150Y004393D02*
X034130Y004393D01*
X034130Y004234D02*
X033309Y004234D01*
X033467Y004076D02*
X034130Y004076D01*
X029760Y003917D02*
X027526Y003917D01*
X032080Y006453D02*
X032080Y006453D01*
X033523Y008672D02*
X033639Y008672D01*
X033639Y008831D02*
X033523Y008831D01*
X034037Y009148D02*
X039250Y009148D01*
X039250Y009306D02*
X034037Y009306D01*
X035765Y010733D02*
X036138Y010733D01*
X036187Y010891D02*
X035723Y010891D01*
X035633Y011050D02*
X036269Y011050D01*
X036743Y011684D02*
X037401Y011684D01*
X037559Y011842D02*
X036856Y011842D01*
X036929Y012001D02*
X037718Y012001D01*
X037876Y012159D02*
X036973Y012159D01*
X036042Y012635D02*
X035882Y012635D01*
X035882Y012793D02*
X036042Y012793D01*
X036042Y012952D02*
X035882Y012952D01*
X035882Y013110D02*
X036042Y013110D01*
X036042Y013269D02*
X035882Y013269D01*
X036894Y012793D02*
X037369Y012793D01*
X038396Y013110D02*
X038433Y013110D01*
X038433Y013269D02*
X038396Y013269D01*
X038930Y013427D02*
X039250Y013427D01*
X039250Y013269D02*
X038980Y013269D01*
X038980Y013110D02*
X039250Y013110D01*
X039250Y012952D02*
X038980Y012952D01*
X038980Y012793D02*
X039250Y012793D01*
X039250Y012635D02*
X038917Y012635D01*
X038930Y013586D02*
X039250Y013586D01*
X039250Y013744D02*
X039023Y013744D01*
X039096Y013903D02*
X039250Y013903D01*
X039250Y014061D02*
X039096Y014061D01*
X039112Y014220D02*
X039250Y014220D01*
X039250Y014378D02*
X039116Y014378D01*
X039113Y014537D02*
X039250Y014537D01*
X039250Y014695D02*
X039116Y014695D01*
X039116Y014854D02*
X039250Y014854D01*
X039250Y015012D02*
X039055Y015012D01*
X038696Y015012D02*
X038696Y015012D01*
X038696Y014854D02*
X038696Y014854D01*
X038696Y014754D02*
X038276Y014754D01*
X038696Y014754D01*
X038696Y014754D01*
X038696Y014695D02*
X038696Y014695D01*
X038696Y014537D02*
X038696Y014537D01*
X038696Y014380D02*
X038696Y014380D01*
X038276Y014695D02*
X038064Y014695D01*
X038064Y014854D02*
X038276Y014854D01*
X038337Y015012D02*
X037995Y015012D01*
X038589Y015805D02*
X039250Y015805D01*
X039250Y015963D02*
X038790Y015963D01*
X038901Y016074D02*
X038901Y016074D01*
X038920Y016122D02*
X039250Y016122D01*
X039250Y016280D02*
X038986Y016280D01*
X039030Y016439D02*
X039250Y016439D01*
X039250Y016597D02*
X039030Y016597D01*
X039017Y016756D02*
X039241Y016756D01*
X039201Y016914D02*
X038951Y016914D01*
X038865Y017073D02*
X039140Y017073D01*
X039036Y017231D02*
X038706Y017231D01*
X038661Y017276D02*
X038661Y017276D01*
X038892Y017390D02*
X038386Y017390D01*
X038622Y017548D02*
X015895Y017548D01*
X016053Y017390D02*
X037974Y017390D01*
X038011Y017405D02*
X038011Y017405D01*
X033510Y016280D02*
X033350Y016280D01*
X033350Y016122D02*
X033510Y016122D01*
X033510Y015963D02*
X033350Y015963D01*
X033350Y015805D02*
X033510Y015805D01*
X032470Y015805D02*
X031537Y015805D01*
X031537Y015963D02*
X032470Y015963D01*
X032470Y015646D02*
X031537Y015646D01*
X028740Y015488D02*
X025987Y015488D01*
X025999Y015646D02*
X028581Y015646D01*
X028423Y015805D02*
X026007Y015805D01*
X026007Y015963D02*
X028264Y015963D01*
X026756Y014730D02*
X025830Y014730D01*
X025830Y014697D01*
X025714Y014582D01*
X025714Y014279D01*
X025711Y014276D01*
X025722Y014258D01*
X025734Y014212D01*
X025734Y014080D01*
X025318Y014080D01*
X025318Y014080D01*
X025734Y014080D01*
X025734Y013948D01*
X025722Y013902D01*
X025711Y013884D01*
X025714Y013881D01*
X025714Y013847D01*
X025780Y013913D01*
X025780Y014163D01*
X025946Y014328D01*
X025946Y014629D01*
X026039Y014722D01*
X026644Y014722D01*
X026723Y014643D01*
X026723Y014697D01*
X026756Y014730D01*
X026723Y014695D02*
X026672Y014695D01*
X026012Y014695D02*
X025828Y014695D01*
X025714Y014537D02*
X025946Y014537D01*
X025946Y014378D02*
X025714Y014378D01*
X025732Y014220D02*
X025837Y014220D01*
X025780Y014061D02*
X025734Y014061D01*
X025722Y013903D02*
X025770Y013903D01*
X033742Y011684D02*
X035180Y011684D01*
X035068Y011842D02*
X034161Y011842D01*
X034161Y012001D02*
X034995Y012001D01*
X034950Y012159D02*
X034161Y012159D01*
X026880Y009200D02*
X026880Y009200D01*
X026595Y009200D01*
X026595Y009530D01*
X026197Y009530D01*
X026080Y009647D01*
X025455Y010272D01*
X024800Y009617D01*
X024800Y009516D01*
X024751Y009399D01*
X024661Y009309D01*
X024544Y009260D01*
X024416Y009260D01*
X024395Y009269D01*
X024395Y008894D01*
X024381Y008880D01*
X026595Y008880D01*
X026595Y009200D01*
X026880Y009200D01*
X026595Y009148D02*
X024395Y009148D01*
X024395Y008989D02*
X026595Y008989D01*
X026595Y009306D02*
X024655Y009306D01*
X024779Y009465D02*
X026595Y009465D01*
X026104Y009623D02*
X024806Y009623D01*
X024964Y009782D02*
X025946Y009782D01*
X025787Y009940D02*
X025123Y009940D01*
X025281Y010099D02*
X025629Y010099D01*
X025470Y010257D02*
X025440Y010257D01*
X022430Y008597D02*
X022097Y008930D01*
X022063Y008930D01*
X021913Y008780D01*
X021456Y008780D01*
X021456Y008780D01*
X021713Y008780D01*
X021913Y008580D01*
X022447Y008580D01*
X022430Y008597D01*
X022355Y008672D02*
X021821Y008672D01*
X021963Y008831D02*
X022197Y008831D01*
X021805Y009238D02*
X021747Y009180D01*
X021446Y009180D01*
X021513Y009180D01*
X021540Y009180D01*
X021540Y009207D01*
X021630Y009297D01*
X021713Y009380D01*
X021747Y009380D01*
X021830Y009297D01*
X021830Y009263D01*
X021805Y009238D01*
X021805Y009238D01*
X021821Y009306D02*
X021639Y009306D01*
X021513Y009180D02*
X021513Y009180D01*
X021446Y009180D02*
X021446Y009180D01*
X016914Y011842D02*
X016877Y011842D01*
X016877Y012001D02*
X016914Y012001D01*
X016914Y012159D02*
X016877Y012159D01*
X016877Y012318D02*
X016914Y012318D01*
X016914Y012476D02*
X016877Y012476D01*
X017214Y012476D02*
X017271Y012476D01*
X017041Y014537D02*
X016319Y014537D01*
X016478Y014695D02*
X016732Y014695D01*
X015725Y015905D02*
X015519Y015820D01*
X015297Y015820D01*
X015091Y015905D01*
X014933Y016063D01*
X014848Y016269D01*
X014848Y016491D01*
X014933Y016697D01*
X015091Y016855D01*
X015297Y016940D01*
X015519Y016940D01*
X015725Y016855D01*
X015883Y016697D01*
X015968Y016491D01*
X015968Y016269D01*
X015883Y016063D01*
X015725Y015905D01*
X015783Y015963D02*
X016411Y015963D01*
X016287Y016122D02*
X015907Y016122D01*
X015968Y016280D02*
X016226Y016280D01*
X016226Y016439D02*
X015968Y016439D01*
X015924Y016597D02*
X016270Y016597D01*
X016122Y016756D02*
X015824Y016756D01*
X015963Y016914D02*
X015582Y016914D01*
X015805Y017073D02*
X012172Y017073D01*
X012180Y016980D02*
X011630Y016980D01*
X011630Y016980D01*
X012180Y016980D01*
X012176Y016914D02*
X013538Y016914D01*
X013470Y016756D02*
X012133Y016756D01*
X011630Y016980D02*
X011080Y016980D01*
X011630Y016980D01*
X011630Y016980D01*
X011080Y016980D02*
X011080Y016937D01*
X011094Y016851D01*
X011120Y016769D01*
X011160Y016692D01*
X011168Y016680D01*
X010037Y016680D01*
X010061Y016704D01*
X010108Y016768D01*
X010143Y016838D01*
X010168Y016913D01*
X010180Y016991D01*
X010180Y017021D01*
X009689Y017021D01*
X009689Y017039D01*
X010180Y017039D01*
X010180Y017069D01*
X010168Y017147D01*
X010143Y017222D01*
X010114Y017280D01*
X011168Y017280D01*
X011160Y017268D01*
X011120Y017191D01*
X011094Y017109D01*
X011080Y017023D01*
X011080Y016980D01*
X011084Y016914D02*
X010168Y016914D01*
X010179Y017073D02*
X011088Y017073D01*
X011141Y017231D02*
X010139Y017231D01*
X010099Y016756D02*
X011127Y016756D01*
X012119Y017231D02*
X015646Y017231D01*
X015234Y016914D02*
X014522Y016914D01*
X014590Y016756D02*
X014992Y016756D01*
X014892Y016597D02*
X014590Y016597D01*
X014590Y016439D02*
X014848Y016439D01*
X014848Y016280D02*
X014590Y016280D01*
X014590Y016122D02*
X014909Y016122D01*
X015033Y015963D02*
X014590Y015963D01*
X016529Y016914D02*
X016612Y016914D01*
X008230Y015012D02*
X006880Y015012D01*
X006795Y014854D02*
X008230Y014854D01*
X008230Y014695D02*
X006600Y014695D01*
X005630Y014854D02*
X004213Y014854D01*
X004300Y015012D02*
X005630Y015012D01*
X005630Y015171D02*
X004330Y015171D01*
X004316Y015329D02*
X005630Y015329D01*
X005630Y015488D02*
X004250Y015488D01*
X004084Y015646D02*
X005630Y015646D01*
X004249Y016670D02*
X004100Y016521D01*
X003905Y016440D01*
X003695Y016440D01*
X003500Y016521D01*
X003351Y016670D01*
X003270Y016865D01*
X003270Y017075D01*
X003351Y017270D01*
X003500Y017419D01*
X003695Y017500D01*
X003905Y017500D01*
X004100Y017419D01*
X004249Y017270D01*
X004330Y017075D01*
X004330Y016865D01*
X004249Y016670D01*
X004285Y016756D02*
X005630Y016756D01*
X005630Y016914D02*
X004330Y016914D01*
X004330Y017073D02*
X005630Y017073D01*
X005630Y017231D02*
X004266Y017231D01*
X004130Y017390D02*
X005757Y017390D01*
X005915Y017548D02*
X001244Y017548D01*
X001474Y017390D02*
X000969Y017390D01*
X000820Y017231D02*
X001154Y017231D01*
X000995Y017073D02*
X000713Y017073D01*
X000661Y016914D02*
X000909Y016914D01*
X000959Y017036D02*
X000959Y017036D01*
X000843Y016756D02*
X000622Y016756D01*
X000614Y016597D02*
X000830Y016597D01*
X000830Y016439D02*
X000614Y016439D01*
X000614Y016280D02*
X000874Y016280D01*
X000940Y016122D02*
X000614Y016122D01*
X000614Y015963D02*
X001070Y015963D01*
X000959Y016074D02*
X000959Y016074D01*
X001199Y015834D02*
X001199Y015834D01*
X001271Y015805D02*
X000614Y015805D01*
X000614Y015646D02*
X003516Y015646D01*
X003350Y015488D02*
X000614Y015488D01*
X000614Y015329D02*
X001244Y015329D01*
X001116Y015171D02*
X000614Y015171D01*
X000614Y015012D02*
X001116Y015012D01*
X001116Y014854D02*
X000614Y014854D01*
X002451Y015329D02*
X003284Y015329D01*
X003270Y015171D02*
X002579Y015171D01*
X002579Y015012D02*
X003300Y015012D01*
X003387Y014854D02*
X002579Y014854D01*
X002530Y016597D02*
X003423Y016597D01*
X003315Y016756D02*
X002517Y016756D01*
X002451Y016914D02*
X003270Y016914D01*
X003270Y017073D02*
X002365Y017073D01*
X002206Y017231D02*
X003334Y017231D01*
X003470Y017390D02*
X001886Y017390D01*
X002161Y017276D02*
X002161Y017276D01*
X001655Y017620D02*
X001655Y017620D01*
X004177Y016597D02*
X005630Y016597D01*
D50*
X012130Y011880D03*
X011880Y010130D03*
X010780Y009080D03*
X014430Y007430D03*
X016980Y006430D03*
X018380Y008880D03*
X021730Y009280D03*
X026130Y009280D03*
X028880Y009680D03*
X028880Y008480D03*
X029730Y007930D03*
X031280Y008280D03*
X031530Y010030D03*
X028880Y011030D03*
X025980Y011280D03*
X028180Y012630D03*
X025780Y012830D03*
X025830Y014530D03*
X027380Y015380D03*
X023430Y015130D03*
X016480Y012830D03*
X016830Y011280D03*
X022280Y006880D03*
X027180Y004480D03*
X028580Y003830D03*
X031930Y005680D03*
X033930Y004580D03*
X034380Y006530D03*
X037980Y006680D03*
X028330Y006080D03*
X023730Y003880D03*
X024680Y003080D03*
X021980Y003030D03*
X038680Y015180D03*
M02*
