G75*
%MOIN*%
%OFA0B0*%
%FSLAX24Y24*%
%IPPOS*%
%LPD*%
%AMOC8*
5,1,8,0,0,1.08239X$1,22.5*
%
%ADD10C,0.0000*%
%ADD11C,0.0560*%
%ADD12R,0.0394X0.0433*%
%ADD13R,0.0472X0.0315*%
%ADD14R,0.0433X0.0394*%
%ADD15R,0.0800X0.0260*%
%ADD16R,0.0472X0.0217*%
%ADD17R,0.1102X0.0787*%
%ADD18R,0.1575X0.0276*%
%ADD19R,0.1575X0.0472*%
%ADD20R,0.1095X0.1095*%
%ADD21R,0.1560X0.1560*%
%ADD22R,0.0800X0.0800*%
%ADD23C,0.0800*%
%ADD24OC8,0.0560*%
%ADD25C,0.0640*%
%ADD26R,0.0866X0.0236*%
%ADD27C,0.0740*%
%ADD28R,0.0500X0.0220*%
%ADD29R,0.0220X0.0500*%
%ADD30C,0.1700*%
%ADD31R,0.0394X0.0551*%
%ADD32R,0.0480X0.0245*%
%ADD33C,0.0660*%
%ADD34C,0.1300*%
%ADD35R,0.0160X0.0320*%
%ADD36R,0.0320X0.0160*%
%ADD37R,0.0551X0.0630*%
%ADD38R,0.0315X0.0315*%
%ADD39R,0.0551X0.0394*%
%ADD40R,0.0276X0.0276*%
%ADD41R,0.0550X0.0137*%
%ADD42R,0.0256X0.0197*%
%ADD43R,0.0315X0.0138*%
%ADD44R,0.0472X0.0787*%
%ADD45R,0.0630X0.0551*%
%ADD46C,0.0080*%
%ADD47C,0.0320*%
%ADD48C,0.0160*%
%ADD49OC8,0.0320*%
D10*
X001555Y000430D02*
X038255Y000430D01*
X038321Y000432D01*
X038387Y000437D01*
X038452Y000447D01*
X038516Y000459D01*
X038580Y000476D01*
X038643Y000496D01*
X038705Y000519D01*
X038765Y000546D01*
X038823Y000577D01*
X038880Y000610D01*
X038935Y000647D01*
X038988Y000686D01*
X039038Y000729D01*
X039086Y000774D01*
X039131Y000822D01*
X039174Y000872D01*
X039213Y000925D01*
X039250Y000980D01*
X039283Y001037D01*
X039314Y001095D01*
X039341Y001155D01*
X039364Y001217D01*
X039384Y001280D01*
X039401Y001344D01*
X039413Y001408D01*
X039423Y001473D01*
X039428Y001539D01*
X039430Y001605D01*
X039430Y016696D01*
X039429Y016695D02*
X039424Y016761D01*
X039415Y016826D01*
X039402Y016890D01*
X039386Y016953D01*
X039366Y017016D01*
X039343Y017077D01*
X039317Y017137D01*
X039287Y017195D01*
X039254Y017252D01*
X039217Y017306D01*
X039178Y017359D01*
X039136Y017409D01*
X039091Y017457D01*
X039044Y017502D01*
X038994Y017544D01*
X038941Y017584D01*
X038887Y017620D01*
X038831Y017654D01*
X038772Y017684D01*
X038713Y017711D01*
X038652Y017734D01*
X038589Y017755D01*
X038526Y017771D01*
X038462Y017784D01*
X038397Y017793D01*
X038331Y017799D01*
X038266Y017801D01*
X038201Y017799D01*
X038201Y017800D02*
X001580Y017800D01*
X001513Y017798D01*
X001447Y017792D01*
X001381Y017783D01*
X001316Y017769D01*
X001251Y017752D01*
X001188Y017731D01*
X001126Y017706D01*
X001066Y017678D01*
X001007Y017646D01*
X000950Y017611D01*
X000896Y017573D01*
X000843Y017532D01*
X000794Y017488D01*
X000746Y017440D01*
X000702Y017391D01*
X000661Y017338D01*
X000623Y017284D01*
X000588Y017227D01*
X000556Y017168D01*
X000528Y017108D01*
X000503Y017046D01*
X000482Y016983D01*
X000465Y016918D01*
X000451Y016853D01*
X000442Y016787D01*
X000436Y016721D01*
X000434Y016654D01*
X000434Y001551D01*
X000436Y001486D01*
X000442Y001421D01*
X000451Y001356D01*
X000464Y001292D01*
X000481Y001229D01*
X000502Y001168D01*
X000526Y001107D01*
X000553Y001048D01*
X000584Y000991D01*
X000618Y000935D01*
X000656Y000882D01*
X000696Y000830D01*
X000740Y000782D01*
X000786Y000736D01*
X000834Y000692D01*
X000886Y000652D01*
X000939Y000614D01*
X000994Y000580D01*
X001052Y000549D01*
X001111Y000522D01*
X001172Y000498D01*
X001233Y000477D01*
X001296Y000460D01*
X001360Y000447D01*
X001425Y000438D01*
X001490Y000432D01*
X001555Y000430D01*
X001030Y001680D02*
X001032Y001730D01*
X001038Y001780D01*
X001048Y001830D01*
X001061Y001878D01*
X001078Y001926D01*
X001099Y001972D01*
X001123Y002016D01*
X001151Y002058D01*
X001182Y002098D01*
X001216Y002135D01*
X001253Y002170D01*
X001292Y002201D01*
X001333Y002230D01*
X001377Y002255D01*
X001423Y002277D01*
X001470Y002295D01*
X001518Y002309D01*
X001567Y002320D01*
X001617Y002327D01*
X001667Y002330D01*
X001718Y002329D01*
X001768Y002324D01*
X001818Y002315D01*
X001866Y002303D01*
X001914Y002286D01*
X001960Y002266D01*
X002005Y002243D01*
X002048Y002216D01*
X002088Y002186D01*
X002126Y002153D01*
X002161Y002117D01*
X002194Y002078D01*
X002223Y002037D01*
X002249Y001994D01*
X002272Y001949D01*
X002291Y001902D01*
X002306Y001854D01*
X002318Y001805D01*
X002326Y001755D01*
X002330Y001705D01*
X002330Y001655D01*
X002326Y001605D01*
X002318Y001555D01*
X002306Y001506D01*
X002291Y001458D01*
X002272Y001411D01*
X002249Y001366D01*
X002223Y001323D01*
X002194Y001282D01*
X002161Y001243D01*
X002126Y001207D01*
X002088Y001174D01*
X002048Y001144D01*
X002005Y001117D01*
X001960Y001094D01*
X001914Y001074D01*
X001866Y001057D01*
X001818Y001045D01*
X001768Y001036D01*
X001718Y001031D01*
X001667Y001030D01*
X001617Y001033D01*
X001567Y001040D01*
X001518Y001051D01*
X001470Y001065D01*
X001423Y001083D01*
X001377Y001105D01*
X001333Y001130D01*
X001292Y001159D01*
X001253Y001190D01*
X001216Y001225D01*
X001182Y001262D01*
X001151Y001302D01*
X001123Y001344D01*
X001099Y001388D01*
X001078Y001434D01*
X001061Y001482D01*
X001048Y001530D01*
X001038Y001580D01*
X001032Y001630D01*
X001030Y001680D01*
X009288Y005565D02*
X009290Y005600D01*
X009296Y005635D01*
X009306Y005669D01*
X009319Y005702D01*
X009336Y005733D01*
X009357Y005761D01*
X009380Y005788D01*
X009407Y005811D01*
X009435Y005832D01*
X009466Y005849D01*
X009499Y005862D01*
X009533Y005872D01*
X009568Y005878D01*
X009603Y005880D01*
X009638Y005878D01*
X009673Y005872D01*
X009707Y005862D01*
X009740Y005849D01*
X009771Y005832D01*
X009799Y005811D01*
X009826Y005788D01*
X009849Y005761D01*
X009870Y005733D01*
X009887Y005702D01*
X009900Y005669D01*
X009910Y005635D01*
X009916Y005600D01*
X009918Y005565D01*
X009916Y005530D01*
X009910Y005495D01*
X009900Y005461D01*
X009887Y005428D01*
X009870Y005397D01*
X009849Y005369D01*
X009826Y005342D01*
X009799Y005319D01*
X009771Y005298D01*
X009740Y005281D01*
X009707Y005268D01*
X009673Y005258D01*
X009638Y005252D01*
X009603Y005250D01*
X009568Y005252D01*
X009533Y005258D01*
X009499Y005268D01*
X009466Y005281D01*
X009435Y005298D01*
X009407Y005319D01*
X009380Y005342D01*
X009357Y005369D01*
X009336Y005397D01*
X009319Y005428D01*
X009306Y005461D01*
X009296Y005495D01*
X009290Y005530D01*
X009288Y005565D01*
X009386Y013872D02*
X009388Y013901D01*
X009394Y013929D01*
X009403Y013957D01*
X009416Y013983D01*
X009433Y014006D01*
X009452Y014028D01*
X009474Y014047D01*
X009499Y014062D01*
X009525Y014075D01*
X009553Y014083D01*
X009581Y014088D01*
X009610Y014089D01*
X009639Y014086D01*
X009667Y014079D01*
X009694Y014069D01*
X009720Y014055D01*
X009743Y014038D01*
X009764Y014018D01*
X009782Y013995D01*
X009797Y013970D01*
X009808Y013943D01*
X009816Y013915D01*
X009820Y013886D01*
X009820Y013858D01*
X009816Y013829D01*
X009808Y013801D01*
X009797Y013774D01*
X009782Y013749D01*
X009764Y013726D01*
X009743Y013706D01*
X009720Y013689D01*
X009694Y013675D01*
X009667Y013665D01*
X009639Y013658D01*
X009610Y013655D01*
X009581Y013656D01*
X009553Y013661D01*
X009525Y013669D01*
X009499Y013682D01*
X009474Y013697D01*
X009452Y013716D01*
X009433Y013738D01*
X009416Y013761D01*
X009403Y013787D01*
X009394Y013815D01*
X009388Y013843D01*
X009386Y013872D01*
X001030Y016555D02*
X001032Y016605D01*
X001038Y016655D01*
X001048Y016705D01*
X001061Y016753D01*
X001078Y016801D01*
X001099Y016847D01*
X001123Y016891D01*
X001151Y016933D01*
X001182Y016973D01*
X001216Y017010D01*
X001253Y017045D01*
X001292Y017076D01*
X001333Y017105D01*
X001377Y017130D01*
X001423Y017152D01*
X001470Y017170D01*
X001518Y017184D01*
X001567Y017195D01*
X001617Y017202D01*
X001667Y017205D01*
X001718Y017204D01*
X001768Y017199D01*
X001818Y017190D01*
X001866Y017178D01*
X001914Y017161D01*
X001960Y017141D01*
X002005Y017118D01*
X002048Y017091D01*
X002088Y017061D01*
X002126Y017028D01*
X002161Y016992D01*
X002194Y016953D01*
X002223Y016912D01*
X002249Y016869D01*
X002272Y016824D01*
X002291Y016777D01*
X002306Y016729D01*
X002318Y016680D01*
X002326Y016630D01*
X002330Y016580D01*
X002330Y016530D01*
X002326Y016480D01*
X002318Y016430D01*
X002306Y016381D01*
X002291Y016333D01*
X002272Y016286D01*
X002249Y016241D01*
X002223Y016198D01*
X002194Y016157D01*
X002161Y016118D01*
X002126Y016082D01*
X002088Y016049D01*
X002048Y016019D01*
X002005Y015992D01*
X001960Y015969D01*
X001914Y015949D01*
X001866Y015932D01*
X001818Y015920D01*
X001768Y015911D01*
X001718Y015906D01*
X001667Y015905D01*
X001617Y015908D01*
X001567Y015915D01*
X001518Y015926D01*
X001470Y015940D01*
X001423Y015958D01*
X001377Y015980D01*
X001333Y016005D01*
X001292Y016034D01*
X001253Y016065D01*
X001216Y016100D01*
X001182Y016137D01*
X001151Y016177D01*
X001123Y016219D01*
X001099Y016263D01*
X001078Y016309D01*
X001061Y016357D01*
X001048Y016405D01*
X001038Y016455D01*
X001032Y016505D01*
X001030Y016555D01*
X037530Y016555D02*
X037532Y016605D01*
X037538Y016655D01*
X037548Y016705D01*
X037561Y016753D01*
X037578Y016801D01*
X037599Y016847D01*
X037623Y016891D01*
X037651Y016933D01*
X037682Y016973D01*
X037716Y017010D01*
X037753Y017045D01*
X037792Y017076D01*
X037833Y017105D01*
X037877Y017130D01*
X037923Y017152D01*
X037970Y017170D01*
X038018Y017184D01*
X038067Y017195D01*
X038117Y017202D01*
X038167Y017205D01*
X038218Y017204D01*
X038268Y017199D01*
X038318Y017190D01*
X038366Y017178D01*
X038414Y017161D01*
X038460Y017141D01*
X038505Y017118D01*
X038548Y017091D01*
X038588Y017061D01*
X038626Y017028D01*
X038661Y016992D01*
X038694Y016953D01*
X038723Y016912D01*
X038749Y016869D01*
X038772Y016824D01*
X038791Y016777D01*
X038806Y016729D01*
X038818Y016680D01*
X038826Y016630D01*
X038830Y016580D01*
X038830Y016530D01*
X038826Y016480D01*
X038818Y016430D01*
X038806Y016381D01*
X038791Y016333D01*
X038772Y016286D01*
X038749Y016241D01*
X038723Y016198D01*
X038694Y016157D01*
X038661Y016118D01*
X038626Y016082D01*
X038588Y016049D01*
X038548Y016019D01*
X038505Y015992D01*
X038460Y015969D01*
X038414Y015949D01*
X038366Y015932D01*
X038318Y015920D01*
X038268Y015911D01*
X038218Y015906D01*
X038167Y015905D01*
X038117Y015908D01*
X038067Y015915D01*
X038018Y015926D01*
X037970Y015940D01*
X037923Y015958D01*
X037877Y015980D01*
X037833Y016005D01*
X037792Y016034D01*
X037753Y016065D01*
X037716Y016100D01*
X037682Y016137D01*
X037651Y016177D01*
X037623Y016219D01*
X037599Y016263D01*
X037578Y016309D01*
X037561Y016357D01*
X037548Y016405D01*
X037538Y016455D01*
X037532Y016505D01*
X037530Y016555D01*
X037530Y001680D02*
X037532Y001730D01*
X037538Y001780D01*
X037548Y001830D01*
X037561Y001878D01*
X037578Y001926D01*
X037599Y001972D01*
X037623Y002016D01*
X037651Y002058D01*
X037682Y002098D01*
X037716Y002135D01*
X037753Y002170D01*
X037792Y002201D01*
X037833Y002230D01*
X037877Y002255D01*
X037923Y002277D01*
X037970Y002295D01*
X038018Y002309D01*
X038067Y002320D01*
X038117Y002327D01*
X038167Y002330D01*
X038218Y002329D01*
X038268Y002324D01*
X038318Y002315D01*
X038366Y002303D01*
X038414Y002286D01*
X038460Y002266D01*
X038505Y002243D01*
X038548Y002216D01*
X038588Y002186D01*
X038626Y002153D01*
X038661Y002117D01*
X038694Y002078D01*
X038723Y002037D01*
X038749Y001994D01*
X038772Y001949D01*
X038791Y001902D01*
X038806Y001854D01*
X038818Y001805D01*
X038826Y001755D01*
X038830Y001705D01*
X038830Y001655D01*
X038826Y001605D01*
X038818Y001555D01*
X038806Y001506D01*
X038791Y001458D01*
X038772Y001411D01*
X038749Y001366D01*
X038723Y001323D01*
X038694Y001282D01*
X038661Y001243D01*
X038626Y001207D01*
X038588Y001174D01*
X038548Y001144D01*
X038505Y001117D01*
X038460Y001094D01*
X038414Y001074D01*
X038366Y001057D01*
X038318Y001045D01*
X038268Y001036D01*
X038218Y001031D01*
X038167Y001030D01*
X038117Y001033D01*
X038067Y001040D01*
X038018Y001051D01*
X037970Y001065D01*
X037923Y001083D01*
X037877Y001105D01*
X037833Y001130D01*
X037792Y001159D01*
X037753Y001190D01*
X037716Y001225D01*
X037682Y001262D01*
X037651Y001302D01*
X037623Y001344D01*
X037599Y001388D01*
X037578Y001434D01*
X037561Y001482D01*
X037548Y001530D01*
X037538Y001580D01*
X037532Y001630D01*
X037530Y001680D01*
D11*
X022150Y012055D03*
X020250Y012055D03*
D12*
X022680Y010500D03*
X022680Y009830D03*
X022560Y008765D03*
X022560Y008095D03*
X022555Y005640D03*
X022555Y004970D03*
X029375Y006400D03*
X030045Y006400D03*
X037255Y012970D03*
X038055Y012970D03*
X038055Y013640D03*
X037255Y013640D03*
X038430Y014345D03*
X038430Y015015D03*
X012305Y007515D03*
X012305Y006845D03*
X012305Y006265D03*
X012305Y005595D03*
D13*
X017305Y005784D03*
X017305Y005076D03*
D14*
X022555Y006635D03*
X022555Y007305D03*
X016515Y008655D03*
X015845Y008655D03*
X018180Y011720D03*
X018180Y012390D03*
X030036Y013646D03*
X030036Y014315D03*
X036555Y016470D03*
X036555Y017140D03*
X031390Y010680D03*
X030720Y010680D03*
X030756Y009635D03*
X031425Y009635D03*
D15*
X015015Y009555D03*
X015015Y009055D03*
X015015Y010055D03*
X015015Y010555D03*
X015015Y011055D03*
X015015Y011555D03*
X015015Y012055D03*
X015015Y012555D03*
X012595Y012555D03*
X012595Y012055D03*
X012595Y011555D03*
X012595Y011055D03*
X012595Y010555D03*
X012595Y010055D03*
X012595Y009555D03*
X012595Y009055D03*
D16*
X013168Y005929D03*
X014192Y005929D03*
X014192Y005555D03*
X014192Y005181D03*
X013168Y005181D03*
X015168Y004931D03*
X016192Y004931D03*
X016192Y005305D03*
X016192Y005679D03*
X015168Y005679D03*
X020293Y005804D03*
X021317Y005804D03*
X021317Y005430D03*
X021317Y005056D03*
X020293Y005056D03*
D17*
X010076Y004699D03*
X001847Y003754D03*
X001847Y014738D03*
X010036Y014777D03*
D18*
X010784Y014108D03*
X010784Y013636D03*
X010784Y013124D03*
D19*
X010784Y012494D03*
X010784Y011510D03*
X010784Y010525D03*
X010784Y009541D03*
X010784Y008557D03*
X010784Y007573D03*
X010784Y006588D03*
X010784Y005604D03*
D20*
X030455Y015430D03*
X035655Y015430D03*
D21*
X033055Y015430D03*
D22*
X013555Y016430D03*
X018254Y001930D03*
X029277Y001930D03*
X007230Y001930D03*
D23*
X008608Y001930D03*
X009986Y001930D03*
X011364Y001930D03*
X012742Y001930D03*
X014120Y001930D03*
X015498Y001930D03*
X016876Y001930D03*
X019632Y001930D03*
X021010Y001930D03*
X022387Y001930D03*
X023765Y001930D03*
X025143Y001930D03*
X026521Y001930D03*
X027899Y001930D03*
X030655Y001930D03*
X032033Y001930D03*
X033411Y001930D03*
X023201Y016430D03*
X021823Y016430D03*
X020445Y016430D03*
X019067Y016430D03*
X017689Y016430D03*
X016311Y016430D03*
X014933Y016430D03*
D24*
X025055Y016180D03*
X025055Y015180D03*
X025055Y014180D03*
X025055Y013180D03*
X025055Y012180D03*
X029055Y012180D03*
X029055Y013180D03*
X029055Y014180D03*
X029055Y015180D03*
X029055Y016180D03*
X029055Y017180D03*
X025055Y017180D03*
D25*
X010180Y017055D03*
X009180Y017055D03*
X008180Y017055D03*
X008180Y016055D03*
X009180Y016055D03*
X010180Y016055D03*
D26*
X023829Y011160D03*
X023829Y010660D03*
X023829Y010160D03*
X023829Y009660D03*
X023829Y009160D03*
X023829Y008660D03*
X023829Y008160D03*
X023829Y007660D03*
X027451Y007660D03*
X027451Y008160D03*
X027451Y008660D03*
X027451Y009160D03*
X027451Y009660D03*
X027451Y010160D03*
X027451Y010660D03*
X027451Y011160D03*
D27*
X016555Y011680D03*
X016555Y012680D03*
X005835Y015290D03*
X003275Y015290D03*
X003275Y017070D03*
X005835Y017070D03*
X005835Y003570D03*
X003275Y003570D03*
X003275Y001790D03*
X005835Y001790D03*
D28*
X017555Y007268D03*
X017555Y007583D03*
X017555Y007898D03*
X017555Y008213D03*
X017555Y008527D03*
X017555Y008842D03*
X017555Y009157D03*
X017555Y009472D03*
X020935Y009472D03*
X020935Y009157D03*
X020935Y008842D03*
X020935Y008527D03*
X020935Y008213D03*
X020935Y007898D03*
X020935Y007583D03*
X020935Y007268D03*
D29*
X020347Y006680D03*
X020032Y006680D03*
X019717Y006680D03*
X019402Y006680D03*
X019088Y006680D03*
X018773Y006680D03*
X018458Y006680D03*
X018143Y006680D03*
X018143Y010060D03*
X018458Y010060D03*
X018773Y010060D03*
X019088Y010060D03*
X019402Y010060D03*
X019717Y010060D03*
X020032Y010060D03*
X020347Y010060D03*
D30*
X034781Y010505D03*
X037143Y010505D03*
X035962Y012355D03*
D31*
X034184Y012435D03*
X033436Y012435D03*
X032861Y012445D03*
X032113Y012445D03*
X032487Y011579D03*
X033810Y011569D03*
D32*
X036639Y014357D03*
X036639Y014731D03*
X036639Y015105D03*
X037670Y015105D03*
X037670Y014731D03*
X037670Y014357D03*
D33*
X035680Y005922D03*
X034900Y005922D03*
X034900Y004938D03*
X035680Y004938D03*
D34*
X036750Y003060D03*
X036750Y007800D03*
D35*
X019067Y005613D03*
X018752Y005613D03*
X018437Y005613D03*
X018122Y005613D03*
X018122Y004904D03*
X018437Y004904D03*
X018752Y004904D03*
X019067Y004904D03*
D36*
X016424Y006786D03*
X016424Y007101D03*
X016424Y007416D03*
X016424Y007731D03*
X015715Y007731D03*
X015715Y007416D03*
X015715Y007101D03*
X015715Y006786D03*
D37*
X030026Y012281D03*
X031129Y012281D03*
D38*
X035933Y001841D03*
X036625Y001841D03*
X036625Y001251D03*
X035933Y001251D03*
D39*
X032400Y009864D03*
X033267Y010238D03*
X032400Y010612D03*
X016988Y010929D03*
X016122Y010555D03*
X016988Y010181D03*
D40*
X028423Y007868D03*
X028935Y007868D03*
X029450Y007873D03*
X029961Y007873D03*
X029706Y007145D03*
X028679Y007140D03*
D41*
X030866Y007183D03*
X030866Y007439D03*
X030866Y007695D03*
X030866Y007951D03*
X030866Y008207D03*
X030866Y008462D03*
X030866Y008718D03*
X033744Y008718D03*
X033744Y008462D03*
X033744Y008207D03*
X033744Y007951D03*
X033744Y007695D03*
X033744Y007439D03*
X033744Y007183D03*
X033744Y006927D03*
X033744Y006671D03*
X033744Y006415D03*
X033744Y006159D03*
X033744Y005903D03*
X033744Y005648D03*
X033744Y005392D03*
X030866Y005392D03*
X030866Y005648D03*
X030866Y005903D03*
X030866Y006159D03*
X030866Y006415D03*
X030866Y006671D03*
X030866Y006927D03*
D42*
X024531Y006492D03*
X024039Y006492D03*
X024039Y006177D03*
X024039Y005863D03*
X024531Y005863D03*
X024531Y006177D03*
X024531Y005548D03*
X024039Y005548D03*
X034684Y002527D03*
X034684Y002212D03*
X035176Y002212D03*
X035176Y002527D03*
X035176Y001898D03*
X034684Y001898D03*
X034684Y001583D03*
X035176Y001583D03*
D43*
X028600Y006125D03*
X028600Y006381D03*
X028600Y006637D03*
X027931Y006637D03*
X027931Y006381D03*
X027931Y006125D03*
D44*
X028962Y005257D03*
X030222Y005257D03*
D45*
X026908Y005600D03*
X025818Y005605D03*
X025818Y006707D03*
X026908Y006702D03*
D46*
X026890Y006670D01*
X026530Y006310D01*
X025750Y006310D01*
X025330Y005890D01*
X024910Y005890D01*
X024910Y006010D01*
X024910Y005890D02*
X024550Y005890D01*
X024531Y005863D01*
X024550Y005830D01*
X024550Y005590D01*
X024531Y005548D01*
X024070Y005530D02*
X024039Y005548D01*
X024010Y005590D01*
X023410Y004990D01*
X023110Y005110D02*
X023110Y004450D01*
X020110Y004450D01*
X019570Y004990D01*
X019390Y004990D01*
X019210Y005590D02*
X020170Y004630D01*
X022810Y004630D01*
X022930Y004750D01*
X022930Y005170D01*
X023830Y006070D01*
X023650Y006070D01*
X023830Y006070D02*
X024070Y006310D01*
X024070Y006190D01*
X024039Y006177D01*
X024070Y006310D02*
X024070Y006490D01*
X024039Y006492D01*
X024531Y006492D02*
X024550Y006550D01*
X024550Y008470D01*
X026710Y010630D01*
X027430Y010630D01*
X027451Y010660D01*
X027490Y010630D01*
X027730Y010630D01*
X028390Y009970D01*
X028390Y007870D01*
X028423Y007868D01*
X028570Y007450D02*
X028930Y007810D01*
X028935Y007868D01*
X028990Y007870D01*
X029290Y008170D01*
X029710Y008170D01*
X029950Y007930D01*
X029961Y007873D01*
X030250Y007690D02*
X030250Y008530D01*
X028030Y010750D01*
X028030Y010810D01*
X027730Y011110D01*
X027490Y011110D01*
X027451Y011160D01*
X027430Y011110D01*
X027250Y010930D01*
X026770Y010930D01*
X026770Y010270D02*
X024910Y008410D01*
X024910Y006430D01*
X024670Y006190D01*
X024550Y006190D01*
X024531Y006177D01*
X024039Y005863D02*
X024010Y005830D01*
X023830Y005830D01*
X023110Y005110D01*
X022555Y004970D02*
X022510Y004930D01*
X022090Y004930D01*
X022090Y004980D01*
X022090Y004930D02*
X021730Y004930D01*
X021610Y004810D01*
X020590Y004810D01*
X020350Y005050D01*
X020293Y005056D01*
X019990Y005290D02*
X020890Y005290D01*
X021070Y005110D01*
X021310Y005110D01*
X021317Y005056D01*
X021370Y005110D01*
X021675Y005110D01*
X022090Y005400D01*
X022090Y006310D01*
X022150Y006370D01*
X021790Y006730D01*
X021790Y007630D01*
X021190Y008230D01*
X021310Y008350D01*
X021310Y008710D01*
X021190Y008830D01*
X020950Y008830D01*
X020935Y008842D01*
X020410Y008890D02*
X020370Y008890D01*
X020410Y008890D02*
X020410Y008170D01*
X020650Y007930D01*
X020890Y007930D01*
X020935Y007898D01*
X020650Y007630D02*
X020470Y007810D01*
X020050Y007810D01*
X020050Y010030D01*
X020032Y010060D01*
X020290Y010090D02*
X020347Y010060D01*
X020290Y010090D02*
X020290Y010390D01*
X019990Y010690D01*
X020290Y010690D02*
X020890Y010090D01*
X020890Y009490D01*
X020935Y009472D01*
X020950Y009490D01*
X021430Y009490D01*
X022390Y010450D01*
X022630Y010450D01*
X022680Y010500D01*
X023050Y010150D02*
X023050Y009310D01*
X022930Y009190D01*
X023230Y009790D02*
X023230Y008170D01*
X022810Y007750D01*
X022090Y007750D01*
X021910Y007930D01*
X022150Y008170D02*
X022150Y009790D01*
X021370Y009850D02*
X022930Y011410D01*
X027970Y011410D01*
X028690Y010690D01*
X030670Y010690D01*
X030720Y010680D01*
X031330Y010630D02*
X031390Y010680D01*
X031330Y010630D02*
X030670Y009970D01*
X030490Y009970D01*
X030370Y009850D01*
X029745Y009275D01*
X030550Y008470D01*
X030850Y008470D01*
X030866Y008462D01*
X030866Y008718D02*
X030910Y008770D01*
X031090Y008950D01*
X031090Y009070D01*
X030730Y009258D02*
X030730Y009310D01*
X030737Y009610D02*
X030670Y009610D01*
X030756Y009635D01*
X030790Y009670D01*
X030737Y009616D01*
X031390Y009610D02*
X031425Y009635D01*
X031450Y009670D01*
X031450Y010150D01*
X031750Y010450D01*
X031750Y011590D01*
X032470Y011590D01*
X032487Y011579D01*
X032830Y011890D02*
X032830Y011050D01*
X032410Y010630D01*
X032400Y010612D01*
X033250Y010210D02*
X033267Y010238D01*
X033310Y010210D01*
X034030Y009490D01*
X035170Y009490D01*
X035770Y010090D01*
X035770Y010510D01*
X037210Y011950D01*
X037210Y012970D01*
X037255Y012970D01*
X038055Y012970D02*
X038110Y013030D01*
X038410Y013330D01*
X038410Y014290D01*
X038430Y014345D01*
X038410Y014350D01*
X038110Y014650D01*
X038110Y015250D01*
X037330Y016030D01*
X036970Y015670D01*
X036970Y015310D01*
X037030Y015250D01*
X037030Y014590D01*
X036850Y014410D01*
X036670Y014410D01*
X036639Y014357D01*
X036610Y014350D01*
X034750Y014350D01*
X033190Y012790D01*
X032770Y013210D01*
X032350Y013210D01*
X032170Y013030D01*
X032170Y012490D01*
X032113Y012445D01*
X032110Y012490D01*
X032110Y015070D01*
X030550Y016630D01*
X024010Y016630D01*
X023410Y017230D01*
X021730Y017230D01*
X021610Y017530D02*
X021250Y017170D01*
X021250Y014710D01*
X019330Y012790D01*
X019330Y010570D01*
X019402Y010060D02*
X019390Y010030D01*
X019390Y009790D01*
X019210Y009610D01*
X019585Y008095D01*
X019290Y008290D02*
X018195Y007445D01*
X018430Y007180D02*
X017950Y007030D01*
X017710Y007030D01*
X016390Y005960D01*
X016210Y005710D01*
X016192Y005679D01*
X016690Y005770D02*
X016990Y005470D01*
X017590Y005470D01*
X017710Y005590D01*
X018070Y005590D01*
X018122Y005613D01*
X018130Y005650D01*
X018130Y006670D01*
X018143Y006680D01*
X018430Y006670D02*
X018458Y006680D01*
X018430Y006670D02*
X018430Y006070D01*
X018430Y005650D01*
X018437Y005613D01*
X018730Y005590D02*
X018752Y005613D01*
X018790Y005650D01*
X018790Y005770D01*
X018970Y005950D01*
X019330Y005950D01*
X019990Y005290D01*
X019210Y005590D02*
X019090Y005590D01*
X019067Y005613D01*
X018730Y005590D02*
X018730Y005470D01*
X018490Y005230D01*
X017470Y005230D01*
X017350Y005110D01*
X017305Y005076D01*
X017290Y005050D01*
X017230Y004990D01*
X016210Y004990D01*
X016192Y004931D01*
X016150Y004990D01*
X015970Y004990D01*
X015790Y005170D01*
X014230Y005170D01*
X014192Y005181D01*
X014110Y004930D02*
X014110Y002890D01*
X012370Y002890D01*
X011410Y001930D01*
X011364Y001930D01*
X011350Y001930D01*
X010810Y002470D01*
X009790Y002470D01*
X009250Y001930D01*
X008608Y001930D01*
X008050Y001750D02*
X008590Y001210D01*
X023830Y001210D01*
X024310Y001690D01*
X024310Y002170D01*
X022870Y003610D01*
X023110Y003790D02*
X024610Y002290D01*
X024610Y001690D01*
X024910Y001390D01*
X029710Y001390D01*
X030130Y001810D01*
X030130Y002170D01*
X030430Y002470D01*
X032830Y002470D01*
X033370Y001930D01*
X033411Y001930D01*
X033610Y001390D02*
X034090Y001870D01*
X034630Y001870D01*
X034684Y001898D01*
X035176Y001898D02*
X035230Y001870D01*
X035290Y001870D01*
X035530Y001630D01*
X035530Y001390D01*
X035230Y001270D02*
X035830Y000670D01*
X038590Y000670D01*
X039190Y001270D01*
X039190Y003790D01*
X033970Y009010D01*
X031990Y009010D01*
X031690Y009190D02*
X032350Y009850D01*
X032400Y009864D01*
X031990Y010210D02*
X033250Y010210D01*
X034210Y010510D02*
X034750Y010510D01*
X034781Y010505D01*
X034210Y010510D02*
X033490Y011230D01*
X033490Y012430D01*
X033436Y012435D01*
X033490Y012490D01*
X033190Y012790D01*
X032830Y012490D02*
X032861Y012445D01*
X032830Y012490D02*
X032470Y012850D01*
X032470Y012910D01*
X031750Y012430D02*
X031750Y012130D01*
X031870Y012010D01*
X032710Y012010D01*
X032830Y011890D01*
X033810Y011569D02*
X033850Y011590D01*
X034030Y011590D01*
X034510Y012070D01*
X034510Y012310D01*
X035530Y013330D01*
X036190Y013330D01*
X037210Y014350D01*
X037630Y014350D01*
X037670Y014357D01*
X036639Y014731D02*
X036610Y014710D01*
X034690Y014710D01*
X033790Y013810D01*
X033010Y013630D02*
X034930Y015550D01*
X034930Y015970D01*
X035170Y016210D01*
X036190Y016210D01*
X036610Y015790D01*
X036610Y015130D01*
X036639Y015105D01*
X037330Y016030D02*
X036910Y016450D01*
X036610Y016450D01*
X036555Y016470D01*
X036190Y016210D02*
X036190Y016750D01*
X036550Y017110D01*
X036555Y017140D01*
X030455Y015430D02*
X030430Y015430D01*
X030070Y015070D01*
X030070Y014350D01*
X030036Y014315D01*
X030036Y013646D02*
X030070Y013630D01*
X030550Y013630D01*
X031750Y012430D01*
X030730Y011590D02*
X030070Y012250D01*
X030026Y012281D01*
X030730Y011590D02*
X031750Y011590D01*
X034184Y012435D02*
X034210Y012490D01*
X034210Y013390D01*
X033010Y013450D02*
X033010Y013630D01*
X031990Y010210D02*
X031810Y010030D01*
X031390Y009610D02*
X031390Y008170D01*
X032830Y006730D01*
X033730Y006730D01*
X033744Y006671D01*
X033790Y006670D01*
X034150Y006670D01*
X034870Y005950D01*
X034900Y005922D01*
X034930Y005890D01*
X035350Y005470D01*
X035830Y005470D01*
X036130Y005170D01*
X036130Y004750D01*
X034690Y003310D01*
X034690Y002530D01*
X034684Y002527D01*
X034690Y002470D01*
X034690Y002230D01*
X034684Y002212D01*
X035176Y002212D02*
X035230Y002170D01*
X035590Y002170D01*
X035890Y001870D01*
X035933Y001841D01*
X036010Y002470D02*
X036610Y001870D01*
X036625Y001841D01*
X036670Y001390D02*
X037570Y002290D01*
X037570Y004690D01*
X035110Y007150D01*
X033790Y007150D01*
X033744Y007183D01*
X033790Y007390D02*
X033744Y007439D01*
X033790Y007390D02*
X035110Y007390D01*
X039010Y003490D01*
X039010Y001330D01*
X038530Y000850D01*
X036490Y000850D01*
X036130Y001210D01*
X035950Y001210D01*
X035933Y001251D01*
X036625Y001251D02*
X036670Y001270D01*
X036670Y001390D01*
X035230Y001270D02*
X035230Y001570D01*
X035176Y001583D01*
X034684Y001583D02*
X034630Y001570D01*
X034030Y001570D01*
X033670Y001210D01*
X030010Y001210D01*
X029710Y000910D01*
X019510Y000910D01*
X020410Y001390D02*
X020950Y001930D01*
X021010Y001930D01*
X020770Y002470D02*
X020230Y001930D01*
X019632Y001930D01*
X019270Y001930D01*
X018730Y002470D01*
X017470Y002470D01*
X016930Y001930D01*
X016876Y001930D01*
X016330Y001930D01*
X015790Y002470D01*
X014110Y002470D01*
X014110Y001930D01*
X014120Y001930D01*
X013570Y001870D02*
X013570Y001690D01*
X013870Y001390D01*
X020410Y001390D01*
X021790Y002470D02*
X022330Y001930D01*
X022387Y001930D01*
X021790Y002470D02*
X020770Y002470D01*
X022210Y003010D02*
X016505Y003010D01*
X017770Y004525D01*
X017770Y004810D01*
X017890Y004210D02*
X018790Y003310D01*
X021910Y003310D01*
X021790Y003850D02*
X023710Y001930D01*
X023765Y001930D01*
X025143Y001930D02*
X025630Y001930D01*
X026530Y002830D01*
X026530Y003790D01*
X025210Y005110D01*
X025210Y005590D01*
X024710Y004890D02*
X024070Y005530D01*
X024010Y005170D02*
X024010Y004850D01*
X025305Y003555D01*
X026230Y002950D01*
X026470Y001930D02*
X027610Y003070D01*
X027610Y006670D01*
X027910Y006670D01*
X027931Y006637D01*
X027610Y006670D02*
X026950Y006670D01*
X026908Y006702D01*
X027931Y006381D02*
X027970Y006370D01*
X028210Y006370D01*
X028450Y006130D01*
X028570Y006130D01*
X028600Y006125D01*
X028570Y006070D01*
X028570Y005710D01*
X027910Y005050D01*
X027850Y005410D02*
X027930Y005555D01*
X028930Y005290D02*
X028962Y005257D01*
X028930Y005290D02*
X028930Y006250D01*
X028810Y006370D01*
X028630Y006370D01*
X028600Y006381D01*
X028600Y006637D02*
X028570Y006670D01*
X028330Y006670D01*
X027850Y007150D01*
X025210Y007150D01*
X024250Y007150D02*
X023950Y007150D01*
X022990Y006190D01*
X022390Y006190D01*
X022150Y006370D02*
X022390Y006610D01*
X022510Y006610D01*
X022555Y006635D01*
X022570Y006670D01*
X023230Y006670D01*
X023650Y007090D01*
X023650Y007270D01*
X023230Y007090D02*
X023110Y006970D01*
X022270Y006970D01*
X022210Y006910D01*
X022090Y006910D01*
X021610Y007150D02*
X021610Y006670D01*
X021665Y006240D01*
X021665Y006260D01*
X021675Y006260D01*
X021370Y005830D01*
X021317Y005804D01*
X021115Y006310D02*
X020170Y006310D01*
X020050Y006430D01*
X020050Y006670D01*
X020032Y006680D01*
X019750Y006670D02*
X019717Y006680D01*
X019750Y006670D02*
X019750Y005950D01*
X019810Y005890D01*
X019402Y006680D02*
X019450Y006730D01*
X019450Y006970D01*
X019570Y007090D01*
X020470Y007090D01*
X020650Y006910D01*
X021310Y006910D01*
X021610Y007150D02*
X021190Y007570D01*
X020950Y007570D01*
X020935Y007583D01*
X020890Y007630D01*
X020650Y007630D01*
X020350Y007390D02*
X020470Y007270D01*
X020890Y007270D01*
X020935Y007268D01*
X020650Y006670D02*
X020350Y006670D01*
X020347Y006680D01*
X020650Y006670D02*
X020710Y006610D01*
X022090Y007330D02*
X022510Y007330D01*
X022555Y007305D01*
X022560Y008095D02*
X022510Y008110D01*
X022210Y008110D01*
X022150Y008170D01*
X021190Y009130D01*
X020950Y009130D01*
X020935Y009157D01*
X020950Y008230D02*
X020935Y008213D01*
X020950Y008230D02*
X021190Y008230D01*
X020050Y007810D02*
X018980Y007810D01*
X018730Y007605D01*
X018430Y007180D01*
X018790Y007330D02*
X018970Y007510D01*
X019390Y007510D01*
X018790Y007330D02*
X018790Y006730D01*
X018773Y006680D01*
X019088Y006680D02*
X019090Y006730D01*
X019090Y007210D01*
X017770Y006670D02*
X017350Y006250D01*
X017350Y005830D01*
X017305Y005784D01*
X016390Y006610D02*
X016210Y006430D01*
X016390Y006610D02*
X016390Y006730D01*
X016424Y006786D01*
X016450Y006790D01*
X017110Y006790D01*
X017530Y007210D01*
X017555Y007268D01*
X017530Y007570D02*
X017290Y007570D01*
X017050Y007330D01*
X017050Y007270D01*
X017050Y007330D02*
X016870Y007150D01*
X016450Y007150D01*
X016424Y007101D01*
X016270Y007390D02*
X016030Y007150D01*
X016030Y006670D01*
X015790Y006430D01*
X015670Y006130D02*
X015430Y006370D01*
X015240Y006370D01*
X014955Y006655D01*
X014830Y006655D01*
X014710Y006785D01*
X014710Y007090D01*
X015430Y007810D01*
X015430Y007870D01*
X015550Y007990D01*
X016150Y007990D01*
X016390Y007750D01*
X016424Y007731D01*
X016450Y007750D01*
X016570Y007750D01*
X016870Y008050D01*
X016870Y008410D01*
X016990Y008530D01*
X017050Y008470D01*
X016990Y008530D02*
X017290Y008830D01*
X017530Y008830D01*
X017555Y008842D01*
X017840Y008530D02*
X018195Y008780D01*
X018245Y009150D02*
X017890Y009130D01*
X017590Y009130D01*
X017555Y009157D01*
X017530Y009130D01*
X017290Y009130D01*
X016870Y008710D01*
X016570Y008710D01*
X016515Y008655D01*
X016570Y008170D02*
X015490Y008170D01*
X013570Y006250D01*
X012310Y007510D01*
X012305Y007515D01*
X011830Y007570D02*
X010810Y007570D01*
X010784Y007573D01*
X010930Y007090D02*
X010930Y006730D01*
X010810Y006610D01*
X010784Y006588D01*
X009970Y006190D02*
X009850Y006310D01*
X009670Y006310D01*
X008050Y004690D01*
X008050Y001750D01*
X007270Y001930D02*
X007230Y001930D01*
X007270Y001930D02*
X007270Y004450D01*
X009550Y006730D01*
X009850Y006310D02*
X009850Y010210D01*
X010510Y009550D01*
X010750Y009550D01*
X010784Y009541D01*
X011830Y009490D02*
X011830Y007990D01*
X012295Y008105D02*
X012070Y008455D01*
X012070Y009250D01*
X012370Y009550D01*
X012550Y009550D01*
X012595Y009555D01*
X012370Y010030D02*
X011830Y009490D01*
X012370Y010030D02*
X012550Y010030D01*
X012595Y010055D01*
X012595Y010555D02*
X012550Y010570D01*
X011950Y010570D01*
X011710Y011230D02*
X011050Y010570D01*
X010810Y010570D01*
X010784Y010525D01*
X009850Y010210D02*
X009850Y011770D01*
X009970Y011890D01*
X011410Y011890D01*
X012070Y012550D01*
X012550Y012550D01*
X012595Y012555D01*
X012595Y012055D02*
X012550Y012010D01*
X012310Y012010D01*
X011710Y011410D01*
X011710Y011230D01*
X012595Y011055D02*
X012610Y011050D01*
X012850Y011050D01*
X013150Y010750D01*
X013150Y008890D01*
X012915Y008530D01*
X012295Y008105D02*
X014505Y007855D01*
X014585Y008525D02*
X013330Y010030D01*
X013330Y011050D01*
X013090Y011290D01*
X013570Y011770D01*
X013570Y015310D01*
X012970Y015610D02*
X008230Y015610D01*
X008230Y016030D01*
X008180Y016055D01*
X009310Y016570D02*
X006370Y016570D01*
X005890Y017050D01*
X005835Y017070D01*
X008180Y017055D02*
X008230Y017110D01*
X008590Y017110D01*
X009010Y017530D01*
X017950Y017530D01*
X019030Y016450D01*
X019067Y016430D01*
X017710Y016390D02*
X017689Y016430D01*
X017710Y016390D02*
X019870Y014230D01*
X019870Y013750D01*
X020290Y013330D02*
X019690Y012730D01*
X019690Y010090D01*
X019717Y010060D01*
X019088Y010060D02*
X019030Y010090D01*
X019030Y010990D01*
X018310Y011710D01*
X018190Y011710D01*
X018180Y011720D01*
X017830Y011170D02*
X016810Y012190D01*
X016330Y012190D01*
X015730Y012790D01*
X015730Y016390D01*
X015130Y016990D01*
X014110Y016990D01*
X013630Y016510D01*
X013555Y016430D01*
X013510Y016390D01*
X013270Y016150D01*
X013270Y011890D01*
X012850Y011530D02*
X012610Y011530D01*
X012595Y011555D01*
X012850Y011530D02*
X013090Y011290D01*
X015550Y011950D02*
X015550Y015790D01*
X014950Y016390D01*
X014933Y016430D01*
X013630Y016510D02*
X010090Y016510D01*
X009550Y017050D01*
X009190Y017050D01*
X009180Y017055D01*
X009310Y016570D02*
X009790Y016090D01*
X010150Y016090D01*
X010180Y016055D01*
X010930Y016810D02*
X012910Y016810D01*
X013270Y017170D01*
X016330Y017170D01*
X017110Y016390D01*
X017110Y014410D01*
X018370Y013150D01*
X018670Y013690D02*
X019330Y014350D01*
X018670Y013690D02*
X018670Y012430D01*
X018180Y012390D02*
X018130Y012430D01*
X016810Y012430D01*
X016570Y012670D01*
X016555Y012680D01*
X015550Y011950D02*
X016570Y010930D01*
X016570Y010690D01*
X016690Y010570D01*
X017290Y010570D01*
X018145Y010090D01*
X018130Y010090D01*
X018143Y010060D01*
X018430Y010090D02*
X018458Y010060D01*
X018430Y010090D02*
X018430Y010570D01*
X018730Y010870D02*
X016990Y010870D01*
X016988Y010929D01*
X016122Y010555D02*
X016090Y010510D01*
X015920Y010090D01*
X016990Y010150D02*
X016988Y010181D01*
X016990Y010150D02*
X017410Y010150D01*
X018190Y009370D01*
X018550Y009370D01*
X018245Y009150D02*
X018870Y008850D01*
X018880Y008360D01*
X019290Y008290D02*
X018790Y009905D01*
X018773Y010060D01*
X020290Y010690D02*
X020290Y012010D01*
X020250Y012055D01*
X023590Y011710D02*
X025030Y013150D01*
X025055Y013180D01*
X025055Y014180D02*
X025030Y014230D01*
X021490Y014230D01*
X021610Y014650D02*
X024550Y014650D01*
X025030Y015130D01*
X025055Y015180D01*
X025055Y017180D02*
X025030Y017230D01*
X024730Y017530D01*
X021610Y017530D01*
X013630Y016510D02*
X013570Y016450D01*
X013555Y016430D01*
X010210Y012550D02*
X008230Y014530D01*
X008230Y015610D01*
X010210Y012550D02*
X010750Y012550D01*
X010784Y012494D01*
X015975Y009430D02*
X017530Y009430D01*
X017555Y009472D01*
X017555Y008527D02*
X017840Y008530D01*
X017555Y007898D02*
X017530Y007870D01*
X017230Y007870D01*
X016810Y007450D01*
X016450Y007450D01*
X016424Y007416D01*
X016390Y007390D01*
X016270Y007390D01*
X017530Y007570D02*
X017555Y007583D01*
X014945Y008400D02*
X014585Y008525D01*
X013570Y006250D02*
X013810Y006010D01*
X013810Y004990D01*
X013870Y004930D01*
X014110Y004930D01*
X015130Y004930D01*
X015168Y004931D01*
X015670Y005470D02*
X015670Y006130D01*
X015310Y006070D02*
X015190Y005950D01*
X014230Y005950D01*
X014192Y005929D01*
X013150Y005230D02*
X012790Y005590D01*
X012310Y005590D01*
X012305Y005595D01*
X012250Y005650D01*
X011950Y005650D01*
X011410Y006190D01*
X009970Y006190D01*
X013150Y005230D02*
X013168Y005181D01*
X016505Y003010D02*
X016150Y002530D01*
X014110Y002470D02*
X014110Y002890D01*
X013570Y001870D02*
X012850Y002590D01*
X012490Y002590D01*
X021790Y003850D02*
X021790Y004150D01*
X023110Y004450D02*
X023110Y003790D01*
X024710Y004890D02*
X025635Y003890D01*
X027610Y003070D02*
X030010Y005470D01*
X030222Y005257D01*
X030190Y005290D01*
X030010Y005470D01*
X029710Y005770D01*
X029650Y005770D01*
X029710Y005770D02*
X029410Y006070D01*
X029410Y006370D01*
X029375Y006400D01*
X030045Y006400D02*
X030070Y006430D01*
X030070Y007090D01*
X030310Y007330D01*
X030130Y007570D02*
X030250Y007690D01*
X030130Y007570D02*
X029770Y007570D01*
X029470Y007870D01*
X029450Y007873D01*
X028570Y007450D02*
X027970Y007450D01*
X027910Y007390D01*
X026830Y007390D01*
X026770Y007450D01*
X025818Y006707D02*
X025810Y006670D01*
X025690Y006670D01*
X025270Y006250D01*
X028270Y007150D02*
X028630Y007150D01*
X028679Y007140D01*
X029706Y007145D02*
X029710Y007090D01*
X029710Y006130D01*
X029890Y005950D01*
X030310Y005950D01*
X030866Y006159D02*
X030910Y006190D01*
X031210Y006190D01*
X031270Y006250D01*
X031270Y007090D01*
X031210Y007150D01*
X030910Y007150D01*
X030866Y007183D01*
X031270Y007330D02*
X031270Y007570D01*
X031150Y007690D01*
X030910Y007690D01*
X030866Y007695D01*
X030866Y007951D02*
X030910Y007990D01*
X031210Y007990D01*
X031390Y008170D01*
X031690Y008710D02*
X031690Y009190D01*
X028090Y009790D02*
X028090Y008410D01*
X028090Y009790D02*
X027730Y010150D01*
X027490Y010150D01*
X027451Y010160D01*
X023829Y010160D02*
X023770Y010150D01*
X023590Y010150D01*
X023230Y009790D01*
X023050Y010150D02*
X023530Y010630D01*
X023770Y010630D01*
X023829Y010660D01*
X031270Y007330D02*
X034270Y004330D01*
X034270Y002650D01*
X035176Y002527D02*
X035230Y002470D01*
X036010Y002470D01*
X033610Y001390D02*
X031210Y001390D01*
X030670Y001930D01*
X030655Y001930D01*
X026521Y001930D02*
X026470Y001930D01*
X033744Y005392D02*
X033790Y005350D01*
X034690Y004450D01*
X035170Y004450D01*
X035650Y004930D01*
X035680Y004938D01*
X034900Y004938D02*
X034870Y004990D01*
X034270Y005590D01*
X033790Y005590D01*
X033744Y005648D01*
D47*
X030310Y005950D03*
X029650Y005770D03*
X027910Y005050D03*
X025635Y003890D03*
X026230Y002950D03*
X022870Y003610D03*
X022210Y003010D03*
X021910Y003310D03*
X021790Y004150D03*
X022090Y004980D03*
X023410Y004990D03*
X024010Y005170D03*
X025210Y005590D03*
X024910Y006010D03*
X025270Y006250D03*
X023650Y006070D03*
X022390Y006190D03*
X021665Y006260D03*
X021115Y006310D03*
X020710Y006610D03*
X021310Y006910D03*
X022090Y006910D03*
X022090Y007330D03*
X021910Y007930D03*
X020350Y007390D03*
X019390Y007510D03*
X019090Y007210D03*
X018195Y007445D03*
X017050Y007270D03*
X017770Y006670D03*
X018430Y006070D03*
X019810Y005890D03*
X019390Y004990D03*
X017770Y004810D03*
X017890Y004210D03*
X015670Y005470D03*
X016690Y005770D03*
X015310Y006070D03*
X015790Y006430D03*
X016210Y006430D03*
X014505Y007855D03*
X014945Y008400D03*
X016570Y008170D03*
X017050Y008470D03*
X018195Y008780D03*
X018550Y009370D03*
X018880Y008360D03*
X019585Y008095D03*
X022930Y009190D03*
X022150Y009790D03*
X021370Y009850D03*
X019990Y010690D03*
X019330Y010570D03*
X018730Y010870D03*
X018430Y010570D03*
X017830Y011170D03*
X015920Y010090D03*
X015975Y009430D03*
X012915Y008530D03*
X011830Y007990D03*
X011830Y007570D03*
X010930Y007090D03*
X009550Y006730D03*
X011950Y010570D03*
X013270Y011890D03*
X018370Y013150D03*
X019870Y013750D03*
X020290Y013330D03*
X019330Y014350D03*
X021490Y014230D03*
X021610Y014650D03*
X018670Y012430D03*
X023590Y011710D03*
X026770Y010930D03*
X026770Y010270D03*
X028090Y008410D03*
X026770Y007450D03*
X028270Y007150D03*
X030310Y007330D03*
X031690Y008710D03*
X031990Y009010D03*
X031090Y009070D03*
X031810Y010030D03*
X032470Y012910D03*
X033010Y013450D03*
X033790Y013810D03*
X034210Y013390D03*
X021730Y017230D03*
X013570Y015310D03*
X012970Y015610D03*
X010930Y016810D03*
X023650Y007270D03*
X023230Y007090D03*
X024250Y007150D03*
X025210Y007150D03*
X034270Y002650D03*
X035530Y001390D03*
X030010Y001210D03*
X019510Y000910D03*
X016150Y002530D03*
X012490Y002590D03*
D48*
X001128Y000713D02*
X000890Y000886D01*
X000717Y001124D01*
X000626Y001404D01*
X000614Y001551D01*
X000614Y016654D01*
X000626Y016805D01*
X000719Y017093D01*
X000897Y017337D01*
X001142Y017515D01*
X001429Y017608D01*
X001580Y017620D01*
X008817Y017620D01*
X008810Y017613D01*
X008555Y017358D01*
X008452Y017462D01*
X008275Y017535D01*
X008085Y017535D01*
X007908Y017462D01*
X007773Y017327D01*
X007700Y017150D01*
X007700Y016960D01*
X007773Y016783D01*
X007786Y016770D01*
X006453Y016770D01*
X006334Y016889D01*
X006365Y016965D01*
X006365Y017175D01*
X006284Y017370D01*
X006135Y017519D01*
X005940Y017600D01*
X005730Y017600D01*
X005535Y017519D01*
X005386Y017370D01*
X005305Y017175D01*
X005305Y016965D01*
X005386Y016770D01*
X005535Y016621D01*
X005730Y016540D01*
X005940Y016540D01*
X006065Y016592D01*
X006287Y016370D01*
X007816Y016370D01*
X007773Y016327D01*
X007700Y016150D01*
X007700Y015960D01*
X007773Y015783D01*
X007908Y015648D01*
X008030Y015598D01*
X008030Y014447D01*
X008147Y014330D01*
X008147Y014330D01*
X009837Y012640D01*
X009837Y012191D01*
X009931Y012098D01*
X011335Y012098D01*
X011327Y012090D01*
X009887Y012090D01*
X009767Y011970D01*
X009650Y011853D01*
X009650Y007035D01*
X009614Y007050D01*
X009486Y007050D01*
X009369Y007001D01*
X009279Y006911D01*
X009230Y006794D01*
X009230Y006693D01*
X007070Y004533D01*
X007070Y002490D01*
X006764Y002490D01*
X006670Y002396D01*
X006670Y001464D01*
X006764Y001370D01*
X007696Y001370D01*
X007790Y001464D01*
X007790Y002396D01*
X007696Y002490D01*
X007470Y002490D01*
X007470Y004367D01*
X007850Y004747D01*
X007850Y001667D01*
X008390Y001127D01*
X008507Y001010D01*
X019205Y001010D01*
X019190Y000974D01*
X019190Y000846D01*
X019239Y000729D01*
X019329Y000639D01*
X019398Y000610D01*
X001555Y000610D01*
X001408Y000622D01*
X001128Y000713D01*
X001080Y000747D02*
X019231Y000747D01*
X019190Y000906D02*
X002031Y000906D01*
X002161Y000959D02*
X001849Y000830D01*
X001630Y000830D01*
X001511Y000830D01*
X001199Y000959D01*
X001199Y000959D01*
X001199Y000959D01*
X000959Y001199D01*
X000959Y001199D01*
X000830Y001511D01*
X000830Y001849D01*
X000959Y002161D01*
X001199Y002401D01*
X001199Y002401D01*
X001511Y002530D01*
X001849Y002530D01*
X002161Y002401D01*
X002161Y002401D01*
X002401Y002161D01*
X002401Y002161D01*
X002530Y001849D01*
X002530Y001511D01*
X002401Y001199D01*
X002401Y001199D01*
X002161Y000959D01*
X002161Y000959D01*
X002266Y001064D02*
X008453Y001064D01*
X008295Y001223D02*
X002411Y001223D01*
X002476Y001381D02*
X002934Y001381D01*
X002975Y001341D02*
X003170Y001260D01*
X003380Y001260D01*
X003575Y001341D01*
X003724Y001490D01*
X003805Y001685D01*
X003805Y001895D01*
X003724Y002090D01*
X003575Y002239D01*
X003380Y002320D01*
X003170Y002320D01*
X002975Y002239D01*
X002826Y002090D01*
X002745Y001895D01*
X002745Y001685D01*
X002826Y001490D01*
X002975Y001341D01*
X002805Y001540D02*
X002530Y001540D01*
X002530Y001698D02*
X002745Y001698D01*
X002745Y001857D02*
X002527Y001857D01*
X002461Y002015D02*
X002795Y002015D01*
X002909Y002174D02*
X002389Y002174D01*
X002230Y002332D02*
X005741Y002332D01*
X005706Y002326D02*
X005624Y002300D01*
X005547Y002260D01*
X005477Y002210D01*
X005415Y002148D01*
X005365Y002078D01*
X005325Y002001D01*
X005299Y001919D01*
X005285Y001833D01*
X005285Y001810D01*
X005815Y001810D01*
X005815Y002340D01*
X005792Y002340D01*
X005706Y002326D01*
X005815Y002332D02*
X005855Y002332D01*
X005855Y002340D02*
X005878Y002340D01*
X005964Y002326D01*
X006046Y002300D01*
X006123Y002260D01*
X006193Y002210D01*
X006255Y002148D01*
X006305Y002078D01*
X006345Y002001D01*
X006371Y001919D01*
X006385Y001833D01*
X006385Y001810D01*
X005855Y001810D01*
X005855Y001770D01*
X006385Y001770D01*
X006385Y001747D01*
X006371Y001661D01*
X006345Y001579D01*
X006305Y001502D01*
X006255Y001432D01*
X006193Y001370D01*
X006123Y001320D01*
X006046Y001280D01*
X005964Y001254D01*
X005878Y001240D01*
X005855Y001240D01*
X005855Y001770D01*
X005815Y001770D01*
X005815Y001240D01*
X005792Y001240D01*
X005706Y001254D01*
X005624Y001280D01*
X005547Y001320D01*
X005477Y001370D01*
X005415Y001432D01*
X005365Y001502D01*
X005325Y001579D01*
X005299Y001661D01*
X005285Y001747D01*
X005285Y001770D01*
X005815Y001770D01*
X005815Y001810D01*
X005855Y001810D01*
X005855Y002340D01*
X005929Y002332D02*
X006670Y002332D01*
X006670Y002174D02*
X006229Y002174D01*
X006338Y002015D02*
X006670Y002015D01*
X006670Y001857D02*
X006381Y001857D01*
X006377Y001698D02*
X006670Y001698D01*
X006670Y001540D02*
X006325Y001540D01*
X006204Y001381D02*
X006753Y001381D01*
X005855Y001381D02*
X005815Y001381D01*
X005815Y001540D02*
X005855Y001540D01*
X005855Y001698D02*
X005815Y001698D01*
X005815Y001857D02*
X005855Y001857D01*
X005855Y002015D02*
X005815Y002015D01*
X005815Y002174D02*
X005855Y002174D01*
X005441Y002174D02*
X003641Y002174D01*
X003755Y002015D02*
X005332Y002015D01*
X005289Y001857D02*
X003805Y001857D01*
X003805Y001698D02*
X005293Y001698D01*
X005345Y001540D02*
X003745Y001540D01*
X003616Y001381D02*
X005466Y001381D01*
X007707Y001381D02*
X008136Y001381D01*
X007978Y001540D02*
X007790Y001540D01*
X007790Y001698D02*
X007850Y001698D01*
X007850Y001857D02*
X007790Y001857D01*
X007790Y002015D02*
X007850Y002015D01*
X007850Y002174D02*
X007790Y002174D01*
X007790Y002332D02*
X007850Y002332D01*
X007850Y002491D02*
X007470Y002491D01*
X007470Y002649D02*
X007850Y002649D01*
X007850Y002808D02*
X007470Y002808D01*
X007470Y002966D02*
X007850Y002966D01*
X007850Y003125D02*
X007470Y003125D01*
X007470Y003283D02*
X007850Y003283D01*
X007850Y003442D02*
X007470Y003442D01*
X007470Y003600D02*
X007850Y003600D01*
X007850Y003759D02*
X007470Y003759D01*
X007470Y003917D02*
X007850Y003917D01*
X007850Y004076D02*
X007470Y004076D01*
X007470Y004234D02*
X007850Y004234D01*
X007850Y004393D02*
X007495Y004393D01*
X007654Y004551D02*
X007850Y004551D01*
X007850Y004710D02*
X007812Y004710D01*
X007405Y004868D02*
X000614Y004868D01*
X000614Y004710D02*
X007247Y004710D01*
X007088Y004551D02*
X000614Y004551D01*
X000614Y004393D02*
X007070Y004393D01*
X007070Y004234D02*
X002538Y004234D01*
X002559Y004214D02*
X002465Y004308D01*
X001230Y004308D01*
X001136Y004214D01*
X001136Y003294D01*
X001230Y003200D01*
X002465Y003200D01*
X002559Y003294D01*
X002559Y004214D01*
X002559Y004076D02*
X003110Y004076D01*
X003170Y004100D02*
X002975Y004019D01*
X002826Y003870D01*
X002745Y003675D01*
X002745Y003465D01*
X002826Y003270D01*
X002975Y003121D01*
X003170Y003040D01*
X003380Y003040D01*
X003575Y003121D01*
X003724Y003270D01*
X003805Y003465D01*
X003805Y003675D01*
X003724Y003870D01*
X003575Y004019D01*
X003380Y004100D01*
X003170Y004100D01*
X003440Y004076D02*
X005670Y004076D01*
X005730Y004100D02*
X005535Y004019D01*
X005386Y003870D01*
X005305Y003675D01*
X005305Y003465D01*
X005386Y003270D01*
X005535Y003121D01*
X005730Y003040D01*
X005940Y003040D01*
X006135Y003121D01*
X006284Y003270D01*
X006365Y003465D01*
X006365Y003675D01*
X006284Y003870D01*
X006135Y004019D01*
X005940Y004100D01*
X005730Y004100D01*
X006000Y004076D02*
X007070Y004076D01*
X007070Y003917D02*
X006238Y003917D01*
X006331Y003759D02*
X007070Y003759D01*
X007070Y003600D02*
X006365Y003600D01*
X006355Y003442D02*
X007070Y003442D01*
X007070Y003283D02*
X006290Y003283D01*
X006139Y003125D02*
X007070Y003125D01*
X007070Y002966D02*
X000614Y002966D01*
X000614Y002808D02*
X007070Y002808D01*
X007070Y002649D02*
X000614Y002649D01*
X000614Y002491D02*
X001416Y002491D01*
X001130Y002332D02*
X000614Y002332D01*
X000614Y002174D02*
X000971Y002174D01*
X000899Y002015D02*
X000614Y002015D01*
X000614Y001857D02*
X000833Y001857D01*
X000830Y001698D02*
X000614Y001698D01*
X000615Y001540D02*
X000830Y001540D01*
X000884Y001381D02*
X000633Y001381D01*
X000684Y001223D02*
X000949Y001223D01*
X001094Y001064D02*
X000760Y001064D01*
X000875Y000906D02*
X001329Y000906D01*
X001944Y002491D02*
X007070Y002491D01*
X008250Y002491D02*
X009528Y002491D01*
X009590Y002553D02*
X009167Y002130D01*
X009131Y002130D01*
X009083Y002247D01*
X008925Y002405D01*
X008719Y002490D01*
X008497Y002490D01*
X008291Y002405D01*
X008250Y002364D01*
X008250Y004607D01*
X009109Y005466D01*
X009184Y005284D01*
X009323Y005145D01*
X009349Y005134D01*
X009344Y005116D01*
X009344Y004779D01*
X009996Y004779D01*
X009996Y004619D01*
X009344Y004619D01*
X009344Y004281D01*
X009357Y004236D01*
X009380Y004194D01*
X009414Y004161D01*
X009455Y004137D01*
X009501Y004125D01*
X009996Y004125D01*
X009996Y004619D01*
X010156Y004619D01*
X010156Y004779D01*
X010807Y004779D01*
X010807Y005116D01*
X010795Y005162D01*
X010771Y005203D01*
X010766Y005208D01*
X011638Y005208D01*
X011732Y005302D01*
X011732Y005585D01*
X011867Y005450D01*
X011948Y005450D01*
X011948Y005313D01*
X012042Y005219D01*
X012568Y005219D01*
X012662Y005313D01*
X012662Y005390D01*
X012707Y005390D01*
X012772Y005325D01*
X012772Y005006D01*
X012866Y004913D01*
X013471Y004913D01*
X013564Y005006D01*
X013564Y005356D01*
X013471Y005449D01*
X013214Y005449D01*
X013002Y005661D01*
X013471Y005661D01*
X013564Y005754D01*
X013564Y005973D01*
X013610Y005927D01*
X013610Y004907D01*
X013670Y004847D01*
X013787Y004730D01*
X013910Y004730D01*
X013910Y003090D01*
X012287Y003090D01*
X012170Y002973D01*
X011625Y002428D01*
X011475Y002490D01*
X011252Y002490D01*
X011125Y002437D01*
X010893Y002670D01*
X009707Y002670D01*
X009590Y002553D01*
X009686Y002649D02*
X008250Y002649D01*
X008250Y002808D02*
X012005Y002808D01*
X012163Y002966D02*
X008250Y002966D01*
X008250Y003125D02*
X013910Y003125D01*
X013910Y003283D02*
X008250Y003283D01*
X008250Y003442D02*
X013910Y003442D01*
X013910Y003600D02*
X008250Y003600D01*
X008250Y003759D02*
X013910Y003759D01*
X013910Y003917D02*
X008250Y003917D01*
X008250Y004076D02*
X013910Y004076D01*
X013910Y004234D02*
X010794Y004234D01*
X010795Y004236D02*
X010807Y004281D01*
X010807Y004619D01*
X010156Y004619D01*
X010156Y004125D01*
X010651Y004125D01*
X010696Y004137D01*
X010737Y004161D01*
X010771Y004194D01*
X010795Y004236D01*
X010807Y004393D02*
X013910Y004393D01*
X013910Y004551D02*
X010807Y004551D01*
X010807Y004868D02*
X013649Y004868D01*
X013610Y005027D02*
X013564Y005027D01*
X013564Y005185D02*
X013610Y005185D01*
X013610Y005344D02*
X013564Y005344D01*
X013610Y005502D02*
X013161Y005502D01*
X013002Y005661D02*
X013610Y005661D01*
X013610Y005819D02*
X013564Y005819D01*
X014192Y005555D02*
X014608Y005555D01*
X014608Y005687D01*
X014596Y005733D01*
X014586Y005750D01*
X014772Y005750D01*
X014772Y005504D01*
X014866Y005411D01*
X015350Y005411D01*
X015350Y005406D01*
X015365Y005370D01*
X014592Y005370D01*
X014596Y005377D01*
X014608Y005423D01*
X014608Y005555D01*
X014192Y005555D01*
X014192Y005555D01*
X014608Y005502D02*
X014774Y005502D01*
X014772Y005661D02*
X014608Y005661D01*
X013340Y006197D02*
X012866Y006197D01*
X012772Y006104D01*
X012772Y005790D01*
X012662Y005790D01*
X012662Y005878D01*
X012624Y005916D01*
X012646Y005938D01*
X012670Y005979D01*
X012682Y006024D01*
X012682Y006246D01*
X012323Y006246D01*
X012323Y006283D01*
X012287Y006283D01*
X012287Y006827D01*
X012323Y006827D01*
X012323Y006661D01*
X012323Y006283D01*
X012682Y006283D01*
X012682Y006505D01*
X012670Y006551D01*
X012667Y006555D01*
X012670Y006559D01*
X012682Y006605D01*
X012682Y006827D01*
X012323Y006827D01*
X012323Y006864D01*
X012673Y006864D01*
X013340Y006197D01*
X013243Y006295D02*
X012682Y006295D01*
X012682Y006453D02*
X013084Y006453D01*
X012926Y006612D02*
X012682Y006612D01*
X012682Y006770D02*
X012767Y006770D01*
X013016Y007087D02*
X014124Y007087D01*
X013966Y006929D02*
X013174Y006929D01*
X013333Y006770D02*
X013807Y006770D01*
X013649Y006612D02*
X013491Y006612D01*
X013570Y006533D02*
X012662Y007441D01*
X012662Y007797D01*
X012589Y007870D01*
X014229Y007685D01*
X014234Y007674D01*
X014324Y007584D01*
X014441Y007535D01*
X014569Y007535D01*
X014575Y007537D01*
X013570Y006533D01*
X012804Y006136D02*
X012682Y006136D01*
X012669Y005978D02*
X012772Y005978D01*
X012772Y005819D02*
X012662Y005819D01*
X012662Y005344D02*
X012754Y005344D01*
X012772Y005185D02*
X010781Y005185D01*
X010807Y005027D02*
X012772Y005027D01*
X011948Y005344D02*
X011732Y005344D01*
X011732Y005502D02*
X011815Y005502D01*
X011976Y005906D02*
X011664Y006219D01*
X011732Y006286D01*
X011732Y006891D01*
X011638Y006985D01*
X011233Y006985D01*
X011250Y007026D01*
X011250Y007154D01*
X011241Y007176D01*
X011638Y007176D01*
X011728Y007266D01*
X011766Y007250D01*
X011894Y007250D01*
X011948Y007273D01*
X011948Y007232D01*
X011986Y007194D01*
X011964Y007172D01*
X011940Y007131D01*
X011928Y007086D01*
X011928Y006864D01*
X012287Y006864D01*
X012287Y006827D01*
X011928Y006827D01*
X011928Y006605D01*
X011940Y006559D01*
X011943Y006555D01*
X011940Y006551D01*
X011928Y006505D01*
X011928Y006283D01*
X012287Y006283D01*
X012287Y006246D01*
X011928Y006246D01*
X011928Y006024D01*
X011940Y005979D01*
X011964Y005938D01*
X011986Y005916D01*
X011976Y005906D01*
X011941Y005978D02*
X011905Y005978D01*
X011928Y006136D02*
X011747Y006136D01*
X011732Y006295D02*
X011928Y006295D01*
X011928Y006453D02*
X011732Y006453D01*
X011732Y006612D02*
X011928Y006612D01*
X011928Y006770D02*
X011732Y006770D01*
X011694Y006929D02*
X011928Y006929D01*
X011929Y007087D02*
X011250Y007087D01*
X011707Y007246D02*
X011948Y007246D01*
X012287Y006770D02*
X012323Y006770D01*
X012323Y006612D02*
X012287Y006612D01*
X012287Y006453D02*
X012323Y006453D01*
X012323Y006295D02*
X012287Y006295D01*
X012857Y007246D02*
X014283Y007246D01*
X014441Y007404D02*
X012699Y007404D01*
X012662Y007563D02*
X014375Y007563D01*
X013910Y007721D02*
X012662Y007721D01*
X013265Y008197D02*
X014696Y008197D01*
X014674Y008219D02*
X014764Y008129D01*
X014881Y008080D01*
X015009Y008080D01*
X015126Y008129D01*
X015216Y008219D01*
X015265Y008336D01*
X015265Y008464D01*
X015216Y008581D01*
X015126Y008671D01*
X015009Y008720D01*
X014881Y008720D01*
X014768Y008673D01*
X014703Y008696D01*
X014662Y008745D01*
X015015Y008745D01*
X015439Y008745D01*
X015449Y008748D01*
X015449Y008673D01*
X015827Y008673D01*
X015827Y008637D01*
X015449Y008637D01*
X015449Y008434D01*
X015461Y008389D01*
X015472Y008370D01*
X015407Y008370D01*
X014823Y007785D01*
X014825Y007791D01*
X014825Y007919D01*
X014776Y008036D01*
X014686Y008126D01*
X014569Y008175D01*
X014441Y008175D01*
X014324Y008126D01*
X014279Y008082D01*
X013015Y008225D01*
X013096Y008259D01*
X013186Y008349D01*
X013235Y008466D01*
X013235Y008594D01*
X013220Y008631D01*
X013306Y008763D01*
X013350Y008807D01*
X013350Y008830D01*
X013363Y008850D01*
X013350Y008911D01*
X013350Y009694D01*
X014416Y008416D01*
X014441Y008363D01*
X014467Y008354D01*
X014484Y008333D01*
X014543Y008328D01*
X014643Y008293D01*
X014674Y008219D01*
X014775Y008038D02*
X015075Y008038D01*
X015194Y008197D02*
X015234Y008197D01*
X015265Y008355D02*
X015392Y008355D01*
X015449Y008514D02*
X015244Y008514D01*
X015125Y008672D02*
X015827Y008672D01*
X015827Y008673D02*
X015827Y009032D01*
X015605Y009032D01*
X015595Y009029D01*
X015595Y009055D01*
X015595Y009209D01*
X015583Y009254D01*
X015559Y009296D01*
X015535Y009319D01*
X015575Y009359D01*
X015575Y009751D01*
X015535Y009791D01*
X015559Y009814D01*
X015583Y009856D01*
X015595Y009901D01*
X015595Y010055D01*
X015595Y010209D01*
X015583Y010254D01*
X015559Y010296D01*
X015535Y010319D01*
X015575Y010359D01*
X015575Y010751D01*
X015521Y010805D01*
X015575Y010859D01*
X015575Y011251D01*
X015535Y011291D01*
X015559Y011314D01*
X015583Y011356D01*
X015595Y011401D01*
X015595Y011555D01*
X015595Y011622D01*
X016305Y010912D01*
X015780Y010912D01*
X015686Y010818D01*
X015686Y010309D01*
X015649Y010271D01*
X015600Y010154D01*
X015600Y010026D01*
X015649Y009909D01*
X015739Y009819D01*
X015856Y009770D01*
X015984Y009770D01*
X016101Y009819D01*
X016191Y009909D01*
X016240Y010026D01*
X016240Y010154D01*
X016222Y010198D01*
X016464Y010198D01*
X016552Y010287D01*
X016552Y009918D01*
X016646Y009824D01*
X017330Y009824D01*
X017391Y009886D01*
X017535Y009742D01*
X017239Y009742D01*
X017145Y009649D01*
X017145Y009630D01*
X016228Y009630D01*
X016156Y009701D01*
X016039Y009750D01*
X015911Y009750D01*
X015794Y009701D01*
X015704Y009611D01*
X015655Y009494D01*
X015655Y009366D01*
X015704Y009249D01*
X015794Y009159D01*
X015911Y009110D01*
X016039Y009110D01*
X016156Y009159D01*
X016228Y009230D01*
X017107Y009230D01*
X017090Y009213D01*
X016843Y008966D01*
X016797Y009012D01*
X016232Y009012D01*
X016194Y008974D01*
X016172Y008996D01*
X016131Y009020D01*
X016086Y009032D01*
X015864Y009032D01*
X015864Y008673D01*
X015827Y008673D01*
X015827Y008831D02*
X015864Y008831D01*
X015864Y008989D02*
X015827Y008989D01*
X015821Y009148D02*
X015595Y009148D01*
X015595Y009055D02*
X015015Y009055D01*
X015015Y009055D01*
X015015Y009055D01*
X014435Y009055D01*
X014435Y009209D01*
X014447Y009254D01*
X014471Y009296D01*
X014495Y009319D01*
X014455Y009359D01*
X014455Y009751D01*
X014495Y009791D01*
X014471Y009814D01*
X014447Y009856D01*
X014435Y009901D01*
X014435Y010055D01*
X015015Y010055D01*
X015595Y010055D01*
X015015Y010055D01*
X015015Y010055D01*
X015015Y010055D01*
X014435Y010055D01*
X014435Y010209D01*
X014447Y010254D01*
X014471Y010296D01*
X014495Y010319D01*
X014455Y010359D01*
X014455Y010751D01*
X014509Y010805D01*
X014455Y010859D01*
X014455Y011251D01*
X014495Y011291D01*
X014471Y011314D01*
X014447Y011356D01*
X014435Y011401D01*
X014435Y011555D01*
X015015Y011555D01*
X015595Y011555D01*
X015015Y011555D01*
X015015Y011555D01*
X015015Y011555D01*
X014435Y011555D01*
X014435Y011709D01*
X014447Y011754D01*
X014471Y011796D01*
X014495Y011819D01*
X014455Y011859D01*
X014455Y012251D01*
X014509Y012305D01*
X014455Y012359D01*
X014455Y012751D01*
X014549Y012845D01*
X015350Y012845D01*
X015350Y015707D01*
X015145Y015912D01*
X015044Y015870D01*
X014822Y015870D01*
X014616Y015955D01*
X014458Y016113D01*
X014373Y016319D01*
X014373Y016541D01*
X014458Y016747D01*
X014501Y016790D01*
X014193Y016790D01*
X014115Y016712D01*
X014115Y015964D01*
X014021Y015870D01*
X013470Y015870D01*
X013470Y015615D01*
X013506Y015630D01*
X013634Y015630D01*
X013751Y015581D01*
X013841Y015491D01*
X013890Y015374D01*
X013890Y015246D01*
X013841Y015129D01*
X013770Y015057D01*
X013770Y011687D01*
X013653Y011570D01*
X013373Y011290D01*
X013530Y011133D01*
X013530Y010102D01*
X014435Y009017D01*
X014435Y009055D01*
X015015Y009055D01*
X015015Y008745D01*
X015015Y009055D01*
X015015Y009055D01*
X015595Y009055D01*
X016129Y009148D02*
X017025Y009148D01*
X016866Y008989D02*
X016820Y008989D01*
X016209Y008989D02*
X016179Y008989D01*
X015680Y009306D02*
X015549Y009306D01*
X015575Y009465D02*
X015655Y009465D01*
X015715Y009623D02*
X015575Y009623D01*
X015545Y009782D02*
X015829Y009782D01*
X016011Y009782D02*
X017496Y009782D01*
X016552Y009940D02*
X016204Y009940D01*
X016240Y010099D02*
X016552Y010099D01*
X016552Y010257D02*
X016523Y010257D01*
X015686Y010416D02*
X015575Y010416D01*
X015575Y010574D02*
X015686Y010574D01*
X015686Y010733D02*
X015575Y010733D01*
X015575Y010891D02*
X015759Y010891D01*
X015575Y011050D02*
X016168Y011050D01*
X016009Y011208D02*
X015575Y011208D01*
X015586Y011367D02*
X015851Y011367D01*
X015692Y011525D02*
X015595Y011525D01*
X014435Y011525D02*
X013608Y011525D01*
X013766Y011684D02*
X014435Y011684D01*
X014472Y011842D02*
X013770Y011842D01*
X013770Y012001D02*
X014455Y012001D01*
X014455Y012159D02*
X013770Y012159D01*
X013770Y012318D02*
X014496Y012318D01*
X014455Y012476D02*
X013770Y012476D01*
X013770Y012635D02*
X014455Y012635D01*
X014497Y012793D02*
X013770Y012793D01*
X013770Y012952D02*
X015350Y012952D01*
X015350Y013110D02*
X013770Y013110D01*
X013770Y013269D02*
X015350Y013269D01*
X015350Y013427D02*
X013770Y013427D01*
X013770Y013586D02*
X015350Y013586D01*
X015350Y013744D02*
X013770Y013744D01*
X013770Y013903D02*
X015350Y013903D01*
X015350Y014061D02*
X013770Y014061D01*
X013770Y014220D02*
X015350Y014220D01*
X015350Y014378D02*
X013770Y014378D01*
X013770Y014537D02*
X015350Y014537D01*
X015350Y014695D02*
X013770Y014695D01*
X013770Y014854D02*
X015350Y014854D01*
X015350Y015012D02*
X013770Y015012D01*
X013859Y015171D02*
X015350Y015171D01*
X015350Y015329D02*
X013890Y015329D01*
X013843Y015488D02*
X015350Y015488D01*
X015350Y015646D02*
X013470Y015646D01*
X013470Y015805D02*
X015253Y015805D01*
X014608Y015963D02*
X014114Y015963D01*
X014115Y016122D02*
X014455Y016122D01*
X014389Y016280D02*
X014115Y016280D01*
X014115Y016439D02*
X014373Y016439D01*
X014396Y016597D02*
X014115Y016597D01*
X014158Y016756D02*
X014467Y016756D01*
X013147Y017330D02*
X013070Y017253D01*
X012827Y017010D01*
X011183Y017010D01*
X011111Y017081D01*
X010994Y017130D01*
X010866Y017130D01*
X010749Y017081D01*
X010679Y017012D01*
X010680Y017016D01*
X010680Y017046D01*
X010189Y017046D01*
X010189Y017064D01*
X010680Y017064D01*
X010680Y017094D01*
X010668Y017172D01*
X010643Y017247D01*
X010608Y017317D01*
X010598Y017330D01*
X013147Y017330D01*
X013048Y017231D02*
X010649Y017231D01*
X010680Y017073D02*
X010740Y017073D01*
X011120Y017073D02*
X012890Y017073D01*
X008745Y017548D02*
X006066Y017548D01*
X006265Y017390D02*
X007836Y017390D01*
X007733Y017231D02*
X006342Y017231D01*
X006365Y017073D02*
X007700Y017073D01*
X007719Y016914D02*
X006344Y016914D01*
X006219Y016439D02*
X002530Y016439D01*
X002530Y016386D02*
X002530Y016724D01*
X002401Y017036D01*
X002401Y017036D01*
X002161Y017276D01*
X001849Y017405D01*
X001511Y017405D01*
X001199Y017276D01*
X001199Y017276D01*
X000959Y017036D01*
X000830Y016724D01*
X000830Y016386D01*
X000959Y016074D01*
X001199Y015834D01*
X001511Y015705D01*
X001730Y015705D01*
X001849Y015705D01*
X001849Y015705D01*
X002161Y015834D01*
X002161Y015834D01*
X002401Y016074D01*
X002530Y016386D01*
X002486Y016280D02*
X007754Y016280D01*
X007700Y016122D02*
X002420Y016122D01*
X002401Y016074D02*
X002401Y016074D01*
X002290Y015963D02*
X007700Y015963D01*
X007764Y015805D02*
X006031Y015805D01*
X006046Y015800D02*
X005964Y015826D01*
X005878Y015840D01*
X005855Y015840D01*
X005855Y015310D01*
X006385Y015310D01*
X006385Y015333D01*
X006371Y015419D01*
X006345Y015501D01*
X006305Y015578D01*
X006255Y015648D01*
X006193Y015710D01*
X006123Y015760D01*
X006046Y015800D01*
X005855Y015805D02*
X005815Y015805D01*
X005815Y015840D02*
X005792Y015840D01*
X005706Y015826D01*
X005624Y015800D01*
X005547Y015760D01*
X005477Y015710D01*
X005415Y015648D01*
X005365Y015578D01*
X005325Y015501D01*
X005299Y015419D01*
X005285Y015333D01*
X005285Y015310D01*
X005815Y015310D01*
X005815Y015840D01*
X005639Y015805D02*
X003418Y015805D01*
X003380Y015820D02*
X003170Y015820D01*
X002975Y015739D01*
X002826Y015590D01*
X002745Y015395D01*
X002745Y015185D01*
X002826Y014990D01*
X002975Y014841D01*
X003170Y014760D01*
X003380Y014760D01*
X003575Y014841D01*
X003724Y014990D01*
X003805Y015185D01*
X003805Y015395D01*
X003724Y015590D01*
X003575Y015739D01*
X003380Y015820D01*
X003132Y015805D02*
X002089Y015805D01*
X002783Y015488D02*
X000614Y015488D01*
X000614Y015646D02*
X002881Y015646D01*
X002745Y015329D02*
X000614Y015329D01*
X000614Y015171D02*
X001120Y015171D01*
X001116Y015155D02*
X001116Y014818D01*
X001767Y014818D01*
X001767Y014658D01*
X001116Y014658D01*
X001116Y014321D01*
X001128Y014275D01*
X001152Y014234D01*
X001186Y014200D01*
X001227Y014177D01*
X001272Y014164D01*
X001767Y014164D01*
X001767Y014658D01*
X001927Y014658D01*
X001927Y014164D01*
X002422Y014164D01*
X002468Y014177D01*
X002509Y014200D01*
X002543Y014234D01*
X002566Y014275D01*
X002579Y014321D01*
X002579Y014658D01*
X001927Y014658D01*
X001927Y014818D01*
X001767Y014818D01*
X001767Y015312D01*
X001272Y015312D01*
X001227Y015300D01*
X001186Y015276D01*
X001152Y015242D01*
X001128Y015201D01*
X001116Y015155D01*
X001116Y015012D02*
X000614Y015012D01*
X000614Y014854D02*
X001116Y014854D01*
X000614Y014695D02*
X001767Y014695D01*
X001767Y014537D02*
X001927Y014537D01*
X001927Y014695D02*
X008030Y014695D01*
X008030Y014537D02*
X002579Y014537D01*
X002579Y014378D02*
X008099Y014378D01*
X008258Y014220D02*
X002528Y014220D01*
X001927Y014220D02*
X001767Y014220D01*
X001767Y014378D02*
X001927Y014378D01*
X001166Y014220D02*
X000614Y014220D01*
X000614Y014378D02*
X001116Y014378D01*
X001116Y014537D02*
X000614Y014537D01*
X000614Y014061D02*
X008416Y014061D01*
X008575Y013903D02*
X000614Y013903D01*
X000614Y013744D02*
X008733Y013744D01*
X008892Y013586D02*
X000614Y013586D01*
X000614Y013427D02*
X009050Y013427D01*
X009209Y013269D02*
X000614Y013269D01*
X000614Y013110D02*
X009367Y013110D01*
X009526Y012952D02*
X000614Y012952D01*
X000614Y012793D02*
X009684Y012793D01*
X009837Y012635D02*
X000614Y012635D01*
X000614Y012476D02*
X009837Y012476D01*
X009837Y012318D02*
X000614Y012318D01*
X000614Y012159D02*
X009869Y012159D01*
X009798Y012001D02*
X000614Y012001D01*
X000614Y011842D02*
X009650Y011842D01*
X009650Y011684D02*
X000614Y011684D01*
X000614Y011525D02*
X009650Y011525D01*
X009650Y011367D02*
X000614Y011367D01*
X000614Y011208D02*
X009650Y011208D01*
X009650Y011050D02*
X000614Y011050D01*
X000614Y010891D02*
X009650Y010891D01*
X009650Y010733D02*
X000614Y010733D01*
X000614Y010574D02*
X009650Y010574D01*
X009650Y010416D02*
X000614Y010416D01*
X000614Y010257D02*
X009650Y010257D01*
X009650Y010099D02*
X000614Y010099D01*
X000614Y009940D02*
X009650Y009940D01*
X009650Y009782D02*
X000614Y009782D01*
X000614Y009623D02*
X009650Y009623D01*
X009650Y009465D02*
X000614Y009465D01*
X000614Y009306D02*
X009650Y009306D01*
X009650Y009148D02*
X000614Y009148D01*
X000614Y008989D02*
X009650Y008989D01*
X009650Y008831D02*
X000614Y008831D01*
X000614Y008672D02*
X009650Y008672D01*
X009650Y008514D02*
X000614Y008514D01*
X000614Y008355D02*
X009650Y008355D01*
X009650Y008197D02*
X000614Y008197D01*
X000614Y008038D02*
X009650Y008038D01*
X009650Y007880D02*
X000614Y007880D01*
X000614Y007721D02*
X009650Y007721D01*
X009650Y007563D02*
X000614Y007563D01*
X000614Y007404D02*
X009650Y007404D01*
X009650Y007246D02*
X000614Y007246D01*
X000614Y007087D02*
X009650Y007087D01*
X009296Y006929D02*
X000614Y006929D01*
X000614Y006770D02*
X009230Y006770D01*
X009149Y006612D02*
X000614Y006612D01*
X000614Y006453D02*
X008990Y006453D01*
X008832Y006295D02*
X000614Y006295D01*
X000614Y006136D02*
X008673Y006136D01*
X008515Y005978D02*
X000614Y005978D01*
X000614Y005819D02*
X008356Y005819D01*
X008198Y005661D02*
X000614Y005661D01*
X000614Y005502D02*
X008039Y005502D01*
X007881Y005344D02*
X000614Y005344D01*
X000614Y005185D02*
X007722Y005185D01*
X007564Y005027D02*
X000614Y005027D01*
X000614Y004234D02*
X001156Y004234D01*
X001136Y004076D02*
X000614Y004076D01*
X000614Y003917D02*
X001136Y003917D01*
X001136Y003759D02*
X000614Y003759D01*
X000614Y003600D02*
X001136Y003600D01*
X001136Y003442D02*
X000614Y003442D01*
X000614Y003283D02*
X001147Y003283D01*
X000614Y003125D02*
X002971Y003125D01*
X002820Y003283D02*
X002548Y003283D01*
X002559Y003442D02*
X002755Y003442D01*
X002745Y003600D02*
X002559Y003600D01*
X002559Y003759D02*
X002779Y003759D01*
X002872Y003917D02*
X002559Y003917D01*
X003678Y003917D02*
X005432Y003917D01*
X005339Y003759D02*
X003771Y003759D01*
X003805Y003600D02*
X005305Y003600D01*
X005315Y003442D02*
X003795Y003442D01*
X003730Y003283D02*
X005380Y003283D01*
X005531Y003125D02*
X003579Y003125D01*
X008250Y004234D02*
X009358Y004234D01*
X009344Y004393D02*
X008250Y004393D01*
X008250Y004551D02*
X009344Y004551D01*
X009344Y004868D02*
X008511Y004868D01*
X008669Y005027D02*
X009344Y005027D01*
X009283Y005185D02*
X008828Y005185D01*
X008986Y005344D02*
X009159Y005344D01*
X008352Y004710D02*
X009996Y004710D01*
X009996Y004551D02*
X010156Y004551D01*
X010156Y004393D02*
X009996Y004393D01*
X009996Y004234D02*
X010156Y004234D01*
X010156Y004710D02*
X013910Y004710D01*
X014310Y004710D02*
X014819Y004710D01*
X014798Y004730D02*
X014866Y004663D01*
X015471Y004663D01*
X015564Y004756D01*
X015564Y004970D01*
X015707Y004970D01*
X015770Y004907D01*
X015796Y004882D01*
X015796Y004756D01*
X015889Y004663D01*
X016494Y004663D01*
X016588Y004756D01*
X016588Y004790D01*
X016971Y004790D01*
X017003Y004758D01*
X017450Y004758D01*
X017450Y004746D01*
X017499Y004629D01*
X017552Y004576D01*
X016400Y003197D01*
X016393Y003196D01*
X016353Y003141D01*
X016305Y003093D01*
X016305Y003083D01*
X016298Y003075D01*
X016299Y003068D01*
X016138Y002850D01*
X016086Y002850D01*
X015969Y002801D01*
X015879Y002711D01*
X015862Y002670D01*
X014310Y002670D01*
X014310Y004730D01*
X014798Y004730D01*
X014310Y004551D02*
X017531Y004551D01*
X017465Y004710D02*
X016541Y004710D01*
X015843Y004710D02*
X015517Y004710D01*
X015564Y004868D02*
X015796Y004868D01*
X016608Y005190D02*
X016608Y005305D01*
X016608Y005437D01*
X016602Y005460D01*
X016626Y005450D01*
X016727Y005450D01*
X016907Y005270D01*
X016909Y005270D01*
X016909Y005190D01*
X016608Y005190D01*
X016608Y005305D02*
X016192Y005305D01*
X016608Y005305D01*
X016608Y005344D02*
X016834Y005344D01*
X016192Y005305D02*
X016192Y005305D01*
X017399Y004393D02*
X014310Y004393D01*
X014310Y004234D02*
X017266Y004234D01*
X017134Y004076D02*
X014310Y004076D01*
X014310Y003917D02*
X017002Y003917D01*
X016869Y003759D02*
X014310Y003759D01*
X014310Y003600D02*
X016737Y003600D01*
X016605Y003442D02*
X014310Y003442D01*
X014310Y003283D02*
X016472Y003283D01*
X016337Y003125D02*
X014310Y003125D01*
X014310Y002966D02*
X016224Y002966D01*
X015984Y002808D02*
X014310Y002808D01*
X011846Y002649D02*
X010914Y002649D01*
X011072Y002491D02*
X011688Y002491D01*
X009369Y002332D02*
X008998Y002332D01*
X009113Y002174D02*
X009211Y002174D01*
X016933Y003210D02*
X017618Y004031D01*
X017619Y004029D01*
X017709Y003939D01*
X017826Y003890D01*
X017927Y003890D01*
X018607Y003210D01*
X016933Y003210D01*
X016994Y003283D02*
X018534Y003283D01*
X018376Y003442D02*
X017126Y003442D01*
X017258Y003600D02*
X018217Y003600D01*
X018059Y003759D02*
X017391Y003759D01*
X017523Y003917D02*
X017761Y003917D01*
X018210Y004173D02*
X018210Y004274D01*
X018161Y004391D01*
X018071Y004481D01*
X017971Y004523D01*
X017970Y004534D01*
X017970Y004557D01*
X017985Y004573D01*
X018018Y004564D01*
X018122Y004564D01*
X018226Y004564D01*
X018271Y004576D01*
X018279Y004581D01*
X018287Y004576D01*
X018333Y004564D01*
X018437Y004564D01*
X018541Y004564D01*
X018586Y004576D01*
X018594Y004581D01*
X018602Y004576D01*
X018648Y004564D01*
X018752Y004564D01*
X018856Y004564D01*
X018901Y004576D01*
X018909Y004581D01*
X018917Y004576D01*
X018963Y004564D01*
X019067Y004564D01*
X019171Y004564D01*
X019216Y004576D01*
X019257Y004600D01*
X019291Y004634D01*
X019315Y004675D01*
X019326Y004670D01*
X019454Y004670D01*
X019562Y004715D01*
X020027Y004250D01*
X021485Y004250D01*
X021470Y004214D01*
X021470Y004086D01*
X021519Y003969D01*
X021590Y003897D01*
X021590Y003767D01*
X021762Y003595D01*
X021729Y003581D01*
X021657Y003510D01*
X018873Y003510D01*
X018210Y004173D01*
X018210Y004234D02*
X021478Y004234D01*
X021474Y004076D02*
X018307Y004076D01*
X018466Y003917D02*
X021570Y003917D01*
X021599Y003759D02*
X018624Y003759D01*
X018783Y003600D02*
X021757Y003600D01*
X022164Y003759D02*
X022585Y003759D01*
X022599Y003791D02*
X022550Y003674D01*
X022550Y003546D01*
X022599Y003429D01*
X022689Y003339D01*
X022806Y003290D01*
X022907Y003290D01*
X023707Y002490D01*
X023654Y002490D01*
X023498Y002425D01*
X022008Y003915D01*
X022061Y003969D01*
X022110Y004086D01*
X022110Y004214D01*
X022095Y004250D01*
X022910Y004250D01*
X022910Y003930D01*
X022806Y003930D01*
X022689Y003881D01*
X022599Y003791D01*
X022550Y003600D02*
X022323Y003600D01*
X022481Y003442D02*
X022593Y003442D01*
X022640Y003283D02*
X022914Y003283D01*
X022798Y003125D02*
X023073Y003125D01*
X022957Y002966D02*
X023231Y002966D01*
X023115Y002808D02*
X023390Y002808D01*
X023274Y002649D02*
X023548Y002649D01*
X023432Y002491D02*
X023707Y002491D01*
X025844Y003442D02*
X026330Y003442D01*
X026330Y003600D02*
X025771Y003600D01*
X025816Y003619D02*
X025906Y003709D01*
X025955Y003826D01*
X025955Y003954D01*
X025906Y004071D01*
X025816Y004161D01*
X025699Y004210D01*
X025611Y004210D01*
X024910Y004968D01*
X024910Y004973D01*
X024854Y005029D01*
X024801Y005087D01*
X024796Y005087D01*
X024594Y005289D01*
X024725Y005289D01*
X024819Y005383D01*
X024819Y005690D01*
X024905Y005690D01*
X024890Y005654D01*
X024890Y005526D01*
X024939Y005409D01*
X025010Y005337D01*
X025010Y005027D01*
X026330Y003707D01*
X026330Y003255D01*
X026294Y003270D01*
X026166Y003270D01*
X026129Y003255D01*
X025647Y003570D01*
X025699Y003570D01*
X025816Y003619D01*
X025927Y003759D02*
X026279Y003759D01*
X026120Y003917D02*
X025955Y003917D01*
X025962Y004076D02*
X025902Y004076D01*
X025803Y004234D02*
X025589Y004234D01*
X025645Y004393D02*
X025443Y004393D01*
X025486Y004551D02*
X025296Y004551D01*
X025328Y004710D02*
X025149Y004710D01*
X025169Y004868D02*
X025003Y004868D01*
X025011Y005027D02*
X024856Y005027D01*
X025010Y005185D02*
X024698Y005185D01*
X024780Y005344D02*
X025004Y005344D01*
X024900Y005502D02*
X024819Y005502D01*
X024819Y005661D02*
X024893Y005661D01*
X025760Y005663D02*
X025760Y006037D01*
X025833Y006110D01*
X026613Y006110D01*
X026770Y006267D01*
X027289Y006267D01*
X027383Y006360D01*
X027383Y006470D01*
X027410Y006470D01*
X027410Y003153D01*
X026714Y002456D01*
X026633Y002490D01*
X026473Y002490D01*
X026730Y002747D01*
X026730Y002913D01*
X026730Y003873D01*
X026613Y003990D01*
X025444Y005159D01*
X025479Y005149D01*
X025760Y005149D01*
X025760Y005547D01*
X025876Y005547D01*
X025876Y005663D01*
X026313Y005663D01*
X026313Y005904D01*
X026301Y005950D01*
X026277Y005991D01*
X026243Y006025D01*
X026202Y006048D01*
X026156Y006061D01*
X025876Y006061D01*
X025876Y005663D01*
X025760Y005663D01*
X025876Y005661D02*
X026413Y005661D01*
X026413Y005658D02*
X026850Y005658D01*
X026850Y006056D01*
X026569Y006056D01*
X026524Y006043D01*
X026483Y006020D01*
X026449Y005986D01*
X026425Y005945D01*
X026413Y005899D01*
X026413Y005658D01*
X026413Y005542D02*
X026413Y005301D01*
X026425Y005255D01*
X026449Y005214D01*
X026483Y005180D01*
X026524Y005157D01*
X026569Y005144D01*
X026850Y005144D01*
X026850Y005542D01*
X026413Y005542D01*
X026413Y005502D02*
X026313Y005502D01*
X026313Y005547D02*
X025876Y005547D01*
X025876Y005149D01*
X026156Y005149D01*
X026202Y005162D01*
X026243Y005185D01*
X026478Y005185D01*
X026413Y005344D02*
X026313Y005344D01*
X026313Y005306D02*
X026313Y005547D01*
X026313Y005306D02*
X026301Y005260D01*
X026277Y005219D01*
X026243Y005185D01*
X025876Y005185D02*
X025760Y005185D01*
X025760Y005344D02*
X025876Y005344D01*
X025876Y005502D02*
X025760Y005502D01*
X025760Y005819D02*
X025876Y005819D01*
X025876Y005978D02*
X025760Y005978D01*
X026285Y005978D02*
X026444Y005978D01*
X026413Y005819D02*
X026313Y005819D01*
X026850Y005819D02*
X026966Y005819D01*
X026966Y005661D02*
X026850Y005661D01*
X026850Y005658D02*
X026966Y005658D01*
X026966Y006056D01*
X027247Y006056D01*
X027292Y006043D01*
X027334Y006020D01*
X027367Y005986D01*
X027391Y005945D01*
X027403Y005899D01*
X027403Y005658D01*
X026966Y005658D01*
X026966Y005542D01*
X027403Y005542D01*
X027403Y005301D01*
X027391Y005255D01*
X027367Y005214D01*
X027334Y005180D01*
X027292Y005157D01*
X027247Y005144D01*
X026966Y005144D01*
X026966Y005542D01*
X026850Y005542D01*
X026850Y005658D01*
X026850Y005502D02*
X026966Y005502D01*
X026966Y005344D02*
X026850Y005344D01*
X026850Y005185D02*
X026966Y005185D01*
X027338Y005185D02*
X027410Y005185D01*
X027410Y005027D02*
X025576Y005027D01*
X025735Y004868D02*
X027410Y004868D01*
X027410Y004710D02*
X025893Y004710D01*
X026052Y004551D02*
X027410Y004551D01*
X027410Y004393D02*
X026210Y004393D01*
X026369Y004234D02*
X027410Y004234D01*
X027410Y004076D02*
X026527Y004076D01*
X026686Y003917D02*
X027410Y003917D01*
X027410Y003759D02*
X026730Y003759D01*
X026730Y003600D02*
X027410Y003600D01*
X027410Y003442D02*
X026730Y003442D01*
X026730Y003283D02*
X027410Y003283D01*
X027382Y003125D02*
X026730Y003125D01*
X026730Y002966D02*
X027223Y002966D01*
X027065Y002808D02*
X026730Y002808D01*
X026632Y002649D02*
X026906Y002649D01*
X026748Y002491D02*
X026473Y002491D01*
X027018Y002195D02*
X027081Y002041D01*
X027081Y001819D01*
X026996Y001613D01*
X026973Y001590D01*
X027429Y001590D01*
X027403Y001626D01*
X027362Y001707D01*
X027334Y001794D01*
X027319Y001884D01*
X027319Y001892D01*
X027861Y001892D01*
X027861Y001968D01*
X027319Y001968D01*
X027319Y001976D01*
X027334Y002066D01*
X027362Y002153D01*
X027403Y002234D01*
X027457Y002308D01*
X027521Y002372D01*
X027595Y002426D01*
X027677Y002468D01*
X027763Y002496D01*
X027854Y002510D01*
X027861Y002510D01*
X027861Y001968D01*
X027937Y001968D01*
X027937Y002510D01*
X027945Y002510D01*
X028035Y002496D01*
X028122Y002468D01*
X028203Y002426D01*
X028277Y002372D01*
X028342Y002308D01*
X028395Y002234D01*
X028437Y002153D01*
X028465Y002066D01*
X028479Y001976D01*
X028479Y001968D01*
X027937Y001968D01*
X027937Y001892D01*
X028479Y001892D01*
X028479Y001884D01*
X028465Y001794D01*
X028437Y001707D01*
X028395Y001626D01*
X028369Y001590D01*
X028717Y001590D01*
X028717Y002396D01*
X028811Y002490D01*
X029744Y002490D01*
X029837Y002396D01*
X029837Y001800D01*
X029930Y001893D01*
X029930Y002253D01*
X030230Y002553D01*
X030347Y002670D01*
X032913Y002670D01*
X033153Y002429D01*
X033300Y002490D01*
X033522Y002490D01*
X033728Y002405D01*
X033886Y002247D01*
X033971Y002041D01*
X033971Y002034D01*
X034007Y002070D01*
X034396Y002070D01*
X034396Y002356D01*
X034334Y002330D01*
X034206Y002330D01*
X034089Y002379D01*
X033999Y002469D01*
X033950Y002586D01*
X033950Y002714D01*
X033999Y002831D01*
X034070Y002903D01*
X034070Y004247D01*
X031301Y007017D01*
X031301Y006311D01*
X031308Y006297D01*
X031321Y006252D01*
X031321Y006159D01*
X030866Y006159D01*
X030866Y006159D01*
X031321Y006159D01*
X031321Y006067D01*
X031308Y006021D01*
X031301Y006008D01*
X031301Y005257D01*
X031207Y005163D01*
X030619Y005163D01*
X030619Y004797D01*
X030525Y004703D01*
X029920Y004703D01*
X029826Y004797D01*
X029826Y005003D01*
X027810Y002987D01*
X027810Y002987D01*
X027693Y002870D01*
X027693Y002870D01*
X027018Y002195D01*
X027027Y002174D02*
X027372Y002174D01*
X027326Y002015D02*
X027081Y002015D01*
X027081Y001857D02*
X027324Y001857D01*
X027367Y001698D02*
X027031Y001698D01*
X027861Y002015D02*
X027937Y002015D01*
X027937Y002174D02*
X027861Y002174D01*
X027861Y002332D02*
X027937Y002332D01*
X027937Y002491D02*
X027861Y002491D01*
X027747Y002491D02*
X027313Y002491D01*
X027472Y002649D02*
X030326Y002649D01*
X030168Y002491D02*
X028051Y002491D01*
X028318Y002332D02*
X028717Y002332D01*
X028717Y002174D02*
X028426Y002174D01*
X028473Y002015D02*
X028717Y002015D01*
X028717Y001857D02*
X028475Y001857D01*
X028432Y001698D02*
X028717Y001698D01*
X029837Y001857D02*
X029894Y001857D01*
X029930Y002015D02*
X029837Y002015D01*
X029837Y002174D02*
X029930Y002174D01*
X030009Y002332D02*
X029837Y002332D01*
X027947Y003125D02*
X034070Y003125D01*
X034070Y003283D02*
X028106Y003283D01*
X028264Y003442D02*
X034070Y003442D01*
X034070Y003600D02*
X028423Y003600D01*
X028581Y003759D02*
X034070Y003759D01*
X034070Y003917D02*
X028740Y003917D01*
X028898Y004076D02*
X034070Y004076D01*
X034070Y004234D02*
X029057Y004234D01*
X029215Y004393D02*
X033925Y004393D01*
X033766Y004551D02*
X029374Y004551D01*
X029532Y004710D02*
X029913Y004710D01*
X029826Y004868D02*
X029691Y004868D01*
X030531Y004710D02*
X033608Y004710D01*
X033449Y004868D02*
X030619Y004868D01*
X030619Y005027D02*
X033291Y005027D01*
X033132Y005185D02*
X031229Y005185D01*
X031301Y005344D02*
X032974Y005344D01*
X032815Y005502D02*
X031301Y005502D01*
X031301Y005661D02*
X032657Y005661D01*
X032498Y005819D02*
X031301Y005819D01*
X031301Y005978D02*
X032340Y005978D01*
X032181Y006136D02*
X031321Y006136D01*
X031309Y006295D02*
X032023Y006295D01*
X031864Y006453D02*
X031301Y006453D01*
X031301Y006612D02*
X031706Y006612D01*
X031547Y006770D02*
X031301Y006770D01*
X031301Y006929D02*
X031389Y006929D01*
X031796Y007087D02*
X032190Y007087D01*
X032032Y007246D02*
X031637Y007246D01*
X031479Y007404D02*
X031873Y007404D01*
X031715Y007563D02*
X031470Y007563D01*
X031470Y007653D02*
X031350Y007773D01*
X031313Y007810D01*
X031390Y007887D01*
X032630Y006647D01*
X032630Y006647D01*
X032747Y006530D01*
X033309Y006530D01*
X033309Y006311D01*
X033302Y006297D01*
X033289Y006252D01*
X033289Y006159D01*
X033289Y006067D01*
X033302Y006021D01*
X033309Y006008D01*
X033309Y005573D01*
X031470Y007413D01*
X031470Y007653D01*
X031402Y007721D02*
X031556Y007721D01*
X031398Y007880D02*
X031382Y007880D01*
X031646Y008197D02*
X033289Y008197D01*
X033289Y008207D02*
X033289Y008114D01*
X033299Y008079D01*
X033289Y008043D01*
X033289Y007951D01*
X033744Y007951D01*
X033744Y008199D01*
X033744Y008207D01*
X033744Y008207D01*
X033289Y008207D01*
X033289Y008299D01*
X033302Y008345D01*
X033309Y008358D01*
X033309Y008597D01*
X033309Y008810D01*
X032243Y008810D01*
X032171Y008739D01*
X032054Y008690D01*
X032010Y008690D01*
X032010Y008646D01*
X031961Y008529D01*
X031871Y008439D01*
X031754Y008390D01*
X031626Y008390D01*
X031590Y008405D01*
X031590Y008253D01*
X032913Y006930D01*
X033289Y006930D01*
X033289Y007019D01*
X033302Y007065D01*
X033309Y007078D01*
X033309Y007799D01*
X033302Y007813D01*
X033289Y007858D01*
X033289Y007951D01*
X033744Y007951D01*
X033744Y007951D01*
X033744Y007951D01*
X033744Y008207D01*
X033289Y008207D01*
X033308Y008355D02*
X031590Y008355D01*
X031805Y008038D02*
X033289Y008038D01*
X033289Y007880D02*
X031963Y007880D01*
X032122Y007721D02*
X033309Y007721D01*
X033309Y007563D02*
X032280Y007563D01*
X032439Y007404D02*
X033309Y007404D01*
X033309Y007246D02*
X032597Y007246D01*
X032756Y007087D02*
X033309Y007087D01*
X033816Y006927D02*
X034199Y006927D01*
X033816Y006927D01*
X033816Y006927D01*
X034199Y006927D02*
X034199Y006950D01*
X035027Y006950D01*
X035558Y006419D01*
X035484Y006395D01*
X035413Y006358D01*
X035348Y006311D01*
X035291Y006254D01*
X035278Y006237D01*
X035178Y006338D01*
X034997Y006412D01*
X034803Y006412D01*
X034723Y006379D01*
X034233Y006870D01*
X034199Y006870D01*
X034199Y006927D01*
X034199Y006929D02*
X035049Y006929D01*
X035207Y006770D02*
X034333Y006770D01*
X034491Y006612D02*
X035366Y006612D01*
X035524Y006453D02*
X034650Y006453D01*
X034243Y006295D02*
X034188Y006295D01*
X034187Y006297D02*
X034179Y006311D01*
X034179Y006358D01*
X034442Y006096D01*
X034410Y006020D01*
X034410Y005825D01*
X034475Y005668D01*
X034353Y005790D01*
X034187Y005790D01*
X034179Y005790D01*
X034179Y006008D01*
X034187Y006021D01*
X034199Y006067D01*
X034199Y006159D01*
X033744Y006159D01*
X033289Y006159D01*
X033744Y006159D01*
X033744Y006159D01*
X033744Y006159D01*
X034199Y006159D01*
X034199Y006252D01*
X034187Y006297D01*
X034199Y006136D02*
X034401Y006136D01*
X034410Y005978D02*
X034179Y005978D01*
X034179Y005819D02*
X034412Y005819D01*
X035221Y006295D02*
X035331Y006295D01*
X036334Y006929D02*
X039250Y006929D01*
X039250Y007087D02*
X037145Y007087D01*
X037209Y007113D02*
X037437Y007341D01*
X037560Y007639D01*
X037560Y007961D01*
X037437Y008259D01*
X037209Y008487D01*
X036911Y008610D01*
X036589Y008610D01*
X036291Y008487D01*
X036063Y008259D01*
X035940Y007961D01*
X035940Y007639D01*
X036063Y007341D01*
X036291Y007113D01*
X036589Y006990D01*
X036911Y006990D01*
X037209Y007113D01*
X037341Y007246D02*
X039250Y007246D01*
X039250Y007404D02*
X037463Y007404D01*
X037528Y007563D02*
X039250Y007563D01*
X039250Y007721D02*
X037560Y007721D01*
X037560Y007880D02*
X039250Y007880D01*
X039250Y008038D02*
X037528Y008038D01*
X037462Y008197D02*
X039250Y008197D01*
X039250Y008355D02*
X037340Y008355D01*
X037144Y008514D02*
X039250Y008514D01*
X039250Y008672D02*
X034591Y008672D01*
X034749Y008514D02*
X036356Y008514D01*
X036159Y008355D02*
X034908Y008355D01*
X035066Y008197D02*
X036038Y008197D01*
X035972Y008038D02*
X035225Y008038D01*
X035383Y007880D02*
X035940Y007880D01*
X035940Y007721D02*
X035542Y007721D01*
X035700Y007563D02*
X035972Y007563D01*
X036037Y007404D02*
X035859Y007404D01*
X036017Y007246D02*
X036159Y007246D01*
X036176Y007087D02*
X036355Y007087D01*
X036493Y006770D02*
X039250Y006770D01*
X039250Y006612D02*
X036651Y006612D01*
X036810Y006453D02*
X039250Y006453D01*
X039250Y006295D02*
X036968Y006295D01*
X037127Y006136D02*
X039250Y006136D01*
X039250Y005978D02*
X037285Y005978D01*
X037444Y005819D02*
X039250Y005819D01*
X039250Y005661D02*
X037602Y005661D01*
X037761Y005502D02*
X039250Y005502D01*
X039250Y005344D02*
X037919Y005344D01*
X038078Y005185D02*
X039250Y005185D01*
X039250Y005027D02*
X038236Y005027D01*
X038395Y004868D02*
X039250Y004868D01*
X039250Y004710D02*
X038553Y004710D01*
X038712Y004551D02*
X039250Y004551D01*
X039250Y004393D02*
X038870Y004393D01*
X039029Y004234D02*
X039250Y004234D01*
X039250Y004076D02*
X039187Y004076D01*
X039250Y004013D02*
X034170Y009093D01*
X034053Y009210D01*
X032243Y009210D01*
X032171Y009281D01*
X032096Y009313D01*
X032290Y009507D01*
X032742Y009507D01*
X032836Y009601D01*
X032836Y009970D01*
X032925Y009881D01*
X033356Y009881D01*
X033947Y009290D01*
X035253Y009290D01*
X035370Y009407D01*
X035970Y010007D01*
X035970Y010427D01*
X036128Y010585D01*
X037063Y010585D01*
X037063Y011520D01*
X037410Y011867D01*
X037410Y012594D01*
X037518Y012594D01*
X037612Y012688D01*
X037612Y013253D01*
X037574Y013291D01*
X037596Y013313D01*
X037620Y013354D01*
X037632Y013399D01*
X037632Y013621D01*
X037273Y013621D01*
X037273Y013658D01*
X037237Y013658D01*
X037237Y014036D01*
X037179Y014036D01*
X037291Y014148D01*
X037364Y014075D01*
X037977Y014075D01*
X038070Y014168D01*
X038070Y014407D01*
X038073Y014404D01*
X038073Y014063D01*
X038100Y014036D01*
X038073Y014036D01*
X038073Y013658D01*
X038037Y013658D01*
X038037Y014036D01*
X037834Y014036D01*
X037789Y014024D01*
X037748Y014000D01*
X037714Y013967D01*
X037690Y013926D01*
X037678Y013880D01*
X037678Y013658D01*
X038037Y013658D01*
X038037Y013621D01*
X037678Y013621D01*
X037678Y013399D01*
X037690Y013354D01*
X037714Y013313D01*
X037736Y013291D01*
X037698Y013253D01*
X037698Y012688D01*
X037792Y012594D01*
X038318Y012594D01*
X038412Y012688D01*
X038412Y013049D01*
X038493Y013130D01*
X038610Y013247D01*
X038610Y013969D01*
X038693Y013969D01*
X038787Y014063D01*
X038787Y014628D01*
X038749Y014666D01*
X038771Y014688D01*
X038795Y014729D01*
X038807Y014774D01*
X038807Y014996D01*
X038448Y014996D01*
X038448Y015033D01*
X038412Y015033D01*
X038412Y015411D01*
X038232Y015411D01*
X038193Y015450D01*
X037886Y015757D01*
X038011Y015705D01*
X038349Y015705D01*
X038661Y015834D01*
X038661Y015834D01*
X038901Y016074D01*
X039030Y016386D01*
X039030Y016724D01*
X038901Y017036D01*
X038901Y017036D01*
X038661Y017276D01*
X038349Y017405D01*
X038011Y017405D01*
X037699Y017276D01*
X037459Y017036D01*
X037330Y016724D01*
X037330Y016386D01*
X037382Y016261D01*
X036993Y016650D01*
X036932Y016650D01*
X036932Y016733D01*
X036860Y016805D01*
X036932Y016877D01*
X036932Y017403D01*
X036838Y017496D01*
X036272Y017496D01*
X036178Y017403D01*
X036178Y017021D01*
X036107Y016950D01*
X035990Y016833D01*
X035990Y016410D01*
X035087Y016410D01*
X034970Y016293D01*
X034730Y016053D01*
X034730Y015633D01*
X034015Y014918D01*
X034015Y015350D01*
X033135Y015350D01*
X033135Y015510D01*
X032975Y015510D01*
X032975Y016390D01*
X032251Y016390D01*
X032206Y016378D01*
X032164Y016354D01*
X032131Y016321D01*
X032107Y016279D01*
X032095Y016234D01*
X032095Y015510D01*
X032975Y015510D01*
X032975Y015350D01*
X033135Y015350D01*
X033135Y014470D01*
X033567Y014470D01*
X032810Y013713D01*
X032810Y013703D01*
X032739Y013631D01*
X032690Y013514D01*
X032690Y013410D01*
X032310Y013410D01*
X032310Y014470D01*
X032975Y014470D01*
X032975Y015350D01*
X032113Y015350D01*
X030633Y016830D01*
X029356Y016830D01*
X029515Y016989D01*
X029515Y017180D01*
X029515Y017371D01*
X029265Y017620D01*
X038132Y017620D01*
X038136Y017616D01*
X038206Y017620D01*
X038221Y017620D01*
X038366Y017616D01*
X038664Y017537D01*
X038924Y017369D01*
X039119Y017129D01*
X039230Y016840D01*
X039250Y016688D01*
X039250Y004013D01*
X034396Y002332D02*
X034338Y002332D01*
X034202Y002332D02*
X033801Y002332D01*
X033916Y002174D02*
X034396Y002174D01*
X033990Y002491D02*
X033092Y002491D01*
X032934Y002649D02*
X033950Y002649D01*
X033989Y002808D02*
X027630Y002808D01*
X027789Y002966D02*
X034070Y002966D01*
X033309Y005661D02*
X033222Y005661D01*
X033309Y005819D02*
X033064Y005819D01*
X032905Y005978D02*
X033309Y005978D01*
X033289Y006136D02*
X032747Y006136D01*
X032588Y006295D02*
X033301Y006295D01*
X033309Y006453D02*
X032430Y006453D01*
X032271Y006612D02*
X032666Y006612D01*
X032507Y006770D02*
X032113Y006770D01*
X031954Y006929D02*
X032349Y006929D01*
X034179Y007590D02*
X034179Y007799D01*
X034187Y007813D01*
X034199Y007858D01*
X034199Y007951D01*
X034199Y008043D01*
X034190Y008079D01*
X034199Y008114D01*
X034199Y008207D01*
X034199Y008299D01*
X034187Y008345D01*
X034179Y008358D01*
X034179Y008518D01*
X035107Y007590D01*
X034179Y007590D01*
X034179Y007721D02*
X034976Y007721D01*
X034818Y007880D02*
X034199Y007880D01*
X034199Y007951D02*
X033744Y007951D01*
X034199Y007951D01*
X034199Y008038D02*
X034659Y008038D01*
X034501Y008197D02*
X034199Y008197D01*
X034199Y008207D02*
X033744Y008207D01*
X034199Y008207D01*
X034181Y008355D02*
X034342Y008355D01*
X034184Y008514D02*
X034179Y008514D01*
X033744Y008207D02*
X033744Y008207D01*
X033744Y008207D01*
X033744Y008197D02*
X033744Y008197D01*
X033744Y008038D02*
X033744Y008038D01*
X033744Y007951D02*
X033744Y007951D01*
X033309Y008514D02*
X031946Y008514D01*
X032010Y008672D02*
X033309Y008672D01*
X034115Y009148D02*
X039250Y009148D01*
X039250Y009306D02*
X035269Y009306D01*
X035427Y009465D02*
X039250Y009465D01*
X039250Y009623D02*
X037675Y009623D01*
X037642Y009602D02*
X037740Y009664D01*
X037830Y009736D01*
X037912Y009818D01*
X037984Y009908D01*
X038046Y010006D01*
X038096Y010110D01*
X038134Y010219D01*
X038160Y010332D01*
X038170Y010425D01*
X037223Y010425D01*
X037223Y010585D01*
X038170Y010585D01*
X038160Y010678D01*
X038134Y010791D01*
X038096Y010900D01*
X038046Y011004D01*
X037984Y011102D01*
X037912Y011192D01*
X037830Y011274D01*
X037740Y011346D01*
X037642Y011408D01*
X037538Y011458D01*
X037428Y011496D01*
X037316Y011522D01*
X037223Y011533D01*
X037223Y010585D01*
X037063Y010585D01*
X037063Y010425D01*
X037223Y010425D01*
X037223Y009477D01*
X037316Y009488D01*
X037428Y009514D01*
X037538Y009552D01*
X037642Y009602D01*
X037876Y009782D02*
X039250Y009782D01*
X039250Y009940D02*
X038004Y009940D01*
X038090Y010099D02*
X039250Y010099D01*
X039250Y010257D02*
X038143Y010257D01*
X038169Y010416D02*
X039250Y010416D01*
X039250Y010574D02*
X037223Y010574D01*
X037223Y010416D02*
X037063Y010416D01*
X037063Y010425D02*
X037063Y009477D01*
X036970Y009488D01*
X036857Y009514D01*
X036748Y009552D01*
X036644Y009602D01*
X036546Y009664D01*
X036455Y009736D01*
X036374Y009818D01*
X036302Y009908D01*
X036240Y010006D01*
X036190Y010110D01*
X036152Y010219D01*
X036126Y010332D01*
X036115Y010425D01*
X037063Y010425D01*
X037063Y010574D02*
X036117Y010574D01*
X036116Y010416D02*
X035970Y010416D01*
X035970Y010257D02*
X036143Y010257D01*
X036195Y010099D02*
X035970Y010099D01*
X035903Y009940D02*
X036281Y009940D01*
X036410Y009782D02*
X035744Y009782D01*
X035586Y009623D02*
X036611Y009623D01*
X037063Y009623D02*
X037223Y009623D01*
X037223Y009782D02*
X037063Y009782D01*
X037063Y009940D02*
X037223Y009940D01*
X037223Y010099D02*
X037063Y010099D01*
X037063Y010257D02*
X037223Y010257D01*
X037223Y010733D02*
X037063Y010733D01*
X037063Y010891D02*
X037223Y010891D01*
X037223Y011050D02*
X037063Y011050D01*
X037063Y011208D02*
X037223Y011208D01*
X037223Y011367D02*
X037063Y011367D01*
X037068Y011525D02*
X037223Y011525D01*
X037289Y011525D02*
X039250Y011525D01*
X039250Y011367D02*
X037708Y011367D01*
X037896Y011208D02*
X039250Y011208D01*
X039250Y011050D02*
X038017Y011050D01*
X038099Y010891D02*
X039250Y010891D01*
X039250Y010733D02*
X038147Y010733D01*
X036401Y011424D02*
X035754Y010776D01*
X035722Y010895D01*
X035589Y011125D01*
X035401Y011313D01*
X035171Y011446D01*
X034914Y011515D01*
X034648Y011515D01*
X034391Y011446D01*
X034167Y011317D01*
X034167Y011444D01*
X034230Y011507D01*
X034710Y011987D01*
X034710Y012227D01*
X034936Y012453D01*
X034934Y012435D01*
X035882Y012435D01*
X035882Y012275D01*
X036042Y012275D01*
X036042Y011328D01*
X036135Y011338D01*
X036247Y011364D01*
X036357Y011402D01*
X036401Y011424D01*
X036344Y011367D02*
X036254Y011367D01*
X036185Y011208D02*
X035506Y011208D01*
X035633Y011050D02*
X036027Y011050D01*
X035868Y010891D02*
X035723Y010891D01*
X035789Y011338D02*
X035882Y011328D01*
X035882Y012275D01*
X034934Y012275D01*
X034945Y012183D01*
X034970Y012070D01*
X035009Y011961D01*
X035059Y011856D01*
X035120Y011758D01*
X035193Y011668D01*
X035274Y011586D01*
X035365Y011514D01*
X035463Y011452D01*
X035567Y011402D01*
X035676Y011364D01*
X035789Y011338D01*
X035882Y011367D02*
X036042Y011367D01*
X036042Y011525D02*
X035882Y011525D01*
X035882Y011684D02*
X036042Y011684D01*
X036042Y011842D02*
X035882Y011842D01*
X035882Y012001D02*
X036042Y012001D01*
X036042Y012159D02*
X035882Y012159D01*
X035882Y012318D02*
X034800Y012318D01*
X034710Y012159D02*
X034950Y012159D01*
X034995Y012001D02*
X034710Y012001D01*
X034565Y011842D02*
X035068Y011842D01*
X035180Y011684D02*
X034406Y011684D01*
X034248Y011525D02*
X035351Y011525D01*
X035308Y011367D02*
X035669Y011367D01*
X036894Y011916D02*
X036915Y011961D01*
X036953Y012070D01*
X036979Y012183D01*
X036989Y012275D01*
X036042Y012275D01*
X036042Y012435D01*
X036989Y012435D01*
X036979Y012528D01*
X036956Y012630D01*
X036992Y012594D01*
X037010Y012594D01*
X037010Y012033D01*
X036894Y011916D01*
X036929Y012001D02*
X036978Y012001D01*
X036973Y012159D02*
X037010Y012159D01*
X037010Y012318D02*
X036042Y012318D01*
X036985Y012476D02*
X037010Y012476D01*
X037410Y012476D02*
X039250Y012476D01*
X039250Y012318D02*
X037410Y012318D01*
X037410Y012159D02*
X039250Y012159D01*
X039250Y012001D02*
X037410Y012001D01*
X037385Y011842D02*
X039250Y011842D01*
X039250Y011684D02*
X037226Y011684D01*
X037559Y012635D02*
X037751Y012635D01*
X037698Y012793D02*
X037612Y012793D01*
X037612Y012952D02*
X037698Y012952D01*
X037698Y013110D02*
X037612Y013110D01*
X037596Y013269D02*
X037714Y013269D01*
X037678Y013427D02*
X037632Y013427D01*
X037632Y013586D02*
X037678Y013586D01*
X037632Y013658D02*
X037632Y013880D01*
X037620Y013926D01*
X037596Y013967D01*
X037562Y014000D01*
X037521Y014024D01*
X037476Y014036D01*
X037273Y014036D01*
X037273Y013658D01*
X037632Y013658D01*
X037632Y013744D02*
X037678Y013744D01*
X037684Y013903D02*
X037626Y013903D01*
X037273Y013903D02*
X037237Y013903D01*
X037237Y013744D02*
X037273Y013744D01*
X037237Y013658D02*
X036878Y013658D01*
X036878Y013735D01*
X036421Y013278D01*
X036461Y013258D01*
X036559Y013197D01*
X036649Y013125D01*
X036731Y013043D01*
X036803Y012952D01*
X036865Y012854D01*
X036898Y012785D01*
X036898Y013253D01*
X036936Y013291D01*
X036914Y013313D01*
X036890Y013354D01*
X036878Y013399D01*
X036878Y013621D01*
X037237Y013621D01*
X037237Y013658D01*
X036878Y013586D02*
X036728Y013586D01*
X036878Y013427D02*
X036570Y013427D01*
X036440Y013269D02*
X036914Y013269D01*
X036898Y013110D02*
X036664Y013110D01*
X036804Y012952D02*
X036898Y012952D01*
X036894Y012793D02*
X036898Y012793D01*
X038359Y012635D02*
X039250Y012635D01*
X039250Y012793D02*
X038412Y012793D01*
X038412Y012952D02*
X039250Y012952D01*
X039250Y013110D02*
X038473Y013110D01*
X038610Y013269D02*
X039250Y013269D01*
X039250Y013427D02*
X038610Y013427D01*
X038610Y013586D02*
X039250Y013586D01*
X039250Y013744D02*
X038610Y013744D01*
X038610Y013903D02*
X039250Y013903D01*
X039250Y014061D02*
X038785Y014061D01*
X038787Y014220D02*
X039250Y014220D01*
X039250Y014378D02*
X038787Y014378D01*
X038787Y014537D02*
X039250Y014537D01*
X039250Y014695D02*
X038775Y014695D01*
X038807Y014854D02*
X039250Y014854D01*
X039250Y015012D02*
X038448Y015012D01*
X038448Y015033D02*
X038807Y015033D01*
X038807Y015255D01*
X038795Y015301D01*
X038771Y015342D01*
X038737Y015375D01*
X038696Y015399D01*
X038651Y015411D01*
X038448Y015411D01*
X038448Y015033D01*
X038448Y015171D02*
X038412Y015171D01*
X038412Y015329D02*
X038448Y015329D01*
X038778Y015329D02*
X039250Y015329D01*
X039250Y015171D02*
X038807Y015171D01*
X039250Y015488D02*
X038155Y015488D01*
X037997Y015646D02*
X039250Y015646D01*
X039250Y015805D02*
X038589Y015805D01*
X038790Y015963D02*
X039250Y015963D01*
X039250Y016122D02*
X038920Y016122D01*
X038901Y016074D02*
X038901Y016074D01*
X038986Y016280D02*
X039250Y016280D01*
X039250Y016439D02*
X039030Y016439D01*
X039030Y016597D02*
X039250Y016597D01*
X039241Y016756D02*
X039017Y016756D01*
X038951Y016914D02*
X039201Y016914D01*
X039140Y017073D02*
X038865Y017073D01*
X038706Y017231D02*
X039036Y017231D01*
X038892Y017390D02*
X038386Y017390D01*
X038622Y017548D02*
X029338Y017548D01*
X029496Y017390D02*
X036178Y017390D01*
X036178Y017231D02*
X029515Y017231D01*
X029515Y017180D02*
X029055Y017180D01*
X029055Y017180D01*
X029055Y017180D01*
X028595Y017180D01*
X028595Y017371D01*
X028845Y017620D01*
X024923Y017620D01*
X024923Y017620D01*
X025237Y017620D01*
X025495Y017362D01*
X025495Y016998D01*
X025327Y016830D01*
X028754Y016830D01*
X028595Y016989D01*
X028595Y017180D01*
X029055Y017180D01*
X029515Y017180D01*
X029515Y017073D02*
X036178Y017073D01*
X036071Y016914D02*
X029440Y016914D01*
X029456Y016430D02*
X030467Y016430D01*
X030760Y016137D01*
X029841Y016137D01*
X029748Y016044D01*
X029748Y014816D01*
X029841Y014723D01*
X029870Y014723D01*
X029870Y014672D01*
X029753Y014672D01*
X029660Y014578D01*
X029660Y014052D01*
X029731Y013980D01*
X029660Y013909D01*
X029660Y013382D01*
X029753Y013289D01*
X030319Y013289D01*
X030413Y013382D01*
X030413Y013430D01*
X030467Y013430D01*
X031187Y012711D01*
X031187Y012339D01*
X031071Y012339D01*
X031071Y012224D01*
X030673Y012224D01*
X030673Y011943D01*
X030678Y011925D01*
X030462Y012141D01*
X030462Y012663D01*
X030368Y012756D01*
X029685Y012756D01*
X029591Y012663D01*
X029591Y011900D01*
X029685Y011806D01*
X030231Y011806D01*
X030647Y011390D01*
X031550Y011390D01*
X031550Y011037D01*
X031107Y011037D01*
X031055Y010985D01*
X031003Y011037D01*
X030438Y011037D01*
X030344Y010943D01*
X030344Y010890D01*
X028773Y010890D01*
X028170Y011493D01*
X028053Y011610D01*
X023895Y011610D01*
X023910Y011646D01*
X023910Y011747D01*
X024903Y012740D01*
X025237Y012740D01*
X025495Y012998D01*
X025495Y013362D01*
X025237Y013620D01*
X024873Y013620D01*
X024615Y013362D01*
X024615Y013018D01*
X023627Y012030D01*
X023526Y012030D01*
X023409Y011981D01*
X023319Y011891D01*
X023270Y011774D01*
X023270Y011646D01*
X023285Y011610D01*
X022847Y011610D01*
X021407Y010170D01*
X021306Y010170D01*
X021189Y010121D01*
X021099Y010031D01*
X021090Y010010D01*
X021090Y010173D01*
X020973Y010290D01*
X020490Y010773D01*
X020490Y011678D01*
X020499Y011682D01*
X020623Y011806D01*
X020690Y011967D01*
X020690Y012143D01*
X020623Y012304D01*
X020499Y012428D01*
X020338Y012495D01*
X020162Y012495D01*
X020001Y012428D01*
X019890Y012317D01*
X019890Y012647D01*
X020253Y013010D01*
X020354Y013010D01*
X020471Y013059D01*
X020561Y013149D01*
X020610Y013266D01*
X020610Y013394D01*
X020561Y013511D01*
X020471Y013601D01*
X020438Y013615D01*
X021208Y014385D01*
X021170Y014294D01*
X021170Y014166D01*
X021219Y014049D01*
X021309Y013959D01*
X021426Y013910D01*
X021554Y013910D01*
X021671Y013959D01*
X021743Y014030D01*
X024615Y014030D01*
X024615Y013998D01*
X024873Y013740D01*
X025237Y013740D01*
X025495Y013998D01*
X025495Y014362D01*
X025237Y014620D01*
X024873Y014620D01*
X024683Y014430D01*
X021843Y014430D01*
X021863Y014450D01*
X024633Y014450D01*
X024750Y014567D01*
X024750Y014567D01*
X024923Y014740D01*
X025237Y014740D01*
X025495Y014998D01*
X025495Y015362D01*
X025237Y015620D01*
X024873Y015620D01*
X024615Y015362D01*
X024615Y014998D01*
X024467Y014850D01*
X021863Y014850D01*
X021791Y014921D01*
X021674Y014970D01*
X021546Y014970D01*
X021450Y014930D01*
X021450Y016011D01*
X021506Y015955D01*
X021711Y015870D01*
X021934Y015870D01*
X022140Y015955D01*
X022297Y016113D01*
X022383Y016319D01*
X022383Y016541D01*
X022297Y016747D01*
X022140Y016905D01*
X021940Y016988D01*
X021983Y017030D01*
X023327Y017030D01*
X023373Y016984D01*
X023336Y016996D01*
X023246Y017010D01*
X023239Y017010D01*
X023239Y016468D01*
X023781Y016468D01*
X023781Y016476D01*
X023766Y016566D01*
X023754Y016603D01*
X023810Y016547D01*
X023927Y016430D01*
X024683Y016430D01*
X024615Y016362D01*
X024615Y015998D01*
X024873Y015740D01*
X025237Y015740D01*
X025495Y015998D01*
X025495Y016362D01*
X025427Y016430D01*
X028654Y016430D01*
X028595Y016371D01*
X028595Y016180D01*
X029055Y016180D01*
X029515Y016180D01*
X029515Y016371D01*
X029456Y016430D01*
X029515Y016280D02*
X030617Y016280D01*
X031024Y016439D02*
X035990Y016439D01*
X035990Y016597D02*
X030866Y016597D01*
X030707Y016756D02*
X035990Y016756D01*
X036909Y016756D02*
X037343Y016756D01*
X037330Y016597D02*
X037046Y016597D01*
X037204Y016439D02*
X037330Y016439D01*
X037363Y016280D02*
X037374Y016280D01*
X037330Y015747D02*
X037670Y015408D01*
X037406Y015408D01*
X037361Y015395D01*
X037319Y015372D01*
X037286Y015338D01*
X037262Y015297D01*
X037250Y015251D01*
X037250Y015105D01*
X037250Y014959D01*
X037261Y014918D01*
X037250Y014877D01*
X037250Y014731D01*
X037250Y014585D01*
X037259Y014550D01*
X037230Y014550D01*
X037230Y014673D01*
X037230Y015333D01*
X037170Y015393D01*
X037170Y015587D01*
X037330Y015747D01*
X037229Y015646D02*
X037431Y015646D01*
X037590Y015488D02*
X037170Y015488D01*
X037230Y015329D02*
X037281Y015329D01*
X037250Y015171D02*
X037230Y015171D01*
X037250Y015105D02*
X037670Y015105D01*
X037670Y015105D01*
X037670Y015034D01*
X037670Y014731D01*
X037250Y014731D01*
X037670Y014731D01*
X037670Y014731D01*
X037670Y014731D01*
X037670Y015105D01*
X037250Y015105D01*
X037250Y015012D02*
X037230Y015012D01*
X037230Y014854D02*
X037250Y014854D01*
X037250Y014695D02*
X037230Y014695D01*
X037670Y014854D02*
X037670Y014854D01*
X037670Y015012D02*
X037670Y015012D01*
X037670Y015105D02*
X037670Y015105D01*
X038070Y014378D02*
X038073Y014378D01*
X038070Y014220D02*
X038073Y014220D01*
X038075Y014061D02*
X037204Y014061D01*
X038037Y013903D02*
X038073Y013903D01*
X038073Y013744D02*
X038037Y013744D01*
X034585Y015488D02*
X033135Y015488D01*
X033135Y015510D02*
X034015Y015510D01*
X034015Y016234D01*
X034003Y016279D01*
X033979Y016321D01*
X033946Y016354D01*
X033904Y016378D01*
X033859Y016390D01*
X033135Y016390D01*
X033135Y015510D01*
X033135Y015646D02*
X032975Y015646D01*
X032975Y015488D02*
X031975Y015488D01*
X032095Y015646D02*
X031817Y015646D01*
X031658Y015805D02*
X032095Y015805D01*
X032095Y015963D02*
X031500Y015963D01*
X031341Y016122D02*
X032095Y016122D01*
X032108Y016280D02*
X031183Y016280D01*
X029825Y016122D02*
X029515Y016122D01*
X029515Y016180D02*
X029055Y016180D01*
X029055Y016180D01*
X029055Y015720D01*
X029246Y015720D01*
X029515Y015989D01*
X029515Y016180D01*
X029489Y015963D02*
X029748Y015963D01*
X029748Y015805D02*
X029330Y015805D01*
X029246Y015640D02*
X029055Y015640D01*
X029055Y015180D01*
X029515Y015180D01*
X029515Y015371D01*
X029246Y015640D01*
X029055Y015640D02*
X028864Y015640D01*
X028595Y015371D01*
X028595Y015180D01*
X029055Y015180D01*
X029055Y015180D01*
X029055Y015180D01*
X029515Y015180D01*
X029515Y014989D01*
X029246Y014720D01*
X029055Y014720D01*
X029055Y015180D01*
X029055Y015180D01*
X029055Y015180D01*
X029055Y015640D01*
X029055Y015720D02*
X028864Y015720D01*
X028595Y015989D01*
X028595Y016180D01*
X029055Y016180D01*
X029055Y016180D01*
X029055Y016180D01*
X029055Y015720D01*
X029055Y015805D02*
X029055Y015805D01*
X029055Y015963D02*
X029055Y015963D01*
X029055Y016122D02*
X029055Y016122D01*
X028595Y016122D02*
X025495Y016122D01*
X025495Y016280D02*
X028595Y016280D01*
X028621Y015963D02*
X025460Y015963D01*
X025302Y015805D02*
X028780Y015805D01*
X028712Y015488D02*
X025370Y015488D01*
X025495Y015329D02*
X028595Y015329D01*
X028595Y015180D02*
X028595Y014989D01*
X028864Y014720D01*
X029055Y014720D01*
X029055Y015180D01*
X028595Y015180D01*
X028595Y015171D02*
X025495Y015171D01*
X025495Y015012D02*
X028595Y015012D01*
X028731Y014854D02*
X025351Y014854D01*
X024878Y014695D02*
X029870Y014695D01*
X029748Y014854D02*
X029379Y014854D01*
X029515Y015012D02*
X029748Y015012D01*
X029748Y015171D02*
X029515Y015171D01*
X029515Y015329D02*
X029748Y015329D01*
X029748Y015488D02*
X029398Y015488D01*
X029055Y015488D02*
X029055Y015488D01*
X029055Y015329D02*
X029055Y015329D01*
X029055Y015171D02*
X029055Y015171D01*
X029055Y015012D02*
X029055Y015012D01*
X029055Y014854D02*
X029055Y014854D01*
X029055Y014640D02*
X029246Y014640D01*
X029515Y014371D01*
X029515Y014180D01*
X029055Y014180D01*
X029055Y014180D01*
X029055Y014180D01*
X029055Y014640D01*
X028864Y014640D01*
X028595Y014371D01*
X028595Y014180D01*
X029055Y014180D01*
X029515Y014180D01*
X029515Y013989D01*
X029246Y013720D01*
X029055Y013720D01*
X029055Y014180D01*
X029055Y014180D01*
X029055Y014180D01*
X029055Y014640D01*
X029055Y014537D02*
X029055Y014537D01*
X029055Y014378D02*
X029055Y014378D01*
X029055Y014220D02*
X029055Y014220D01*
X029055Y014180D02*
X028595Y014180D01*
X028595Y013989D01*
X028864Y013720D01*
X029055Y013720D01*
X029055Y014180D01*
X029055Y014061D02*
X029055Y014061D01*
X029055Y013903D02*
X029055Y013903D01*
X029055Y013744D02*
X029055Y013744D01*
X029055Y013640D02*
X029246Y013640D01*
X029515Y013371D01*
X029515Y013180D01*
X029055Y013180D01*
X029055Y013180D01*
X029055Y013180D01*
X029055Y013640D01*
X028864Y013640D01*
X028595Y013371D01*
X028595Y013180D01*
X029055Y013180D01*
X029515Y013180D01*
X029515Y012989D01*
X029246Y012720D01*
X029055Y012720D01*
X029055Y013180D01*
X029055Y013180D01*
X029055Y013180D01*
X029055Y013640D01*
X029055Y013586D02*
X029055Y013586D01*
X029055Y013427D02*
X029055Y013427D01*
X029055Y013269D02*
X029055Y013269D01*
X029055Y013180D02*
X028595Y013180D01*
X028595Y012989D01*
X028864Y012720D01*
X029055Y012720D01*
X029055Y013180D01*
X029055Y013110D02*
X029055Y013110D01*
X029055Y012952D02*
X029055Y012952D01*
X029055Y012793D02*
X029055Y012793D01*
X029055Y012640D02*
X029246Y012640D01*
X029515Y012371D01*
X029515Y012180D01*
X029055Y012180D01*
X029055Y012180D01*
X029055Y012180D01*
X029055Y012640D01*
X028864Y012640D01*
X028595Y012371D01*
X028595Y012180D01*
X029055Y012180D01*
X029515Y012180D01*
X029515Y011989D01*
X029246Y011720D01*
X029055Y011720D01*
X029055Y012180D01*
X029055Y012180D01*
X029055Y012180D01*
X029055Y012640D01*
X029055Y012635D02*
X029055Y012635D01*
X029055Y012476D02*
X029055Y012476D01*
X029055Y012318D02*
X029055Y012318D01*
X029055Y012180D02*
X028595Y012180D01*
X028595Y011989D01*
X028864Y011720D01*
X029055Y011720D01*
X029055Y012180D01*
X029055Y012159D02*
X029055Y012159D01*
X029055Y012001D02*
X029055Y012001D01*
X029055Y011842D02*
X029055Y011842D01*
X029368Y011842D02*
X029649Y011842D01*
X029591Y012001D02*
X029515Y012001D01*
X029515Y012159D02*
X029591Y012159D01*
X029591Y012318D02*
X029515Y012318D01*
X029591Y012476D02*
X029410Y012476D01*
X029251Y012635D02*
X029591Y012635D01*
X029319Y012793D02*
X031104Y012793D01*
X031071Y012776D02*
X030830Y012776D01*
X030784Y012764D01*
X030743Y012740D01*
X030709Y012707D01*
X030685Y012666D01*
X030673Y012620D01*
X030673Y012339D01*
X031071Y012339D01*
X031071Y012776D01*
X031071Y012635D02*
X031187Y012635D01*
X031187Y012476D02*
X031071Y012476D01*
X031071Y012318D02*
X030462Y012318D01*
X030462Y012476D02*
X030673Y012476D01*
X030677Y012635D02*
X030462Y012635D01*
X030787Y013110D02*
X029515Y013110D01*
X029515Y013269D02*
X030629Y013269D01*
X030470Y013427D02*
X030413Y013427D01*
X030946Y012952D02*
X029477Y012952D01*
X029459Y013427D02*
X029660Y013427D01*
X029660Y013586D02*
X029300Y013586D01*
X029270Y013744D02*
X029660Y013744D01*
X029660Y013903D02*
X029428Y013903D01*
X029515Y014061D02*
X029660Y014061D01*
X029660Y014220D02*
X029515Y014220D01*
X029508Y014378D02*
X029660Y014378D01*
X029660Y014537D02*
X029349Y014537D01*
X028761Y014537D02*
X025321Y014537D01*
X025479Y014378D02*
X028602Y014378D01*
X028595Y014220D02*
X025495Y014220D01*
X025495Y014061D02*
X028595Y014061D01*
X028682Y013903D02*
X025400Y013903D01*
X025241Y013744D02*
X028840Y013744D01*
X028810Y013586D02*
X025272Y013586D01*
X025430Y013427D02*
X028651Y013427D01*
X028595Y013269D02*
X025495Y013269D01*
X025495Y013110D02*
X028595Y013110D01*
X028633Y012952D02*
X025449Y012952D01*
X025290Y012793D02*
X028791Y012793D01*
X028859Y012635D02*
X024797Y012635D01*
X024873Y012620D02*
X024615Y012362D01*
X024615Y011998D01*
X024873Y011740D01*
X025237Y011740D01*
X025495Y011998D01*
X025495Y012362D01*
X025237Y012620D01*
X024873Y012620D01*
X024729Y012476D02*
X024639Y012476D01*
X024615Y012318D02*
X024480Y012318D01*
X024615Y012159D02*
X024322Y012159D01*
X024163Y012001D02*
X024615Y012001D01*
X024771Y011842D02*
X024005Y011842D01*
X023910Y011684D02*
X030354Y011684D01*
X030512Y011525D02*
X028138Y011525D01*
X028296Y011367D02*
X031550Y011367D01*
X031550Y011208D02*
X028455Y011208D01*
X028613Y011050D02*
X031550Y011050D01*
X030344Y010891D02*
X028772Y010891D01*
X028742Y011842D02*
X025339Y011842D01*
X025495Y012001D02*
X028595Y012001D01*
X028595Y012159D02*
X025495Y012159D01*
X025495Y012318D02*
X028595Y012318D01*
X028700Y012476D02*
X025381Y012476D01*
X024549Y012952D02*
X020194Y012952D01*
X020036Y012793D02*
X024390Y012793D01*
X024232Y012635D02*
X019890Y012635D01*
X019890Y012476D02*
X020117Y012476D01*
X020383Y012476D02*
X022017Y012476D01*
X022062Y012495D02*
X021901Y012428D01*
X021777Y012304D01*
X021710Y012143D01*
X021710Y011967D01*
X021777Y011806D01*
X021901Y011682D01*
X022062Y011615D01*
X022238Y011615D01*
X022399Y011682D01*
X022523Y011806D01*
X022590Y011967D01*
X022590Y012143D01*
X022523Y012304D01*
X022399Y012428D01*
X022238Y012495D01*
X022062Y012495D01*
X022283Y012476D02*
X024073Y012476D01*
X023915Y012318D02*
X022510Y012318D01*
X022583Y012159D02*
X023756Y012159D01*
X023455Y012001D02*
X022590Y012001D01*
X022538Y011842D02*
X023298Y011842D01*
X023270Y011684D02*
X022401Y011684D01*
X022762Y011525D02*
X020490Y011525D01*
X020490Y011367D02*
X022604Y011367D01*
X022445Y011208D02*
X020490Y011208D01*
X020490Y011050D02*
X022287Y011050D01*
X022128Y010891D02*
X020490Y010891D01*
X020530Y010733D02*
X021970Y010733D01*
X021811Y010574D02*
X020689Y010574D01*
X020847Y010416D02*
X021653Y010416D01*
X021494Y010257D02*
X021006Y010257D01*
X021090Y010099D02*
X021166Y010099D01*
X020690Y010007D02*
X020690Y009742D01*
X020619Y009742D01*
X020525Y009649D01*
X020525Y008720D01*
X020517Y008707D01*
X020505Y008661D01*
X020505Y008527D01*
X020505Y008394D01*
X020517Y008348D01*
X020525Y008335D01*
X020525Y008090D01*
X020517Y008077D01*
X020505Y008031D01*
X020505Y008010D01*
X020250Y008010D01*
X020250Y009650D01*
X020524Y009650D01*
X020617Y009744D01*
X020617Y010080D01*
X020690Y010007D01*
X020690Y009940D02*
X020617Y009940D01*
X020617Y009782D02*
X020690Y009782D01*
X020525Y009623D02*
X020250Y009623D01*
X020250Y009465D02*
X020525Y009465D01*
X020525Y009306D02*
X020250Y009306D01*
X020250Y009148D02*
X020525Y009148D01*
X020525Y008989D02*
X020250Y008989D01*
X020250Y008831D02*
X020525Y008831D01*
X020508Y008672D02*
X020250Y008672D01*
X020250Y008514D02*
X020505Y008514D01*
X020505Y008527D02*
X020935Y008527D01*
X020935Y008527D01*
X020505Y008527D01*
X020515Y008355D02*
X020250Y008355D01*
X020250Y008197D02*
X020525Y008197D01*
X020507Y008038D02*
X020250Y008038D01*
X018701Y008088D02*
X018274Y007759D01*
X018259Y007765D01*
X018131Y007765D01*
X018014Y007716D01*
X017965Y007668D01*
X017965Y008020D01*
X017973Y008033D01*
X017985Y008079D01*
X017985Y008213D01*
X017985Y008346D01*
X017976Y008381D01*
X018104Y008471D01*
X018131Y008460D01*
X018259Y008460D01*
X018376Y008509D01*
X018466Y008599D01*
X018515Y008716D01*
X018515Y008799D01*
X018673Y008723D01*
X018675Y008607D01*
X018609Y008541D01*
X018560Y008424D01*
X018560Y008296D01*
X018609Y008179D01*
X018699Y008089D01*
X018701Y008088D01*
X018636Y008038D02*
X017974Y008038D01*
X017965Y007880D02*
X018431Y007880D01*
X018601Y008197D02*
X017985Y008197D01*
X017985Y008213D02*
X017555Y008213D01*
X017985Y008213D01*
X017983Y008355D02*
X018560Y008355D01*
X018597Y008514D02*
X018381Y008514D01*
X018497Y008672D02*
X018674Y008672D01*
X017555Y008213D02*
X017555Y008213D01*
X017965Y007721D02*
X018025Y007721D01*
X016115Y007574D02*
X016104Y007563D01*
X016104Y007506D01*
X016055Y007458D01*
X016055Y007520D01*
X016043Y007566D01*
X016038Y007574D01*
X016043Y007582D01*
X016055Y007628D01*
X016055Y007731D01*
X015715Y007731D01*
X015715Y007676D01*
X015715Y007416D01*
X015715Y007101D01*
X015715Y006786D01*
X015375Y006786D01*
X015375Y006683D01*
X015387Y006637D01*
X015411Y006596D01*
X015437Y006570D01*
X015323Y006570D01*
X015038Y006855D01*
X014918Y006855D01*
X014910Y006863D01*
X014910Y007007D01*
X015375Y007472D01*
X015375Y007416D01*
X015375Y007313D01*
X015387Y007267D01*
X015392Y007259D01*
X015387Y007251D01*
X015375Y007205D01*
X015375Y007101D01*
X015375Y006998D01*
X015387Y006952D01*
X015392Y006944D01*
X015387Y006936D01*
X015375Y006890D01*
X015375Y006786D01*
X015715Y006786D01*
X015715Y006786D01*
X015715Y006786D01*
X015715Y007046D01*
X015715Y007101D01*
X015715Y007101D01*
X015375Y007101D01*
X015715Y007101D01*
X015715Y007101D01*
X015715Y007101D01*
X015715Y007361D01*
X015715Y007416D01*
X015715Y007416D01*
X015375Y007416D01*
X015715Y007416D01*
X015715Y007416D01*
X015715Y007416D01*
X015715Y007731D01*
X015715Y007731D01*
X015715Y007731D01*
X016055Y007731D01*
X016055Y007790D01*
X016067Y007790D01*
X016104Y007754D01*
X016104Y007585D01*
X016115Y007574D01*
X016104Y007563D02*
X016043Y007563D01*
X016055Y007721D02*
X016104Y007721D01*
X015715Y007721D02*
X015715Y007721D01*
X015715Y007563D02*
X015715Y007563D01*
X015715Y007404D02*
X015715Y007404D01*
X015715Y007246D02*
X015715Y007246D01*
X015715Y007087D02*
X015715Y007087D01*
X015715Y006929D02*
X015715Y006929D01*
X015385Y006929D02*
X014910Y006929D01*
X014990Y007087D02*
X015375Y007087D01*
X015386Y007246D02*
X015148Y007246D01*
X015307Y007404D02*
X015375Y007404D01*
X015375Y006770D02*
X015123Y006770D01*
X015281Y006612D02*
X015402Y006612D01*
X014917Y007880D02*
X014825Y007880D01*
X014465Y008355D02*
X013189Y008355D01*
X013235Y008514D02*
X014334Y008514D01*
X014202Y008672D02*
X013247Y008672D01*
X013350Y008831D02*
X014070Y008831D01*
X013938Y008989D02*
X013350Y008989D01*
X013350Y009148D02*
X013805Y009148D01*
X013673Y009306D02*
X013350Y009306D01*
X013350Y009465D02*
X013541Y009465D01*
X013409Y009623D02*
X013350Y009623D01*
X013798Y009782D02*
X014485Y009782D01*
X014455Y009623D02*
X013930Y009623D01*
X014062Y009465D02*
X014455Y009465D01*
X014481Y009306D02*
X014194Y009306D01*
X014326Y009148D02*
X014435Y009148D01*
X015015Y008989D02*
X015015Y008989D01*
X015015Y008831D02*
X015015Y008831D01*
X012677Y008745D02*
X012644Y008711D01*
X012595Y008594D01*
X012595Y008466D01*
X012644Y008349D01*
X012734Y008259D01*
X012741Y008256D01*
X012412Y008293D01*
X012270Y008514D01*
X012270Y008745D01*
X012595Y008745D01*
X012677Y008745D01*
X012595Y008745D02*
X012595Y009055D01*
X012595Y009055D01*
X012595Y008745D01*
X012627Y008672D02*
X012270Y008672D01*
X012270Y008514D02*
X012595Y008514D01*
X012641Y008355D02*
X012372Y008355D01*
X011546Y008141D02*
X011510Y008054D01*
X011510Y007969D01*
X010050Y007969D01*
X010050Y008141D01*
X010746Y008141D01*
X010746Y008519D01*
X010822Y008519D01*
X010822Y008141D01*
X011546Y008141D01*
X011510Y008038D02*
X010050Y008038D01*
X010746Y008197D02*
X010822Y008197D01*
X010822Y008355D02*
X010746Y008355D01*
X010746Y008514D02*
X010822Y008514D01*
X010822Y008595D02*
X010746Y008595D01*
X010746Y008973D01*
X010050Y008973D01*
X010050Y009145D01*
X011630Y009145D01*
X011630Y008964D01*
X011595Y008973D01*
X010822Y008973D01*
X010822Y008595D01*
X010822Y008672D02*
X010746Y008672D01*
X010746Y008831D02*
X010822Y008831D01*
X010050Y008989D02*
X011630Y008989D01*
X012595Y008989D02*
X012595Y008989D01*
X012595Y008831D02*
X012595Y008831D01*
X013665Y009940D02*
X014435Y009940D01*
X014435Y010099D02*
X013533Y010099D01*
X013530Y010257D02*
X014449Y010257D01*
X014455Y010416D02*
X013530Y010416D01*
X013530Y010574D02*
X014455Y010574D01*
X014455Y010733D02*
X013530Y010733D01*
X013530Y010891D02*
X014455Y010891D01*
X014455Y011050D02*
X013530Y011050D01*
X013455Y011208D02*
X014455Y011208D01*
X014444Y011367D02*
X013449Y011367D01*
X011291Y011094D02*
X011119Y010922D01*
X010050Y010922D01*
X010050Y011094D01*
X010746Y011094D01*
X010746Y011472D01*
X010822Y011472D01*
X010822Y011094D01*
X011291Y011094D01*
X011247Y011050D02*
X010050Y011050D01*
X010746Y011208D02*
X010822Y011208D01*
X010822Y011367D02*
X010746Y011367D01*
X015581Y010257D02*
X015643Y010257D01*
X015600Y010099D02*
X015595Y010099D01*
X015595Y009940D02*
X015636Y009940D01*
X020501Y011684D02*
X021899Y011684D01*
X021762Y011842D02*
X020638Y011842D01*
X020690Y012001D02*
X021710Y012001D01*
X021717Y012159D02*
X020683Y012159D01*
X020610Y012318D02*
X021790Y012318D01*
X020523Y013110D02*
X024615Y013110D01*
X024615Y013269D02*
X020610Y013269D01*
X020596Y013427D02*
X024680Y013427D01*
X024838Y013586D02*
X020487Y013586D01*
X020567Y013744D02*
X024869Y013744D01*
X024710Y013903D02*
X020725Y013903D01*
X020884Y014061D02*
X021214Y014061D01*
X021170Y014220D02*
X021042Y014220D01*
X021201Y014378D02*
X021205Y014378D01*
X021859Y014854D02*
X024471Y014854D01*
X024615Y015012D02*
X021450Y015012D01*
X021450Y015171D02*
X024615Y015171D01*
X024615Y015329D02*
X021450Y015329D01*
X021450Y015488D02*
X024740Y015488D01*
X024808Y015805D02*
X021450Y015805D01*
X021450Y015963D02*
X021498Y015963D01*
X021450Y015646D02*
X029748Y015646D01*
X028670Y016914D02*
X025411Y016914D01*
X025495Y017073D02*
X028595Y017073D01*
X028595Y017231D02*
X025495Y017231D01*
X025468Y017390D02*
X028614Y017390D01*
X028772Y017548D02*
X025309Y017548D01*
X023760Y016597D02*
X023756Y016597D01*
X023919Y016439D02*
X023239Y016439D01*
X023239Y016468D02*
X023239Y016392D01*
X023781Y016392D01*
X023781Y016384D01*
X023766Y016294D01*
X023738Y016207D01*
X023697Y016126D01*
X023643Y016052D01*
X023579Y015988D01*
X023505Y015934D01*
X023423Y015892D01*
X023336Y015864D01*
X023246Y015850D01*
X023239Y015850D01*
X023239Y016392D01*
X023163Y016392D01*
X023163Y015850D01*
X023155Y015850D01*
X023065Y015864D01*
X022978Y015892D01*
X022897Y015934D01*
X022823Y015988D01*
X022758Y016052D01*
X022705Y016126D01*
X022663Y016207D01*
X022635Y016294D01*
X022621Y016384D01*
X022621Y016392D01*
X023163Y016392D01*
X023163Y016468D01*
X023163Y017010D01*
X023155Y017010D01*
X023065Y016996D01*
X022978Y016968D01*
X022897Y016926D01*
X022823Y016872D01*
X022758Y016808D01*
X022705Y016734D01*
X022663Y016653D01*
X022635Y016566D01*
X022621Y016476D01*
X022621Y016468D01*
X023163Y016468D01*
X023239Y016468D01*
X023163Y016439D02*
X022383Y016439D01*
X022360Y016597D02*
X022645Y016597D01*
X022720Y016756D02*
X022289Y016756D01*
X022118Y016914D02*
X022880Y016914D01*
X023163Y016914D02*
X023239Y016914D01*
X023239Y016756D02*
X023163Y016756D01*
X023163Y016597D02*
X023239Y016597D01*
X023239Y016280D02*
X023163Y016280D01*
X023163Y016122D02*
X023239Y016122D01*
X023239Y015963D02*
X023163Y015963D01*
X022857Y015963D02*
X022148Y015963D01*
X022301Y016122D02*
X022708Y016122D01*
X022640Y016280D02*
X022367Y016280D01*
X023545Y015963D02*
X024650Y015963D01*
X024615Y016122D02*
X023693Y016122D01*
X023762Y016280D02*
X024615Y016280D01*
X024719Y014537D02*
X024789Y014537D01*
X019890Y012318D02*
X019890Y012318D01*
X024422Y011210D02*
X024422Y010976D01*
X024356Y010910D01*
X024422Y010844D01*
X024422Y010476D01*
X024356Y010410D01*
X024422Y010344D01*
X024422Y009976D01*
X024356Y009910D01*
X024422Y009844D01*
X024422Y009476D01*
X024370Y009424D01*
X024373Y009422D01*
X024406Y009389D01*
X024430Y009348D01*
X024442Y009302D01*
X024442Y009160D01*
X023829Y009160D01*
X023829Y009160D01*
X024442Y009160D01*
X024442Y009018D01*
X024430Y008972D01*
X024406Y008931D01*
X024385Y008910D01*
X024406Y008889D01*
X024430Y008848D01*
X024442Y008802D01*
X024442Y008660D01*
X024442Y008645D01*
X026510Y010713D01*
X026522Y010725D01*
X026499Y010749D01*
X026450Y010866D01*
X026450Y010994D01*
X026499Y011111D01*
X026589Y011201D01*
X026610Y011210D01*
X024422Y011210D01*
X024422Y011208D02*
X026605Y011208D01*
X026473Y011050D02*
X024422Y011050D01*
X024375Y010891D02*
X026450Y010891D01*
X026515Y010733D02*
X024422Y010733D01*
X024422Y010574D02*
X026371Y010574D01*
X026213Y010416D02*
X024362Y010416D01*
X024422Y010257D02*
X026054Y010257D01*
X025896Y010099D02*
X024422Y010099D01*
X024386Y009940D02*
X025737Y009940D01*
X025579Y009782D02*
X024422Y009782D01*
X024422Y009623D02*
X025420Y009623D01*
X025262Y009465D02*
X024411Y009465D01*
X024441Y009306D02*
X025103Y009306D01*
X024945Y009148D02*
X024442Y009148D01*
X024434Y008989D02*
X024786Y008989D01*
X024628Y008831D02*
X024434Y008831D01*
X024442Y008672D02*
X024469Y008672D01*
X024442Y008660D02*
X023829Y008660D01*
X023829Y008660D01*
X024442Y008660D01*
X023829Y008660D02*
X023829Y008160D01*
X023829Y007660D01*
X023829Y007660D01*
X023829Y007958D01*
X023829Y008160D01*
X023829Y008160D01*
X023829Y008160D01*
X023829Y008362D01*
X023829Y008660D01*
X023829Y008660D01*
X023829Y008660D01*
X023829Y008958D01*
X023829Y009160D01*
X023829Y009160D01*
X023829Y008660D01*
X023829Y008672D02*
X023829Y008672D01*
X023829Y008514D02*
X023829Y008514D01*
X023829Y008355D02*
X023829Y008355D01*
X023829Y008197D02*
X023829Y008197D01*
X023829Y008038D02*
X023829Y008038D01*
X023829Y007880D02*
X023829Y007880D01*
X023829Y007721D02*
X023829Y007721D01*
X023829Y007660D02*
X023829Y007660D01*
X023216Y007660D01*
X023216Y007518D01*
X023228Y007472D01*
X023252Y007431D01*
X023273Y007410D01*
X023166Y007410D01*
X023049Y007361D01*
X022959Y007271D01*
X022932Y007206D01*
X022932Y007568D01*
X022921Y007578D01*
X023010Y007667D01*
X023263Y007920D01*
X023273Y007910D01*
X023252Y007889D01*
X023228Y007848D01*
X023216Y007802D01*
X023216Y007660D01*
X023829Y007660D01*
X023247Y007880D02*
X023222Y007880D01*
X023216Y007721D02*
X023064Y007721D01*
X022932Y007563D02*
X023216Y007563D01*
X023152Y007404D02*
X022932Y007404D01*
X022932Y007246D02*
X022948Y007246D01*
X023751Y006657D02*
X023845Y006751D01*
X024233Y006751D01*
X024285Y006699D01*
X024337Y006751D01*
X024350Y006751D01*
X024350Y006845D01*
X024314Y006830D01*
X024186Y006830D01*
X024069Y006879D01*
X024015Y006932D01*
X023190Y006107D01*
X023073Y005990D01*
X022873Y005990D01*
X022896Y005967D01*
X022920Y005926D01*
X022932Y005880D01*
X022932Y005658D01*
X022573Y005658D01*
X022573Y005621D01*
X022932Y005621D01*
X022932Y005455D01*
X023375Y005898D01*
X023330Y006006D01*
X023330Y006134D01*
X023379Y006251D01*
X023469Y006341D01*
X023586Y006390D01*
X023714Y006390D01*
X023751Y006375D01*
X023751Y006657D01*
X023751Y006612D02*
X023694Y006612D01*
X023751Y006453D02*
X023536Y006453D01*
X023422Y006295D02*
X023377Y006295D01*
X023331Y006136D02*
X023219Y006136D01*
X023342Y005978D02*
X022885Y005978D01*
X022932Y005819D02*
X023296Y005819D01*
X023138Y005661D02*
X022932Y005661D01*
X022932Y005502D02*
X022979Y005502D01*
X021890Y005504D02*
X021890Y006032D01*
X021846Y005989D01*
X021729Y005940D01*
X021713Y005940D01*
X021713Y005629D01*
X021710Y005626D01*
X021721Y005608D01*
X021733Y005562D01*
X021733Y005430D01*
X021317Y005430D01*
X021317Y005430D01*
X021733Y005430D01*
X021733Y005395D01*
X021890Y005504D01*
X021887Y005502D02*
X021733Y005502D01*
X021713Y005661D02*
X021890Y005661D01*
X021890Y005819D02*
X021713Y005819D01*
X021819Y005978D02*
X021890Y005978D01*
X023853Y006770D02*
X024350Y006770D01*
X024019Y006929D02*
X024011Y006929D01*
X025110Y007455D02*
X025110Y008327D01*
X026733Y009950D01*
X026834Y009950D01*
X026869Y009965D01*
X026910Y009924D01*
X026907Y009922D01*
X026874Y009889D01*
X026850Y009848D01*
X026838Y009802D01*
X026838Y009660D01*
X026838Y009518D01*
X026850Y009472D01*
X026874Y009431D01*
X026895Y009410D01*
X026874Y009389D01*
X026850Y009348D01*
X026838Y009302D01*
X026838Y009160D01*
X026838Y009018D01*
X026850Y008972D01*
X026874Y008931D01*
X026895Y008910D01*
X026874Y008889D01*
X026850Y008848D01*
X026838Y008802D01*
X026838Y008660D01*
X026838Y008518D01*
X026850Y008472D01*
X026874Y008431D01*
X026895Y008410D01*
X026874Y008389D01*
X026850Y008348D01*
X026838Y008302D01*
X026838Y008160D01*
X026838Y008018D01*
X026850Y007972D01*
X026874Y007931D01*
X026895Y007910D01*
X026874Y007889D01*
X026850Y007848D01*
X026838Y007802D01*
X026838Y007768D01*
X026834Y007770D01*
X026706Y007770D01*
X026589Y007721D01*
X026499Y007631D01*
X026450Y007514D01*
X026450Y007386D01*
X026465Y007350D01*
X025463Y007350D01*
X025391Y007421D01*
X025274Y007470D01*
X025146Y007470D01*
X025110Y007455D01*
X025110Y007563D02*
X026470Y007563D01*
X026450Y007404D02*
X025409Y007404D01*
X025110Y007721D02*
X026588Y007721D01*
X026869Y007880D02*
X025110Y007880D01*
X025110Y008038D02*
X026838Y008038D01*
X026838Y008160D02*
X027451Y008160D01*
X027451Y008160D01*
X026838Y008160D01*
X026838Y008197D02*
X025110Y008197D01*
X025138Y008355D02*
X026855Y008355D01*
X026839Y008514D02*
X025296Y008514D01*
X025455Y008672D02*
X026838Y008672D01*
X026838Y008660D02*
X027451Y008660D01*
X027451Y008660D01*
X026838Y008660D01*
X026846Y008831D02*
X025613Y008831D01*
X025772Y008989D02*
X026846Y008989D01*
X026838Y009148D02*
X025930Y009148D01*
X026089Y009306D02*
X026839Y009306D01*
X026838Y009160D02*
X027451Y009160D01*
X027451Y009160D01*
X026838Y009160D01*
X026855Y009465D02*
X026247Y009465D01*
X026406Y009623D02*
X026838Y009623D01*
X026838Y009660D02*
X027451Y009660D01*
X027451Y009660D01*
X026838Y009660D01*
X026838Y009782D02*
X026564Y009782D01*
X026723Y009940D02*
X026894Y009940D01*
X027451Y009660D02*
X027451Y009660D01*
X027451Y009458D01*
X027451Y009160D01*
X027451Y009160D01*
X027451Y009160D01*
X027451Y008958D01*
X027451Y008660D01*
X027451Y008660D01*
X027451Y008660D01*
X027451Y008362D01*
X027451Y008160D01*
X027451Y008160D01*
X027451Y008160D01*
X027451Y007660D01*
X027451Y007660D01*
X027451Y007862D01*
X027451Y008160D01*
X027451Y008660D01*
X027451Y009160D01*
X027451Y009660D01*
X027451Y009623D02*
X027451Y009623D01*
X027451Y009465D02*
X027451Y009465D01*
X027451Y009306D02*
X027451Y009306D01*
X027451Y009148D02*
X027451Y009148D01*
X027451Y008989D02*
X027451Y008989D01*
X027451Y008831D02*
X027451Y008831D01*
X027451Y008672D02*
X027451Y008672D01*
X027451Y008514D02*
X027451Y008514D01*
X027451Y008355D02*
X027451Y008355D01*
X027451Y008197D02*
X027451Y008197D01*
X027451Y008038D02*
X027451Y008038D01*
X027451Y007880D02*
X027451Y007880D01*
X027451Y007721D02*
X027451Y007721D01*
X027451Y007660D02*
X028064Y007660D01*
X028064Y007650D01*
X028139Y007650D01*
X028125Y007664D01*
X028125Y008072D01*
X028143Y008090D01*
X028064Y008090D01*
X028064Y008018D01*
X028052Y007972D01*
X028028Y007931D01*
X028007Y007910D01*
X028028Y007889D01*
X028052Y007848D01*
X028064Y007802D01*
X028064Y007660D01*
X027451Y007660D01*
X027451Y007660D01*
X028064Y007721D02*
X028125Y007721D01*
X028125Y007880D02*
X028033Y007880D01*
X028064Y008038D02*
X028125Y008038D01*
X030034Y009269D02*
X030440Y008863D01*
X030524Y008947D01*
X030795Y008947D01*
X030770Y009006D01*
X030770Y009134D01*
X030819Y009251D01*
X030825Y009258D01*
X030774Y009258D01*
X030774Y009616D01*
X030737Y009616D01*
X030737Y009258D01*
X030516Y009258D01*
X030470Y009270D01*
X030429Y009294D01*
X030395Y009327D01*
X030372Y009368D01*
X030359Y009414D01*
X030359Y009568D01*
X030034Y009269D01*
X030074Y009306D02*
X030417Y009306D01*
X030359Y009465D02*
X030246Y009465D01*
X030155Y009148D02*
X030776Y009148D01*
X030774Y009306D02*
X030737Y009306D01*
X030737Y009465D02*
X030774Y009465D01*
X030777Y008989D02*
X030314Y008989D01*
X032112Y009306D02*
X033931Y009306D01*
X033773Y009465D02*
X032247Y009465D01*
X032836Y009623D02*
X033614Y009623D01*
X033456Y009782D02*
X032836Y009782D01*
X032836Y009940D02*
X032866Y009940D01*
X034274Y008989D02*
X039250Y008989D01*
X039250Y008831D02*
X034432Y008831D01*
X034253Y011367D02*
X034167Y011367D01*
X030673Y012001D02*
X030602Y012001D01*
X030673Y012159D02*
X030462Y012159D01*
X032310Y013427D02*
X032690Y013427D01*
X032720Y013586D02*
X032310Y013586D01*
X032310Y013744D02*
X032841Y013744D01*
X033000Y013903D02*
X032310Y013903D01*
X032310Y014061D02*
X033158Y014061D01*
X033317Y014220D02*
X032310Y014220D01*
X032310Y014378D02*
X033475Y014378D01*
X033135Y014537D02*
X032975Y014537D01*
X032975Y014695D02*
X033135Y014695D01*
X033135Y014854D02*
X032975Y014854D01*
X032975Y015012D02*
X033135Y015012D01*
X033135Y015171D02*
X032975Y015171D01*
X032975Y015329D02*
X033135Y015329D01*
X033135Y015805D02*
X032975Y015805D01*
X032975Y015963D02*
X033135Y015963D01*
X033135Y016122D02*
X032975Y016122D01*
X032975Y016280D02*
X033135Y016280D01*
X034002Y016280D02*
X034957Y016280D01*
X034799Y016122D02*
X034015Y016122D01*
X034015Y015963D02*
X034730Y015963D01*
X034730Y015805D02*
X034015Y015805D01*
X034015Y015646D02*
X034730Y015646D01*
X034426Y015329D02*
X034015Y015329D01*
X034015Y015171D02*
X034268Y015171D01*
X034109Y015012D02*
X034015Y015012D01*
X036932Y016914D02*
X037409Y016914D01*
X037459Y017036D02*
X037459Y017036D01*
X037495Y017073D02*
X036932Y017073D01*
X036932Y017231D02*
X037654Y017231D01*
X037974Y017390D02*
X036932Y017390D01*
X038011Y017405D02*
X038011Y017405D01*
X038661Y017276D02*
X038661Y017276D01*
X022698Y009812D02*
X022698Y009434D01*
X022721Y009434D01*
X022659Y009371D01*
X022610Y009254D01*
X022610Y009161D01*
X022578Y009161D01*
X022578Y008783D01*
X022542Y008783D01*
X022542Y009161D01*
X022350Y009161D01*
X022350Y009492D01*
X022373Y009470D01*
X022414Y009446D01*
X022459Y009434D01*
X022662Y009434D01*
X022662Y009812D01*
X022698Y009812D01*
X022698Y009782D02*
X022662Y009782D01*
X022662Y009623D02*
X022698Y009623D01*
X022698Y009465D02*
X022662Y009465D01*
X022632Y009306D02*
X022350Y009306D01*
X022350Y009465D02*
X022382Y009465D01*
X022542Y009148D02*
X022578Y009148D01*
X022578Y008989D02*
X022542Y008989D01*
X022542Y008831D02*
X022578Y008831D01*
X022578Y008783D02*
X022937Y008783D01*
X022937Y008870D01*
X022994Y008870D01*
X023030Y008885D01*
X023030Y008253D01*
X022917Y008140D01*
X022917Y008378D01*
X022879Y008416D01*
X022901Y008438D01*
X022925Y008479D01*
X022937Y008524D01*
X022937Y008746D01*
X022578Y008746D01*
X022578Y008783D01*
X022937Y008831D02*
X023030Y008831D01*
X023030Y008672D02*
X022937Y008672D01*
X022934Y008514D02*
X023030Y008514D01*
X023030Y008355D02*
X022917Y008355D01*
X022917Y008197D02*
X022974Y008197D01*
X023829Y008831D02*
X023829Y008831D01*
X023829Y008989D02*
X023829Y008989D01*
X023829Y009148D02*
X023829Y009148D01*
X027383Y006453D02*
X027410Y006453D01*
X027410Y006295D02*
X027317Y006295D01*
X027410Y006136D02*
X026639Y006136D01*
X026850Y005978D02*
X026966Y005978D01*
X027372Y005978D02*
X027410Y005978D01*
X027403Y005819D02*
X027410Y005819D01*
X027403Y005661D02*
X027410Y005661D01*
X027403Y005502D02*
X027410Y005502D01*
X027403Y005344D02*
X027410Y005344D01*
X027810Y005355D02*
X027810Y005876D01*
X027931Y005876D01*
X028112Y005876D01*
X028158Y005889D01*
X028199Y005912D01*
X028232Y005946D01*
X028256Y005987D01*
X028267Y006030D01*
X028282Y006015D01*
X028282Y005990D01*
X028370Y005903D01*
X028370Y005793D01*
X027947Y005370D01*
X027846Y005370D01*
X027810Y005355D01*
X027810Y005502D02*
X028079Y005502D01*
X028238Y005661D02*
X027810Y005661D01*
X027810Y005819D02*
X028370Y005819D01*
X028295Y005978D02*
X028250Y005978D01*
X027931Y005978D02*
X027931Y005978D01*
X027931Y005876D02*
X027931Y006125D01*
X027931Y005876D01*
X027931Y006125D02*
X027931Y006125D01*
X022910Y004234D02*
X022102Y004234D01*
X022106Y004076D02*
X022910Y004076D01*
X022775Y003917D02*
X022010Y003917D01*
X019885Y004393D02*
X018160Y004393D01*
X018122Y004564D02*
X018122Y004904D01*
X018122Y004904D01*
X018122Y004904D01*
X018437Y004904D01*
X018437Y004564D01*
X018437Y004904D01*
X018437Y004904D01*
X018437Y004904D01*
X018492Y004904D01*
X018752Y004904D01*
X018752Y004904D01*
X018807Y004904D01*
X019067Y004904D01*
X019067Y004564D01*
X019067Y004904D01*
X019067Y004904D01*
X019067Y004904D01*
X019067Y005244D01*
X019171Y005244D01*
X019187Y005240D01*
X019209Y005261D01*
X019242Y005275D01*
X019219Y005298D01*
X019213Y005293D01*
X018921Y005293D01*
X018909Y005304D01*
X018898Y005293D01*
X018836Y005293D01*
X018787Y005244D01*
X018856Y005244D01*
X018901Y005232D01*
X018909Y005227D01*
X018917Y005232D01*
X018963Y005244D01*
X019067Y005244D01*
X019067Y004904D01*
X019067Y004904D01*
X018752Y004904D01*
X018752Y004564D01*
X018752Y004904D01*
X018752Y004904D01*
X018752Y004904D01*
X018437Y004904D01*
X018437Y004904D01*
X018177Y004904D01*
X018122Y004904D01*
X018122Y004564D01*
X018122Y004710D02*
X018122Y004710D01*
X018122Y004868D02*
X018122Y004868D01*
X018437Y004868D02*
X018437Y004868D01*
X018437Y004710D02*
X018437Y004710D01*
X018752Y004710D02*
X018752Y004710D01*
X018752Y004868D02*
X018752Y004868D01*
X019067Y004868D02*
X019067Y004868D01*
X019067Y004710D02*
X019067Y004710D01*
X019315Y004675D02*
X019315Y004675D01*
X019549Y004710D02*
X019568Y004710D01*
X019726Y004551D02*
X017970Y004551D01*
X019067Y005027D02*
X019067Y005027D01*
X019067Y005185D02*
X019067Y005185D01*
X026086Y003283D02*
X026330Y003283D01*
X027155Y002332D02*
X027481Y002332D01*
X006046Y014780D02*
X005964Y014754D01*
X005878Y014740D01*
X005855Y014740D01*
X005855Y015270D01*
X005855Y015310D01*
X005815Y015310D01*
X005815Y015270D01*
X005855Y015270D01*
X006385Y015270D01*
X006385Y015247D01*
X006371Y015161D01*
X006345Y015079D01*
X006305Y015002D01*
X006255Y014932D01*
X006193Y014870D01*
X006123Y014820D01*
X006046Y014780D01*
X006170Y014854D02*
X008030Y014854D01*
X008030Y015012D02*
X006311Y015012D01*
X006373Y015171D02*
X008030Y015171D01*
X008030Y015329D02*
X006385Y015329D01*
X006349Y015488D02*
X008030Y015488D01*
X007913Y015646D02*
X006256Y015646D01*
X005855Y015646D02*
X005815Y015646D01*
X005815Y015488D02*
X005855Y015488D01*
X005855Y015329D02*
X005815Y015329D01*
X005815Y015270D02*
X005285Y015270D01*
X005285Y015247D01*
X005299Y015161D01*
X005325Y015079D01*
X005365Y015002D01*
X005415Y014932D01*
X005477Y014870D01*
X005547Y014820D01*
X005624Y014780D01*
X005706Y014754D01*
X005792Y014740D01*
X005815Y014740D01*
X005815Y015270D01*
X005815Y015171D02*
X005855Y015171D01*
X005855Y015012D02*
X005815Y015012D01*
X005815Y014854D02*
X005855Y014854D01*
X005500Y014854D02*
X003588Y014854D01*
X003734Y015012D02*
X005359Y015012D01*
X005297Y015171D02*
X003799Y015171D01*
X003805Y015329D02*
X005285Y015329D01*
X005321Y015488D02*
X003767Y015488D01*
X003669Y015646D02*
X005414Y015646D01*
X003575Y016621D02*
X003380Y016540D01*
X003170Y016540D01*
X002975Y016621D01*
X002826Y016770D01*
X002745Y016965D01*
X002745Y017175D01*
X002826Y017370D01*
X002975Y017519D01*
X003170Y017600D01*
X003380Y017600D01*
X003575Y017519D01*
X003724Y017370D01*
X003805Y017175D01*
X003805Y016965D01*
X003724Y016770D01*
X003575Y016621D01*
X003518Y016597D02*
X005592Y016597D01*
X005400Y016756D02*
X003710Y016756D01*
X003784Y016914D02*
X005326Y016914D01*
X005305Y017073D02*
X003805Y017073D01*
X003782Y017231D02*
X005328Y017231D01*
X005405Y017390D02*
X003705Y017390D01*
X003506Y017548D02*
X005604Y017548D01*
X003044Y017548D02*
X001244Y017548D01*
X001474Y017390D02*
X000969Y017390D01*
X000820Y017231D02*
X001154Y017231D01*
X000995Y017073D02*
X000713Y017073D01*
X000661Y016914D02*
X000909Y016914D01*
X000959Y017036D02*
X000959Y017036D01*
X000843Y016756D02*
X000622Y016756D01*
X000614Y016597D02*
X000830Y016597D01*
X000830Y016439D02*
X000614Y016439D01*
X000614Y016280D02*
X000874Y016280D01*
X000940Y016122D02*
X000614Y016122D01*
X000614Y015963D02*
X001070Y015963D01*
X000959Y016074D02*
X000959Y016074D01*
X001199Y015834D02*
X001199Y015834D01*
X001271Y015805D02*
X000614Y015805D01*
X001767Y015171D02*
X001927Y015171D01*
X001927Y015312D02*
X002422Y015312D01*
X002468Y015300D01*
X002509Y015276D01*
X002543Y015242D01*
X002566Y015201D01*
X002579Y015155D01*
X002579Y014818D01*
X001927Y014818D01*
X001927Y015312D01*
X001927Y015012D02*
X001767Y015012D01*
X001767Y014854D02*
X001927Y014854D01*
X002579Y014854D02*
X002962Y014854D01*
X002816Y015012D02*
X002579Y015012D01*
X002574Y015171D02*
X002751Y015171D01*
X002530Y016597D02*
X003032Y016597D01*
X002840Y016756D02*
X002517Y016756D01*
X002451Y016914D02*
X002766Y016914D01*
X002745Y017073D02*
X002365Y017073D01*
X002206Y017231D02*
X002768Y017231D01*
X002845Y017390D02*
X001886Y017390D01*
X002161Y017276D02*
X002161Y017276D01*
X008524Y017390D02*
X008587Y017390D01*
D49*
X014305Y013805D03*
X015805Y011180D03*
X016650Y009130D03*
X018180Y008305D03*
X020370Y008890D03*
X022430Y009305D03*
X020990Y010410D03*
X021680Y010680D03*
X025555Y010430D03*
X026555Y008930D03*
X030260Y009300D03*
X034555Y007805D03*
X034930Y006680D03*
X034305Y006055D03*
X029805Y003680D03*
X027180Y003680D03*
X026090Y003750D03*
X026770Y002650D03*
X023490Y002570D03*
X022275Y004160D03*
X020305Y004055D03*
X019055Y004180D03*
X018030Y003510D03*
X017055Y004555D03*
X016700Y005280D03*
X014710Y005450D03*
X013555Y004305D03*
X012055Y004555D03*
X011730Y007090D03*
X012805Y007680D03*
X014055Y007430D03*
X014900Y007990D03*
X013555Y008555D03*
X012370Y008650D03*
X011250Y009060D03*
X010230Y011010D03*
X015130Y007020D03*
X021805Y005805D03*
X023670Y006470D03*
X024850Y005230D03*
X027055Y004805D03*
X027930Y005555D03*
X037305Y015555D03*
M02*
