%
M48
M72
T01C0.0120
T02C0.0315
T03C0.0320
T04C0.0354
T05C0.0360
T06C0.0400
T07C0.0433
T08C0.0472
T09C0.0630
T10C0.0730
T11C0.0900
T12C0.1180
T13C0.1300
%
T01
X9330Y2880
X17580Y2830
X18230Y3330
X20680Y4130
X22280Y4130
X23130Y4980
X22280Y5130
X23580Y5880
X24430Y6480
X25730Y6380
X26330Y6080
X26530Y6730
X27930Y6280
X28080Y5880
X27480Y5180
X28230Y4930
X26380Y5130
X25430Y4330
X25580Y3480
X25580Y2680
X28530Y2830
X32480Y880
X35530Y1380
X36380Y1030
X35630Y2080
X34280Y2630
X34930Y3380
X34630Y4080
X34030Y4680
X32480Y5230
X31580Y5780
X30280Y5280
X29880Y6080
X29080Y6880
X27880Y8030
X27130Y8580
X26530Y8630
X25580Y8030
X25080Y8130
X24780Y7630
X24480Y7330
X25580Y7630
X25380Y8730
X26030Y9530
X26130Y10130
X26780Y10180
X27330Y10880
X27830Y10780
X29030Y10330
X27030Y11780
X27880Y12180
X28330Y12030
X28630Y12530
X27030Y12380
X25830Y11930
X25730Y11230
X23830Y9980
X22080Y9930
X21580Y10130
X21230Y10380
X20580Y11030
X20580Y11430
X19830Y11380
X19230Y11380
X17180Y11230
X17880Y10380
X18280Y10380
X17480Y9980
X17980Y8730
X17430Y8180
X16080Y8180
X14380Y7630
X17380Y6880
X18230Y7280
X18830Y7480
X18830Y7880
X19230Y8080
X20330Y7330
X21130Y7030
X21480Y7380
X21780Y7030
X22280Y7030
X22280Y6430
X20930Y5880
X20430Y4980
X19080Y5730
X20230Y6830
X18830Y6980
X21530Y8080
X21980Y7680
X22880Y8580
X23280Y8580
X21630Y8980
X19080Y12780
X18880Y13480
X18580Y14680
X13730Y13980
X12530Y13630
X12030Y12230
X12030Y11830
X9730Y13230
X12980Y15130
X17530Y17080
X24230Y13680
X26530Y13630
X27630Y15280
X25780Y15580
X32930Y12680
X34980Y13330
X35630Y13980
X32930Y11630
X31930Y8830
X31430Y8530
X32380Y8380
X31880Y7780
X34180Y6480
X34780Y7130
X35330Y8930
X21480Y2830
X23430Y980
X10130Y9080
X11980Y9980
X4880Y9330
T02
X38630Y10536
X38630Y11324
T03
X23880Y12030
X21980Y12030
X17430Y9030
X16430Y9030
X15430Y9030
X14430Y9030
X13430Y9030
X12430Y9030
X12430Y5030
X13430Y5030
X14430Y5030
X15430Y5030
X16430Y5030
X17430Y5030
X11630Y15980
X11630Y16980
T04
X9680Y17030
X8680Y17030
X7680Y17030
X7680Y16030
X8680Y16030
X9680Y16030
T05
X34900Y5922
X35680Y5922
X35680Y4938
X34900Y4938
T06
X6360Y15190
X3800Y15190
X3800Y16970
X6360Y16970
X5810Y3570
X3250Y3570
X3250Y1790
X5810Y1790
T07
X9603Y13897
T08
X14030Y16380
X15408Y16380
X16786Y16380
X18164Y16380
X19542Y16380
X20920Y16380
X22298Y16380
X23676Y16380
X25054Y16380
X26432Y16380
X26521Y1930
X27899Y1930
X29277Y1930
X30655Y1930
X32033Y1930
X33411Y1930
X25143Y1930
X23765Y1930
X22387Y1930
X21010Y1930
X19632Y1930
X18254Y1930
X16876Y1930
X15498Y1930
X14120Y1930
X12742Y1930
X11364Y1930
X9986Y1930
X8608Y1930
X7230Y1930
T09
X9603Y5590
T10
X30830Y15430
X36030Y15430
T11
X36750Y7800
X36750Y3060
T12
X37143Y10505
X34781Y10505
X35962Y12355
T13
X1680Y1680
X1680Y16555
X38180Y16555
X38180Y1680
M30
