G75*
%MOIN*%
%OFA0B0*%
%FSLAX24Y24*%
%IPPOS*%
%LPD*%
%AMOC8*
5,1,8,0,0,1.08239X$1,22.5*
%
%ADD10R,0.0394X0.0433*%
%ADD11R,0.0315X0.0472*%
%ADD12R,0.0433X0.0394*%
%ADD13R,0.0260X0.0800*%
%ADD14R,0.0472X0.0217*%
%ADD15R,0.1102X0.0787*%
%ADD16R,0.1575X0.0276*%
%ADD17R,0.1575X0.0472*%
%ADD18R,0.1560X0.1560*%
%ADD19R,0.0236X0.0866*%
%ADD20R,0.0220X0.0500*%
%ADD21R,0.0500X0.0220*%
%ADD22R,0.0394X0.0551*%
%ADD23R,0.0480X0.0245*%
%ADD24R,0.0160X0.0320*%
%ADD25R,0.0630X0.0551*%
%ADD26R,0.0315X0.0315*%
%ADD27R,0.0276X0.0276*%
%ADD28R,0.0551X0.0394*%
%ADD29R,0.0137X0.0550*%
D10*
X002846Y000745D03*
X003846Y000745D03*
X003846Y001415D03*
X002846Y001415D03*
X019221Y010370D03*
X019221Y011040D03*
X019221Y011620D03*
X019221Y012290D03*
X017931Y012955D03*
X017261Y012955D03*
X026886Y010955D03*
X027556Y010955D03*
X027556Y010205D03*
X026886Y010205D03*
X037096Y012870D03*
X037921Y012870D03*
X037921Y013540D03*
X037096Y013540D03*
X038471Y014245D03*
X038471Y014915D03*
D11*
X005450Y001455D03*
X004742Y001455D03*
D12*
X004761Y000705D03*
X005431Y000705D03*
X023971Y005870D03*
X023971Y006540D03*
X023971Y007120D03*
X023971Y007790D03*
X023971Y008370D03*
X023971Y009040D03*
X032422Y008660D03*
X033091Y008660D03*
X033843Y008330D03*
X033843Y008999D03*
X029702Y013421D03*
X029702Y014090D03*
X036221Y016245D03*
X036221Y016915D03*
X011471Y015290D03*
X011471Y014620D03*
X034471Y002415D03*
X035221Y002415D03*
X035221Y001745D03*
X034471Y001745D03*
X034471Y001165D03*
X035221Y001165D03*
X035221Y000495D03*
X034471Y000495D03*
D13*
X015471Y009620D03*
X014971Y009620D03*
X014471Y009620D03*
X013971Y009620D03*
X013471Y009620D03*
X012971Y009620D03*
X012471Y009620D03*
X011971Y009620D03*
X011971Y012040D03*
X012471Y012040D03*
X012971Y012040D03*
X013471Y012040D03*
X013971Y012040D03*
X014471Y012040D03*
X014971Y012040D03*
X015471Y012040D03*
D14*
X005608Y003204D03*
X004584Y003204D03*
X004584Y002830D03*
X004584Y002456D03*
X005608Y002456D03*
X003608Y002456D03*
X002584Y002456D03*
X002584Y002830D03*
X002584Y003204D03*
X003608Y003204D03*
D15*
X001513Y003529D03*
X009742Y004474D03*
X001513Y014513D03*
X009702Y014552D03*
D16*
X010450Y013883D03*
X010450Y013411D03*
X010450Y012899D03*
D17*
X010450Y012269D03*
X010450Y011285D03*
X010450Y010300D03*
X010450Y009316D03*
X010450Y008332D03*
X010450Y007348D03*
X010450Y006363D03*
X010450Y005379D03*
D18*
X032721Y015205D03*
D19*
X028471Y009141D03*
X027971Y009141D03*
X027471Y009141D03*
X026971Y009141D03*
X026471Y009141D03*
X025971Y009141D03*
X025471Y009141D03*
X024971Y009141D03*
X024971Y005519D03*
X025471Y005519D03*
X025971Y005519D03*
X026471Y005519D03*
X026971Y005519D03*
X027471Y005519D03*
X027971Y005519D03*
X028471Y005519D03*
D20*
X015198Y005015D03*
X014883Y005015D03*
X014569Y005015D03*
X014254Y005015D03*
X013939Y005015D03*
X013624Y005015D03*
X013309Y005015D03*
X012994Y005015D03*
X012994Y008395D03*
X013309Y008395D03*
X013624Y008395D03*
X013939Y008395D03*
X014254Y008395D03*
X014569Y008395D03*
X014883Y008395D03*
X015198Y008395D03*
D21*
X015786Y007807D03*
X015786Y007492D03*
X015786Y007177D03*
X015786Y006862D03*
X015786Y006548D03*
X015786Y006233D03*
X015786Y005918D03*
X015786Y005603D03*
X012406Y005603D03*
X012406Y005918D03*
X012406Y006233D03*
X012406Y006548D03*
X012406Y006862D03*
X012406Y007177D03*
X012406Y007492D03*
X012406Y007807D03*
D22*
X031404Y012220D03*
X032152Y012220D03*
X031778Y011354D03*
X033217Y011450D03*
X033965Y011450D03*
X033591Y012316D03*
D23*
X036305Y014257D03*
X036305Y014631D03*
X036305Y015005D03*
X037336Y015005D03*
X037336Y014631D03*
X037336Y014257D03*
D24*
X017832Y008320D03*
X017517Y008320D03*
X017202Y008320D03*
X016887Y008320D03*
X016887Y007611D03*
X017202Y007611D03*
X017517Y007611D03*
X017832Y007611D03*
X017844Y006086D03*
X017529Y006086D03*
X017214Y006086D03*
X016899Y006086D03*
X016899Y005377D03*
X017214Y005377D03*
X017529Y005377D03*
X017844Y005377D03*
D25*
X029870Y011301D03*
X029870Y012404D03*
D26*
X035974Y001491D03*
X036541Y001491D03*
X036541Y000901D03*
X035974Y000901D03*
D27*
X030903Y009475D03*
X031631Y009731D03*
X030903Y009986D03*
X028958Y010202D03*
X028446Y010202D03*
X028702Y010930D03*
X024250Y009644D03*
X023738Y009644D03*
X023994Y010372D03*
D28*
X025192Y010264D03*
X026058Y010638D03*
X025192Y011012D03*
D29*
X029808Y007894D03*
X030064Y007894D03*
X030319Y007894D03*
X030575Y007894D03*
X030831Y007894D03*
X031087Y007894D03*
X031343Y007894D03*
X031599Y007894D03*
X031855Y007894D03*
X032111Y007894D03*
X032367Y007894D03*
X032623Y007894D03*
X032879Y007894D03*
X033134Y007894D03*
X033134Y005016D03*
X032879Y005016D03*
X032623Y005016D03*
X032367Y005016D03*
X032111Y005016D03*
X031855Y005016D03*
X031599Y005016D03*
X031343Y005016D03*
X031087Y005016D03*
X030831Y005016D03*
X030575Y005016D03*
X030319Y005016D03*
X030064Y005016D03*
X029808Y005016D03*
M02*
