%
M48
M72
T01C0.0200
T02C0.0276
T03C0.0320
T04C0.0354
T05C0.0400
T06C0.0433
T07C0.0472
T08C0.0630
T09C0.0730
T10C0.1260
T11C0.1300
T12C0.1457
%
T01
X13496Y6845
X20049Y6404
X15308Y12821
X14105Y14915
X14750Y16306
T02
X3601Y1351
X5226Y1351
X5226Y2351
X3601Y2351
X19851Y12601
X20851Y12601
X21976Y12601
X22976Y12601
X9226Y15851
X7726Y15101
X6726Y15101
X6726Y16726
X7726Y16726
X9226Y16851
T03
X17851Y15551
X17851Y13651
X20351Y13601
X22351Y13601
X24226Y12601
X26226Y12601
X27226Y12601
X29226Y12601
X27976Y11101
X26101Y11101
X25101Y11101
X24101Y11101
X23101Y11101
X22101Y11101
X21101Y11101
X20101Y11101
X19101Y11101
X18101Y11101
X17101Y11101
X16101Y11101
X15101Y11101
X14101Y11101
X13101Y11101
X13101Y8101
X14101Y8101
X15101Y8101
X16101Y8101
X17101Y8101
X18101Y8101
X19101Y8101
X20101Y8101
X21101Y8101
X22101Y8101
X23101Y8101
X24101Y8101
X25101Y8101
X26101Y8101
X24351Y6601
X25601Y6351
X26601Y6351
X27976Y6101
X23726Y5226
X22351Y6601
X21226Y6601
X19726Y5226
X17226Y6601
X16101Y6601
X12101Y6601
T04
X20476Y15226
X21476Y15226
X22476Y15226
X22476Y16226
X21476Y16226
X20476Y16226
T05
X36601Y16296
X36601Y15156
X37304Y8881
X37304Y7881
X37304Y6881
X37304Y5881
X37304Y4881
X37304Y3881
T06
X25504Y15198
X25504Y16576
X9274Y13543
T07
X9166Y1601
X10544Y1601
X11921Y1601
X13299Y1601
X14677Y1601
X16055Y1601
X17433Y1601
X18811Y1601
X20601Y1601
X21979Y1601
X23357Y1601
X24735Y1601
X26113Y1601
X27491Y1601
X28869Y1601
X30246Y1601
X32101Y1601
X33479Y1601
X34857Y1601
X36235Y1601
T08
X9274Y5236
T09
X29501Y14976
X34701Y14976
T10
X38614Y11976
T11
X38976Y15976
X38976Y1601
X1601Y1601
X1601Y15976
T12
X36251Y11976
M30
