G75*
%MOIN*%
%OFA0B0*%
%FSLAX24Y24*%
%IPPOS*%
%LPD*%
%AMOC8*
5,1,8,0,0,1.08239X$1,22.5*
%
%ADD10R,0.0433X0.0394*%
%ADD11R,0.0315X0.0472*%
%ADD12R,0.0260X0.0800*%
%ADD13R,0.1102X0.0787*%
%ADD14R,0.1575X0.0276*%
%ADD15R,0.1575X0.0472*%
%ADD16R,0.1560X0.1560*%
%ADD17R,0.0394X0.0433*%
%ADD18R,0.0394X0.0551*%
%ADD19R,0.0480X0.0245*%
%ADD20R,0.0160X0.0320*%
%ADD21R,0.0551X0.0630*%
%ADD22R,0.0315X0.0315*%
%ADD23R,0.0276X0.0276*%
%ADD24R,0.0256X0.0197*%
%ADD25R,0.0140X0.0240*%
%ADD26R,0.0630X0.0390*%
%ADD27R,0.0210X0.0780*%
%ADD28R,0.0098X0.0394*%
%ADD29R,0.0394X0.0098*%
%ADD30R,0.0787X0.0787*%
%ADD31R,0.0630X0.0551*%
%ADD32R,0.0320X0.0120*%
%ADD33R,0.0120X0.0320*%
%ADD34R,0.1280X0.1280*%
%ADD35R,0.0079X0.0157*%
%ADD36R,0.0157X0.0079*%
D10*
X021995Y010480D03*
X022665Y010480D03*
X023195Y010480D03*
X023865Y010480D03*
X026035Y010630D03*
X026704Y010630D03*
X027695Y010080D03*
X028365Y010080D03*
X028015Y011334D03*
X027345Y011334D03*
X029998Y012059D03*
X030787Y012059D03*
X030787Y012728D03*
X029998Y012728D03*
X029499Y013855D03*
X028829Y013855D03*
X026868Y012830D03*
X026199Y012830D03*
X032345Y010430D03*
X033015Y010430D03*
X037745Y013030D03*
X038415Y013030D03*
X036780Y013645D03*
X036780Y014315D03*
X033665Y006830D03*
X032995Y006830D03*
X032995Y005230D03*
X033665Y005230D03*
X026315Y005630D03*
X025645Y005630D03*
X017565Y012130D03*
X016895Y012130D03*
D11*
X017576Y010930D03*
X018284Y010930D03*
D12*
X015880Y010520D03*
X015380Y010520D03*
X014880Y010520D03*
X014380Y010520D03*
X013880Y010520D03*
X013380Y010520D03*
X012880Y010520D03*
X012380Y010520D03*
X012380Y012940D03*
X012880Y012940D03*
X013380Y012940D03*
X013880Y012940D03*
X014380Y012940D03*
X014880Y012940D03*
X015380Y012940D03*
X015880Y012940D03*
D13*
X001847Y003779D03*
X010076Y004724D03*
X001847Y014763D03*
X010036Y014802D03*
D14*
X010784Y014133D03*
X010784Y013661D03*
X010784Y013149D03*
D15*
X010784Y012519D03*
X010784Y011535D03*
X010784Y010550D03*
X010784Y009566D03*
X010784Y008582D03*
X010784Y007598D03*
X010784Y006613D03*
X010784Y005629D03*
D16*
X033430Y015430D03*
D17*
X027876Y014605D03*
X027876Y013936D03*
X027882Y013306D03*
X027882Y012637D03*
X032995Y007630D03*
X033665Y007630D03*
X033665Y006030D03*
X032995Y006030D03*
X029530Y006745D03*
X029530Y007415D03*
X027480Y006365D03*
X027480Y005695D03*
X025015Y005630D03*
X024345Y005630D03*
X023130Y005645D03*
X023130Y006315D03*
X012065Y014930D03*
X011395Y014930D03*
D18*
X019206Y011897D03*
X019954Y011897D03*
X019580Y012763D03*
X029863Y011327D03*
X030611Y011327D03*
X032030Y011297D03*
X033430Y011297D03*
X033056Y012163D03*
X033804Y012163D03*
X032404Y012163D03*
X031656Y012163D03*
X030237Y010461D03*
D19*
X037664Y014006D03*
X037664Y014380D03*
X037664Y014754D03*
X038696Y014754D03*
X038696Y014380D03*
X038696Y014006D03*
D20*
X016402Y007384D03*
X016087Y007384D03*
X015773Y007384D03*
X015458Y007384D03*
X015458Y006676D03*
X015773Y006676D03*
X016087Y006676D03*
X016402Y006676D03*
X013402Y006676D03*
X013087Y006676D03*
X012773Y006676D03*
X012458Y006676D03*
X012458Y007384D03*
X012773Y007384D03*
X013087Y007384D03*
X013402Y007384D03*
D21*
X032479Y009030D03*
X033581Y009030D03*
D22*
X036030Y001925D03*
X036730Y001925D03*
X036730Y001335D03*
X036030Y001335D03*
D23*
X029930Y004966D03*
X028730Y004966D03*
X028474Y005694D03*
X028986Y005694D03*
X029674Y005694D03*
X030186Y005694D03*
D24*
X034634Y002352D03*
X034634Y002037D03*
X035126Y002037D03*
X035126Y002352D03*
X035126Y001723D03*
X034634Y001723D03*
X034634Y001408D03*
X035126Y001408D03*
X019976Y005408D03*
X019976Y005723D03*
X019976Y006037D03*
X019976Y006352D03*
X019484Y006352D03*
X019484Y006037D03*
X019484Y005723D03*
X019484Y005408D03*
D25*
X026173Y011320D03*
X026433Y011320D03*
X026693Y011320D03*
X026693Y012140D03*
X026433Y012140D03*
X026173Y012140D03*
D26*
X026433Y011730D03*
D27*
X024130Y009350D03*
X023630Y009350D03*
X023130Y009350D03*
X022630Y009350D03*
X026880Y009200D03*
X027380Y009200D03*
X027880Y009200D03*
X028380Y009200D03*
X024130Y007410D03*
X023630Y007410D03*
X023130Y007410D03*
X022630Y007410D03*
X026880Y007260D03*
X027380Y007260D03*
X027880Y007260D03*
X028380Y007260D03*
D28*
X030799Y007855D03*
X030996Y007855D03*
X031193Y007855D03*
X031389Y007855D03*
X031586Y007855D03*
X031586Y006280D03*
X031389Y006280D03*
X031193Y006280D03*
X030996Y006280D03*
X030799Y006280D03*
D29*
X030405Y006674D03*
X030405Y006871D03*
X030405Y007067D03*
X030405Y007264D03*
X030405Y007461D03*
X031980Y007461D03*
X031980Y007264D03*
X031980Y007067D03*
X031980Y006871D03*
X031980Y006674D03*
D30*
X031193Y007067D03*
D31*
X021680Y006231D03*
X021680Y005129D03*
D32*
X021200Y008390D03*
X021200Y008590D03*
X021200Y008780D03*
X021200Y008980D03*
X021200Y009180D03*
X021200Y009380D03*
X021200Y009570D03*
X021200Y009770D03*
X019260Y009770D03*
X019260Y009570D03*
X019260Y009380D03*
X019260Y009180D03*
X019260Y008980D03*
X019260Y008780D03*
X019260Y008590D03*
X019260Y008390D03*
D33*
X019540Y008110D03*
X019740Y008110D03*
X019930Y008110D03*
X020130Y008110D03*
X020330Y008110D03*
X020530Y008110D03*
X020720Y008110D03*
X020920Y008110D03*
X020920Y010050D03*
X020720Y010050D03*
X020530Y010050D03*
X020330Y010050D03*
X020130Y010050D03*
X019930Y010050D03*
X019740Y010050D03*
X019540Y010050D03*
D34*
X020230Y009080D03*
D35*
X028833Y012810D03*
X028833Y013203D03*
D36*
X029030Y013105D03*
X029030Y012908D03*
X028636Y012908D03*
X028636Y013105D03*
M02*
