G75*
%MOIN*%
%OFA0B0*%
%FSLAX24Y24*%
%IPPOS*%
%LPD*%
%AMOC8*
5,1,8,0,0,1.08239X$1,22.5*
%
%ADD10C,0.0640*%
%ADD11C,0.0513*%
%ADD12C,0.0710*%
%ADD13R,0.1175X0.1175*%
%ADD14C,0.1380*%
%ADD15OC8,0.0640*%
%ADD16C,0.0720*%
%ADD17C,0.0820*%
%ADD18C,0.1780*%
%ADD19C,0.0740*%
%ADD20R,0.0880X0.0880*%
%ADD21C,0.0880*%
D10*
X021980Y012030D03*
X023880Y012030D03*
X038630Y011324D03*
X038630Y010536D03*
D11*
X009603Y013897D03*
D12*
X009603Y005590D03*
D13*
X030830Y015430D03*
X036030Y015430D03*
D14*
X001680Y001680D03*
X001680Y016555D03*
X036750Y007800D03*
X036750Y003060D03*
X038180Y001680D03*
X038180Y016555D03*
D15*
X017430Y009030D03*
X016430Y009030D03*
X015430Y009030D03*
X014430Y009030D03*
X013430Y009030D03*
X012430Y009030D03*
X012430Y005030D03*
X013430Y005030D03*
X014430Y005030D03*
X015430Y005030D03*
X016430Y005030D03*
X017430Y005030D03*
D16*
X009680Y016030D03*
X008680Y016030D03*
X007680Y016030D03*
X007680Y017030D03*
X008680Y017030D03*
X009680Y017030D03*
D17*
X011630Y016980D03*
X011630Y015980D03*
X006360Y015190D03*
X003800Y015190D03*
X003800Y016970D03*
X006360Y016970D03*
X005810Y003570D03*
X003250Y003570D03*
X003250Y001790D03*
X005810Y001790D03*
D18*
X034781Y010505D03*
X037143Y010505D03*
X035962Y012355D03*
D19*
X035680Y005922D03*
X034900Y005922D03*
X034900Y004938D03*
X035680Y004938D03*
D20*
X021010Y001930D03*
X007230Y001930D03*
X014030Y016380D03*
D21*
X015408Y016380D03*
X016786Y016380D03*
X018164Y016380D03*
X019542Y016380D03*
X020920Y016380D03*
X022298Y016380D03*
X023676Y016380D03*
X025054Y016380D03*
X026432Y016380D03*
X026521Y001930D03*
X027899Y001930D03*
X029277Y001930D03*
X030655Y001930D03*
X032033Y001930D03*
X033411Y001930D03*
X025143Y001930D03*
X023765Y001930D03*
X022387Y001930D03*
X019632Y001930D03*
X018254Y001930D03*
X016876Y001930D03*
X015498Y001930D03*
X014120Y001930D03*
X012742Y001930D03*
X011364Y001930D03*
X009986Y001930D03*
X008608Y001930D03*
M02*
