G75*
G70*
%OFA0B0*%
%FSLAX24Y24*%
%IPPOS*%
%LPD*%
%AMOC8*
5,1,8,0,0,1.08239X$1,22.5*
%
%ADD10C,0.0040*%
%ADD11C,0.0160*%
%ADD12C,0.0030*%
%ADD13C,0.0060*%
%ADD14C,0.0020*%
%ADD15C,0.0070*%
%ADD16C,0.0080*%
%ADD17R,0.0240X0.0340*%
%ADD18C,0.0240*%
%ADD19C,0.0050*%
%ADD20C,0.0010*%
%ADD21R,0.0340X0.0240*%
%ADD22C,0.0100*%
%ADD23C,0.0083*%
%ADD24C,0.0079*%
D10*
X008794Y003174D02*
X008794Y003481D01*
X008947Y003634D01*
X009101Y003481D01*
X009101Y003174D01*
X009254Y003251D02*
X009561Y003558D01*
X009561Y003251D01*
X009485Y003174D01*
X009331Y003174D01*
X009254Y003251D01*
X009254Y003558D01*
X009331Y003634D01*
X009485Y003634D01*
X009561Y003558D01*
X010000Y003558D02*
X010076Y003634D01*
X010230Y003634D01*
X010307Y003558D01*
X010307Y003481D01*
X010230Y003404D01*
X010307Y003327D01*
X010307Y003251D01*
X010230Y003174D01*
X010076Y003174D01*
X010000Y003251D01*
X010153Y003404D02*
X010230Y003404D01*
X010460Y003327D02*
X010614Y003174D01*
X010767Y003327D01*
X010767Y003634D01*
X010920Y003558D02*
X010997Y003634D01*
X011151Y003634D01*
X011227Y003558D01*
X011227Y003481D01*
X011151Y003404D01*
X011227Y003327D01*
X011227Y003251D01*
X011151Y003174D01*
X010997Y003174D01*
X010920Y003251D01*
X011074Y003404D02*
X011151Y003404D01*
X010460Y003327D02*
X010460Y003634D01*
X011739Y003528D02*
X012045Y003528D01*
X012199Y003375D01*
X012045Y003221D01*
X011739Y003221D01*
X011815Y003682D02*
X012122Y003682D01*
X012199Y003758D01*
X012199Y003912D01*
X012122Y003988D01*
X012122Y004142D02*
X011815Y004142D01*
X011739Y004219D01*
X011739Y004372D01*
X011815Y004449D01*
X012122Y004449D02*
X012199Y004372D01*
X012199Y004219D01*
X012122Y004142D01*
X011815Y003988D02*
X011739Y003912D01*
X011739Y003758D01*
X011815Y003682D01*
X013116Y003835D02*
X013270Y003682D01*
X013270Y003528D02*
X013577Y003528D01*
X013577Y003682D02*
X013577Y003988D01*
X013577Y003835D02*
X013116Y003835D01*
X013270Y003528D02*
X013116Y003375D01*
X013270Y003221D01*
X013577Y003221D01*
X013347Y003221D02*
X013347Y003528D01*
X014494Y003451D02*
X014494Y003298D01*
X014571Y003221D01*
X014878Y003221D01*
X014955Y003298D01*
X014955Y003451D01*
X014878Y003528D01*
X014725Y003528D01*
X014725Y003375D01*
X014571Y003528D02*
X014494Y003451D01*
X014494Y003682D02*
X014955Y003988D01*
X014494Y003988D01*
X014494Y004142D02*
X014494Y004372D01*
X014571Y004449D01*
X014878Y004449D01*
X014955Y004372D01*
X014955Y004142D01*
X014494Y004142D01*
X014494Y003682D02*
X014955Y003682D01*
X015872Y003682D02*
X016179Y003682D01*
X016333Y003835D01*
X016179Y003988D01*
X015872Y003988D01*
X015949Y004142D02*
X015872Y004219D01*
X015872Y004372D01*
X015949Y004449D01*
X016026Y004449D01*
X016103Y004372D01*
X016179Y004449D01*
X016256Y004449D01*
X016333Y004372D01*
X016333Y004219D01*
X016256Y004142D01*
X016103Y004295D02*
X016103Y004372D01*
X017250Y004449D02*
X017711Y004142D01*
X017634Y003988D02*
X017711Y003912D01*
X017711Y003758D01*
X017634Y003682D01*
X017634Y003528D02*
X017327Y003528D01*
X017250Y003451D01*
X017250Y003221D01*
X017711Y003221D01*
X017711Y003451D01*
X017634Y003528D01*
X017327Y003682D02*
X017250Y003758D01*
X017250Y003912D01*
X017327Y003988D01*
X017404Y003988D01*
X017481Y003912D01*
X017557Y003988D01*
X017634Y003988D01*
X017481Y003912D02*
X017481Y003835D01*
X018628Y003682D02*
X019089Y003988D01*
X018628Y003988D01*
X018628Y004142D02*
X018628Y004372D01*
X018705Y004449D01*
X019012Y004449D01*
X019089Y004372D01*
X019089Y004142D01*
X018628Y004142D01*
X018628Y003682D02*
X019089Y003682D01*
X019012Y003528D02*
X018859Y003528D01*
X018859Y003375D01*
X019012Y003528D02*
X019089Y003451D01*
X019089Y003298D01*
X019012Y003221D01*
X018705Y003221D01*
X018628Y003298D01*
X018628Y003451D01*
X018705Y003528D01*
X020290Y003375D02*
X020443Y003528D01*
X020750Y003528D01*
X020750Y003682D02*
X020443Y003988D01*
X020366Y003988D01*
X020290Y003912D01*
X020290Y003758D01*
X020366Y003682D01*
X020520Y003528D02*
X020520Y003221D01*
X020443Y003221D02*
X020290Y003375D01*
X020443Y003221D02*
X020750Y003221D01*
X020750Y003682D02*
X020750Y003988D01*
X021840Y003988D02*
X022147Y003988D01*
X022300Y003835D01*
X022147Y003682D01*
X021840Y003682D01*
X021917Y003528D02*
X021993Y003528D01*
X022070Y003451D01*
X022147Y003528D01*
X022224Y003528D01*
X022300Y003451D01*
X022300Y003298D01*
X022224Y003221D01*
X022070Y003375D02*
X022070Y003451D01*
X021917Y003528D02*
X021840Y003451D01*
X021840Y003298D01*
X021917Y003221D01*
X023046Y003375D02*
X023199Y003221D01*
X023506Y003221D01*
X023276Y003221D02*
X023276Y003528D01*
X023199Y003528D02*
X023506Y003528D01*
X023429Y003682D02*
X023506Y003758D01*
X023506Y003912D01*
X023429Y003988D01*
X023353Y003988D01*
X023276Y003912D01*
X023276Y003835D01*
X023276Y003912D02*
X023199Y003988D01*
X023122Y003988D01*
X023046Y003912D01*
X023046Y003758D01*
X023122Y003682D01*
X023199Y003528D02*
X023046Y003375D01*
X022224Y004142D02*
X022300Y004219D01*
X022300Y004372D01*
X022224Y004449D01*
X022147Y004449D01*
X022070Y004372D01*
X022070Y004295D01*
X022070Y004372D02*
X021993Y004449D01*
X021917Y004449D01*
X021840Y004372D01*
X021840Y004219D01*
X021917Y004142D01*
X024596Y004219D02*
X024596Y004372D01*
X024673Y004449D01*
X024749Y004449D01*
X024826Y004372D01*
X024903Y004449D01*
X024979Y004449D01*
X025056Y004372D01*
X025056Y004219D01*
X024979Y004142D01*
X024903Y003988D02*
X024596Y003988D01*
X024673Y004142D02*
X024596Y004219D01*
X024826Y004295D02*
X024826Y004372D01*
X024903Y003988D02*
X025056Y003835D01*
X024903Y003682D01*
X024596Y003682D01*
X024673Y003528D02*
X024749Y003528D01*
X024826Y003451D01*
X024903Y003528D01*
X024979Y003528D01*
X025056Y003451D01*
X025056Y003298D01*
X024979Y003221D01*
X024826Y003375D02*
X024826Y003451D01*
X024673Y003528D02*
X024596Y003451D01*
X024596Y003298D01*
X024673Y003221D01*
X025929Y003221D02*
X025929Y003451D01*
X026006Y003528D01*
X026313Y003528D01*
X026390Y003451D01*
X026390Y003221D01*
X025929Y003221D01*
X025929Y003682D02*
X026160Y003682D01*
X026083Y003835D01*
X026083Y003912D01*
X026160Y003988D01*
X026313Y003988D01*
X026390Y003912D01*
X026390Y003758D01*
X026313Y003682D01*
X025929Y003682D02*
X025929Y003988D01*
X025929Y004449D02*
X026390Y004142D01*
X027304Y003988D02*
X027381Y003835D01*
X027535Y003682D01*
X027535Y003912D01*
X027611Y003988D01*
X027688Y003988D01*
X027765Y003912D01*
X027765Y003758D01*
X027688Y003682D01*
X027535Y003682D01*
X027688Y003528D02*
X027381Y003528D01*
X027304Y003451D01*
X027304Y003221D01*
X027765Y003221D01*
X027765Y003451D01*
X027688Y003528D01*
X028679Y003451D02*
X028679Y003221D01*
X029140Y003221D01*
X029140Y003451D01*
X029063Y003528D01*
X028756Y003528D01*
X028679Y003451D01*
X028679Y003682D02*
X028679Y003988D01*
X028756Y003988D01*
X029063Y003682D01*
X029140Y003682D01*
X029895Y003707D02*
X030355Y004014D01*
X029895Y004014D01*
X029895Y004167D02*
X029895Y004398D01*
X029972Y004474D01*
X030279Y004474D01*
X030355Y004398D01*
X030355Y004167D01*
X029895Y004167D01*
X029895Y003707D02*
X030355Y003707D01*
X030279Y003554D02*
X030355Y003477D01*
X030355Y003323D01*
X030279Y003247D01*
X029972Y003247D01*
X029895Y003323D01*
X029895Y003477D01*
X029972Y003554D01*
X030125Y003554D02*
X030125Y003400D01*
X030125Y003554D02*
X030279Y003554D01*
X031864Y003528D02*
X032170Y003528D01*
X032324Y003375D01*
X032170Y003221D01*
X031864Y003221D01*
X031940Y003682D02*
X032247Y003682D01*
X032324Y003758D01*
X032324Y003912D01*
X032247Y003988D01*
X032247Y004142D02*
X032324Y004219D01*
X032324Y004372D01*
X032247Y004449D01*
X031940Y004449D02*
X031864Y004372D01*
X031864Y004219D01*
X031940Y004142D01*
X032247Y004142D01*
X031940Y003988D02*
X031864Y003912D01*
X031864Y003758D01*
X031940Y003682D01*
X033239Y003758D02*
X033315Y003682D01*
X033622Y003682D01*
X033315Y003988D01*
X033622Y003988D01*
X033699Y003912D01*
X033699Y003758D01*
X033622Y003682D01*
X033622Y003528D02*
X033315Y003528D01*
X033239Y003451D01*
X033239Y003221D01*
X033699Y003221D01*
X033699Y003451D01*
X033622Y003528D01*
X033239Y003758D02*
X033239Y003912D01*
X033315Y003988D01*
X033699Y004142D02*
X033239Y004449D01*
X033239Y004602D02*
X033239Y004832D01*
X033315Y004909D01*
X033469Y004909D01*
X033545Y004832D01*
X033545Y004602D01*
X033545Y004756D02*
X033699Y004909D01*
X033699Y005063D02*
X033239Y005369D01*
X033469Y005523D02*
X033469Y005830D01*
X033699Y005983D02*
X033699Y006137D01*
X033699Y006060D02*
X033239Y006060D01*
X033239Y005983D02*
X033239Y006137D01*
X034739Y006213D02*
X034739Y006060D01*
X034815Y005983D01*
X035122Y005983D01*
X035199Y006060D01*
X035199Y006213D01*
X035122Y006290D01*
X034815Y006290D01*
X034739Y006213D01*
X034969Y005830D02*
X034969Y005523D01*
X035199Y005369D02*
X034739Y005063D01*
X034739Y004909D02*
X034739Y004602D01*
X034739Y004449D02*
X035199Y004142D01*
X035199Y003988D02*
X035199Y003682D01*
X035199Y003835D02*
X034739Y003835D01*
X034892Y003682D01*
X034815Y003528D02*
X034739Y003451D01*
X034739Y003221D01*
X035199Y003221D01*
X035199Y003451D01*
X035122Y003528D01*
X034815Y003528D01*
X035372Y003480D02*
X035372Y003173D01*
X035448Y003096D01*
X035602Y003096D01*
X035679Y003173D01*
X035679Y003326D01*
X035525Y003326D01*
X035372Y003480D02*
X035448Y003557D01*
X035602Y003557D01*
X035679Y003480D01*
X035832Y003557D02*
X036139Y003096D01*
X036139Y003557D01*
X036292Y003557D02*
X036523Y003557D01*
X036599Y003480D01*
X036599Y003173D01*
X036523Y003096D01*
X036292Y003096D01*
X036292Y003557D01*
X035832Y003557D02*
X035832Y003096D01*
X035199Y004756D02*
X034739Y004756D01*
X035199Y005063D02*
X034739Y005369D01*
X033699Y005369D02*
X033239Y005063D01*
X033239Y004602D02*
X033699Y004602D01*
X026390Y004602D02*
X025929Y004602D01*
X026083Y004756D01*
X025929Y004909D01*
X026390Y004909D01*
X026390Y005063D02*
X025929Y005063D01*
X026390Y005063D02*
X026390Y005369D01*
X017711Y005216D02*
X017481Y005216D01*
X017404Y005139D01*
X017404Y004909D01*
X017711Y004909D01*
X017711Y004756D02*
X017711Y004602D01*
X017711Y004679D02*
X017250Y004679D01*
X017250Y004602D02*
X017250Y004756D01*
X016716Y004991D02*
X016486Y004991D01*
X016409Y005068D01*
X016409Y005221D01*
X016486Y005298D01*
X016716Y005298D01*
X016179Y005298D02*
X016179Y004991D01*
X016255Y004991D02*
X016102Y004991D01*
X015949Y004991D02*
X015949Y005221D01*
X015872Y005298D01*
X015642Y005298D01*
X015642Y004991D01*
X015488Y005068D02*
X015488Y005221D01*
X015411Y005298D01*
X015258Y005298D01*
X015181Y005221D01*
X015181Y005068D01*
X015258Y004991D01*
X015411Y004991D01*
X015488Y005068D01*
X015028Y005068D02*
X014951Y005144D01*
X014798Y005144D01*
X014721Y005221D01*
X014798Y005298D01*
X015028Y005298D01*
X014568Y005221D02*
X014568Y004991D01*
X014337Y004991D01*
X014261Y005068D01*
X014337Y005144D01*
X014568Y005144D01*
X014568Y005221D02*
X014491Y005298D01*
X014337Y005298D01*
X014107Y005298D02*
X014030Y005298D01*
X013877Y005144D01*
X013877Y004991D02*
X013877Y005298D01*
X013724Y005298D02*
X013570Y005298D01*
X013647Y005374D02*
X013647Y005068D01*
X013724Y004991D01*
X013417Y004991D02*
X013263Y004991D01*
X013340Y004991D02*
X013340Y005451D01*
X013263Y005451D01*
X013110Y005451D02*
X013110Y005068D01*
X013033Y004991D01*
X012880Y004991D01*
X012803Y005068D01*
X012803Y005451D01*
X014721Y004991D02*
X014951Y004991D01*
X015028Y005068D01*
X016102Y005298D02*
X016179Y005298D01*
X016179Y005451D02*
X016179Y005528D01*
X017250Y005830D02*
X017711Y005830D01*
X017711Y005983D02*
X017711Y005676D01*
X017711Y005523D02*
X017634Y005446D01*
X017327Y005446D01*
X017404Y005369D02*
X017404Y005523D01*
X017404Y005676D02*
X017250Y005830D01*
X011956Y007246D02*
X011956Y007476D01*
X011879Y007553D01*
X011802Y007553D01*
X011726Y007476D01*
X011726Y007246D01*
X011956Y007246D02*
X011495Y007246D01*
X011495Y007476D01*
X011572Y007553D01*
X011649Y007553D01*
X011726Y007476D01*
X011726Y007706D02*
X011879Y007706D01*
X011956Y007783D01*
X011956Y007936D01*
X011879Y008013D01*
X011726Y008013D01*
X011649Y007936D01*
X011649Y007783D01*
X011726Y007706D01*
X011649Y008166D02*
X011649Y008320D01*
X011572Y008243D02*
X011879Y008243D01*
X011956Y008320D01*
X011879Y008550D02*
X011572Y008550D01*
X011649Y008473D02*
X011649Y008627D01*
X011495Y008780D02*
X011495Y008857D01*
X011956Y008857D01*
X011956Y008780D02*
X011956Y008934D01*
X011879Y009087D02*
X011726Y009087D01*
X011649Y009164D01*
X011649Y009317D01*
X011726Y009394D01*
X011802Y009394D01*
X011802Y009087D01*
X011879Y009087D02*
X011956Y009164D01*
X011956Y009317D01*
X011956Y008627D02*
X011879Y008550D01*
X011956Y010008D02*
X011495Y010008D01*
X011956Y010008D02*
X011956Y010315D01*
X011879Y010468D02*
X011956Y010545D01*
X011956Y010698D01*
X011879Y010775D01*
X011726Y010775D01*
X011649Y010698D01*
X011649Y010545D01*
X011726Y010468D01*
X011879Y010468D01*
X011879Y010929D02*
X011956Y011005D01*
X011956Y011235D01*
X012032Y011235D02*
X011649Y011235D01*
X011649Y011005D01*
X011726Y010929D01*
X011879Y010929D01*
X012109Y011082D02*
X012109Y011159D01*
X012032Y011235D01*
X011879Y011389D02*
X011956Y011466D01*
X011956Y011696D01*
X012032Y011696D02*
X011649Y011696D01*
X011649Y011466D01*
X011726Y011389D01*
X011879Y011389D01*
X012109Y011542D02*
X012109Y011619D01*
X012032Y011696D01*
X011879Y011849D02*
X011726Y011849D01*
X011649Y011926D01*
X011649Y012079D01*
X011726Y012156D01*
X011802Y012156D01*
X011802Y011849D01*
X011879Y011849D02*
X011956Y011926D01*
X011956Y012079D01*
X011956Y012310D02*
X011649Y012310D01*
X011802Y012310D02*
X011649Y012463D01*
X011649Y012540D01*
X011649Y013154D02*
X011956Y013307D01*
X011649Y013461D01*
X011572Y013614D02*
X011495Y013691D01*
X011495Y013844D01*
X011572Y013921D01*
X011879Y013614D01*
X011956Y013691D01*
X011956Y013844D01*
X011879Y013921D01*
X011572Y013921D01*
X011572Y013614D02*
X011879Y013614D01*
X011879Y014074D02*
X011879Y014151D01*
X011956Y014151D01*
X011956Y014074D01*
X011879Y014074D01*
X011879Y014304D02*
X011956Y014381D01*
X011956Y014535D01*
X011879Y014611D01*
X011802Y014611D01*
X011726Y014535D01*
X011726Y014304D01*
X011879Y014304D01*
X011726Y014304D02*
X011572Y014458D01*
X011495Y014611D01*
X011879Y014765D02*
X011879Y014842D01*
X011956Y014842D01*
X011956Y014765D01*
X011879Y014765D01*
X011879Y014995D02*
X011956Y015072D01*
X011956Y015225D01*
X011879Y015302D01*
X011802Y015302D01*
X011726Y015225D01*
X011726Y014995D01*
X011879Y014995D01*
X011726Y014995D02*
X011572Y015148D01*
X011495Y015302D01*
X016221Y015328D02*
X016281Y015388D01*
X016341Y015388D01*
X016401Y015328D01*
X016401Y015208D01*
X016341Y015148D01*
X016281Y015148D01*
X016221Y015208D01*
X016221Y015328D01*
X016401Y015328D02*
X016461Y015388D01*
X016521Y015388D01*
X016581Y015328D01*
X016581Y015208D01*
X016521Y015148D01*
X016461Y015148D01*
X016401Y015208D01*
X016581Y015516D02*
X016221Y015516D01*
X016341Y015636D01*
X016221Y015756D01*
X016581Y015756D01*
X016581Y015884D02*
X016221Y015884D01*
X016401Y015884D02*
X016401Y016124D01*
X016341Y016252D02*
X016341Y016493D01*
X016581Y016252D01*
X016581Y016493D01*
X016581Y016124D02*
X016221Y016124D01*
X019021Y016004D02*
X019141Y016124D01*
X019381Y016124D01*
X019381Y016252D02*
X019021Y016252D01*
X019201Y016124D02*
X019201Y015884D01*
X019141Y015884D02*
X019021Y016004D01*
X019141Y015884D02*
X019381Y015884D01*
X019381Y015636D02*
X019021Y015636D01*
X019021Y015516D02*
X019021Y015756D01*
X019021Y015388D02*
X019381Y015148D01*
X019381Y015388D02*
X019021Y015148D01*
X019381Y016252D02*
X019381Y016493D01*
X021968Y016796D02*
X022122Y016796D01*
X022045Y016796D02*
X022045Y017256D01*
X021968Y017256D02*
X022122Y017256D01*
X022275Y017179D02*
X022275Y017103D01*
X022352Y017026D01*
X022505Y017026D01*
X022582Y016949D01*
X022582Y016872D01*
X022505Y016796D01*
X022352Y016796D01*
X022275Y016872D01*
X022735Y016796D02*
X022735Y017256D01*
X022966Y017256D01*
X023042Y017179D01*
X023042Y017026D01*
X022966Y016949D01*
X022735Y016949D01*
X022582Y017179D02*
X022505Y017256D01*
X022352Y017256D01*
X022275Y017179D01*
X015168Y012931D02*
X014927Y012931D01*
X015048Y012931D02*
X015048Y012571D01*
X014679Y012751D02*
X014559Y012751D01*
X014559Y012571D02*
X014559Y012931D01*
X014799Y012931D01*
X014434Y012931D02*
X014314Y012931D01*
X014374Y012931D02*
X014374Y012571D01*
X014314Y012571D02*
X014434Y012571D01*
X014186Y012571D02*
X014186Y012931D01*
X014186Y012751D02*
X013945Y012751D01*
X013817Y012691D02*
X013757Y012751D01*
X013637Y012751D01*
X013577Y012811D01*
X013577Y012871D01*
X013637Y012931D01*
X013757Y012931D01*
X013817Y012871D01*
X013945Y012931D02*
X013945Y012571D01*
X013817Y012631D02*
X013757Y012571D01*
X013637Y012571D01*
X013577Y012631D01*
X013449Y012571D02*
X013209Y012571D01*
X013209Y012931D01*
X013817Y012691D02*
X013817Y012631D01*
X015949Y003528D02*
X016026Y003528D01*
X016103Y003451D01*
X016179Y003528D01*
X016256Y003528D01*
X016333Y003451D01*
X016333Y003298D01*
X016256Y003221D01*
X016103Y003375D02*
X016103Y003451D01*
X015949Y003528D02*
X015872Y003451D01*
X015872Y003298D01*
X015949Y003221D01*
X009101Y003404D02*
X008794Y003404D01*
D11*
X012516Y003579D02*
X012516Y005785D01*
X016994Y005785D01*
X016994Y003546D01*
X016951Y013451D02*
X016951Y015751D01*
X016953Y015810D01*
X016959Y015868D01*
X016968Y015927D01*
X016982Y015984D01*
X016999Y016040D01*
X017020Y016095D01*
X017044Y016149D01*
X017072Y016201D01*
X017103Y016251D01*
X017137Y016299D01*
X017174Y016344D01*
X017215Y016387D01*
X017258Y016428D01*
X017303Y016465D01*
X017351Y016499D01*
X017401Y016530D01*
X017453Y016558D01*
X017507Y016582D01*
X017562Y016603D01*
X017618Y016620D01*
X017675Y016634D01*
X017734Y016643D01*
X017792Y016649D01*
X017851Y016651D01*
X017910Y016649D01*
X017968Y016643D01*
X018027Y016634D01*
X018084Y016620D01*
X018140Y016603D01*
X018195Y016582D01*
X018249Y016558D01*
X018301Y016530D01*
X018351Y016499D01*
X018399Y016465D01*
X018444Y016428D01*
X018487Y016387D01*
X018528Y016344D01*
X018565Y016299D01*
X018599Y016251D01*
X018630Y016201D01*
X018658Y016149D01*
X018682Y016095D01*
X018703Y016040D01*
X018720Y015984D01*
X018734Y015927D01*
X018743Y015868D01*
X018749Y015810D01*
X018751Y015751D01*
X018751Y013451D01*
X018749Y013392D01*
X018743Y013334D01*
X018734Y013275D01*
X018720Y013218D01*
X018703Y013162D01*
X018682Y013107D01*
X018658Y013053D01*
X018630Y013001D01*
X018599Y012951D01*
X018565Y012903D01*
X018528Y012858D01*
X018487Y012815D01*
X018444Y012774D01*
X018399Y012737D01*
X018351Y012703D01*
X018301Y012672D01*
X018249Y012644D01*
X018195Y012620D01*
X018140Y012599D01*
X018084Y012582D01*
X018027Y012568D01*
X017968Y012559D01*
X017910Y012553D01*
X017851Y012551D01*
X017792Y012553D01*
X017734Y012559D01*
X017675Y012568D01*
X017618Y012582D01*
X017562Y012599D01*
X017507Y012620D01*
X017453Y012644D01*
X017401Y012672D01*
X017351Y012703D01*
X017303Y012737D01*
X017258Y012774D01*
X017215Y012815D01*
X017174Y012858D01*
X017137Y012903D01*
X017103Y012951D01*
X017072Y013001D01*
X017044Y013053D01*
X017020Y013107D01*
X016999Y013162D01*
X016982Y013218D01*
X016968Y013275D01*
X016959Y013334D01*
X016953Y013392D01*
X016951Y013451D01*
D12*
X019690Y014664D02*
X020061Y014664D01*
X020061Y014541D02*
X020061Y014788D01*
X019814Y014541D02*
X019690Y014664D01*
X031116Y009934D02*
X031213Y010031D01*
X031213Y009741D01*
X031309Y009741D02*
X031116Y009741D01*
X032115Y009619D02*
X032486Y009619D01*
X032115Y009372D01*
X032486Y009372D01*
X032424Y009251D02*
X032486Y009189D01*
X032486Y009066D01*
X032424Y009004D01*
X032486Y008883D02*
X032486Y008636D01*
X032486Y008759D02*
X032115Y008759D01*
X032239Y008636D01*
X032239Y008514D02*
X032301Y008453D01*
X032362Y008514D01*
X032424Y008514D01*
X032486Y008453D01*
X032486Y008329D01*
X032424Y008268D01*
X032486Y008146D02*
X032486Y007899D01*
X032239Y008146D01*
X032177Y008146D01*
X032115Y008084D01*
X032115Y007961D01*
X032177Y007899D01*
X032177Y007778D02*
X032239Y007778D01*
X032301Y007716D01*
X032362Y007778D01*
X032424Y007778D01*
X032486Y007716D01*
X032486Y007593D01*
X032424Y007531D01*
X032424Y007409D02*
X032486Y007348D01*
X032486Y007224D01*
X032424Y007163D01*
X032424Y007041D02*
X032177Y007041D01*
X032115Y006979D01*
X032115Y006794D01*
X032486Y006794D01*
X032486Y006979D01*
X032424Y007041D01*
X032301Y007224D02*
X032301Y007348D01*
X032362Y007409D01*
X032424Y007409D01*
X032301Y007224D02*
X032239Y007163D01*
X032177Y007163D01*
X032115Y007224D01*
X032115Y007348D01*
X032177Y007409D01*
X032177Y007531D02*
X032115Y007593D01*
X032115Y007716D01*
X032177Y007778D01*
X032301Y007716D02*
X032301Y007654D01*
X032715Y008116D02*
X032715Y008301D01*
X032777Y008363D01*
X032901Y008363D01*
X032962Y008301D01*
X032962Y008116D01*
X032962Y008239D02*
X033086Y008363D01*
X033086Y008608D02*
X032715Y008608D01*
X032715Y008731D02*
X032715Y008484D01*
X032301Y008453D02*
X032301Y008391D01*
X032239Y008514D02*
X032177Y008514D01*
X032115Y008453D01*
X032115Y008329D01*
X032177Y008268D01*
X032715Y008116D02*
X033086Y008116D01*
X033024Y008852D02*
X033086Y008914D01*
X033086Y009038D01*
X033024Y009099D01*
X033024Y008852D02*
X032777Y008852D01*
X032715Y008914D01*
X032715Y009038D01*
X032777Y009099D01*
X032424Y009251D02*
X032362Y009251D01*
X032301Y009189D01*
X032301Y009066D01*
X032239Y009004D01*
X032177Y009004D01*
X032115Y009066D01*
X032115Y009189D01*
X032177Y009251D01*
X035741Y008983D02*
X035741Y008789D01*
X035789Y008741D01*
X035886Y008741D01*
X035934Y008789D01*
X035934Y008886D01*
X035838Y008886D01*
X035934Y008983D02*
X035886Y009031D01*
X035789Y009031D01*
X035741Y008983D01*
X036035Y009031D02*
X036035Y008741D01*
X036229Y008741D02*
X036229Y009031D01*
X036330Y009031D02*
X036475Y009031D01*
X036524Y008983D01*
X036524Y008789D01*
X036475Y008741D01*
X036330Y008741D01*
X036330Y009031D01*
X036035Y009031D02*
X036229Y008741D01*
X036229Y008031D02*
X036035Y008031D01*
X036132Y008031D02*
X036132Y007741D01*
X035934Y007789D02*
X035886Y007741D01*
X035789Y007741D01*
X035741Y007789D01*
X035741Y007983D01*
X035789Y008031D01*
X035886Y008031D01*
X035934Y007983D01*
X036330Y007983D02*
X036330Y007934D01*
X036378Y007886D01*
X036475Y007886D01*
X036524Y007838D01*
X036524Y007789D01*
X036475Y007741D01*
X036378Y007741D01*
X036330Y007789D01*
X036330Y007983D02*
X036378Y008031D01*
X036475Y008031D01*
X036524Y007983D01*
X036591Y007031D02*
X036397Y007031D01*
X036397Y006886D01*
X036494Y006934D01*
X036542Y006934D01*
X036591Y006886D01*
X036591Y006789D01*
X036542Y006741D01*
X036445Y006741D01*
X036397Y006789D01*
X036296Y006886D02*
X036102Y006886D01*
X036001Y006886D02*
X035953Y006934D01*
X035904Y006934D01*
X035808Y006886D01*
X035808Y007031D01*
X036001Y007031D01*
X036001Y006886D02*
X036001Y006789D01*
X035953Y006741D01*
X035856Y006741D01*
X035808Y006789D01*
X035709Y006789D02*
X035709Y006741D01*
X035660Y006741D01*
X035660Y006789D01*
X035709Y006789D01*
X035559Y006789D02*
X035511Y006741D01*
X035414Y006741D01*
X035366Y006789D01*
X035463Y006886D02*
X035511Y006886D01*
X035559Y006838D01*
X035559Y006789D01*
X035511Y006886D02*
X035559Y006934D01*
X035559Y006983D01*
X035511Y007031D01*
X035414Y007031D01*
X035366Y006983D01*
X036692Y007031D02*
X036692Y006838D01*
X036788Y006741D01*
X036885Y006838D01*
X036885Y007031D01*
X036721Y006031D02*
X036625Y006031D01*
X036673Y006031D02*
X036673Y005741D01*
X036625Y005741D02*
X036721Y005741D01*
X036524Y005886D02*
X036330Y005886D01*
X036229Y006031D02*
X036035Y005741D01*
X035934Y005741D02*
X035838Y005838D01*
X035886Y005838D02*
X035741Y005838D01*
X035741Y005741D02*
X035741Y006031D01*
X035886Y006031D01*
X035934Y005983D01*
X035934Y005886D01*
X035886Y005838D01*
X036035Y006031D02*
X036229Y005741D01*
X036104Y005031D02*
X035910Y004741D01*
X036104Y004741D02*
X035910Y005031D01*
X035809Y005031D02*
X035616Y005031D01*
X035713Y005031D02*
X035713Y004741D01*
X036205Y004886D02*
X036399Y004886D01*
X036500Y004983D02*
X036500Y004789D01*
X036548Y004741D01*
X036645Y004741D01*
X036693Y004789D01*
X036693Y004983D01*
X036645Y005031D01*
X036548Y005031D01*
X036500Y004983D01*
X036455Y004406D02*
X036600Y004406D01*
X036649Y004358D01*
X036649Y004261D01*
X036600Y004213D01*
X036455Y004213D01*
X036552Y004213D02*
X036649Y004116D01*
X036455Y004116D02*
X036455Y004406D01*
X036354Y004406D02*
X036160Y004406D01*
X036257Y004406D02*
X036257Y004116D01*
X036059Y004164D02*
X036059Y004358D01*
X036011Y004406D01*
X035866Y004406D01*
X035866Y004116D01*
X036011Y004116D01*
X036059Y004164D01*
X028183Y007965D02*
X028183Y008158D01*
X028183Y008061D02*
X027893Y008061D01*
X027990Y007965D01*
X027941Y008259D02*
X027893Y008308D01*
X027893Y008404D01*
X027941Y008453D01*
X028135Y008259D01*
X028183Y008308D01*
X028183Y008404D01*
X028135Y008453D01*
X027941Y008453D01*
X027990Y008554D02*
X028135Y008554D01*
X028183Y008602D01*
X028183Y008747D01*
X027990Y008747D01*
X028038Y008849D02*
X028038Y009042D01*
X027893Y009042D02*
X028183Y009042D01*
X028183Y008849D02*
X027893Y008849D01*
X027941Y008259D02*
X028135Y008259D01*
X037296Y013991D02*
X037537Y013991D01*
X037586Y014039D01*
X037586Y014136D01*
X037537Y014184D01*
X037296Y014184D01*
X037296Y014285D02*
X037586Y014479D01*
X037296Y014479D01*
X037296Y014580D02*
X037296Y014725D01*
X037344Y014774D01*
X037441Y014774D01*
X037489Y014725D01*
X037489Y014580D01*
X037586Y014580D02*
X037296Y014580D01*
X037296Y014285D02*
X037586Y014285D01*
X037586Y014875D02*
X037296Y014875D01*
X037586Y014875D02*
X037586Y015068D01*
X037537Y015169D02*
X037586Y015218D01*
X037586Y015314D01*
X037537Y015363D01*
X037296Y015363D01*
X037344Y015464D02*
X037296Y015512D01*
X037296Y015609D01*
X037344Y015657D01*
X037441Y015657D02*
X037441Y015561D01*
X037441Y015657D02*
X037537Y015657D01*
X037586Y015609D01*
X037586Y015512D01*
X037537Y015464D01*
X037344Y015464D01*
X037296Y015169D02*
X037537Y015169D01*
X037586Y016053D02*
X037296Y016053D01*
X037392Y016053D02*
X037392Y016198D01*
X037441Y016247D01*
X037537Y016247D01*
X037586Y016198D01*
X037586Y016053D01*
X037537Y016348D02*
X037489Y016396D01*
X037489Y016541D01*
X037441Y016541D02*
X037586Y016541D01*
X037586Y016396D01*
X037537Y016348D01*
X037392Y016396D02*
X037392Y016493D01*
X037441Y016541D01*
X037392Y016643D02*
X037392Y016739D01*
X037344Y016691D02*
X037537Y016691D01*
X037586Y016739D01*
X037537Y016887D02*
X037586Y016936D01*
X037537Y016887D02*
X037344Y016887D01*
X037392Y016839D02*
X037392Y016936D01*
X037441Y017035D02*
X037392Y017084D01*
X037392Y017229D01*
X037489Y017181D02*
X037489Y017084D01*
X037441Y017035D01*
X037586Y017035D02*
X037586Y017181D01*
X037537Y017229D01*
X037489Y017181D01*
X037441Y017330D02*
X037247Y017330D01*
X037537Y017330D02*
X037586Y017330D01*
X008157Y009261D02*
X008157Y009164D01*
X008109Y009116D01*
X008012Y009116D01*
X007964Y009164D01*
X007964Y009261D01*
X008012Y009309D01*
X008109Y009309D01*
X008157Y009261D01*
X007863Y009309D02*
X007718Y009309D01*
X007669Y009261D01*
X007669Y009164D01*
X007718Y009116D01*
X007863Y009116D01*
X007863Y009406D01*
X007568Y009261D02*
X007568Y009116D01*
X007423Y009116D01*
X007375Y009164D01*
X007423Y009213D01*
X007568Y009213D01*
X007568Y009261D02*
X007520Y009309D01*
X007423Y009309D01*
X007274Y009309D02*
X007226Y009309D01*
X007129Y009213D01*
X007129Y009309D02*
X007129Y009116D01*
X007028Y009164D02*
X007028Y009261D01*
X006980Y009309D01*
X006883Y009309D01*
X006834Y009261D01*
X006834Y009164D01*
X006883Y009116D01*
X006980Y009116D01*
X007028Y009164D01*
X006735Y009116D02*
X006638Y009116D01*
X006686Y009116D02*
X006686Y009406D01*
X006638Y009406D01*
X006537Y009261D02*
X006489Y009309D01*
X006392Y009309D01*
X006343Y009261D01*
X006343Y009164D01*
X006392Y009116D01*
X006489Y009116D01*
X006537Y009164D01*
X006537Y009261D01*
X006242Y009358D02*
X006194Y009406D01*
X006097Y009406D01*
X006049Y009358D01*
X006049Y009164D01*
X006097Y009116D01*
X006194Y009116D01*
X006242Y009164D01*
X005654Y009261D02*
X005558Y009261D01*
X005457Y009261D02*
X005408Y009309D01*
X005311Y009309D01*
X005263Y009261D01*
X005263Y009164D01*
X005311Y009116D01*
X005408Y009116D01*
X005457Y009164D01*
X005457Y009261D01*
X005606Y009358D02*
X005654Y009406D01*
X005606Y009358D02*
X005606Y009116D01*
X004867Y009116D02*
X004722Y009116D01*
X004674Y009164D01*
X004674Y009309D01*
X004574Y009309D02*
X004477Y009309D01*
X004526Y009358D02*
X004526Y009164D01*
X004574Y009116D01*
X004378Y009116D02*
X004281Y009116D01*
X004329Y009116D02*
X004329Y009309D01*
X004281Y009309D01*
X004180Y009309D02*
X004035Y009309D01*
X003986Y009261D01*
X004035Y009213D01*
X004131Y009213D01*
X004180Y009164D01*
X004131Y009116D01*
X003986Y009116D01*
X004035Y008906D02*
X004181Y008906D01*
X004229Y008858D01*
X004229Y008761D01*
X004181Y008713D01*
X004035Y008713D01*
X004132Y008713D02*
X004229Y008616D01*
X004035Y008616D02*
X004035Y008906D01*
X003934Y008809D02*
X003838Y008906D01*
X003741Y008809D01*
X003741Y008616D01*
X003640Y008616D02*
X003640Y008809D01*
X003543Y008906D01*
X003446Y008809D01*
X003446Y008616D01*
X003446Y008761D02*
X003640Y008761D01*
X003741Y008761D02*
X003934Y008761D01*
X003934Y008809D02*
X003934Y008616D01*
X003345Y008906D02*
X003151Y008906D01*
X003248Y008906D02*
X003248Y008616D01*
X003050Y008664D02*
X003002Y008616D01*
X002905Y008616D01*
X002857Y008664D01*
X002905Y008761D02*
X002857Y008809D01*
X002857Y008858D01*
X002905Y008906D01*
X003002Y008906D01*
X003050Y008858D01*
X003002Y008761D02*
X003050Y008713D01*
X003050Y008664D01*
X003002Y008761D02*
X002905Y008761D01*
X002756Y008616D02*
X002756Y008906D01*
X002562Y008906D02*
X002756Y008616D01*
X002562Y008616D02*
X002562Y008906D01*
X002463Y008906D02*
X002366Y008906D01*
X002414Y008906D02*
X002414Y008616D01*
X002366Y008616D02*
X002463Y008616D01*
X002414Y009116D02*
X002511Y009116D01*
X002559Y009164D01*
X002559Y009406D01*
X002660Y009309D02*
X002806Y009309D01*
X002854Y009261D01*
X002854Y009116D01*
X002955Y009116D02*
X003052Y009116D01*
X003003Y009116D02*
X003003Y009309D01*
X002955Y009309D01*
X003003Y009406D02*
X003003Y009454D01*
X003003Y009616D02*
X002955Y009664D01*
X002955Y009761D01*
X003003Y009809D01*
X003149Y009809D01*
X003149Y009906D02*
X003149Y009616D01*
X003003Y009616D01*
X002854Y009616D02*
X002854Y009761D01*
X002806Y009809D01*
X002660Y009809D01*
X002660Y009616D01*
X002559Y009616D02*
X002559Y009809D01*
X002463Y009906D01*
X002366Y009809D01*
X002366Y009616D01*
X002366Y009761D02*
X002559Y009761D01*
X003250Y009809D02*
X003250Y009664D01*
X003298Y009616D01*
X003443Y009616D01*
X003443Y009567D02*
X003395Y009519D01*
X003346Y009519D01*
X003443Y009567D02*
X003443Y009809D01*
X003544Y010019D02*
X003544Y010309D01*
X003689Y010309D01*
X003738Y010261D01*
X003738Y010164D01*
X003689Y010116D01*
X003544Y010116D01*
X003443Y010116D02*
X003443Y010309D01*
X003346Y010406D01*
X003250Y010309D01*
X003250Y010116D01*
X003250Y010261D02*
X003443Y010261D01*
X003839Y010309D02*
X003839Y010116D01*
X003839Y010213D02*
X003936Y010309D01*
X003984Y010309D01*
X004085Y010309D02*
X004133Y010309D01*
X004133Y010116D01*
X004085Y010116D02*
X004181Y010116D01*
X004281Y010116D02*
X004378Y010116D01*
X004329Y010116D02*
X004329Y010406D01*
X004281Y010406D01*
X004133Y010406D02*
X004133Y010454D01*
X004772Y010358D02*
X004820Y010406D01*
X004917Y010406D01*
X004965Y010358D01*
X004965Y010309D01*
X004772Y010116D01*
X004965Y010116D01*
X005067Y010164D02*
X005260Y010358D01*
X005260Y010164D01*
X005212Y010116D01*
X005115Y010116D01*
X005067Y010164D01*
X005067Y010358D01*
X005115Y010406D01*
X005212Y010406D01*
X005260Y010358D01*
X005361Y010309D02*
X005458Y010406D01*
X005458Y010116D01*
X005361Y010116D02*
X005555Y010116D01*
X005656Y010116D02*
X005849Y010309D01*
X005849Y010358D01*
X005801Y010406D01*
X005704Y010406D01*
X005656Y010358D01*
X005656Y010116D02*
X005849Y010116D01*
X005507Y009809D02*
X005410Y009809D01*
X005459Y009858D02*
X005459Y009664D01*
X005507Y009616D01*
X005310Y009809D02*
X005262Y009809D01*
X005165Y009713D01*
X005165Y009809D02*
X005165Y009616D01*
X005064Y009713D02*
X004870Y009713D01*
X004870Y009761D02*
X004919Y009809D01*
X005015Y009809D01*
X005064Y009761D01*
X005064Y009713D01*
X005015Y009616D02*
X004919Y009616D01*
X004870Y009664D01*
X004870Y009761D01*
X004770Y009809D02*
X004625Y009713D01*
X004770Y009616D01*
X004625Y009616D02*
X004625Y009906D01*
X004524Y009809D02*
X004378Y009809D01*
X004330Y009761D01*
X004330Y009664D01*
X004378Y009616D01*
X004524Y009616D01*
X004329Y009454D02*
X004329Y009406D01*
X004230Y009616D02*
X004134Y009616D01*
X004182Y009616D02*
X004182Y009809D01*
X004134Y009809D01*
X004182Y009906D02*
X004182Y009954D01*
X004032Y009906D02*
X004032Y009616D01*
X003936Y009713D01*
X003839Y009616D01*
X003839Y009906D01*
X002854Y010358D02*
X002660Y010164D01*
X002660Y010116D01*
X002559Y010116D02*
X002366Y010116D01*
X002463Y010116D02*
X002463Y010406D01*
X002366Y010309D01*
X002660Y010406D02*
X002854Y010406D01*
X002854Y010358D01*
X002366Y009406D02*
X002366Y009164D01*
X002414Y009116D01*
X002660Y009116D02*
X002660Y009309D01*
X003151Y009309D02*
X003248Y009116D01*
X003345Y009309D01*
X003446Y009261D02*
X003494Y009309D01*
X003591Y009309D01*
X003640Y009261D01*
X003640Y009213D01*
X003446Y009213D01*
X003446Y009261D02*
X003446Y009164D01*
X003494Y009116D01*
X003591Y009116D01*
X003741Y009116D02*
X003741Y009309D01*
X003741Y009213D02*
X003838Y009309D01*
X003886Y009309D01*
X004771Y009019D02*
X004819Y009019D01*
X004867Y009067D01*
X004867Y009309D01*
D13*
X012301Y008501D02*
X012301Y010701D01*
X026901Y010701D01*
X026901Y009851D01*
X026871Y009849D01*
X026841Y009844D01*
X026812Y009835D01*
X026785Y009822D01*
X026759Y009807D01*
X026735Y009788D01*
X026714Y009767D01*
X026695Y009743D01*
X026680Y009717D01*
X026667Y009690D01*
X026658Y009661D01*
X026653Y009631D01*
X026651Y009601D01*
X026653Y009571D01*
X026658Y009541D01*
X026667Y009512D01*
X026680Y009485D01*
X026695Y009459D01*
X026714Y009435D01*
X026735Y009414D01*
X026759Y009395D01*
X026785Y009380D01*
X026812Y009367D01*
X026841Y009358D01*
X026871Y009353D01*
X026901Y009351D01*
X026901Y008501D01*
X012301Y008501D01*
X012951Y007051D02*
X013101Y007051D01*
X013151Y007001D01*
X015051Y007001D01*
X015101Y007051D01*
X015251Y007051D01*
X015268Y007049D01*
X015285Y007045D01*
X015301Y007038D01*
X015315Y007028D01*
X015328Y007015D01*
X015338Y007001D01*
X015345Y006985D01*
X015349Y006968D01*
X015351Y006951D01*
X015351Y006251D01*
X015349Y006234D01*
X015345Y006217D01*
X015338Y006201D01*
X015328Y006187D01*
X015315Y006174D01*
X015301Y006164D01*
X015285Y006157D01*
X015268Y006153D01*
X015251Y006151D01*
X015101Y006151D01*
X015051Y006201D01*
X013151Y006201D01*
X013101Y006151D01*
X012951Y006151D01*
X012934Y006153D01*
X012917Y006157D01*
X012901Y006164D01*
X012887Y006174D01*
X012874Y006187D01*
X012864Y006201D01*
X012857Y006217D01*
X012853Y006234D01*
X012851Y006251D01*
X012851Y006951D01*
X012853Y006968D01*
X012857Y006985D01*
X012864Y007001D01*
X012874Y007015D01*
X012887Y007028D01*
X012901Y007038D01*
X012917Y007045D01*
X012934Y007049D01*
X012951Y007051D01*
X017976Y006951D02*
X017976Y006251D01*
X017978Y006234D01*
X017982Y006217D01*
X017989Y006201D01*
X017999Y006187D01*
X018012Y006174D01*
X018026Y006164D01*
X018042Y006157D01*
X018059Y006153D01*
X018076Y006151D01*
X018226Y006151D01*
X018276Y006201D01*
X020176Y006201D01*
X020226Y006151D01*
X020376Y006151D01*
X020393Y006153D01*
X020410Y006157D01*
X020426Y006164D01*
X020440Y006174D01*
X020453Y006187D01*
X020463Y006201D01*
X020470Y006217D01*
X020474Y006234D01*
X020476Y006251D01*
X020476Y006951D01*
X020474Y006968D01*
X020470Y006985D01*
X020463Y007001D01*
X020453Y007015D01*
X020440Y007028D01*
X020426Y007038D01*
X020410Y007045D01*
X020393Y007049D01*
X020376Y007051D01*
X020226Y007051D01*
X020176Y007001D01*
X018276Y007001D01*
X018226Y007051D01*
X018076Y007051D01*
X018059Y007049D01*
X018042Y007045D01*
X018026Y007038D01*
X018012Y007028D01*
X017999Y007015D01*
X017989Y007001D01*
X017982Y006985D01*
X017978Y006968D01*
X017976Y006951D01*
X020576Y005676D02*
X020726Y005676D01*
X020776Y005626D01*
X022676Y005626D01*
X022726Y005676D01*
X022876Y005676D01*
X022893Y005674D01*
X022910Y005670D01*
X022926Y005663D01*
X022940Y005653D01*
X022953Y005640D01*
X022963Y005626D01*
X022970Y005610D01*
X022974Y005593D01*
X022976Y005576D01*
X022976Y004876D01*
X022974Y004859D01*
X022970Y004842D01*
X022963Y004826D01*
X022953Y004812D01*
X022940Y004799D01*
X022926Y004789D01*
X022910Y004782D01*
X022893Y004778D01*
X022876Y004776D01*
X022726Y004776D01*
X022676Y004826D01*
X020776Y004826D01*
X020726Y004776D01*
X020576Y004776D01*
X020559Y004778D01*
X020542Y004782D01*
X020526Y004789D01*
X020512Y004799D01*
X020499Y004812D01*
X020489Y004826D01*
X020482Y004842D01*
X020478Y004859D01*
X020476Y004876D01*
X020476Y005576D01*
X020478Y005593D01*
X020482Y005610D01*
X020489Y005626D01*
X020499Y005640D01*
X020512Y005653D01*
X020526Y005663D01*
X020542Y005670D01*
X020559Y005674D01*
X020576Y005676D01*
X022751Y006251D02*
X022851Y006251D01*
X022901Y006301D01*
X023801Y006301D01*
X023851Y006251D01*
X023951Y006251D01*
X023968Y006253D01*
X023985Y006257D01*
X024001Y006264D01*
X024015Y006274D01*
X024028Y006287D01*
X024038Y006301D01*
X024045Y006317D01*
X024049Y006334D01*
X024051Y006351D01*
X024051Y006851D02*
X024049Y006868D01*
X024045Y006885D01*
X024038Y006901D01*
X024028Y006915D01*
X024015Y006928D01*
X024001Y006938D01*
X023985Y006945D01*
X023968Y006949D01*
X023951Y006951D01*
X023851Y006951D01*
X023801Y006901D01*
X022901Y006901D01*
X022851Y006951D01*
X022751Y006951D01*
X022734Y006949D01*
X022717Y006945D01*
X022701Y006938D01*
X022687Y006928D01*
X022674Y006915D01*
X022664Y006901D01*
X022657Y006885D01*
X022653Y006868D01*
X022651Y006851D01*
X022651Y006351D02*
X022653Y006334D01*
X022657Y006317D01*
X022664Y006301D01*
X022674Y006287D01*
X022687Y006274D01*
X022701Y006264D01*
X022717Y006257D01*
X022734Y006253D01*
X022751Y006251D01*
X027526Y007451D02*
X027526Y007601D01*
X027576Y007651D01*
X027576Y009551D01*
X027526Y009601D01*
X027526Y009751D01*
X027528Y009768D01*
X027532Y009785D01*
X027539Y009801D01*
X027549Y009815D01*
X027562Y009828D01*
X027576Y009838D01*
X027592Y009845D01*
X027609Y009849D01*
X027626Y009851D01*
X028326Y009851D01*
X028343Y009849D01*
X028360Y009845D01*
X028376Y009838D01*
X028390Y009828D01*
X028403Y009815D01*
X028413Y009801D01*
X028420Y009785D01*
X028424Y009768D01*
X028426Y009751D01*
X028426Y009601D01*
X028376Y009551D01*
X028376Y007651D01*
X028426Y007601D01*
X028426Y007451D01*
X028424Y007434D01*
X028420Y007417D01*
X028413Y007401D01*
X028403Y007387D01*
X028390Y007374D01*
X028376Y007364D01*
X028360Y007357D01*
X028343Y007353D01*
X028326Y007351D01*
X027626Y007351D01*
X027609Y007353D01*
X027592Y007357D01*
X027576Y007364D01*
X027562Y007374D01*
X027549Y007387D01*
X027539Y007401D01*
X027532Y007417D01*
X027528Y007434D01*
X027526Y007451D01*
X031851Y010225D02*
X031860Y010196D01*
X031873Y010167D01*
X031889Y010141D01*
X031908Y010116D01*
X031930Y010095D01*
X031955Y010075D01*
X031981Y010059D01*
X032010Y010047D01*
X032039Y010037D01*
X032070Y010032D01*
X032101Y010030D01*
X032132Y010032D01*
X032163Y010037D01*
X032192Y010047D01*
X032221Y010059D01*
X032247Y010075D01*
X032272Y010095D01*
X032294Y010116D01*
X032313Y010141D01*
X032329Y010167D01*
X032342Y010196D01*
X032351Y010225D01*
X028826Y012251D02*
X028726Y012251D01*
X028676Y012301D01*
X027776Y012301D01*
X027726Y012251D01*
X027626Y012251D01*
X027609Y012253D01*
X027592Y012257D01*
X027576Y012264D01*
X027562Y012274D01*
X027549Y012287D01*
X027539Y012301D01*
X027532Y012317D01*
X027528Y012334D01*
X027526Y012351D01*
X027526Y012851D02*
X027528Y012868D01*
X027532Y012885D01*
X027539Y012901D01*
X027549Y012915D01*
X027562Y012928D01*
X027576Y012938D01*
X027592Y012945D01*
X027609Y012949D01*
X027626Y012951D01*
X027726Y012951D01*
X027776Y012901D01*
X028676Y012901D01*
X028726Y012951D01*
X028826Y012951D01*
X028843Y012949D01*
X028860Y012945D01*
X028876Y012938D01*
X028890Y012928D01*
X028903Y012915D01*
X028913Y012901D01*
X028920Y012885D01*
X028924Y012868D01*
X028926Y012851D01*
X028926Y012351D02*
X028924Y012334D01*
X028920Y012317D01*
X028913Y012301D01*
X028903Y012287D01*
X028890Y012274D01*
X028876Y012264D01*
X028860Y012257D01*
X028843Y012253D01*
X028826Y012251D01*
X025826Y012251D02*
X025726Y012251D01*
X025676Y012301D01*
X024776Y012301D01*
X024726Y012251D01*
X024626Y012251D01*
X024609Y012253D01*
X024592Y012257D01*
X024576Y012264D01*
X024562Y012274D01*
X024549Y012287D01*
X024539Y012301D01*
X024532Y012317D01*
X024528Y012334D01*
X024526Y012351D01*
X024526Y012851D02*
X024528Y012868D01*
X024532Y012885D01*
X024539Y012901D01*
X024549Y012915D01*
X024562Y012928D01*
X024576Y012938D01*
X024592Y012945D01*
X024609Y012949D01*
X024626Y012951D01*
X024726Y012951D01*
X024776Y012901D01*
X025676Y012901D01*
X025726Y012951D01*
X025826Y012951D01*
X025843Y012949D01*
X025860Y012945D01*
X025876Y012938D01*
X025890Y012928D01*
X025903Y012915D01*
X025913Y012901D01*
X025920Y012885D01*
X025924Y012868D01*
X025926Y012851D01*
X025926Y012351D02*
X025924Y012334D01*
X025920Y012317D01*
X025913Y012301D01*
X025903Y012287D01*
X025890Y012274D01*
X025876Y012264D01*
X025860Y012257D01*
X025843Y012253D01*
X025826Y012251D01*
X025365Y013417D02*
X025258Y013417D01*
X025365Y013417D02*
X025472Y013524D01*
X025472Y014058D01*
X025152Y014058D01*
X025045Y013951D01*
X025045Y013738D01*
X025152Y013631D01*
X025472Y013631D01*
X024827Y013738D02*
X024827Y013951D01*
X024721Y014058D01*
X024507Y014058D01*
X024400Y013951D01*
X024400Y013738D01*
X024507Y013631D01*
X024721Y013631D01*
X024827Y013738D01*
X024183Y013631D02*
X023756Y013631D01*
X023756Y014271D01*
X021951Y013951D02*
X021851Y013951D01*
X021801Y013901D01*
X020901Y013901D01*
X020851Y013951D01*
X020751Y013951D01*
X020734Y013949D01*
X020717Y013945D01*
X020701Y013938D01*
X020687Y013928D01*
X020674Y013915D01*
X020664Y013901D01*
X020657Y013885D01*
X020653Y013868D01*
X020651Y013851D01*
X020651Y013351D02*
X020653Y013334D01*
X020657Y013317D01*
X020664Y013301D01*
X020674Y013287D01*
X020687Y013274D01*
X020701Y013264D01*
X020717Y013257D01*
X020734Y013253D01*
X020751Y013251D01*
X020851Y013251D01*
X020901Y013301D01*
X021801Y013301D01*
X021851Y013251D01*
X021951Y013251D01*
X021968Y013253D01*
X021985Y013257D01*
X022001Y013264D01*
X022015Y013274D01*
X022028Y013287D01*
X022038Y013301D01*
X022045Y013317D01*
X022049Y013334D01*
X022051Y013351D01*
X022051Y013851D02*
X022049Y013868D01*
X022045Y013885D01*
X022038Y013901D01*
X022028Y013915D01*
X022015Y013928D01*
X022001Y013938D01*
X021985Y013945D01*
X021968Y013949D01*
X021951Y013951D01*
X018551Y013451D02*
X018551Y015751D01*
X018549Y015802D01*
X018544Y015853D01*
X018534Y015903D01*
X018521Y015953D01*
X018505Y016001D01*
X018485Y016048D01*
X018461Y016094D01*
X018435Y016137D01*
X018405Y016179D01*
X018372Y016218D01*
X018337Y016255D01*
X018299Y016289D01*
X018258Y016320D01*
X018216Y016349D01*
X018171Y016374D01*
X018125Y016395D01*
X018077Y016414D01*
X018028Y016428D01*
X017978Y016439D01*
X017928Y016447D01*
X017877Y016451D01*
X017825Y016451D01*
X017774Y016447D01*
X017724Y016439D01*
X017674Y016428D01*
X017625Y016414D01*
X017577Y016395D01*
X017531Y016374D01*
X017486Y016349D01*
X017444Y016320D01*
X017403Y016289D01*
X017365Y016255D01*
X017330Y016218D01*
X017297Y016179D01*
X017267Y016137D01*
X017241Y016094D01*
X017217Y016048D01*
X017197Y016001D01*
X017181Y015953D01*
X017168Y015903D01*
X017158Y015853D01*
X017153Y015802D01*
X017151Y015751D01*
X017151Y013451D01*
X017153Y013400D01*
X017158Y013349D01*
X017168Y013299D01*
X017181Y013249D01*
X017197Y013201D01*
X017217Y013154D01*
X017241Y013108D01*
X017267Y013065D01*
X017297Y013023D01*
X017330Y012984D01*
X017365Y012947D01*
X017403Y012913D01*
X017444Y012882D01*
X017486Y012853D01*
X017531Y012828D01*
X017577Y012807D01*
X017625Y012788D01*
X017674Y012774D01*
X017724Y012763D01*
X017774Y012755D01*
X017825Y012751D01*
X017877Y012751D01*
X017928Y012755D01*
X017978Y012763D01*
X018028Y012774D01*
X018077Y012788D01*
X018125Y012807D01*
X018171Y012828D01*
X018216Y012853D01*
X018258Y012882D01*
X018299Y012913D01*
X018337Y012947D01*
X018372Y012984D01*
X018405Y013023D01*
X018435Y013065D01*
X018461Y013108D01*
X018485Y013154D01*
X018505Y013201D01*
X018521Y013249D01*
X018534Y013299D01*
X018544Y013349D01*
X018549Y013400D01*
X018551Y013451D01*
X017851Y014101D02*
X017851Y014351D01*
X017501Y014351D01*
X017501Y014501D02*
X017501Y014701D01*
X018201Y014701D01*
X018201Y014501D01*
X017501Y014501D01*
X017851Y014351D02*
X018201Y014351D01*
X018201Y014851D02*
X017851Y014851D01*
X017851Y015101D01*
X017851Y014851D02*
X017501Y014851D01*
X015121Y013251D02*
X015121Y016951D01*
X015119Y016974D01*
X015114Y016997D01*
X015105Y017019D01*
X015092Y017039D01*
X015077Y017057D01*
X015059Y017072D01*
X015039Y017085D01*
X015017Y017094D01*
X014994Y017099D01*
X014971Y017101D01*
X013731Y017101D01*
X013708Y017099D01*
X013685Y017094D01*
X013663Y017085D01*
X013643Y017072D01*
X013625Y017057D01*
X013610Y017039D01*
X013597Y017019D01*
X013588Y016997D01*
X013583Y016974D01*
X013581Y016951D01*
X013581Y013251D01*
X013583Y013228D01*
X013588Y013205D01*
X013597Y013183D01*
X013610Y013163D01*
X013625Y013145D01*
X013643Y013130D01*
X013663Y013117D01*
X013685Y013108D01*
X013708Y013103D01*
X013731Y013101D01*
X014151Y013101D01*
X014551Y013101D01*
X014971Y013101D01*
X014994Y013103D01*
X015017Y013108D01*
X015039Y013117D01*
X015059Y013130D01*
X015077Y013145D01*
X015092Y013163D01*
X015105Y013183D01*
X015114Y013205D01*
X015119Y013228D01*
X015121Y013251D01*
X014551Y013101D02*
X014549Y013128D01*
X014544Y013155D01*
X014534Y013181D01*
X014522Y013205D01*
X014506Y013227D01*
X014488Y013247D01*
X014466Y013264D01*
X014443Y013279D01*
X014418Y013289D01*
X014392Y013297D01*
X014365Y013301D01*
X014337Y013301D01*
X014310Y013297D01*
X014284Y013289D01*
X014259Y013279D01*
X014236Y013264D01*
X014214Y013247D01*
X014196Y013227D01*
X014180Y013205D01*
X014168Y013181D01*
X014158Y013155D01*
X014153Y013128D01*
X014151Y013101D01*
X011786Y015782D02*
X011749Y015782D01*
X011786Y015782D02*
X011786Y016420D01*
X011749Y016420D01*
X011431Y016420D02*
X011394Y016420D01*
X011057Y016420D02*
X011020Y016420D01*
X010703Y016420D02*
X010666Y016420D01*
X010666Y015782D01*
X010703Y015782D01*
X011020Y015782D02*
X011431Y015782D01*
X003371Y015695D02*
X003371Y016015D01*
X003264Y016122D01*
X003157Y016015D01*
X003157Y015802D01*
X003051Y015695D01*
X002944Y015802D01*
X002944Y016122D01*
X003051Y016339D02*
X002944Y016446D01*
X002944Y016660D01*
X003051Y016766D01*
X003157Y016766D01*
X003157Y016339D01*
X003051Y016339D02*
X003264Y016339D01*
X003371Y016446D01*
X003371Y016660D01*
X003264Y017091D02*
X002837Y017091D01*
X002944Y017197D02*
X002944Y016984D01*
X003264Y017091D02*
X003371Y017197D01*
X003157Y015477D02*
X003157Y015050D01*
X003051Y015050D02*
X002944Y015157D01*
X002944Y015371D01*
X003051Y015477D01*
X003157Y015477D01*
X003371Y015371D02*
X003371Y015157D01*
X003264Y015050D01*
X003051Y015050D01*
X003051Y014833D02*
X002837Y014833D01*
X002730Y014726D01*
X002730Y014406D01*
X003371Y014406D01*
X003157Y014406D02*
X003157Y014726D01*
X003051Y014833D01*
X003157Y014619D02*
X003371Y014833D01*
X026334Y014271D02*
X026334Y013631D01*
X026761Y013631D02*
X026761Y014271D01*
X026978Y013951D02*
X026978Y013738D01*
X027085Y013631D01*
X027299Y013631D01*
X027405Y013738D01*
X027405Y013951D01*
X027299Y014058D01*
X027085Y014058D01*
X026978Y013951D01*
X027623Y014058D02*
X027623Y013738D01*
X027730Y013631D01*
X027836Y013738D01*
X027943Y013631D01*
X028050Y013738D01*
X028050Y014058D01*
X026761Y013631D02*
X026334Y014271D01*
X007286Y002170D02*
X007249Y002170D01*
X007286Y002170D02*
X007286Y001532D01*
X007249Y001532D01*
X006931Y001532D02*
X006894Y001532D01*
X006557Y001532D02*
X006520Y001532D01*
X006203Y001532D02*
X006166Y001532D01*
X006166Y002170D01*
X006203Y002170D01*
X006520Y002170D02*
X006931Y002170D01*
D14*
X003011Y001376D02*
X003011Y001303D01*
X003047Y001266D01*
X003194Y001266D01*
X003047Y001413D01*
X003194Y001413D01*
X003231Y001376D01*
X003231Y001303D01*
X003194Y001266D01*
X003047Y001413D02*
X003011Y001376D01*
X003194Y001487D02*
X003194Y001524D01*
X003231Y001524D01*
X003231Y001487D01*
X003194Y001487D01*
X003231Y001598D02*
X003231Y001745D01*
X003231Y001671D02*
X003011Y001671D01*
X003084Y001598D01*
X003084Y001819D02*
X003194Y001819D01*
X003231Y001855D01*
X003231Y001966D01*
X003084Y001966D01*
X003121Y002040D02*
X003121Y002113D01*
X003231Y002040D02*
X003011Y002040D01*
X003011Y002187D01*
X003986Y002241D02*
X004169Y002241D01*
X004206Y002204D01*
X004206Y002131D01*
X004169Y002094D01*
X003986Y002094D01*
X004022Y002020D02*
X003986Y001983D01*
X003986Y001910D01*
X004022Y001873D01*
X004169Y001873D01*
X004206Y001910D01*
X004206Y001983D01*
X004169Y002020D01*
X004022Y002020D01*
X004022Y001799D02*
X003986Y001762D01*
X003986Y001689D01*
X004022Y001652D01*
X004169Y001652D01*
X004206Y001689D01*
X004206Y001762D01*
X004169Y001799D01*
X004496Y001680D02*
X004532Y001716D01*
X004679Y001716D01*
X004716Y001680D01*
X004716Y001606D01*
X004679Y001570D01*
X004532Y001570D01*
X004496Y001606D01*
X004496Y001680D01*
X004532Y001496D02*
X004496Y001459D01*
X004496Y001349D01*
X004716Y001349D01*
X004716Y001459D01*
X004679Y001496D01*
X004532Y001496D01*
X004716Y001275D02*
X004716Y001128D01*
X004496Y001128D01*
X004752Y001054D02*
X004752Y000907D01*
X004679Y000833D02*
X004716Y000796D01*
X004716Y000722D01*
X004679Y000686D01*
X004532Y000686D01*
X004496Y000722D01*
X004496Y000796D01*
X004532Y000833D01*
X004206Y000989D02*
X004059Y000989D01*
X003986Y001062D01*
X004059Y001136D01*
X004206Y001136D01*
X004206Y001210D02*
X004206Y001320D01*
X004169Y001357D01*
X004022Y001357D01*
X003986Y001320D01*
X003986Y001210D01*
X004206Y001210D01*
X004096Y001136D02*
X004096Y000989D01*
X004096Y001431D02*
X004096Y001504D01*
X003986Y001431D02*
X004206Y001431D01*
X004206Y001578D01*
X003986Y001578D02*
X003986Y001431D01*
X004752Y001791D02*
X004752Y001937D01*
X004679Y002012D02*
X004716Y002048D01*
X004716Y002122D01*
X004679Y002158D01*
X004642Y002158D01*
X004606Y002122D01*
X004606Y002048D01*
X004569Y002012D01*
X004532Y002012D01*
X004496Y002048D01*
X004496Y002122D01*
X004532Y002158D01*
X004496Y002233D02*
X004716Y002233D01*
X004716Y002379D01*
X004716Y002454D02*
X004496Y002454D01*
X004716Y002600D01*
X004496Y002600D01*
X004532Y002675D02*
X004569Y002675D01*
X004606Y002711D01*
X004606Y002785D01*
X004642Y002821D01*
X004679Y002821D01*
X004716Y002785D01*
X004716Y002711D01*
X004679Y002675D01*
X004532Y002675D02*
X004496Y002711D01*
X004496Y002785D01*
X004532Y002821D01*
X004496Y002896D02*
X004716Y002896D01*
X004716Y003042D01*
X004606Y002969D02*
X004606Y002896D01*
X004496Y002896D02*
X004496Y003042D01*
X005596Y002823D02*
X005596Y002676D01*
X005816Y002676D01*
X005816Y002602D02*
X005669Y002602D01*
X005706Y002676D02*
X005706Y002750D01*
X005816Y002602D02*
X005816Y002492D01*
X005779Y002455D01*
X005669Y002455D01*
X005669Y002381D02*
X005632Y002381D01*
X005596Y002344D01*
X005596Y002271D01*
X005632Y002234D01*
X005669Y002381D02*
X005816Y002234D01*
X005816Y002381D01*
X005816Y002160D02*
X005779Y002160D01*
X005779Y002124D01*
X005816Y002124D01*
X005816Y002160D01*
X005816Y002050D02*
X005816Y001903D01*
X005669Y002050D01*
X005632Y002050D01*
X005596Y002013D01*
X005596Y001939D01*
X005632Y001903D01*
X005669Y001829D02*
X005669Y001682D01*
X005742Y001682D02*
X005742Y001829D01*
X005706Y001608D02*
X005816Y001461D01*
X005706Y001608D02*
X005596Y001461D01*
X006236Y000856D02*
X006236Y000636D01*
X006383Y000636D01*
X006457Y000636D02*
X006457Y000856D01*
X006567Y000856D01*
X006604Y000819D01*
X006604Y000746D01*
X006567Y000709D01*
X006457Y000709D01*
X006678Y000636D02*
X006825Y000783D01*
X006825Y000819D01*
X006788Y000856D01*
X006714Y000856D01*
X006678Y000819D01*
X006678Y000636D02*
X006825Y000636D01*
X006899Y000672D02*
X006935Y000636D01*
X007009Y000636D01*
X007046Y000672D01*
X007046Y000819D01*
X007009Y000856D01*
X006935Y000856D01*
X006899Y000819D01*
X006899Y000783D01*
X006935Y000746D01*
X007046Y000746D01*
X007120Y000783D02*
X007120Y000819D01*
X007156Y000856D01*
X007230Y000856D01*
X007266Y000819D01*
X007266Y000783D01*
X007230Y000746D01*
X007156Y000746D01*
X007120Y000783D01*
X007156Y000746D02*
X007120Y000709D01*
X007120Y000672D01*
X007156Y000636D01*
X007230Y000636D01*
X007266Y000672D01*
X007266Y000709D01*
X007230Y000746D01*
X007341Y000746D02*
X007414Y000783D01*
X007451Y000783D01*
X007487Y000746D01*
X007487Y000672D01*
X007451Y000636D01*
X007377Y000636D01*
X007341Y000672D01*
X007341Y000746D02*
X007341Y000856D01*
X007487Y000856D01*
X004606Y002233D02*
X004606Y002306D01*
X004496Y002379D02*
X004496Y002233D01*
X004206Y002315D02*
X003986Y002315D01*
X003986Y002425D01*
X004022Y002462D01*
X004096Y002462D01*
X004132Y002425D01*
X004132Y002315D01*
X005986Y002736D02*
X006133Y002736D01*
X006207Y002736D02*
X006317Y002736D01*
X006354Y002772D01*
X006354Y002919D01*
X006317Y002956D01*
X006207Y002956D01*
X006207Y002736D01*
X005986Y002736D02*
X005986Y002956D01*
X006428Y002919D02*
X006428Y002772D01*
X006575Y002919D01*
X006575Y002772D01*
X006538Y002736D01*
X006464Y002736D01*
X006428Y002772D01*
X006428Y002919D02*
X006464Y002956D01*
X006538Y002956D01*
X006575Y002919D01*
X006649Y002699D02*
X006796Y002699D01*
X006870Y002772D02*
X006906Y002736D01*
X006980Y002736D01*
X007016Y002772D01*
X007016Y002809D01*
X006980Y002846D01*
X006906Y002846D01*
X006870Y002883D01*
X006870Y002919D01*
X006906Y002956D01*
X006980Y002956D01*
X007016Y002919D01*
X007091Y002956D02*
X007091Y002736D01*
X007237Y002736D01*
X007312Y002736D02*
X007312Y002956D01*
X007458Y002736D01*
X007458Y002956D01*
X007533Y002919D02*
X007533Y002883D01*
X007569Y002846D01*
X007643Y002846D01*
X007679Y002809D01*
X007679Y002772D01*
X007643Y002736D01*
X007569Y002736D01*
X007533Y002772D01*
X007533Y002919D02*
X007569Y002956D01*
X007643Y002956D01*
X007679Y002919D01*
X007754Y002956D02*
X007754Y002736D01*
X007900Y002736D01*
X007827Y002846D02*
X007754Y002846D01*
X007754Y002956D02*
X007900Y002956D01*
X007237Y002956D02*
X007091Y002956D01*
X007091Y002846D02*
X007164Y002846D01*
X013519Y006468D02*
X013519Y006688D01*
X013592Y006688D02*
X013445Y006688D01*
X013666Y006688D02*
X013666Y006468D01*
X013666Y006578D02*
X013703Y006615D01*
X013776Y006615D01*
X013813Y006578D01*
X013813Y006468D01*
X013887Y006505D02*
X013887Y006578D01*
X013924Y006615D01*
X013997Y006615D01*
X014034Y006578D01*
X014034Y006542D01*
X013887Y006542D01*
X013887Y006505D02*
X013924Y006468D01*
X013997Y006468D01*
X014108Y006468D02*
X014108Y006615D01*
X014108Y006542D02*
X014181Y006615D01*
X014218Y006615D01*
X014292Y006615D02*
X014329Y006615D01*
X014366Y006578D01*
X014402Y006615D01*
X014439Y006578D01*
X014439Y006468D01*
X014366Y006468D02*
X014366Y006578D01*
X014292Y006615D02*
X014292Y006468D01*
X014238Y006999D02*
X014385Y006999D01*
X014459Y007036D02*
X014459Y007183D01*
X014532Y007256D01*
X014606Y007183D01*
X014606Y007036D01*
X014680Y007072D02*
X014716Y007036D01*
X014790Y007036D01*
X014827Y007072D01*
X014827Y007219D01*
X014680Y007072D01*
X014680Y007219D01*
X014716Y007256D01*
X014790Y007256D01*
X014827Y007219D01*
X014606Y007146D02*
X014459Y007146D01*
X014164Y007256D02*
X014017Y007256D01*
X014017Y007036D01*
X013943Y007036D02*
X013796Y007036D01*
X013796Y007256D01*
X013943Y007256D01*
X013869Y007146D02*
X013796Y007146D01*
X013722Y007146D02*
X013685Y007109D01*
X013575Y007109D01*
X013575Y007036D02*
X013575Y007256D01*
X013685Y007256D01*
X013722Y007219D01*
X013722Y007146D01*
X013648Y007109D02*
X013722Y007036D01*
X013501Y006999D02*
X013354Y006999D01*
X013280Y007036D02*
X013206Y007109D01*
X013243Y007109D02*
X013133Y007109D01*
X013133Y007036D02*
X013133Y007256D01*
X013243Y007256D01*
X013280Y007219D01*
X013280Y007146D01*
X013243Y007109D01*
X014017Y007146D02*
X014090Y007146D01*
X018446Y007144D02*
X018556Y007144D01*
X018593Y007181D01*
X018593Y007254D01*
X018556Y007291D01*
X018446Y007291D01*
X018446Y007071D01*
X018519Y007144D02*
X018593Y007071D01*
X018667Y007034D02*
X018814Y007034D01*
X018888Y007071D02*
X018888Y007291D01*
X018998Y007291D01*
X019035Y007254D01*
X019035Y007181D01*
X018998Y007144D01*
X018888Y007144D01*
X018961Y007144D02*
X019035Y007071D01*
X019109Y007071D02*
X019109Y007291D01*
X019256Y007291D01*
X019330Y007291D02*
X019476Y007291D01*
X019403Y007181D02*
X019330Y007181D01*
X019330Y007071D02*
X019330Y007291D01*
X019182Y007181D02*
X019109Y007181D01*
X019109Y007071D02*
X019256Y007071D01*
X019551Y007034D02*
X019697Y007034D01*
X019772Y007071D02*
X019772Y007218D01*
X019845Y007291D01*
X019918Y007218D01*
X019918Y007071D01*
X019993Y007071D02*
X020139Y007218D01*
X020139Y007254D01*
X020103Y007291D01*
X020029Y007291D01*
X019993Y007254D01*
X019918Y007181D02*
X019772Y007181D01*
X019993Y007071D02*
X020139Y007071D01*
X020946Y005916D02*
X021056Y005916D01*
X021093Y005879D01*
X021093Y005806D01*
X021056Y005769D01*
X020946Y005769D01*
X021019Y005769D02*
X021093Y005696D01*
X021167Y005659D02*
X021314Y005659D01*
X021388Y005696D02*
X021388Y005916D01*
X021498Y005916D01*
X021535Y005879D01*
X021535Y005806D01*
X021498Y005769D01*
X021388Y005769D01*
X021461Y005769D02*
X021535Y005696D01*
X021609Y005696D02*
X021609Y005916D01*
X021756Y005916D01*
X021830Y005916D02*
X021976Y005916D01*
X021903Y005806D02*
X021830Y005806D01*
X021830Y005696D02*
X021830Y005916D01*
X021682Y005806D02*
X021609Y005806D01*
X021609Y005696D02*
X021756Y005696D01*
X022051Y005659D02*
X022197Y005659D01*
X022272Y005696D02*
X022272Y005843D01*
X022345Y005916D01*
X022418Y005843D01*
X022418Y005696D01*
X022493Y005732D02*
X022529Y005696D01*
X022603Y005696D01*
X022639Y005732D01*
X022639Y005769D01*
X022603Y005806D01*
X022566Y005806D01*
X022603Y005806D02*
X022639Y005843D01*
X022639Y005879D01*
X022603Y005916D01*
X022529Y005916D01*
X022493Y005879D01*
X022418Y005806D02*
X022272Y005806D01*
X020946Y005696D02*
X020946Y005916D01*
X023021Y006487D02*
X023057Y006451D01*
X023131Y006451D01*
X023168Y006487D01*
X023168Y006524D01*
X023131Y006561D01*
X023094Y006561D01*
X023131Y006561D02*
X023168Y006598D01*
X023168Y006634D01*
X023131Y006671D01*
X023057Y006671D01*
X023021Y006634D01*
X023242Y006634D02*
X023278Y006671D01*
X023352Y006671D01*
X023389Y006634D01*
X023389Y006598D01*
X023352Y006561D01*
X023389Y006524D01*
X023389Y006487D01*
X023352Y006451D01*
X023278Y006451D01*
X023242Y006487D01*
X023315Y006561D02*
X023352Y006561D01*
X023463Y006634D02*
X023499Y006671D01*
X023573Y006671D01*
X023610Y006634D01*
X023463Y006487D01*
X023499Y006451D01*
X023573Y006451D01*
X023610Y006487D01*
X023610Y006634D01*
X023463Y006634D02*
X023463Y006487D01*
X023189Y007034D02*
X023042Y007034D01*
X022968Y007071D02*
X022894Y007144D01*
X022931Y007144D02*
X022821Y007144D01*
X022821Y007071D02*
X022821Y007291D01*
X022931Y007291D01*
X022968Y007254D01*
X022968Y007181D01*
X022931Y007144D01*
X023263Y007071D02*
X023263Y007291D01*
X023263Y007071D02*
X023410Y007071D01*
X023484Y007071D02*
X023631Y007071D01*
X023705Y007071D02*
X023705Y007291D01*
X023815Y007291D01*
X023851Y007254D01*
X023851Y007107D01*
X023815Y007071D01*
X023705Y007071D01*
X023557Y007181D02*
X023484Y007181D01*
X023484Y007291D02*
X023484Y007071D01*
X023484Y007291D02*
X023631Y007291D01*
X025282Y006838D02*
X025429Y006838D01*
X025356Y006765D02*
X025356Y006912D01*
X025861Y006981D02*
X025861Y006761D01*
X026008Y006761D01*
X026082Y006761D02*
X026229Y006761D01*
X026303Y006761D02*
X026413Y006761D01*
X026450Y006797D01*
X026450Y006944D01*
X026413Y006981D01*
X026303Y006981D01*
X026303Y006761D01*
X026155Y006871D02*
X026082Y006871D01*
X026082Y006981D02*
X026082Y006761D01*
X026082Y006981D02*
X026229Y006981D01*
X028508Y007921D02*
X028728Y007921D01*
X028728Y008068D01*
X028765Y008142D02*
X028765Y008289D01*
X028728Y008363D02*
X028508Y008363D01*
X028728Y008363D02*
X028728Y008510D01*
X028728Y008584D02*
X028508Y008584D01*
X028508Y008694D01*
X028545Y008731D01*
X028618Y008731D01*
X028655Y008694D01*
X028655Y008584D01*
X028618Y008805D02*
X028618Y008878D01*
X028508Y008805D02*
X028508Y008952D01*
X028508Y008805D02*
X028728Y008805D01*
X022569Y011772D02*
X022569Y011993D01*
X022679Y011993D01*
X022716Y011956D01*
X022716Y011882D01*
X022679Y011846D01*
X022569Y011846D01*
X022495Y011846D02*
X022348Y011846D01*
X022495Y011993D01*
X022495Y012029D01*
X022458Y012066D01*
X022385Y012066D01*
X022348Y012029D01*
X022274Y012029D02*
X022237Y012066D01*
X022164Y012066D01*
X022127Y012029D01*
X022274Y012029D02*
X022274Y011993D01*
X022127Y011846D01*
X022274Y011846D01*
X022790Y011846D02*
X022790Y012066D01*
X022937Y012066D01*
X022863Y011956D02*
X022790Y011956D01*
X020812Y012066D02*
X020665Y012066D01*
X020665Y011846D01*
X020591Y011882D02*
X020554Y011846D01*
X020444Y011846D01*
X020444Y011772D02*
X020444Y011993D01*
X020554Y011993D01*
X020591Y011956D01*
X020591Y011882D01*
X020665Y011956D02*
X020738Y011956D01*
X020370Y011993D02*
X020370Y012029D01*
X020333Y012066D01*
X020260Y012066D01*
X020223Y012029D01*
X020149Y012029D02*
X020112Y012066D01*
X020039Y012066D01*
X020002Y012029D01*
X020149Y012029D02*
X020149Y011993D01*
X020002Y011846D01*
X020149Y011846D01*
X020223Y011846D02*
X020370Y011993D01*
X020370Y011846D02*
X020223Y011846D01*
X021038Y013437D02*
X021184Y013437D01*
X021111Y013437D02*
X021111Y013657D01*
X021038Y013584D01*
X021259Y013620D02*
X021295Y013657D01*
X021369Y013657D01*
X021405Y013620D01*
X021259Y013474D01*
X021295Y013437D01*
X021369Y013437D01*
X021405Y013474D01*
X021405Y013620D01*
X021479Y013657D02*
X021479Y013437D01*
X021479Y013510D02*
X021626Y013657D01*
X021516Y013547D02*
X021626Y013437D01*
X021259Y013474D02*
X021259Y013620D01*
X021208Y014071D02*
X021061Y014071D01*
X021061Y014291D01*
X021208Y014291D01*
X021282Y014254D02*
X021282Y014218D01*
X021319Y014181D01*
X021393Y014181D01*
X021429Y014144D01*
X021429Y014107D01*
X021393Y014071D01*
X021319Y014071D01*
X021282Y014107D01*
X021282Y014254D02*
X021319Y014291D01*
X021393Y014291D01*
X021429Y014254D01*
X021503Y014291D02*
X021503Y014071D01*
X021650Y014071D01*
X021577Y014181D02*
X021503Y014181D01*
X021503Y014291D02*
X021650Y014291D01*
X021724Y014291D02*
X021871Y014291D01*
X021798Y014291D02*
X021798Y014071D01*
X021135Y014181D02*
X021061Y014181D01*
X020987Y014181D02*
X020951Y014144D01*
X020841Y014144D01*
X020914Y014144D02*
X020987Y014071D01*
X020987Y014181D02*
X020987Y014254D01*
X020951Y014291D01*
X020841Y014291D01*
X020841Y014071D01*
X020766Y014034D02*
X020620Y014034D01*
X020545Y014071D02*
X020472Y014144D01*
X020509Y014144D02*
X020399Y014144D01*
X020399Y014071D02*
X020399Y014291D01*
X020509Y014291D01*
X020545Y014254D01*
X020545Y014181D01*
X020509Y014144D01*
X024446Y013291D02*
X024446Y013071D01*
X024446Y013144D02*
X024556Y013144D01*
X024593Y013181D01*
X024593Y013254D01*
X024556Y013291D01*
X024446Y013291D01*
X024667Y013291D02*
X024667Y013107D01*
X024703Y013071D01*
X024777Y013071D01*
X024814Y013107D01*
X024814Y013291D01*
X024888Y013218D02*
X024961Y013291D01*
X024961Y013071D01*
X024888Y013071D02*
X025035Y013071D01*
X025131Y012671D02*
X025021Y012561D01*
X025168Y012561D01*
X025242Y012487D02*
X025278Y012487D01*
X025278Y012451D01*
X025242Y012451D01*
X025242Y012487D01*
X025352Y012487D02*
X025499Y012634D01*
X025499Y012671D01*
X025352Y012671D01*
X025352Y012487D02*
X025352Y012451D01*
X025131Y012451D02*
X025131Y012671D01*
X025573Y012671D02*
X025573Y012451D01*
X025573Y012524D02*
X025720Y012671D01*
X025610Y012561D02*
X025720Y012451D01*
X027802Y012641D02*
X027949Y012641D01*
X028023Y012567D02*
X028060Y012567D01*
X028060Y012531D01*
X028023Y012531D01*
X028023Y012567D01*
X028134Y012567D02*
X028134Y012531D01*
X028134Y012567D02*
X028281Y012714D01*
X028281Y012751D01*
X028134Y012751D01*
X028355Y012751D02*
X028355Y012531D01*
X028355Y012604D02*
X028502Y012751D01*
X028391Y012641D02*
X028502Y012531D01*
X027912Y012531D02*
X027912Y012751D01*
X027802Y012641D01*
X028363Y012131D02*
X028473Y012131D01*
X028510Y012094D01*
X028510Y012021D01*
X028473Y011984D01*
X028363Y011984D01*
X028363Y011911D02*
X028363Y012131D01*
X028584Y012131D02*
X028584Y011947D01*
X028621Y011911D01*
X028694Y011911D01*
X028731Y011947D01*
X028731Y012131D01*
X028805Y012094D02*
X028841Y012131D01*
X028915Y012131D01*
X028952Y012094D01*
X028952Y012058D01*
X028805Y011911D01*
X028952Y011911D01*
X035526Y014331D02*
X035709Y014331D01*
X035746Y014367D01*
X035746Y014441D01*
X035709Y014478D01*
X035526Y014478D01*
X035562Y014552D02*
X035599Y014552D01*
X035636Y014588D01*
X035636Y014662D01*
X035672Y014699D01*
X035709Y014699D01*
X035746Y014662D01*
X035746Y014588D01*
X035709Y014552D01*
X035562Y014552D02*
X035526Y014588D01*
X035526Y014662D01*
X035562Y014699D01*
X035526Y014773D02*
X035526Y014883D01*
X035562Y014920D01*
X035599Y014920D01*
X035636Y014883D01*
X035636Y014773D01*
X035746Y014773D02*
X035526Y014773D01*
X035636Y014883D02*
X035672Y014920D01*
X035709Y014920D01*
X035746Y014883D01*
X035746Y014773D01*
X035782Y014994D02*
X035782Y015141D01*
X035746Y015215D02*
X035526Y015215D01*
X035526Y015325D01*
X035562Y015361D01*
X035636Y015361D01*
X035672Y015325D01*
X035672Y015215D01*
X035746Y015436D02*
X035672Y015509D01*
X035746Y015582D01*
X035526Y015582D01*
X035526Y015657D02*
X035526Y015767D01*
X035562Y015803D01*
X035636Y015803D01*
X035672Y015767D01*
X035672Y015657D01*
X035672Y015730D02*
X035746Y015803D01*
X035782Y015878D02*
X035782Y016024D01*
X035709Y016099D02*
X035746Y016135D01*
X035746Y016172D01*
X035709Y016209D01*
X035526Y016209D01*
X035526Y016245D02*
X035526Y016172D01*
X035526Y016320D02*
X035709Y016320D01*
X035746Y016356D01*
X035746Y016430D01*
X035709Y016466D01*
X035526Y016466D01*
X035526Y016541D02*
X035599Y016614D01*
X035526Y016687D01*
X035746Y016687D01*
X035746Y016762D02*
X035526Y016762D01*
X035526Y016872D01*
X035562Y016908D01*
X035636Y016908D01*
X035672Y016872D01*
X035672Y016762D01*
X035746Y016541D02*
X035526Y016541D01*
X033822Y016258D02*
X033822Y016074D01*
X033786Y016037D01*
X033749Y016037D01*
X033712Y016111D02*
X033822Y016111D01*
X033712Y016111D02*
X033676Y016147D01*
X033676Y016258D01*
X033601Y016258D02*
X033565Y016258D01*
X033491Y016184D01*
X033491Y016111D02*
X033491Y016258D01*
X033417Y016221D02*
X033380Y016258D01*
X033307Y016258D01*
X033270Y016221D01*
X033270Y016147D01*
X033307Y016111D01*
X033380Y016111D01*
X033417Y016184D02*
X033270Y016184D01*
X033196Y016111D02*
X033160Y016147D01*
X033160Y016294D01*
X033196Y016258D02*
X033123Y016258D01*
X033049Y016258D02*
X032976Y016258D01*
X033012Y016294D02*
X033012Y016147D01*
X033049Y016111D01*
X032902Y016111D02*
X032791Y016111D01*
X032755Y016147D01*
X032791Y016184D01*
X032902Y016184D01*
X032902Y016221D02*
X032902Y016111D01*
X032902Y016221D02*
X032865Y016258D01*
X032791Y016258D01*
X032681Y016258D02*
X032644Y016221D01*
X032534Y016221D01*
X032644Y016221D02*
X032681Y016184D01*
X032681Y016147D01*
X032644Y016111D01*
X032534Y016111D01*
X032534Y016331D01*
X032644Y016331D01*
X032681Y016294D01*
X032681Y016258D01*
X032239Y016221D02*
X032239Y016147D01*
X032202Y016111D01*
X032092Y016111D01*
X032092Y016037D02*
X032092Y016258D01*
X032202Y016258D01*
X032239Y016221D01*
X032018Y016258D02*
X032018Y016111D01*
X031908Y016111D01*
X031871Y016147D01*
X031871Y016258D01*
X031797Y016258D02*
X031687Y016184D01*
X031797Y016111D01*
X031687Y016111D02*
X031687Y016331D01*
X031612Y016258D02*
X031502Y016258D01*
X031466Y016221D01*
X031466Y016147D01*
X031502Y016111D01*
X031612Y016111D01*
X031391Y016111D02*
X031281Y016111D01*
X031245Y016147D01*
X031281Y016184D01*
X031391Y016184D01*
X031391Y016221D02*
X031391Y016111D01*
X031391Y016221D02*
X031355Y016258D01*
X031281Y016258D01*
X031171Y016258D02*
X031134Y016221D01*
X031024Y016221D01*
X031134Y016221D02*
X031171Y016184D01*
X031171Y016147D01*
X031134Y016111D01*
X031024Y016111D01*
X031024Y016331D01*
X031134Y016331D01*
X031171Y016294D01*
X031171Y016258D01*
X030729Y016331D02*
X030729Y016184D01*
X030655Y016111D01*
X030582Y016184D01*
X030582Y016331D01*
X030508Y016294D02*
X030508Y016258D01*
X030471Y016221D01*
X030508Y016184D01*
X030508Y016147D01*
X030471Y016111D01*
X030397Y016111D01*
X030361Y016147D01*
X030434Y016221D02*
X030471Y016221D01*
X030508Y016294D02*
X030471Y016331D01*
X030397Y016331D01*
X030361Y016294D01*
X033417Y016221D02*
X033417Y016184D01*
X035526Y015657D02*
X035746Y015657D01*
X035746Y015436D02*
X035526Y015436D01*
X014981Y017101D02*
X014981Y013101D01*
X011787Y015032D02*
X011750Y014996D01*
X011640Y014996D01*
X011640Y015216D01*
X011750Y015216D01*
X011787Y015179D01*
X011787Y015032D01*
X011566Y015032D02*
X011529Y014996D01*
X011456Y014996D01*
X011419Y015032D01*
X011456Y015106D02*
X011529Y015106D01*
X011566Y015069D01*
X011566Y015032D01*
X011456Y015106D02*
X011419Y015143D01*
X011419Y015179D01*
X011456Y015216D01*
X011529Y015216D01*
X011566Y015179D01*
X011345Y014959D02*
X011198Y014959D01*
X011124Y015032D02*
X011087Y014996D01*
X011014Y014996D01*
X010977Y015032D01*
X011124Y015179D01*
X011124Y015032D01*
X010977Y015032D02*
X010977Y015179D01*
X011014Y015216D01*
X011087Y015216D01*
X011124Y015179D01*
X010903Y015179D02*
X010866Y015216D01*
X010756Y015216D01*
X010756Y014996D01*
X010866Y014996D01*
X010903Y015032D01*
X010903Y015179D01*
X010682Y014996D02*
X010535Y014996D01*
X010535Y015216D01*
X009956Y015430D02*
X009956Y015503D01*
X009919Y015540D01*
X009992Y015614D02*
X009992Y015761D01*
X009956Y015835D02*
X009956Y015982D01*
X009956Y016056D02*
X009956Y016166D01*
X009919Y016203D01*
X009772Y016203D01*
X009736Y016166D01*
X009736Y016056D01*
X009956Y016056D01*
X009956Y015835D02*
X009736Y015835D01*
X009772Y015540D02*
X009736Y015503D01*
X009736Y015430D01*
X009772Y015393D01*
X009919Y015393D01*
X009956Y015430D01*
X008731Y015324D02*
X008621Y015471D01*
X008511Y015324D01*
X008584Y015545D02*
X008584Y015692D01*
X008657Y015692D02*
X008657Y015545D01*
X008731Y015766D02*
X008584Y015913D01*
X008547Y015913D01*
X008511Y015876D01*
X008511Y015803D01*
X008547Y015766D01*
X008731Y015766D02*
X008731Y015913D01*
X008731Y015987D02*
X008731Y016024D01*
X008694Y016024D01*
X008694Y015987D01*
X008731Y015987D01*
X008731Y016098D02*
X008584Y016245D01*
X008547Y016245D01*
X008511Y016208D01*
X008511Y016134D01*
X008547Y016098D01*
X008731Y016098D02*
X008731Y016245D01*
X008694Y016319D02*
X008731Y016355D01*
X008731Y016466D01*
X008584Y016466D01*
X008621Y016540D02*
X008621Y016613D01*
X008731Y016540D02*
X008511Y016540D01*
X008511Y016687D01*
X008584Y016319D02*
X008694Y016319D01*
X007971Y015768D02*
X007824Y015768D01*
X007898Y015768D02*
X007898Y015548D01*
X007750Y015548D02*
X007603Y015548D01*
X007603Y015768D01*
X007750Y015768D01*
X007677Y015658D02*
X007603Y015658D01*
X007529Y015622D02*
X007529Y015585D01*
X007492Y015548D01*
X007419Y015548D01*
X007382Y015585D01*
X007419Y015658D02*
X007492Y015658D01*
X007529Y015622D01*
X007529Y015732D02*
X007492Y015768D01*
X007419Y015768D01*
X007382Y015732D01*
X007382Y015695D01*
X007419Y015658D01*
X007308Y015548D02*
X007161Y015548D01*
X007161Y015768D01*
X007308Y015768D01*
X007235Y015658D02*
X007161Y015658D01*
X007087Y015658D02*
X007050Y015622D01*
X006940Y015622D01*
X007014Y015622D02*
X007087Y015548D01*
X007087Y015658D02*
X007087Y015732D01*
X007050Y015768D01*
X006940Y015768D01*
X006940Y015548D01*
X006866Y015512D02*
X006719Y015512D01*
X006645Y015585D02*
X006608Y015548D01*
X006535Y015548D01*
X006498Y015585D01*
X006498Y015732D01*
X006535Y015768D01*
X006608Y015768D01*
X006645Y015732D01*
X006231Y016031D02*
X006121Y016178D01*
X006011Y016031D01*
X006084Y016252D02*
X006084Y016399D01*
X006157Y016399D02*
X006157Y016252D01*
X006084Y016473D02*
X006011Y016546D01*
X006231Y016546D01*
X006231Y016473D02*
X006231Y016620D01*
X006194Y016694D02*
X006231Y016731D01*
X006231Y016841D01*
X006084Y016841D01*
X006121Y016915D02*
X006121Y016988D01*
X006231Y016915D02*
X006011Y016915D01*
X006011Y017062D01*
X006585Y017121D02*
X006695Y017121D01*
X006732Y017157D01*
X006732Y017304D01*
X006695Y017341D01*
X006585Y017341D01*
X006585Y017121D01*
X006806Y017121D02*
X006953Y017121D01*
X007027Y017157D02*
X007064Y017121D01*
X007137Y017121D01*
X007174Y017157D01*
X007248Y017157D02*
X007285Y017121D01*
X007358Y017121D01*
X007395Y017157D01*
X007395Y017304D01*
X007358Y017341D01*
X007285Y017341D01*
X007248Y017304D01*
X007248Y017157D01*
X007174Y017304D02*
X007137Y017341D01*
X007064Y017341D01*
X007027Y017304D01*
X007027Y017157D01*
X006879Y017231D02*
X006806Y017231D01*
X006806Y017341D02*
X006806Y017121D01*
X006806Y017341D02*
X006953Y017341D01*
X007469Y017341D02*
X007469Y017157D01*
X007506Y017121D01*
X007579Y017121D01*
X007616Y017157D01*
X007616Y017341D01*
X007690Y017341D02*
X007800Y017341D01*
X007837Y017304D01*
X007837Y017231D01*
X007800Y017194D01*
X007690Y017194D01*
X007690Y017121D02*
X007690Y017341D01*
X006194Y016694D02*
X006084Y016694D01*
X006011Y015437D02*
X006011Y015290D01*
X006231Y015290D01*
X006231Y015216D02*
X006084Y015216D01*
X006121Y015290D02*
X006121Y015363D01*
X006231Y015216D02*
X006231Y015105D01*
X006194Y015069D01*
X006084Y015069D01*
X006231Y014995D02*
X006231Y014848D01*
X006231Y014921D02*
X006011Y014921D01*
X006084Y014848D01*
X006194Y014774D02*
X006231Y014774D01*
X006231Y014737D01*
X006194Y014737D01*
X006194Y014774D01*
X006194Y014663D02*
X006231Y014626D01*
X006231Y014553D01*
X006194Y014516D01*
X006047Y014663D01*
X006194Y014663D01*
X006194Y014516D02*
X006047Y014516D01*
X006011Y014553D01*
X006011Y014626D01*
X006047Y014663D01*
X009736Y016314D02*
X009772Y016277D01*
X009919Y016277D01*
X009956Y016314D01*
X009956Y016387D01*
X009919Y016424D01*
X009772Y016424D01*
X009736Y016387D01*
X009736Y016314D01*
X009992Y016498D02*
X009992Y016645D01*
X009919Y016719D02*
X009956Y016756D01*
X009956Y016829D01*
X009919Y016866D01*
X009882Y016866D01*
X009846Y016829D01*
X009846Y016756D01*
X009809Y016719D01*
X009772Y016719D01*
X009736Y016756D01*
X009736Y016829D01*
X009772Y016866D01*
X009736Y016940D02*
X009736Y017050D01*
X009772Y017087D01*
X009919Y017087D01*
X009956Y017050D01*
X009956Y016940D01*
X009736Y016940D01*
X010410Y016971D02*
X010410Y017191D01*
X010410Y016971D02*
X010557Y016971D01*
X010631Y016971D02*
X010631Y017191D01*
X010741Y017191D01*
X010778Y017154D01*
X010778Y017081D01*
X010741Y017044D01*
X010631Y017044D01*
X010852Y016971D02*
X010999Y017118D01*
X010999Y017154D01*
X010962Y017191D01*
X010889Y017191D01*
X010852Y017154D01*
X010852Y016971D02*
X010999Y016971D01*
X011073Y017007D02*
X011110Y016971D01*
X011183Y016971D01*
X011220Y017007D01*
X011220Y017154D01*
X011183Y017191D01*
X011110Y017191D01*
X011073Y017154D01*
X011073Y017118D01*
X011110Y017081D01*
X011220Y017081D01*
X011294Y017118D02*
X011294Y017154D01*
X011331Y017191D01*
X011404Y017191D01*
X011441Y017154D01*
X011441Y017118D01*
X011404Y017081D01*
X011331Y017081D01*
X011294Y017118D01*
X011331Y017081D02*
X011294Y017044D01*
X011294Y017007D01*
X011331Y016971D01*
X011404Y016971D01*
X011441Y017007D01*
X011441Y017044D01*
X011404Y017081D01*
X011515Y017081D02*
X011588Y017118D01*
X011625Y017118D01*
X011662Y017081D01*
X011662Y017007D01*
X011625Y016971D01*
X011551Y016971D01*
X011515Y017007D01*
X011515Y017081D02*
X011515Y017191D01*
X011662Y017191D01*
D15*
X024713Y015327D02*
X024976Y015591D01*
X024976Y014800D01*
X024713Y014800D02*
X025240Y014800D01*
X026405Y014800D02*
X026933Y015327D01*
X026933Y015459D01*
X026801Y015591D01*
X026537Y015591D01*
X026405Y015459D01*
X026405Y014800D02*
X026933Y014800D01*
X026368Y016178D02*
X026104Y016178D01*
X025972Y016310D01*
X025972Y016837D01*
X026104Y016969D01*
X026368Y016969D01*
X026499Y016837D01*
X026499Y016310D02*
X026368Y016178D01*
X023536Y009816D02*
X023536Y009291D01*
X023431Y009186D01*
X023221Y009186D01*
X023116Y009291D01*
X023116Y009816D01*
X022892Y009711D02*
X022892Y009501D01*
X022787Y009396D01*
X022471Y009396D01*
X022471Y009186D02*
X022471Y009816D01*
X022787Y009816D01*
X022892Y009711D01*
X022247Y009501D02*
X021827Y009501D01*
X021603Y009501D02*
X021498Y009396D01*
X021182Y009396D01*
X021182Y009186D02*
X021182Y009816D01*
X021498Y009816D01*
X021603Y009711D01*
X021603Y009501D01*
X020958Y009396D02*
X020958Y009291D01*
X020853Y009186D01*
X020643Y009186D01*
X020538Y009291D01*
X020538Y009396D01*
X020643Y009501D01*
X020853Y009501D01*
X020958Y009396D01*
X020853Y009501D02*
X020958Y009606D01*
X020958Y009711D01*
X020853Y009816D01*
X020643Y009816D01*
X020538Y009711D01*
X020538Y009606D01*
X020643Y009501D01*
X020314Y009606D02*
X020314Y009711D01*
X020209Y009816D01*
X019998Y009816D01*
X019893Y009711D01*
X019669Y009711D02*
X019669Y009606D01*
X019564Y009501D01*
X019669Y009396D01*
X019669Y009291D01*
X019564Y009186D01*
X019354Y009186D01*
X019249Y009291D01*
X019025Y009186D02*
X019025Y009606D01*
X018814Y009816D01*
X018604Y009606D01*
X018604Y009186D01*
X018380Y009291D02*
X018380Y009501D01*
X018170Y009501D01*
X018380Y009291D02*
X018275Y009186D01*
X018065Y009186D01*
X017960Y009291D01*
X017960Y009711D01*
X018065Y009816D01*
X018275Y009816D01*
X018380Y009711D01*
X018604Y009501D02*
X019025Y009501D01*
X019249Y009711D02*
X019354Y009816D01*
X019564Y009816D01*
X019669Y009711D01*
X019564Y009501D02*
X019459Y009501D01*
X019893Y009186D02*
X020314Y009606D01*
X020314Y009186D02*
X019893Y009186D01*
X017736Y009186D02*
X017315Y009186D01*
X017315Y009816D01*
X017736Y009816D01*
X017091Y009816D02*
X017091Y009186D01*
X017315Y009501D02*
X017525Y009501D01*
X017091Y009816D02*
X016881Y009606D01*
X016671Y009816D01*
X016671Y009186D01*
X016236Y009186D02*
X016236Y009816D01*
X016026Y009816D02*
X016447Y009816D01*
X015802Y009606D02*
X015802Y009186D01*
X015802Y009501D02*
X015382Y009501D01*
X015382Y009606D02*
X015382Y009186D01*
X015382Y009606D02*
X015592Y009816D01*
X015802Y009606D01*
D16*
X020351Y012351D02*
X020351Y012851D01*
X022476Y012851D02*
X022476Y012351D01*
X029601Y013476D02*
X029601Y013976D01*
X029601Y013476D02*
X030601Y012476D01*
X033601Y012476D01*
X034601Y013476D01*
X034601Y013976D01*
X036101Y014976D02*
X036351Y014726D01*
X036851Y014726D01*
X037101Y014976D01*
X037101Y015476D01*
X036851Y015726D01*
X037101Y015976D01*
X037101Y016476D01*
X036851Y016726D01*
X036351Y016726D01*
X036101Y016476D01*
X036101Y015976D01*
X036351Y015726D01*
X036101Y015476D01*
X036101Y014976D01*
X034601Y015976D02*
X034601Y016576D01*
X034599Y016630D01*
X034593Y016683D01*
X034584Y016736D01*
X034571Y016789D01*
X034554Y016840D01*
X034534Y016890D01*
X034510Y016939D01*
X034483Y016985D01*
X034453Y017030D01*
X034419Y017072D01*
X034383Y017112D01*
X034344Y017150D01*
X034302Y017184D01*
X034259Y017216D01*
X034213Y017244D01*
X034165Y017269D01*
X034115Y017291D01*
X034064Y017309D01*
X034012Y017324D01*
X033960Y017334D01*
X033906Y017341D01*
X033852Y017345D01*
X033798Y017344D01*
X033744Y017340D01*
X033691Y017332D01*
X033638Y017320D01*
X033586Y017305D01*
X033536Y017286D01*
X033487Y017263D01*
X033439Y017237D01*
X033394Y017208D01*
X033351Y017176D01*
X033300Y017115D01*
X033245Y017057D01*
X033188Y017001D01*
X033128Y016949D01*
X033066Y016899D01*
X033001Y016853D01*
X032934Y016810D01*
X032865Y016770D01*
X032794Y016734D01*
X032722Y016701D01*
X032647Y016672D01*
X032572Y016647D01*
X032495Y016625D01*
X032418Y016608D01*
X032339Y016594D01*
X032260Y016584D01*
X032181Y016578D01*
X032101Y016576D01*
X032021Y016578D01*
X031942Y016584D01*
X031863Y016594D01*
X031784Y016608D01*
X031707Y016625D01*
X031630Y016647D01*
X031555Y016672D01*
X031480Y016701D01*
X031408Y016734D01*
X031337Y016770D01*
X031268Y016810D01*
X031201Y016853D01*
X031136Y016899D01*
X031074Y016949D01*
X031014Y017001D01*
X030957Y017057D01*
X030902Y017115D01*
X030851Y017176D01*
X030850Y017175D02*
X030805Y017206D01*
X030758Y017233D01*
X030709Y017257D01*
X030658Y017278D01*
X030606Y017295D01*
X030553Y017308D01*
X030499Y017318D01*
X030445Y017324D01*
X030390Y017326D01*
X030336Y017324D01*
X030281Y017319D01*
X030227Y017310D01*
X030174Y017297D01*
X030122Y017280D01*
X030071Y017260D01*
X030022Y017236D01*
X029974Y017209D01*
X029929Y017179D01*
X029886Y017146D01*
X029845Y017109D01*
X029806Y017070D01*
X029771Y017029D01*
X029738Y016985D01*
X029709Y016939D01*
X029683Y016891D01*
X029660Y016841D01*
X029641Y016790D01*
X029625Y016737D01*
X029613Y016684D01*
X029605Y016630D01*
X029601Y016576D01*
X029601Y015976D01*
X036804Y009131D02*
X037054Y009381D01*
X037554Y009381D01*
X037804Y009131D01*
X037804Y008631D01*
X037554Y008381D01*
X037804Y008131D01*
X037804Y007631D01*
X037554Y007381D01*
X037804Y007131D01*
X037804Y006631D01*
X037554Y006381D01*
X037804Y006131D01*
X037804Y005631D01*
X037554Y005381D01*
X037804Y005131D01*
X037804Y004631D01*
X037554Y004381D01*
X037804Y004131D01*
X037804Y003631D01*
X037554Y003381D01*
X037054Y003381D01*
X036804Y003631D01*
X036804Y004131D01*
X037054Y004381D01*
X036804Y004631D01*
X036804Y005131D01*
X037054Y005381D01*
X036804Y005631D01*
X036804Y006131D01*
X037054Y006381D01*
X036804Y006631D01*
X036804Y007131D01*
X037054Y007381D01*
X036804Y007631D01*
X036804Y008131D01*
X037054Y008381D01*
X036804Y008631D01*
X036804Y009131D01*
X037140Y002939D02*
X031195Y002939D01*
X031195Y000498D01*
X037140Y000498D01*
X037140Y000183D01*
X031195Y000183D01*
X031195Y000498D01*
X031136Y000498D02*
X019695Y000498D01*
X019695Y002939D01*
X031136Y002939D01*
X031136Y000498D01*
X031136Y000183D01*
X019695Y000183D01*
X019695Y000498D01*
X019701Y000498D02*
X008260Y000498D01*
X008260Y002939D01*
X019701Y002939D01*
X019701Y000498D01*
X019701Y000183D01*
X008260Y000183D01*
X008260Y000498D01*
X005476Y001851D02*
X004976Y001851D01*
X003851Y001851D02*
X003351Y001851D01*
X004101Y014976D02*
X005089Y014976D01*
X005601Y015369D02*
X005601Y016582D01*
X005089Y016976D02*
X004113Y016976D01*
X003601Y016582D02*
X003601Y015369D01*
X004101Y015976D02*
X004103Y016020D01*
X004109Y016064D01*
X004119Y016107D01*
X004132Y016149D01*
X004149Y016190D01*
X004170Y016229D01*
X004194Y016266D01*
X004221Y016301D01*
X004251Y016333D01*
X004284Y016363D01*
X004320Y016389D01*
X004357Y016413D01*
X004397Y016432D01*
X004438Y016449D01*
X004481Y016461D01*
X004524Y016470D01*
X004568Y016475D01*
X004612Y016476D01*
X004656Y016473D01*
X004700Y016466D01*
X004743Y016455D01*
X004785Y016441D01*
X004825Y016423D01*
X004864Y016401D01*
X004900Y016377D01*
X004934Y016349D01*
X004966Y016318D01*
X004995Y016284D01*
X005021Y016248D01*
X005043Y016210D01*
X005062Y016170D01*
X005077Y016128D01*
X005089Y016086D01*
X005097Y016042D01*
X005101Y015998D01*
X005101Y015954D01*
X005097Y015910D01*
X005089Y015866D01*
X005077Y015824D01*
X005062Y015782D01*
X005043Y015742D01*
X005021Y015704D01*
X004995Y015668D01*
X004966Y015634D01*
X004934Y015603D01*
X004900Y015575D01*
X004864Y015551D01*
X004825Y015529D01*
X004785Y015511D01*
X004743Y015497D01*
X004700Y015486D01*
X004656Y015479D01*
X004612Y015476D01*
X004568Y015477D01*
X004524Y015482D01*
X004481Y015491D01*
X004438Y015503D01*
X004397Y015520D01*
X004357Y015539D01*
X004320Y015563D01*
X004284Y015589D01*
X004251Y015619D01*
X004221Y015651D01*
X004194Y015686D01*
X004170Y015723D01*
X004149Y015762D01*
X004132Y015803D01*
X004119Y015845D01*
X004109Y015888D01*
X004103Y015932D01*
X004101Y015976D01*
X007226Y016476D02*
X007226Y016976D01*
X008976Y016351D02*
X009476Y016351D01*
X007226Y015351D02*
X007226Y014851D01*
X037140Y002939D02*
X037140Y000498D01*
D17*
X027976Y006681D03*
X027976Y007181D03*
X027976Y010021D03*
X027976Y010521D03*
D18*
X027976Y010351D02*
X027976Y010201D01*
X027976Y007001D02*
X027976Y006851D01*
D19*
X035858Y010204D02*
X035858Y010795D01*
X035858Y010204D02*
X040976Y010204D01*
X035858Y013157D02*
X035858Y013747D01*
X040976Y013747D01*
X022976Y015026D02*
X022676Y014726D01*
X022176Y014726D01*
X021976Y014926D01*
X021776Y014726D01*
X021176Y014726D01*
X020976Y014926D01*
X020776Y014726D01*
X020276Y014726D01*
X019976Y015026D01*
X019976Y016426D01*
X020276Y016726D01*
X020776Y016726D01*
X020976Y016526D01*
X021176Y016726D01*
X021776Y016726D01*
X021976Y016526D01*
X022176Y016726D01*
X022676Y016726D01*
X022976Y016426D01*
X022976Y015026D01*
X014576Y015022D02*
X014501Y014946D01*
X014576Y015022D02*
X014576Y015172D01*
X014501Y015247D01*
X014351Y015247D01*
X014276Y015172D01*
X014276Y015097D01*
X014351Y014946D01*
X014125Y014946D01*
X014125Y015247D01*
X014200Y015407D02*
X014125Y015482D01*
X014125Y015632D01*
X014200Y015707D01*
X014501Y015407D01*
X014576Y015482D01*
X014576Y015632D01*
X014501Y015707D01*
X014200Y015707D01*
X014125Y015867D02*
X014125Y016092D01*
X014200Y016167D01*
X014501Y016167D01*
X014576Y016092D01*
X014576Y015867D01*
X014125Y015867D01*
X014200Y015407D02*
X014501Y015407D01*
X014501Y014786D02*
X014576Y014711D01*
X014576Y014561D01*
X014501Y014486D01*
X014200Y014786D01*
X014501Y014786D01*
X014501Y014486D02*
X014200Y014486D01*
X014125Y014561D01*
X014125Y014711D01*
X014200Y014786D01*
X014351Y014326D02*
X014351Y014026D01*
X014125Y014251D01*
X014576Y014251D01*
X010101Y014173D02*
X010101Y004803D01*
X009117Y004803D01*
X009117Y003779D01*
X000219Y003740D01*
X000219Y004173D01*
X000258Y004251D01*
X000219Y004173D02*
X000219Y013818D01*
X000337Y013858D01*
X000219Y013818D02*
X000219Y014173D01*
X010101Y014173D01*
X000337Y013858D02*
X000534Y012908D01*
X000686Y011951D01*
X000793Y010987D01*
X000853Y010019D01*
X000868Y009050D01*
X000837Y008081D01*
X000761Y007114D01*
X000639Y006152D01*
X000471Y005198D01*
X000258Y004252D01*
D20*
X008671Y002756D02*
X008671Y002606D01*
X008671Y002681D02*
X008771Y002681D01*
X008818Y002731D02*
X008843Y002756D01*
X008893Y002756D01*
X008918Y002731D01*
X008818Y002631D01*
X008843Y002606D01*
X008893Y002606D01*
X008918Y002631D01*
X008918Y002731D01*
X008818Y002731D02*
X008818Y002631D01*
X008771Y002606D02*
X008771Y002756D01*
X020106Y002606D02*
X020106Y002756D01*
X020106Y002681D02*
X020206Y002681D01*
X020253Y002706D02*
X020303Y002756D01*
X020303Y002606D01*
X020253Y002606D02*
X020353Y002606D01*
X020206Y002606D02*
X020206Y002756D01*
X025370Y005928D02*
X025448Y005973D01*
X025448Y005972D02*
X025476Y005928D01*
X025507Y005886D01*
X025540Y005846D01*
X025576Y005808D01*
X025615Y005773D01*
X025656Y005741D01*
X025700Y005711D01*
X025745Y005685D01*
X025792Y005662D01*
X025840Y005642D01*
X025890Y005626D01*
X025940Y005613D01*
X025992Y005604D01*
X026044Y005598D01*
X026096Y005596D01*
X026097Y005507D01*
X026096Y005506D01*
X026041Y005508D01*
X025987Y005514D01*
X025932Y005523D01*
X025879Y005536D01*
X025827Y005552D01*
X025775Y005571D01*
X025725Y005594D01*
X025677Y005620D01*
X025630Y005649D01*
X025586Y005681D01*
X025543Y005716D01*
X025503Y005754D01*
X025466Y005794D01*
X025431Y005836D01*
X025399Y005881D01*
X025370Y005927D01*
X025378Y005932D01*
X025406Y005886D01*
X025438Y005842D01*
X025473Y005800D01*
X025510Y005760D01*
X025549Y005723D01*
X025591Y005688D01*
X025635Y005657D01*
X025681Y005628D01*
X025729Y005602D01*
X025779Y005580D01*
X025829Y005560D01*
X025881Y005544D01*
X025934Y005532D01*
X025988Y005523D01*
X026042Y005517D01*
X026096Y005515D01*
X026096Y005524D01*
X026042Y005526D01*
X025989Y005532D01*
X025936Y005541D01*
X025884Y005553D01*
X025832Y005569D01*
X025782Y005588D01*
X025733Y005610D01*
X025686Y005636D01*
X025640Y005664D01*
X025597Y005696D01*
X025555Y005730D01*
X025516Y005766D01*
X025479Y005806D01*
X025445Y005847D01*
X025414Y005891D01*
X025385Y005936D01*
X025393Y005941D01*
X025423Y005893D01*
X025457Y005847D01*
X025493Y005804D01*
X025533Y005763D01*
X025575Y005725D01*
X025619Y005690D01*
X025666Y005658D01*
X025715Y005630D01*
X025766Y005605D01*
X025819Y005583D01*
X025872Y005566D01*
X025927Y005552D01*
X025983Y005542D01*
X026039Y005535D01*
X026096Y005533D01*
X026096Y005542D01*
X026040Y005544D01*
X025984Y005550D01*
X025929Y005560D01*
X025875Y005574D01*
X025822Y005592D01*
X025770Y005613D01*
X025719Y005638D01*
X025671Y005666D01*
X025625Y005697D01*
X025580Y005732D01*
X025539Y005769D01*
X025500Y005810D01*
X025464Y005852D01*
X025431Y005898D01*
X025401Y005945D01*
X025409Y005950D01*
X025438Y005903D01*
X025471Y005858D01*
X025507Y005816D01*
X025545Y005776D01*
X025586Y005739D01*
X025630Y005704D01*
X025676Y005673D01*
X025724Y005646D01*
X025773Y005621D01*
X025825Y005600D01*
X025877Y005583D01*
X025931Y005569D01*
X025986Y005559D01*
X026041Y005553D01*
X026096Y005551D01*
X026096Y005560D01*
X026041Y005562D01*
X025987Y005568D01*
X025933Y005578D01*
X025880Y005592D01*
X025828Y005609D01*
X025777Y005629D01*
X025728Y005654D01*
X025681Y005681D01*
X025635Y005712D01*
X025592Y005745D01*
X025551Y005782D01*
X025513Y005822D01*
X025478Y005864D01*
X025446Y005908D01*
X025417Y005954D01*
X025425Y005959D01*
X025453Y005913D01*
X025485Y005869D01*
X025520Y005828D01*
X025558Y005789D01*
X025598Y005752D01*
X025640Y005719D01*
X025685Y005689D01*
X025732Y005661D01*
X025781Y005638D01*
X025831Y005617D01*
X025882Y005600D01*
X025935Y005587D01*
X025988Y005577D01*
X026042Y005571D01*
X026096Y005569D01*
X026096Y005578D01*
X026043Y005580D01*
X025989Y005586D01*
X025937Y005596D01*
X025885Y005609D01*
X025834Y005626D01*
X025784Y005646D01*
X025736Y005669D01*
X025690Y005696D01*
X025646Y005726D01*
X025604Y005759D01*
X025564Y005795D01*
X025527Y005834D01*
X025492Y005875D01*
X025461Y005918D01*
X025432Y005963D01*
X025440Y005968D01*
X025468Y005923D01*
X025499Y005880D01*
X025533Y005840D01*
X025570Y005802D01*
X025609Y005766D01*
X025651Y005734D01*
X025695Y005704D01*
X025741Y005677D01*
X025788Y005654D01*
X025837Y005634D01*
X025887Y005617D01*
X025939Y005604D01*
X025991Y005595D01*
X026043Y005589D01*
X026096Y005587D01*
X026105Y005507D02*
X026105Y005597D01*
X026106Y005596D02*
X026160Y005598D01*
X026213Y005604D01*
X026266Y005614D01*
X026318Y005628D01*
X026369Y005645D01*
X026419Y005666D01*
X026467Y005690D01*
X026513Y005718D01*
X026557Y005749D01*
X026598Y005783D01*
X026638Y005820D01*
X026674Y005859D01*
X026742Y005802D01*
X026743Y005801D01*
X026705Y005760D01*
X026665Y005722D01*
X026622Y005686D01*
X026577Y005653D01*
X026530Y005623D01*
X026482Y005597D01*
X026431Y005573D01*
X026379Y005553D01*
X026326Y005537D01*
X026272Y005523D01*
X026217Y005514D01*
X026162Y005508D01*
X026106Y005506D01*
X026106Y005515D01*
X026161Y005517D01*
X026216Y005523D01*
X026270Y005532D01*
X026324Y005545D01*
X026376Y005562D01*
X026428Y005581D01*
X026478Y005605D01*
X026526Y005631D01*
X026572Y005661D01*
X026617Y005693D01*
X026659Y005728D01*
X026699Y005767D01*
X026736Y005807D01*
X026729Y005813D01*
X026692Y005773D01*
X026653Y005735D01*
X026611Y005700D01*
X026567Y005668D01*
X026521Y005639D01*
X026473Y005613D01*
X026424Y005590D01*
X026373Y005570D01*
X026321Y005554D01*
X026268Y005541D01*
X026215Y005532D01*
X026160Y005526D01*
X026106Y005524D01*
X026106Y005533D01*
X026160Y005535D01*
X026213Y005541D01*
X026266Y005550D01*
X026319Y005563D01*
X026370Y005579D01*
X026421Y005598D01*
X026469Y005621D01*
X026517Y005646D01*
X026562Y005675D01*
X026606Y005707D01*
X026647Y005742D01*
X026686Y005779D01*
X026722Y005819D01*
X026715Y005825D01*
X026679Y005785D01*
X026641Y005748D01*
X026600Y005714D01*
X026557Y005683D01*
X026512Y005654D01*
X026465Y005629D01*
X026417Y005606D01*
X026367Y005587D01*
X026316Y005571D01*
X026265Y005559D01*
X026212Y005550D01*
X026159Y005544D01*
X026106Y005542D01*
X026106Y005551D01*
X026159Y005553D01*
X026211Y005559D01*
X026263Y005568D01*
X026314Y005580D01*
X026364Y005596D01*
X026414Y005615D01*
X026461Y005637D01*
X026508Y005662D01*
X026552Y005690D01*
X026594Y005721D01*
X026635Y005755D01*
X026673Y005792D01*
X026708Y005830D01*
X026702Y005836D01*
X026666Y005798D01*
X026629Y005762D01*
X026589Y005728D01*
X026547Y005698D01*
X026503Y005670D01*
X026457Y005645D01*
X026410Y005623D01*
X026361Y005604D01*
X026312Y005589D01*
X026261Y005576D01*
X026210Y005568D01*
X026158Y005562D01*
X026106Y005560D01*
X026106Y005569D01*
X026162Y005571D01*
X026217Y005578D01*
X026272Y005588D01*
X026326Y005602D01*
X026379Y005620D01*
X026430Y005642D01*
X026480Y005667D01*
X026528Y005696D01*
X026573Y005728D01*
X026616Y005763D01*
X026657Y005801D01*
X026695Y005842D01*
X026688Y005848D01*
X026651Y005807D01*
X026610Y005770D01*
X026568Y005735D01*
X026523Y005703D01*
X026475Y005675D01*
X026426Y005650D01*
X026375Y005628D01*
X026323Y005611D01*
X026270Y005597D01*
X026216Y005587D01*
X026161Y005580D01*
X026106Y005578D01*
X026106Y005587D01*
X026160Y005589D01*
X026215Y005595D01*
X026268Y005605D01*
X026321Y005619D01*
X026372Y005637D01*
X026422Y005658D01*
X026471Y005683D01*
X026518Y005711D01*
X026562Y005742D01*
X026604Y005776D01*
X026644Y005814D01*
X026681Y005854D01*
X026096Y007195D02*
X026096Y007105D01*
X026096Y007106D02*
X026042Y007104D01*
X025989Y007098D01*
X025936Y007088D01*
X025884Y007074D01*
X025833Y007057D01*
X025784Y007036D01*
X025736Y007012D01*
X025690Y006984D01*
X025646Y006953D01*
X025604Y006919D01*
X025565Y006883D01*
X025528Y006843D01*
X025495Y006801D01*
X025464Y006757D01*
X025437Y006711D01*
X025358Y006753D01*
X025386Y006802D01*
X025418Y006848D01*
X025453Y006893D01*
X025490Y006935D01*
X025531Y006974D01*
X025574Y007011D01*
X025619Y007045D01*
X025666Y007076D01*
X025716Y007103D01*
X025767Y007127D01*
X025819Y007148D01*
X025873Y007165D01*
X025928Y007178D01*
X025983Y007188D01*
X026040Y007194D01*
X026096Y007196D01*
X026096Y007187D01*
X026040Y007185D01*
X025985Y007179D01*
X025930Y007169D01*
X025875Y007156D01*
X025822Y007139D01*
X025770Y007119D01*
X025720Y007095D01*
X025671Y007068D01*
X025624Y007038D01*
X025579Y007004D01*
X025537Y006968D01*
X025497Y006929D01*
X025460Y006887D01*
X025425Y006843D01*
X025394Y006797D01*
X025366Y006749D01*
X025374Y006745D01*
X025402Y006792D01*
X025433Y006838D01*
X025467Y006881D01*
X025503Y006923D01*
X025543Y006961D01*
X025585Y006997D01*
X025629Y007030D01*
X025675Y007060D01*
X025724Y007087D01*
X025774Y007110D01*
X025825Y007131D01*
X025878Y007147D01*
X025931Y007160D01*
X025986Y007170D01*
X026041Y007176D01*
X026096Y007178D01*
X026096Y007169D01*
X026041Y007167D01*
X025987Y007161D01*
X025933Y007152D01*
X025880Y007139D01*
X025828Y007122D01*
X025777Y007102D01*
X025728Y007079D01*
X025680Y007052D01*
X025634Y007023D01*
X025590Y006990D01*
X025549Y006955D01*
X025510Y006916D01*
X025473Y006876D01*
X025440Y006833D01*
X025409Y006787D01*
X025382Y006740D01*
X025390Y006736D01*
X025417Y006783D01*
X025447Y006827D01*
X025480Y006870D01*
X025516Y006910D01*
X025555Y006948D01*
X025596Y006983D01*
X025639Y007015D01*
X025685Y007045D01*
X025732Y007071D01*
X025781Y007094D01*
X025831Y007114D01*
X025883Y007130D01*
X025935Y007143D01*
X025988Y007152D01*
X026042Y007158D01*
X026096Y007160D01*
X026096Y007151D01*
X026043Y007149D01*
X025989Y007143D01*
X025937Y007134D01*
X025885Y007121D01*
X025834Y007105D01*
X025784Y007086D01*
X025736Y007063D01*
X025689Y007037D01*
X025645Y007008D01*
X025602Y006976D01*
X025561Y006941D01*
X025523Y006904D01*
X025487Y006864D01*
X025454Y006822D01*
X025424Y006778D01*
X025397Y006732D01*
X025405Y006728D01*
X025432Y006773D01*
X025462Y006817D01*
X025494Y006858D01*
X025529Y006898D01*
X025567Y006935D01*
X025607Y006969D01*
X025650Y007001D01*
X025694Y007029D01*
X025740Y007055D01*
X025788Y007077D01*
X025837Y007097D01*
X025887Y007113D01*
X025939Y007125D01*
X025991Y007134D01*
X026043Y007140D01*
X026096Y007142D01*
X026096Y007133D01*
X026040Y007131D01*
X025985Y007124D01*
X025930Y007114D01*
X025876Y007100D01*
X025824Y007082D01*
X025772Y007061D01*
X025723Y007035D01*
X025675Y007007D01*
X025629Y006975D01*
X025586Y006940D01*
X025546Y006902D01*
X025508Y006861D01*
X025473Y006817D01*
X025442Y006771D01*
X025413Y006723D01*
X025421Y006719D01*
X025449Y006767D01*
X025480Y006812D01*
X025515Y006855D01*
X025552Y006895D01*
X025592Y006933D01*
X025635Y006968D01*
X025680Y006999D01*
X025727Y007028D01*
X025776Y007052D01*
X025827Y007074D01*
X025879Y007091D01*
X025932Y007105D01*
X025986Y007115D01*
X026041Y007122D01*
X026096Y007124D01*
X026096Y007115D01*
X026042Y007113D01*
X025988Y007107D01*
X025934Y007097D01*
X025882Y007083D01*
X025830Y007065D01*
X025780Y007044D01*
X025731Y007020D01*
X025685Y006992D01*
X025640Y006960D01*
X025598Y006926D01*
X025559Y006889D01*
X025522Y006849D01*
X025488Y006807D01*
X025457Y006762D01*
X025429Y006715D01*
X026746Y006895D02*
X026677Y006838D01*
X026678Y006838D02*
X026641Y006878D01*
X026602Y006916D01*
X026560Y006950D01*
X026516Y006982D01*
X026470Y007010D01*
X026421Y007035D01*
X026371Y007056D01*
X026320Y007074D01*
X026267Y007087D01*
X026214Y007097D01*
X026160Y007104D01*
X026106Y007106D01*
X026105Y007195D01*
X026106Y007196D01*
X026162Y007194D01*
X026218Y007188D01*
X026273Y007178D01*
X026328Y007165D01*
X026381Y007148D01*
X026434Y007128D01*
X026485Y007104D01*
X026534Y007077D01*
X026581Y007046D01*
X026626Y007013D01*
X026669Y006977D01*
X026709Y006938D01*
X026747Y006896D01*
X026740Y006890D01*
X026703Y006931D01*
X026663Y006970D01*
X026621Y007006D01*
X026576Y007039D01*
X026529Y007069D01*
X026481Y007096D01*
X026430Y007119D01*
X026378Y007140D01*
X026325Y007156D01*
X026271Y007169D01*
X026217Y007179D01*
X026162Y007185D01*
X026106Y007187D01*
X026106Y007178D01*
X026161Y007176D01*
X026216Y007170D01*
X026270Y007161D01*
X026323Y007148D01*
X026375Y007131D01*
X026427Y007111D01*
X026476Y007088D01*
X026525Y007061D01*
X026571Y007032D01*
X026615Y006999D01*
X026657Y006963D01*
X026696Y006925D01*
X026733Y006884D01*
X026726Y006879D01*
X026690Y006919D01*
X026651Y006957D01*
X026609Y006992D01*
X026566Y007024D01*
X026520Y007054D01*
X026472Y007080D01*
X026423Y007103D01*
X026373Y007123D01*
X026321Y007139D01*
X026268Y007152D01*
X026214Y007161D01*
X026160Y007167D01*
X026106Y007169D01*
X026106Y007160D01*
X026160Y007158D01*
X026213Y007152D01*
X026266Y007143D01*
X026318Y007130D01*
X026370Y007114D01*
X026420Y007095D01*
X026468Y007072D01*
X026515Y007046D01*
X026561Y007017D01*
X026604Y006985D01*
X026645Y006950D01*
X026683Y006913D01*
X026719Y006873D01*
X026712Y006867D01*
X026677Y006906D01*
X026639Y006943D01*
X026598Y006978D01*
X026555Y007009D01*
X026511Y007038D01*
X026464Y007064D01*
X026416Y007086D01*
X026367Y007106D01*
X026316Y007122D01*
X026264Y007134D01*
X026212Y007143D01*
X026159Y007149D01*
X026106Y007151D01*
X026106Y007142D01*
X026158Y007140D01*
X026211Y007134D01*
X026262Y007125D01*
X026313Y007113D01*
X026364Y007097D01*
X026413Y007078D01*
X026460Y007056D01*
X026506Y007030D01*
X026550Y007002D01*
X026592Y006971D01*
X026633Y006937D01*
X026670Y006900D01*
X026705Y006861D01*
X026699Y006855D01*
X026664Y006894D01*
X026626Y006930D01*
X026587Y006964D01*
X026545Y006995D01*
X026501Y007023D01*
X026456Y007048D01*
X026409Y007070D01*
X026361Y007089D01*
X026311Y007104D01*
X026261Y007117D01*
X026210Y007125D01*
X026158Y007131D01*
X026106Y007133D01*
X026106Y007124D01*
X026157Y007122D01*
X026208Y007117D01*
X026259Y007108D01*
X026309Y007096D01*
X026358Y007080D01*
X026405Y007062D01*
X026452Y007040D01*
X026497Y007015D01*
X026540Y006987D01*
X026581Y006957D01*
X026620Y006924D01*
X026657Y006888D01*
X026692Y006850D01*
X026685Y006844D01*
X026648Y006885D01*
X026608Y006923D01*
X026566Y006957D01*
X026521Y006989D01*
X026474Y007018D01*
X026425Y007043D01*
X026374Y007064D01*
X026323Y007082D01*
X026269Y007096D01*
X026215Y007106D01*
X026161Y007113D01*
X026106Y007115D01*
X031606Y002756D02*
X031606Y002606D01*
X031606Y002681D02*
X031706Y002681D01*
X031753Y002731D02*
X031778Y002756D01*
X031828Y002756D01*
X031853Y002731D01*
X031853Y002706D01*
X031753Y002606D01*
X031853Y002606D01*
X031706Y002606D02*
X031706Y002756D01*
D21*
X023146Y005226D03*
X020306Y005226D03*
X020646Y006601D03*
X017806Y006601D03*
X015521Y006601D03*
X012681Y006601D03*
D22*
X026721Y006661D02*
X026721Y006861D01*
X026721Y006021D02*
X026721Y005841D01*
D23*
X027119Y014608D02*
X024678Y014608D01*
X024678Y017167D01*
X027119Y017167D01*
X027119Y014608D01*
D24*
X038272Y007716D02*
X038343Y007771D01*
X038401Y007811D01*
X038469Y007846D01*
X038539Y007876D01*
X038617Y007895D01*
X038686Y007906D01*
X038719Y007905D01*
X038767Y007899D01*
X038818Y007888D01*
X038864Y007872D01*
X038909Y007851D01*
X038898Y007859D02*
X038993Y007758D01*
X039134Y007611D01*
X039301Y007434D01*
X039473Y007253D01*
X039606Y007113D01*
X039804Y006904D01*
X039899Y006804D01*
X040077Y006617D01*
X040205Y006481D01*
X040216Y006474D02*
X040143Y006538D01*
X040068Y006585D01*
X039961Y006626D01*
X039799Y006662D01*
X039647Y006679D01*
X039548Y006683D01*
X039431Y006681D01*
X039262Y006662D01*
X039165Y006637D01*
X039137Y006633D01*
X039069Y006615D01*
X038943Y006552D01*
X038863Y006463D01*
X038833Y006389D01*
X038824Y006296D01*
X038828Y006226D01*
X038853Y006056D01*
X038914Y005924D01*
X038997Y005840D01*
X039121Y005758D01*
X039239Y005717D01*
X039358Y005706D01*
X039562Y005723D01*
X039729Y005762D01*
X039896Y005826D01*
X040039Y005908D01*
X040143Y006000D01*
X040228Y006109D01*
X040289Y006228D01*
X040292Y006352D01*
X040216Y006474D01*
X040100Y006336D02*
X040012Y006424D01*
X039906Y006481D01*
X039802Y006510D01*
X039635Y006533D01*
X039490Y006536D01*
X039384Y006529D01*
X039253Y006501D01*
X039228Y006497D01*
X039167Y006481D01*
X039078Y006434D01*
X039034Y006390D01*
X039002Y006332D01*
X038988Y006236D01*
X038993Y006150D01*
X039010Y006051D01*
X039057Y005948D01*
X039153Y005859D01*
X039218Y005818D01*
X039349Y005781D01*
X039526Y005786D01*
X039669Y005815D01*
X039789Y005857D01*
X039905Y005917D01*
X040012Y006006D01*
X040069Y006077D01*
X040108Y006142D01*
X040133Y006253D01*
X040100Y006336D01*
X039945Y006273D02*
X039895Y006321D01*
X039817Y006361D01*
X039724Y006384D01*
X039622Y006394D01*
X039489Y006392D01*
X039388Y006372D01*
X039376Y006370D01*
X039347Y006363D01*
X039308Y006349D01*
X039267Y006323D01*
X039226Y006273D01*
X039212Y006195D01*
X039219Y006109D01*
X039247Y006020D01*
X039282Y005975D01*
X039365Y005916D01*
X039471Y005890D01*
X039606Y005900D01*
X039757Y005947D01*
X039823Y005982D01*
X039895Y006042D01*
X039908Y006057D01*
X039969Y006155D01*
X039972Y006226D01*
X039945Y006273D01*
X039864Y006169D02*
X039822Y006220D01*
X039779Y006242D01*
X039723Y006255D01*
X039617Y006260D01*
X039547Y006248D01*
X039522Y006243D01*
X039476Y006217D01*
X039457Y006191D01*
X039451Y006152D01*
X039456Y006094D01*
X039472Y006053D01*
X039534Y006000D01*
X039597Y005986D01*
X039677Y005994D01*
X039783Y006036D01*
X039822Y006068D01*
X039858Y006119D01*
X039864Y006169D01*
X038882Y005976D02*
X038865Y006014D01*
X038747Y006264D01*
X038659Y006449D01*
X038493Y006800D01*
X038345Y007113D01*
X038254Y007304D01*
X038199Y007441D01*
X038131Y007607D01*
X038127Y007573D02*
X038186Y007638D01*
X038272Y007716D01*
X038518Y007421D02*
X038459Y007355D01*
X038422Y007293D01*
X038401Y007220D01*
X038406Y007154D01*
X038434Y007088D01*
X038481Y007034D01*
X038573Y006976D01*
X038665Y006956D01*
X038709Y006970D01*
X038724Y006992D01*
X038723Y007024D01*
X038682Y007146D01*
X038611Y007282D01*
X038549Y007379D01*
X038526Y007410D01*
X038518Y007421D01*
X038683Y007184D02*
X038598Y007077D01*
X038567Y006980D01*
X038570Y006925D01*
X038596Y006858D01*
X038632Y006810D01*
X038697Y006760D01*
X038785Y006724D01*
X038834Y006719D01*
X038871Y006729D01*
X038889Y006752D01*
X038889Y006787D01*
X038868Y006859D01*
X038838Y006930D01*
X038805Y006997D01*
X038770Y007057D01*
X038737Y007109D01*
X038709Y007149D01*
X038691Y007175D01*
X038683Y007184D01*
X039106Y007388D02*
X039128Y007410D01*
X039143Y007393D01*
X039181Y007349D01*
X039230Y007287D01*
X039280Y007219D01*
X039317Y007155D01*
X039331Y007119D01*
X039346Y007031D01*
X039354Y006940D01*
X039357Y006891D01*
X039358Y006871D01*
X039365Y006857D01*
X039391Y006838D01*
X039419Y006833D01*
X039320Y006855D02*
X039320Y006872D01*
X039318Y006918D01*
X039310Y007036D01*
X039299Y007100D01*
X039283Y007143D01*
X039261Y007173D01*
X039232Y007214D01*
X039187Y007276D01*
X039145Y007334D01*
X039117Y007373D01*
X039106Y007388D01*
X038960Y005541D02*
X038960Y004979D01*
X039269Y004979D01*
X039269Y004907D01*
X038874Y004907D01*
X038874Y005541D01*
X038960Y005541D01*
X038540Y005541D02*
X038782Y004907D01*
X038692Y004907D01*
X038635Y005070D01*
X038349Y005070D01*
X038291Y004907D01*
X038200Y004907D01*
X038442Y005541D01*
X038540Y005541D01*
X038491Y005457D02*
X038608Y005141D01*
X038374Y005141D01*
X038491Y005457D01*
X039320Y005249D02*
X039364Y005328D01*
X039433Y005378D01*
X039524Y005394D01*
X039615Y005378D01*
X039684Y005328D01*
X039728Y005249D01*
X039743Y005144D01*
X039728Y005040D01*
X039684Y004961D01*
X039615Y004911D01*
X039524Y004895D01*
X039433Y004911D01*
X039364Y004961D01*
X039320Y005040D01*
X039306Y005144D01*
X039320Y005249D01*
X039397Y005221D02*
X039388Y005144D01*
X039397Y005068D01*
X039424Y005010D01*
X039467Y004973D01*
X039524Y004961D01*
X039580Y004973D01*
X039623Y005010D01*
X039651Y005068D01*
X039660Y005144D01*
X039651Y005220D01*
X039623Y005278D01*
X039580Y005316D01*
X039524Y005328D01*
X039468Y005316D01*
X039425Y005279D01*
X039397Y005221D01*
X039838Y005150D02*
X039851Y005051D01*
X039891Y004974D01*
X039953Y004924D01*
X040032Y004907D01*
X040123Y004928D01*
X040185Y004991D01*
X040185Y004952D01*
X040176Y004881D01*
X040147Y004831D01*
X040099Y004801D01*
X040032Y004790D01*
X039963Y004799D01*
X039895Y004827D01*
X039895Y004751D01*
X039966Y004732D01*
X040044Y004726D01*
X040141Y004741D01*
X040209Y004785D01*
X040250Y004860D01*
X040263Y004966D01*
X040263Y005383D01*
X040185Y005383D01*
X040185Y005311D01*
X040123Y005374D01*
X040032Y005394D01*
X039953Y005378D01*
X039891Y005328D01*
X039851Y005250D01*
X039838Y005150D01*
X039919Y005150D02*
X039927Y005075D01*
X039953Y005019D01*
X039996Y004984D01*
X040052Y004972D01*
X040108Y004984D01*
X040150Y005019D01*
X040176Y005075D01*
X040185Y005150D01*
X040176Y005226D01*
X040150Y005282D01*
X040108Y005317D01*
X040052Y005329D01*
X039996Y005317D01*
X039953Y005282D01*
X039927Y005226D01*
X039919Y005150D01*
M02*
