G75*
%MOIN*%
%OFA0B0*%
%FSLAX25Y25*%
%IPPOS*%
%LPD*%
%AMOC8*
5,1,8,0,0,1.08239X$1,22.5*
%
%ADD10R,0.21000X0.07600*%
%ADD11R,0.04331X0.03937*%
%ADD12R,0.03150X0.04724*%
%ADD13R,0.02600X0.08000*%
%ADD14R,0.11024X0.07874*%
%ADD15R,0.15748X0.02756*%
%ADD16R,0.15748X0.04724*%
%ADD17R,0.15600X0.15600*%
%ADD18R,0.03937X0.04331*%
%ADD19R,0.05512X0.04724*%
%ADD20R,0.05512X0.03937*%
%ADD21R,0.02449X0.04803*%
%ADD22R,0.01600X0.04331*%
%ADD23R,0.05512X0.06299*%
%ADD24C,0.01181*%
%ADD25R,0.03937X0.05512*%
%ADD26R,0.02559X0.01969*%
%ADD27R,0.01400X0.02400*%
%ADD28R,0.06300X0.03900*%
%ADD29R,0.00984X0.03937*%
%ADD30R,0.03937X0.00984*%
%ADD31R,0.07874X0.07874*%
%ADD32R,0.03200X0.01200*%
%ADD33R,0.01200X0.03200*%
%ADD34R,0.12800X0.12800*%
%ADD35R,0.02100X0.07800*%
%ADD36R,0.03150X0.00787*%
%ADD37R,0.00787X0.03543*%
%ADD38R,0.02362X0.01575*%
%ADD39R,0.01575X0.02362*%
D10*
X0220300Y0120800D03*
X0258300Y0120800D03*
D11*
X0277347Y0112800D03*
X0284040Y0112800D03*
X0258146Y0104800D03*
X0251454Y0104800D03*
X0246146Y0104800D03*
X0239454Y0104800D03*
X0250481Y0092284D03*
X0258375Y0092284D03*
X0258375Y0085591D03*
X0250481Y0085591D03*
X0281792Y0090548D03*
X0288485Y0090548D03*
X0309954Y0082300D03*
X0316646Y0082300D03*
X0329954Y0068300D03*
X0336646Y0068300D03*
X0336646Y0052300D03*
X0329954Y0052300D03*
X0264646Y0054300D03*
X0257954Y0054300D03*
X0175646Y0126800D03*
X0168954Y0126800D03*
X0278485Y0138800D03*
X0285178Y0138800D03*
D12*
X0196843Y0128800D03*
X0189757Y0128800D03*
D13*
X0158800Y0135400D03*
X0153800Y0135400D03*
X0148800Y0135400D03*
X0143800Y0135400D03*
X0138800Y0135400D03*
X0133800Y0135400D03*
X0128800Y0135400D03*
X0123800Y0135400D03*
X0123800Y0111200D03*
X0128800Y0111200D03*
X0133800Y0111200D03*
X0138800Y0111200D03*
X0143800Y0111200D03*
X0148800Y0111200D03*
X0153800Y0111200D03*
X0158800Y0111200D03*
D14*
X0018473Y0037788D03*
X0100757Y0047237D03*
X0018473Y0147631D03*
X0100363Y0148024D03*
D15*
X0107843Y0141331D03*
X0107843Y0136607D03*
X0107843Y0131489D03*
D16*
X0107843Y0125190D03*
X0107843Y0115347D03*
X0107843Y0105505D03*
X0107843Y0095662D03*
X0107843Y0085820D03*
X0107843Y0075977D03*
X0107843Y0066135D03*
X0107843Y0056292D03*
D17*
X0334300Y0154300D03*
D18*
X0287757Y0129646D03*
X0287757Y0122954D03*
X0299954Y0110300D03*
X0306646Y0110300D03*
X0316800Y0113454D03*
X0316800Y0120146D03*
X0272257Y0096048D03*
X0272257Y0089355D03*
X0272316Y0083064D03*
X0272316Y0076371D03*
X0295800Y0078146D03*
X0295800Y0071454D03*
X0329954Y0076300D03*
X0336646Y0076300D03*
X0336646Y0060300D03*
X0329954Y0060300D03*
X0252646Y0054300D03*
X0245954Y0054300D03*
X0236800Y0052954D03*
X0236800Y0059646D03*
X0120646Y0149300D03*
X0113954Y0149300D03*
D19*
X0116300Y0158894D03*
X0116300Y0170706D03*
D20*
X0177631Y0117540D03*
X0168969Y0113800D03*
X0177631Y0110060D03*
X0322969Y0096300D03*
X0331631Y0092560D03*
X0331631Y0100040D03*
X0326969Y0113060D03*
X0335631Y0116800D03*
X0326969Y0120540D03*
D21*
X0307040Y0118643D03*
X0303300Y0118643D03*
X0299560Y0118643D03*
X0299560Y0128957D03*
X0303300Y0128957D03*
X0307040Y0128957D03*
D22*
X0165024Y0072950D03*
X0161875Y0072950D03*
X0158725Y0072950D03*
X0155576Y0072950D03*
X0155576Y0066650D03*
X0158725Y0066650D03*
X0161875Y0066650D03*
X0165024Y0066650D03*
X0135024Y0066650D03*
X0131875Y0066650D03*
X0128725Y0066650D03*
X0125576Y0066650D03*
X0125576Y0072950D03*
X0128725Y0072950D03*
X0131875Y0072950D03*
X0135024Y0072950D03*
D23*
X0276288Y0062300D03*
X0287312Y0062300D03*
X0301788Y0093800D03*
X0312812Y0093800D03*
D24*
X0358922Y0018375D02*
X0361678Y0018375D01*
X0358922Y0018375D02*
X0358922Y0021131D01*
X0361678Y0021131D01*
X0361678Y0018375D01*
X0361678Y0019555D02*
X0358922Y0019555D01*
X0358922Y0020735D02*
X0361678Y0020735D01*
X0365922Y0018375D02*
X0368678Y0018375D01*
X0365922Y0018375D02*
X0365922Y0021131D01*
X0368678Y0021131D01*
X0368678Y0018375D01*
X0368678Y0019555D02*
X0365922Y0019555D01*
X0365922Y0020735D02*
X0368678Y0020735D01*
X0368678Y0011469D02*
X0365922Y0011469D01*
X0365922Y0014225D01*
X0368678Y0014225D01*
X0368678Y0011469D01*
X0368678Y0012649D02*
X0365922Y0012649D01*
X0365922Y0013829D02*
X0368678Y0013829D01*
X0361678Y0011469D02*
X0358922Y0011469D01*
X0358922Y0014225D01*
X0361678Y0014225D01*
X0361678Y0011469D01*
X0361678Y0012649D02*
X0358922Y0012649D01*
X0358922Y0013829D02*
X0361678Y0013829D01*
D25*
X0254375Y0069607D03*
X0258115Y0078269D03*
X0250635Y0078269D03*
D26*
X0197761Y0058524D03*
X0192839Y0058524D03*
X0192839Y0055375D03*
X0197761Y0055375D03*
X0197761Y0052225D03*
X0192839Y0052225D03*
X0192839Y0049076D03*
X0197761Y0049076D03*
X0346339Y0023524D03*
X0346339Y0020375D03*
X0351261Y0020375D03*
X0351261Y0023524D03*
X0351261Y0017225D03*
X0346339Y0017225D03*
X0346339Y0014076D03*
X0351261Y0014076D03*
D27*
X0280431Y0123700D03*
X0277831Y0123700D03*
X0275231Y0123700D03*
X0275231Y0131900D03*
X0277831Y0131900D03*
X0280431Y0131900D03*
D28*
X0277831Y0127800D03*
D29*
X0306989Y0070548D03*
X0308957Y0070548D03*
X0310926Y0070548D03*
X0312894Y0070548D03*
X0314863Y0070548D03*
X0314863Y0054800D03*
X0312894Y0054800D03*
X0310926Y0054800D03*
X0308957Y0054800D03*
X0306989Y0054800D03*
D30*
X0303052Y0058737D03*
X0303052Y0060706D03*
X0303052Y0062674D03*
X0303052Y0064643D03*
X0303052Y0066611D03*
X0318800Y0066611D03*
X0318800Y0064643D03*
X0318800Y0062674D03*
X0318800Y0060706D03*
X0318800Y0058737D03*
D31*
X0310926Y0062674D03*
D32*
X0212500Y0078900D03*
X0212500Y0080900D03*
X0212500Y0082800D03*
X0212500Y0084800D03*
X0212500Y0086800D03*
X0212500Y0088800D03*
X0212500Y0090700D03*
X0212500Y0092700D03*
X0193100Y0092700D03*
X0193100Y0090700D03*
X0193100Y0088800D03*
X0193100Y0086800D03*
X0193100Y0084800D03*
X0193100Y0082800D03*
X0193100Y0080900D03*
X0193100Y0078900D03*
D33*
X0195900Y0076100D03*
X0197900Y0076100D03*
X0199800Y0076100D03*
X0201800Y0076100D03*
X0203800Y0076100D03*
X0205800Y0076100D03*
X0207700Y0076100D03*
X0209700Y0076100D03*
X0209700Y0095500D03*
X0207700Y0095500D03*
X0205800Y0095500D03*
X0203800Y0095500D03*
X0201800Y0095500D03*
X0199800Y0095500D03*
X0197900Y0095500D03*
X0195900Y0095500D03*
D34*
X0202800Y0085800D03*
D35*
X0226300Y0093500D03*
X0231300Y0093500D03*
X0236300Y0093500D03*
X0241300Y0093500D03*
X0241300Y0074100D03*
X0236300Y0074100D03*
X0231300Y0074100D03*
X0226300Y0074100D03*
D36*
X0281544Y0077316D03*
X0281544Y0079284D03*
X0287056Y0079284D03*
X0287056Y0077316D03*
D37*
X0284300Y0075741D03*
X0284300Y0080859D03*
D38*
X0281150Y0079678D03*
X0281150Y0076922D03*
X0287450Y0076922D03*
X0287450Y0079678D03*
D39*
X0284300Y0081450D03*
X0284300Y0075150D03*
M02*
