G75*
%MOIN*%
%OFA0B0*%
%FSLAX24Y24*%
%IPPOS*%
%LPD*%
%AMOC8*
5,1,8,0,0,1.08239X$1,22.5*
%
%ADD10C,0.0560*%
%ADD11R,0.1095X0.1095*%
%ADD12R,0.0800X0.0800*%
%ADD13C,0.0800*%
%ADD14OC8,0.0560*%
%ADD15C,0.0640*%
%ADD16C,0.0740*%
%ADD17C,0.1700*%
%ADD18C,0.0660*%
%ADD19C,0.1300*%
%ADD20C,0.0080*%
%ADD21C,0.0320*%
%ADD22C,0.0160*%
%ADD23OC8,0.0320*%
D10*
X020250Y012055D03*
X022150Y012055D03*
D11*
X030455Y015430D03*
X035655Y015430D03*
D12*
X013555Y016430D03*
X018254Y001930D03*
X029277Y001930D03*
X007230Y001930D03*
D13*
X008608Y001930D03*
X009986Y001930D03*
X011364Y001930D03*
X012742Y001930D03*
X014120Y001930D03*
X015498Y001930D03*
X016876Y001930D03*
X019632Y001930D03*
X021010Y001930D03*
X022387Y001930D03*
X023765Y001930D03*
X025143Y001930D03*
X026521Y001930D03*
X027899Y001930D03*
X030655Y001930D03*
X032033Y001930D03*
X033411Y001930D03*
X023201Y016430D03*
X021823Y016430D03*
X020445Y016430D03*
X019067Y016430D03*
X017689Y016430D03*
X016311Y016430D03*
X014933Y016430D03*
D14*
X025055Y016180D03*
X025055Y015180D03*
X025055Y014180D03*
X025055Y013180D03*
X025055Y012180D03*
X029055Y012180D03*
X029055Y013180D03*
X029055Y014180D03*
X029055Y015180D03*
X029055Y016180D03*
X029055Y017180D03*
X025055Y017180D03*
D15*
X010180Y017055D03*
X009180Y017055D03*
X008180Y017055D03*
X008180Y016055D03*
X009180Y016055D03*
X010180Y016055D03*
D16*
X005835Y015290D03*
X003275Y015290D03*
X003275Y017070D03*
X005835Y017070D03*
X016555Y012680D03*
X016555Y011680D03*
X005835Y003570D03*
X003275Y003570D03*
X003275Y001790D03*
X005835Y001790D03*
D17*
X034781Y010505D03*
X037143Y010505D03*
X035962Y012355D03*
D18*
X035680Y005922D03*
X034900Y005922D03*
X034900Y004938D03*
X035680Y004938D03*
D19*
X036750Y003060D03*
X036750Y007800D03*
D20*
X031990Y009010D02*
X031930Y009070D01*
X031090Y009070D01*
X031690Y008710D02*
X030310Y007330D01*
X028270Y007150D02*
X027610Y006490D01*
X031990Y002110D01*
X031990Y001930D01*
X032033Y001930D01*
X033370Y001930D02*
X033411Y001930D01*
X033370Y001930D02*
X033370Y002110D01*
X030310Y005170D01*
X030310Y005950D01*
X029650Y005770D02*
X034330Y010450D01*
X034750Y010450D01*
X034781Y010505D01*
X031810Y010030D02*
X031630Y010030D01*
X030010Y008410D01*
X028090Y008410D01*
X027070Y007570D02*
X027070Y006790D01*
X023290Y003010D01*
X022210Y003010D01*
X022150Y003310D02*
X021910Y003310D01*
X022150Y003310D02*
X023710Y004870D01*
X023710Y005110D01*
X022930Y005890D01*
X022930Y007210D01*
X023590Y007870D01*
X023590Y011710D01*
X024370Y012310D02*
X024370Y008410D01*
X025510Y007270D01*
X025510Y006490D01*
X025270Y006250D01*
X025270Y005650D01*
X025210Y005590D01*
X025330Y005290D02*
X024425Y004415D01*
X022870Y003610D01*
X022395Y003850D02*
X023410Y004990D01*
X024010Y005170D02*
X023230Y005950D01*
X023230Y007090D01*
X023650Y007270D02*
X024910Y006010D01*
X025330Y005290D02*
X026770Y006730D01*
X026770Y007450D01*
X027070Y007570D02*
X025090Y009550D01*
X025090Y012130D01*
X025055Y012180D01*
X024370Y012310D02*
X020470Y016210D01*
X020470Y016390D01*
X020445Y016430D01*
X020110Y017230D02*
X019330Y016450D01*
X019090Y016450D01*
X019067Y016430D01*
X020110Y017230D02*
X021730Y017230D01*
X022450Y016450D02*
X022990Y016990D01*
X024670Y016990D01*
X025030Y016630D01*
X025210Y016630D01*
X027430Y014410D01*
X027430Y006550D01*
X024310Y003430D01*
X024310Y001690D01*
X024010Y001390D01*
X022930Y001390D01*
X022390Y001930D01*
X022387Y001930D01*
X021910Y002710D02*
X021130Y001930D01*
X021010Y001930D01*
X021910Y002710D02*
X023230Y002710D01*
X027250Y006730D01*
X027250Y013990D01*
X025090Y016150D01*
X025055Y016180D01*
X022450Y016450D02*
X021850Y016450D01*
X021823Y016430D01*
X021610Y014650D02*
X021490Y014650D01*
X021190Y014350D01*
X019330Y014350D01*
X017170Y014350D01*
X009550Y006730D01*
X010930Y007090D02*
X011830Y007990D01*
X011830Y007570D02*
X012915Y008530D01*
X014505Y007855D02*
X016990Y006370D01*
X017890Y006370D01*
X018070Y006550D01*
X018195Y007445D01*
X017770Y007625D02*
X018880Y008360D01*
X019585Y008095D02*
X018790Y007550D01*
X018790Y007030D01*
X017830Y006070D01*
X015310Y006070D01*
X015190Y006370D02*
X012490Y003670D01*
X012490Y002590D01*
X012730Y002290D02*
X013030Y002590D01*
X013030Y003250D01*
X015670Y005890D01*
X016570Y005890D01*
X016690Y005770D01*
X016990Y005470D01*
X016990Y005110D01*
X017890Y004210D01*
X017770Y004810D02*
X018430Y005470D01*
X018430Y006070D01*
X017770Y006670D02*
X017770Y007625D01*
X017050Y007270D02*
X016270Y008050D01*
X016305Y009305D01*
X016770Y009770D01*
X017520Y011280D01*
X018670Y012430D01*
X017350Y012550D02*
X017350Y011350D01*
X017225Y011350D01*
X016305Y009805D01*
X015930Y009805D01*
X013645Y007645D01*
X014270Y006170D01*
X014830Y006730D01*
X015910Y006730D01*
X016210Y006430D01*
X015790Y006430D02*
X015730Y006370D01*
X015190Y006370D01*
X014270Y006170D02*
X010030Y001930D01*
X009986Y001930D01*
X012730Y001930D02*
X012742Y001930D01*
X012730Y001930D02*
X012730Y002290D01*
X015498Y001930D02*
X015550Y001930D01*
X016150Y002530D01*
X018250Y002890D02*
X018250Y001930D01*
X018254Y001930D01*
X018790Y002170D02*
X018790Y001630D01*
X019510Y000910D01*
X018790Y002170D02*
X019930Y003310D01*
X019930Y005170D01*
X019810Y005290D01*
X019810Y005890D01*
X020230Y005890D02*
X020230Y005350D01*
X021490Y004090D01*
X021490Y004255D01*
X021490Y004090D02*
X021490Y004030D01*
X021670Y003850D01*
X022395Y003850D01*
X021790Y004150D02*
X021790Y004320D01*
X020350Y006010D01*
X020350Y007390D01*
X020710Y007450D02*
X020230Y007930D01*
X021910Y007930D01*
X022210Y008050D02*
X022210Y007450D01*
X022090Y007330D01*
X021670Y006910D01*
X021310Y006910D01*
X021115Y006310D02*
X022090Y006910D01*
X022690Y007210D02*
X022690Y005830D01*
X022090Y004980D01*
X022210Y006010D02*
X021665Y006260D01*
X022210Y006010D02*
X022390Y006190D01*
X023650Y006070D02*
X024430Y005290D01*
X024425Y004415D01*
X025635Y003890D02*
X027610Y006490D01*
X025210Y007150D02*
X024250Y007150D01*
X022930Y007450D02*
X022690Y007210D01*
X022930Y007450D02*
X022930Y009190D01*
X022150Y009790D02*
X022150Y012055D01*
X020770Y011050D02*
X021370Y010450D01*
X021370Y009850D01*
X021370Y008890D01*
X022210Y008050D01*
X020710Y007450D02*
X020710Y006610D01*
X020230Y005890D02*
X019390Y006730D01*
X019390Y007510D01*
X019090Y007210D02*
X019090Y005290D01*
X019390Y004990D01*
X018250Y002890D02*
X015670Y005470D01*
X018790Y009370D02*
X020230Y007930D01*
X018195Y008780D02*
X017530Y008530D01*
X017170Y008170D01*
X016570Y008170D01*
X017050Y008470D02*
X017230Y008470D01*
X019330Y010570D01*
X019810Y010870D02*
X018730Y010870D01*
X018430Y010570D02*
X017830Y011170D01*
X019810Y010870D02*
X019990Y010690D01*
X020470Y011050D02*
X020770Y011050D01*
X020470Y011050D02*
X018370Y013150D01*
X019870Y013750D02*
X020290Y013330D01*
X021310Y014050D02*
X018850Y014050D01*
X017350Y012550D01*
X013270Y011890D02*
X011950Y010570D01*
X014945Y008400D02*
X015975Y009430D01*
X015920Y010090D02*
X009130Y003550D01*
X005890Y003550D01*
X005835Y003570D01*
X018550Y009370D02*
X018790Y009370D01*
X026770Y010270D02*
X026770Y010930D01*
X032470Y012910D02*
X033010Y013450D01*
X033790Y013810D02*
X034210Y013390D01*
X021490Y014230D02*
X021310Y014050D01*
X016311Y016430D02*
X016270Y016390D01*
X016150Y016390D01*
X015070Y015310D01*
X013570Y015310D01*
X009910Y015310D01*
X009190Y016030D01*
X009180Y016055D01*
X010180Y016055D02*
X010210Y016090D01*
X010930Y016810D01*
X012970Y015610D02*
X014050Y015610D01*
X014890Y016450D01*
X014933Y016430D01*
X002830Y016810D02*
X002812Y016803D01*
X025150Y002290D02*
X027910Y005050D01*
X029590Y002950D02*
X026230Y002950D01*
X025150Y002290D02*
X025150Y001930D01*
X025143Y001930D01*
X029277Y001930D02*
X029290Y001930D01*
X030010Y001210D01*
X030610Y001930D02*
X030655Y001930D01*
X030610Y001930D02*
X029590Y002950D01*
X034270Y002650D02*
X035530Y001390D01*
D21*
X035530Y001390D03*
X034270Y002650D03*
X030010Y001210D03*
X026230Y002950D03*
X025635Y003890D03*
X023410Y004990D03*
X024010Y005170D03*
X025210Y005590D03*
X024910Y006010D03*
X025270Y006250D03*
X023650Y006070D03*
X022390Y006190D03*
X021665Y006260D03*
X021115Y006310D03*
X020710Y006610D03*
X021310Y006910D03*
X022090Y006910D03*
X022090Y007330D03*
X021910Y007930D03*
X020350Y007390D03*
X019390Y007510D03*
X019090Y007210D03*
X018195Y007445D03*
X017050Y007270D03*
X017770Y006670D03*
X018430Y006070D03*
X019810Y005890D03*
X019390Y004990D03*
X017770Y004810D03*
X017890Y004210D03*
X015670Y005470D03*
X016690Y005770D03*
X015310Y006070D03*
X015790Y006430D03*
X016210Y006430D03*
X014505Y007855D03*
X014945Y008400D03*
X016570Y008170D03*
X017050Y008470D03*
X018195Y008780D03*
X018550Y009370D03*
X018880Y008360D03*
X019585Y008095D03*
X022930Y009190D03*
X022150Y009790D03*
X021370Y009850D03*
X019990Y010690D03*
X019330Y010570D03*
X018730Y010870D03*
X018430Y010570D03*
X017830Y011170D03*
X015920Y010090D03*
X015975Y009430D03*
X012915Y008530D03*
X011830Y007990D03*
X011830Y007570D03*
X010930Y007090D03*
X009550Y006730D03*
X011950Y010570D03*
X013270Y011890D03*
X018370Y013150D03*
X019870Y013750D03*
X020290Y013330D03*
X019330Y014350D03*
X021490Y014230D03*
X021610Y014650D03*
X018670Y012430D03*
X023590Y011710D03*
X026770Y010930D03*
X026770Y010270D03*
X028090Y008410D03*
X026770Y007450D03*
X028270Y007150D03*
X030310Y007330D03*
X031690Y008710D03*
X031990Y009010D03*
X031090Y009070D03*
X031810Y010030D03*
X032470Y012910D03*
X033010Y013450D03*
X033790Y013810D03*
X034210Y013390D03*
X021730Y017230D03*
X013570Y015310D03*
X012970Y015610D03*
X010930Y016810D03*
X023650Y007270D03*
X023230Y007090D03*
X024250Y007150D03*
X025210Y007150D03*
X029650Y005770D03*
X030310Y005950D03*
X027910Y005050D03*
X022870Y003610D03*
X022210Y003010D03*
X021910Y003310D03*
X021790Y004150D03*
X022090Y004980D03*
X016150Y002530D03*
X012490Y002590D03*
X019510Y000910D03*
D22*
X001128Y000713D02*
X000890Y000886D01*
X000717Y001124D01*
X000626Y001404D01*
X000614Y001551D01*
X000614Y016654D01*
X000626Y016805D01*
X000719Y017093D01*
X000897Y017337D01*
X001142Y017515D01*
X001429Y017608D01*
X001580Y017620D01*
X028845Y017620D01*
X028595Y017371D01*
X028595Y017180D01*
X029055Y017180D01*
X029515Y017180D01*
X029515Y017371D01*
X029265Y017620D01*
X038132Y017620D01*
X038136Y017616D01*
X038206Y017620D01*
X038221Y017620D01*
X038366Y017616D01*
X038664Y017537D01*
X038924Y017369D01*
X039119Y017129D01*
X039230Y016840D01*
X039250Y016688D01*
X039250Y001605D01*
X039238Y001450D01*
X039142Y001153D01*
X038959Y000901D01*
X038707Y000718D01*
X038410Y000622D01*
X038255Y000610D01*
X019622Y000610D01*
X019691Y000639D01*
X019781Y000729D01*
X019830Y000846D01*
X019830Y000974D01*
X019781Y001091D01*
X019691Y001181D01*
X019574Y001230D01*
X019473Y001230D01*
X018990Y001713D01*
X018990Y002087D01*
X020013Y003110D01*
X020130Y003227D01*
X020130Y005167D01*
X021290Y004007D01*
X021290Y003947D01*
X021587Y003650D01*
X022207Y003650D01*
X022115Y003558D01*
X022091Y003581D01*
X021974Y003630D01*
X021846Y003630D01*
X021729Y003581D01*
X021639Y003491D01*
X021590Y003374D01*
X021590Y003246D01*
X021639Y003129D01*
X021729Y003039D01*
X021846Y002990D01*
X021890Y002990D01*
X021890Y002946D01*
X021905Y002910D01*
X021827Y002910D01*
X021323Y002406D01*
X021121Y002490D01*
X020898Y002490D01*
X020692Y002405D01*
X020535Y002247D01*
X020450Y002041D01*
X020450Y001819D01*
X020535Y001613D01*
X020692Y001455D01*
X020898Y001370D01*
X021121Y001370D01*
X021327Y001455D01*
X021484Y001613D01*
X021570Y001819D01*
X021570Y002041D01*
X021556Y002073D01*
X021993Y002510D01*
X023313Y002510D01*
X023430Y002627D01*
X023430Y002627D01*
X024110Y003307D01*
X024110Y002377D01*
X024083Y002405D01*
X023877Y002490D01*
X023654Y002490D01*
X023448Y002405D01*
X023291Y002247D01*
X023205Y002041D01*
X023205Y001819D01*
X023291Y001613D01*
X023313Y001590D01*
X023013Y001590D01*
X022900Y001703D01*
X022947Y001819D01*
X022947Y002041D01*
X022862Y002247D01*
X022705Y002405D01*
X022499Y002490D01*
X022276Y002490D01*
X022070Y002405D01*
X021913Y002247D01*
X021827Y002041D01*
X021827Y001819D01*
X021913Y001613D01*
X022070Y001455D01*
X022276Y001370D01*
X022499Y001370D01*
X022618Y001419D01*
X022847Y001190D01*
X024093Y001190D01*
X024210Y001307D01*
X024510Y001607D01*
X024510Y003347D01*
X026430Y005267D01*
X025627Y004210D01*
X025571Y004210D01*
X025454Y004161D01*
X025364Y004071D01*
X025315Y003954D01*
X025315Y003826D01*
X025364Y003709D01*
X025454Y003619D01*
X025571Y003570D01*
X025699Y003570D01*
X025816Y003619D01*
X025906Y003709D01*
X025955Y003826D01*
X025955Y003954D01*
X025948Y003971D01*
X027631Y006187D01*
X031564Y002253D01*
X031558Y002247D01*
X031473Y002041D01*
X031473Y001819D01*
X031558Y001613D01*
X031716Y001455D01*
X031922Y001370D01*
X032145Y001370D01*
X032350Y001455D01*
X032508Y001613D01*
X032593Y001819D01*
X032593Y002041D01*
X032508Y002247D01*
X032350Y002405D01*
X032145Y002490D01*
X031922Y002490D01*
X031901Y002482D01*
X027893Y006490D01*
X028233Y006830D01*
X028334Y006830D01*
X028451Y006879D01*
X028541Y006969D01*
X028590Y007086D01*
X028590Y007214D01*
X028541Y007331D01*
X028451Y007421D01*
X028334Y007470D01*
X028206Y007470D01*
X028089Y007421D01*
X027999Y007331D01*
X027950Y007214D01*
X027950Y007113D01*
X027630Y006793D01*
X027630Y014493D01*
X027513Y014610D01*
X025310Y016813D01*
X025495Y016998D01*
X025495Y017362D01*
X025237Y017620D01*
X024873Y017620D01*
X024615Y017362D01*
X024615Y017190D01*
X022907Y017190D01*
X022790Y017073D01*
X022367Y016650D01*
X022338Y016650D01*
X022297Y016747D01*
X022140Y016905D01*
X021940Y016988D01*
X022001Y017049D01*
X022050Y017166D01*
X022050Y017294D01*
X022001Y017411D01*
X021911Y017501D01*
X021794Y017550D01*
X021666Y017550D01*
X021549Y017501D01*
X021477Y017430D01*
X020027Y017430D01*
X019910Y017313D01*
X019443Y016846D01*
X019384Y016905D01*
X019178Y016990D01*
X018955Y016990D01*
X018750Y016905D01*
X018592Y016747D01*
X018507Y016541D01*
X018507Y016319D01*
X018592Y016113D01*
X018750Y015955D01*
X018955Y015870D01*
X019178Y015870D01*
X019384Y015955D01*
X019542Y016113D01*
X019627Y016319D01*
X019627Y016464D01*
X020193Y017030D01*
X021477Y017030D01*
X021549Y016959D01*
X021592Y016941D01*
X021506Y016905D01*
X021348Y016747D01*
X021263Y016541D01*
X021263Y016319D01*
X021348Y016113D01*
X021506Y015955D01*
X021711Y015870D01*
X021934Y015870D01*
X022140Y015955D01*
X022297Y016113D01*
X022354Y016250D01*
X022533Y016250D01*
X022627Y016344D01*
X022635Y016294D01*
X022663Y016207D01*
X022705Y016126D01*
X022758Y016052D01*
X022823Y015988D01*
X022897Y015934D01*
X022978Y015892D01*
X023065Y015864D01*
X023155Y015850D01*
X023163Y015850D01*
X023163Y016392D01*
X023239Y016392D01*
X023239Y016468D01*
X023781Y016468D01*
X023781Y016476D01*
X023766Y016566D01*
X023738Y016653D01*
X023697Y016734D01*
X023656Y016790D01*
X024587Y016790D01*
X024815Y016562D01*
X024615Y016362D01*
X024615Y015998D01*
X024873Y015740D01*
X025217Y015740D01*
X027050Y013907D01*
X027050Y011090D01*
X027041Y011111D01*
X026951Y011201D01*
X026834Y011250D01*
X026706Y011250D01*
X026589Y011201D01*
X026499Y011111D01*
X026450Y010994D01*
X026450Y010866D01*
X026499Y010749D01*
X026570Y010677D01*
X026570Y010523D01*
X026499Y010451D01*
X026450Y010334D01*
X026450Y010206D01*
X026499Y010089D01*
X026589Y009999D01*
X026706Y009950D01*
X026834Y009950D01*
X026951Y009999D01*
X027041Y010089D01*
X027050Y010110D01*
X027050Y007873D01*
X025290Y009633D01*
X025290Y011793D01*
X025495Y011998D01*
X025495Y012362D01*
X025237Y012620D01*
X024873Y012620D01*
X024615Y012362D01*
X024615Y011998D01*
X024873Y011740D01*
X024890Y011740D01*
X024890Y009467D01*
X026622Y007735D01*
X026589Y007721D01*
X026499Y007631D01*
X026450Y007514D01*
X026450Y007386D01*
X026499Y007269D01*
X026570Y007197D01*
X026570Y006813D01*
X025495Y005738D01*
X025481Y005771D01*
X025470Y005783D01*
X025470Y005997D01*
X025541Y006069D01*
X025590Y006186D01*
X025590Y006287D01*
X025710Y006407D01*
X025710Y007353D01*
X025593Y007470D01*
X024570Y008493D01*
X024570Y012393D01*
X024453Y012510D01*
X020885Y016078D01*
X020920Y016113D01*
X021005Y016319D01*
X021005Y016541D01*
X020920Y016747D01*
X020762Y016905D01*
X020556Y016990D01*
X020333Y016990D01*
X020128Y016905D01*
X019970Y016747D01*
X019885Y016541D01*
X019885Y016319D01*
X019970Y016113D01*
X020128Y015955D01*
X020333Y015870D01*
X020527Y015870D01*
X021462Y014935D01*
X021429Y014921D01*
X021339Y014831D01*
X021304Y014746D01*
X021290Y014733D01*
X021107Y014550D01*
X019583Y014550D01*
X019511Y014621D01*
X019394Y014670D01*
X019266Y014670D01*
X019149Y014621D01*
X019077Y014550D01*
X017087Y014550D01*
X016970Y014433D01*
X009587Y007050D01*
X009486Y007050D01*
X009369Y007001D01*
X009279Y006911D01*
X009230Y006794D01*
X009230Y006666D01*
X009279Y006549D01*
X009369Y006459D01*
X009486Y006410D01*
X009614Y006410D01*
X009731Y006459D01*
X009821Y006549D01*
X009870Y006666D01*
X009870Y006767D01*
X017253Y014150D01*
X018667Y014150D01*
X017267Y012750D01*
X017150Y012633D01*
X017150Y011550D01*
X017142Y011550D01*
X017122Y011530D01*
X017096Y011524D01*
X017067Y011475D01*
X017091Y011551D01*
X017105Y011637D01*
X017105Y011680D01*
X017105Y011723D01*
X017091Y011809D01*
X017065Y011891D01*
X017025Y011968D01*
X016975Y012038D01*
X016913Y012100D01*
X016843Y012150D01*
X016766Y012190D01*
X016761Y012191D01*
X016855Y012231D01*
X017004Y012380D01*
X017085Y012575D01*
X017085Y012785D01*
X017004Y012980D01*
X016855Y013129D01*
X016660Y013210D01*
X016450Y013210D01*
X016255Y013129D01*
X016106Y012980D01*
X016025Y012785D01*
X016025Y012575D01*
X016106Y012380D01*
X016255Y012231D01*
X016349Y012191D01*
X016344Y012190D01*
X016267Y012150D01*
X016197Y012100D01*
X016135Y012038D01*
X016085Y011968D01*
X016045Y011891D01*
X016019Y011809D01*
X016005Y011723D01*
X016005Y011680D01*
X016555Y011680D01*
X017105Y011680D01*
X016555Y011680D01*
X016555Y011680D01*
X016555Y011130D01*
X016598Y011130D01*
X016684Y011144D01*
X016766Y011170D01*
X016843Y011210D01*
X016913Y011260D01*
X016975Y011322D01*
X016979Y011328D01*
X016240Y010087D01*
X016240Y010154D01*
X016191Y010271D01*
X016101Y010361D01*
X015984Y010410D01*
X015856Y010410D01*
X015739Y010361D01*
X015649Y010271D01*
X015600Y010154D01*
X015600Y010059D01*
X009049Y003750D01*
X006334Y003750D01*
X006284Y003870D01*
X006135Y004019D01*
X005940Y004100D01*
X005730Y004100D01*
X005535Y004019D01*
X005386Y003870D01*
X005305Y003675D01*
X005305Y003465D01*
X005386Y003270D01*
X005535Y003121D01*
X005730Y003040D01*
X005940Y003040D01*
X006135Y003121D01*
X006284Y003270D01*
X006318Y003350D01*
X009128Y003350D01*
X009209Y003348D01*
X009211Y003350D01*
X009213Y003350D01*
X009270Y003407D01*
X013498Y007479D01*
X014033Y006216D01*
X010246Y002429D01*
X010097Y002490D01*
X009875Y002490D01*
X009669Y002405D01*
X009511Y002247D01*
X009426Y002041D01*
X009426Y001819D01*
X009511Y001613D01*
X009669Y001455D01*
X009875Y001370D01*
X010097Y001370D01*
X010303Y001455D01*
X010461Y001613D01*
X010546Y001819D01*
X010546Y002041D01*
X010510Y002127D01*
X014353Y005970D01*
X014384Y006001D01*
X014424Y006018D01*
X014440Y006057D01*
X014913Y006530D01*
X015067Y006530D01*
X012407Y003870D01*
X012290Y003753D01*
X012290Y002843D01*
X012219Y002771D01*
X012170Y002654D01*
X012170Y002526D01*
X012219Y002409D01*
X012309Y002319D01*
X012330Y002310D01*
X012267Y002247D01*
X012182Y002041D01*
X012182Y001819D01*
X012267Y001613D01*
X012425Y001455D01*
X012630Y001370D01*
X012853Y001370D01*
X013059Y001455D01*
X013217Y001613D01*
X013302Y001819D01*
X013302Y002041D01*
X013217Y002247D01*
X013093Y002370D01*
X013230Y002507D01*
X013230Y003167D01*
X015385Y005322D01*
X015399Y005289D01*
X015489Y005199D01*
X015606Y005150D01*
X015707Y005150D01*
X018050Y002807D01*
X018050Y002490D01*
X017787Y002490D01*
X017694Y002396D01*
X017694Y001464D01*
X017787Y001370D01*
X018720Y001370D01*
X018744Y001394D01*
X019190Y000947D01*
X019190Y000846D01*
X019239Y000729D01*
X019329Y000639D01*
X019398Y000610D01*
X001555Y000610D01*
X001408Y000622D01*
X001128Y000713D01*
X001080Y000747D02*
X019231Y000747D01*
X019190Y000906D02*
X002031Y000906D01*
X002161Y000959D02*
X001849Y000830D01*
X001630Y000830D01*
X001511Y000830D01*
X001199Y000959D01*
X001199Y000959D01*
X001199Y000959D01*
X000959Y001199D01*
X000959Y001199D01*
X000830Y001511D01*
X000830Y001849D01*
X000959Y002161D01*
X001199Y002401D01*
X001199Y002401D01*
X001511Y002530D01*
X001849Y002530D01*
X002161Y002401D01*
X002161Y002401D01*
X002401Y002161D01*
X002401Y002161D01*
X002530Y001849D01*
X002530Y001511D01*
X002401Y001199D01*
X002401Y001199D01*
X002161Y000959D01*
X002161Y000959D01*
X002266Y001064D02*
X019073Y001064D01*
X018915Y001223D02*
X002411Y001223D01*
X002476Y001381D02*
X002934Y001381D01*
X002975Y001341D02*
X003170Y001260D01*
X003380Y001260D01*
X003575Y001341D01*
X003724Y001490D01*
X003805Y001685D01*
X003805Y001895D01*
X003724Y002090D01*
X003575Y002239D01*
X003380Y002320D01*
X003170Y002320D01*
X002975Y002239D01*
X002826Y002090D01*
X002745Y001895D01*
X002745Y001685D01*
X002826Y001490D01*
X002975Y001341D01*
X002805Y001540D02*
X002530Y001540D01*
X002530Y001698D02*
X002745Y001698D01*
X002745Y001857D02*
X002527Y001857D01*
X002461Y002015D02*
X002795Y002015D01*
X002909Y002174D02*
X002389Y002174D01*
X002230Y002332D02*
X005741Y002332D01*
X005706Y002326D02*
X005624Y002300D01*
X005547Y002260D01*
X005477Y002210D01*
X005415Y002148D01*
X005365Y002078D01*
X005325Y002001D01*
X005299Y001919D01*
X005285Y001833D01*
X005285Y001810D01*
X005815Y001810D01*
X005815Y002340D01*
X005792Y002340D01*
X005706Y002326D01*
X005815Y002332D02*
X005855Y002332D01*
X005855Y002340D02*
X005878Y002340D01*
X005964Y002326D01*
X006046Y002300D01*
X006123Y002260D01*
X006193Y002210D01*
X006255Y002148D01*
X006305Y002078D01*
X006345Y002001D01*
X006371Y001919D01*
X006385Y001833D01*
X006385Y001810D01*
X005855Y001810D01*
X005855Y001770D01*
X006385Y001770D01*
X006385Y001747D01*
X006371Y001661D01*
X006345Y001579D01*
X006305Y001502D01*
X006255Y001432D01*
X006193Y001370D01*
X006123Y001320D01*
X006046Y001280D01*
X005964Y001254D01*
X005878Y001240D01*
X005855Y001240D01*
X005855Y001770D01*
X005815Y001770D01*
X005815Y001240D01*
X005792Y001240D01*
X005706Y001254D01*
X005624Y001280D01*
X005547Y001320D01*
X005477Y001370D01*
X005415Y001432D01*
X005365Y001502D01*
X005325Y001579D01*
X005299Y001661D01*
X005285Y001747D01*
X005285Y001770D01*
X005815Y001770D01*
X005815Y001810D01*
X005855Y001810D01*
X005855Y002340D01*
X005929Y002332D02*
X006670Y002332D01*
X006670Y002396D02*
X006670Y001464D01*
X006764Y001370D01*
X007696Y001370D01*
X007790Y001464D01*
X007790Y002396D01*
X007696Y002490D01*
X006764Y002490D01*
X006670Y002396D01*
X006670Y002174D02*
X006229Y002174D01*
X006338Y002015D02*
X006670Y002015D01*
X006670Y001857D02*
X006381Y001857D01*
X006377Y001698D02*
X006670Y001698D01*
X006670Y001540D02*
X006325Y001540D01*
X006204Y001381D02*
X006753Y001381D01*
X005855Y001381D02*
X005815Y001381D01*
X005815Y001540D02*
X005855Y001540D01*
X005855Y001698D02*
X005815Y001698D01*
X005815Y001857D02*
X005855Y001857D01*
X005855Y002015D02*
X005815Y002015D01*
X005815Y002174D02*
X005855Y002174D01*
X005441Y002174D02*
X003641Y002174D01*
X003755Y002015D02*
X005332Y002015D01*
X005289Y001857D02*
X003805Y001857D01*
X003805Y001698D02*
X005293Y001698D01*
X005345Y001540D02*
X003745Y001540D01*
X003616Y001381D02*
X005466Y001381D01*
X007707Y001381D02*
X008470Y001381D01*
X008497Y001370D02*
X008719Y001370D01*
X008925Y001455D01*
X009083Y001613D01*
X009168Y001819D01*
X009168Y002041D01*
X009083Y002247D01*
X008925Y002405D01*
X008719Y002490D01*
X008497Y002490D01*
X008291Y002405D01*
X008133Y002247D01*
X008048Y002041D01*
X008048Y001819D01*
X008133Y001613D01*
X008291Y001455D01*
X008497Y001370D01*
X008746Y001381D02*
X009848Y001381D01*
X010124Y001381D02*
X011226Y001381D01*
X011252Y001370D02*
X011475Y001370D01*
X011681Y001455D01*
X011839Y001613D01*
X011924Y001819D01*
X011924Y002041D01*
X011839Y002247D01*
X011681Y002405D01*
X011475Y002490D01*
X011252Y002490D01*
X011047Y002405D01*
X010889Y002247D01*
X010804Y002041D01*
X010804Y001819D01*
X010889Y001613D01*
X011047Y001455D01*
X011252Y001370D01*
X011502Y001381D02*
X012604Y001381D01*
X012880Y001381D02*
X013982Y001381D01*
X014008Y001370D02*
X014231Y001370D01*
X014437Y001455D01*
X014595Y001613D01*
X014680Y001819D01*
X014680Y002041D01*
X014595Y002247D01*
X014437Y002405D01*
X014231Y002490D01*
X014008Y002490D01*
X013803Y002405D01*
X013645Y002247D01*
X013560Y002041D01*
X013560Y001819D01*
X013645Y001613D01*
X013803Y001455D01*
X014008Y001370D01*
X014258Y001381D02*
X015360Y001381D01*
X015386Y001370D02*
X015609Y001370D01*
X015815Y001455D01*
X015972Y001613D01*
X016058Y001819D01*
X016058Y002041D01*
X016024Y002122D01*
X016113Y002210D01*
X016214Y002210D01*
X016331Y002259D01*
X016421Y002349D01*
X016470Y002466D01*
X016470Y002594D01*
X016421Y002711D01*
X016331Y002801D01*
X016214Y002850D01*
X016086Y002850D01*
X015969Y002801D01*
X015879Y002711D01*
X015830Y002594D01*
X015830Y002493D01*
X015763Y002426D01*
X015609Y002490D01*
X015386Y002490D01*
X015181Y002405D01*
X015023Y002247D01*
X014938Y002041D01*
X014938Y001819D01*
X015023Y001613D01*
X015181Y001455D01*
X015386Y001370D01*
X015636Y001381D02*
X016738Y001381D01*
X016764Y001370D02*
X016987Y001370D01*
X017193Y001455D01*
X017350Y001613D01*
X017436Y001819D01*
X017436Y002041D01*
X017350Y002247D01*
X017193Y002405D01*
X016987Y002490D01*
X016764Y002490D01*
X016558Y002405D01*
X016401Y002247D01*
X016316Y002041D01*
X016316Y001819D01*
X016401Y001613D01*
X016558Y001455D01*
X016764Y001370D01*
X017014Y001381D02*
X017776Y001381D01*
X017694Y001540D02*
X017277Y001540D01*
X017386Y001698D02*
X017694Y001698D01*
X017694Y001857D02*
X017436Y001857D01*
X017436Y002015D02*
X017694Y002015D01*
X017694Y002174D02*
X017381Y002174D01*
X017266Y002332D02*
X017694Y002332D01*
X018050Y002491D02*
X016470Y002491D01*
X016447Y002649D02*
X018050Y002649D01*
X018050Y002808D02*
X016316Y002808D01*
X015984Y002808D02*
X013230Y002808D01*
X013230Y002966D02*
X017891Y002966D01*
X017733Y003125D02*
X013230Y003125D01*
X013346Y003283D02*
X017574Y003283D01*
X017416Y003442D02*
X013504Y003442D01*
X013663Y003600D02*
X017257Y003600D01*
X017099Y003759D02*
X013821Y003759D01*
X013980Y003917D02*
X016940Y003917D01*
X016782Y004076D02*
X014138Y004076D01*
X014297Y004234D02*
X016623Y004234D01*
X016465Y004393D02*
X014455Y004393D01*
X014614Y004551D02*
X016306Y004551D01*
X016148Y004710D02*
X014772Y004710D01*
X014931Y004868D02*
X015989Y004868D01*
X015831Y005027D02*
X015089Y005027D01*
X015248Y005185D02*
X015522Y005185D01*
X015990Y005433D02*
X015990Y005534D01*
X015941Y005651D01*
X015903Y005690D01*
X016377Y005690D01*
X016419Y005589D01*
X016509Y005499D01*
X016626Y005450D01*
X016727Y005450D01*
X016790Y005387D01*
X016790Y005027D01*
X016907Y004910D01*
X017570Y004247D01*
X017570Y004146D01*
X017619Y004029D01*
X017709Y003939D01*
X017826Y003890D01*
X017954Y003890D01*
X018071Y003939D01*
X018161Y004029D01*
X018210Y004146D01*
X018210Y004274D01*
X018161Y004391D01*
X018071Y004481D01*
X017954Y004530D01*
X017930Y004530D01*
X017951Y004539D01*
X018041Y004629D01*
X018090Y004746D01*
X018090Y004847D01*
X018630Y005387D01*
X018630Y005817D01*
X018701Y005889D01*
X018750Y006006D01*
X018750Y006134D01*
X018701Y006251D01*
X018611Y006341D01*
X018494Y006390D01*
X018433Y006390D01*
X018873Y006830D01*
X018890Y006847D01*
X018890Y005207D01*
X019070Y005027D01*
X019070Y004926D01*
X019119Y004809D01*
X019209Y004719D01*
X019326Y004670D01*
X019454Y004670D01*
X019571Y004719D01*
X019661Y004809D01*
X019710Y004926D01*
X019710Y005054D01*
X019672Y005145D01*
X019730Y005087D01*
X019730Y003393D01*
X018774Y002436D01*
X018720Y002490D01*
X018450Y002490D01*
X018450Y002973D01*
X015990Y005433D01*
X015990Y005502D02*
X016505Y005502D01*
X016389Y005661D02*
X015932Y005661D01*
X016079Y005344D02*
X016790Y005344D01*
X016790Y005185D02*
X016238Y005185D01*
X016396Y005027D02*
X016791Y005027D01*
X016949Y004868D02*
X016555Y004868D01*
X016713Y004710D02*
X017108Y004710D01*
X017266Y004551D02*
X016872Y004551D01*
X017030Y004393D02*
X017425Y004393D01*
X017570Y004234D02*
X017189Y004234D01*
X017347Y004076D02*
X017599Y004076D01*
X017506Y003917D02*
X017761Y003917D01*
X017664Y003759D02*
X019730Y003759D01*
X019730Y003917D02*
X018019Y003917D01*
X018181Y004076D02*
X019730Y004076D01*
X019730Y004234D02*
X018210Y004234D01*
X018160Y004393D02*
X019730Y004393D01*
X019730Y004551D02*
X017964Y004551D01*
X018075Y004710D02*
X019231Y004710D01*
X019094Y004868D02*
X018111Y004868D01*
X018269Y005027D02*
X019070Y005027D01*
X018912Y005185D02*
X018428Y005185D01*
X018586Y005344D02*
X018890Y005344D01*
X018890Y005502D02*
X018630Y005502D01*
X018630Y005661D02*
X018890Y005661D01*
X018890Y005819D02*
X018632Y005819D01*
X018738Y005978D02*
X018890Y005978D01*
X018890Y006136D02*
X018749Y006136D01*
X018658Y006295D02*
X018890Y006295D01*
X018890Y006453D02*
X018496Y006453D01*
X018654Y006612D02*
X018890Y006612D01*
X018890Y006770D02*
X018813Y006770D01*
X018564Y007087D02*
X018347Y007087D01*
X018358Y007166D02*
X018312Y006835D01*
X018590Y007113D01*
X018590Y007488D01*
X018578Y007505D01*
X018590Y007568D01*
X018590Y007633D01*
X018605Y007648D01*
X018609Y007668D01*
X018662Y007704D01*
X018707Y007750D01*
X018728Y007750D01*
X019265Y008118D01*
X019265Y008159D01*
X019314Y008276D01*
X019404Y008366D01*
X019479Y008398D01*
X018755Y009122D01*
X018731Y009099D01*
X018614Y009050D01*
X018486Y009050D01*
X018369Y009099D01*
X018279Y009189D01*
X018265Y009222D01*
X018143Y009100D01*
X018259Y009100D01*
X018376Y009051D01*
X018466Y008961D01*
X018515Y008844D01*
X018515Y008716D01*
X018466Y008599D01*
X018376Y008509D01*
X018259Y008460D01*
X018131Y008460D01*
X018027Y008503D01*
X017641Y008358D01*
X017370Y008087D01*
X017253Y007970D01*
X016823Y007970D01*
X016751Y007899D01*
X016718Y007885D01*
X017013Y007590D01*
X017114Y007590D01*
X017231Y007541D01*
X017321Y007451D01*
X017370Y007334D01*
X017370Y007206D01*
X017321Y007089D01*
X017231Y006999D01*
X017114Y006950D01*
X016986Y006950D01*
X016869Y006999D01*
X016779Y007089D01*
X016730Y007206D01*
X016730Y007307D01*
X016185Y007852D01*
X016182Y007852D01*
X016127Y007911D01*
X016070Y007967D01*
X016070Y007970D01*
X016068Y007973D01*
X016070Y008053D01*
X016070Y008133D01*
X016072Y008135D01*
X016100Y009135D01*
X016039Y009110D01*
X015938Y009110D01*
X015265Y008437D01*
X015265Y008336D01*
X015216Y008219D01*
X015126Y008129D01*
X015009Y008080D01*
X014881Y008080D01*
X014764Y008129D01*
X014674Y008219D01*
X014637Y008307D01*
X014497Y008175D01*
X014569Y008175D01*
X014686Y008126D01*
X014776Y008036D01*
X014825Y007919D01*
X014825Y007897D01*
X017045Y006570D01*
X017465Y006570D01*
X017450Y006606D01*
X017450Y006734D01*
X017499Y006851D01*
X017570Y006923D01*
X017570Y007565D01*
X017558Y007584D01*
X017570Y007645D01*
X017570Y007708D01*
X017586Y007724D01*
X017591Y007746D01*
X017643Y007781D01*
X017687Y007825D01*
X017710Y007825D01*
X018560Y008388D01*
X018560Y008424D01*
X018609Y008541D01*
X018699Y008631D01*
X018816Y008680D01*
X018944Y008680D01*
X019061Y008631D01*
X019151Y008541D01*
X019200Y008424D01*
X019200Y008296D01*
X019151Y008179D01*
X019061Y008089D01*
X018944Y008040D01*
X018816Y008040D01*
X018781Y008055D01*
X018311Y007743D01*
X018376Y007716D01*
X018466Y007626D01*
X018515Y007509D01*
X018515Y007381D01*
X018466Y007264D01*
X018376Y007174D01*
X018358Y007166D01*
X018448Y007246D02*
X018590Y007246D01*
X018590Y007404D02*
X018515Y007404D01*
X018493Y007563D02*
X018589Y007563D01*
X018678Y007721D02*
X018365Y007721D01*
X018517Y007880D02*
X018917Y007880D01*
X018756Y008038D02*
X019148Y008038D01*
X019159Y008197D02*
X019281Y008197D01*
X019200Y008355D02*
X019392Y008355D01*
X019364Y008514D02*
X019163Y008514D01*
X019205Y008672D02*
X018963Y008672D01*
X018797Y008672D02*
X018497Y008672D01*
X018515Y008831D02*
X019047Y008831D01*
X018888Y008989D02*
X018439Y008989D01*
X018320Y009148D02*
X018190Y009148D01*
X017942Y009465D02*
X016747Y009465D01*
X016878Y009595D02*
X016503Y009220D01*
X016482Y008480D01*
X016506Y008490D01*
X016634Y008490D01*
X016730Y008450D01*
X016730Y008534D01*
X016779Y008651D01*
X016869Y008741D01*
X016986Y008790D01*
X017114Y008790D01*
X017222Y008745D01*
X019010Y010533D01*
X019010Y010634D01*
X019025Y010670D01*
X018983Y010670D01*
X018911Y010599D01*
X018794Y010550D01*
X018750Y010550D01*
X018750Y010506D01*
X018701Y010389D01*
X018611Y010299D01*
X018494Y010250D01*
X018366Y010250D01*
X018249Y010299D01*
X018159Y010389D01*
X018110Y010506D01*
X018110Y010607D01*
X017867Y010850D01*
X017766Y010850D01*
X017649Y010899D01*
X017585Y010962D01*
X016970Y009723D01*
X016970Y009687D01*
X016935Y009652D01*
X016912Y009607D01*
X016878Y009595D01*
X016920Y009623D02*
X018100Y009623D01*
X018259Y009782D02*
X016999Y009782D01*
X017078Y009940D02*
X018417Y009940D01*
X018576Y010099D02*
X017156Y010099D01*
X017235Y010257D02*
X018349Y010257D01*
X018511Y010257D02*
X018734Y010257D01*
X018712Y010416D02*
X018893Y010416D01*
X018852Y010574D02*
X019010Y010574D01*
X019293Y010250D02*
X019394Y010250D01*
X019511Y010299D01*
X019601Y010389D01*
X019650Y010506D01*
X019650Y010634D01*
X019635Y010670D01*
X019670Y010670D01*
X019670Y010626D01*
X019719Y010509D01*
X019809Y010419D01*
X019926Y010370D01*
X020054Y010370D01*
X020171Y010419D01*
X020261Y010509D01*
X020310Y010626D01*
X020310Y010754D01*
X020261Y010871D01*
X020171Y010961D01*
X020054Y011010D01*
X019953Y011010D01*
X019893Y011070D01*
X018983Y011070D01*
X018911Y011141D01*
X018794Y011190D01*
X018666Y011190D01*
X018549Y011141D01*
X018459Y011051D01*
X018410Y010934D01*
X018410Y010890D01*
X018393Y010890D01*
X018150Y011133D01*
X018150Y011234D01*
X018101Y011351D01*
X018011Y011441D01*
X017978Y011455D01*
X018633Y012110D01*
X018734Y012110D01*
X018851Y012159D01*
X018941Y012249D01*
X018955Y012282D01*
X020270Y010967D01*
X020387Y010850D01*
X020687Y010850D01*
X021170Y010367D01*
X021170Y010103D01*
X021099Y010031D01*
X021050Y009914D01*
X021050Y009786D01*
X021099Y009669D01*
X021170Y009597D01*
X021170Y008807D01*
X021762Y008215D01*
X021729Y008201D01*
X021657Y008130D01*
X020313Y008130D01*
X018990Y009453D01*
X018873Y009570D01*
X018803Y009570D01*
X018731Y009641D01*
X018698Y009655D01*
X019293Y010250D01*
X019411Y010257D02*
X021170Y010257D01*
X021166Y010099D02*
X019141Y010099D01*
X018983Y009940D02*
X021061Y009940D01*
X021052Y009782D02*
X018824Y009782D01*
X018750Y009623D02*
X021144Y009623D01*
X021170Y009465D02*
X018978Y009465D01*
X019137Y009306D02*
X021170Y009306D01*
X021170Y009148D02*
X019295Y009148D01*
X019454Y008989D02*
X021170Y008989D01*
X021170Y008831D02*
X019612Y008831D01*
X019771Y008672D02*
X021305Y008672D01*
X021464Y008514D02*
X019929Y008514D01*
X020088Y008355D02*
X021622Y008355D01*
X021724Y008197D02*
X020246Y008197D01*
X021712Y008831D02*
X022730Y008831D01*
X022730Y008937D02*
X022730Y007533D01*
X022607Y007410D01*
X022490Y007293D01*
X022490Y006495D01*
X022454Y006510D01*
X022326Y006510D01*
X022209Y006461D01*
X022119Y006371D01*
X022084Y006288D01*
X021980Y006335D01*
X021936Y006441D01*
X021850Y006528D01*
X021982Y006609D01*
X022026Y006590D01*
X022154Y006590D01*
X022271Y006639D01*
X022361Y006729D01*
X022410Y006846D01*
X022410Y006974D01*
X022361Y007091D01*
X022333Y007120D01*
X022361Y007149D01*
X022410Y007266D01*
X022410Y008133D01*
X022293Y008250D01*
X021570Y008973D01*
X021570Y009597D01*
X021641Y009669D01*
X021690Y009786D01*
X021690Y009914D01*
X021641Y010031D01*
X021570Y010103D01*
X021570Y010533D01*
X021453Y010650D01*
X020853Y011250D01*
X020553Y011250D01*
X020188Y011615D01*
X020338Y011615D01*
X020499Y011682D01*
X020623Y011806D01*
X020690Y011967D01*
X020690Y012143D01*
X020623Y012304D01*
X020499Y012428D01*
X020338Y012495D01*
X020162Y012495D01*
X020001Y012428D01*
X019877Y012304D01*
X019810Y012143D01*
X019810Y011993D01*
X018690Y013113D01*
X018690Y013214D01*
X018641Y013331D01*
X018551Y013421D01*
X018518Y013435D01*
X018933Y013850D01*
X019565Y013850D01*
X019550Y013814D01*
X019550Y013686D01*
X019599Y013569D01*
X019689Y013479D01*
X019806Y013430D01*
X019907Y013430D01*
X019970Y013367D01*
X019970Y013266D01*
X020019Y013149D01*
X020109Y013059D01*
X020226Y013010D01*
X020354Y013010D01*
X020471Y013059D01*
X020561Y013149D01*
X020610Y013266D01*
X020610Y013394D01*
X020561Y013511D01*
X020471Y013601D01*
X020354Y013650D01*
X020253Y013650D01*
X020190Y013713D01*
X020190Y013814D01*
X020175Y013850D01*
X021393Y013850D01*
X021453Y013910D01*
X021554Y013910D01*
X021671Y013959D01*
X021761Y014049D01*
X021810Y014166D01*
X021810Y014294D01*
X021777Y014373D01*
X021791Y014379D01*
X021881Y014469D01*
X021895Y014502D01*
X024170Y012227D01*
X024170Y008327D01*
X025062Y007435D01*
X025029Y007421D01*
X024957Y007350D01*
X024503Y007350D01*
X024431Y007421D01*
X024314Y007470D01*
X024186Y007470D01*
X024069Y007421D01*
X023979Y007331D01*
X023970Y007310D01*
X023970Y007334D01*
X023921Y007451D01*
X023831Y007541D01*
X023714Y007590D01*
X023593Y007590D01*
X023790Y007787D01*
X023790Y011457D01*
X023861Y011529D01*
X023910Y011646D01*
X023910Y011774D01*
X023861Y011891D01*
X023771Y011981D01*
X023654Y012030D01*
X023526Y012030D01*
X023409Y011981D01*
X023319Y011891D01*
X023270Y011774D01*
X023270Y011646D01*
X023319Y011529D01*
X023390Y011457D01*
X023390Y007953D01*
X023130Y007693D01*
X023130Y008937D01*
X023201Y009009D01*
X023250Y009126D01*
X023250Y009254D01*
X023201Y009371D01*
X023111Y009461D01*
X022994Y009510D01*
X022866Y009510D01*
X022749Y009461D01*
X022659Y009371D01*
X022610Y009254D01*
X022610Y009126D01*
X022659Y009009D01*
X022730Y008937D01*
X022678Y008989D02*
X021570Y008989D01*
X021570Y009148D02*
X022610Y009148D01*
X022632Y009306D02*
X021570Y009306D01*
X021570Y009465D02*
X022757Y009465D01*
X023103Y009465D02*
X023390Y009465D01*
X023390Y009623D02*
X022427Y009623D01*
X022421Y009609D02*
X022470Y009726D01*
X022470Y009854D01*
X022421Y009971D01*
X022350Y010043D01*
X022350Y011662D01*
X022399Y011682D01*
X022523Y011806D01*
X022590Y011967D01*
X022590Y012143D01*
X022523Y012304D01*
X022399Y012428D01*
X022238Y012495D01*
X022062Y012495D01*
X021901Y012428D01*
X021777Y012304D01*
X021710Y012143D01*
X021710Y011967D01*
X021777Y011806D01*
X021901Y011682D01*
X021950Y011662D01*
X021950Y010043D01*
X021879Y009971D01*
X021830Y009854D01*
X021830Y009726D01*
X021879Y009609D01*
X021969Y009519D01*
X022086Y009470D01*
X022214Y009470D01*
X022331Y009519D01*
X022421Y009609D01*
X022470Y009782D02*
X023390Y009782D01*
X023390Y009940D02*
X022434Y009940D01*
X022350Y010099D02*
X023390Y010099D01*
X023390Y010257D02*
X022350Y010257D01*
X022350Y010416D02*
X023390Y010416D01*
X023390Y010574D02*
X022350Y010574D01*
X022350Y010733D02*
X023390Y010733D01*
X023390Y010891D02*
X022350Y010891D01*
X022350Y011050D02*
X023390Y011050D01*
X023390Y011208D02*
X022350Y011208D01*
X022350Y011367D02*
X023390Y011367D01*
X023322Y011525D02*
X022350Y011525D01*
X022401Y011684D02*
X023270Y011684D01*
X023298Y011842D02*
X022538Y011842D01*
X022590Y012001D02*
X023455Y012001D01*
X023725Y012001D02*
X024170Y012001D01*
X024170Y012159D02*
X022583Y012159D01*
X022510Y012318D02*
X024080Y012318D01*
X023921Y012476D02*
X022283Y012476D01*
X022017Y012476D02*
X020383Y012476D01*
X020117Y012476D02*
X019327Y012476D01*
X019485Y012318D02*
X019890Y012318D01*
X019817Y012159D02*
X019644Y012159D01*
X019802Y012001D02*
X019810Y012001D01*
X019554Y011684D02*
X018206Y011684D01*
X018365Y011842D02*
X019395Y011842D01*
X019237Y012001D02*
X018523Y012001D01*
X018852Y012159D02*
X019078Y012159D01*
X019168Y012635D02*
X023763Y012635D01*
X023604Y012793D02*
X019010Y012793D01*
X018851Y012952D02*
X023446Y012952D01*
X023287Y013110D02*
X020523Y013110D01*
X020610Y013269D02*
X023129Y013269D01*
X022970Y013427D02*
X020596Y013427D01*
X020487Y013586D02*
X022812Y013586D01*
X022653Y013744D02*
X020190Y013744D01*
X019592Y013586D02*
X018668Y013586D01*
X018537Y013427D02*
X019910Y013427D01*
X019970Y013269D02*
X018667Y013269D01*
X018693Y013110D02*
X020057Y013110D01*
X019550Y013744D02*
X018827Y013744D01*
X018420Y013903D02*
X017005Y013903D01*
X017164Y014061D02*
X018578Y014061D01*
X018261Y013744D02*
X016847Y013744D01*
X016688Y013586D02*
X018103Y013586D01*
X017944Y013427D02*
X016530Y013427D01*
X016371Y013269D02*
X017786Y013269D01*
X017627Y013110D02*
X016875Y013110D01*
X017016Y012952D02*
X017469Y012952D01*
X017310Y012793D02*
X017082Y012793D01*
X017085Y012635D02*
X017152Y012635D01*
X017150Y012476D02*
X017044Y012476D01*
X016942Y012318D02*
X017150Y012318D01*
X017150Y012159D02*
X016826Y012159D01*
X017002Y012001D02*
X017150Y012001D01*
X017150Y011842D02*
X017081Y011842D01*
X017105Y011684D02*
X017150Y011684D01*
X017102Y011525D02*
X017083Y011525D01*
X016555Y011525D02*
X016555Y011525D01*
X016555Y011680D02*
X016555Y011680D01*
X016555Y011680D01*
X016555Y011130D01*
X016512Y011130D01*
X016426Y011144D01*
X016344Y011170D01*
X016267Y011210D01*
X016197Y011260D01*
X016135Y011322D01*
X016085Y011392D01*
X016045Y011469D01*
X016019Y011551D01*
X016005Y011637D01*
X016005Y011680D01*
X016555Y011680D01*
X016108Y012001D02*
X015103Y012001D01*
X015262Y012159D02*
X016284Y012159D01*
X016168Y012318D02*
X015420Y012318D01*
X015579Y012476D02*
X016066Y012476D01*
X016025Y012635D02*
X015737Y012635D01*
X015896Y012793D02*
X016028Y012793D01*
X016054Y012952D02*
X016094Y012952D01*
X016213Y013110D02*
X016235Y013110D01*
X015806Y013269D02*
X000614Y013269D01*
X000614Y013427D02*
X015964Y013427D01*
X016123Y013586D02*
X009878Y013586D01*
X009828Y013536D02*
X009939Y013647D01*
X010000Y013793D01*
X010000Y013951D01*
X009939Y014097D01*
X009828Y014208D01*
X009682Y014268D01*
X009524Y014268D01*
X009379Y014208D01*
X009267Y014097D01*
X009207Y013951D01*
X009207Y013793D01*
X009267Y013647D01*
X009379Y013536D01*
X009524Y013475D01*
X009682Y013475D01*
X009828Y013536D01*
X009979Y013744D02*
X016281Y013744D01*
X016440Y013903D02*
X010000Y013903D01*
X009954Y014061D02*
X016598Y014061D01*
X016757Y014220D02*
X009800Y014220D01*
X009406Y014220D02*
X000614Y014220D01*
X000614Y014378D02*
X016915Y014378D01*
X017074Y014537D02*
X000614Y014537D01*
X000614Y014695D02*
X021252Y014695D01*
X021361Y014854D02*
X006170Y014854D01*
X006193Y014870D02*
X006255Y014932D01*
X006305Y015002D01*
X006345Y015079D01*
X006371Y015161D01*
X006385Y015247D01*
X006385Y015270D01*
X005855Y015270D01*
X005855Y015310D01*
X006385Y015310D01*
X006385Y015333D01*
X006371Y015419D01*
X006345Y015501D01*
X006305Y015578D01*
X006255Y015648D01*
X006193Y015710D01*
X006123Y015760D01*
X006046Y015800D01*
X005964Y015826D01*
X005878Y015840D01*
X005855Y015840D01*
X005855Y015310D01*
X005815Y015310D01*
X005815Y015840D01*
X005792Y015840D01*
X005706Y015826D01*
X005624Y015800D01*
X005547Y015760D01*
X005477Y015710D01*
X005415Y015648D01*
X005365Y015578D01*
X005325Y015501D01*
X005299Y015419D01*
X005285Y015333D01*
X005285Y015310D01*
X005815Y015310D01*
X005815Y015270D01*
X005855Y015270D01*
X005855Y014740D01*
X005878Y014740D01*
X005964Y014754D01*
X006046Y014780D01*
X006123Y014820D01*
X006193Y014870D01*
X006311Y015012D02*
X013453Y015012D01*
X013506Y014990D02*
X013634Y014990D01*
X013751Y015039D01*
X013823Y015110D01*
X015153Y015110D01*
X015997Y015954D01*
X016200Y015870D01*
X016422Y015870D01*
X016628Y015955D01*
X016786Y016113D01*
X016871Y016319D01*
X016871Y016541D01*
X016786Y016747D01*
X016628Y016905D01*
X016422Y016990D01*
X016200Y016990D01*
X015994Y016905D01*
X015836Y016747D01*
X015751Y016541D01*
X015751Y016319D01*
X015764Y016287D01*
X014987Y015510D01*
X014233Y015510D01*
X014660Y015937D01*
X014822Y015870D01*
X015044Y015870D01*
X015250Y015955D01*
X015408Y016113D01*
X015493Y016319D01*
X015493Y016541D01*
X015408Y016747D01*
X015250Y016905D01*
X015044Y016990D01*
X014822Y016990D01*
X014616Y016905D01*
X014458Y016747D01*
X014373Y016541D01*
X014373Y016319D01*
X014403Y016246D01*
X013967Y015810D01*
X013223Y015810D01*
X013163Y015870D01*
X014021Y015870D01*
X014115Y015964D01*
X014115Y016896D01*
X014021Y016990D01*
X013089Y016990D01*
X012995Y016896D01*
X012995Y015964D01*
X013029Y015930D01*
X012906Y015930D01*
X012789Y015881D01*
X012699Y015791D01*
X012650Y015674D01*
X012650Y015546D01*
X012665Y015510D01*
X009993Y015510D01*
X009626Y015877D01*
X009660Y015960D01*
X009660Y016150D01*
X009587Y016327D01*
X009452Y016462D01*
X009275Y016535D01*
X009085Y016535D01*
X008908Y016462D01*
X008773Y016327D01*
X008700Y016150D01*
X008700Y015960D01*
X008773Y015783D01*
X008908Y015648D01*
X009085Y015575D01*
X009275Y015575D01*
X009337Y015600D01*
X009827Y015110D01*
X013317Y015110D01*
X013389Y015039D01*
X013506Y014990D01*
X013687Y015012D02*
X021385Y015012D01*
X021227Y015171D02*
X015213Y015171D01*
X015372Y015329D02*
X021068Y015329D01*
X020910Y015488D02*
X015530Y015488D01*
X015689Y015646D02*
X020751Y015646D01*
X020593Y015805D02*
X015847Y015805D01*
X015440Y015963D02*
X015258Y015963D01*
X015282Y015805D02*
X014527Y015805D01*
X014369Y015646D02*
X015123Y015646D01*
X015411Y016122D02*
X015599Y016122D01*
X015477Y016280D02*
X015757Y016280D01*
X015751Y016439D02*
X015493Y016439D01*
X015470Y016597D02*
X015774Y016597D01*
X015844Y016756D02*
X015399Y016756D01*
X015228Y016914D02*
X016016Y016914D01*
X016606Y016914D02*
X017394Y016914D01*
X017372Y016905D02*
X017214Y016747D01*
X017129Y016541D01*
X017129Y016319D01*
X017214Y016113D01*
X017372Y015955D01*
X017577Y015870D01*
X017800Y015870D01*
X018006Y015955D01*
X018164Y016113D01*
X018249Y016319D01*
X018249Y016541D01*
X018164Y016747D01*
X018006Y016905D01*
X017800Y016990D01*
X017577Y016990D01*
X017372Y016905D01*
X017222Y016756D02*
X016777Y016756D01*
X016848Y016597D02*
X017152Y016597D01*
X017129Y016439D02*
X016871Y016439D01*
X016855Y016280D02*
X017145Y016280D01*
X017210Y016122D02*
X016789Y016122D01*
X016636Y015963D02*
X017364Y015963D01*
X018014Y015963D02*
X018742Y015963D01*
X018588Y016122D02*
X018167Y016122D01*
X018233Y016280D02*
X018523Y016280D01*
X018507Y016439D02*
X018249Y016439D01*
X018226Y016597D02*
X018530Y016597D01*
X018600Y016756D02*
X018155Y016756D01*
X017984Y016914D02*
X018772Y016914D01*
X019362Y016914D02*
X019511Y016914D01*
X019670Y017073D02*
X011120Y017073D01*
X011111Y017081D02*
X010994Y017130D01*
X010866Y017130D01*
X010749Y017081D01*
X010679Y017012D01*
X010680Y017016D01*
X010680Y017046D01*
X010189Y017046D01*
X010189Y017064D01*
X010171Y017064D01*
X010171Y017555D01*
X010141Y017555D01*
X010063Y017543D01*
X009988Y017518D01*
X009918Y017483D01*
X009854Y017436D01*
X009799Y017381D01*
X009752Y017317D01*
X009717Y017247D01*
X009692Y017172D01*
X009680Y017094D01*
X009680Y017064D01*
X010171Y017064D01*
X010171Y017046D01*
X009680Y017046D01*
X009680Y017016D01*
X009692Y016938D01*
X009717Y016863D01*
X009752Y016793D01*
X009799Y016729D01*
X009854Y016674D01*
X009918Y016627D01*
X009988Y016592D01*
X010063Y016567D01*
X010141Y016555D01*
X010171Y016555D01*
X010171Y017046D01*
X010189Y017046D01*
X010189Y016555D01*
X010219Y016555D01*
X010297Y016567D01*
X010372Y016592D01*
X010442Y016627D01*
X010506Y016674D01*
X010561Y016729D01*
X010608Y016793D01*
X010610Y016798D01*
X010610Y016773D01*
X010344Y016507D01*
X010275Y016535D01*
X010085Y016535D01*
X009908Y016462D01*
X009773Y016327D01*
X009700Y016150D01*
X009700Y015960D01*
X009773Y015783D01*
X009908Y015648D01*
X010085Y015575D01*
X010275Y015575D01*
X010452Y015648D01*
X010587Y015783D01*
X010660Y015960D01*
X010660Y016150D01*
X010629Y016226D01*
X010893Y016490D01*
X010994Y016490D01*
X011111Y016539D01*
X011201Y016629D01*
X011250Y016746D01*
X011250Y016874D01*
X011201Y016991D01*
X011111Y017081D01*
X011233Y016914D02*
X013013Y016914D01*
X012995Y016756D02*
X011250Y016756D01*
X011170Y016597D02*
X012995Y016597D01*
X012995Y016439D02*
X010841Y016439D01*
X010683Y016280D02*
X012995Y016280D01*
X012995Y016122D02*
X010660Y016122D01*
X010660Y015963D02*
X012996Y015963D01*
X012712Y015805D02*
X010596Y015805D01*
X010447Y015646D02*
X012650Y015646D01*
X014114Y015963D02*
X014120Y015963D01*
X014115Y016122D02*
X014279Y016122D01*
X014389Y016280D02*
X014115Y016280D01*
X014115Y016439D02*
X014373Y016439D01*
X014396Y016597D02*
X014115Y016597D01*
X014115Y016756D02*
X014467Y016756D01*
X014638Y016914D02*
X014097Y016914D01*
X010740Y017073D02*
X010680Y017073D01*
X010680Y017064D02*
X010680Y017094D01*
X010668Y017172D01*
X010643Y017247D01*
X010608Y017317D01*
X010561Y017381D01*
X010506Y017436D01*
X010442Y017483D01*
X010372Y017518D01*
X010297Y017543D01*
X010219Y017555D01*
X010189Y017555D01*
X010189Y017064D01*
X010680Y017064D01*
X010649Y017231D02*
X019828Y017231D01*
X019987Y017390D02*
X010553Y017390D01*
X010263Y017548D02*
X021662Y017548D01*
X021798Y017548D02*
X024801Y017548D01*
X024642Y017390D02*
X022010Y017390D01*
X022050Y017231D02*
X024615Y017231D01*
X025309Y017548D02*
X028772Y017548D01*
X028614Y017390D02*
X025468Y017390D01*
X025495Y017231D02*
X028595Y017231D01*
X028595Y017180D02*
X028595Y016989D01*
X028864Y016720D01*
X029055Y016720D01*
X029246Y016720D01*
X029515Y016989D01*
X029515Y017180D01*
X029055Y017180D01*
X029055Y017180D01*
X029055Y016720D01*
X029055Y017180D01*
X029055Y017180D01*
X029055Y017180D01*
X028595Y017180D01*
X028595Y017073D02*
X025495Y017073D01*
X025411Y016914D02*
X028670Y016914D01*
X028829Y016756D02*
X025367Y016756D01*
X025526Y016597D02*
X028821Y016597D01*
X028864Y016640D02*
X028595Y016371D01*
X028595Y016180D01*
X029055Y016180D01*
X029515Y016180D01*
X029515Y016371D01*
X029246Y016640D01*
X029055Y016640D01*
X029055Y016180D01*
X029055Y016180D01*
X029055Y016180D01*
X029515Y016180D01*
X029515Y015989D01*
X029246Y015720D01*
X029055Y015720D01*
X029055Y016180D01*
X029055Y016180D01*
X029055Y016180D01*
X029055Y016640D01*
X028864Y016640D01*
X029055Y016597D02*
X029055Y016597D01*
X029055Y016439D02*
X029055Y016439D01*
X029055Y016280D02*
X029055Y016280D01*
X029055Y016180D02*
X028595Y016180D01*
X028595Y015989D01*
X028864Y015720D01*
X029055Y015720D01*
X029055Y016180D01*
X029055Y016122D02*
X029055Y016122D01*
X029055Y015963D02*
X029055Y015963D01*
X029055Y015805D02*
X029055Y015805D01*
X029055Y015640D02*
X029246Y015640D01*
X029515Y015371D01*
X029515Y015180D01*
X029055Y015180D01*
X029055Y015180D01*
X029055Y015180D01*
X029055Y015640D01*
X028864Y015640D01*
X028595Y015371D01*
X028595Y015180D01*
X029055Y015180D01*
X029515Y015180D01*
X029515Y014989D01*
X029246Y014720D01*
X029055Y014720D01*
X029055Y015180D01*
X029055Y015180D01*
X029055Y015180D01*
X029055Y015640D01*
X029055Y015488D02*
X029055Y015488D01*
X029055Y015329D02*
X029055Y015329D01*
X029055Y015180D02*
X028595Y015180D01*
X028595Y014989D01*
X028864Y014720D01*
X029055Y014720D01*
X029055Y015180D01*
X029055Y015171D02*
X029055Y015171D01*
X029055Y015012D02*
X029055Y015012D01*
X029055Y014854D02*
X029055Y014854D01*
X029055Y014640D02*
X029246Y014640D01*
X029515Y014371D01*
X029515Y014180D01*
X029055Y014180D01*
X029055Y014180D01*
X029055Y014180D01*
X029055Y014640D01*
X028864Y014640D01*
X028595Y014371D01*
X028595Y014180D01*
X029055Y014180D01*
X029515Y014180D01*
X029515Y013989D01*
X029246Y013720D01*
X029055Y013720D01*
X029055Y014180D01*
X029055Y014180D01*
X029055Y014180D01*
X029055Y014640D01*
X029055Y014537D02*
X029055Y014537D01*
X029055Y014378D02*
X029055Y014378D01*
X029055Y014220D02*
X029055Y014220D01*
X029055Y014180D02*
X028595Y014180D01*
X028595Y013989D01*
X028864Y013720D01*
X029055Y013720D01*
X029055Y014180D01*
X029055Y014061D02*
X029055Y014061D01*
X029055Y013903D02*
X029055Y013903D01*
X029055Y013744D02*
X029055Y013744D01*
X029055Y013640D02*
X029246Y013640D01*
X029515Y013371D01*
X029515Y013180D01*
X029055Y013180D01*
X029055Y013180D01*
X029055Y013180D01*
X029055Y013640D01*
X028864Y013640D01*
X028595Y013371D01*
X028595Y013180D01*
X029055Y013180D01*
X029515Y013180D01*
X029515Y012989D01*
X029246Y012720D01*
X029055Y012720D01*
X029055Y013180D01*
X029055Y013180D01*
X029055Y013180D01*
X029055Y013640D01*
X029055Y013586D02*
X029055Y013586D01*
X029055Y013427D02*
X029055Y013427D01*
X029055Y013269D02*
X029055Y013269D01*
X029055Y013180D02*
X028595Y013180D01*
X028595Y012989D01*
X028864Y012720D01*
X029055Y012720D01*
X029055Y013180D01*
X029055Y013110D02*
X029055Y013110D01*
X029055Y012952D02*
X029055Y012952D01*
X029055Y012793D02*
X029055Y012793D01*
X029055Y012640D02*
X029246Y012640D01*
X029515Y012371D01*
X029515Y012180D01*
X029055Y012180D01*
X029055Y012180D01*
X029055Y012180D01*
X029055Y012640D01*
X028864Y012640D01*
X028595Y012371D01*
X028595Y012180D01*
X029055Y012180D01*
X029515Y012180D01*
X029515Y011989D01*
X029246Y011720D01*
X029055Y011720D01*
X029055Y012180D01*
X029055Y012180D01*
X029055Y012180D01*
X029055Y012640D01*
X029055Y012635D02*
X029055Y012635D01*
X029055Y012476D02*
X029055Y012476D01*
X029055Y012318D02*
X029055Y012318D01*
X029055Y012180D02*
X028595Y012180D01*
X028595Y011989D01*
X028864Y011720D01*
X029055Y011720D01*
X029055Y012180D01*
X029055Y012159D02*
X029055Y012159D01*
X029055Y012001D02*
X029055Y012001D01*
X029055Y011842D02*
X029055Y011842D01*
X029368Y011842D02*
X035068Y011842D01*
X035059Y011856D02*
X035120Y011758D01*
X035193Y011668D01*
X035274Y011586D01*
X035365Y011514D01*
X035463Y011452D01*
X035567Y011402D01*
X035676Y011364D01*
X035789Y011338D01*
X035882Y011328D01*
X035882Y012275D01*
X036042Y012275D01*
X036042Y011328D01*
X036135Y011338D01*
X036247Y011364D01*
X036357Y011402D01*
X036461Y011452D01*
X036559Y011514D01*
X036649Y011586D01*
X036731Y011668D01*
X036803Y011758D01*
X036865Y011856D01*
X036915Y011961D01*
X036953Y012070D01*
X036979Y012183D01*
X036989Y012275D01*
X036042Y012275D01*
X036042Y012435D01*
X036989Y012435D01*
X036979Y012528D01*
X036953Y012641D01*
X036915Y012750D01*
X036865Y012854D01*
X036803Y012952D01*
X036731Y013043D01*
X036649Y013125D01*
X036559Y013197D01*
X036461Y013258D01*
X036357Y013308D01*
X036247Y013347D01*
X036135Y013372D01*
X036042Y013383D01*
X036042Y012435D01*
X035882Y012435D01*
X035882Y012275D01*
X034934Y012275D01*
X034945Y012183D01*
X034970Y012070D01*
X035009Y011961D01*
X035059Y011856D01*
X034995Y012001D02*
X029515Y012001D01*
X029515Y012159D02*
X034950Y012159D01*
X034934Y012435D02*
X035882Y012435D01*
X035882Y013383D01*
X035789Y013372D01*
X035676Y013347D01*
X035567Y013308D01*
X035463Y013258D01*
X035365Y013197D01*
X035274Y013125D01*
X035193Y013043D01*
X035120Y012952D01*
X032794Y012952D01*
X032790Y012947D02*
X032973Y013130D01*
X033074Y013130D01*
X033191Y013179D01*
X033281Y013269D01*
X033330Y013386D01*
X033330Y013514D01*
X033281Y013631D01*
X033191Y013721D01*
X033074Y013770D01*
X032946Y013770D01*
X032829Y013721D01*
X032739Y013631D01*
X032690Y013514D01*
X032690Y013413D01*
X032507Y013230D01*
X032406Y013230D01*
X032289Y013181D01*
X032199Y013091D01*
X032150Y012974D01*
X032150Y012846D01*
X032199Y012729D01*
X032289Y012639D01*
X032406Y012590D01*
X032534Y012590D01*
X032651Y012639D01*
X032741Y012729D01*
X032790Y012846D01*
X032790Y012947D01*
X032768Y012793D02*
X035029Y012793D01*
X035009Y012750D02*
X034970Y012641D01*
X034945Y012528D01*
X034934Y012435D01*
X034939Y012476D02*
X029410Y012476D01*
X029515Y012318D02*
X035882Y012318D01*
X035882Y012476D02*
X036042Y012476D01*
X036042Y012318D02*
X039250Y012318D01*
X039250Y012476D02*
X036985Y012476D01*
X036955Y012635D02*
X039250Y012635D01*
X039250Y012793D02*
X036894Y012793D01*
X036804Y012952D02*
X039250Y012952D01*
X039250Y013110D02*
X036664Y013110D01*
X036440Y013269D02*
X039250Y013269D01*
X039250Y013427D02*
X034530Y013427D01*
X034530Y013454D02*
X034481Y013571D01*
X034391Y013661D01*
X034274Y013710D01*
X034173Y013710D01*
X034110Y013773D01*
X034110Y013874D01*
X034061Y013991D01*
X033971Y014081D01*
X033854Y014130D01*
X033726Y014130D01*
X033609Y014081D01*
X033519Y013991D01*
X033470Y013874D01*
X033470Y013746D01*
X033519Y013629D01*
X033609Y013539D01*
X033726Y013490D01*
X033827Y013490D01*
X033890Y013427D01*
X033330Y013427D01*
X033300Y013586D02*
X033562Y013586D01*
X033471Y013744D02*
X033136Y013744D01*
X032884Y013744D02*
X029270Y013744D01*
X029300Y013586D02*
X032720Y013586D01*
X032690Y013427D02*
X029459Y013427D01*
X029515Y013269D02*
X032546Y013269D01*
X032217Y013110D02*
X029515Y013110D01*
X029477Y012952D02*
X032150Y012952D01*
X032172Y012793D02*
X029319Y012793D01*
X029251Y012635D02*
X032299Y012635D01*
X032641Y012635D02*
X034969Y012635D01*
X035009Y012750D02*
X035059Y012854D01*
X035120Y012952D01*
X035260Y013110D02*
X034370Y013110D01*
X034391Y013119D02*
X034481Y013209D01*
X034530Y013326D01*
X034530Y013454D01*
X034467Y013586D02*
X039250Y013586D01*
X039250Y013744D02*
X034139Y013744D01*
X034098Y013903D02*
X039250Y013903D01*
X039250Y014061D02*
X033992Y014061D01*
X033588Y014061D02*
X029515Y014061D01*
X029515Y014220D02*
X039250Y014220D01*
X039250Y014378D02*
X029508Y014378D01*
X029349Y014537D02*
X039250Y014537D01*
X039250Y014695D02*
X027428Y014695D01*
X027586Y014537D02*
X028761Y014537D01*
X028602Y014378D02*
X027630Y014378D01*
X027630Y014220D02*
X028595Y014220D01*
X028595Y014061D02*
X027630Y014061D01*
X027630Y013903D02*
X028682Y013903D01*
X028840Y013744D02*
X027630Y013744D01*
X027630Y013586D02*
X028810Y013586D01*
X028651Y013427D02*
X027630Y013427D01*
X027630Y013269D02*
X028595Y013269D01*
X028595Y013110D02*
X027630Y013110D01*
X027630Y012952D02*
X028633Y012952D01*
X028791Y012793D02*
X027630Y012793D01*
X027630Y012635D02*
X028859Y012635D01*
X028700Y012476D02*
X027630Y012476D01*
X027630Y012318D02*
X028595Y012318D01*
X028595Y012159D02*
X027630Y012159D01*
X027630Y012001D02*
X028595Y012001D01*
X028742Y011842D02*
X027630Y011842D01*
X027630Y011684D02*
X035180Y011684D01*
X035351Y011525D02*
X027630Y011525D01*
X027630Y011367D02*
X034253Y011367D01*
X034161Y011313D02*
X034391Y011446D01*
X034648Y011515D01*
X034914Y011515D01*
X035171Y011446D01*
X035401Y011313D01*
X035589Y011125D01*
X035722Y010895D01*
X035791Y010638D01*
X035791Y010372D01*
X035722Y010115D01*
X035589Y009885D01*
X035401Y009697D01*
X035171Y009564D01*
X034914Y009495D01*
X034648Y009495D01*
X034391Y009564D01*
X034161Y009697D01*
X034010Y009847D01*
X030416Y006253D01*
X030491Y006221D01*
X030581Y006131D01*
X030630Y006014D01*
X030630Y005886D01*
X030581Y005769D01*
X030510Y005697D01*
X030510Y005253D01*
X033281Y002482D01*
X033300Y002490D01*
X033522Y002490D01*
X033728Y002405D01*
X033886Y002247D01*
X033971Y002041D01*
X033971Y001819D01*
X033886Y001613D01*
X033728Y001455D01*
X033522Y001370D01*
X033300Y001370D01*
X033094Y001455D01*
X032936Y001613D01*
X032851Y001819D01*
X032851Y002041D01*
X032936Y002247D01*
X032943Y002254D01*
X030110Y005087D01*
X030110Y005697D01*
X030039Y005769D01*
X030007Y005844D01*
X029970Y005807D01*
X029970Y005706D01*
X029921Y005589D01*
X029831Y005499D01*
X029714Y005450D01*
X029586Y005450D01*
X029469Y005499D01*
X029379Y005589D01*
X029330Y005706D01*
X029330Y005834D01*
X029379Y005951D01*
X029469Y006041D01*
X029586Y006090D01*
X029687Y006090D01*
X033813Y010215D01*
X033771Y010372D01*
X033771Y010638D01*
X033839Y010895D01*
X033972Y011125D01*
X034161Y011313D01*
X034055Y011208D02*
X027630Y011208D01*
X027630Y011050D02*
X033929Y011050D01*
X033838Y010891D02*
X027630Y010891D01*
X027630Y010733D02*
X033796Y010733D01*
X033771Y010574D02*
X027630Y010574D01*
X027630Y010416D02*
X033771Y010416D01*
X033801Y010257D02*
X032036Y010257D01*
X031991Y010301D02*
X031874Y010350D01*
X031746Y010350D01*
X031629Y010301D01*
X031557Y010230D01*
X031547Y010230D01*
X031430Y010113D01*
X029927Y008610D01*
X028343Y008610D01*
X028271Y008681D01*
X028154Y008730D01*
X028026Y008730D01*
X027909Y008681D01*
X027819Y008591D01*
X027770Y008474D01*
X027770Y008346D01*
X027819Y008229D01*
X027909Y008139D01*
X028026Y008090D01*
X028154Y008090D01*
X028271Y008139D01*
X028343Y008210D01*
X029927Y008210D01*
X030093Y008210D01*
X030805Y008922D01*
X030819Y008889D01*
X030909Y008799D01*
X031026Y008750D01*
X031154Y008750D01*
X031271Y008799D01*
X031343Y008870D01*
X031410Y008870D01*
X031370Y008774D01*
X031370Y008673D01*
X030347Y007650D01*
X030246Y007650D01*
X030129Y007601D01*
X030039Y007511D01*
X029990Y007394D01*
X029990Y007266D01*
X030039Y007149D01*
X030129Y007059D01*
X030246Y007010D01*
X030374Y007010D01*
X030491Y007059D01*
X030581Y007149D01*
X030630Y007266D01*
X030630Y007367D01*
X031653Y008390D01*
X031754Y008390D01*
X031871Y008439D01*
X031961Y008529D01*
X032010Y008646D01*
X032010Y008690D01*
X032054Y008690D01*
X032171Y008739D01*
X032261Y008829D01*
X032310Y008946D01*
X032310Y009074D01*
X032261Y009191D01*
X032171Y009281D01*
X032054Y009330D01*
X031926Y009330D01*
X031809Y009281D01*
X031797Y009270D01*
X031343Y009270D01*
X031271Y009341D01*
X031238Y009355D01*
X031638Y009755D01*
X031746Y009710D01*
X031874Y009710D01*
X031991Y009759D01*
X032081Y009849D01*
X032130Y009966D01*
X032130Y010094D01*
X032081Y010211D01*
X031991Y010301D01*
X032128Y010099D02*
X033696Y010099D01*
X033537Y009940D02*
X032119Y009940D01*
X032014Y009782D02*
X033379Y009782D01*
X033220Y009623D02*
X031506Y009623D01*
X031347Y009465D02*
X033062Y009465D01*
X032903Y009306D02*
X032112Y009306D01*
X032279Y009148D02*
X032745Y009148D01*
X032586Y008989D02*
X032310Y008989D01*
X032262Y008831D02*
X032428Y008831D01*
X032269Y008672D02*
X032010Y008672D01*
X031946Y008514D02*
X032111Y008514D01*
X031952Y008355D02*
X031618Y008355D01*
X031459Y008197D02*
X031794Y008197D01*
X031635Y008038D02*
X031301Y008038D01*
X031142Y007880D02*
X031477Y007880D01*
X031318Y007721D02*
X030984Y007721D01*
X030825Y007563D02*
X031160Y007563D01*
X031001Y007404D02*
X030667Y007404D01*
X030621Y007246D02*
X030843Y007246D01*
X030684Y007087D02*
X030520Y007087D01*
X030526Y006929D02*
X028501Y006929D01*
X028590Y007087D02*
X030100Y007087D01*
X029999Y007246D02*
X028577Y007246D01*
X028469Y007404D02*
X029994Y007404D01*
X030090Y007563D02*
X027630Y007563D01*
X027630Y007721D02*
X030418Y007721D01*
X030577Y007880D02*
X027630Y007880D01*
X027630Y008038D02*
X030735Y008038D01*
X030894Y008197D02*
X028329Y008197D01*
X027851Y008197D02*
X027630Y008197D01*
X027630Y008355D02*
X027770Y008355D01*
X027787Y008514D02*
X027630Y008514D01*
X027630Y008672D02*
X027899Y008672D01*
X027630Y008831D02*
X030148Y008831D01*
X030306Y008989D02*
X027630Y008989D01*
X027630Y009148D02*
X030465Y009148D01*
X030623Y009306D02*
X027630Y009306D01*
X027630Y009465D02*
X030782Y009465D01*
X030940Y009623D02*
X027630Y009623D01*
X027630Y009782D02*
X031099Y009782D01*
X031257Y009940D02*
X027630Y009940D01*
X027630Y010099D02*
X031416Y010099D01*
X031584Y010257D02*
X027630Y010257D01*
X027050Y010099D02*
X027045Y010099D01*
X027050Y009940D02*
X025290Y009940D01*
X025290Y009782D02*
X027050Y009782D01*
X027050Y009623D02*
X025300Y009623D01*
X025458Y009465D02*
X027050Y009465D01*
X027050Y009306D02*
X025617Y009306D01*
X025775Y009148D02*
X027050Y009148D01*
X027050Y008989D02*
X025934Y008989D01*
X026092Y008831D02*
X027050Y008831D01*
X027050Y008672D02*
X026251Y008672D01*
X026409Y008514D02*
X027050Y008514D01*
X027050Y008355D02*
X026568Y008355D01*
X026726Y008197D02*
X027050Y008197D01*
X027050Y008038D02*
X026885Y008038D01*
X027043Y007880D02*
X027050Y007880D01*
X026588Y007721D02*
X025342Y007721D01*
X025500Y007563D02*
X026470Y007563D01*
X026450Y007404D02*
X025659Y007404D01*
X025710Y007246D02*
X026522Y007246D01*
X026570Y007087D02*
X025710Y007087D01*
X025710Y006929D02*
X026570Y006929D01*
X026527Y006770D02*
X025710Y006770D01*
X025710Y006612D02*
X026369Y006612D01*
X026210Y006453D02*
X025710Y006453D01*
X025597Y006295D02*
X026052Y006295D01*
X025893Y006136D02*
X025569Y006136D01*
X025470Y005978D02*
X025735Y005978D01*
X025576Y005819D02*
X025470Y005819D01*
X024905Y005690D02*
X024890Y005654D01*
X024890Y005526D01*
X024939Y005409D01*
X025029Y005319D01*
X025059Y005306D01*
X024628Y004889D01*
X024630Y005207D01*
X024630Y005289D01*
X024630Y005372D01*
X024630Y005373D01*
X024572Y005431D01*
X024514Y005490D01*
X024513Y005490D01*
X023970Y006033D01*
X023970Y006134D01*
X023921Y006251D01*
X023831Y006341D01*
X023714Y006390D01*
X023586Y006390D01*
X023469Y006341D01*
X023430Y006303D01*
X023430Y006837D01*
X023501Y006909D01*
X023528Y006974D01*
X023586Y006950D01*
X023687Y006950D01*
X024590Y006047D01*
X024590Y005946D01*
X024639Y005829D01*
X024729Y005739D01*
X024846Y005690D01*
X024905Y005690D01*
X024893Y005661D02*
X024342Y005661D01*
X024184Y005819D02*
X024648Y005819D01*
X024590Y005978D02*
X024025Y005978D01*
X023969Y006136D02*
X024501Y006136D01*
X024343Y006295D02*
X023878Y006295D01*
X024184Y006453D02*
X023430Y006453D01*
X023430Y006612D02*
X024026Y006612D01*
X023867Y006770D02*
X023430Y006770D01*
X023509Y006929D02*
X023709Y006929D01*
X023941Y007404D02*
X024051Y007404D01*
X023780Y007563D02*
X024935Y007563D01*
X025011Y007404D02*
X024449Y007404D01*
X024776Y007721D02*
X023724Y007721D01*
X023790Y007880D02*
X024618Y007880D01*
X024459Y008038D02*
X023790Y008038D01*
X023790Y008197D02*
X024301Y008197D01*
X024170Y008355D02*
X023790Y008355D01*
X023790Y008514D02*
X024170Y008514D01*
X024170Y008672D02*
X023790Y008672D01*
X023790Y008831D02*
X024170Y008831D01*
X024170Y008989D02*
X023790Y008989D01*
X023790Y009148D02*
X024170Y009148D01*
X024170Y009306D02*
X023790Y009306D01*
X023790Y009465D02*
X024170Y009465D01*
X024170Y009623D02*
X023790Y009623D01*
X023790Y009782D02*
X024170Y009782D01*
X024170Y009940D02*
X023790Y009940D01*
X023790Y010099D02*
X024170Y010099D01*
X024170Y010257D02*
X023790Y010257D01*
X023790Y010416D02*
X024170Y010416D01*
X024170Y010574D02*
X023790Y010574D01*
X023790Y010733D02*
X024170Y010733D01*
X024170Y010891D02*
X023790Y010891D01*
X023790Y011050D02*
X024170Y011050D01*
X024170Y011208D02*
X023790Y011208D01*
X023790Y011367D02*
X024170Y011367D01*
X024170Y011525D02*
X023858Y011525D01*
X023910Y011684D02*
X024170Y011684D01*
X024170Y011842D02*
X023882Y011842D01*
X024570Y011842D02*
X024771Y011842D01*
X024890Y011684D02*
X024570Y011684D01*
X024570Y011525D02*
X024890Y011525D01*
X024890Y011367D02*
X024570Y011367D01*
X024570Y011208D02*
X024890Y011208D01*
X024890Y011050D02*
X024570Y011050D01*
X024570Y010891D02*
X024890Y010891D01*
X024890Y010733D02*
X024570Y010733D01*
X024570Y010574D02*
X024890Y010574D01*
X024890Y010416D02*
X024570Y010416D01*
X024570Y010257D02*
X024890Y010257D01*
X024890Y010099D02*
X024570Y010099D01*
X024570Y009940D02*
X024890Y009940D01*
X024890Y009782D02*
X024570Y009782D01*
X024570Y009623D02*
X024890Y009623D01*
X024893Y009465D02*
X024570Y009465D01*
X024570Y009306D02*
X025051Y009306D01*
X025210Y009148D02*
X024570Y009148D01*
X024570Y008989D02*
X025368Y008989D01*
X025527Y008831D02*
X024570Y008831D01*
X024570Y008672D02*
X025685Y008672D01*
X025844Y008514D02*
X024570Y008514D01*
X024708Y008355D02*
X026002Y008355D01*
X026161Y008197D02*
X024866Y008197D01*
X025025Y008038D02*
X026319Y008038D01*
X026478Y007880D02*
X025183Y007880D01*
X023390Y008038D02*
X023130Y008038D01*
X023130Y007880D02*
X023317Y007880D01*
X023158Y007721D02*
X023130Y007721D01*
X022730Y007721D02*
X022410Y007721D01*
X022410Y007563D02*
X022730Y007563D01*
X022601Y007404D02*
X022410Y007404D01*
X022401Y007246D02*
X022490Y007246D01*
X022490Y007087D02*
X022363Y007087D01*
X022410Y006929D02*
X022490Y006929D01*
X022490Y006770D02*
X022378Y006770D01*
X022490Y006612D02*
X022206Y006612D01*
X022200Y006453D02*
X021925Y006453D01*
X022069Y006295D02*
X022087Y006295D01*
X021810Y005974D02*
X022094Y005843D01*
X022127Y005810D01*
X022166Y005810D01*
X022202Y005794D01*
X022246Y005810D01*
X022293Y005810D01*
X022321Y005838D01*
X022357Y005851D01*
X022366Y005870D01*
X022454Y005870D01*
X022482Y005882D01*
X022071Y005300D01*
X022026Y005300D01*
X021909Y005251D01*
X021819Y005161D01*
X021770Y005044D01*
X021770Y004916D01*
X021819Y004799D01*
X021909Y004709D01*
X022026Y004660D01*
X022154Y004660D01*
X022271Y004709D01*
X022361Y004799D01*
X022410Y004916D01*
X022410Y005044D01*
X022399Y005071D01*
X022841Y005697D01*
X023262Y005275D01*
X023229Y005261D01*
X023139Y005171D01*
X023090Y005054D01*
X023090Y004931D01*
X022305Y004050D01*
X022095Y004050D01*
X022110Y004086D01*
X022110Y004214D01*
X022061Y004331D01*
X021990Y004403D01*
X021937Y004456D01*
X020550Y006084D01*
X020550Y006330D01*
X020646Y006290D01*
X020774Y006290D01*
X020795Y006299D01*
X020795Y006246D01*
X020844Y006129D01*
X020934Y006039D01*
X021051Y005990D01*
X021179Y005990D01*
X021296Y006039D01*
X021377Y006119D01*
X021394Y006079D01*
X021484Y005989D01*
X021601Y005940D01*
X021729Y005940D01*
X021810Y005974D01*
X021511Y005978D02*
X020640Y005978D01*
X020550Y006136D02*
X020841Y006136D01*
X020795Y006295D02*
X020785Y006295D01*
X020635Y006295D02*
X020550Y006295D01*
X020775Y005819D02*
X022118Y005819D01*
X022302Y005819D02*
X022437Y005819D01*
X022326Y005661D02*
X020911Y005661D01*
X021046Y005502D02*
X022214Y005502D01*
X022102Y005344D02*
X021181Y005344D01*
X021316Y005185D02*
X021842Y005185D01*
X021770Y005027D02*
X021451Y005027D01*
X021586Y004868D02*
X021790Y004868D01*
X021721Y004710D02*
X021908Y004710D01*
X021856Y004551D02*
X022751Y004551D01*
X022610Y004393D02*
X022000Y004393D01*
X021990Y004403D02*
X021990Y004403D01*
X022102Y004234D02*
X022469Y004234D01*
X022328Y004076D02*
X022106Y004076D01*
X021479Y003759D02*
X020130Y003759D01*
X020130Y003917D02*
X021320Y003917D01*
X021222Y004076D02*
X020130Y004076D01*
X020130Y004234D02*
X021063Y004234D01*
X020905Y004393D02*
X020130Y004393D01*
X020130Y004551D02*
X020746Y004551D01*
X020588Y004710D02*
X020130Y004710D01*
X020130Y004868D02*
X020429Y004868D01*
X020271Y005027D02*
X020130Y005027D01*
X019730Y005027D02*
X019710Y005027D01*
X019686Y004868D02*
X019730Y004868D01*
X019730Y004710D02*
X019549Y004710D01*
X019730Y003600D02*
X017823Y003600D01*
X017981Y003442D02*
X019730Y003442D01*
X019620Y003283D02*
X018140Y003283D01*
X018298Y003125D02*
X019462Y003125D01*
X019303Y002966D02*
X018450Y002966D01*
X018450Y002808D02*
X019145Y002808D01*
X018986Y002649D02*
X018450Y002649D01*
X018450Y002491D02*
X018828Y002491D01*
X019157Y002247D02*
X019072Y002041D01*
X019072Y001819D01*
X019157Y001613D01*
X019314Y001455D01*
X019520Y001370D01*
X019743Y001370D01*
X019949Y001455D01*
X020106Y001613D01*
X020192Y001819D01*
X020192Y002041D01*
X020106Y002247D01*
X019949Y002405D01*
X019743Y002490D01*
X019520Y002490D01*
X019314Y002405D01*
X019157Y002247D01*
X019126Y002174D02*
X019076Y002174D01*
X019072Y002015D02*
X018990Y002015D01*
X018990Y001857D02*
X019072Y001857D01*
X019122Y001698D02*
X019005Y001698D01*
X019163Y001540D02*
X019230Y001540D01*
X019322Y001381D02*
X019494Y001381D01*
X019592Y001223D02*
X022815Y001223D01*
X022656Y001381D02*
X022525Y001381D01*
X022250Y001381D02*
X021147Y001381D01*
X020872Y001381D02*
X019770Y001381D01*
X020033Y001540D02*
X020608Y001540D01*
X020499Y001698D02*
X020142Y001698D01*
X020192Y001857D02*
X020450Y001857D01*
X020450Y002015D02*
X020192Y002015D01*
X020137Y002174D02*
X020504Y002174D01*
X020620Y002332D02*
X020022Y002332D01*
X019552Y002649D02*
X021566Y002649D01*
X021408Y002491D02*
X019393Y002491D01*
X019242Y002332D02*
X019235Y002332D01*
X019710Y002808D02*
X021725Y002808D01*
X021890Y002966D02*
X019869Y002966D01*
X020027Y003125D02*
X021643Y003125D01*
X021590Y003283D02*
X020130Y003283D01*
X020130Y003442D02*
X021618Y003442D01*
X021774Y003600D02*
X020130Y003600D01*
X022046Y003600D02*
X022157Y003600D01*
X023610Y002808D02*
X024110Y002808D01*
X024110Y002966D02*
X023769Y002966D01*
X023927Y003125D02*
X024110Y003125D01*
X024110Y003283D02*
X024086Y003283D01*
X024510Y003283D02*
X025860Y003283D01*
X025702Y003125D02*
X024510Y003125D01*
X024510Y002966D02*
X025543Y002966D01*
X025385Y002808D02*
X024510Y002808D01*
X024510Y002649D02*
X025226Y002649D01*
X025068Y002491D02*
X024510Y002491D01*
X024510Y002332D02*
X024753Y002332D01*
X024826Y002405D02*
X024669Y002247D01*
X024583Y002041D01*
X024583Y001819D01*
X024669Y001613D01*
X024826Y001455D01*
X025032Y001370D01*
X025255Y001370D01*
X025461Y001455D01*
X025618Y001613D01*
X025703Y001819D01*
X025703Y002041D01*
X025618Y002247D01*
X025504Y002361D01*
X025945Y002802D01*
X025959Y002769D01*
X026049Y002679D01*
X026166Y002630D01*
X026294Y002630D01*
X026411Y002679D01*
X026483Y002750D01*
X029507Y002750D01*
X030131Y002127D01*
X030095Y002041D01*
X030095Y001819D01*
X030180Y001613D01*
X030338Y001455D01*
X030544Y001370D01*
X030767Y001370D01*
X030972Y001455D01*
X031130Y001613D01*
X031215Y001819D01*
X031215Y002041D01*
X031130Y002247D01*
X030972Y002405D01*
X030767Y002490D01*
X030544Y002490D01*
X030395Y002428D01*
X029673Y003150D01*
X026483Y003150D01*
X026411Y003221D01*
X026378Y003235D01*
X027873Y004730D01*
X027974Y004730D01*
X028091Y004779D01*
X028181Y004869D01*
X028230Y004986D01*
X028230Y005114D01*
X028181Y005231D01*
X028091Y005321D01*
X027974Y005370D01*
X027846Y005370D01*
X027729Y005321D01*
X027639Y005231D01*
X027590Y005114D01*
X027590Y005013D01*
X025067Y002490D01*
X025032Y002490D01*
X024826Y002405D01*
X024110Y002491D02*
X021973Y002491D01*
X021998Y002332D02*
X021815Y002332D01*
X021882Y002174D02*
X021656Y002174D01*
X021570Y002015D02*
X021827Y002015D01*
X021827Y001857D02*
X021570Y001857D01*
X021520Y001698D02*
X021877Y001698D01*
X021986Y001540D02*
X021411Y001540D01*
X022905Y001698D02*
X023255Y001698D01*
X023205Y001857D02*
X022947Y001857D01*
X022947Y002015D02*
X023205Y002015D01*
X023260Y002174D02*
X022893Y002174D01*
X022777Y002332D02*
X023375Y002332D01*
X023452Y002649D02*
X024110Y002649D01*
X024510Y002174D02*
X024638Y002174D01*
X024583Y002015D02*
X024510Y002015D01*
X024510Y001857D02*
X024583Y001857D01*
X024633Y001698D02*
X024510Y001698D01*
X024442Y001540D02*
X024742Y001540D01*
X025005Y001381D02*
X024284Y001381D01*
X024125Y001223D02*
X029690Y001223D01*
X029690Y001247D02*
X029690Y001146D01*
X029739Y001029D01*
X029829Y000939D01*
X029946Y000890D01*
X030074Y000890D01*
X030191Y000939D01*
X030281Y001029D01*
X030330Y001146D01*
X030330Y001274D01*
X030281Y001391D01*
X030191Y001481D01*
X030074Y001530D01*
X029973Y001530D01*
X029837Y001666D01*
X029837Y002396D01*
X029744Y002490D01*
X028811Y002490D01*
X028717Y002396D01*
X028717Y001464D01*
X028811Y001370D01*
X029567Y001370D01*
X029690Y001247D01*
X029724Y001064D02*
X019793Y001064D01*
X019830Y000906D02*
X029909Y000906D01*
X030111Y000906D02*
X037829Y000906D01*
X037699Y000959D02*
X038011Y000830D01*
X038349Y000830D01*
X038661Y000959D01*
X038661Y000959D01*
X038901Y001199D01*
X039030Y001511D01*
X039030Y001630D01*
X039030Y001849D01*
X038901Y002161D01*
X038901Y002161D01*
X038661Y002401D01*
X038349Y002530D01*
X038011Y002530D01*
X037699Y002401D01*
X037699Y002401D01*
X037459Y002161D01*
X037330Y001849D01*
X037330Y001511D01*
X037459Y001199D01*
X037699Y000959D01*
X037699Y000959D01*
X037594Y001064D02*
X030296Y001064D01*
X030330Y001223D02*
X035253Y001223D01*
X035259Y001209D02*
X035349Y001119D01*
X035466Y001070D01*
X035594Y001070D01*
X035711Y001119D01*
X035801Y001209D01*
X035850Y001326D01*
X035850Y001454D01*
X035801Y001571D01*
X035711Y001661D01*
X035594Y001710D01*
X035493Y001710D01*
X034590Y002613D01*
X034590Y002714D01*
X034541Y002831D01*
X034451Y002921D01*
X034334Y002970D01*
X034206Y002970D01*
X034089Y002921D01*
X033999Y002831D01*
X033950Y002714D01*
X033950Y002586D01*
X033999Y002469D01*
X034089Y002379D01*
X034206Y002330D01*
X034307Y002330D01*
X035210Y001427D01*
X035210Y001326D01*
X035259Y001209D01*
X035210Y001381D02*
X033549Y001381D01*
X033273Y001381D02*
X032171Y001381D01*
X031895Y001381D02*
X030793Y001381D01*
X030517Y001381D02*
X030286Y001381D01*
X030254Y001540D02*
X029963Y001540D01*
X029837Y001698D02*
X030145Y001698D01*
X030095Y001857D02*
X029837Y001857D01*
X029837Y002015D02*
X030095Y002015D01*
X030084Y002174D02*
X029837Y002174D01*
X029837Y002332D02*
X029925Y002332D01*
X029767Y002491D02*
X028051Y002491D01*
X028035Y002496D02*
X027945Y002510D01*
X027937Y002510D01*
X027937Y001968D01*
X027861Y001968D01*
X027861Y001892D01*
X027319Y001892D01*
X027319Y001884D01*
X027334Y001794D01*
X027362Y001707D01*
X027403Y001626D01*
X027457Y001552D01*
X027521Y001488D01*
X027595Y001434D01*
X027677Y001392D01*
X027763Y001364D01*
X027854Y001350D01*
X027861Y001350D01*
X027861Y001892D01*
X027937Y001892D01*
X027937Y001350D01*
X027945Y001350D01*
X028035Y001364D01*
X028122Y001392D01*
X028203Y001434D01*
X028277Y001488D01*
X028342Y001552D01*
X028395Y001626D01*
X028437Y001707D01*
X028465Y001794D01*
X028479Y001884D01*
X028479Y001892D01*
X027937Y001892D01*
X027937Y001968D01*
X028479Y001968D01*
X028479Y001976D01*
X028465Y002066D01*
X028437Y002153D01*
X028395Y002234D01*
X028342Y002308D01*
X028277Y002372D01*
X028203Y002426D01*
X028122Y002468D01*
X028035Y002496D01*
X027937Y002491D02*
X027861Y002491D01*
X027861Y002510D02*
X027854Y002510D01*
X027763Y002496D01*
X027677Y002468D01*
X027595Y002426D01*
X027521Y002372D01*
X027457Y002308D01*
X027403Y002234D01*
X027362Y002153D01*
X027334Y002066D01*
X027319Y001976D01*
X027319Y001968D01*
X027861Y001968D01*
X027861Y002510D01*
X027747Y002491D02*
X025633Y002491D01*
X025533Y002332D02*
X026131Y002332D01*
X026204Y002405D02*
X026047Y002247D01*
X025961Y002041D01*
X025961Y001819D01*
X026047Y001613D01*
X026204Y001455D01*
X026410Y001370D01*
X026633Y001370D01*
X026839Y001455D01*
X026996Y001613D01*
X027081Y001819D01*
X027081Y002041D01*
X026996Y002247D01*
X026839Y002405D01*
X026633Y002490D01*
X026410Y002490D01*
X026204Y002405D01*
X026120Y002649D02*
X025792Y002649D01*
X026340Y002649D02*
X029608Y002649D01*
X030015Y002808D02*
X031010Y002808D01*
X030851Y002966D02*
X029857Y002966D01*
X029698Y003125D02*
X030693Y003125D01*
X030534Y003283D02*
X026426Y003283D01*
X026584Y003442D02*
X030376Y003442D01*
X030217Y003600D02*
X026743Y003600D01*
X026901Y003759D02*
X030059Y003759D01*
X029900Y003917D02*
X027060Y003917D01*
X027218Y004076D02*
X029742Y004076D01*
X029583Y004234D02*
X027377Y004234D01*
X027535Y004393D02*
X029425Y004393D01*
X029266Y004551D02*
X027694Y004551D01*
X027852Y004710D02*
X029108Y004710D01*
X028949Y004868D02*
X028181Y004868D01*
X028230Y005027D02*
X028791Y005027D01*
X028632Y005185D02*
X028200Y005185D01*
X028038Y005344D02*
X028474Y005344D01*
X028315Y005502D02*
X027111Y005502D01*
X027231Y005661D02*
X028157Y005661D01*
X027998Y005819D02*
X027351Y005819D01*
X027472Y005978D02*
X027840Y005978D01*
X027681Y006136D02*
X027592Y006136D01*
X028088Y006295D02*
X029892Y006295D01*
X030050Y006453D02*
X027930Y006453D01*
X028014Y006612D02*
X030209Y006612D01*
X030367Y006770D02*
X028173Y006770D01*
X027924Y007087D02*
X027630Y007087D01*
X027630Y006929D02*
X027766Y006929D01*
X027630Y007246D02*
X027963Y007246D01*
X028071Y007404D02*
X027630Y007404D01*
X028247Y006136D02*
X029733Y006136D01*
X029405Y005978D02*
X028405Y005978D01*
X028564Y005819D02*
X029330Y005819D01*
X029349Y005661D02*
X028722Y005661D01*
X028881Y005502D02*
X029465Y005502D01*
X029835Y005502D02*
X030110Y005502D01*
X030110Y005344D02*
X029039Y005344D01*
X029198Y005185D02*
X030110Y005185D01*
X030171Y005027D02*
X029356Y005027D01*
X029515Y004868D02*
X030329Y004868D01*
X030488Y004710D02*
X029673Y004710D01*
X029832Y004551D02*
X030646Y004551D01*
X030805Y004393D02*
X029990Y004393D01*
X030149Y004234D02*
X030963Y004234D01*
X031122Y004076D02*
X030307Y004076D01*
X030466Y003917D02*
X031280Y003917D01*
X031439Y003759D02*
X030624Y003759D01*
X030783Y003600D02*
X031597Y003600D01*
X031756Y003442D02*
X030941Y003442D01*
X031100Y003283D02*
X031914Y003283D01*
X032073Y003125D02*
X031258Y003125D01*
X031417Y002966D02*
X032231Y002966D01*
X032390Y002808D02*
X031575Y002808D01*
X031734Y002649D02*
X032548Y002649D01*
X032707Y002491D02*
X031892Y002491D01*
X031485Y002332D02*
X031045Y002332D01*
X031160Y002174D02*
X031528Y002174D01*
X031473Y002015D02*
X031215Y002015D01*
X031215Y001857D02*
X031473Y001857D01*
X031523Y001698D02*
X031165Y001698D01*
X031057Y001540D02*
X031632Y001540D01*
X032435Y001540D02*
X033010Y001540D01*
X032901Y001698D02*
X032543Y001698D01*
X032593Y001857D02*
X032851Y001857D01*
X032851Y002015D02*
X032593Y002015D01*
X032538Y002174D02*
X032906Y002174D01*
X032865Y002332D02*
X032423Y002332D01*
X033114Y002649D02*
X033950Y002649D01*
X033989Y002808D02*
X032955Y002808D01*
X032797Y002966D02*
X034197Y002966D01*
X034343Y002966D02*
X035940Y002966D01*
X035940Y002899D02*
X036063Y002601D01*
X036291Y002373D01*
X036589Y002250D01*
X036911Y002250D01*
X037209Y002373D01*
X037437Y002601D01*
X037560Y002899D01*
X037560Y003221D01*
X037437Y003519D01*
X037209Y003747D01*
X036911Y003870D01*
X036589Y003870D01*
X036291Y003747D01*
X036063Y003519D01*
X035940Y003221D01*
X035940Y002899D01*
X035978Y002808D02*
X034551Y002808D01*
X034590Y002649D02*
X036044Y002649D01*
X036174Y002491D02*
X034712Y002491D01*
X034871Y002332D02*
X036391Y002332D01*
X037109Y002332D02*
X037630Y002332D01*
X037471Y002174D02*
X035029Y002174D01*
X035188Y002015D02*
X037399Y002015D01*
X037333Y001857D02*
X035346Y001857D01*
X035623Y001698D02*
X037330Y001698D01*
X037330Y001540D02*
X035814Y001540D01*
X035850Y001381D02*
X037384Y001381D01*
X037449Y001223D02*
X035807Y001223D01*
X035098Y001540D02*
X033813Y001540D01*
X033921Y001698D02*
X034939Y001698D01*
X034781Y001857D02*
X033971Y001857D01*
X033971Y002015D02*
X034622Y002015D01*
X034464Y002174D02*
X033916Y002174D01*
X033801Y002332D02*
X034202Y002332D01*
X033990Y002491D02*
X033272Y002491D01*
X032638Y003125D02*
X035940Y003125D01*
X035966Y003283D02*
X032480Y003283D01*
X032321Y003442D02*
X036031Y003442D01*
X036144Y003600D02*
X032163Y003600D01*
X032004Y003759D02*
X036320Y003759D01*
X037180Y003759D02*
X039250Y003759D01*
X039250Y003917D02*
X031846Y003917D01*
X031687Y004076D02*
X039250Y004076D01*
X039250Y004234D02*
X031529Y004234D01*
X031370Y004393D02*
X039250Y004393D01*
X039250Y004551D02*
X035986Y004551D01*
X035958Y004522D02*
X036095Y004660D01*
X036170Y004840D01*
X036170Y005035D01*
X036095Y005215D01*
X035958Y005353D01*
X035789Y005423D01*
X035799Y005425D01*
X035876Y005449D01*
X035947Y005486D01*
X036012Y005533D01*
X036069Y005590D01*
X036116Y005655D01*
X036153Y005726D01*
X036177Y005803D01*
X036190Y005882D01*
X036190Y005912D01*
X035690Y005912D01*
X035690Y005932D01*
X036190Y005932D01*
X036190Y005962D01*
X036177Y006042D01*
X036153Y006118D01*
X036116Y006189D01*
X036069Y006254D01*
X036012Y006311D01*
X035947Y006358D01*
X035876Y006395D01*
X035799Y006420D01*
X035720Y006432D01*
X035690Y006432D01*
X035690Y005932D01*
X035670Y005932D01*
X035670Y006432D01*
X035640Y006432D01*
X035561Y006420D01*
X035484Y006395D01*
X035413Y006358D01*
X035348Y006311D01*
X035291Y006254D01*
X035278Y006237D01*
X035178Y006338D01*
X034997Y006412D01*
X034803Y006412D01*
X034622Y006338D01*
X034485Y006200D01*
X034410Y006020D01*
X034410Y005825D01*
X034485Y005645D01*
X034622Y005507D01*
X034803Y005432D01*
X034997Y005432D01*
X035178Y005507D01*
X035278Y005607D01*
X035291Y005590D01*
X035348Y005533D01*
X035413Y005486D01*
X035484Y005449D01*
X035561Y005425D01*
X035571Y005423D01*
X035402Y005353D01*
X035290Y005241D01*
X035178Y005353D01*
X034997Y005428D01*
X034803Y005428D01*
X034622Y005353D01*
X034485Y005215D01*
X034410Y005035D01*
X034410Y004840D01*
X034485Y004660D01*
X034622Y004522D01*
X034803Y004448D01*
X034997Y004448D01*
X035178Y004522D01*
X035290Y004635D01*
X035402Y004522D01*
X035583Y004448D01*
X035777Y004448D01*
X035958Y004522D01*
X036116Y004710D02*
X039250Y004710D01*
X039250Y004868D02*
X036170Y004868D01*
X036170Y005027D02*
X039250Y005027D01*
X039250Y005185D02*
X036108Y005185D01*
X035967Y005344D02*
X039250Y005344D01*
X039250Y005502D02*
X035969Y005502D01*
X036119Y005661D02*
X039250Y005661D01*
X039250Y005819D02*
X036180Y005819D01*
X036188Y005978D02*
X039250Y005978D01*
X039250Y006136D02*
X036143Y006136D01*
X036029Y006295D02*
X039250Y006295D01*
X039250Y006453D02*
X030616Y006453D01*
X030774Y006612D02*
X039250Y006612D01*
X039250Y006770D02*
X030933Y006770D01*
X031091Y006929D02*
X039250Y006929D01*
X039250Y007087D02*
X037145Y007087D01*
X037209Y007113D02*
X037437Y007341D01*
X037560Y007639D01*
X037560Y007961D01*
X037437Y008259D01*
X037209Y008487D01*
X036911Y008610D01*
X036589Y008610D01*
X036291Y008487D01*
X036063Y008259D01*
X035940Y007961D01*
X035940Y007639D01*
X036063Y007341D01*
X036291Y007113D01*
X036589Y006990D01*
X036911Y006990D01*
X037209Y007113D01*
X037341Y007246D02*
X039250Y007246D01*
X039250Y007404D02*
X037463Y007404D01*
X037528Y007563D02*
X039250Y007563D01*
X039250Y007721D02*
X037560Y007721D01*
X037560Y007880D02*
X039250Y007880D01*
X039250Y008038D02*
X037528Y008038D01*
X037462Y008197D02*
X039250Y008197D01*
X039250Y008355D02*
X037340Y008355D01*
X037144Y008514D02*
X039250Y008514D01*
X039250Y008672D02*
X032835Y008672D01*
X032993Y008831D02*
X039250Y008831D01*
X039250Y008989D02*
X033152Y008989D01*
X033310Y009148D02*
X039250Y009148D01*
X039250Y009306D02*
X033469Y009306D01*
X033627Y009465D02*
X039250Y009465D01*
X039250Y009623D02*
X037675Y009623D01*
X037642Y009602D02*
X037740Y009664D01*
X037830Y009736D01*
X037912Y009818D01*
X037984Y009908D01*
X038046Y010006D01*
X038096Y010110D01*
X038134Y010219D01*
X038160Y010332D01*
X038170Y010425D01*
X037223Y010425D01*
X037223Y010585D01*
X038170Y010585D01*
X038160Y010678D01*
X038134Y010791D01*
X038096Y010900D01*
X038046Y011004D01*
X037984Y011102D01*
X037912Y011192D01*
X037830Y011274D01*
X037740Y011346D01*
X037642Y011408D01*
X037538Y011458D01*
X037428Y011496D01*
X037316Y011522D01*
X037223Y011533D01*
X037223Y010585D01*
X037063Y010585D01*
X037063Y011533D01*
X036970Y011522D01*
X036857Y011496D01*
X036748Y011458D01*
X036644Y011408D01*
X036546Y011346D01*
X036455Y011274D01*
X036374Y011192D01*
X036302Y011102D01*
X036240Y011004D01*
X036190Y010900D01*
X036152Y010791D01*
X036126Y010678D01*
X036115Y010585D01*
X037063Y010585D01*
X037063Y010425D01*
X037223Y010425D01*
X037223Y009477D01*
X037316Y009488D01*
X037428Y009514D01*
X037538Y009552D01*
X037642Y009602D01*
X037876Y009782D02*
X039250Y009782D01*
X039250Y009940D02*
X038004Y009940D01*
X038090Y010099D02*
X039250Y010099D01*
X039250Y010257D02*
X038143Y010257D01*
X038169Y010416D02*
X039250Y010416D01*
X039250Y010574D02*
X037223Y010574D01*
X037223Y010416D02*
X037063Y010416D01*
X037063Y010425D02*
X037063Y009477D01*
X036970Y009488D01*
X036857Y009514D01*
X036748Y009552D01*
X036644Y009602D01*
X036546Y009664D01*
X036455Y009736D01*
X036374Y009818D01*
X036302Y009908D01*
X036240Y010006D01*
X036190Y010110D01*
X036152Y010219D01*
X036126Y010332D01*
X036115Y010425D01*
X037063Y010425D01*
X037063Y010574D02*
X035791Y010574D01*
X035791Y010416D02*
X036116Y010416D01*
X036143Y010257D02*
X035760Y010257D01*
X035712Y010099D02*
X036195Y010099D01*
X036281Y009940D02*
X035621Y009940D01*
X035486Y009782D02*
X036410Y009782D01*
X036611Y009623D02*
X035273Y009623D01*
X034288Y009623D02*
X033786Y009623D01*
X033944Y009782D02*
X034076Y009782D01*
X035765Y010733D02*
X036138Y010733D01*
X036187Y010891D02*
X035723Y010891D01*
X035633Y011050D02*
X036269Y011050D01*
X036389Y011208D02*
X035506Y011208D01*
X035669Y011367D02*
X035308Y011367D01*
X035882Y011367D02*
X036042Y011367D01*
X036042Y011525D02*
X035882Y011525D01*
X035882Y011684D02*
X036042Y011684D01*
X036042Y011842D02*
X035882Y011842D01*
X035882Y012001D02*
X036042Y012001D01*
X036042Y012159D02*
X035882Y012159D01*
X036743Y011684D02*
X039250Y011684D01*
X039250Y011842D02*
X036856Y011842D01*
X036929Y012001D02*
X039250Y012001D01*
X039250Y012159D02*
X036973Y012159D01*
X036996Y011525D02*
X036573Y011525D01*
X036578Y011367D02*
X036254Y011367D01*
X037063Y011367D02*
X037223Y011367D01*
X037223Y011525D02*
X037063Y011525D01*
X037289Y011525D02*
X039250Y011525D01*
X039250Y011367D02*
X037708Y011367D01*
X037896Y011208D02*
X039250Y011208D01*
X039250Y011050D02*
X038017Y011050D01*
X038099Y010891D02*
X039250Y010891D01*
X039250Y010733D02*
X038147Y010733D01*
X037223Y010733D02*
X037063Y010733D01*
X037063Y010891D02*
X037223Y010891D01*
X037223Y011050D02*
X037063Y011050D01*
X037063Y011208D02*
X037223Y011208D01*
X037223Y010257D02*
X037063Y010257D01*
X037063Y010099D02*
X037223Y010099D01*
X037223Y009940D02*
X037063Y009940D01*
X037063Y009782D02*
X037223Y009782D01*
X037223Y009623D02*
X037063Y009623D01*
X036356Y008514D02*
X032676Y008514D01*
X032518Y008355D02*
X036159Y008355D01*
X036038Y008197D02*
X032359Y008197D01*
X032201Y008038D02*
X035972Y008038D01*
X035940Y007880D02*
X032042Y007880D01*
X031884Y007721D02*
X035940Y007721D01*
X035972Y007563D02*
X031725Y007563D01*
X031567Y007404D02*
X036037Y007404D01*
X036159Y007246D02*
X031408Y007246D01*
X031250Y007087D02*
X036355Y007087D01*
X035690Y006295D02*
X035670Y006295D01*
X035670Y006136D02*
X035690Y006136D01*
X035690Y005978D02*
X035670Y005978D01*
X035331Y006295D02*
X035221Y006295D01*
X034579Y006295D02*
X030457Y006295D01*
X030577Y006136D02*
X034458Y006136D01*
X034410Y005978D02*
X030630Y005978D01*
X030602Y005819D02*
X034412Y005819D01*
X034478Y005661D02*
X030510Y005661D01*
X030510Y005502D02*
X034634Y005502D01*
X034613Y005344D02*
X030510Y005344D01*
X030578Y005185D02*
X034472Y005185D01*
X034410Y005027D02*
X030736Y005027D01*
X030895Y004868D02*
X034410Y004868D01*
X034464Y004710D02*
X031053Y004710D01*
X031212Y004551D02*
X034594Y004551D01*
X035206Y004551D02*
X035374Y004551D01*
X035393Y005344D02*
X035187Y005344D01*
X035166Y005502D02*
X035391Y005502D01*
X037356Y003600D02*
X039250Y003600D01*
X039250Y003442D02*
X037469Y003442D01*
X037534Y003283D02*
X039250Y003283D01*
X039250Y003125D02*
X037560Y003125D01*
X037560Y002966D02*
X039250Y002966D01*
X039250Y002808D02*
X037522Y002808D01*
X037456Y002649D02*
X039250Y002649D01*
X039250Y002491D02*
X038444Y002491D01*
X038661Y002401D02*
X038661Y002401D01*
X038730Y002332D02*
X039250Y002332D01*
X039250Y002174D02*
X038889Y002174D01*
X038961Y002015D02*
X039250Y002015D01*
X039250Y001857D02*
X039027Y001857D01*
X039030Y001698D02*
X039250Y001698D01*
X039245Y001540D02*
X039030Y001540D01*
X038976Y001381D02*
X039215Y001381D01*
X039164Y001223D02*
X038911Y001223D01*
X038901Y001199D02*
X038901Y001199D01*
X038766Y001064D02*
X039077Y001064D01*
X038961Y000906D02*
X038531Y000906D01*
X038746Y000747D02*
X019789Y000747D01*
X018756Y001381D02*
X018731Y001381D01*
X016474Y001540D02*
X015899Y001540D01*
X016008Y001698D02*
X016366Y001698D01*
X016316Y001857D02*
X016058Y001857D01*
X016058Y002015D02*
X016316Y002015D01*
X016370Y002174D02*
X016076Y002174D01*
X016405Y002332D02*
X016486Y002332D01*
X015828Y002491D02*
X013213Y002491D01*
X013230Y002649D02*
X015853Y002649D01*
X015108Y002332D02*
X014510Y002332D01*
X014625Y002174D02*
X014992Y002174D01*
X014938Y002015D02*
X014680Y002015D01*
X014680Y001857D02*
X014938Y001857D01*
X014988Y001698D02*
X014630Y001698D01*
X014521Y001540D02*
X015096Y001540D01*
X013718Y001540D02*
X013143Y001540D01*
X013252Y001698D02*
X013610Y001698D01*
X013560Y001857D02*
X013302Y001857D01*
X013302Y002015D02*
X013560Y002015D01*
X013614Y002174D02*
X013247Y002174D01*
X013132Y002332D02*
X013730Y002332D01*
X012830Y002673D02*
X012810Y002653D01*
X012810Y002654D01*
X012761Y002771D01*
X012690Y002843D01*
X012690Y003587D01*
X015025Y005922D01*
X015039Y005889D01*
X015129Y005799D01*
X015246Y005750D01*
X015247Y005750D01*
X012947Y003450D01*
X012830Y003333D01*
X012830Y002673D01*
X012830Y002808D02*
X012725Y002808D01*
X012690Y002966D02*
X012830Y002966D01*
X012830Y003125D02*
X012690Y003125D01*
X012690Y003283D02*
X012830Y003283D01*
X012939Y003442D02*
X012690Y003442D01*
X012703Y003600D02*
X013097Y003600D01*
X013256Y003759D02*
X012861Y003759D01*
X013020Y003917D02*
X013414Y003917D01*
X013573Y004076D02*
X013178Y004076D01*
X013337Y004234D02*
X013731Y004234D01*
X013890Y004393D02*
X013495Y004393D01*
X013654Y004551D02*
X014048Y004551D01*
X014207Y004710D02*
X013812Y004710D01*
X013971Y004868D02*
X014365Y004868D01*
X014524Y005027D02*
X014129Y005027D01*
X014288Y005185D02*
X014682Y005185D01*
X014841Y005344D02*
X014446Y005344D01*
X014605Y005502D02*
X014999Y005502D01*
X015158Y005661D02*
X014763Y005661D01*
X014922Y005819D02*
X015108Y005819D01*
X014673Y006136D02*
X014519Y006136D01*
X014515Y005978D02*
X014360Y005978D01*
X014356Y005819D02*
X014202Y005819D01*
X014198Y005661D02*
X014043Y005661D01*
X014039Y005502D02*
X013885Y005502D01*
X013881Y005344D02*
X013726Y005344D01*
X013722Y005185D02*
X013568Y005185D01*
X013564Y005027D02*
X013409Y005027D01*
X013405Y004868D02*
X013251Y004868D01*
X013247Y004710D02*
X013092Y004710D01*
X013088Y004551D02*
X012934Y004551D01*
X012930Y004393D02*
X012775Y004393D01*
X012771Y004234D02*
X012617Y004234D01*
X012613Y004076D02*
X012458Y004076D01*
X012454Y003917D02*
X012300Y003917D01*
X012296Y003759D02*
X012141Y003759D01*
X012290Y003600D02*
X011983Y003600D01*
X011824Y003442D02*
X012290Y003442D01*
X012290Y003283D02*
X011666Y003283D01*
X011507Y003125D02*
X012290Y003125D01*
X012290Y002966D02*
X011349Y002966D01*
X011190Y002808D02*
X012255Y002808D01*
X012170Y002649D02*
X011032Y002649D01*
X010873Y002491D02*
X012185Y002491D01*
X012295Y002332D02*
X011754Y002332D01*
X011869Y002174D02*
X012237Y002174D01*
X012182Y002015D02*
X011924Y002015D01*
X011924Y001857D02*
X012182Y001857D01*
X012232Y001698D02*
X011874Y001698D01*
X011765Y001540D02*
X012340Y001540D01*
X010962Y001540D02*
X010387Y001540D01*
X010496Y001698D02*
X010854Y001698D01*
X010804Y001857D02*
X010546Y001857D01*
X010546Y002015D02*
X010804Y002015D01*
X010859Y002174D02*
X010556Y002174D01*
X010715Y002332D02*
X010974Y002332D01*
X010308Y002491D02*
X001944Y002491D01*
X001416Y002491D02*
X000614Y002491D01*
X000614Y002649D02*
X010466Y002649D01*
X010625Y002808D02*
X000614Y002808D01*
X000614Y002966D02*
X010783Y002966D01*
X010942Y003125D02*
X006139Y003125D01*
X006290Y003283D02*
X011100Y003283D01*
X011259Y003442D02*
X009306Y003442D01*
X009470Y003600D02*
X011417Y003600D01*
X011576Y003759D02*
X009635Y003759D01*
X009799Y003917D02*
X011734Y003917D01*
X011893Y004076D02*
X009964Y004076D01*
X010128Y004234D02*
X012051Y004234D01*
X012210Y004393D02*
X010293Y004393D01*
X010458Y004551D02*
X012368Y004551D01*
X012527Y004710D02*
X010622Y004710D01*
X010787Y004868D02*
X012685Y004868D01*
X012844Y005027D02*
X010951Y005027D01*
X011116Y005185D02*
X013002Y005185D01*
X013161Y005344D02*
X011280Y005344D01*
X011445Y005502D02*
X013319Y005502D01*
X013478Y005661D02*
X011609Y005661D01*
X011774Y005819D02*
X013636Y005819D01*
X013795Y005978D02*
X011939Y005978D01*
X012103Y006136D02*
X013953Y006136D01*
X014000Y006295D02*
X012268Y006295D01*
X012432Y006453D02*
X013933Y006453D01*
X013866Y006612D02*
X012597Y006612D01*
X012761Y006770D02*
X013799Y006770D01*
X013731Y006929D02*
X012926Y006929D01*
X013091Y007087D02*
X013664Y007087D01*
X013597Y007246D02*
X013255Y007246D01*
X013420Y007404D02*
X013530Y007404D01*
X013897Y007563D02*
X014375Y007563D01*
X014324Y007584D02*
X014441Y007535D01*
X014569Y007535D01*
X014617Y007555D01*
X015663Y006930D01*
X014747Y006930D01*
X014338Y006521D01*
X013883Y007595D01*
X014185Y007880D01*
X014185Y007791D01*
X014234Y007674D01*
X014324Y007584D01*
X014214Y007721D02*
X014017Y007721D01*
X014184Y007880D02*
X014185Y007880D01*
X014520Y008197D02*
X014696Y008197D01*
X014775Y008038D02*
X016070Y008038D01*
X016074Y008197D02*
X015194Y008197D01*
X015265Y008355D02*
X016078Y008355D01*
X016083Y008514D02*
X015341Y008514D01*
X015500Y008672D02*
X016087Y008672D01*
X016092Y008831D02*
X015658Y008831D01*
X015817Y008989D02*
X016096Y008989D01*
X016496Y008989D02*
X017466Y008989D01*
X017308Y008831D02*
X016492Y008831D01*
X016487Y008672D02*
X016799Y008672D01*
X016730Y008514D02*
X016483Y008514D01*
X017321Y008038D02*
X018031Y008038D01*
X017792Y007880D02*
X016723Y007880D01*
X016882Y007721D02*
X017583Y007721D01*
X017570Y007563D02*
X017180Y007563D01*
X017341Y007404D02*
X017570Y007404D01*
X017570Y007246D02*
X017370Y007246D01*
X017320Y007087D02*
X017570Y007087D01*
X017570Y006929D02*
X016445Y006929D01*
X016180Y007087D02*
X016780Y007087D01*
X016730Y007246D02*
X015915Y007246D01*
X015650Y007404D02*
X016633Y007404D01*
X016475Y007563D02*
X015384Y007563D01*
X015119Y007721D02*
X016316Y007721D01*
X016156Y007880D02*
X014854Y007880D01*
X014870Y007404D02*
X013964Y007404D01*
X014031Y007246D02*
X015135Y007246D01*
X015400Y007087D02*
X014099Y007087D01*
X014166Y006929D02*
X014746Y006929D01*
X014587Y006770D02*
X014233Y006770D01*
X014300Y006612D02*
X014429Y006612D01*
X014836Y006453D02*
X014990Y006453D01*
X014832Y006295D02*
X014677Y006295D01*
X016711Y006770D02*
X017465Y006770D01*
X017450Y006612D02*
X016976Y006612D01*
X018325Y006929D02*
X018406Y006929D01*
X018271Y008197D02*
X017479Y008197D01*
X017638Y008355D02*
X018510Y008355D01*
X018597Y008514D02*
X018381Y008514D01*
X017625Y009148D02*
X016501Y009148D01*
X016589Y009306D02*
X017783Y009306D01*
X016247Y010099D02*
X016240Y010099D01*
X016197Y010257D02*
X016341Y010257D01*
X016436Y010416D02*
X013518Y010416D01*
X013677Y010574D02*
X016530Y010574D01*
X016625Y010733D02*
X013835Y010733D01*
X013994Y010891D02*
X016719Y010891D01*
X016813Y011050D02*
X014152Y011050D01*
X014311Y011208D02*
X016270Y011208D01*
X016103Y011367D02*
X014469Y011367D01*
X014628Y011525D02*
X016027Y011525D01*
X016005Y011684D02*
X014786Y011684D01*
X014945Y011842D02*
X016029Y011842D01*
X016555Y011367D02*
X016555Y011367D01*
X016555Y011208D02*
X016555Y011208D01*
X016840Y011208D02*
X016908Y011208D01*
X017550Y010891D02*
X017667Y010891D01*
X017471Y010733D02*
X017985Y010733D01*
X018110Y010574D02*
X017393Y010574D01*
X017314Y010416D02*
X018148Y010416D01*
X018392Y010891D02*
X018410Y010891D01*
X018458Y011050D02*
X018233Y011050D01*
X018150Y011208D02*
X020029Y011208D01*
X019913Y011050D02*
X020188Y011050D01*
X020242Y010891D02*
X020346Y010891D01*
X020310Y010733D02*
X020805Y010733D01*
X020963Y010574D02*
X020288Y010574D01*
X020164Y010416D02*
X021122Y010416D01*
X021370Y010733D02*
X021950Y010733D01*
X021950Y010891D02*
X021212Y010891D01*
X021053Y011050D02*
X021950Y011050D01*
X021950Y011208D02*
X020895Y011208D01*
X020436Y011367D02*
X021950Y011367D01*
X021950Y011525D02*
X020278Y011525D01*
X020501Y011684D02*
X021899Y011684D01*
X021762Y011842D02*
X020638Y011842D01*
X020690Y012001D02*
X021710Y012001D01*
X021717Y012159D02*
X020683Y012159D01*
X020610Y012318D02*
X021790Y012318D01*
X023694Y013269D02*
X024615Y013269D01*
X024615Y013362D02*
X024615Y012998D01*
X024873Y012740D01*
X025237Y012740D01*
X025495Y012998D01*
X025495Y013362D01*
X025237Y013620D01*
X024873Y013620D01*
X024615Y013362D01*
X024680Y013427D02*
X023536Y013427D01*
X023377Y013586D02*
X024838Y013586D01*
X024873Y013740D02*
X025237Y013740D01*
X025495Y013998D01*
X025495Y014362D01*
X025237Y014620D01*
X024873Y014620D01*
X024615Y014362D01*
X024615Y013998D01*
X024873Y013740D01*
X024869Y013744D02*
X023219Y013744D01*
X023060Y013903D02*
X024710Y013903D01*
X024615Y014061D02*
X022902Y014061D01*
X022743Y014220D02*
X024615Y014220D01*
X024631Y014378D02*
X022585Y014378D01*
X022426Y014537D02*
X024789Y014537D01*
X024873Y014740D02*
X025237Y014740D01*
X025495Y014998D01*
X025495Y015362D01*
X025237Y015620D01*
X024873Y015620D01*
X024615Y015362D01*
X024615Y014998D01*
X024873Y014740D01*
X024759Y014854D02*
X022109Y014854D01*
X021951Y015012D02*
X024615Y015012D01*
X024615Y015171D02*
X021792Y015171D01*
X021634Y015329D02*
X024615Y015329D01*
X024740Y015488D02*
X021475Y015488D01*
X021317Y015646D02*
X025311Y015646D01*
X025370Y015488D02*
X025470Y015488D01*
X025495Y015329D02*
X025628Y015329D01*
X025495Y015171D02*
X025787Y015171D01*
X025945Y015012D02*
X025495Y015012D01*
X025351Y014854D02*
X026104Y014854D01*
X026262Y014695D02*
X022268Y014695D01*
X022019Y014378D02*
X021790Y014378D01*
X021810Y014220D02*
X022178Y014220D01*
X022336Y014061D02*
X021766Y014061D01*
X021445Y013903D02*
X022495Y013903D01*
X023853Y013110D02*
X024615Y013110D01*
X024661Y012952D02*
X024011Y012952D01*
X024170Y012793D02*
X024820Y012793D01*
X024328Y012635D02*
X027050Y012635D01*
X027050Y012793D02*
X025290Y012793D01*
X025449Y012952D02*
X027050Y012952D01*
X027050Y013110D02*
X025495Y013110D01*
X025495Y013269D02*
X027050Y013269D01*
X027050Y013427D02*
X025430Y013427D01*
X025272Y013586D02*
X027050Y013586D01*
X027050Y013744D02*
X025241Y013744D01*
X025400Y013903D02*
X027050Y013903D01*
X026896Y014061D02*
X025495Y014061D01*
X025495Y014220D02*
X026738Y014220D01*
X026579Y014378D02*
X025479Y014378D01*
X025321Y014537D02*
X026421Y014537D01*
X027269Y014854D02*
X028731Y014854D01*
X028595Y015012D02*
X027111Y015012D01*
X026952Y015171D02*
X028595Y015171D01*
X028595Y015329D02*
X026794Y015329D01*
X026635Y015488D02*
X028712Y015488D01*
X028780Y015805D02*
X026318Y015805D01*
X026160Y015963D02*
X028621Y015963D01*
X028595Y016122D02*
X026001Y016122D01*
X025843Y016280D02*
X028595Y016280D01*
X028663Y016439D02*
X025684Y016439D01*
X024780Y016597D02*
X023756Y016597D01*
X023681Y016756D02*
X024622Y016756D01*
X024691Y016439D02*
X023239Y016439D01*
X023239Y016392D02*
X023781Y016392D01*
X023781Y016384D01*
X023766Y016294D01*
X023738Y016207D01*
X023697Y016126D01*
X023643Y016052D01*
X023579Y015988D01*
X023505Y015934D01*
X023423Y015892D01*
X023336Y015864D01*
X023246Y015850D01*
X023239Y015850D01*
X023239Y016392D01*
X023239Y016280D02*
X023163Y016280D01*
X023163Y016122D02*
X023239Y016122D01*
X023239Y015963D02*
X023163Y015963D01*
X022857Y015963D02*
X022148Y015963D01*
X022301Y016122D02*
X022708Y016122D01*
X022640Y016280D02*
X022563Y016280D01*
X022473Y016756D02*
X022289Y016756D01*
X022118Y016914D02*
X022631Y016914D01*
X022790Y017073D02*
X022011Y017073D01*
X021528Y016914D02*
X020740Y016914D01*
X020911Y016756D02*
X021356Y016756D01*
X021286Y016597D02*
X020982Y016597D01*
X021005Y016439D02*
X021263Y016439D01*
X021279Y016280D02*
X020989Y016280D01*
X020923Y016122D02*
X021344Y016122D01*
X021498Y015963D02*
X021000Y015963D01*
X021158Y015805D02*
X024808Y015805D01*
X024650Y015963D02*
X023545Y015963D01*
X023693Y016122D02*
X024615Y016122D01*
X024615Y016280D02*
X023762Y016280D01*
X026477Y015646D02*
X029748Y015646D01*
X029748Y015488D02*
X029398Y015488D01*
X029515Y015329D02*
X029748Y015329D01*
X029748Y015171D02*
X029515Y015171D01*
X029515Y015012D02*
X029748Y015012D01*
X029748Y014854D02*
X029379Y014854D01*
X029748Y014816D02*
X029841Y014723D01*
X031069Y014723D01*
X031162Y014816D01*
X031162Y016044D01*
X031069Y016137D01*
X029841Y016137D01*
X029748Y016044D01*
X029748Y014816D01*
X031162Y014854D02*
X034948Y014854D01*
X034948Y014816D02*
X035041Y014723D01*
X036269Y014723D01*
X036362Y014816D01*
X036362Y016044D01*
X036269Y016137D01*
X035041Y016137D01*
X034948Y016044D01*
X034948Y014816D01*
X034948Y015012D02*
X031162Y015012D01*
X031162Y015171D02*
X034948Y015171D01*
X034948Y015329D02*
X031162Y015329D01*
X031162Y015488D02*
X034948Y015488D01*
X034948Y015646D02*
X031162Y015646D01*
X031162Y015805D02*
X034948Y015805D01*
X034948Y015963D02*
X031162Y015963D01*
X031085Y016122D02*
X035025Y016122D01*
X036285Y016122D02*
X037440Y016122D01*
X037459Y016074D02*
X037459Y016074D01*
X037699Y015834D01*
X038011Y015705D01*
X038349Y015705D01*
X038661Y015834D01*
X038661Y015834D01*
X038901Y016074D01*
X039030Y016386D01*
X039030Y016605D01*
X039030Y016724D01*
X039030Y016724D01*
X038901Y017036D01*
X038901Y017036D01*
X038661Y017276D01*
X038349Y017405D01*
X038011Y017405D01*
X037699Y017276D01*
X037699Y017276D01*
X037459Y017036D01*
X037330Y016724D01*
X037330Y016386D01*
X037459Y016074D01*
X037570Y015963D02*
X036362Y015963D01*
X036362Y015805D02*
X037771Y015805D01*
X037699Y015834D02*
X037699Y015834D01*
X038589Y015805D02*
X039250Y015805D01*
X039250Y015963D02*
X038790Y015963D01*
X038901Y016074D02*
X038901Y016074D01*
X038920Y016122D02*
X039250Y016122D01*
X039250Y016280D02*
X038986Y016280D01*
X039030Y016439D02*
X039250Y016439D01*
X039250Y016597D02*
X039030Y016597D01*
X039017Y016756D02*
X039241Y016756D01*
X039201Y016914D02*
X038951Y016914D01*
X038865Y017073D02*
X039140Y017073D01*
X039036Y017231D02*
X038706Y017231D01*
X038661Y017276D02*
X038661Y017276D01*
X038892Y017390D02*
X038386Y017390D01*
X038622Y017548D02*
X029338Y017548D01*
X029496Y017390D02*
X037974Y017390D01*
X037654Y017231D02*
X029515Y017231D01*
X029515Y017073D02*
X037495Y017073D01*
X037459Y017036D02*
X037459Y017036D01*
X037409Y016914D02*
X029440Y016914D01*
X029281Y016756D02*
X037343Y016756D01*
X037330Y016597D02*
X029289Y016597D01*
X029447Y016439D02*
X037330Y016439D01*
X037374Y016280D02*
X029515Y016280D01*
X029515Y016122D02*
X029825Y016122D01*
X029748Y015963D02*
X029489Y015963D01*
X029330Y015805D02*
X029748Y015805D01*
X029055Y016756D02*
X029055Y016756D01*
X029055Y016914D02*
X029055Y016914D01*
X029055Y017073D02*
X029055Y017073D01*
X029428Y013903D02*
X033482Y013903D01*
X033890Y013427D02*
X033890Y013326D01*
X033939Y013209D01*
X034029Y013119D01*
X034146Y013070D01*
X034274Y013070D01*
X034391Y013119D01*
X034506Y013269D02*
X035484Y013269D01*
X035882Y013269D02*
X036042Y013269D01*
X036042Y013110D02*
X035882Y013110D01*
X035882Y012952D02*
X036042Y012952D01*
X036042Y012793D02*
X035882Y012793D01*
X035882Y012635D02*
X036042Y012635D01*
X034050Y013110D02*
X032953Y013110D01*
X033281Y013269D02*
X033914Y013269D01*
X036362Y014854D02*
X039250Y014854D01*
X039250Y015012D02*
X036362Y015012D01*
X036362Y015171D02*
X039250Y015171D01*
X039250Y015329D02*
X036362Y015329D01*
X036362Y015488D02*
X039250Y015488D01*
X039250Y015646D02*
X036362Y015646D01*
X027050Y012476D02*
X025381Y012476D01*
X025495Y012318D02*
X027050Y012318D01*
X027050Y012159D02*
X025495Y012159D01*
X025495Y012001D02*
X027050Y012001D01*
X027050Y011842D02*
X025339Y011842D01*
X025290Y011684D02*
X027050Y011684D01*
X027050Y011525D02*
X025290Y011525D01*
X025290Y011367D02*
X027050Y011367D01*
X027050Y011208D02*
X026935Y011208D01*
X026605Y011208D02*
X025290Y011208D01*
X025290Y011050D02*
X026473Y011050D01*
X026450Y010891D02*
X025290Y010891D01*
X025290Y010733D02*
X026515Y010733D01*
X026570Y010574D02*
X025290Y010574D01*
X025290Y010416D02*
X026484Y010416D01*
X026450Y010257D02*
X025290Y010257D01*
X025290Y010099D02*
X026495Y010099D01*
X028281Y008672D02*
X029989Y008672D01*
X030396Y008514D02*
X031211Y008514D01*
X031369Y008672D02*
X030555Y008672D01*
X030713Y008831D02*
X030877Y008831D01*
X031303Y008831D02*
X031394Y008831D01*
X031307Y009306D02*
X031868Y009306D01*
X031052Y008355D02*
X030238Y008355D01*
X030018Y005819D02*
X029982Y005819D01*
X029951Y005661D02*
X030110Y005661D01*
X027782Y005344D02*
X026990Y005344D01*
X026870Y005185D02*
X027620Y005185D01*
X027590Y005027D02*
X026749Y005027D01*
X026629Y004868D02*
X027445Y004868D01*
X027287Y004710D02*
X026509Y004710D01*
X026388Y004551D02*
X027128Y004551D01*
X026970Y004393D02*
X026268Y004393D01*
X026147Y004234D02*
X026811Y004234D01*
X026653Y004076D02*
X026027Y004076D01*
X025955Y003917D02*
X026494Y003917D01*
X026336Y003759D02*
X025927Y003759D01*
X025771Y003600D02*
X026177Y003600D01*
X026019Y003442D02*
X024604Y003442D01*
X024763Y003600D02*
X025499Y003600D01*
X025343Y003759D02*
X024921Y003759D01*
X025080Y003917D02*
X025315Y003917D01*
X025368Y004076D02*
X025238Y004076D01*
X025397Y004234D02*
X025645Y004234D01*
X025555Y004393D02*
X025766Y004393D01*
X025714Y004551D02*
X025886Y004551D01*
X025872Y004710D02*
X026006Y004710D01*
X026031Y004868D02*
X026127Y004868D01*
X026189Y005027D02*
X026247Y005027D01*
X026348Y005185D02*
X026368Y005185D01*
X025004Y005344D02*
X024630Y005344D01*
X024630Y005372D02*
X024630Y005372D01*
X024630Y005207D02*
X024630Y005207D01*
X024629Y005185D02*
X024934Y005185D01*
X024770Y005027D02*
X024628Y005027D01*
X024501Y005502D02*
X024900Y005502D01*
X023194Y005344D02*
X022591Y005344D01*
X022703Y005502D02*
X023035Y005502D01*
X022877Y005661D02*
X022815Y005661D01*
X022480Y005185D02*
X023152Y005185D01*
X023090Y005027D02*
X022410Y005027D01*
X022390Y004868D02*
X023034Y004868D01*
X022892Y004710D02*
X022272Y004710D01*
X026911Y002332D02*
X027481Y002332D01*
X027372Y002174D02*
X027027Y002174D01*
X027081Y002015D02*
X027326Y002015D01*
X027324Y001857D02*
X027081Y001857D01*
X027031Y001698D02*
X027367Y001698D01*
X027470Y001540D02*
X026923Y001540D01*
X026659Y001381D02*
X027712Y001381D01*
X027861Y001381D02*
X027937Y001381D01*
X028087Y001381D02*
X028800Y001381D01*
X028717Y001540D02*
X028329Y001540D01*
X028432Y001698D02*
X028717Y001698D01*
X028717Y001857D02*
X028475Y001857D01*
X028473Y002015D02*
X028717Y002015D01*
X028717Y002174D02*
X028426Y002174D01*
X028318Y002332D02*
X028717Y002332D01*
X027937Y002332D02*
X027861Y002332D01*
X027861Y002174D02*
X027937Y002174D01*
X027937Y002015D02*
X027861Y002015D01*
X027861Y001857D02*
X027937Y001857D01*
X027937Y001698D02*
X027861Y001698D01*
X027861Y001540D02*
X027937Y001540D01*
X026383Y001381D02*
X025281Y001381D01*
X025545Y001540D02*
X026120Y001540D01*
X026011Y001698D02*
X025653Y001698D01*
X025703Y001857D02*
X025961Y001857D01*
X025961Y002015D02*
X025703Y002015D01*
X025649Y002174D02*
X026016Y002174D01*
X030174Y002649D02*
X031168Y002649D01*
X031327Y002491D02*
X030332Y002491D01*
X037326Y002491D02*
X037916Y002491D01*
X037459Y001199D02*
X037459Y001199D01*
X022730Y007880D02*
X022410Y007880D01*
X022410Y008038D02*
X022730Y008038D01*
X022730Y008197D02*
X022346Y008197D01*
X022188Y008355D02*
X022730Y008355D01*
X022730Y008514D02*
X022029Y008514D01*
X021871Y008672D02*
X022730Y008672D01*
X023130Y008672D02*
X023390Y008672D01*
X023390Y008514D02*
X023130Y008514D01*
X023130Y008355D02*
X023390Y008355D01*
X023390Y008197D02*
X023130Y008197D01*
X023130Y008831D02*
X023390Y008831D01*
X023390Y008989D02*
X023182Y008989D01*
X023250Y009148D02*
X023390Y009148D01*
X023390Y009306D02*
X023228Y009306D01*
X021873Y009623D02*
X021596Y009623D01*
X021688Y009782D02*
X021830Y009782D01*
X021866Y009940D02*
X021679Y009940D01*
X021574Y010099D02*
X021950Y010099D01*
X021950Y010257D02*
X021570Y010257D01*
X021570Y010416D02*
X021950Y010416D01*
X021950Y010574D02*
X021529Y010574D01*
X019816Y010416D02*
X019612Y010416D01*
X019650Y010574D02*
X019692Y010574D01*
X019871Y011367D02*
X018086Y011367D01*
X018048Y011525D02*
X019712Y011525D01*
X015643Y010257D02*
X013360Y010257D01*
X013201Y010099D02*
X015600Y010099D01*
X015476Y009940D02*
X013043Y009940D01*
X012884Y009782D02*
X015311Y009782D01*
X015147Y009623D02*
X012726Y009623D01*
X012567Y009465D02*
X014982Y009465D01*
X014818Y009306D02*
X012409Y009306D01*
X012250Y009148D02*
X014653Y009148D01*
X014489Y008989D02*
X012092Y008989D01*
X011933Y008831D02*
X012804Y008831D01*
X012851Y008850D02*
X012734Y008801D01*
X012644Y008711D01*
X012595Y008594D01*
X012595Y008514D01*
X012130Y008102D01*
X012101Y008171D01*
X012011Y008261D01*
X011894Y008310D01*
X011766Y008310D01*
X011649Y008261D01*
X011559Y008171D01*
X011510Y008054D01*
X011510Y007953D01*
X010967Y007410D01*
X010866Y007410D01*
X010749Y007361D01*
X010659Y007271D01*
X010610Y007154D01*
X010610Y007026D01*
X010659Y006909D01*
X010749Y006819D01*
X010866Y006770D01*
X009873Y006770D01*
X009847Y006612D02*
X012020Y006612D01*
X012185Y006770D02*
X010994Y006770D01*
X011111Y006819D01*
X011201Y006909D01*
X011250Y007026D01*
X011250Y007127D01*
X011545Y007422D01*
X011559Y007389D01*
X011649Y007299D01*
X011766Y007250D01*
X011894Y007250D01*
X012011Y007299D01*
X012101Y007389D01*
X012150Y007506D01*
X012150Y007586D01*
X012855Y008210D01*
X012979Y008210D01*
X013096Y008259D01*
X013186Y008349D01*
X013235Y008466D01*
X013235Y008594D01*
X013186Y008711D01*
X013096Y008801D01*
X012979Y008850D01*
X012851Y008850D01*
X013026Y008831D02*
X014324Y008831D01*
X014160Y008672D02*
X013203Y008672D01*
X013235Y008514D02*
X013995Y008514D01*
X013830Y008355D02*
X013189Y008355D01*
X012840Y008197D02*
X013666Y008197D01*
X013501Y008038D02*
X012661Y008038D01*
X012482Y007880D02*
X013337Y007880D01*
X013172Y007721D02*
X012302Y007721D01*
X012150Y007563D02*
X013008Y007563D01*
X012843Y007404D02*
X012108Y007404D01*
X011552Y007404D02*
X011527Y007404D01*
X011368Y007246D02*
X012678Y007246D01*
X012514Y007087D02*
X011250Y007087D01*
X011209Y006929D02*
X012349Y006929D01*
X011856Y006453D02*
X009717Y006453D01*
X009383Y006453D02*
X000614Y006453D01*
X000614Y006295D02*
X011691Y006295D01*
X011527Y006136D02*
X000614Y006136D01*
X000614Y005978D02*
X009316Y005978D01*
X009323Y005984D02*
X009184Y005845D01*
X009108Y005663D01*
X009108Y005466D01*
X009184Y005284D01*
X009323Y005145D01*
X009505Y005070D01*
X009702Y005070D01*
X009884Y005145D01*
X010023Y005284D01*
X010098Y005466D01*
X010098Y005663D01*
X010023Y005845D01*
X009884Y005984D01*
X009702Y006060D01*
X009505Y006060D01*
X009323Y005984D01*
X009173Y005819D02*
X000614Y005819D01*
X000614Y005661D02*
X009108Y005661D01*
X009108Y005502D02*
X000614Y005502D01*
X000614Y005344D02*
X009159Y005344D01*
X009283Y005185D02*
X000614Y005185D01*
X000614Y005027D02*
X010375Y005027D01*
X010539Y005185D02*
X009923Y005185D01*
X010047Y005344D02*
X010704Y005344D01*
X010868Y005502D02*
X010098Y005502D01*
X010098Y005661D02*
X011033Y005661D01*
X011197Y005819D02*
X010034Y005819D01*
X009891Y005978D02*
X011362Y005978D01*
X010994Y006770D02*
X010866Y006770D01*
X010651Y006929D02*
X010031Y006929D01*
X010190Y007087D02*
X010610Y007087D01*
X010648Y007246D02*
X010348Y007246D01*
X010507Y007404D02*
X010852Y007404D01*
X010665Y007563D02*
X011120Y007563D01*
X011278Y007721D02*
X010824Y007721D01*
X010982Y007880D02*
X011437Y007880D01*
X011510Y008038D02*
X011141Y008038D01*
X011299Y008197D02*
X011584Y008197D01*
X011458Y008355D02*
X012415Y008355D01*
X012236Y008197D02*
X012076Y008197D01*
X011616Y008514D02*
X012595Y008514D01*
X012627Y008672D02*
X011775Y008672D01*
X011368Y008831D02*
X000614Y008831D01*
X000614Y008989D02*
X011526Y008989D01*
X011685Y009148D02*
X000614Y009148D01*
X000614Y009306D02*
X011843Y009306D01*
X012002Y009465D02*
X000614Y009465D01*
X000614Y009623D02*
X012160Y009623D01*
X012319Y009782D02*
X000614Y009782D01*
X000614Y009940D02*
X012477Y009940D01*
X012636Y010099D02*
X000614Y010099D01*
X000614Y010257D02*
X011869Y010257D01*
X011886Y010250D02*
X012014Y010250D01*
X012131Y010299D01*
X012221Y010389D01*
X012270Y010506D01*
X012270Y010607D01*
X013233Y011570D01*
X013334Y011570D01*
X013451Y011619D01*
X013541Y011709D01*
X013590Y011826D01*
X013590Y011954D01*
X013541Y012071D01*
X013451Y012161D01*
X013334Y012210D01*
X013206Y012210D01*
X013089Y012161D01*
X012999Y012071D01*
X012950Y011954D01*
X012950Y011853D01*
X011987Y010890D01*
X011886Y010890D01*
X011769Y010841D01*
X011679Y010751D01*
X011630Y010634D01*
X011630Y010506D01*
X011679Y010389D01*
X011769Y010299D01*
X011886Y010250D01*
X012031Y010257D02*
X012794Y010257D01*
X012953Y010416D02*
X012232Y010416D01*
X012270Y010574D02*
X013111Y010574D01*
X013270Y010733D02*
X012395Y010733D01*
X012554Y010891D02*
X013428Y010891D01*
X013587Y011050D02*
X012712Y011050D01*
X012871Y011208D02*
X013745Y011208D01*
X013904Y011367D02*
X013029Y011367D01*
X013188Y011525D02*
X014062Y011525D01*
X014221Y011684D02*
X013516Y011684D01*
X013590Y011842D02*
X014379Y011842D01*
X014538Y012001D02*
X013571Y012001D01*
X013454Y012159D02*
X014696Y012159D01*
X014855Y012318D02*
X000614Y012318D01*
X000614Y012476D02*
X015013Y012476D01*
X015172Y012635D02*
X000614Y012635D01*
X000614Y012793D02*
X015330Y012793D01*
X015489Y012952D02*
X000614Y012952D01*
X000614Y013110D02*
X015647Y013110D01*
X013086Y012159D02*
X000614Y012159D01*
X000614Y012001D02*
X012969Y012001D01*
X012939Y011842D02*
X000614Y011842D01*
X000614Y011684D02*
X012781Y011684D01*
X012622Y011525D02*
X000614Y011525D01*
X000614Y011367D02*
X012464Y011367D01*
X012305Y011208D02*
X000614Y011208D01*
X000614Y011050D02*
X012147Y011050D01*
X011988Y010891D02*
X000614Y010891D01*
X000614Y010733D02*
X011671Y010733D01*
X011630Y010574D02*
X000614Y010574D01*
X000614Y010416D02*
X011668Y010416D01*
X011209Y008672D02*
X000614Y008672D01*
X000614Y008514D02*
X011051Y008514D01*
X010892Y008355D02*
X000614Y008355D01*
X000614Y008197D02*
X010734Y008197D01*
X010575Y008038D02*
X000614Y008038D01*
X000614Y007880D02*
X010417Y007880D01*
X010258Y007721D02*
X000614Y007721D01*
X000614Y007563D02*
X010100Y007563D01*
X009941Y007404D02*
X000614Y007404D01*
X000614Y007246D02*
X009783Y007246D01*
X009624Y007087D02*
X000614Y007087D01*
X000614Y006929D02*
X009296Y006929D01*
X009230Y006770D02*
X000614Y006770D01*
X000614Y006612D02*
X009253Y006612D01*
X010210Y004868D02*
X000614Y004868D01*
X000614Y004710D02*
X010046Y004710D01*
X009881Y004551D02*
X000614Y004551D01*
X000614Y004393D02*
X009716Y004393D01*
X009552Y004234D02*
X000614Y004234D01*
X000614Y004076D02*
X003110Y004076D01*
X003170Y004100D02*
X002975Y004019D01*
X002826Y003870D01*
X002745Y003675D01*
X002745Y003465D01*
X002826Y003270D01*
X002975Y003121D01*
X003170Y003040D01*
X003380Y003040D01*
X003575Y003121D01*
X003724Y003270D01*
X003805Y003465D01*
X003805Y003675D01*
X003724Y003870D01*
X003575Y004019D01*
X003380Y004100D01*
X003170Y004100D01*
X003440Y004076D02*
X005670Y004076D01*
X005432Y003917D02*
X003678Y003917D01*
X003771Y003759D02*
X005339Y003759D01*
X005305Y003600D02*
X003805Y003600D01*
X003795Y003442D02*
X005315Y003442D01*
X005380Y003283D02*
X003730Y003283D01*
X003579Y003125D02*
X005531Y003125D01*
X006331Y003759D02*
X009058Y003759D01*
X009223Y003917D02*
X006238Y003917D01*
X006000Y004076D02*
X009387Y004076D01*
X009596Y002332D02*
X008998Y002332D01*
X009113Y002174D02*
X009481Y002174D01*
X009426Y002015D02*
X009168Y002015D01*
X009168Y001857D02*
X009426Y001857D01*
X009476Y001698D02*
X009118Y001698D01*
X009009Y001540D02*
X009584Y001540D01*
X008206Y001540D02*
X007790Y001540D01*
X007790Y001698D02*
X008098Y001698D01*
X008048Y001857D02*
X007790Y001857D01*
X007790Y002015D02*
X008048Y002015D01*
X008103Y002174D02*
X007790Y002174D01*
X007790Y002332D02*
X008218Y002332D01*
X002971Y003125D02*
X000614Y003125D01*
X000614Y003283D02*
X002820Y003283D01*
X002755Y003442D02*
X000614Y003442D01*
X000614Y003600D02*
X002745Y003600D01*
X002779Y003759D02*
X000614Y003759D01*
X000614Y003917D02*
X002872Y003917D01*
X001130Y002332D02*
X000614Y002332D01*
X000614Y002174D02*
X000971Y002174D01*
X000899Y002015D02*
X000614Y002015D01*
X000614Y001857D02*
X000833Y001857D01*
X000830Y001698D02*
X000614Y001698D01*
X000615Y001540D02*
X000830Y001540D01*
X000884Y001381D02*
X000633Y001381D01*
X000684Y001223D02*
X000949Y001223D01*
X001094Y001064D02*
X000760Y001064D01*
X000875Y000906D02*
X001329Y000906D01*
X024570Y012001D02*
X024615Y012001D01*
X024615Y012159D02*
X024570Y012159D01*
X024570Y012318D02*
X024615Y012318D01*
X024729Y012476D02*
X024487Y012476D01*
X020120Y015963D02*
X019392Y015963D01*
X019545Y016122D02*
X019966Y016122D01*
X019901Y016280D02*
X019611Y016280D01*
X019627Y016439D02*
X019885Y016439D01*
X019908Y016597D02*
X019760Y016597D01*
X019918Y016756D02*
X019978Y016756D01*
X020077Y016914D02*
X020150Y016914D01*
X010593Y016756D02*
X010580Y016756D01*
X010434Y016597D02*
X010383Y016597D01*
X010189Y016597D02*
X010171Y016597D01*
X010171Y016756D02*
X010189Y016756D01*
X010189Y016914D02*
X010171Y016914D01*
X010171Y017073D02*
X010189Y017073D01*
X010189Y017231D02*
X010171Y017231D01*
X010171Y017390D02*
X010189Y017390D01*
X010189Y017548D02*
X010171Y017548D01*
X010097Y017548D02*
X006066Y017548D01*
X006135Y017519D02*
X005940Y017600D01*
X005730Y017600D01*
X005535Y017519D01*
X005386Y017370D01*
X005305Y017175D01*
X005305Y016965D01*
X005386Y016770D01*
X005535Y016621D01*
X005730Y016540D01*
X005940Y016540D01*
X006135Y016621D01*
X006284Y016770D01*
X006365Y016965D01*
X006365Y017175D01*
X006284Y017370D01*
X006135Y017519D01*
X006265Y017390D02*
X007836Y017390D01*
X007773Y017327D02*
X007700Y017150D01*
X007700Y016960D01*
X007773Y016783D01*
X007908Y016648D01*
X008085Y016575D01*
X008275Y016575D01*
X008452Y016648D01*
X008587Y016783D01*
X008660Y016960D01*
X008660Y017150D01*
X008587Y017327D01*
X008452Y017462D01*
X008275Y017535D01*
X008085Y017535D01*
X007908Y017462D01*
X007773Y017327D01*
X007733Y017231D02*
X006342Y017231D01*
X006365Y017073D02*
X007700Y017073D01*
X007719Y016914D02*
X006344Y016914D01*
X006270Y016756D02*
X007801Y016756D01*
X008031Y016597D02*
X006078Y016597D01*
X005592Y016597D02*
X003518Y016597D01*
X003575Y016621D02*
X003724Y016770D01*
X003805Y016965D01*
X003805Y017175D01*
X003724Y017370D01*
X003575Y017519D01*
X003380Y017600D01*
X003170Y017600D01*
X002975Y017519D01*
X002826Y017370D01*
X002745Y017175D01*
X002745Y016965D01*
X002826Y016770D01*
X002975Y016621D01*
X003170Y016540D01*
X003380Y016540D01*
X003575Y016621D01*
X003710Y016756D02*
X005400Y016756D01*
X005326Y016914D02*
X003784Y016914D01*
X003805Y017073D02*
X005305Y017073D01*
X005328Y017231D02*
X003782Y017231D01*
X003705Y017390D02*
X005405Y017390D01*
X005604Y017548D02*
X003506Y017548D01*
X003044Y017548D02*
X001244Y017548D01*
X001199Y017276D02*
X001511Y017405D01*
X001849Y017405D01*
X002161Y017276D01*
X002161Y017276D01*
X002401Y017036D01*
X002401Y017036D01*
X002530Y016724D01*
X002530Y016386D01*
X002401Y016074D01*
X002401Y016074D01*
X002161Y015834D01*
X002161Y015834D01*
X001849Y015705D01*
X001730Y015705D01*
X001511Y015705D01*
X001199Y015834D01*
X001199Y015834D01*
X000959Y016074D01*
X000959Y016074D01*
X000830Y016386D01*
X000830Y016724D01*
X000959Y017036D01*
X000959Y017036D01*
X001199Y017276D01*
X001199Y017276D01*
X001154Y017231D02*
X000820Y017231D01*
X000713Y017073D02*
X000995Y017073D01*
X000909Y016914D02*
X000661Y016914D01*
X000622Y016756D02*
X000843Y016756D01*
X000830Y016597D02*
X000614Y016597D01*
X000614Y016439D02*
X000830Y016439D01*
X000874Y016280D02*
X000614Y016280D01*
X000614Y016122D02*
X000940Y016122D01*
X001070Y015963D02*
X000614Y015963D01*
X000614Y015805D02*
X001271Y015805D01*
X001849Y015705D02*
X001849Y015705D01*
X002089Y015805D02*
X003132Y015805D01*
X003170Y015820D02*
X002975Y015739D01*
X002826Y015590D01*
X002745Y015395D01*
X002745Y015185D01*
X002826Y014990D01*
X002975Y014841D01*
X003170Y014760D01*
X003380Y014760D01*
X003575Y014841D01*
X003724Y014990D01*
X003805Y015185D01*
X003805Y015395D01*
X003724Y015590D01*
X003575Y015739D01*
X003380Y015820D01*
X003170Y015820D01*
X003418Y015805D02*
X005639Y015805D01*
X005815Y015805D02*
X005855Y015805D01*
X005855Y015646D02*
X005815Y015646D01*
X005815Y015488D02*
X005855Y015488D01*
X005855Y015329D02*
X005815Y015329D01*
X005815Y015270D02*
X005285Y015270D01*
X005285Y015247D01*
X005299Y015161D01*
X005325Y015079D01*
X005365Y015002D01*
X005415Y014932D01*
X005477Y014870D01*
X005547Y014820D01*
X005624Y014780D01*
X005706Y014754D01*
X005792Y014740D01*
X005815Y014740D01*
X005815Y015270D01*
X005815Y015171D02*
X005855Y015171D01*
X005855Y015012D02*
X005815Y015012D01*
X005815Y014854D02*
X005855Y014854D01*
X005500Y014854D02*
X003588Y014854D01*
X003734Y015012D02*
X005359Y015012D01*
X005297Y015171D02*
X003799Y015171D01*
X003805Y015329D02*
X005285Y015329D01*
X005321Y015488D02*
X003767Y015488D01*
X003669Y015646D02*
X005414Y015646D01*
X006031Y015805D02*
X007764Y015805D01*
X007773Y015783D02*
X007908Y015648D01*
X008085Y015575D01*
X008275Y015575D01*
X008452Y015648D01*
X008587Y015783D01*
X008660Y015960D01*
X008660Y016150D01*
X008587Y016327D01*
X008452Y016462D01*
X008275Y016535D01*
X008085Y016535D01*
X007908Y016462D01*
X007773Y016327D01*
X007700Y016150D01*
X007700Y015960D01*
X007773Y015783D01*
X007700Y015963D02*
X002290Y015963D01*
X002420Y016122D02*
X007700Y016122D01*
X007754Y016280D02*
X002486Y016280D01*
X002530Y016439D02*
X007885Y016439D01*
X008329Y016597D02*
X009031Y016597D01*
X009085Y016575D02*
X009275Y016575D01*
X009452Y016648D01*
X009587Y016783D01*
X009660Y016960D01*
X009660Y017150D01*
X009587Y017327D01*
X009452Y017462D01*
X009275Y017535D01*
X009085Y017535D01*
X008908Y017462D01*
X008773Y017327D01*
X008700Y017150D01*
X008700Y016960D01*
X008773Y016783D01*
X008908Y016648D01*
X009085Y016575D01*
X008885Y016439D02*
X008475Y016439D01*
X008606Y016280D02*
X008754Y016280D01*
X008700Y016122D02*
X008660Y016122D01*
X008660Y015963D02*
X008700Y015963D01*
X008764Y015805D02*
X008596Y015805D01*
X008447Y015646D02*
X008913Y015646D01*
X009450Y015488D02*
X006349Y015488D01*
X006385Y015329D02*
X009608Y015329D01*
X009767Y015171D02*
X006373Y015171D01*
X006256Y015646D02*
X007913Y015646D01*
X009660Y015963D02*
X009700Y015963D01*
X009698Y015805D02*
X009764Y015805D01*
X009857Y015646D02*
X009913Y015646D01*
X009700Y016122D02*
X009660Y016122D01*
X009606Y016280D02*
X009754Y016280D01*
X009885Y016439D02*
X009475Y016439D01*
X009329Y016597D02*
X009977Y016597D01*
X009780Y016756D02*
X009559Y016756D01*
X009641Y016914D02*
X009700Y016914D01*
X009680Y017073D02*
X009660Y017073D01*
X009627Y017231D02*
X009711Y017231D01*
X009807Y017390D02*
X009524Y017390D01*
X008836Y017390D02*
X008524Y017390D01*
X008627Y017231D02*
X008733Y017231D01*
X008700Y017073D02*
X008660Y017073D01*
X008641Y016914D02*
X008719Y016914D01*
X008801Y016756D02*
X008559Y016756D01*
X009252Y014061D02*
X000614Y014061D01*
X000614Y013903D02*
X009207Y013903D01*
X009227Y013744D02*
X000614Y013744D01*
X000614Y013586D02*
X009329Y013586D01*
X002962Y014854D02*
X000614Y014854D01*
X000614Y015012D02*
X002816Y015012D01*
X002751Y015171D02*
X000614Y015171D01*
X000614Y015329D02*
X002745Y015329D01*
X002783Y015488D02*
X000614Y015488D01*
X000614Y015646D02*
X002881Y015646D01*
X003032Y016597D02*
X002530Y016597D01*
X002517Y016756D02*
X002840Y016756D01*
X002766Y016914D02*
X002451Y016914D01*
X002365Y017073D02*
X002745Y017073D01*
X002768Y017231D02*
X002206Y017231D01*
X001886Y017390D02*
X002845Y017390D01*
X001474Y017390D02*
X000969Y017390D01*
D23*
X014305Y013805D03*
X015805Y011180D03*
X016650Y009130D03*
X018180Y008305D03*
X020370Y008890D03*
X022430Y009305D03*
X020990Y010410D03*
X021680Y010680D03*
X025555Y010430D03*
X026555Y008930D03*
X030260Y009300D03*
X034555Y007805D03*
X034930Y006680D03*
X034305Y006055D03*
X029805Y003680D03*
X027180Y003680D03*
X026090Y003750D03*
X026770Y002650D03*
X023490Y002570D03*
X022275Y004160D03*
X020305Y004055D03*
X019055Y004180D03*
X018030Y003510D03*
X017055Y004555D03*
X016700Y005280D03*
X014710Y005450D03*
X013555Y004305D03*
X012055Y004555D03*
X011730Y007090D03*
X012805Y007680D03*
X014055Y007430D03*
X014900Y007990D03*
X013555Y008555D03*
X012370Y008650D03*
X011250Y009060D03*
X010230Y011010D03*
X015130Y007020D03*
X021805Y005805D03*
X023670Y006470D03*
X024850Y005230D03*
X027055Y004805D03*
X027930Y005555D03*
X037305Y015555D03*
M02*
