G75*
G70*
%OFA0B0*%
%FSLAX24Y24*%
%IPPOS*%
%LPD*%
%AMOC8*
5,1,8,0,0,1.08239X$1,22.5*
%
%ADD10C,0.0560*%
%ADD11R,0.1095X0.1095*%
%ADD12R,0.0800X0.0800*%
%ADD13C,0.0800*%
%ADD14OC8,0.0560*%
%ADD15C,0.0640*%
%ADD16C,0.0740*%
%ADD17C,0.1700*%
%ADD18C,0.0660*%
%ADD19C,0.1300*%
%ADD20C,0.0080*%
%ADD21C,0.0400*%
D10*
X020596Y010255D03*
X020596Y012155D03*
D11*
X027621Y015330D03*
X032821Y015330D03*
D12*
X020596Y016080D03*
X024096Y001705D03*
X012661Y001705D03*
D13*
X014039Y001705D03*
X015417Y001705D03*
X016795Y001705D03*
X018173Y001705D03*
X019551Y001705D03*
X020929Y001705D03*
X022306Y001705D03*
X025474Y001705D03*
X026852Y001705D03*
X028230Y001705D03*
X029608Y001705D03*
X030986Y001705D03*
X032364Y001705D03*
X033742Y001705D03*
X019218Y016080D03*
X017840Y016080D03*
X016462Y016080D03*
D14*
X022471Y015955D03*
X022471Y014955D03*
X022471Y013955D03*
X022471Y012955D03*
X022471Y011955D03*
X026471Y011955D03*
X026471Y012955D03*
X026471Y013955D03*
X026471Y014955D03*
X026471Y015955D03*
X026471Y016955D03*
X022471Y016955D03*
D15*
X008596Y016455D03*
X007596Y016455D03*
X006596Y016455D03*
X006596Y015455D03*
X007596Y015455D03*
X008596Y015455D03*
D16*
X012096Y008080D03*
X013096Y008080D03*
D17*
X033657Y012905D03*
X036020Y012905D03*
X034838Y014755D03*
D18*
X034941Y006572D03*
X035721Y006572D03*
X035721Y005588D03*
X034941Y005588D03*
D19*
X036791Y003710D03*
X036791Y008450D03*
D20*
X038196Y009265D02*
X033996Y009265D01*
X032796Y008065D01*
X032796Y008545D02*
X035076Y010825D01*
X037296Y010825D01*
X034656Y011305D02*
X034416Y011065D01*
X034656Y011305D02*
X034656Y013285D01*
X033816Y014125D01*
X033816Y015625D01*
X033276Y016165D01*
X033276Y017065D01*
X032916Y016705D02*
X031296Y015085D01*
X030516Y014425D02*
X030516Y002605D01*
X029616Y001705D01*
X029608Y001705D01*
X029076Y001765D02*
X029076Y007285D01*
X028056Y006385D02*
X027576Y006865D01*
X023616Y006865D01*
X021936Y007405D02*
X026316Y003025D01*
X026316Y001465D01*
X026616Y001165D01*
X028476Y001165D01*
X029076Y001765D01*
X028236Y001705D02*
X028230Y001705D01*
X028236Y001705D02*
X028236Y002605D01*
X027096Y001945D02*
X026856Y001705D01*
X026852Y001705D01*
X027096Y001945D02*
X027096Y006385D01*
X027576Y006865D02*
X026736Y007705D01*
X025416Y007765D02*
X020376Y007765D01*
X019956Y007345D01*
X019956Y002905D01*
X018696Y001645D01*
X018696Y001465D01*
X018396Y001165D01*
X017976Y001165D01*
X017616Y001525D01*
X017616Y004825D01*
X017496Y004825D01*
X017616Y004825D02*
X018876Y004825D01*
X019596Y005545D02*
X019596Y009865D01*
X022416Y012685D01*
X022416Y012925D01*
X022471Y012955D01*
X022896Y013105D02*
X022896Y010525D01*
X020916Y008545D01*
X021396Y008545D02*
X023076Y010225D01*
X023076Y013945D01*
X022476Y014545D01*
X022476Y014905D01*
X022471Y014955D01*
X022471Y013955D02*
X022476Y013945D01*
X022476Y013525D01*
X022896Y013105D01*
X023436Y012385D02*
X023436Y008185D01*
X020556Y008185D01*
X019236Y007585D02*
X019236Y013345D01*
X022296Y016405D01*
X027816Y016405D01*
X030156Y014065D01*
X030156Y009865D01*
X027516Y009865D02*
X025416Y007765D01*
X025356Y008185D02*
X027156Y009985D01*
X027516Y009865D02*
X027516Y010105D01*
X026496Y011125D01*
X026496Y011905D01*
X026471Y011955D01*
X030516Y014425D02*
X027576Y017365D01*
X016956Y017365D01*
X015096Y015505D01*
X015096Y012025D01*
X016776Y012205D02*
X017856Y013285D01*
X018216Y013705D02*
X020556Y016045D01*
X020596Y016080D01*
X022176Y016645D02*
X018996Y016645D01*
X018456Y016105D01*
X017856Y016105D01*
X017840Y016080D01*
X016462Y016080D02*
X016416Y016045D01*
X016416Y008905D01*
X017316Y008005D01*
X017316Y006985D01*
X016956Y007105D02*
X014676Y004825D01*
X014676Y003145D01*
X014256Y002245D02*
X011976Y002245D01*
X011796Y002065D01*
X011796Y005425D01*
X011796Y006025D02*
X014856Y009085D01*
X015396Y009025D02*
X014616Y009805D01*
X014496Y009805D01*
X014496Y010225D01*
X008796Y015925D01*
X008496Y015925D01*
X008016Y016405D01*
X007596Y016405D01*
X007596Y016455D01*
X008076Y016945D02*
X008556Y016465D01*
X008596Y016455D01*
X008076Y016945D02*
X004896Y016945D01*
X005976Y015805D02*
X006576Y016405D01*
X006596Y016455D01*
X005976Y015805D02*
X005976Y003445D01*
X009756Y003445D01*
X010236Y002965D01*
X009816Y002065D02*
X011436Y003685D01*
X011436Y008845D01*
X011076Y008905D02*
X011076Y008965D01*
X011316Y009205D01*
X013476Y009205D01*
X013296Y009805D02*
X009456Y009805D01*
X009456Y007885D01*
X011076Y008905D02*
X006336Y004165D01*
X003516Y004165D02*
X003516Y002065D01*
X004656Y002065D02*
X009816Y002065D01*
X011256Y001525D02*
X011796Y002065D01*
X011136Y001165D02*
X010896Y001405D01*
X003096Y001405D01*
X011136Y001165D02*
X013476Y001165D01*
X014016Y001705D01*
X014039Y001705D01*
X014676Y001705D01*
X015216Y002245D01*
X016236Y002245D01*
X016776Y001705D01*
X016795Y001705D01*
X018173Y001705D02*
X018216Y001705D01*
X019236Y002725D01*
X019236Y005965D01*
X020316Y005845D02*
X020856Y006385D01*
X020856Y007045D01*
X021336Y007045D02*
X021336Y006145D01*
X021816Y007045D02*
X021816Y003985D01*
X024096Y001705D01*
X022306Y001705D02*
X021696Y001705D01*
X021156Y002245D01*
X020136Y002245D01*
X019596Y001705D01*
X019551Y001705D01*
X018936Y006925D02*
X014256Y002245D01*
X015876Y005065D02*
X017856Y007045D01*
X017856Y007525D01*
X018216Y007165D02*
X018216Y013705D01*
X018576Y013045D02*
X022176Y016645D01*
X022476Y016945D01*
X022471Y016955D01*
X027621Y015330D02*
X027636Y015325D01*
X028416Y014545D01*
X028416Y006265D01*
X027576Y005425D01*
X027576Y004885D01*
X032436Y002965D02*
X033696Y001705D01*
X033742Y001705D01*
X031536Y001465D02*
X031536Y008545D01*
X032436Y008665D02*
X032436Y002965D01*
X031536Y001465D02*
X030576Y000505D01*
X017616Y006085D02*
X017616Y006565D01*
X018216Y007165D01*
X018576Y007765D02*
X018576Y013045D01*
X016056Y010225D02*
X011556Y014725D01*
X009456Y012925D02*
X007596Y014785D01*
X007596Y015455D01*
X009456Y012925D02*
X009456Y009805D01*
X013656Y007405D02*
X014736Y008485D01*
X015396Y009025D02*
X015396Y006565D01*
X015876Y006565D02*
X015876Y009445D01*
X015516Y009805D01*
X016056Y010225D02*
X016056Y009025D01*
X016956Y008125D01*
X016956Y007885D01*
X016956Y007345D02*
X016956Y007105D01*
X014736Y006025D02*
X012276Y006025D01*
X020496Y007405D02*
X021936Y007405D01*
X023436Y008185D02*
X025356Y008185D01*
X032436Y008665D02*
X033636Y009865D01*
X033636Y012865D01*
X033657Y012905D01*
X032796Y007465D02*
X033636Y006625D01*
X034896Y006625D01*
X034941Y006572D01*
D21*
X003096Y001405D03*
X003516Y002065D03*
X004656Y002065D03*
X005976Y003445D03*
X006336Y004165D03*
X003516Y004165D03*
X010236Y002965D03*
X011256Y001525D03*
X014676Y003145D03*
X017496Y004825D03*
X018876Y004825D03*
X019596Y005545D03*
X020316Y005845D03*
X019236Y005965D03*
X017616Y006085D03*
X018936Y006925D03*
X019236Y007585D03*
X018576Y007765D03*
X017856Y007525D03*
X016956Y007345D03*
X017316Y006985D03*
X015876Y006565D03*
X015396Y006565D03*
X014736Y006025D03*
X015876Y005065D03*
X012276Y006025D03*
X011796Y006025D03*
X011796Y005425D03*
X013656Y007405D03*
X014736Y008485D03*
X014856Y009085D03*
X013476Y009205D03*
X013296Y009805D03*
X014496Y009805D03*
X015516Y009805D03*
X016956Y007885D03*
X020496Y007405D03*
X020856Y007045D03*
X021336Y007045D03*
X021816Y007045D03*
X023616Y006865D03*
X021336Y006145D03*
X020556Y008185D03*
X020916Y008545D03*
X021396Y008545D03*
X026736Y007705D03*
X029076Y007285D03*
X028056Y006385D03*
X027096Y006385D03*
X027576Y004885D03*
X028236Y002605D03*
X030576Y000505D03*
X032796Y007465D03*
X032796Y008065D03*
X032796Y008545D03*
X031536Y008545D03*
X030156Y009865D03*
X027156Y009985D03*
X023436Y012385D03*
X017856Y013285D03*
X016776Y012205D03*
X015096Y012025D03*
X011556Y014725D03*
X004896Y016945D03*
X011436Y008845D03*
X009456Y007885D03*
X031296Y015085D03*
X032916Y016705D03*
X033276Y017065D03*
X034416Y011065D03*
X037296Y010825D03*
X038196Y009265D03*
M02*
