G04 This is an RS-274x file exported by *
G04 gerbv version 2.6.0 *
G04 More information is available about gerbv at *
G04 http://gerbv.gpleda.org/ *
G04 --End of header info--*
%MOIN*%
%FSLAX34Y34*%
%IPPOS*%
G04 --Define apertures--*
%ADD10C,0.0640*%
%ADD11C,0.0513*%
%ADD12C,0.0710*%
%ADD13R,0.1175X0.1175*%
%ADD14C,0.1380*%
%ADD15R,0.0880X0.0880*%
%ADD16C,0.0880*%
%AMMACRO17*
5,1,8,0.000000,0.000000,0.069273,22.500000*
%
%ADD17MACRO17*%
%ADD18C,0.0720*%
%ADD19C,0.0820*%
%ADD20C,0.1780*%
%ADD21C,0.0740*%
G04 --Start main section--*
G54D10*
G01X0020596Y0010255D03*
G01X0020596Y0012155D03*
G54D11*
G01X0012375Y0015427D03*
G01X0012375Y0016805D03*
G01X0009269Y0013647D03*
G54D12*
G01X0009269Y0005340D03*
G54D13*
G01X0027621Y0015330D03*
G01X0032821Y0015330D03*
G54D14*
G01X0001596Y0001705D03*
G01X0001596Y0016080D03*
G01X0036791Y0008450D03*
G01X0036791Y0003710D03*
G01X0037596Y0001705D03*
G01X0037596Y0016080D03*
G54D15*
G01X0020596Y0016080D03*
G01X0024096Y0001705D03*
G01X0012661Y0001705D03*
G54D16*
G01X0014039Y0001705D03*
G01X0015417Y0001705D03*
G01X0016795Y0001705D03*
G01X0018173Y0001705D03*
G01X0019551Y0001705D03*
G01X0020929Y0001705D03*
G01X0022306Y0001705D03*
G01X0025474Y0001705D03*
G01X0026852Y0001705D03*
G01X0028230Y0001705D03*
G01X0029608Y0001705D03*
G01X0030986Y0001705D03*
G01X0032364Y0001705D03*
G01X0033742Y0001705D03*
G01X0019218Y0016080D03*
G01X0017840Y0016080D03*
G01X0016462Y0016080D03*
G54D17*
G01X0022471Y0015955D03*
G01X0022471Y0014955D03*
G01X0022471Y0013955D03*
G01X0022471Y0012955D03*
G01X0022471Y0011955D03*
G01X0026471Y0011955D03*
G01X0026471Y0012955D03*
G01X0026471Y0013955D03*
G01X0026471Y0014955D03*
G01X0026471Y0015955D03*
G01X0026471Y0016955D03*
G01X0022471Y0016955D03*
G54D18*
G01X0008596Y0016455D03*
G01X0007596Y0016455D03*
G01X0006596Y0016455D03*
G01X0006596Y0015455D03*
G01X0007596Y0015455D03*
G01X0008596Y0015455D03*
G54D19*
G01X0012096Y0008080D03*
G01X0013096Y0008080D03*
G54D20*
G01X0033657Y0012905D03*
G01X0036020Y0012905D03*
G01X0034838Y0014755D03*
G54D21*
G01X0034941Y0006572D03*
G01X0035721Y0006572D03*
G01X0035721Y0005588D03*
G01X0034941Y0005588D03*
M02*
