G75*
%MOIN*%
%OFA0B0*%
%FSLAX24Y24*%
%IPPOS*%
%LPD*%
%AMOC8*
5,1,8,0,0,1.08239X$1,22.5*
%
%ADD10R,0.0433X0.0394*%
%ADD11R,0.0315X0.0472*%
%ADD12R,0.0260X0.0800*%
%ADD13R,0.0472X0.0217*%
%ADD14R,0.1102X0.0787*%
%ADD15R,0.1575X0.0276*%
%ADD16R,0.1575X0.0472*%
%ADD17R,0.1560X0.1560*%
%ADD18R,0.0394X0.0433*%
%ADD19R,0.0394X0.0551*%
%ADD20R,0.0480X0.0245*%
%ADD21R,0.0160X0.0320*%
%ADD22R,0.0551X0.0630*%
%ADD23R,0.0315X0.0315*%
%ADD24R,0.0276X0.0276*%
%ADD25R,0.0256X0.0197*%
%ADD26R,0.0140X0.0240*%
%ADD27R,0.0630X0.0390*%
%ADD28R,0.0210X0.0780*%
%ADD29R,0.0098X0.0394*%
%ADD30R,0.0394X0.0098*%
%ADD31R,0.0787X0.0787*%
%ADD32R,0.0630X0.0551*%
%ADD33R,0.0320X0.0120*%
%ADD34R,0.0120X0.0320*%
%ADD35R,0.1280X0.1280*%
D10*
X021995Y010480D03*
X022665Y010480D03*
X023195Y010480D03*
X023865Y010480D03*
X025995Y010630D03*
X026665Y010630D03*
X027695Y010080D03*
X028365Y010080D03*
X032345Y010430D03*
X033015Y010430D03*
X030430Y012295D03*
X029630Y012295D03*
X029630Y012965D03*
X030430Y012965D03*
X027065Y012830D03*
X026395Y012830D03*
X028145Y014930D03*
X028815Y014930D03*
X036780Y014315D03*
X036780Y013645D03*
X037745Y013030D03*
X038415Y013030D03*
X033665Y006830D03*
X032995Y006830D03*
X032995Y005230D03*
X033665Y005230D03*
X027665Y006180D03*
X026995Y006180D03*
X026315Y005630D03*
X025645Y005630D03*
X017565Y012130D03*
X016895Y012130D03*
D11*
X017576Y010930D03*
X018284Y010930D03*
D12*
X015880Y010520D03*
X015380Y010520D03*
X014880Y010520D03*
X014380Y010520D03*
X013880Y010520D03*
X013380Y010520D03*
X012880Y010520D03*
X012380Y010520D03*
X012380Y012940D03*
X012880Y012940D03*
X013380Y012940D03*
X013880Y012940D03*
X014380Y012940D03*
X014880Y012940D03*
X015380Y012940D03*
X015880Y012940D03*
D13*
X025318Y013706D03*
X025318Y014080D03*
X025318Y014454D03*
X026342Y014454D03*
X026342Y013706D03*
X027983Y013850D03*
X027983Y013476D03*
X029007Y013476D03*
X029007Y014224D03*
X027983Y014224D03*
D14*
X001847Y003779D03*
X010076Y004724D03*
X001847Y014763D03*
X010036Y014802D03*
D15*
X010784Y014133D03*
X010784Y013661D03*
X010784Y013149D03*
D16*
X010784Y012519D03*
X010784Y011535D03*
X010784Y010550D03*
X010784Y009566D03*
X010784Y008582D03*
X010784Y007598D03*
X010784Y006613D03*
X010784Y005629D03*
D17*
X033430Y015430D03*
D18*
X029730Y014265D03*
X029730Y013595D03*
X027080Y013745D03*
X027080Y014415D03*
X025630Y015245D03*
X025630Y015915D03*
X027730Y012015D03*
X027730Y011345D03*
X032995Y007630D03*
X033665Y007630D03*
X033665Y006030D03*
X032995Y006030D03*
X029730Y006745D03*
X029730Y007415D03*
X025065Y005630D03*
X024395Y005630D03*
X023130Y005495D03*
X023130Y006165D03*
X012065Y014930D03*
X011395Y014930D03*
D19*
X019306Y011897D03*
X020054Y011897D03*
X019680Y012763D03*
X029706Y011563D03*
X030454Y011563D03*
X031656Y012163D03*
X032404Y012163D03*
X033056Y012163D03*
X033804Y012163D03*
X033430Y011297D03*
X032030Y011297D03*
X030080Y010697D03*
D20*
X037664Y014006D03*
X037664Y014380D03*
X037664Y014754D03*
X038696Y014754D03*
X038696Y014380D03*
X038696Y014006D03*
D21*
X016402Y007384D03*
X016087Y007384D03*
X015773Y007384D03*
X015458Y007384D03*
X015458Y006676D03*
X015773Y006676D03*
X016087Y006676D03*
X016402Y006676D03*
X013402Y006676D03*
X013087Y006676D03*
X012773Y006676D03*
X012458Y006676D03*
X012458Y007384D03*
X012773Y007384D03*
X013087Y007384D03*
X013402Y007384D03*
D22*
X032479Y009030D03*
X033581Y009030D03*
D23*
X036030Y001925D03*
X036730Y001925D03*
X036730Y001335D03*
X036030Y001335D03*
D24*
X029930Y004966D03*
X028730Y004966D03*
X028474Y005694D03*
X028986Y005694D03*
X029674Y005694D03*
X030186Y005694D03*
D25*
X034634Y002352D03*
X034634Y002037D03*
X035126Y002037D03*
X035126Y002352D03*
X035126Y001723D03*
X034634Y001723D03*
X034634Y001408D03*
X035126Y001408D03*
X020226Y005708D03*
X019734Y005708D03*
X019734Y006023D03*
X019734Y006337D03*
X020226Y006337D03*
X020226Y006023D03*
X020226Y006652D03*
X019734Y006652D03*
D26*
X026370Y011320D03*
X026630Y011320D03*
X026890Y011320D03*
X026890Y012140D03*
X026630Y012140D03*
X026370Y012140D03*
D27*
X026630Y011730D03*
D28*
X024130Y009350D03*
X023630Y009350D03*
X023130Y009350D03*
X022630Y009350D03*
X026880Y009200D03*
X027380Y009200D03*
X027880Y009200D03*
X028380Y009200D03*
X024130Y007410D03*
X023630Y007410D03*
X023130Y007410D03*
X022630Y007410D03*
X026880Y007260D03*
X027380Y007260D03*
X027880Y007260D03*
X028380Y007260D03*
D29*
X030899Y007805D03*
X031096Y007805D03*
X031293Y007805D03*
X031489Y007805D03*
X031686Y007805D03*
X031686Y006230D03*
X031489Y006230D03*
X031293Y006230D03*
X031096Y006230D03*
X030899Y006230D03*
D30*
X030505Y006624D03*
X030505Y006821D03*
X030505Y007017D03*
X030505Y007214D03*
X030505Y007411D03*
X032080Y007411D03*
X032080Y007214D03*
X032080Y007017D03*
X032080Y006821D03*
X032080Y006624D03*
D31*
X031293Y007017D03*
D32*
X022030Y006181D03*
X022030Y005079D03*
D33*
X021200Y008390D03*
X021200Y008590D03*
X021200Y008780D03*
X021200Y008980D03*
X021200Y009180D03*
X021200Y009380D03*
X021200Y009570D03*
X021200Y009770D03*
X019260Y009770D03*
X019260Y009570D03*
X019260Y009380D03*
X019260Y009180D03*
X019260Y008980D03*
X019260Y008780D03*
X019260Y008590D03*
X019260Y008390D03*
D34*
X019540Y008110D03*
X019740Y008110D03*
X019930Y008110D03*
X020130Y008110D03*
X020330Y008110D03*
X020530Y008110D03*
X020720Y008110D03*
X020920Y008110D03*
X020920Y010050D03*
X020720Y010050D03*
X020530Y010050D03*
X020330Y010050D03*
X020130Y010050D03*
X019930Y010050D03*
X019740Y010050D03*
X019540Y010050D03*
D35*
X020230Y009080D03*
M02*
