G75*
%MOIN*%
%OFA0B0*%
%FSLAX25Y25*%
%IPPOS*%
%LPD*%
%AMOC8*
5,1,8,0,0,1.08239X$1,22.5*
%
%ADD10R,0.21800X0.08400*%
%ADD11R,0.05131X0.04737*%
%ADD12R,0.03950X0.05524*%
%ADD13R,0.03400X0.08800*%
%ADD14R,0.11824X0.08674*%
%ADD15R,0.16548X0.03556*%
%ADD16R,0.16548X0.05524*%
%ADD17C,0.05131*%
%ADD18C,0.07099*%
%ADD19R,0.11750X0.11750*%
%ADD20R,0.16400X0.16400*%
%ADD21C,0.13800*%
%ADD22R,0.04737X0.05131*%
%ADD23OC8,0.06400*%
%ADD24C,0.07200*%
%ADD25R,0.06312X0.05524*%
%ADD26C,0.17800*%
%ADD27R,0.06312X0.04737*%
%ADD28R,0.03249X0.05603*%
%ADD29C,0.07400*%
%ADD30R,0.08800X0.08800*%
%ADD31C,0.08800*%
%ADD32C,0.08200*%
%ADD33R,0.02400X0.05131*%
%ADD34R,0.06312X0.07099*%
%ADD35C,0.01421*%
%ADD36R,0.04737X0.06312*%
%ADD37R,0.03359X0.02769*%
%ADD38R,0.02200X0.03200*%
%ADD39R,0.07100X0.04700*%
%ADD40R,0.01784X0.04737*%
%ADD41R,0.04737X0.01784*%
%ADD42R,0.08674X0.08674*%
%ADD43R,0.04000X0.02000*%
%ADD44R,0.02000X0.04000*%
%ADD45R,0.13600X0.13600*%
%ADD46R,0.02900X0.08600*%
%ADD47C,0.06400*%
%ADD48R,0.03950X0.01587*%
%ADD49R,0.01587X0.04343*%
%ADD50R,0.03162X0.02375*%
%ADD51R,0.02375X0.03162*%
D10*
X0220300Y0120800D03*
X0258300Y0120800D03*
D11*
X0277347Y0112800D03*
X0284040Y0112800D03*
X0258146Y0104800D03*
X0251454Y0104800D03*
X0246146Y0104800D03*
X0239454Y0104800D03*
X0250481Y0092284D03*
X0258375Y0092284D03*
X0258375Y0085591D03*
X0250481Y0085591D03*
X0281792Y0090548D03*
X0288485Y0090548D03*
X0309954Y0082300D03*
X0316646Y0082300D03*
X0329954Y0068300D03*
X0336646Y0068300D03*
X0336646Y0052300D03*
X0329954Y0052300D03*
X0264646Y0054300D03*
X0257954Y0054300D03*
X0175646Y0126800D03*
X0168954Y0126800D03*
X0278485Y0138800D03*
X0285178Y0138800D03*
D12*
X0196843Y0128800D03*
X0189757Y0128800D03*
D13*
X0158800Y0135400D03*
X0153800Y0135400D03*
X0148800Y0135400D03*
X0143800Y0135400D03*
X0138800Y0135400D03*
X0133800Y0135400D03*
X0128800Y0135400D03*
X0123800Y0135400D03*
X0123800Y0111200D03*
X0128800Y0111200D03*
X0133800Y0111200D03*
X0138800Y0111200D03*
X0143800Y0111200D03*
X0148800Y0111200D03*
X0153800Y0111200D03*
X0158800Y0111200D03*
D14*
X0100363Y0148024D03*
X0018473Y0147631D03*
X0100757Y0047237D03*
X0018473Y0037788D03*
D15*
X0107843Y0131489D03*
X0107843Y0136607D03*
X0107843Y0141331D03*
D16*
X0107843Y0125190D03*
X0107843Y0115347D03*
X0107843Y0105505D03*
X0107843Y0095662D03*
X0107843Y0085820D03*
X0107843Y0075977D03*
X0107843Y0066135D03*
X0107843Y0056292D03*
D17*
X0096032Y0138969D03*
D18*
X0096032Y0055898D03*
D19*
X0308300Y0154300D03*
X0360300Y0154300D03*
D20*
X0334300Y0154300D03*
D21*
X0016800Y0016800D03*
X0016800Y0165550D03*
X0367500Y0078000D03*
X0367500Y0030600D03*
X0381800Y0016800D03*
X0381800Y0165550D03*
D22*
X0287757Y0129646D03*
X0287757Y0122954D03*
X0299954Y0110300D03*
X0306646Y0110300D03*
X0316800Y0113454D03*
X0316800Y0120146D03*
X0272257Y0096048D03*
X0272257Y0089355D03*
X0272316Y0083064D03*
X0272316Y0076371D03*
X0295800Y0078146D03*
X0295800Y0071454D03*
X0329954Y0076300D03*
X0336646Y0076300D03*
X0336646Y0060300D03*
X0329954Y0060300D03*
X0252646Y0054300D03*
X0245954Y0054300D03*
X0236800Y0052954D03*
X0236800Y0059646D03*
X0120646Y0149300D03*
X0113954Y0149300D03*
D23*
X0125300Y0089800D03*
X0135300Y0089800D03*
X0145300Y0089800D03*
X0155300Y0089800D03*
X0165300Y0089800D03*
X0175300Y0089800D03*
X0175300Y0049800D03*
X0165300Y0049800D03*
X0155300Y0049800D03*
X0145300Y0049800D03*
X0135300Y0049800D03*
X0125300Y0049800D03*
D24*
X0096800Y0160300D03*
X0086800Y0160300D03*
X0076800Y0160300D03*
X0076800Y0170300D03*
X0086800Y0170300D03*
X0096800Y0170300D03*
D25*
X0116300Y0170706D03*
X0116300Y0158894D03*
D26*
X0347807Y0105050D03*
X0371429Y0105050D03*
X0359618Y0123554D03*
D27*
X0335631Y0116800D03*
X0326969Y0113060D03*
X0326969Y0120540D03*
X0331631Y0100040D03*
X0322969Y0096300D03*
X0331631Y0092560D03*
X0177631Y0110060D03*
X0168969Y0113800D03*
X0177631Y0117540D03*
D28*
X0299560Y0118643D03*
X0303300Y0118643D03*
X0307040Y0118643D03*
X0307040Y0128957D03*
X0303300Y0128957D03*
X0299560Y0128957D03*
D29*
X0349000Y0059221D03*
X0356800Y0059221D03*
X0356800Y0049379D03*
X0349000Y0049379D03*
D30*
X0210095Y0019300D03*
X0072300Y0019300D03*
X0140300Y0163800D03*
D31*
X0154080Y0163800D03*
X0167859Y0163800D03*
X0181639Y0163800D03*
X0195418Y0163800D03*
X0209198Y0163800D03*
X0222977Y0163800D03*
X0236757Y0163800D03*
X0250536Y0163800D03*
X0264316Y0163800D03*
X0265213Y0019300D03*
X0278993Y0019300D03*
X0292772Y0019300D03*
X0306552Y0019300D03*
X0320331Y0019300D03*
X0334111Y0019300D03*
X0251434Y0019300D03*
X0237654Y0019300D03*
X0223875Y0019300D03*
X0196316Y0019300D03*
X0182536Y0019300D03*
X0168757Y0019300D03*
X0154977Y0019300D03*
X0141198Y0019300D03*
X0127418Y0019300D03*
X0113639Y0019300D03*
X0099859Y0019300D03*
X0086080Y0019300D03*
D32*
X0058100Y0017900D03*
X0032500Y0017900D03*
X0032500Y0035700D03*
X0058100Y0035700D03*
X0063600Y0151900D03*
X0038000Y0151900D03*
X0038000Y0169700D03*
X0063600Y0169700D03*
D33*
X0125576Y0072950D03*
X0128725Y0072950D03*
X0131875Y0072950D03*
X0135024Y0072950D03*
X0135024Y0066650D03*
X0131875Y0066650D03*
X0128725Y0066650D03*
X0125576Y0066650D03*
X0155576Y0066650D03*
X0158725Y0066650D03*
X0161875Y0066650D03*
X0165024Y0066650D03*
X0165024Y0072950D03*
X0161875Y0072950D03*
X0158725Y0072950D03*
X0155576Y0072950D03*
D34*
X0276288Y0062300D03*
X0287312Y0062300D03*
X0301788Y0093800D03*
X0312812Y0093800D03*
D35*
X0358642Y0018095D02*
X0361958Y0018095D01*
X0358642Y0018095D02*
X0358642Y0021411D01*
X0361958Y0021411D01*
X0361958Y0018095D01*
X0361958Y0019515D02*
X0358642Y0019515D01*
X0358642Y0020935D02*
X0361958Y0020935D01*
X0365642Y0018095D02*
X0368958Y0018095D01*
X0365642Y0018095D02*
X0365642Y0021411D01*
X0368958Y0021411D01*
X0368958Y0018095D01*
X0368958Y0019515D02*
X0365642Y0019515D01*
X0365642Y0020935D02*
X0368958Y0020935D01*
X0368958Y0011189D02*
X0365642Y0011189D01*
X0365642Y0014505D01*
X0368958Y0014505D01*
X0368958Y0011189D01*
X0368958Y0012609D02*
X0365642Y0012609D01*
X0365642Y0014029D02*
X0368958Y0014029D01*
X0361958Y0011189D02*
X0358642Y0011189D01*
X0358642Y0014505D01*
X0361958Y0014505D01*
X0361958Y0011189D01*
X0361958Y0012609D02*
X0358642Y0012609D01*
X0358642Y0014029D02*
X0361958Y0014029D01*
D36*
X0254375Y0069607D03*
X0258115Y0078269D03*
X0250635Y0078269D03*
D37*
X0197761Y0058524D03*
X0192839Y0058524D03*
X0192839Y0055375D03*
X0197761Y0055375D03*
X0197761Y0052225D03*
X0192839Y0052225D03*
X0192839Y0049076D03*
X0197761Y0049076D03*
X0346339Y0023524D03*
X0346339Y0020375D03*
X0351261Y0020375D03*
X0351261Y0023524D03*
X0351261Y0017225D03*
X0346339Y0017225D03*
X0346339Y0014076D03*
X0351261Y0014076D03*
D38*
X0280431Y0123700D03*
X0277831Y0123700D03*
X0275231Y0123700D03*
X0275231Y0131900D03*
X0277831Y0131900D03*
X0280431Y0131900D03*
D39*
X0277831Y0127800D03*
D40*
X0306989Y0070548D03*
X0308957Y0070548D03*
X0310926Y0070548D03*
X0312894Y0070548D03*
X0314863Y0070548D03*
X0314863Y0054800D03*
X0312894Y0054800D03*
X0310926Y0054800D03*
X0308957Y0054800D03*
X0306989Y0054800D03*
D41*
X0303052Y0058737D03*
X0303052Y0060706D03*
X0303052Y0062674D03*
X0303052Y0064643D03*
X0303052Y0066611D03*
X0318800Y0066611D03*
X0318800Y0064643D03*
X0318800Y0062674D03*
X0318800Y0060706D03*
X0318800Y0058737D03*
D42*
X0310926Y0062674D03*
D43*
X0212500Y0078900D03*
X0212500Y0080900D03*
X0212500Y0082800D03*
X0212500Y0084800D03*
X0212500Y0086800D03*
X0212500Y0088800D03*
X0212500Y0090700D03*
X0212500Y0092700D03*
X0193100Y0092700D03*
X0193100Y0090700D03*
X0193100Y0088800D03*
X0193100Y0086800D03*
X0193100Y0084800D03*
X0193100Y0082800D03*
X0193100Y0080900D03*
X0193100Y0078900D03*
D44*
X0195900Y0076100D03*
X0197900Y0076100D03*
X0199800Y0076100D03*
X0201800Y0076100D03*
X0203800Y0076100D03*
X0205800Y0076100D03*
X0207700Y0076100D03*
X0209700Y0076100D03*
X0209700Y0095500D03*
X0207700Y0095500D03*
X0205800Y0095500D03*
X0203800Y0095500D03*
X0201800Y0095500D03*
X0199800Y0095500D03*
X0197900Y0095500D03*
X0195900Y0095500D03*
D45*
X0202800Y0085800D03*
D46*
X0226300Y0093500D03*
X0231300Y0093500D03*
X0236300Y0093500D03*
X0241300Y0093500D03*
X0241300Y0074100D03*
X0236300Y0074100D03*
X0231300Y0074100D03*
X0226300Y0074100D03*
D47*
X0383300Y0134363D03*
X0383300Y0142237D03*
D48*
X0287056Y0079284D03*
X0287056Y0077316D03*
X0281544Y0077316D03*
X0281544Y0079284D03*
D49*
X0284300Y0080859D03*
X0284300Y0075741D03*
D50*
X0281150Y0076922D03*
X0281150Y0079678D03*
X0287450Y0079678D03*
X0287450Y0076922D03*
D51*
X0284300Y0075150D03*
X0284300Y0081450D03*
M02*
