%
M48
M72
T01C0.01200
T02C0.03150
T03C0.03200
T04C0.03543
T05C0.03600
T06C0.04000
T07C0.04331
T08C0.04724
T09C0.06299
T10C0.07300
T11C0.09000
T12C0.11800
T13C0.13000
%
T01
X84300Y49800
X129800Y53300
X152800Y56300
X160800Y57800
X171800Y60800
X175300Y63800
X182300Y67300
X188300Y69300
X193300Y67800
X190800Y62300
X195300Y61800
X205300Y57300
X206800Y63800
X215300Y65800
X219300Y65800
X225300Y62800
X229800Y67300
X241300Y61300
X250300Y59300
X264800Y58800
X272800Y64800
X277300Y68300
X284300Y66800
X284800Y62300
X298300Y64300
X303300Y71300
X317800Y70300
X341300Y64300
X347800Y71300
X325800Y56300
X303300Y55800
X298300Y48800
X295300Y42300
X327300Y40800
X343300Y43300
X349300Y37300
X342300Y27300
X359300Y23300
X355300Y14300
X348300Y7300
X371300Y11300
X255300Y49300
X240300Y45300
X229300Y42300
X216800Y46800
X214800Y40800
X209800Y38800
X204300Y45300
X188800Y55300
X184300Y55800
X203800Y67800
X208800Y71800
X214300Y75800
X221800Y78800
X232300Y85300
X245800Y87300
X245800Y92300
X254800Y98800
X267800Y97800
X278300Y97300
X289300Y100800
X274300Y104800
X267800Y103800
X272300Y112300
X261300Y114300
X295300Y108800
X314800Y105300
X293300Y91300
X311300Y87300
X302300Y81300
X264800Y81800
X263300Y90300
X261300Y72800
X246800Y66800
X244800Y70800
X232300Y58300
X192800Y75800
X188300Y73300
X188300Y78300
X185300Y81300
X181300Y85300
X174800Y94800
X169800Y99800
X176800Y100800
X172300Y107800
X168300Y109300
X163800Y113800
X143800Y113300
X127800Y119300
X118800Y116300
X98300Y119800
X92300Y113800
X119800Y99800
X107800Y90300
X129800Y83300
X150800Y91800
X158800Y76300
X151800Y72800
X210800Y99800
X217800Y97800
X210300Y104300
X191300Y100300
X186300Y110800
X183800Y114300
X191300Y114800
X194300Y121300
X179800Y122800
X164300Y122800
X138300Y135800
X133300Y140800
X140300Y143800
X143300Y140800
X126300Y136800
X164300Y146800
X178300Y140800
X193300Y135800
X199800Y133300
X216300Y135800
X269800Y137300
X284300Y134300
X300800Y123800
X311300Y118800
X218300Y87800
X232300Y36300
X215800Y28800
X189800Y27300
X237300Y8300
X241300Y12300
X70800Y161800
T02
X383300Y142237
X383300Y134363
T03
X238800Y120300
X219800Y120300
X174800Y88300
X164800Y88300
X154800Y88300
X144800Y88300
X134800Y88300
X124800Y88300
X124800Y48300
X134800Y48300
X144800Y48300
X154800Y48300
X164800Y48300
X174800Y48300
X116300Y159800
X116300Y169800
T04
X96800Y170300
X86800Y170300
X76800Y170300
X76800Y160300
X86800Y160300
X96800Y160300
T05
X349000Y59221
X356800Y59221
X356800Y49379
X349000Y49379
T06
X63600Y151900
X38000Y151900
X38000Y169700
X63600Y169700
X58100Y35700
X32500Y35700
X32500Y17900
X58100Y17900
T07
X96032Y138969
T08
X140300Y163800
X154080Y163800
X167859Y163800
X181639Y163800
X195418Y163800
X209198Y163800
X222977Y163800
X236757Y163800
X250536Y163800
X264316Y163800
X265213Y19300
X251434Y19300
X237654Y19300
X223875Y19300
X210095Y19300
X196316Y19300
X182536Y19300
X168757Y19300
X154977Y19300
X141198Y19300
X127418Y19300
X113639Y19300
X99859Y19300
X86080Y19300
X72300Y19300
X278993Y19300
X292772Y19300
X306552Y19300
X320331Y19300
X334111Y19300
T09
X96032Y55898
T10
X308300Y154300
X360300Y154300
T11
X367500Y78000
X367500Y30600
T12
X371429Y105050
X347807Y105050
X359618Y123554
T13
X16800Y16800
X16800Y165550
X381800Y165550
X381800Y16800
M30
