%
M48
M72
T01C0.0120
T02C0.0320
T03C0.0354
T04C0.0360
T05C0.0400
T06C0.0433
T07C0.0472
T08C0.0630
T09C0.0730
T10C0.0900
T11C0.1180
T12C0.1300
%
T01
X13080Y5930
X13480Y5780
X14580Y5780
X15880Y5780
X16030Y6230
X16980Y6430
X16730Y6780
X14430Y7430
X10780Y9080
X9030Y9180
X11880Y10130
X15730Y11480
X16130Y11880
X15730Y12280
X14930Y12280
X16480Y12830
X18580Y13330
X18780Y12730
X19230Y12430
X18580Y11380
X20080Y11380
X20580Y10830
X21030Y10480
X22280Y9530
X21730Y9280
X21930Y8680
X22230Y8080
X21530Y7780
X20980Y7630
X21230Y8080
X22280Y7330
X22280Y6880
X21080Y6080
X21480Y5680
X20180Y5080
X21830Y4530
X23580Y4930
X24780Y4430
X25080Y4730
X23730Y3880
X25080Y3680
X25480Y3280
X26130Y3380
X26480Y3880
X27180Y4480
X28580Y3830
X31930Y5680
X30580Y6330
X28930Y7080
X28080Y6630
X28330Y6080
X26530Y6080
X24730Y6180
X24330Y6530
X23580Y5980
X24480Y7580
X25180Y7780
X25580Y7780
X26130Y8380
X26130Y9280
X24480Y9580
X23730Y9980
X25980Y11280
X25330Y12030
X27230Y11980
X28180Y12630
X25780Y12830
X24780Y13430
X24180Y13880
X23780Y14680
X23430Y15130
X25830Y14530
X27380Y15380
X33830Y13330
X34980Y13330
X35630Y13980
X37930Y13480
X38680Y15180
X32730Y11680
X31530Y10030
X32030Y9530
X32980Y8580
X32530Y7980
X31980Y7730
X31280Y8280
X30580Y7980
X30180Y7680
X29730Y7930
X28880Y8480
X28880Y9680
X28880Y11030
X23680Y8380
X23280Y8380
X19430Y6930
X19330Y5930
X18380Y8880
X18030Y9180
X16980Y9730
X17630Y10380
X18280Y10430
X16830Y11280
X12130Y11880
X14180Y13930
X14780Y13930
X12730Y14680
X13730Y15280
X16880Y14980
X19580Y14330
X9230Y16480
X8430Y15280
X33930Y4580
X34230Y3730
X34930Y3730
X34230Y1980
X35180Y1030
X35480Y730
X30080Y1080
X24680Y3080
X23730Y2730
X23080Y2280
X21980Y3030
X34380Y6530
X37980Y6680
T02
X23880Y12030
X21980Y12030
X17430Y9030
X16430Y9030
X15430Y9030
X14430Y9030
X13430Y9030
X12430Y9030
X12430Y5030
X13430Y5030
X14430Y5030
X15430Y5030
X16430Y5030
X17430Y5030
X11630Y15980
X11630Y16980
T03
X9680Y17030
X8680Y17030
X7680Y17030
X7680Y16030
X8680Y16030
X9680Y16030
T04
X34900Y5922
X35680Y5922
X35680Y4938
X34900Y4938
T05
X6360Y15190
X3800Y15190
X3800Y16970
X6360Y16970
X5810Y3570
X3250Y3570
X3250Y1790
X5810Y1790
T06
X9603Y13897
T07
X14030Y16380
X15408Y16380
X16786Y16380
X18164Y16380
X19542Y16380
X20920Y16380
X22298Y16380
X23676Y16380
X23765Y1930
X25143Y1930
X26521Y1930
X27899Y1930
X29277Y1930
X30655Y1930
X32033Y1930
X33411Y1930
X22387Y1930
X21010Y1930
X19632Y1930
X18254Y1930
X16876Y1930
X15498Y1930
X14120Y1930
X12742Y1930
X11364Y1930
X9986Y1930
X8608Y1930
X7230Y1930
T08
X9603Y5590
T09
X30830Y15430
X36030Y15430
T10
X36750Y7800
X36750Y3060
T11
X37143Y10505
X34781Y10505
X35962Y12355
T12
X1680Y1680
X1680Y16555
X38180Y16555
X38180Y1680
M30
