G75*
G70*
%OFA0B0*%
%FSLAX24Y24*%
%IPPOS*%
%LPD*%
%AMOC8*
5,1,8,0,0,1.08239X$1,22.5*
%
%ADD10C,0.0560*%
%ADD11C,0.0740*%
%ADD12C,0.0560*%
%ADD13C,0.0650*%
%ADD14OC8,0.0560*%
%ADD15R,0.0800X0.0260*%
%ADD16R,0.0217X0.0472*%
%ADD17R,0.1102X0.0787*%
%ADD18R,0.1575X0.0276*%
%ADD19R,0.1575X0.0472*%
%ADD20R,0.1560X0.1560*%
%ADD21R,0.1095X0.1095*%
%ADD22R,0.0300X0.0600*%
%ADD23R,0.0800X0.0800*%
%ADD24C,0.0800*%
%ADD25C,0.0640*%
%ADD26R,0.0866X0.0236*%
%ADD27R,0.0630X0.0551*%
%ADD28R,0.1660X0.1660*%
%ADD29R,0.1857X0.1857*%
%ADD30C,0.0080*%
%ADD31C,0.0400*%
D10*
X013101Y007821D02*
X013101Y008381D01*
X014101Y008381D02*
X014101Y007821D01*
X015101Y007821D02*
X015101Y008381D01*
X016101Y008381D02*
X016101Y007821D01*
X017101Y007821D02*
X017101Y008381D01*
X018101Y008381D02*
X018101Y007821D01*
X019101Y007821D02*
X019101Y008381D01*
X020101Y008381D02*
X020101Y007821D01*
X021101Y007821D02*
X021101Y008381D01*
X022101Y008381D02*
X022101Y007821D01*
X023101Y007821D02*
X023101Y008381D01*
X024101Y008381D02*
X024101Y007821D01*
X025101Y007821D02*
X025101Y008381D01*
X026101Y008381D02*
X026101Y007821D01*
X026101Y010821D02*
X026101Y011381D01*
X025101Y011381D02*
X025101Y010821D01*
X024101Y010821D02*
X024101Y011381D01*
X023101Y011381D02*
X023101Y010821D01*
X022101Y010821D02*
X022101Y011381D01*
X021101Y011381D02*
X021101Y010821D01*
X020101Y010821D02*
X020101Y011381D01*
X019101Y011381D02*
X019101Y010821D01*
X018101Y010821D02*
X018101Y011381D01*
X017101Y011381D02*
X017101Y010821D01*
X016101Y010821D02*
X016101Y011381D01*
X015101Y011381D02*
X015101Y010821D01*
X014101Y010821D02*
X014101Y011381D01*
X013101Y011381D02*
X013101Y010821D01*
D11*
X025601Y006351D03*
X026601Y006351D03*
X037304Y005881D03*
X037304Y006881D03*
X037304Y007881D03*
X037304Y008881D03*
X037304Y004881D03*
X037304Y003881D03*
X036601Y015156D03*
X036601Y016296D03*
D12*
X017851Y015551D03*
X017851Y013651D03*
D13*
X019851Y012601D03*
X020851Y012601D03*
X021976Y012601D03*
X022976Y012601D03*
X009226Y015851D03*
X007726Y015101D03*
X006726Y015101D03*
X006726Y016726D03*
X007726Y016726D03*
X009226Y016851D03*
X005226Y002351D03*
X003601Y002351D03*
X003601Y001351D03*
X005226Y001351D03*
D14*
X012101Y006601D03*
X016101Y006601D03*
X017226Y006601D03*
X019726Y005226D03*
X021226Y006601D03*
X022351Y006601D03*
X024351Y006601D03*
X023726Y005226D03*
X027976Y006101D03*
X027976Y011101D03*
X027226Y012601D03*
X026226Y012601D03*
X024226Y012601D03*
X022351Y013601D03*
X020351Y013601D03*
X029226Y012601D03*
D15*
X015561Y013351D03*
X015561Y013851D03*
X015561Y014351D03*
X015561Y014851D03*
X015561Y015351D03*
X015561Y015851D03*
X015561Y016351D03*
X015561Y016851D03*
X013141Y016851D03*
X013141Y016351D03*
X013141Y015851D03*
X013141Y015351D03*
X013141Y014851D03*
X013141Y014351D03*
X013141Y013851D03*
X013141Y013351D03*
D16*
X011600Y015589D03*
X010852Y015589D03*
X010852Y016613D03*
X011226Y016613D03*
X011600Y016613D03*
X007100Y002363D03*
X006352Y002363D03*
X006352Y001339D03*
X006726Y001339D03*
X007100Y001339D03*
D17*
X001518Y003425D03*
X009746Y004369D03*
X009707Y014448D03*
X001518Y014409D03*
D18*
X010455Y013779D03*
X010455Y013306D03*
X010455Y012795D03*
D19*
X010455Y012165D03*
X010455Y011181D03*
X010455Y010196D03*
X010455Y009212D03*
X010455Y008228D03*
X010455Y007244D03*
X010455Y006259D03*
X010455Y005275D03*
D20*
X032101Y014976D03*
D21*
X034701Y014976D03*
X029501Y014976D03*
D22*
X005351Y014976D03*
X003851Y014976D03*
X003851Y016976D03*
X005351Y016976D03*
D23*
X009166Y001601D03*
X020601Y001601D03*
X032101Y001601D03*
D24*
X033479Y001601D03*
X034857Y001601D03*
X036235Y001601D03*
X030246Y001601D03*
X028869Y001601D03*
X027491Y001601D03*
X026113Y001601D03*
X024735Y001601D03*
X023357Y001601D03*
X021979Y001601D03*
X018811Y001601D03*
X017433Y001601D03*
X016055Y001601D03*
X014677Y001601D03*
X013299Y001601D03*
X011921Y001601D03*
X010544Y001601D03*
D25*
X020476Y015226D03*
X021476Y015226D03*
X022476Y015226D03*
X022476Y016226D03*
X021476Y016226D03*
X020476Y016226D03*
D26*
X030290Y009976D03*
X030290Y009476D03*
X030290Y008976D03*
X030290Y008476D03*
X030290Y007976D03*
X030290Y007476D03*
X030290Y006976D03*
X030290Y006476D03*
X033912Y006476D03*
X033912Y006976D03*
X033912Y007476D03*
X033912Y007976D03*
X033912Y008476D03*
X033912Y008976D03*
X033912Y009476D03*
X033912Y009976D03*
D27*
X027630Y015001D03*
X024166Y015001D03*
X024166Y016773D03*
X027630Y016773D03*
D28*
X038614Y011976D03*
D29*
X036251Y011976D03*
D30*
X003601Y001351D02*
X003153Y001799D01*
X003153Y002537D01*
X008884Y008268D01*
X009388Y008268D01*
X009388Y011020D01*
X009548Y011181D01*
X010455Y011181D01*
X009548Y011181D02*
X008171Y012557D01*
X008171Y014490D01*
X003851Y014490D01*
X003851Y014556D01*
X003851Y014976D01*
X003851Y016556D01*
X003851Y016976D01*
X005351Y016976D02*
X005351Y016556D01*
X005556Y016351D01*
X005556Y015601D01*
X005351Y015396D01*
X005351Y014976D01*
X003851Y014490D02*
X002270Y014490D01*
X002189Y014409D01*
X001518Y014409D01*
X005556Y015601D02*
X007226Y015601D01*
X007726Y015101D01*
X008171Y014490D02*
X008171Y015796D01*
X007656Y015796D01*
X006726Y016726D01*
X007726Y016726D02*
X008299Y017299D01*
X011269Y017299D01*
X011600Y016969D01*
X011600Y016613D01*
X011226Y016613D02*
X011226Y016256D01*
X012215Y016256D01*
X012621Y015851D01*
X013141Y015851D01*
X012621Y015851D02*
X012621Y014351D01*
X013141Y014351D01*
X014105Y014915D02*
X015041Y015851D01*
X015561Y015851D01*
X015561Y016351D02*
X015041Y016351D01*
X014996Y016306D01*
X014750Y016306D01*
X015561Y016851D02*
X013141Y016851D01*
X012621Y016851D01*
X012621Y016662D01*
X012215Y016256D01*
X011600Y015945D02*
X009320Y015945D01*
X009226Y015851D01*
X008775Y016039D02*
X009056Y016320D01*
X010559Y016320D01*
X010623Y016256D01*
X010852Y016256D01*
X010852Y016613D01*
X011226Y016613D02*
X011226Y016969D01*
X009344Y016969D01*
X009226Y016851D01*
X008171Y015796D01*
X008775Y016039D02*
X008775Y012644D01*
X009638Y011781D01*
X013101Y011781D01*
X013101Y011101D01*
X013646Y010790D02*
X013646Y011525D01*
X014622Y012501D01*
X015441Y012501D01*
X015636Y012696D01*
X015636Y013276D01*
X015561Y013351D01*
X015041Y013351D01*
X014775Y013085D01*
X012681Y013085D01*
X011600Y014166D01*
X011600Y015589D01*
X011600Y015945D01*
X011600Y016969D02*
X011732Y017101D01*
X019601Y017101D01*
X020476Y016226D01*
X020976Y015726D02*
X018729Y015726D01*
X018135Y015132D01*
X016299Y015132D01*
X016081Y015351D01*
X015561Y015351D01*
X015561Y014851D02*
X016081Y014851D01*
X016151Y014781D01*
X020663Y014781D01*
X020976Y015093D01*
X020976Y015362D01*
X021283Y015669D01*
X021682Y015669D01*
X021924Y015428D01*
X021924Y015046D01*
X021059Y014181D01*
X020076Y014181D01*
X019135Y013240D01*
X017307Y013240D01*
X015601Y011534D01*
X015601Y010726D01*
X014082Y009207D01*
X013326Y009207D01*
X011363Y007244D01*
X010455Y007244D01*
X011436Y006880D02*
X008130Y006880D01*
X003601Y002351D01*
X005226Y002351D02*
X005570Y002006D01*
X006352Y002006D01*
X006352Y002363D01*
X006726Y001695D02*
X005570Y001695D01*
X005226Y001351D01*
X003601Y001351D01*
X006352Y001339D02*
X006352Y000983D01*
X011303Y000983D01*
X011921Y001601D01*
X012140Y002121D02*
X012610Y001651D01*
X012610Y001549D01*
X013086Y001074D01*
X015528Y001074D01*
X016055Y001601D01*
X016575Y001081D01*
X021459Y001081D01*
X021979Y001601D01*
X018811Y001601D02*
X018291Y002121D01*
X018291Y003391D01*
X019726Y004826D01*
X019726Y005226D01*
X019800Y005701D02*
X020587Y006489D01*
X020587Y006538D01*
X021470Y007421D01*
X022101Y007421D01*
X022101Y008101D01*
X022511Y008540D02*
X022511Y007581D01*
X021948Y007018D01*
X021948Y006415D01*
X022519Y005844D01*
X027319Y005844D01*
X027576Y006101D01*
X027976Y006101D01*
X026757Y006507D02*
X026601Y006351D01*
X026757Y006507D02*
X029737Y006507D01*
X029737Y006699D01*
X030013Y006976D01*
X030290Y006976D01*
X030428Y006976D01*
X030566Y006976D01*
X030843Y007252D01*
X030843Y007476D01*
X030566Y007476D01*
X030290Y007476D01*
X030566Y007476D02*
X030843Y007752D01*
X030843Y007976D01*
X030290Y007976D01*
X030843Y007976D02*
X033359Y007976D01*
X033359Y008476D01*
X033912Y008476D01*
X033912Y008976D02*
X034465Y008976D01*
X034631Y009142D01*
X034631Y010513D01*
X030168Y014976D01*
X029501Y014976D01*
X031201Y014976D02*
X032101Y014976D01*
X033001Y014976D01*
X033901Y014076D01*
X036187Y014076D01*
X037664Y012599D01*
X037664Y011976D01*
X038614Y011976D01*
X034465Y010161D02*
X032025Y012601D01*
X029226Y012601D01*
X027976Y011501D02*
X027276Y012201D01*
X027226Y012201D01*
X027226Y012401D01*
X027226Y012601D01*
X027226Y012401D02*
X026826Y012401D01*
X026626Y012601D01*
X026226Y012601D01*
X025639Y012615D02*
X029278Y008976D01*
X030290Y008976D01*
X031014Y008738D02*
X026310Y008738D01*
X026266Y008781D01*
X026101Y008781D01*
X026101Y008101D01*
X025101Y008101D02*
X025101Y007421D01*
X026628Y007421D01*
X027445Y008238D01*
X032121Y008238D01*
X033359Y009476D01*
X033675Y009476D01*
X033912Y009476D01*
X034465Y009476D01*
X034465Y010161D01*
X033912Y009976D02*
X032252Y009976D01*
X031014Y008738D01*
X030290Y009476D02*
X029737Y009476D01*
X029737Y009740D01*
X028376Y011101D01*
X027976Y011101D01*
X027976Y011501D01*
X025639Y012615D02*
X024805Y011781D01*
X023101Y011781D01*
X023101Y011101D01*
X021976Y012601D02*
X021156Y011781D01*
X017101Y011781D01*
X017101Y011101D01*
X016101Y011101D02*
X016101Y011781D01*
X017366Y013046D01*
X020918Y013046D01*
X022874Y015001D01*
X024166Y015001D01*
X024602Y015329D02*
X024602Y014668D01*
X023005Y013070D01*
X022976Y013070D01*
X022976Y012601D01*
X022976Y013070D02*
X021320Y013070D01*
X020851Y012601D01*
X020851Y013601D02*
X020351Y013601D01*
X020851Y013601D02*
X022476Y015226D01*
X021476Y015226D02*
X020601Y014351D01*
X015561Y014351D01*
X015561Y013851D02*
X016081Y013851D01*
X016081Y012893D01*
X015370Y012183D01*
X015335Y012183D01*
X014645Y011493D01*
X014645Y010798D01*
X012700Y008853D01*
X009621Y008853D01*
X009548Y008926D01*
X009548Y010196D01*
X010455Y010196D01*
X010455Y009212D02*
X012068Y009212D01*
X013646Y010790D01*
X012019Y012821D02*
X011363Y012165D01*
X010455Y012165D01*
X012019Y012821D02*
X015308Y012821D01*
X020976Y015726D02*
X021476Y016226D01*
X022476Y016226D02*
X023706Y016226D01*
X023858Y016377D01*
X024166Y016377D01*
X024166Y016773D01*
X024601Y016773D01*
X024781Y016953D01*
X027016Y016953D01*
X027195Y016773D01*
X027630Y016773D01*
X029404Y016773D01*
X031201Y014976D01*
X027630Y015001D02*
X027630Y014606D01*
X025639Y012615D01*
X024602Y015329D02*
X023706Y016226D01*
X022323Y008954D02*
X013954Y008954D01*
X013101Y008101D01*
X011977Y007421D02*
X011436Y006880D01*
X012101Y006601D02*
X012251Y006601D01*
X012911Y007261D01*
X020941Y007261D01*
X021101Y007421D01*
X021101Y008101D01*
X022270Y008781D02*
X022511Y008540D01*
X022671Y008606D02*
X022323Y008954D01*
X022270Y008781D02*
X018101Y008781D01*
X018101Y008235D01*
X018101Y008101D01*
X018101Y008235D02*
X017287Y007421D01*
X011977Y007421D01*
X012852Y006201D02*
X013496Y006845D01*
X012852Y006201D02*
X011421Y006201D01*
X011363Y006259D01*
X010455Y006259D01*
X010455Y008228D02*
X009588Y008228D01*
X009548Y008268D01*
X009388Y008268D01*
X013219Y004369D02*
X015451Y006601D01*
X016101Y006601D01*
X017226Y006601D01*
X015940Y006201D02*
X012120Y002381D01*
X008938Y002381D01*
X007896Y001339D01*
X007100Y001339D01*
X006726Y001339D02*
X006726Y001695D01*
X007586Y001695D01*
X009746Y003856D01*
X009746Y004369D01*
X013219Y004369D01*
X013299Y001601D02*
X017400Y005701D01*
X019800Y005701D01*
X019846Y006201D02*
X015940Y006201D01*
X019846Y006201D02*
X020049Y006404D01*
X022351Y006601D02*
X022351Y007001D01*
X022671Y007321D01*
X022671Y008606D01*
X024351Y006601D02*
X025351Y006601D01*
X025601Y006351D01*
X029737Y006476D02*
X030290Y006476D01*
X029737Y006507D02*
X029737Y006476D01*
X033359Y007476D02*
X033359Y007976D01*
X033912Y007976D01*
X033912Y007476D02*
X033359Y007476D01*
X033912Y007476D02*
X034188Y007476D01*
X034188Y006976D01*
X033912Y006976D01*
X034021Y006808D02*
X034021Y006476D01*
X033912Y006476D01*
X034021Y006476D02*
X034021Y003815D01*
X032461Y003815D01*
X030246Y001601D01*
X034021Y003815D02*
X036235Y001601D01*
X034021Y006808D02*
X034188Y006976D01*
X034188Y007476D02*
X034465Y007476D01*
X036898Y007476D01*
X037304Y007881D01*
X018291Y002121D02*
X015197Y002121D01*
X014677Y001601D01*
X012140Y002121D02*
X011064Y002121D01*
X010544Y001601D01*
D31*
X020049Y006404D03*
X013496Y006845D03*
X015308Y012821D03*
X014105Y014915D03*
X014750Y016306D03*
M02*
