M48
INCH,TZ
T10C0.012
T11C0.032
T12C0.032
T13C0.035
T14C0.036
T15C0.040
T16C0.043
T17C0.047
T18C0.063
T19C0.073
T20C0.090
T21C0.118
T22C0.130
%
T10
X007080Y016180
X021680Y004680
X023230Y003630
X025030Y005930
X024580Y009230
X019430Y012130
X019330Y013580
X013830Y013580
X014330Y014080
X019130Y010030
X017830Y014080
X013330Y014080
X012780Y011930
X016430Y014680
X020880Y007180
X022530Y006280
X022980Y006730
X026480Y005880
X020380Y006780
X016980Y009980
X014380Y011330
X024130Y001230
X023730Y000830
X015280Y005630
X018830Y007330
X018230Y006730
X016080Y005780
X021430Y007580
X022930Y004230
X026780Y009780
X026780Y010380
X017680Y010080
X015880Y007630
X024030Y004530
X018880Y005530
X019530Y006180
X021580Y002880
X034830Y000730
X018430Y005580
X019080Y006230
X029530Y004230
X021480Y004080
X025530Y004930
X021530Y006580
X020980Y003880
X015180Y007280
X017230Y010780
X021830Y008780
X024130Y006130
X024680Y006680
X018830Y007830
X018830Y006930
X021080Y009980
X018380Y011430
X009830Y011980
X009230Y011380
X025480Y009880
X026330Y009030
X018530Y008130
X018130Y008530
X023230Y008530
X019330Y006780
X018630Y011080
X019130Y011480
X017980Y012280
X016830Y010930
X015080Y009180
X017180Y006080
X017530Y006380
X012980Y005330
X019280Y007580
X017480Y009480
X034780Y007130
X029830Y004880
X029830Y006430
X035530Y001430
X034230Y002730
X024580Y008730
X026130Y011430
X023230Y005830
X024480Y007080
X028480Y006230
X027280Y006480
X026130Y007280
X020680Y006380
X022180Y007880
X016380Y011380
X021780Y009780
X026480Y008180
X031130Y011880
X030080Y012380
X028430Y013430
X031130Y008730
X027830Y009730
X028930Y010080
X034130Y006430
X032730Y004080
X032580Y005630
X031480Y010530
X027730Y006830
X016430Y012280
X011980Y009980
X010780Y009030
X011880Y011630
X012630Y013680
X012980Y008330
X020530Y005730
X020430Y004530
X018980Y002730
X008430Y004980
X022280Y013580
X026980Y013730
X027430Y010480
X030230Y008130
X034130Y013480
X020830Y013530
X028480Y004580
X031580Y004880
X014480Y006230
X022330Y006730
X025780Y010380
X018930Y001180
X036780Y004280
X004330Y009330
X029530Y010880
X027230Y011230
X029330Y009130
X021930Y006580
X030330Y005580
X031780Y007030
X030330Y007130
X035930Y002330
X037130Y001130
X034930Y003730
X034330Y004330
X020480Y012830
X014030Y014380
X028430Y006680
X020680Y010780
T11
X038330Y014224
X038330Y013436
T12
X021980Y012030
X023880Y012030
X012480Y008830
X012480Y004830
X014480Y008830
X014480Y004830
X015480Y008830
X015480Y004830
X011630Y015980
X011630Y016980
X013480Y008830
X013480Y004830
X016480Y008830
X016480Y004830
X017480Y008830
X017480Y004830
T13
X008680Y016030
X008680Y017030
X007680Y017030
X007680Y016030
X009680Y016030
X009680Y017030
T14
X034900Y005922
X034900Y004938
X035680Y004938
X035680Y005922
T15
X006360Y015190
X003800Y015190
X006360Y016970
X003800Y016970
X005810Y001790
X003250Y001790
X005810Y003570
X003250Y003570
T16
X009603Y013897
T17
X021010Y001930
X022388Y001930
X023765Y001930
X025143Y001930
X026521Y001930
X027899Y001930
X029277Y001930
X030655Y001930
X032033Y001930
X033411Y001930
X014030Y016380
X015408Y016380
X016786Y016380
X018164Y016380
X019542Y016380
X020920Y016380
X022298Y016380
X023676Y016380
X025054Y016380
X026432Y016380
X007230Y001930
X008608Y001930
X009986Y001930
X011364Y001930
X012742Y001930
X014120Y001930
X015498Y001930
X016876Y001930
X018254Y001930
X019632Y001930
T18
X009603Y005590
T19
X030830Y015430
X036030Y015430
T20
X036750Y007800
X036750Y003060
T21
X034781Y010505
X037143Y010505
X035962Y012355
T22
X038180Y016555
X038180Y001680
X001680Y001680
X001680Y016555
M30

