G75*
%MOIN*%
%OFA0B0*%
%FSLAX24Y24*%
%IPPOS*%
%LPD*%
%AMOC8*
5,1,8,0,0,1.08239X$1,22.5*
%
%ADD10C,0.0560*%
%ADD11R,0.1095X0.1095*%
%ADD12R,0.0800X0.0800*%
%ADD13C,0.0800*%
%ADD14OC8,0.0560*%
%ADD15C,0.0640*%
%ADD16C,0.0740*%
%ADD17C,0.1700*%
%ADD18C,0.0660*%
%ADD19C,0.1300*%
%ADD20C,0.0080*%
%ADD21C,0.0320*%
%ADD22C,0.0160*%
%ADD23OC8,0.0320*%
D10*
X020250Y012055D03*
X022150Y012055D03*
D11*
X030455Y015430D03*
X035655Y015430D03*
D12*
X013555Y016430D03*
X018254Y001930D03*
X029277Y001930D03*
X007230Y001930D03*
D13*
X008608Y001930D03*
X009986Y001930D03*
X011364Y001930D03*
X012742Y001930D03*
X014120Y001930D03*
X015498Y001930D03*
X016876Y001930D03*
X019632Y001930D03*
X021010Y001930D03*
X022387Y001930D03*
X023765Y001930D03*
X025143Y001930D03*
X026521Y001930D03*
X027899Y001930D03*
X030655Y001930D03*
X032033Y001930D03*
X033411Y001930D03*
X023201Y016430D03*
X021823Y016430D03*
X020445Y016430D03*
X019067Y016430D03*
X017689Y016430D03*
X016311Y016430D03*
X014933Y016430D03*
D14*
X025055Y016180D03*
X025055Y015180D03*
X025055Y014180D03*
X025055Y013180D03*
X025055Y012180D03*
X029055Y012180D03*
X029055Y013180D03*
X029055Y014180D03*
X029055Y015180D03*
X029055Y016180D03*
X029055Y017180D03*
X025055Y017180D03*
D15*
X010180Y017055D03*
X009180Y017055D03*
X008180Y017055D03*
X008180Y016055D03*
X009180Y016055D03*
X010180Y016055D03*
D16*
X005835Y015290D03*
X003275Y015290D03*
X003275Y017070D03*
X005835Y017070D03*
X016555Y012680D03*
X016555Y011680D03*
X005835Y003570D03*
X003275Y003570D03*
X003275Y001790D03*
X005835Y001790D03*
D17*
X034781Y010505D03*
X037143Y010505D03*
X035962Y012355D03*
D18*
X035680Y005922D03*
X034900Y005922D03*
X034900Y004938D03*
X035680Y004938D03*
D19*
X036750Y003060D03*
X036750Y007800D03*
D20*
X035950Y009910D02*
X033970Y007930D01*
X033970Y001750D01*
X033130Y000910D01*
X032590Y001750D02*
X031450Y000610D01*
X018550Y000610D01*
X017410Y001750D01*
X017410Y002170D01*
X016870Y002710D01*
X016690Y002710D01*
X016390Y002710D01*
X015490Y003610D01*
X013810Y003610D01*
X013030Y003250D02*
X013030Y002590D01*
X012730Y002290D01*
X012730Y001930D01*
X012742Y001930D01*
X012190Y001990D02*
X012190Y002290D01*
X012490Y002590D01*
X012490Y003670D01*
X015190Y006370D01*
X015730Y006370D01*
X015790Y006430D01*
X015910Y006730D02*
X014830Y006730D01*
X013750Y005650D01*
X013750Y007690D01*
X017050Y010990D01*
X017050Y012250D01*
X018250Y013450D01*
X018850Y013450D01*
X019570Y014170D01*
X021430Y014170D01*
X021190Y014350D02*
X021490Y014650D01*
X021610Y014650D01*
X021190Y014350D02*
X019330Y014350D01*
X017170Y014350D01*
X007270Y004450D01*
X006850Y003610D02*
X005890Y003610D01*
X005835Y003570D01*
X006850Y003610D02*
X013330Y010090D01*
X015670Y010090D01*
X016270Y009790D02*
X017530Y011050D01*
X017530Y011290D01*
X017520Y011280D01*
X017530Y011290D02*
X018670Y012430D01*
X018790Y012010D02*
X019750Y011050D01*
X020050Y011050D01*
X020290Y010810D01*
X020290Y010330D01*
X019750Y009790D01*
X019750Y009550D01*
X020290Y009550D02*
X020650Y009910D01*
X020650Y010750D01*
X019990Y010690D02*
X019810Y010870D01*
X018730Y010870D01*
X018430Y010570D02*
X017830Y011170D01*
X019330Y010570D02*
X017230Y008470D01*
X017050Y008470D01*
X016270Y008050D02*
X016270Y009790D01*
X015910Y009430D02*
X015130Y008650D01*
X014350Y008530D02*
X014350Y008950D01*
X014350Y008530D02*
X008650Y002830D01*
X008650Y001930D01*
X008608Y001930D01*
X009986Y001930D02*
X010030Y001930D01*
X013750Y005650D01*
X015310Y006070D02*
X017830Y006070D01*
X018790Y007030D01*
X018790Y007570D01*
X019390Y008170D01*
X018790Y008050D02*
X018195Y007455D01*
X018195Y007445D01*
X018195Y006675D01*
X017890Y006370D01*
X016990Y006370D01*
X016030Y007330D01*
X015130Y007330D01*
X014470Y007990D01*
X015310Y007630D02*
X015970Y007630D01*
X016630Y006970D01*
X017170Y006970D01*
X017350Y007150D01*
X017350Y007990D01*
X018070Y008710D01*
X018550Y008890D02*
X018550Y008230D01*
X017770Y007450D01*
X017770Y006670D01*
X018430Y006070D02*
X018430Y005410D01*
X017770Y004750D01*
X017890Y004210D02*
X016990Y005110D01*
X016990Y005470D01*
X016690Y005770D01*
X016570Y005890D01*
X015670Y005890D01*
X013030Y003250D01*
X012190Y001990D02*
X011530Y001330D01*
X006850Y001330D01*
X006670Y001510D01*
X006670Y001690D01*
X005290Y003070D01*
X005290Y004810D01*
X011830Y011350D01*
X012250Y011350D01*
X016870Y015970D01*
X016870Y016390D01*
X018010Y017530D01*
X022870Y017530D01*
X024190Y016210D01*
X025030Y016210D01*
X025055Y016180D01*
X025930Y015730D02*
X029050Y012610D01*
X034090Y012610D01*
X035770Y010930D01*
X035770Y009970D01*
X030850Y005050D01*
X030310Y005170D02*
X033370Y002110D01*
X033370Y001930D01*
X033411Y001930D01*
X032590Y001750D02*
X032590Y002110D01*
X028990Y005710D01*
X028990Y006790D01*
X029110Y007090D02*
X028870Y007090D01*
X028570Y006790D01*
X024130Y006790D01*
X023650Y007270D01*
X023230Y007090D02*
X023230Y005950D01*
X024010Y005170D01*
X023710Y005110D02*
X023710Y004870D01*
X022150Y003310D01*
X021910Y003310D01*
X021670Y003490D02*
X021610Y003430D01*
X021610Y003190D01*
X021790Y003010D01*
X024910Y003010D01*
X027670Y005770D01*
X028690Y005770D01*
X031990Y002470D01*
X031990Y001930D01*
X032033Y001930D01*
X031210Y001690D02*
X030430Y000910D01*
X021250Y000910D01*
X020230Y001930D01*
X020230Y003610D01*
X019930Y003310D02*
X019930Y005170D01*
X019810Y005290D01*
X019810Y005890D01*
X020230Y005890D02*
X020230Y005290D01*
X021670Y003850D01*
X021670Y003490D01*
X021670Y003850D02*
X022390Y003850D01*
X023410Y004870D01*
X023410Y004990D01*
X023710Y005110D02*
X022930Y005890D01*
X022930Y007210D01*
X023590Y007870D01*
X023590Y011710D01*
X023890Y011830D02*
X022750Y012970D01*
X019090Y012970D01*
X018370Y013150D02*
X020470Y011050D01*
X020770Y011050D01*
X021370Y010450D01*
X021370Y009850D01*
X021370Y008890D01*
X022210Y008050D01*
X022210Y007450D01*
X022090Y007330D01*
X021670Y006910D01*
X021310Y006910D01*
X021115Y006310D02*
X022090Y006910D01*
X022690Y007210D02*
X022690Y005410D01*
X022090Y004810D01*
X021790Y004320D02*
X021790Y004150D01*
X021790Y004320D02*
X020350Y006010D01*
X020350Y007390D01*
X020710Y007450D02*
X020230Y007930D01*
X021910Y007930D01*
X022690Y007210D02*
X023110Y007630D01*
X023110Y010210D01*
X022150Y009790D02*
X022150Y012055D01*
X023890Y011830D02*
X023890Y009190D01*
X025330Y007750D01*
X026230Y007750D01*
X025210Y008290D02*
X025210Y009190D01*
X024550Y009850D01*
X024550Y012550D01*
X024250Y012850D01*
X025055Y012180D02*
X025090Y012130D01*
X025090Y009970D01*
X027850Y007210D01*
X027610Y007030D02*
X027579Y007029D01*
X029110Y007090D02*
X030070Y006130D01*
X029830Y005890D01*
X029530Y005890D01*
X030070Y006130D02*
X034390Y010450D01*
X034750Y010450D01*
X034781Y010505D01*
X035950Y010990D02*
X035950Y009910D01*
X035950Y010990D02*
X032230Y014710D01*
X027550Y014710D01*
X025090Y017170D01*
X025055Y017180D01*
X025930Y015730D02*
X020950Y015730D01*
X021190Y016390D02*
X019450Y014650D01*
X017050Y014650D01*
X014350Y011950D01*
X013270Y011890D02*
X011950Y010570D01*
X011950Y011050D02*
X010450Y009550D01*
X010450Y008050D01*
X010930Y007090D02*
X011830Y007990D01*
X015910Y006730D02*
X016210Y006430D01*
X016390Y006430D01*
X017050Y007270D02*
X016270Y008050D01*
X018550Y009310D02*
X018850Y009310D01*
X020230Y007930D01*
X019390Y007510D02*
X019390Y006730D01*
X020230Y005890D01*
X019690Y005110D02*
X019390Y005410D01*
X019090Y005290D02*
X019390Y004990D01*
X019690Y005110D02*
X019690Y003490D01*
X018910Y002710D01*
X018790Y002170D02*
X018790Y001630D01*
X019510Y000910D01*
X019090Y000910D02*
X018310Y001690D01*
X018310Y001930D01*
X018254Y001930D01*
X018790Y002170D02*
X019930Y003310D01*
X015790Y002770D02*
X015790Y002170D01*
X015550Y001930D01*
X015498Y001930D01*
X019090Y005290D02*
X019090Y007210D01*
X020710Y007450D02*
X020710Y006610D01*
X021790Y006250D02*
X022330Y006250D01*
X022390Y006190D01*
X024250Y007090D02*
X025210Y007090D01*
X028090Y008410D02*
X030010Y008410D01*
X031630Y010030D01*
X031810Y010030D01*
X031930Y009070D02*
X031090Y009070D01*
X031690Y008710D02*
X030310Y007330D01*
X030310Y005950D02*
X030310Y005170D01*
X029170Y004990D02*
X031210Y002950D01*
X031210Y001690D01*
X030655Y001930D02*
X030610Y001930D01*
X029590Y002950D01*
X026230Y002950D01*
X026830Y003970D02*
X025150Y002290D01*
X025150Y001930D01*
X025143Y001930D01*
X029277Y001930D02*
X029290Y001930D01*
X030010Y001210D01*
X034270Y002650D02*
X035530Y001390D01*
X029770Y003970D02*
X026830Y003970D01*
X027190Y004330D01*
X027190Y004570D01*
X029050Y004990D02*
X029170Y004990D01*
X031990Y009010D02*
X031930Y009070D01*
X026770Y010270D02*
X026770Y010930D01*
X032470Y012910D02*
X033010Y013450D01*
X033790Y013810D02*
X034210Y013390D01*
X021823Y016430D02*
X021790Y016390D01*
X021190Y016390D01*
X021730Y017230D02*
X020110Y017230D01*
X019330Y016450D01*
X019090Y016450D01*
X019067Y016430D01*
X016311Y016430D02*
X016270Y016390D01*
X015190Y015310D01*
X013570Y015310D01*
X010270Y015310D01*
X009550Y016030D01*
X009190Y016030D01*
X009180Y016055D01*
X010180Y016055D02*
X010210Y016090D01*
X010930Y016810D01*
X012970Y015610D02*
X014050Y015610D01*
X014890Y016450D01*
X014933Y016430D01*
X019870Y013750D02*
X020290Y013330D01*
X015805Y011180D02*
X014620Y011180D01*
X014005Y010565D01*
X002830Y016810D02*
X002812Y016803D01*
D21*
X010930Y016810D03*
X012970Y015610D03*
X013570Y015310D03*
X018370Y013150D03*
X019090Y012970D03*
X018670Y012430D03*
X018790Y012010D03*
X017830Y011170D03*
X018730Y010870D03*
X018430Y010570D03*
X019330Y010570D03*
X019990Y010690D03*
X020650Y010750D03*
X021370Y009850D03*
X022150Y009790D03*
X023110Y010210D03*
X020290Y009550D03*
X019750Y009550D03*
X018550Y009310D03*
X018550Y008890D03*
X018070Y008710D03*
X018790Y008050D03*
X019390Y008170D03*
X019390Y007510D03*
X019090Y007210D03*
X018195Y007445D03*
X017050Y007270D03*
X017770Y006670D03*
X018430Y006070D03*
X019810Y005890D03*
X019390Y005410D03*
X019390Y004990D03*
X017770Y004750D03*
X017890Y004210D03*
X020230Y003610D03*
X021790Y004150D03*
X022090Y004810D03*
X023410Y004990D03*
X024010Y005170D03*
X022390Y006190D03*
X021790Y006250D03*
X021115Y006310D03*
X020710Y006610D03*
X021310Y006910D03*
X022090Y006910D03*
X022090Y007330D03*
X021910Y007930D03*
X020350Y007390D03*
X023230Y007090D03*
X023650Y007270D03*
X024250Y007090D03*
X025210Y007090D03*
X026230Y007750D03*
X025210Y008290D03*
X027850Y007210D03*
X028990Y006790D03*
X030310Y007330D03*
X028090Y008410D03*
X031090Y009070D03*
X031690Y008710D03*
X031990Y009010D03*
X031810Y010030D03*
X026770Y010270D03*
X026770Y010930D03*
X023590Y011710D03*
X024250Y012850D03*
X021430Y014170D03*
X021610Y014650D03*
X019870Y013750D03*
X020290Y013330D03*
X019330Y014350D03*
X020950Y015730D03*
X021730Y017230D03*
X032470Y012910D03*
X033010Y013450D03*
X033790Y013810D03*
X034210Y013390D03*
X030310Y005950D03*
X029530Y005890D03*
X028690Y005770D03*
X029050Y004990D03*
X030850Y005050D03*
X029770Y003970D03*
X027190Y004570D03*
X026230Y002950D03*
X030010Y001210D03*
X033130Y000910D03*
X035530Y001390D03*
X034270Y002650D03*
X021910Y003310D03*
X018910Y002710D03*
X016690Y002710D03*
X015790Y002770D03*
X013810Y003610D03*
X012490Y002590D03*
X007270Y004450D03*
X010930Y007090D03*
X011830Y007990D03*
X010450Y008050D03*
X014350Y008950D03*
X015130Y008650D03*
X014470Y007990D03*
X015310Y007630D03*
X017050Y008470D03*
X015910Y009430D03*
X015670Y010090D03*
X011950Y010570D03*
X011950Y011050D03*
X013270Y011890D03*
X014350Y011950D03*
X015790Y006430D03*
X015310Y006070D03*
X016390Y006430D03*
X016690Y005770D03*
X019090Y000910D03*
X019510Y000910D03*
D22*
X001128Y000713D02*
X000890Y000886D01*
X000717Y001124D01*
X000626Y001404D01*
X000614Y001551D01*
X000614Y016654D01*
X000626Y016805D01*
X000719Y017093D01*
X000897Y017337D01*
X001142Y017515D01*
X001429Y017608D01*
X001580Y017620D01*
X017817Y017620D01*
X016832Y016635D01*
X016786Y016747D01*
X016628Y016905D01*
X016422Y016990D01*
X016200Y016990D01*
X015994Y016905D01*
X015836Y016747D01*
X015751Y016541D01*
X015751Y016319D01*
X015799Y016202D01*
X015107Y015510D01*
X014233Y015510D01*
X014660Y015937D01*
X014822Y015870D01*
X015044Y015870D01*
X015250Y015955D01*
X015408Y016113D01*
X015493Y016319D01*
X015493Y016541D01*
X015408Y016747D01*
X015250Y016905D01*
X015044Y016990D01*
X014822Y016990D01*
X014616Y016905D01*
X014458Y016747D01*
X014373Y016541D01*
X014373Y016319D01*
X014403Y016246D01*
X013967Y015810D01*
X013223Y015810D01*
X013163Y015870D01*
X014021Y015870D01*
X014115Y015964D01*
X014115Y016896D01*
X014021Y016990D01*
X013089Y016990D01*
X012995Y016896D01*
X012995Y015964D01*
X013029Y015930D01*
X012906Y015930D01*
X012789Y015881D01*
X012699Y015791D01*
X012650Y015674D01*
X012650Y015546D01*
X012665Y015510D01*
X010353Y015510D01*
X010284Y015579D01*
X010452Y015648D01*
X010587Y015783D01*
X010660Y015960D01*
X010660Y016150D01*
X010629Y016226D01*
X010893Y016490D01*
X010994Y016490D01*
X011111Y016539D01*
X011201Y016629D01*
X011250Y016746D01*
X011250Y016874D01*
X011201Y016991D01*
X011111Y017081D01*
X010994Y017130D01*
X010866Y017130D01*
X010749Y017081D01*
X010679Y017012D01*
X010680Y017016D01*
X010680Y017046D01*
X010189Y017046D01*
X010189Y017064D01*
X010171Y017064D01*
X010171Y017555D01*
X010141Y017555D01*
X010063Y017543D01*
X009988Y017518D01*
X009918Y017483D01*
X009854Y017436D01*
X009799Y017381D01*
X009752Y017317D01*
X009717Y017247D01*
X009692Y017172D01*
X009680Y017094D01*
X009680Y017064D01*
X010171Y017064D01*
X010171Y017046D01*
X010189Y017046D01*
X010189Y016555D01*
X010219Y016555D01*
X010297Y016567D01*
X010372Y016592D01*
X010442Y016627D01*
X010506Y016674D01*
X010561Y016729D01*
X010608Y016793D01*
X010610Y016798D01*
X010610Y016773D01*
X010344Y016507D01*
X010275Y016535D01*
X010085Y016535D01*
X009908Y016462D01*
X009773Y016327D01*
X009704Y016159D01*
X009633Y016230D01*
X009627Y016230D01*
X009587Y016327D01*
X009452Y016462D01*
X009275Y016535D01*
X009085Y016535D01*
X008908Y016462D01*
X008773Y016327D01*
X008700Y016150D01*
X008700Y015960D01*
X008773Y015783D01*
X008908Y015648D01*
X009085Y015575D01*
X009275Y015575D01*
X009452Y015648D01*
X009550Y015747D01*
X010070Y015227D01*
X010187Y015110D01*
X013317Y015110D01*
X013389Y015039D01*
X013506Y014990D01*
X013634Y014990D01*
X013751Y015039D01*
X013823Y015110D01*
X015273Y015110D01*
X016082Y015919D01*
X016200Y015870D01*
X016422Y015870D01*
X016533Y015916D01*
X012167Y011550D01*
X011747Y011550D01*
X005207Y005010D01*
X005090Y004893D01*
X005090Y002987D01*
X005745Y002333D01*
X005706Y002326D01*
X005624Y002300D01*
X005547Y002260D01*
X005477Y002210D01*
X005415Y002148D01*
X005365Y002078D01*
X005325Y002001D01*
X005299Y001919D01*
X005285Y001833D01*
X005285Y001810D01*
X005815Y001810D01*
X005815Y001770D01*
X005855Y001770D01*
X005855Y001240D01*
X005878Y001240D01*
X005964Y001254D01*
X006046Y001280D01*
X006123Y001320D01*
X006193Y001370D01*
X006255Y001432D01*
X006305Y001502D01*
X006345Y001579D01*
X006371Y001661D01*
X006378Y001700D01*
X006470Y001607D01*
X006470Y001427D01*
X006650Y001247D01*
X006767Y001130D01*
X011613Y001130D01*
X012217Y001734D01*
X012267Y001613D01*
X012425Y001455D01*
X012630Y001370D01*
X012853Y001370D01*
X013059Y001455D01*
X013217Y001613D01*
X013302Y001819D01*
X013302Y002041D01*
X013217Y002247D01*
X013093Y002370D01*
X013230Y002507D01*
X013230Y003167D01*
X013525Y003462D01*
X013539Y003429D01*
X013629Y003339D01*
X013746Y003290D01*
X013874Y003290D01*
X013991Y003339D01*
X014063Y003410D01*
X015407Y003410D01*
X015727Y003090D01*
X015726Y003090D01*
X015609Y003041D01*
X015519Y002951D01*
X015470Y002834D01*
X015470Y002706D01*
X015519Y002589D01*
X015590Y002517D01*
X015590Y002490D01*
X015386Y002490D01*
X015181Y002405D01*
X015023Y002247D01*
X014938Y002041D01*
X014938Y001819D01*
X015023Y001613D01*
X015181Y001455D01*
X015386Y001370D01*
X015609Y001370D01*
X015815Y001455D01*
X015972Y001613D01*
X016058Y001819D01*
X016058Y002041D01*
X015990Y002205D01*
X015990Y002517D01*
X016061Y002589D01*
X016110Y002706D01*
X016110Y002707D01*
X016307Y002510D01*
X016437Y002510D01*
X016509Y002439D01*
X016575Y002411D01*
X016558Y002405D01*
X016401Y002247D01*
X016316Y002041D01*
X016316Y001819D01*
X016401Y001613D01*
X016558Y001455D01*
X016764Y001370D01*
X016987Y001370D01*
X017193Y001455D01*
X017307Y001570D01*
X018267Y000610D01*
X001555Y000610D01*
X001408Y000622D01*
X001128Y000713D01*
X001080Y000747D02*
X018130Y000747D01*
X017972Y000906D02*
X002031Y000906D01*
X002161Y000959D02*
X001849Y000830D01*
X001630Y000830D01*
X001511Y000830D01*
X001199Y000959D01*
X001199Y000959D01*
X001199Y000959D01*
X000959Y001199D01*
X000959Y001199D01*
X000830Y001511D01*
X000830Y001849D01*
X000959Y002161D01*
X001199Y002401D01*
X001199Y002401D01*
X001511Y002530D01*
X001849Y002530D01*
X002161Y002401D01*
X002161Y002401D01*
X002401Y002161D01*
X002401Y002161D01*
X002530Y001849D01*
X002530Y001511D01*
X002401Y001199D01*
X002401Y001199D01*
X002161Y000959D01*
X002161Y000959D01*
X002266Y001064D02*
X017813Y001064D01*
X017655Y001223D02*
X011705Y001223D01*
X011864Y001381D02*
X012604Y001381D01*
X012880Y001381D02*
X013982Y001381D01*
X014008Y001370D02*
X014231Y001370D01*
X014437Y001455D01*
X014595Y001613D01*
X014680Y001819D01*
X014680Y002041D01*
X014595Y002247D01*
X014437Y002405D01*
X014231Y002490D01*
X014008Y002490D01*
X013803Y002405D01*
X013645Y002247D01*
X013560Y002041D01*
X013560Y001819D01*
X013645Y001613D01*
X013803Y001455D01*
X014008Y001370D01*
X014258Y001381D02*
X015360Y001381D01*
X015636Y001381D02*
X016738Y001381D01*
X017014Y001381D02*
X017496Y001381D01*
X017338Y001540D02*
X017277Y001540D01*
X017610Y001833D02*
X017694Y001749D01*
X017694Y002396D01*
X017787Y002490D01*
X018677Y002490D01*
X018639Y002529D01*
X018590Y002646D01*
X018590Y002774D01*
X018639Y002891D01*
X018729Y002981D01*
X018846Y003030D01*
X018947Y003030D01*
X019490Y003573D01*
X019490Y004685D01*
X019454Y004670D01*
X019326Y004670D01*
X019209Y004719D01*
X019119Y004809D01*
X019070Y004926D01*
X019070Y005027D01*
X019007Y005090D01*
X019007Y005090D01*
X018890Y005207D01*
X018890Y006847D01*
X018873Y006830D01*
X018433Y006390D01*
X018494Y006390D01*
X018611Y006341D01*
X018701Y006251D01*
X018750Y006134D01*
X018750Y006006D01*
X018701Y005889D01*
X018630Y005817D01*
X018630Y005327D01*
X018090Y004787D01*
X018090Y004686D01*
X018041Y004569D01*
X017988Y004516D01*
X018071Y004481D01*
X018161Y004391D01*
X018210Y004274D01*
X018210Y004146D01*
X018161Y004029D01*
X018071Y003939D01*
X017954Y003890D01*
X017826Y003890D01*
X017709Y003939D01*
X017619Y004029D01*
X017570Y004146D01*
X017570Y004247D01*
X016907Y004910D01*
X016907Y004910D01*
X016790Y005027D01*
X016790Y005387D01*
X016727Y005450D01*
X016626Y005450D01*
X016509Y005499D01*
X016419Y005589D01*
X016377Y005690D01*
X015753Y005690D01*
X013958Y003895D01*
X013991Y003881D01*
X014063Y003810D01*
X015573Y003810D01*
X015690Y003693D01*
X016455Y002928D01*
X016509Y002981D01*
X016626Y003030D01*
X016754Y003030D01*
X016871Y002981D01*
X016943Y002910D01*
X016953Y002910D01*
X017070Y002793D01*
X017070Y002793D01*
X017610Y002253D01*
X017610Y001833D01*
X017610Y001857D02*
X017694Y001857D01*
X017694Y002015D02*
X017610Y002015D01*
X017610Y002174D02*
X017694Y002174D01*
X017694Y002332D02*
X017531Y002332D01*
X017372Y002491D02*
X018677Y002491D01*
X018590Y002649D02*
X017214Y002649D01*
X017055Y002808D02*
X018604Y002808D01*
X018713Y002966D02*
X016887Y002966D01*
X016493Y002966D02*
X016417Y002966D01*
X016258Y003125D02*
X019042Y003125D01*
X019200Y003283D02*
X016100Y003283D01*
X015941Y003442D02*
X019359Y003442D01*
X019490Y003600D02*
X015783Y003600D01*
X015624Y003759D02*
X019490Y003759D01*
X019490Y003917D02*
X018019Y003917D01*
X018181Y004076D02*
X019490Y004076D01*
X019490Y004234D02*
X018210Y004234D01*
X018160Y004393D02*
X019490Y004393D01*
X019490Y004551D02*
X018024Y004551D01*
X018090Y004710D02*
X019231Y004710D01*
X019094Y004868D02*
X018171Y004868D01*
X018329Y005027D02*
X019070Y005027D01*
X018912Y005185D02*
X018488Y005185D01*
X018630Y005344D02*
X018890Y005344D01*
X018890Y005502D02*
X018630Y005502D01*
X018630Y005661D02*
X018890Y005661D01*
X018890Y005819D02*
X018632Y005819D01*
X018738Y005978D02*
X018890Y005978D01*
X018890Y006136D02*
X018749Y006136D01*
X018658Y006295D02*
X018890Y006295D01*
X018890Y006453D02*
X018496Y006453D01*
X018654Y006612D02*
X018890Y006612D01*
X018890Y006770D02*
X018813Y006770D01*
X017570Y006923D02*
X017499Y006851D01*
X017450Y006734D01*
X017450Y006606D01*
X017465Y006570D01*
X017073Y006570D01*
X016873Y006770D01*
X017253Y006770D01*
X017465Y006770D01*
X017370Y006887D02*
X017550Y007067D01*
X017550Y007907D01*
X018033Y008390D01*
X018134Y008390D01*
X018251Y008439D01*
X018341Y008529D01*
X018350Y008550D01*
X018350Y008313D01*
X017570Y007533D01*
X017570Y006923D01*
X017570Y006929D02*
X017411Y006929D01*
X017370Y006887D02*
X017253Y006770D01*
X017450Y006612D02*
X017031Y006612D01*
X016327Y006750D02*
X016326Y006750D01*
X016218Y006705D01*
X015993Y006930D01*
X014747Y006930D01*
X013950Y006133D01*
X013950Y007607D01*
X014185Y007842D01*
X014199Y007809D01*
X014289Y007719D01*
X014406Y007670D01*
X014507Y007670D01*
X014930Y007247D01*
X015047Y007130D01*
X015947Y007130D01*
X016327Y006750D01*
X016307Y006770D02*
X016153Y006770D01*
X016149Y006929D02*
X015994Y006929D01*
X015990Y007087D02*
X013950Y007087D01*
X013950Y006929D02*
X014746Y006929D01*
X014587Y006770D02*
X013950Y006770D01*
X013950Y006612D02*
X014429Y006612D01*
X014270Y006453D02*
X013950Y006453D01*
X013950Y006295D02*
X014112Y006295D01*
X013953Y006136D02*
X013950Y006136D01*
X013550Y006136D02*
X012239Y006136D01*
X012397Y006295D02*
X013550Y006295D01*
X013550Y006453D02*
X012556Y006453D01*
X012714Y006612D02*
X013550Y006612D01*
X013550Y006770D02*
X012873Y006770D01*
X013031Y006929D02*
X013550Y006929D01*
X013550Y007087D02*
X013190Y007087D01*
X013348Y007246D02*
X013550Y007246D01*
X013550Y007404D02*
X013507Y007404D01*
X013550Y007447D02*
X013550Y005733D01*
X010246Y002429D01*
X010097Y002490D01*
X009875Y002490D01*
X009669Y002405D01*
X009511Y002247D01*
X009426Y002041D01*
X009426Y001819D01*
X009511Y001613D01*
X009594Y001530D01*
X009000Y001530D01*
X009083Y001613D01*
X009168Y001819D01*
X009168Y002041D01*
X009083Y002247D01*
X008925Y002405D01*
X008850Y002436D01*
X008850Y002747D01*
X013550Y007447D01*
X013950Y007404D02*
X014773Y007404D01*
X014615Y007563D02*
X013950Y007563D01*
X014064Y007721D02*
X014286Y007721D01*
X014790Y007953D02*
X014790Y008054D01*
X014741Y008171D01*
X014651Y008261D01*
X014618Y008275D01*
X014845Y008502D01*
X014859Y008469D01*
X014949Y008379D01*
X015066Y008330D01*
X015194Y008330D01*
X015311Y008379D01*
X015401Y008469D01*
X015450Y008586D01*
X015450Y008687D01*
X015873Y009110D01*
X015974Y009110D01*
X016070Y009150D01*
X016070Y007967D01*
X016187Y007850D01*
X016730Y007307D01*
X016730Y007206D01*
X016745Y007170D01*
X016713Y007170D01*
X016170Y007713D01*
X016053Y007830D01*
X015563Y007830D01*
X015491Y007901D01*
X015374Y007950D01*
X015246Y007950D01*
X015129Y007901D01*
X015039Y007811D01*
X015007Y007736D01*
X014790Y007953D01*
X014790Y008038D02*
X016070Y008038D01*
X016070Y008197D02*
X014716Y008197D01*
X014698Y008355D02*
X015006Y008355D01*
X015254Y008355D02*
X016070Y008355D01*
X016070Y008514D02*
X015420Y008514D01*
X015450Y008672D02*
X016070Y008672D01*
X016070Y008831D02*
X015593Y008831D01*
X015752Y008989D02*
X016070Y008989D01*
X016064Y009148D02*
X016070Y009148D01*
X016470Y009148D02*
X017625Y009148D01*
X017783Y009306D02*
X016470Y009306D01*
X016470Y009465D02*
X017942Y009465D01*
X018100Y009623D02*
X016470Y009623D01*
X016470Y009707D02*
X017613Y010850D01*
X017658Y010895D01*
X017766Y010850D01*
X017867Y010850D01*
X018110Y010607D01*
X018110Y010506D01*
X018159Y010389D01*
X018249Y010299D01*
X018366Y010250D01*
X018494Y010250D01*
X018611Y010299D01*
X018701Y010389D01*
X018750Y010506D01*
X018750Y010550D01*
X018794Y010550D01*
X018911Y010599D01*
X018983Y010670D01*
X019025Y010670D01*
X019010Y010634D01*
X019010Y010533D01*
X017222Y008745D01*
X017114Y008790D01*
X016986Y008790D01*
X016869Y008741D01*
X016779Y008651D01*
X016730Y008534D01*
X016730Y008406D01*
X016779Y008289D01*
X016869Y008199D01*
X016986Y008150D01*
X017114Y008150D01*
X017231Y008199D01*
X017303Y008270D01*
X017313Y008270D01*
X017750Y008707D01*
X017750Y008673D01*
X017267Y008190D01*
X017150Y008073D01*
X017150Y007575D01*
X017114Y007590D01*
X017013Y007590D01*
X016470Y008133D01*
X016470Y009707D01*
X016544Y009782D02*
X018259Y009782D01*
X018417Y009940D02*
X016703Y009940D01*
X016861Y010099D02*
X018576Y010099D01*
X018511Y010257D02*
X018734Y010257D01*
X018712Y010416D02*
X018893Y010416D01*
X018852Y010574D02*
X019010Y010574D01*
X019293Y010250D02*
X019394Y010250D01*
X019511Y010299D01*
X019601Y010389D01*
X019650Y010506D01*
X019650Y010634D01*
X019635Y010670D01*
X019670Y010670D01*
X019670Y010626D01*
X019719Y010509D01*
X019809Y010419D01*
X019926Y010370D01*
X020047Y010370D01*
X019667Y009990D01*
X019550Y009873D01*
X019550Y009803D01*
X019479Y009731D01*
X019430Y009614D01*
X019430Y009486D01*
X019479Y009369D01*
X019569Y009279D01*
X019686Y009230D01*
X019814Y009230D01*
X019931Y009279D01*
X020020Y009367D01*
X020109Y009279D01*
X020226Y009230D01*
X020354Y009230D01*
X020471Y009279D01*
X020561Y009369D01*
X020610Y009486D01*
X020610Y009587D01*
X020850Y009827D01*
X020850Y010497D01*
X020921Y010569D01*
X020935Y010602D01*
X021170Y010367D01*
X021170Y010103D01*
X021099Y010031D01*
X021050Y009914D01*
X021050Y009786D01*
X021099Y009669D01*
X021170Y009597D01*
X021170Y008807D01*
X021762Y008215D01*
X021729Y008201D01*
X021657Y008130D01*
X020313Y008130D01*
X019050Y009393D01*
X018933Y009510D01*
X018803Y009510D01*
X018731Y009581D01*
X018656Y009613D01*
X019293Y010250D01*
X019411Y010257D02*
X019934Y010257D01*
X019816Y010416D02*
X019612Y010416D01*
X019650Y010574D02*
X019692Y010574D01*
X019776Y010099D02*
X019141Y010099D01*
X018983Y009940D02*
X019617Y009940D01*
X019529Y009782D02*
X018824Y009782D01*
X018666Y009623D02*
X019434Y009623D01*
X019439Y009465D02*
X018978Y009465D01*
X019137Y009306D02*
X019541Y009306D01*
X019295Y009148D02*
X021170Y009148D01*
X021170Y009306D02*
X020499Y009306D01*
X020601Y009465D02*
X021170Y009465D01*
X021144Y009623D02*
X020646Y009623D01*
X020804Y009782D02*
X021052Y009782D01*
X021061Y009940D02*
X020850Y009940D01*
X020850Y010099D02*
X021166Y010099D01*
X021170Y010257D02*
X020850Y010257D01*
X020850Y010416D02*
X021122Y010416D01*
X020963Y010574D02*
X020923Y010574D01*
X021370Y010733D02*
X021950Y010733D01*
X021950Y010891D02*
X021212Y010891D01*
X021053Y011050D02*
X021950Y011050D01*
X021950Y011208D02*
X020895Y011208D01*
X020853Y011250D02*
X020553Y011250D01*
X020188Y011615D01*
X020338Y011615D01*
X020499Y011682D01*
X020623Y011806D01*
X020690Y011967D01*
X020690Y012143D01*
X020623Y012304D01*
X020499Y012428D01*
X020338Y012495D01*
X020162Y012495D01*
X020001Y012428D01*
X019877Y012304D01*
X019810Y012143D01*
X019810Y011993D01*
X019153Y012650D01*
X019154Y012650D01*
X019271Y012699D01*
X019343Y012770D01*
X022667Y012770D01*
X023442Y011995D01*
X023409Y011981D01*
X023319Y011891D01*
X023270Y011774D01*
X023270Y011646D01*
X023319Y011529D01*
X023390Y011457D01*
X023390Y010370D01*
X023381Y010391D01*
X023291Y010481D01*
X023174Y010530D01*
X023046Y010530D01*
X022929Y010481D01*
X022839Y010391D01*
X022790Y010274D01*
X022790Y010146D01*
X022839Y010029D01*
X022910Y009957D01*
X022910Y007713D01*
X022607Y007410D01*
X022490Y007293D01*
X022490Y006495D01*
X022454Y006510D01*
X022326Y006510D01*
X022209Y006461D01*
X022197Y006450D01*
X022043Y006450D01*
X021971Y006521D01*
X021893Y006554D01*
X021982Y006609D01*
X022026Y006590D01*
X022154Y006590D01*
X022271Y006639D01*
X022361Y006729D01*
X022410Y006846D01*
X022410Y006974D01*
X022361Y007091D01*
X022333Y007120D01*
X022361Y007149D01*
X022410Y007266D01*
X022410Y008133D01*
X022293Y008250D01*
X021570Y008973D01*
X021570Y009597D01*
X021641Y009669D01*
X021690Y009786D01*
X021690Y009914D01*
X021641Y010031D01*
X021570Y010103D01*
X021570Y010533D01*
X021453Y010650D01*
X020853Y011250D01*
X020436Y011367D02*
X021950Y011367D01*
X021950Y011525D02*
X020278Y011525D01*
X020501Y011684D02*
X021899Y011684D01*
X021901Y011682D02*
X021950Y011662D01*
X021950Y010043D01*
X021879Y009971D01*
X021830Y009854D01*
X021830Y009726D01*
X021879Y009609D01*
X021969Y009519D01*
X022086Y009470D01*
X022214Y009470D01*
X022331Y009519D01*
X022421Y009609D01*
X022470Y009726D01*
X022470Y009854D01*
X022421Y009971D01*
X022350Y010043D01*
X022350Y011662D01*
X022399Y011682D01*
X022523Y011806D01*
X022590Y011967D01*
X022590Y012143D01*
X022523Y012304D01*
X022399Y012428D01*
X022238Y012495D01*
X022062Y012495D01*
X021901Y012428D01*
X021777Y012304D01*
X021710Y012143D01*
X021710Y011967D01*
X021777Y011806D01*
X021901Y011682D01*
X021762Y011842D02*
X020638Y011842D01*
X020690Y012001D02*
X021710Y012001D01*
X021717Y012159D02*
X020683Y012159D01*
X020610Y012318D02*
X021790Y012318D01*
X022017Y012476D02*
X020383Y012476D01*
X020117Y012476D02*
X019327Y012476D01*
X019485Y012318D02*
X019890Y012318D01*
X019817Y012159D02*
X019644Y012159D01*
X019802Y012001D02*
X019810Y012001D01*
X019168Y012635D02*
X022803Y012635D01*
X022961Y012476D02*
X022283Y012476D01*
X022510Y012318D02*
X023120Y012318D01*
X023278Y012159D02*
X022583Y012159D01*
X022590Y012001D02*
X023437Y012001D01*
X023298Y011842D02*
X022538Y011842D01*
X022401Y011684D02*
X023270Y011684D01*
X023322Y011525D02*
X022350Y011525D01*
X022350Y011367D02*
X023390Y011367D01*
X023390Y011208D02*
X022350Y011208D01*
X022350Y011050D02*
X023390Y011050D01*
X023390Y010891D02*
X022350Y010891D01*
X022350Y010733D02*
X023390Y010733D01*
X023390Y010574D02*
X022350Y010574D01*
X022350Y010416D02*
X022863Y010416D01*
X022790Y010257D02*
X022350Y010257D01*
X022350Y010099D02*
X022810Y010099D01*
X022910Y009940D02*
X022434Y009940D01*
X022470Y009782D02*
X022910Y009782D01*
X022910Y009623D02*
X022427Y009623D01*
X022910Y009465D02*
X021570Y009465D01*
X021570Y009306D02*
X022910Y009306D01*
X022910Y009148D02*
X021570Y009148D01*
X021570Y008989D02*
X022910Y008989D01*
X022910Y008831D02*
X021712Y008831D01*
X021871Y008672D02*
X022910Y008672D01*
X022910Y008514D02*
X022029Y008514D01*
X022188Y008355D02*
X022910Y008355D01*
X022910Y008197D02*
X022346Y008197D01*
X022410Y008038D02*
X022910Y008038D01*
X022910Y007880D02*
X022410Y007880D01*
X022410Y007721D02*
X022910Y007721D01*
X022760Y007563D02*
X022410Y007563D01*
X022410Y007404D02*
X022601Y007404D01*
X022490Y007246D02*
X022401Y007246D01*
X022363Y007087D02*
X022490Y007087D01*
X022490Y006929D02*
X022410Y006929D01*
X022378Y006770D02*
X022490Y006770D01*
X022490Y006612D02*
X022206Y006612D01*
X022200Y006453D02*
X022040Y006453D01*
X022043Y006050D02*
X022102Y006050D01*
X022119Y006009D01*
X022209Y005919D01*
X022326Y005870D01*
X022454Y005870D01*
X022490Y005885D01*
X022490Y005493D01*
X022127Y005130D01*
X022026Y005130D01*
X021909Y005081D01*
X021819Y004991D01*
X021770Y004874D01*
X021770Y004746D01*
X021819Y004629D01*
X021909Y004539D01*
X022026Y004490D01*
X022154Y004490D01*
X022271Y004539D01*
X022361Y004629D01*
X022410Y004746D01*
X022410Y004847D01*
X022890Y005327D01*
X022890Y005647D01*
X023262Y005275D01*
X023229Y005261D01*
X023139Y005171D01*
X023090Y005054D01*
X023090Y004926D01*
X023117Y004860D01*
X022307Y004050D01*
X022095Y004050D01*
X022110Y004086D01*
X022110Y004214D01*
X022061Y004331D01*
X021990Y004403D01*
X021937Y004456D01*
X020550Y006084D01*
X020550Y006330D01*
X020646Y006290D01*
X020774Y006290D01*
X020795Y006299D01*
X020795Y006246D01*
X020844Y006129D01*
X020934Y006039D01*
X021051Y005990D01*
X021179Y005990D01*
X021296Y006039D01*
X021386Y006129D01*
X021435Y006246D01*
X021435Y006272D01*
X021470Y006294D01*
X021470Y006186D01*
X021519Y006069D01*
X021609Y005979D01*
X021726Y005930D01*
X021854Y005930D01*
X021971Y005979D01*
X022043Y006050D01*
X021968Y005978D02*
X022150Y005978D01*
X022490Y005819D02*
X020775Y005819D01*
X020640Y005978D02*
X021612Y005978D01*
X021491Y006136D02*
X021389Y006136D01*
X020841Y006136D02*
X020550Y006136D01*
X020550Y006295D02*
X020635Y006295D01*
X020785Y006295D02*
X020795Y006295D01*
X020911Y005661D02*
X022490Y005661D01*
X022490Y005502D02*
X021046Y005502D01*
X021181Y005344D02*
X022341Y005344D01*
X022182Y005185D02*
X021316Y005185D01*
X021451Y005027D02*
X021854Y005027D01*
X021770Y004868D02*
X021586Y004868D01*
X021721Y004710D02*
X021785Y004710D01*
X021856Y004551D02*
X021896Y004551D01*
X021990Y004403D02*
X021990Y004403D01*
X022000Y004393D02*
X022650Y004393D01*
X022808Y004551D02*
X022284Y004551D01*
X022395Y004710D02*
X022967Y004710D01*
X023114Y004868D02*
X022431Y004868D01*
X022589Y005027D02*
X023090Y005027D01*
X023152Y005185D02*
X022748Y005185D01*
X022890Y005344D02*
X023194Y005344D01*
X023035Y005502D02*
X022890Y005502D01*
X023430Y006033D02*
X023973Y005490D01*
X024074Y005490D01*
X024191Y005441D01*
X024281Y005351D01*
X024330Y005234D01*
X024330Y005106D01*
X024281Y004989D01*
X024191Y004899D01*
X024074Y004850D01*
X023946Y004850D01*
X023910Y004865D01*
X023910Y004787D01*
X022350Y003227D01*
X022333Y003210D01*
X024827Y003210D01*
X027470Y005853D01*
X027587Y005970D01*
X028437Y005970D01*
X028509Y006041D01*
X028626Y006090D01*
X028754Y006090D01*
X028790Y006075D01*
X028790Y006537D01*
X028719Y006609D01*
X028705Y006642D01*
X028653Y006590D01*
X024047Y006590D01*
X023930Y006707D01*
X023687Y006950D01*
X023586Y006950D01*
X023528Y006974D01*
X023501Y006909D01*
X023430Y006837D01*
X023430Y006033D01*
X023485Y005978D02*
X028445Y005978D01*
X028790Y006136D02*
X023430Y006136D01*
X023430Y006295D02*
X028790Y006295D01*
X028790Y006453D02*
X023430Y006453D01*
X023430Y006612D02*
X024026Y006612D01*
X023867Y006770D02*
X023430Y006770D01*
X023509Y006929D02*
X023709Y006929D01*
X023970Y007250D02*
X023970Y007334D01*
X023921Y007451D01*
X023831Y007541D01*
X023714Y007590D01*
X023593Y007590D01*
X023790Y007787D01*
X023790Y009007D01*
X023807Y008990D01*
X025247Y007550D01*
X025977Y007550D01*
X026049Y007479D01*
X026166Y007430D01*
X026294Y007430D01*
X026411Y007479D01*
X026501Y007569D01*
X026550Y007686D01*
X026550Y007814D01*
X026501Y007931D01*
X026411Y008021D01*
X026294Y008070D01*
X026166Y008070D01*
X026049Y008021D01*
X025977Y007950D01*
X025413Y007950D01*
X025358Y008005D01*
X025391Y008019D01*
X025481Y008109D01*
X025530Y008226D01*
X025530Y008354D01*
X025481Y008471D01*
X025410Y008543D01*
X025410Y009273D01*
X024750Y009933D01*
X024750Y011863D01*
X024873Y011740D01*
X024890Y011740D01*
X024890Y009887D01*
X027530Y007247D01*
X027530Y007146D01*
X027579Y007029D01*
X027617Y006990D01*
X025515Y006990D01*
X025530Y007026D01*
X025530Y007154D01*
X025481Y007271D01*
X025391Y007361D01*
X025274Y007410D01*
X025146Y007410D01*
X025029Y007361D01*
X024957Y007290D01*
X024503Y007290D01*
X024431Y007361D01*
X024314Y007410D01*
X024186Y007410D01*
X024069Y007361D01*
X023979Y007271D01*
X023970Y007250D01*
X023941Y007404D02*
X024172Y007404D01*
X024328Y007404D02*
X025132Y007404D01*
X025288Y007404D02*
X027373Y007404D01*
X027530Y007246D02*
X025492Y007246D01*
X025530Y007087D02*
X027555Y007087D01*
X028083Y006990D02*
X028121Y007029D01*
X028170Y007146D01*
X028170Y007274D01*
X028121Y007391D01*
X028031Y007481D01*
X027914Y007530D01*
X027813Y007530D01*
X025290Y010053D01*
X025290Y011793D01*
X025495Y011998D01*
X025495Y012362D01*
X025237Y012620D01*
X024873Y012620D01*
X024750Y012497D01*
X024750Y012633D01*
X024570Y012813D01*
X024570Y012914D01*
X024521Y013031D01*
X024431Y013121D01*
X024314Y013170D01*
X024186Y013170D01*
X024069Y013121D01*
X023979Y013031D01*
X023930Y012914D01*
X023930Y012786D01*
X023979Y012669D01*
X024069Y012579D01*
X024186Y012530D01*
X024287Y012530D01*
X024350Y012467D01*
X024350Y009767D01*
X024467Y009650D01*
X025010Y009107D01*
X025010Y008543D01*
X024939Y008471D01*
X024925Y008438D01*
X024090Y009273D01*
X024090Y011913D01*
X022950Y013053D01*
X022833Y013170D01*
X020570Y013170D01*
X020610Y013266D01*
X020610Y013394D01*
X020561Y013511D01*
X020471Y013601D01*
X020354Y013650D01*
X020253Y013650D01*
X020190Y013713D01*
X020190Y013814D01*
X020141Y013931D01*
X020103Y013970D01*
X021177Y013970D01*
X021249Y013899D01*
X021366Y013850D01*
X021494Y013850D01*
X021611Y013899D01*
X021701Y013989D01*
X021750Y014106D01*
X021750Y014234D01*
X021705Y014343D01*
X021791Y014379D01*
X021881Y014469D01*
X021930Y014586D01*
X021930Y014714D01*
X021881Y014831D01*
X021791Y014921D01*
X021674Y014970D01*
X021546Y014970D01*
X021429Y014921D01*
X021339Y014831D01*
X021304Y014746D01*
X021290Y014733D01*
X021107Y014550D01*
X019633Y014550D01*
X019650Y014567D01*
X020665Y015582D01*
X020679Y015549D01*
X020769Y015459D01*
X020886Y015410D01*
X021014Y015410D01*
X021131Y015459D01*
X021203Y015530D01*
X024783Y015530D01*
X024615Y015362D01*
X024615Y014998D01*
X024873Y014740D01*
X025237Y014740D01*
X025495Y014998D01*
X025495Y015362D01*
X025327Y015530D01*
X025847Y015530D01*
X028801Y012576D01*
X028595Y012371D01*
X028595Y012180D01*
X029055Y012180D01*
X029515Y012180D01*
X029515Y012371D01*
X029476Y012410D01*
X034007Y012410D01*
X034902Y011515D01*
X034648Y011515D01*
X034391Y011446D01*
X034161Y011313D01*
X033972Y011125D01*
X033839Y010895D01*
X033771Y010638D01*
X033771Y010372D01*
X033825Y010168D01*
X030070Y006413D01*
X029193Y007290D01*
X028787Y007290D01*
X028670Y007173D01*
X028487Y006990D01*
X028083Y006990D01*
X028145Y007087D02*
X028584Y007087D01*
X028743Y007246D02*
X028170Y007246D01*
X028109Y007404D02*
X029994Y007404D01*
X029990Y007394D02*
X029990Y007266D01*
X030039Y007149D01*
X030129Y007059D01*
X030246Y007010D01*
X030374Y007010D01*
X030491Y007059D01*
X030581Y007149D01*
X030630Y007266D01*
X030630Y007367D01*
X031653Y008390D01*
X031754Y008390D01*
X031871Y008439D01*
X031961Y008529D01*
X032010Y008646D01*
X032010Y008690D01*
X032054Y008690D01*
X032171Y008739D01*
X032261Y008829D01*
X032310Y008946D01*
X032310Y009074D01*
X032261Y009191D01*
X032171Y009281D01*
X032054Y009330D01*
X031926Y009330D01*
X031809Y009281D01*
X031797Y009270D01*
X031343Y009270D01*
X031271Y009341D01*
X031238Y009355D01*
X031638Y009755D01*
X031746Y009710D01*
X031874Y009710D01*
X031991Y009759D01*
X032081Y009849D01*
X032130Y009966D01*
X032130Y010094D01*
X032081Y010211D01*
X031991Y010301D01*
X031874Y010350D01*
X031746Y010350D01*
X031629Y010301D01*
X031557Y010230D01*
X031547Y010230D01*
X031430Y010113D01*
X029927Y008610D01*
X028343Y008610D01*
X028271Y008681D01*
X028154Y008730D01*
X028026Y008730D01*
X027909Y008681D01*
X027819Y008591D01*
X027770Y008474D01*
X027770Y008346D01*
X027819Y008229D01*
X027909Y008139D01*
X028026Y008090D01*
X028154Y008090D01*
X028271Y008139D01*
X028343Y008210D01*
X029927Y008210D01*
X030093Y008210D01*
X030805Y008922D01*
X030819Y008889D01*
X030909Y008799D01*
X031026Y008750D01*
X031154Y008750D01*
X031271Y008799D01*
X031343Y008870D01*
X031410Y008870D01*
X031370Y008774D01*
X031370Y008673D01*
X030347Y007650D01*
X030246Y007650D01*
X030129Y007601D01*
X030039Y007511D01*
X029990Y007394D01*
X029999Y007246D02*
X029237Y007246D01*
X029396Y007087D02*
X030100Y007087D01*
X030520Y007087D02*
X030744Y007087D01*
X030621Y007246D02*
X030903Y007246D01*
X031061Y007404D02*
X030667Y007404D01*
X030825Y007563D02*
X031220Y007563D01*
X031378Y007721D02*
X030984Y007721D01*
X031142Y007880D02*
X031537Y007880D01*
X031695Y008038D02*
X031301Y008038D01*
X031459Y008197D02*
X031854Y008197D01*
X032012Y008355D02*
X031618Y008355D01*
X031946Y008514D02*
X032171Y008514D01*
X032329Y008672D02*
X032010Y008672D01*
X032262Y008831D02*
X032488Y008831D01*
X032646Y008989D02*
X032310Y008989D01*
X032279Y009148D02*
X032805Y009148D01*
X032963Y009306D02*
X032112Y009306D01*
X031868Y009306D02*
X031307Y009306D01*
X031347Y009465D02*
X033122Y009465D01*
X033280Y009623D02*
X031506Y009623D01*
X031099Y009782D02*
X025561Y009782D01*
X025403Y009940D02*
X031257Y009940D01*
X031416Y010099D02*
X027045Y010099D01*
X027041Y010089D02*
X027090Y010206D01*
X027090Y010334D01*
X027041Y010451D01*
X026970Y010523D01*
X026970Y010677D01*
X027041Y010749D01*
X027090Y010866D01*
X027090Y010994D01*
X027041Y011111D01*
X026951Y011201D01*
X026834Y011250D01*
X026706Y011250D01*
X026589Y011201D01*
X026499Y011111D01*
X026450Y010994D01*
X026450Y010866D01*
X026499Y010749D01*
X026570Y010677D01*
X026570Y010523D01*
X026499Y010451D01*
X026450Y010334D01*
X026450Y010206D01*
X026499Y010089D01*
X026589Y009999D01*
X026706Y009950D01*
X026834Y009950D01*
X026951Y009999D01*
X027041Y010089D01*
X027090Y010257D02*
X031584Y010257D01*
X032036Y010257D02*
X033801Y010257D01*
X033771Y010416D02*
X027056Y010416D01*
X026970Y010574D02*
X033771Y010574D01*
X033796Y010733D02*
X027025Y010733D01*
X027090Y010891D02*
X033838Y010891D01*
X033929Y011050D02*
X027067Y011050D01*
X026935Y011208D02*
X034055Y011208D01*
X034253Y011367D02*
X025290Y011367D01*
X025290Y011525D02*
X034892Y011525D01*
X034734Y011684D02*
X025290Y011684D01*
X025339Y011842D02*
X028742Y011842D01*
X028864Y011720D02*
X029055Y011720D01*
X029246Y011720D01*
X029515Y011989D01*
X029515Y012180D01*
X029055Y012180D01*
X029055Y012180D01*
X029055Y011720D01*
X029055Y012180D01*
X029055Y012180D01*
X029055Y012180D01*
X028595Y012180D01*
X028595Y011989D01*
X028864Y011720D01*
X029055Y011842D02*
X029055Y011842D01*
X029055Y012001D02*
X029055Y012001D01*
X029055Y012159D02*
X029055Y012159D01*
X029515Y012159D02*
X034258Y012159D01*
X034100Y012318D02*
X029515Y012318D01*
X029515Y012001D02*
X034417Y012001D01*
X034575Y011842D02*
X029368Y011842D01*
X028595Y012001D02*
X025495Y012001D01*
X025495Y012159D02*
X028595Y012159D01*
X028595Y012318D02*
X025495Y012318D01*
X025381Y012476D02*
X028700Y012476D01*
X028743Y012635D02*
X024748Y012635D01*
X024873Y012740D02*
X025237Y012740D01*
X025495Y012998D01*
X025495Y013362D01*
X025237Y013620D01*
X024873Y013620D01*
X024615Y013362D01*
X024615Y012998D01*
X024873Y012740D01*
X024820Y012793D02*
X024590Y012793D01*
X024554Y012952D02*
X024661Y012952D01*
X024615Y013110D02*
X024443Y013110D01*
X024615Y013269D02*
X020610Y013269D01*
X020596Y013427D02*
X024680Y013427D01*
X024838Y013586D02*
X020487Y013586D01*
X020190Y013744D02*
X024869Y013744D01*
X024873Y013740D02*
X025237Y013740D01*
X025495Y013998D01*
X025495Y014362D01*
X025237Y014620D01*
X024873Y014620D01*
X024615Y014362D01*
X024615Y013998D01*
X024873Y013740D01*
X024710Y013903D02*
X021615Y013903D01*
X021731Y014061D02*
X024615Y014061D01*
X024615Y014220D02*
X021750Y014220D01*
X021790Y014378D02*
X024631Y014378D01*
X024789Y014537D02*
X021909Y014537D01*
X021930Y014695D02*
X026682Y014695D01*
X026524Y014854D02*
X025351Y014854D01*
X025495Y015012D02*
X026365Y015012D01*
X026207Y015171D02*
X025495Y015171D01*
X025495Y015329D02*
X026048Y015329D01*
X025890Y015488D02*
X025370Y015488D01*
X024740Y015488D02*
X021160Y015488D01*
X020740Y015488D02*
X020570Y015488D01*
X020412Y015329D02*
X024615Y015329D01*
X024615Y015171D02*
X020253Y015171D01*
X020095Y015012D02*
X024615Y015012D01*
X024759Y014854D02*
X021859Y014854D01*
X021361Y014854D02*
X019936Y014854D01*
X019778Y014695D02*
X021252Y014695D01*
X021245Y013903D02*
X020153Y013903D01*
X019182Y014065D02*
X018767Y013650D01*
X018167Y013650D01*
X017080Y012563D01*
X017085Y012575D01*
X017085Y012785D01*
X017004Y012980D01*
X016855Y013129D01*
X016660Y013210D01*
X016450Y013210D01*
X016255Y013129D01*
X016106Y012980D01*
X016025Y012785D01*
X016025Y012575D01*
X016106Y012380D01*
X016255Y012231D01*
X016349Y012191D01*
X016344Y012190D01*
X016267Y012150D01*
X016197Y012100D01*
X016135Y012038D01*
X016085Y011968D01*
X016045Y011891D01*
X016019Y011809D01*
X016005Y011723D01*
X016005Y011680D01*
X016555Y011680D01*
X016555Y011680D01*
X016555Y011130D01*
X016598Y011130D01*
X016684Y011144D01*
X016766Y011170D01*
X016843Y011210D01*
X016850Y011214D01*
X016850Y011073D01*
X015973Y010196D01*
X015941Y010271D01*
X015851Y010361D01*
X015734Y010410D01*
X015606Y010410D01*
X015489Y010361D01*
X015417Y010290D01*
X013393Y010290D01*
X017253Y014150D01*
X019077Y014150D01*
X019149Y014079D01*
X019182Y014065D01*
X019178Y014061D02*
X017164Y014061D01*
X017005Y013903D02*
X019020Y013903D01*
X018861Y013744D02*
X016847Y013744D01*
X016688Y013586D02*
X018103Y013586D01*
X017944Y013427D02*
X016530Y013427D01*
X016371Y013269D02*
X017786Y013269D01*
X017627Y013110D02*
X016875Y013110D01*
X017016Y012952D02*
X017469Y012952D01*
X017310Y012793D02*
X017082Y012793D01*
X017085Y012635D02*
X017152Y012635D01*
X016284Y012159D02*
X015262Y012159D01*
X015420Y012318D02*
X016168Y012318D01*
X016066Y012476D02*
X015579Y012476D01*
X015737Y012635D02*
X016025Y012635D01*
X016028Y012793D02*
X015896Y012793D01*
X016054Y012952D02*
X016094Y012952D01*
X016213Y013110D02*
X016235Y013110D01*
X015544Y013427D02*
X014610Y013427D01*
X014768Y013586D02*
X015703Y013586D01*
X015861Y013744D02*
X014927Y013744D01*
X015085Y013903D02*
X016020Y013903D01*
X016178Y014061D02*
X015244Y014061D01*
X015402Y014220D02*
X016337Y014220D01*
X016495Y014378D02*
X015561Y014378D01*
X015719Y014537D02*
X016654Y014537D01*
X016812Y014695D02*
X015878Y014695D01*
X016036Y014854D02*
X019371Y014854D01*
X019367Y014850D02*
X016967Y014850D01*
X014387Y012270D01*
X014286Y012270D01*
X014169Y012221D01*
X014079Y012131D01*
X014030Y012014D01*
X014030Y011886D01*
X014079Y011769D01*
X014169Y011679D01*
X014202Y011665D01*
X010735Y008198D01*
X010721Y008231D01*
X010650Y008303D01*
X010650Y009467D01*
X011647Y010464D01*
X011679Y010389D01*
X011769Y010299D01*
X011886Y010250D01*
X012014Y010250D01*
X012131Y010299D01*
X012221Y010389D01*
X012270Y010506D01*
X012270Y010607D01*
X013233Y011570D01*
X013334Y011570D01*
X013451Y011619D01*
X013541Y011709D01*
X013590Y011826D01*
X013590Y011954D01*
X013541Y012071D01*
X013451Y012161D01*
X013376Y012193D01*
X017070Y015887D01*
X017070Y016307D01*
X017129Y016366D01*
X017129Y016319D01*
X017214Y016113D01*
X017372Y015955D01*
X017577Y015870D01*
X017800Y015870D01*
X018006Y015955D01*
X018164Y016113D01*
X018249Y016319D01*
X018249Y016541D01*
X018164Y016747D01*
X018006Y016905D01*
X017800Y016990D01*
X017753Y016990D01*
X018093Y017330D01*
X019927Y017330D01*
X019910Y017313D01*
X019443Y016846D01*
X019384Y016905D01*
X019178Y016990D01*
X018955Y016990D01*
X018750Y016905D01*
X018592Y016747D01*
X018507Y016541D01*
X018507Y016319D01*
X018592Y016113D01*
X018750Y015955D01*
X018955Y015870D01*
X019178Y015870D01*
X019384Y015955D01*
X019542Y016113D01*
X019627Y016319D01*
X019627Y016464D01*
X020193Y017030D01*
X021477Y017030D01*
X021549Y016959D01*
X021592Y016941D01*
X021506Y016905D01*
X021348Y016747D01*
X021283Y016590D01*
X021107Y016590D01*
X021005Y016488D01*
X021005Y016541D01*
X020920Y016747D01*
X020762Y016905D01*
X020556Y016990D01*
X020333Y016990D01*
X020128Y016905D01*
X019970Y016747D01*
X019885Y016541D01*
X019885Y016319D01*
X019970Y016113D01*
X020128Y015955D01*
X020333Y015870D01*
X020387Y015870D01*
X019367Y014850D01*
X019529Y015012D02*
X016195Y015012D01*
X016353Y015171D02*
X019688Y015171D01*
X019846Y015329D02*
X016512Y015329D01*
X016670Y015488D02*
X020005Y015488D01*
X020163Y015646D02*
X016829Y015646D01*
X016987Y015805D02*
X020322Y015805D01*
X020120Y015963D02*
X019392Y015963D01*
X019545Y016122D02*
X019966Y016122D01*
X019901Y016280D02*
X019611Y016280D01*
X019627Y016439D02*
X019885Y016439D01*
X019908Y016597D02*
X019760Y016597D01*
X019918Y016756D02*
X019978Y016756D01*
X020077Y016914D02*
X020150Y016914D01*
X019670Y017073D02*
X017835Y017073D01*
X017984Y016914D02*
X018772Y016914D01*
X018600Y016756D02*
X018155Y016756D01*
X018226Y016597D02*
X018530Y016597D01*
X018507Y016439D02*
X018249Y016439D01*
X018233Y016280D02*
X018523Y016280D01*
X018588Y016122D02*
X018167Y016122D01*
X018014Y015963D02*
X018742Y015963D01*
X017364Y015963D02*
X017070Y015963D01*
X017070Y016122D02*
X017210Y016122D01*
X017145Y016280D02*
X017070Y016280D01*
X016953Y016756D02*
X016777Y016756D01*
X016606Y016914D02*
X017111Y016914D01*
X017270Y017073D02*
X011120Y017073D01*
X011233Y016914D02*
X013013Y016914D01*
X012995Y016756D02*
X011250Y016756D01*
X011170Y016597D02*
X012995Y016597D01*
X012995Y016439D02*
X010841Y016439D01*
X010683Y016280D02*
X012995Y016280D01*
X012995Y016122D02*
X010660Y016122D01*
X010660Y015963D02*
X012996Y015963D01*
X012712Y015805D02*
X010596Y015805D01*
X010447Y015646D02*
X012650Y015646D01*
X013453Y015012D02*
X006311Y015012D01*
X006305Y015002D02*
X006345Y015079D01*
X006371Y015161D01*
X006385Y015247D01*
X006385Y015270D01*
X005855Y015270D01*
X005855Y015310D01*
X006385Y015310D01*
X006385Y015333D01*
X006371Y015419D01*
X006345Y015501D01*
X006305Y015578D01*
X006255Y015648D01*
X006193Y015710D01*
X006123Y015760D01*
X006046Y015800D01*
X005964Y015826D01*
X005878Y015840D01*
X005855Y015840D01*
X005855Y015310D01*
X005815Y015310D01*
X005815Y015840D01*
X005792Y015840D01*
X005706Y015826D01*
X005624Y015800D01*
X005547Y015760D01*
X005477Y015710D01*
X005415Y015648D01*
X005365Y015578D01*
X005325Y015501D01*
X005299Y015419D01*
X005285Y015333D01*
X005285Y015310D01*
X005815Y015310D01*
X005815Y015270D01*
X005855Y015270D01*
X005855Y014740D01*
X005878Y014740D01*
X005964Y014754D01*
X006046Y014780D01*
X006123Y014820D01*
X006193Y014870D01*
X006255Y014932D01*
X006305Y015002D01*
X006373Y015171D02*
X010127Y015171D01*
X009968Y015329D02*
X006385Y015329D01*
X006349Y015488D02*
X009810Y015488D01*
X009651Y015646D02*
X009447Y015646D01*
X008913Y015646D02*
X008447Y015646D01*
X008452Y015648D02*
X008587Y015783D01*
X008660Y015960D01*
X008660Y016150D01*
X008587Y016327D01*
X008452Y016462D01*
X008275Y016535D01*
X008085Y016535D01*
X007908Y016462D01*
X007773Y016327D01*
X007700Y016150D01*
X007700Y015960D01*
X007773Y015783D01*
X007908Y015648D01*
X008085Y015575D01*
X008275Y015575D01*
X008452Y015648D01*
X008596Y015805D02*
X008764Y015805D01*
X008700Y015963D02*
X008660Y015963D01*
X008660Y016122D02*
X008700Y016122D01*
X008754Y016280D02*
X008606Y016280D01*
X008475Y016439D02*
X008885Y016439D01*
X008908Y016648D02*
X009085Y016575D01*
X009275Y016575D01*
X009452Y016648D01*
X009587Y016783D01*
X009660Y016960D01*
X009660Y017150D01*
X009587Y017327D01*
X009452Y017462D01*
X009275Y017535D01*
X009085Y017535D01*
X008908Y017462D01*
X008773Y017327D01*
X008700Y017150D01*
X008700Y016960D01*
X008773Y016783D01*
X008908Y016648D01*
X009031Y016597D02*
X008329Y016597D01*
X008275Y016575D02*
X008452Y016648D01*
X008587Y016783D01*
X008660Y016960D01*
X008660Y017150D01*
X008587Y017327D01*
X008452Y017462D01*
X008275Y017535D01*
X008085Y017535D01*
X007908Y017462D01*
X007773Y017327D01*
X007700Y017150D01*
X007700Y016960D01*
X007773Y016783D01*
X007908Y016648D01*
X008085Y016575D01*
X008275Y016575D01*
X008031Y016597D02*
X006078Y016597D01*
X006135Y016621D02*
X005940Y016540D01*
X005730Y016540D01*
X005535Y016621D01*
X005386Y016770D01*
X005305Y016965D01*
X005305Y017175D01*
X005386Y017370D01*
X005535Y017519D01*
X005730Y017600D01*
X005940Y017600D01*
X006135Y017519D01*
X006284Y017370D01*
X006365Y017175D01*
X006365Y016965D01*
X006284Y016770D01*
X006135Y016621D01*
X006270Y016756D02*
X007801Y016756D01*
X007719Y016914D02*
X006344Y016914D01*
X006365Y017073D02*
X007700Y017073D01*
X007733Y017231D02*
X006342Y017231D01*
X006265Y017390D02*
X007836Y017390D01*
X008524Y017390D02*
X008836Y017390D01*
X008733Y017231D02*
X008627Y017231D01*
X008660Y017073D02*
X008700Y017073D01*
X008719Y016914D02*
X008641Y016914D01*
X008559Y016756D02*
X008801Y016756D01*
X009329Y016597D02*
X009977Y016597D01*
X009988Y016592D02*
X009918Y016627D01*
X009854Y016674D01*
X009799Y016729D01*
X009752Y016793D01*
X009717Y016863D01*
X009692Y016938D01*
X009680Y017016D01*
X009680Y017046D01*
X010171Y017046D01*
X010171Y016555D01*
X010141Y016555D01*
X010063Y016567D01*
X009988Y016592D01*
X010171Y016597D02*
X010189Y016597D01*
X010189Y016756D02*
X010171Y016756D01*
X010171Y016914D02*
X010189Y016914D01*
X010189Y017064D02*
X010680Y017064D01*
X010680Y017094D01*
X010668Y017172D01*
X010643Y017247D01*
X010608Y017317D01*
X010561Y017381D01*
X010506Y017436D01*
X010442Y017483D01*
X010372Y017518D01*
X010297Y017543D01*
X010219Y017555D01*
X010189Y017555D01*
X010189Y017064D01*
X010189Y017073D02*
X010171Y017073D01*
X010171Y017231D02*
X010189Y017231D01*
X010189Y017390D02*
X010171Y017390D01*
X010171Y017548D02*
X010189Y017548D01*
X010263Y017548D02*
X017745Y017548D01*
X017587Y017390D02*
X010553Y017390D01*
X010649Y017231D02*
X017428Y017231D01*
X017994Y017231D02*
X019828Y017231D01*
X019511Y016914D02*
X019362Y016914D01*
X020740Y016914D02*
X021528Y016914D01*
X021356Y016756D02*
X020911Y016756D01*
X020982Y016597D02*
X021286Y016597D01*
X021940Y016988D02*
X022001Y017049D01*
X022050Y017166D01*
X022050Y017294D01*
X022035Y017330D01*
X022787Y017330D01*
X023114Y017003D01*
X023065Y016996D01*
X022978Y016968D01*
X022897Y016926D01*
X022823Y016872D01*
X022758Y016808D01*
X022705Y016734D01*
X022663Y016653D01*
X022635Y016566D01*
X022621Y016476D01*
X022621Y016468D01*
X023163Y016468D01*
X023163Y016392D01*
X022621Y016392D01*
X022621Y016384D01*
X022635Y016294D01*
X022663Y016207D01*
X022705Y016126D01*
X022758Y016052D01*
X022823Y015988D01*
X022897Y015934D01*
X022904Y015930D01*
X022079Y015930D01*
X022140Y015955D01*
X022297Y016113D01*
X022383Y016319D01*
X022383Y016541D01*
X022297Y016747D01*
X022140Y016905D01*
X021940Y016988D01*
X022011Y017073D02*
X023045Y017073D01*
X022886Y017231D02*
X022050Y017231D01*
X022118Y016914D02*
X022880Y016914D01*
X022720Y016756D02*
X022289Y016756D01*
X022360Y016597D02*
X022645Y016597D01*
X022383Y016439D02*
X023163Y016439D01*
X022640Y016280D02*
X022367Y016280D01*
X022301Y016122D02*
X022708Y016122D01*
X022857Y015963D02*
X022148Y015963D01*
X023927Y016756D02*
X024857Y016756D01*
X024873Y016740D02*
X025237Y016740D01*
X027467Y014510D01*
X028734Y014510D01*
X028595Y014371D01*
X028595Y014180D01*
X029055Y014180D01*
X029515Y014180D01*
X029515Y014371D01*
X029376Y014510D01*
X032147Y014510D01*
X032904Y013753D01*
X032829Y013721D01*
X032739Y013631D01*
X032690Y013514D01*
X032690Y013413D01*
X032507Y013230D01*
X032406Y013230D01*
X032289Y013181D01*
X032199Y013091D01*
X032150Y012974D01*
X032150Y012846D01*
X032165Y012810D01*
X029336Y012810D01*
X029515Y012989D01*
X029515Y013180D01*
X029515Y013371D01*
X029246Y013640D01*
X029055Y013640D01*
X029055Y013180D01*
X029515Y013180D01*
X029055Y013180D01*
X029055Y013180D01*
X029055Y013180D01*
X029055Y013640D01*
X028864Y013640D01*
X028595Y013371D01*
X028595Y013348D01*
X026013Y015930D01*
X025427Y015930D01*
X025495Y015998D01*
X025495Y016362D01*
X025237Y016620D01*
X024873Y016620D01*
X024663Y016410D01*
X024273Y016410D01*
X023070Y017613D01*
X023063Y017620D01*
X028845Y017620D01*
X028595Y017371D01*
X028595Y017180D01*
X029055Y017180D01*
X029515Y017180D01*
X029515Y017371D01*
X029265Y017620D01*
X038132Y017620D01*
X038136Y017616D01*
X038206Y017620D01*
X038221Y017620D01*
X038366Y017616D01*
X038664Y017537D01*
X038924Y017369D01*
X039119Y017129D01*
X039230Y016840D01*
X039250Y016688D01*
X039250Y001605D01*
X039238Y001450D01*
X039142Y001153D01*
X038959Y000901D01*
X038707Y000718D01*
X038410Y000622D01*
X038255Y000610D01*
X033242Y000610D01*
X033311Y000639D01*
X033401Y000729D01*
X033450Y000846D01*
X033450Y000947D01*
X034053Y001550D01*
X034170Y001667D01*
X034170Y002345D01*
X034206Y002330D01*
X034307Y002330D01*
X035210Y001427D01*
X035210Y001326D01*
X035259Y001209D01*
X035349Y001119D01*
X035466Y001070D01*
X035594Y001070D01*
X035711Y001119D01*
X035801Y001209D01*
X035850Y001326D01*
X035850Y001454D01*
X035801Y001571D01*
X035711Y001661D01*
X035594Y001710D01*
X035493Y001710D01*
X034590Y002613D01*
X034590Y002714D01*
X034541Y002831D01*
X034451Y002921D01*
X034334Y002970D01*
X034206Y002970D01*
X034170Y002955D01*
X034170Y007847D01*
X036033Y009710D01*
X036150Y009827D01*
X036150Y010226D01*
X036152Y010219D01*
X036190Y010110D01*
X036240Y010006D01*
X036302Y009908D01*
X036374Y009818D01*
X036455Y009736D01*
X036546Y009664D01*
X036644Y009602D01*
X036748Y009552D01*
X036857Y009514D01*
X036970Y009488D01*
X037063Y009477D01*
X037063Y010425D01*
X037223Y010425D01*
X037223Y010585D01*
X038170Y010585D01*
X038160Y010678D01*
X038134Y010791D01*
X038096Y010900D01*
X038046Y011004D01*
X037984Y011102D01*
X037912Y011192D01*
X037830Y011274D01*
X037740Y011346D01*
X037642Y011408D01*
X037538Y011458D01*
X037428Y011496D01*
X037316Y011522D01*
X037223Y011533D01*
X037223Y010585D01*
X037063Y010585D01*
X037063Y011533D01*
X036970Y011522D01*
X036857Y011496D01*
X036748Y011458D01*
X036644Y011408D01*
X036546Y011346D01*
X036455Y011274D01*
X036374Y011192D01*
X036302Y011102D01*
X036240Y011004D01*
X036190Y010900D01*
X036152Y010791D01*
X036150Y010784D01*
X036150Y011073D01*
X036033Y011190D01*
X036033Y011190D01*
X035882Y011341D01*
X035882Y012275D01*
X036042Y012275D01*
X036042Y011328D01*
X036135Y011338D01*
X036247Y011364D01*
X036357Y011402D01*
X036461Y011452D01*
X036559Y011514D01*
X036649Y011586D01*
X036731Y011668D01*
X036803Y011758D01*
X036865Y011856D01*
X036915Y011961D01*
X036953Y012070D01*
X036979Y012183D01*
X036989Y012275D01*
X036042Y012275D01*
X036042Y012435D01*
X036989Y012435D01*
X036979Y012528D01*
X036953Y012641D01*
X036915Y012750D01*
X036865Y012854D01*
X036803Y012952D01*
X036731Y013043D01*
X036649Y013125D01*
X036559Y013197D01*
X036461Y013258D01*
X036357Y013308D01*
X036247Y013347D01*
X036135Y013372D01*
X036042Y013383D01*
X036042Y012435D01*
X035882Y012435D01*
X035882Y012275D01*
X034947Y012275D01*
X034153Y013070D01*
X034274Y013070D01*
X034391Y013119D01*
X034481Y013209D01*
X034530Y013326D01*
X034530Y013454D01*
X034481Y013571D01*
X034391Y013661D01*
X034274Y013710D01*
X034173Y013710D01*
X034110Y013773D01*
X034110Y013874D01*
X034061Y013991D01*
X033971Y014081D01*
X033854Y014130D01*
X033726Y014130D01*
X033609Y014081D01*
X033519Y013991D01*
X033470Y013874D01*
X033470Y013753D01*
X032430Y014793D01*
X032313Y014910D01*
X031162Y014910D01*
X031162Y016044D01*
X031069Y016137D01*
X029841Y016137D01*
X029748Y016044D01*
X029748Y014910D01*
X029436Y014910D01*
X029515Y014989D01*
X029515Y015180D01*
X029515Y015371D01*
X029246Y015640D01*
X029055Y015640D01*
X029055Y015180D01*
X029055Y015180D01*
X029515Y015180D01*
X029055Y015180D01*
X029055Y015180D01*
X029055Y015180D01*
X028595Y015180D01*
X028595Y015371D01*
X028864Y015640D01*
X029055Y015640D01*
X029055Y015180D01*
X028595Y015180D01*
X028595Y014989D01*
X028674Y014910D01*
X027633Y014910D01*
X025495Y017048D01*
X025495Y017362D01*
X025237Y017620D01*
X024873Y017620D01*
X024615Y017362D01*
X024615Y016998D01*
X024873Y016740D01*
X024850Y016597D02*
X024086Y016597D01*
X024244Y016439D02*
X024691Y016439D01*
X024699Y016914D02*
X023769Y016914D01*
X023610Y017073D02*
X024615Y017073D01*
X024615Y017231D02*
X023452Y017231D01*
X023293Y017390D02*
X024642Y017390D01*
X024801Y017548D02*
X023135Y017548D01*
X025309Y017548D02*
X028772Y017548D01*
X028614Y017390D02*
X025468Y017390D01*
X025495Y017231D02*
X028595Y017231D01*
X028595Y017180D02*
X028595Y016989D01*
X028864Y016720D01*
X029055Y016720D01*
X029246Y016720D01*
X029515Y016989D01*
X029515Y017180D01*
X029055Y017180D01*
X029055Y017180D01*
X029055Y016720D01*
X029055Y017180D01*
X029055Y017180D01*
X029055Y017180D01*
X028595Y017180D01*
X028595Y017073D02*
X025495Y017073D01*
X025629Y016914D02*
X028670Y016914D01*
X028829Y016756D02*
X025787Y016756D01*
X025946Y016597D02*
X028821Y016597D01*
X028864Y016640D02*
X028595Y016371D01*
X028595Y016180D01*
X029055Y016180D01*
X029515Y016180D01*
X029515Y016371D01*
X029246Y016640D01*
X029055Y016640D01*
X029055Y016180D01*
X029055Y016180D01*
X029055Y016180D01*
X029515Y016180D01*
X029515Y015989D01*
X029246Y015720D01*
X029055Y015720D01*
X029055Y016180D01*
X029055Y016180D01*
X029055Y016180D01*
X029055Y016640D01*
X028864Y016640D01*
X029055Y016597D02*
X029055Y016597D01*
X029055Y016439D02*
X029055Y016439D01*
X029055Y016280D02*
X029055Y016280D01*
X029055Y016180D02*
X028595Y016180D01*
X028595Y015989D01*
X028864Y015720D01*
X029055Y015720D01*
X029055Y016180D01*
X029055Y016122D02*
X029055Y016122D01*
X029055Y015963D02*
X029055Y015963D01*
X029055Y015805D02*
X029055Y015805D01*
X029330Y015805D02*
X029748Y015805D01*
X029748Y015963D02*
X029489Y015963D01*
X029515Y016122D02*
X029825Y016122D01*
X029515Y016280D02*
X037374Y016280D01*
X037330Y016386D02*
X037459Y016074D01*
X037699Y015834D01*
X038011Y015705D01*
X038349Y015705D01*
X038661Y015834D01*
X038661Y015834D01*
X038901Y016074D01*
X039030Y016386D01*
X039030Y016605D01*
X039030Y016724D01*
X039030Y016724D01*
X038901Y017036D01*
X038901Y017036D01*
X038661Y017276D01*
X038349Y017405D01*
X038011Y017405D01*
X037699Y017276D01*
X037699Y017276D01*
X037459Y017036D01*
X037330Y016724D01*
X037330Y016386D01*
X037330Y016439D02*
X029447Y016439D01*
X029289Y016597D02*
X037330Y016597D01*
X037343Y016756D02*
X029281Y016756D01*
X029440Y016914D02*
X037409Y016914D01*
X037459Y017036D02*
X037459Y017036D01*
X037495Y017073D02*
X029515Y017073D01*
X029515Y017231D02*
X037654Y017231D01*
X037974Y017390D02*
X029496Y017390D01*
X029338Y017548D02*
X038622Y017548D01*
X038386Y017390D02*
X038892Y017390D01*
X039036Y017231D02*
X038706Y017231D01*
X038661Y017276D02*
X038661Y017276D01*
X038865Y017073D02*
X039140Y017073D01*
X039201Y016914D02*
X038951Y016914D01*
X039017Y016756D02*
X039241Y016756D01*
X039250Y016597D02*
X039030Y016597D01*
X039030Y016439D02*
X039250Y016439D01*
X039250Y016280D02*
X038986Y016280D01*
X038920Y016122D02*
X039250Y016122D01*
X039250Y015963D02*
X038790Y015963D01*
X038901Y016074D02*
X038901Y016074D01*
X038589Y015805D02*
X039250Y015805D01*
X039250Y015646D02*
X036362Y015646D01*
X036362Y015488D02*
X039250Y015488D01*
X039250Y015329D02*
X036362Y015329D01*
X036362Y015171D02*
X039250Y015171D01*
X039250Y015012D02*
X036362Y015012D01*
X036362Y014854D02*
X039250Y014854D01*
X039250Y014695D02*
X032528Y014695D01*
X032430Y014793D02*
X032430Y014793D01*
X032369Y014854D02*
X034948Y014854D01*
X034948Y014816D02*
X035041Y014723D01*
X036269Y014723D01*
X036362Y014816D01*
X036362Y016044D01*
X036269Y016137D01*
X035041Y016137D01*
X034948Y016044D01*
X034948Y014816D01*
X034948Y015012D02*
X031162Y015012D01*
X031162Y015171D02*
X034948Y015171D01*
X034948Y015329D02*
X031162Y015329D01*
X031162Y015488D02*
X034948Y015488D01*
X034948Y015646D02*
X031162Y015646D01*
X031162Y015805D02*
X034948Y015805D01*
X034948Y015963D02*
X031162Y015963D01*
X031085Y016122D02*
X035025Y016122D01*
X036285Y016122D02*
X037440Y016122D01*
X037459Y016074D02*
X037459Y016074D01*
X037570Y015963D02*
X036362Y015963D01*
X036362Y015805D02*
X037771Y015805D01*
X037699Y015834D02*
X037699Y015834D01*
X039250Y014537D02*
X032686Y014537D01*
X032845Y014378D02*
X039250Y014378D01*
X039250Y014220D02*
X033003Y014220D01*
X033162Y014061D02*
X033588Y014061D01*
X033482Y013903D02*
X033320Y013903D01*
X032884Y013744D02*
X029270Y013744D01*
X029246Y013720D02*
X029515Y013989D01*
X029515Y014180D01*
X029055Y014180D01*
X029055Y014180D01*
X029055Y013720D01*
X029246Y013720D01*
X029300Y013586D02*
X032720Y013586D01*
X032690Y013427D02*
X029459Y013427D01*
X029515Y013269D02*
X032546Y013269D01*
X032217Y013110D02*
X029515Y013110D01*
X029477Y012952D02*
X032150Y012952D01*
X032755Y013903D02*
X029428Y013903D01*
X029515Y014061D02*
X032596Y014061D01*
X032438Y014220D02*
X029515Y014220D01*
X029508Y014378D02*
X032279Y014378D01*
X033992Y014061D02*
X039250Y014061D01*
X039250Y013903D02*
X034098Y013903D01*
X034139Y013744D02*
X039250Y013744D01*
X039250Y013586D02*
X034467Y013586D01*
X034530Y013427D02*
X039250Y013427D01*
X039250Y013269D02*
X036440Y013269D01*
X036664Y013110D02*
X039250Y013110D01*
X039250Y012952D02*
X036804Y012952D01*
X036894Y012793D02*
X039250Y012793D01*
X039250Y012635D02*
X036955Y012635D01*
X036985Y012476D02*
X039250Y012476D01*
X039250Y012318D02*
X036042Y012318D01*
X036042Y012476D02*
X035882Y012476D01*
X035882Y012435D02*
X035882Y013383D01*
X035789Y013372D01*
X035676Y013347D01*
X035567Y013308D01*
X035463Y013258D01*
X035365Y013197D01*
X035274Y013125D01*
X035193Y013043D01*
X035120Y012952D01*
X034271Y012952D01*
X034370Y013110D02*
X035260Y013110D01*
X035120Y012952D02*
X035059Y012854D01*
X035009Y012750D01*
X034970Y012641D01*
X034945Y012528D01*
X034934Y012435D01*
X035882Y012435D01*
X035882Y012318D02*
X034905Y012318D01*
X034939Y012476D02*
X034747Y012476D01*
X034588Y012635D02*
X034969Y012635D01*
X035029Y012793D02*
X034430Y012793D01*
X034506Y013269D02*
X035484Y013269D01*
X035882Y013269D02*
X036042Y013269D01*
X036042Y013110D02*
X035882Y013110D01*
X035882Y012952D02*
X036042Y012952D01*
X036042Y012793D02*
X035882Y012793D01*
X035882Y012635D02*
X036042Y012635D01*
X036042Y012159D02*
X035882Y012159D01*
X035882Y012001D02*
X036042Y012001D01*
X036042Y011842D02*
X035882Y011842D01*
X035882Y011684D02*
X036042Y011684D01*
X036042Y011525D02*
X035882Y011525D01*
X035882Y011367D02*
X036042Y011367D01*
X036015Y011208D02*
X036389Y011208D01*
X036269Y011050D02*
X036150Y011050D01*
X036150Y010891D02*
X036187Y010891D01*
X037063Y010891D02*
X037223Y010891D01*
X037223Y010733D02*
X037063Y010733D01*
X037223Y010574D02*
X039250Y010574D01*
X039250Y010416D02*
X038169Y010416D01*
X038170Y010425D02*
X037223Y010425D01*
X037223Y009477D01*
X037316Y009488D01*
X037428Y009514D01*
X037538Y009552D01*
X037642Y009602D01*
X037740Y009664D01*
X037830Y009736D01*
X037912Y009818D01*
X037984Y009908D01*
X038046Y010006D01*
X038096Y010110D01*
X038134Y010219D01*
X038160Y010332D01*
X038170Y010425D01*
X038143Y010257D02*
X039250Y010257D01*
X039250Y010099D02*
X038090Y010099D01*
X038004Y009940D02*
X039250Y009940D01*
X039250Y009782D02*
X037876Y009782D01*
X037675Y009623D02*
X039250Y009623D01*
X039250Y009465D02*
X035787Y009465D01*
X035946Y009623D02*
X036611Y009623D01*
X036410Y009782D02*
X036104Y009782D01*
X036150Y009940D02*
X036281Y009940D01*
X036195Y010099D02*
X036150Y010099D01*
X037063Y010099D02*
X037223Y010099D01*
X037223Y010257D02*
X037063Y010257D01*
X037063Y010416D02*
X037223Y010416D01*
X038147Y010733D02*
X039250Y010733D01*
X039250Y010891D02*
X038099Y010891D01*
X038017Y011050D02*
X039250Y011050D01*
X039250Y011208D02*
X037896Y011208D01*
X037708Y011367D02*
X039250Y011367D01*
X039250Y011525D02*
X037289Y011525D01*
X037223Y011525D02*
X037063Y011525D01*
X036996Y011525D02*
X036573Y011525D01*
X036578Y011367D02*
X036254Y011367D01*
X036743Y011684D02*
X039250Y011684D01*
X039250Y011842D02*
X036856Y011842D01*
X036929Y012001D02*
X039250Y012001D01*
X039250Y012159D02*
X036973Y012159D01*
X037063Y011367D02*
X037223Y011367D01*
X037223Y011208D02*
X037063Y011208D01*
X037063Y011050D02*
X037223Y011050D01*
X037223Y009940D02*
X037063Y009940D01*
X037063Y009782D02*
X037223Y009782D01*
X037223Y009623D02*
X037063Y009623D01*
X035629Y009306D02*
X039250Y009306D01*
X039250Y009148D02*
X035470Y009148D01*
X035312Y008989D02*
X039250Y008989D01*
X039250Y008831D02*
X035153Y008831D01*
X034995Y008672D02*
X039250Y008672D01*
X039250Y008514D02*
X037144Y008514D01*
X037209Y008487D02*
X036911Y008610D01*
X036589Y008610D01*
X036291Y008487D01*
X036063Y008259D01*
X035940Y007961D01*
X035940Y007639D01*
X036063Y007341D01*
X036291Y007113D01*
X036589Y006990D01*
X036911Y006990D01*
X037209Y007113D01*
X037437Y007341D01*
X037560Y007639D01*
X037560Y007961D01*
X037437Y008259D01*
X037209Y008487D01*
X037340Y008355D02*
X039250Y008355D01*
X039250Y008197D02*
X037462Y008197D01*
X037528Y008038D02*
X039250Y008038D01*
X039250Y007880D02*
X037560Y007880D01*
X037560Y007721D02*
X039250Y007721D01*
X039250Y007563D02*
X037528Y007563D01*
X037463Y007404D02*
X039250Y007404D01*
X039250Y007246D02*
X037341Y007246D01*
X037145Y007087D02*
X039250Y007087D01*
X039250Y006929D02*
X034170Y006929D01*
X034170Y007087D02*
X036355Y007087D01*
X036159Y007246D02*
X034170Y007246D01*
X034170Y007404D02*
X036037Y007404D01*
X035972Y007563D02*
X034170Y007563D01*
X034170Y007721D02*
X035940Y007721D01*
X035940Y007880D02*
X034202Y007880D01*
X034361Y008038D02*
X035972Y008038D01*
X036038Y008197D02*
X034519Y008197D01*
X034678Y008355D02*
X036159Y008355D01*
X036356Y008514D02*
X034836Y008514D01*
X034348Y008831D02*
X033053Y008831D01*
X033212Y008989D02*
X034506Y008989D01*
X034665Y009148D02*
X033370Y009148D01*
X033529Y009306D02*
X034823Y009306D01*
X034914Y009495D02*
X035048Y009531D01*
X030887Y005370D01*
X030786Y005370D01*
X030669Y005321D01*
X030579Y005231D01*
X030565Y005198D01*
X030510Y005253D01*
X030510Y005697D01*
X030581Y005769D01*
X030630Y005886D01*
X030630Y006014D01*
X030581Y006131D01*
X030491Y006221D01*
X030458Y006235D01*
X034040Y009817D01*
X034161Y009697D01*
X034391Y009564D01*
X034648Y009495D01*
X034914Y009495D01*
X034982Y009465D02*
X033687Y009465D01*
X033846Y009623D02*
X034288Y009623D01*
X034076Y009782D02*
X034004Y009782D01*
X033597Y009940D02*
X032119Y009940D01*
X032128Y010099D02*
X033756Y010099D01*
X033439Y009782D02*
X032014Y009782D01*
X030940Y009623D02*
X025720Y009623D01*
X025878Y009465D02*
X030782Y009465D01*
X030623Y009306D02*
X026037Y009306D01*
X026195Y009148D02*
X030465Y009148D01*
X030306Y008989D02*
X026354Y008989D01*
X026512Y008831D02*
X030148Y008831D01*
X029989Y008672D02*
X028281Y008672D01*
X027899Y008672D02*
X026671Y008672D01*
X026829Y008514D02*
X027787Y008514D01*
X027770Y008355D02*
X026988Y008355D01*
X027146Y008197D02*
X027851Y008197D01*
X028329Y008197D02*
X030894Y008197D01*
X031052Y008355D02*
X030238Y008355D01*
X030396Y008514D02*
X031211Y008514D01*
X031369Y008672D02*
X030555Y008672D01*
X030713Y008831D02*
X030877Y008831D01*
X031303Y008831D02*
X031394Y008831D01*
X032578Y008355D02*
X033872Y008355D01*
X033714Y008197D02*
X032419Y008197D01*
X032261Y008038D02*
X033555Y008038D01*
X033397Y007880D02*
X032102Y007880D01*
X031944Y007721D02*
X033238Y007721D01*
X033080Y007563D02*
X031785Y007563D01*
X031627Y007404D02*
X032921Y007404D01*
X032763Y007246D02*
X031468Y007246D01*
X031310Y007087D02*
X032604Y007087D01*
X032446Y006929D02*
X031151Y006929D01*
X030993Y006770D02*
X032287Y006770D01*
X032129Y006612D02*
X030834Y006612D01*
X030676Y006453D02*
X031970Y006453D01*
X031812Y006295D02*
X030517Y006295D01*
X030577Y006136D02*
X031653Y006136D01*
X031495Y005978D02*
X030630Y005978D01*
X030602Y005819D02*
X031336Y005819D01*
X031178Y005661D02*
X030510Y005661D01*
X030510Y005502D02*
X031019Y005502D01*
X030722Y005344D02*
X030510Y005344D01*
X031170Y005087D02*
X033770Y007687D01*
X033770Y002363D01*
X033728Y002405D01*
X033522Y002490D01*
X033300Y002490D01*
X033281Y002482D01*
X030998Y004765D01*
X031031Y004779D01*
X031121Y004869D01*
X031170Y004986D01*
X031170Y005087D01*
X031170Y005027D02*
X033770Y005027D01*
X033770Y005185D02*
X031268Y005185D01*
X031426Y005344D02*
X033770Y005344D01*
X033770Y005502D02*
X031585Y005502D01*
X031743Y005661D02*
X033770Y005661D01*
X033770Y005819D02*
X031902Y005819D01*
X032060Y005978D02*
X033770Y005978D01*
X033770Y006136D02*
X032219Y006136D01*
X032377Y006295D02*
X033770Y006295D01*
X033770Y006453D02*
X032536Y006453D01*
X032694Y006612D02*
X033770Y006612D01*
X033770Y006770D02*
X032853Y006770D01*
X033011Y006929D02*
X033770Y006929D01*
X033770Y007087D02*
X033170Y007087D01*
X033328Y007246D02*
X033770Y007246D01*
X033770Y007404D02*
X033487Y007404D01*
X033645Y007563D02*
X033770Y007563D01*
X034170Y006770D02*
X039250Y006770D01*
X039250Y006612D02*
X034170Y006612D01*
X034170Y006453D02*
X039250Y006453D01*
X039250Y006295D02*
X036029Y006295D01*
X036012Y006311D02*
X035947Y006358D01*
X035876Y006395D01*
X035799Y006420D01*
X035720Y006432D01*
X035690Y006432D01*
X035690Y005932D01*
X036190Y005932D01*
X036190Y005962D01*
X036177Y006042D01*
X036153Y006118D01*
X036116Y006189D01*
X036069Y006254D01*
X036012Y006311D01*
X036143Y006136D02*
X039250Y006136D01*
X039250Y005978D02*
X036188Y005978D01*
X036190Y005912D02*
X035690Y005912D01*
X035690Y005932D01*
X035670Y005932D01*
X035670Y006432D01*
X035640Y006432D01*
X035561Y006420D01*
X035484Y006395D01*
X035413Y006358D01*
X035348Y006311D01*
X035291Y006254D01*
X035278Y006237D01*
X035178Y006338D01*
X034997Y006412D01*
X034803Y006412D01*
X034622Y006338D01*
X034485Y006200D01*
X034410Y006020D01*
X034410Y005825D01*
X034485Y005645D01*
X034622Y005507D01*
X034803Y005432D01*
X034997Y005432D01*
X035178Y005507D01*
X035278Y005607D01*
X035291Y005590D01*
X035348Y005533D01*
X035413Y005486D01*
X035484Y005449D01*
X035561Y005425D01*
X035571Y005423D01*
X035402Y005353D01*
X035290Y005241D01*
X035178Y005353D01*
X034997Y005428D01*
X034803Y005428D01*
X034622Y005353D01*
X034485Y005215D01*
X034410Y005035D01*
X034410Y004840D01*
X034485Y004660D01*
X034622Y004522D01*
X034803Y004448D01*
X034997Y004448D01*
X035178Y004522D01*
X035290Y004635D01*
X035402Y004522D01*
X035583Y004448D01*
X035777Y004448D01*
X035958Y004522D01*
X036095Y004660D01*
X036170Y004840D01*
X036170Y005035D01*
X036095Y005215D01*
X035958Y005353D01*
X035789Y005423D01*
X035799Y005425D01*
X035876Y005449D01*
X035947Y005486D01*
X036012Y005533D01*
X036069Y005590D01*
X036116Y005655D01*
X036153Y005726D01*
X036177Y005803D01*
X036190Y005882D01*
X036190Y005912D01*
X036180Y005819D02*
X039250Y005819D01*
X039250Y005661D02*
X036119Y005661D01*
X035969Y005502D02*
X039250Y005502D01*
X039250Y005344D02*
X035967Y005344D01*
X036108Y005185D02*
X039250Y005185D01*
X039250Y005027D02*
X036170Y005027D01*
X036170Y004868D02*
X039250Y004868D01*
X039250Y004710D02*
X036116Y004710D01*
X035986Y004551D02*
X039250Y004551D01*
X039250Y004393D02*
X034170Y004393D01*
X034170Y004551D02*
X034594Y004551D01*
X034464Y004710D02*
X034170Y004710D01*
X034170Y004868D02*
X034410Y004868D01*
X034410Y005027D02*
X034170Y005027D01*
X034170Y005185D02*
X034472Y005185D01*
X034613Y005344D02*
X034170Y005344D01*
X034170Y005502D02*
X034634Y005502D01*
X034478Y005661D02*
X034170Y005661D01*
X034170Y005819D02*
X034412Y005819D01*
X034410Y005978D02*
X034170Y005978D01*
X034170Y006136D02*
X034458Y006136D01*
X034579Y006295D02*
X034170Y006295D01*
X035221Y006295D02*
X035331Y006295D01*
X035670Y006295D02*
X035690Y006295D01*
X035690Y006136D02*
X035670Y006136D01*
X035670Y005978D02*
X035690Y005978D01*
X035391Y005502D02*
X035166Y005502D01*
X035187Y005344D02*
X035393Y005344D01*
X033770Y004868D02*
X031121Y004868D01*
X031053Y004710D02*
X033770Y004710D01*
X033770Y004551D02*
X031212Y004551D01*
X031370Y004393D02*
X033770Y004393D01*
X033770Y004234D02*
X031529Y004234D01*
X031687Y004076D02*
X033770Y004076D01*
X033770Y003917D02*
X031846Y003917D01*
X032004Y003759D02*
X033770Y003759D01*
X033770Y003600D02*
X032163Y003600D01*
X032321Y003442D02*
X033770Y003442D01*
X033770Y003283D02*
X032480Y003283D01*
X032638Y003125D02*
X033770Y003125D01*
X033770Y002966D02*
X032797Y002966D01*
X032955Y002808D02*
X033770Y002808D01*
X033770Y002649D02*
X033114Y002649D01*
X033272Y002491D02*
X033770Y002491D01*
X034170Y002332D02*
X034202Y002332D01*
X034170Y002174D02*
X034464Y002174D01*
X034622Y002015D02*
X034170Y002015D01*
X034170Y001857D02*
X034781Y001857D01*
X034939Y001698D02*
X034170Y001698D01*
X034042Y001540D02*
X035098Y001540D01*
X035210Y001381D02*
X033884Y001381D01*
X033725Y001223D02*
X035253Y001223D01*
X035807Y001223D02*
X037449Y001223D01*
X037459Y001199D02*
X037459Y001199D01*
X037699Y000959D01*
X038011Y000830D01*
X038349Y000830D01*
X038661Y000959D01*
X038661Y000959D01*
X038901Y001199D01*
X039030Y001511D01*
X039030Y001630D01*
X039030Y001849D01*
X038901Y002161D01*
X038901Y002161D01*
X038661Y002401D01*
X038349Y002530D01*
X038011Y002530D01*
X037699Y002401D01*
X037699Y002401D01*
X037459Y002161D01*
X037330Y001849D01*
X037330Y001511D01*
X037459Y001199D01*
X037594Y001064D02*
X033567Y001064D01*
X033450Y000906D02*
X037829Y000906D01*
X037699Y000959D02*
X037699Y000959D01*
X037384Y001381D02*
X035850Y001381D01*
X035814Y001540D02*
X037330Y001540D01*
X037330Y001698D02*
X035623Y001698D01*
X035346Y001857D02*
X037333Y001857D01*
X037399Y002015D02*
X035188Y002015D01*
X035029Y002174D02*
X037471Y002174D01*
X037630Y002332D02*
X037109Y002332D01*
X037209Y002373D02*
X037437Y002601D01*
X037560Y002899D01*
X037560Y003221D01*
X037437Y003519D01*
X037209Y003747D01*
X036911Y003870D01*
X036589Y003870D01*
X036291Y003747D01*
X036063Y003519D01*
X035940Y003221D01*
X035940Y002899D01*
X036063Y002601D01*
X036291Y002373D01*
X036589Y002250D01*
X036911Y002250D01*
X037209Y002373D01*
X037326Y002491D02*
X037916Y002491D01*
X038444Y002491D02*
X039250Y002491D01*
X039250Y002649D02*
X037456Y002649D01*
X037522Y002808D02*
X039250Y002808D01*
X039250Y002966D02*
X037560Y002966D01*
X037560Y003125D02*
X039250Y003125D01*
X039250Y003283D02*
X037534Y003283D01*
X037469Y003442D02*
X039250Y003442D01*
X039250Y003600D02*
X037356Y003600D01*
X037180Y003759D02*
X039250Y003759D01*
X039250Y003917D02*
X034170Y003917D01*
X034170Y003759D02*
X036320Y003759D01*
X036144Y003600D02*
X034170Y003600D01*
X034170Y003442D02*
X036031Y003442D01*
X035966Y003283D02*
X034170Y003283D01*
X034170Y003125D02*
X035940Y003125D01*
X035940Y002966D02*
X034343Y002966D01*
X034197Y002966D02*
X034170Y002966D01*
X034551Y002808D02*
X035978Y002808D01*
X036044Y002649D02*
X034590Y002649D01*
X034712Y002491D02*
X036174Y002491D01*
X036391Y002332D02*
X034871Y002332D01*
X033409Y000747D02*
X038746Y000747D01*
X038531Y000906D02*
X038961Y000906D01*
X039077Y001064D02*
X038766Y001064D01*
X038901Y001199D02*
X038901Y001199D01*
X038911Y001223D02*
X039164Y001223D01*
X039215Y001381D02*
X038976Y001381D01*
X039030Y001540D02*
X039245Y001540D01*
X039250Y001698D02*
X039030Y001698D01*
X039027Y001857D02*
X039250Y001857D01*
X039250Y002015D02*
X038961Y002015D01*
X038889Y002174D02*
X039250Y002174D01*
X039250Y002332D02*
X038730Y002332D01*
X038661Y002401D02*
X038661Y002401D01*
X039250Y004076D02*
X034170Y004076D01*
X034170Y004234D02*
X039250Y004234D01*
X035374Y004551D02*
X035206Y004551D01*
X030269Y006612D02*
X029871Y006612D01*
X029713Y006770D02*
X030427Y006770D01*
X030586Y006929D02*
X029554Y006929D01*
X030030Y006453D02*
X030110Y006453D01*
X028718Y006612D02*
X028674Y006612D01*
X027780Y007563D02*
X030090Y007563D01*
X030418Y007721D02*
X027622Y007721D01*
X027463Y007880D02*
X030577Y007880D01*
X030735Y008038D02*
X027305Y008038D01*
X026898Y007880D02*
X026523Y007880D01*
X026550Y007721D02*
X027056Y007721D01*
X027215Y007563D02*
X026495Y007563D01*
X026371Y008038D02*
X026739Y008038D01*
X026581Y008197D02*
X025518Y008197D01*
X025529Y008355D02*
X026422Y008355D01*
X026264Y008514D02*
X025439Y008514D01*
X025410Y008672D02*
X026105Y008672D01*
X025947Y008831D02*
X025410Y008831D01*
X025410Y008989D02*
X025788Y008989D01*
X025630Y009148D02*
X025410Y009148D01*
X025377Y009306D02*
X025471Y009306D01*
X025313Y009465D02*
X025218Y009465D01*
X025154Y009623D02*
X025060Y009623D01*
X024996Y009782D02*
X024901Y009782D01*
X024890Y009940D02*
X024750Y009940D01*
X024750Y010099D02*
X024890Y010099D01*
X024890Y010257D02*
X024750Y010257D01*
X024750Y010416D02*
X024890Y010416D01*
X024890Y010574D02*
X024750Y010574D01*
X024750Y010733D02*
X024890Y010733D01*
X024890Y010891D02*
X024750Y010891D01*
X024750Y011050D02*
X024890Y011050D01*
X024890Y011208D02*
X024750Y011208D01*
X024750Y011367D02*
X024890Y011367D01*
X024890Y011525D02*
X024750Y011525D01*
X024750Y011684D02*
X024890Y011684D01*
X024771Y011842D02*
X024750Y011842D01*
X024350Y011842D02*
X024090Y011842D01*
X024090Y011684D02*
X024350Y011684D01*
X024350Y011525D02*
X024090Y011525D01*
X024090Y011367D02*
X024350Y011367D01*
X024350Y011208D02*
X024090Y011208D01*
X024090Y011050D02*
X024350Y011050D01*
X024350Y010891D02*
X024090Y010891D01*
X024090Y010733D02*
X024350Y010733D01*
X024350Y010574D02*
X024090Y010574D01*
X024090Y010416D02*
X024350Y010416D01*
X024350Y010257D02*
X024090Y010257D01*
X024090Y010099D02*
X024350Y010099D01*
X024350Y009940D02*
X024090Y009940D01*
X024090Y009782D02*
X024350Y009782D01*
X024494Y009623D02*
X024090Y009623D01*
X024090Y009465D02*
X024653Y009465D01*
X024811Y009306D02*
X024090Y009306D01*
X024215Y009148D02*
X024970Y009148D01*
X025010Y008989D02*
X024374Y008989D01*
X024532Y008831D02*
X025010Y008831D01*
X025010Y008672D02*
X024691Y008672D01*
X024849Y008514D02*
X024981Y008514D01*
X024601Y008197D02*
X023790Y008197D01*
X023790Y008355D02*
X024442Y008355D01*
X024284Y008514D02*
X023790Y008514D01*
X023790Y008672D02*
X024125Y008672D01*
X023967Y008831D02*
X023790Y008831D01*
X023790Y008989D02*
X023808Y008989D01*
X023790Y008038D02*
X024759Y008038D01*
X024918Y007880D02*
X023790Y007880D01*
X023724Y007721D02*
X025076Y007721D01*
X025235Y007563D02*
X023780Y007563D01*
X025411Y008038D02*
X026089Y008038D01*
X026495Y010099D02*
X025290Y010099D01*
X025290Y010257D02*
X026450Y010257D01*
X026484Y010416D02*
X025290Y010416D01*
X025290Y010574D02*
X026570Y010574D01*
X026515Y010733D02*
X025290Y010733D01*
X025290Y010891D02*
X026450Y010891D01*
X026473Y011050D02*
X025290Y011050D01*
X025290Y011208D02*
X026605Y011208D01*
X024350Y012001D02*
X024002Y012001D01*
X023844Y012159D02*
X024350Y012159D01*
X024350Y012318D02*
X023685Y012318D01*
X023527Y012476D02*
X024341Y012476D01*
X024013Y012635D02*
X023368Y012635D01*
X023210Y012793D02*
X023930Y012793D01*
X023946Y012952D02*
X023051Y012952D01*
X022893Y013110D02*
X024057Y013110D01*
X025290Y012793D02*
X028584Y012793D01*
X028426Y012952D02*
X025449Y012952D01*
X025495Y013110D02*
X028267Y013110D01*
X028109Y013269D02*
X025495Y013269D01*
X025430Y013427D02*
X027950Y013427D01*
X027792Y013586D02*
X025272Y013586D01*
X025241Y013744D02*
X027633Y013744D01*
X027475Y013903D02*
X025400Y013903D01*
X025495Y014061D02*
X027316Y014061D01*
X027158Y014220D02*
X025495Y014220D01*
X025479Y014378D02*
X026999Y014378D01*
X026841Y014537D02*
X025321Y014537D01*
X026772Y015171D02*
X026807Y015171D01*
X026931Y015012D02*
X026965Y015012D01*
X027089Y014854D02*
X027124Y014854D01*
X027248Y014695D02*
X027282Y014695D01*
X027406Y014537D02*
X027441Y014537D01*
X027565Y014378D02*
X028602Y014378D01*
X028595Y014220D02*
X027723Y014220D01*
X027882Y014061D02*
X028595Y014061D01*
X028595Y013989D02*
X028595Y014180D01*
X029055Y014180D01*
X029055Y014180D01*
X029055Y014180D01*
X029055Y013720D01*
X028864Y013720D01*
X028595Y013989D01*
X028682Y013903D02*
X028040Y013903D01*
X028199Y013744D02*
X028840Y013744D01*
X028810Y013586D02*
X028357Y013586D01*
X028516Y013427D02*
X028651Y013427D01*
X029055Y013427D02*
X029055Y013427D01*
X029055Y013269D02*
X029055Y013269D01*
X029055Y013586D02*
X029055Y013586D01*
X029055Y013744D02*
X029055Y013744D01*
X029055Y013903D02*
X029055Y013903D01*
X029055Y014061D02*
X029055Y014061D01*
X029515Y015012D02*
X029748Y015012D01*
X029748Y015171D02*
X029515Y015171D01*
X029515Y015329D02*
X029748Y015329D01*
X029748Y015488D02*
X029398Y015488D01*
X029055Y015488D02*
X029055Y015488D01*
X029055Y015329D02*
X029055Y015329D01*
X028712Y015488D02*
X027055Y015488D01*
X026897Y015646D02*
X029748Y015646D01*
X028780Y015805D02*
X026738Y015805D01*
X026580Y015963D02*
X028621Y015963D01*
X028595Y016122D02*
X026421Y016122D01*
X026263Y016280D02*
X028595Y016280D01*
X028663Y016439D02*
X026104Y016439D01*
X025697Y016280D02*
X025495Y016280D01*
X025495Y016122D02*
X025856Y016122D01*
X026014Y015963D02*
X025460Y015963D01*
X026138Y015805D02*
X026173Y015805D01*
X026297Y015646D02*
X026331Y015646D01*
X026455Y015488D02*
X026490Y015488D01*
X026614Y015329D02*
X026648Y015329D01*
X027214Y015329D02*
X028595Y015329D01*
X028595Y015171D02*
X027372Y015171D01*
X027531Y015012D02*
X028595Y015012D01*
X025539Y016439D02*
X025419Y016439D01*
X025380Y016597D02*
X025260Y016597D01*
X029055Y016756D02*
X029055Y016756D01*
X029055Y016914D02*
X029055Y016914D01*
X029055Y017073D02*
X029055Y017073D01*
X016422Y015805D02*
X015967Y015805D01*
X015809Y015646D02*
X016263Y015646D01*
X016105Y015488D02*
X015650Y015488D01*
X015492Y015329D02*
X015946Y015329D01*
X015788Y015171D02*
X015333Y015171D01*
X015629Y015012D02*
X013687Y015012D01*
X014369Y015646D02*
X015243Y015646D01*
X015402Y015805D02*
X014527Y015805D01*
X014120Y015963D02*
X014114Y015963D01*
X014115Y016122D02*
X014279Y016122D01*
X014389Y016280D02*
X014115Y016280D01*
X014115Y016439D02*
X014373Y016439D01*
X014396Y016597D02*
X014115Y016597D01*
X014115Y016756D02*
X014467Y016756D01*
X014638Y016914D02*
X014097Y016914D01*
X015228Y016914D02*
X016016Y016914D01*
X015844Y016756D02*
X015399Y016756D01*
X015470Y016597D02*
X015774Y016597D01*
X015751Y016439D02*
X015493Y016439D01*
X015477Y016280D02*
X015767Y016280D01*
X015719Y016122D02*
X015411Y016122D01*
X015560Y015963D02*
X015258Y015963D01*
X015471Y014854D02*
X006170Y014854D01*
X005855Y014854D02*
X005815Y014854D01*
X005815Y014740D02*
X005815Y015270D01*
X005285Y015270D01*
X005285Y015247D01*
X005299Y015161D01*
X005325Y015079D01*
X005365Y015002D01*
X005415Y014932D01*
X005477Y014870D01*
X005547Y014820D01*
X005624Y014780D01*
X005706Y014754D01*
X005792Y014740D01*
X005815Y014740D01*
X005500Y014854D02*
X003588Y014854D01*
X003575Y014841D02*
X003724Y014990D01*
X003805Y015185D01*
X003805Y015395D01*
X003724Y015590D01*
X003575Y015739D01*
X003380Y015820D01*
X003170Y015820D01*
X002975Y015739D01*
X002826Y015590D01*
X002745Y015395D01*
X002745Y015185D01*
X002826Y014990D01*
X002975Y014841D01*
X003170Y014760D01*
X003380Y014760D01*
X003575Y014841D01*
X003734Y015012D02*
X005359Y015012D01*
X005297Y015171D02*
X003799Y015171D01*
X003805Y015329D02*
X005285Y015329D01*
X005321Y015488D02*
X003767Y015488D01*
X003669Y015646D02*
X005414Y015646D01*
X005639Y015805D02*
X003418Y015805D01*
X003132Y015805D02*
X002089Y015805D01*
X002161Y015834D02*
X002161Y015834D01*
X001849Y015705D01*
X001730Y015705D01*
X001511Y015705D01*
X001199Y015834D01*
X001199Y015834D01*
X000959Y016074D01*
X000959Y016074D01*
X000830Y016386D01*
X000830Y016724D01*
X000959Y017036D01*
X000959Y017036D01*
X001199Y017276D01*
X001199Y017276D01*
X001511Y017405D01*
X001849Y017405D01*
X002161Y017276D01*
X002161Y017276D01*
X002401Y017036D01*
X002401Y017036D01*
X002530Y016724D01*
X002530Y016386D01*
X002401Y016074D01*
X002401Y016074D01*
X002161Y015834D01*
X002290Y015963D02*
X007700Y015963D01*
X007700Y016122D02*
X002420Y016122D01*
X002486Y016280D02*
X007754Y016280D01*
X007885Y016439D02*
X002530Y016439D01*
X002530Y016597D02*
X003032Y016597D01*
X002975Y016621D02*
X003170Y016540D01*
X003380Y016540D01*
X003575Y016621D01*
X003724Y016770D01*
X003805Y016965D01*
X003805Y017175D01*
X003724Y017370D01*
X003575Y017519D01*
X003380Y017600D01*
X003170Y017600D01*
X002975Y017519D01*
X002826Y017370D01*
X002745Y017175D01*
X002745Y016965D01*
X002826Y016770D01*
X002975Y016621D01*
X002840Y016756D02*
X002517Y016756D01*
X002451Y016914D02*
X002766Y016914D01*
X002745Y017073D02*
X002365Y017073D01*
X002206Y017231D02*
X002768Y017231D01*
X002845Y017390D02*
X001886Y017390D01*
X001474Y017390D02*
X000969Y017390D01*
X000820Y017231D02*
X001154Y017231D01*
X000995Y017073D02*
X000713Y017073D01*
X000661Y016914D02*
X000909Y016914D01*
X000843Y016756D02*
X000622Y016756D01*
X000614Y016597D02*
X000830Y016597D01*
X000830Y016439D02*
X000614Y016439D01*
X000614Y016280D02*
X000874Y016280D01*
X000940Y016122D02*
X000614Y016122D01*
X000614Y015963D02*
X001070Y015963D01*
X001271Y015805D02*
X000614Y015805D01*
X000614Y015646D02*
X002881Y015646D01*
X002783Y015488D02*
X000614Y015488D01*
X000614Y015329D02*
X002745Y015329D01*
X002751Y015171D02*
X000614Y015171D01*
X000614Y015012D02*
X002816Y015012D01*
X002962Y014854D02*
X000614Y014854D01*
X000614Y014695D02*
X015312Y014695D01*
X015154Y014537D02*
X000614Y014537D01*
X000614Y014378D02*
X014995Y014378D01*
X014837Y014220D02*
X009800Y014220D01*
X009828Y014208D02*
X009682Y014268D01*
X009524Y014268D01*
X009379Y014208D01*
X009267Y014097D01*
X009207Y013951D01*
X009207Y013793D01*
X009267Y013647D01*
X009379Y013536D01*
X009524Y013475D01*
X009682Y013475D01*
X009828Y013536D01*
X009939Y013647D01*
X010000Y013793D01*
X010000Y013951D01*
X009939Y014097D01*
X009828Y014208D01*
X009954Y014061D02*
X014678Y014061D01*
X014520Y013903D02*
X010000Y013903D01*
X009979Y013744D02*
X014361Y013744D01*
X014203Y013586D02*
X009878Y013586D01*
X009329Y013586D02*
X000614Y013586D01*
X000614Y013744D02*
X009227Y013744D01*
X009207Y013903D02*
X000614Y013903D01*
X000614Y014061D02*
X009252Y014061D01*
X009406Y014220D02*
X000614Y014220D01*
X000614Y013427D02*
X014044Y013427D01*
X013886Y013269D02*
X000614Y013269D01*
X000614Y013110D02*
X013727Y013110D01*
X013569Y012952D02*
X000614Y012952D01*
X000614Y012793D02*
X013410Y012793D01*
X013252Y012635D02*
X000614Y012635D01*
X000614Y012476D02*
X013093Y012476D01*
X012935Y012318D02*
X000614Y012318D01*
X000614Y012159D02*
X012776Y012159D01*
X012618Y012001D02*
X000614Y012001D01*
X000614Y011842D02*
X012459Y011842D01*
X012301Y011684D02*
X000614Y011684D01*
X000614Y011525D02*
X011722Y011525D01*
X011564Y011367D02*
X000614Y011367D01*
X000614Y011208D02*
X011405Y011208D01*
X011247Y011050D02*
X000614Y011050D01*
X000614Y010891D02*
X011088Y010891D01*
X010930Y010733D02*
X000614Y010733D01*
X000614Y010574D02*
X010771Y010574D01*
X010613Y010416D02*
X000614Y010416D01*
X000614Y010257D02*
X010454Y010257D01*
X010296Y010099D02*
X000614Y010099D01*
X000614Y009940D02*
X010137Y009940D01*
X009979Y009782D02*
X000614Y009782D01*
X000614Y009623D02*
X009820Y009623D01*
X009662Y009465D02*
X000614Y009465D01*
X000614Y009306D02*
X009503Y009306D01*
X009345Y009148D02*
X000614Y009148D01*
X000614Y008989D02*
X009186Y008989D01*
X009028Y008831D02*
X000614Y008831D01*
X000614Y008672D02*
X008869Y008672D01*
X008711Y008514D02*
X000614Y008514D01*
X000614Y008355D02*
X008552Y008355D01*
X008394Y008197D02*
X000614Y008197D01*
X000614Y008038D02*
X008235Y008038D01*
X008077Y007880D02*
X000614Y007880D01*
X000614Y007721D02*
X007918Y007721D01*
X007760Y007563D02*
X000614Y007563D01*
X000614Y007404D02*
X007601Y007404D01*
X007443Y007246D02*
X000614Y007246D01*
X000614Y007087D02*
X007284Y007087D01*
X007126Y006929D02*
X000614Y006929D01*
X000614Y006770D02*
X006967Y006770D01*
X006809Y006612D02*
X000614Y006612D01*
X000614Y006453D02*
X006650Y006453D01*
X006492Y006295D02*
X000614Y006295D01*
X000614Y006136D02*
X006333Y006136D01*
X006175Y005978D02*
X000614Y005978D01*
X000614Y005819D02*
X006016Y005819D01*
X005858Y005661D02*
X000614Y005661D01*
X000614Y005502D02*
X005699Y005502D01*
X005541Y005344D02*
X000614Y005344D01*
X000614Y005185D02*
X005382Y005185D01*
X005224Y005027D02*
X000614Y005027D01*
X000614Y004868D02*
X005090Y004868D01*
X005090Y004710D02*
X000614Y004710D01*
X000614Y004551D02*
X005090Y004551D01*
X005090Y004393D02*
X000614Y004393D01*
X000614Y004234D02*
X005090Y004234D01*
X005090Y004076D02*
X003440Y004076D01*
X003380Y004100D02*
X003170Y004100D01*
X002975Y004019D01*
X002826Y003870D01*
X002745Y003675D01*
X002745Y003465D01*
X002826Y003270D01*
X002975Y003121D01*
X003170Y003040D01*
X003380Y003040D01*
X003575Y003121D01*
X003724Y003270D01*
X003805Y003465D01*
X003805Y003675D01*
X003724Y003870D01*
X003575Y004019D01*
X003380Y004100D01*
X003110Y004076D02*
X000614Y004076D01*
X000614Y003917D02*
X002872Y003917D01*
X002779Y003759D02*
X000614Y003759D01*
X000614Y003600D02*
X002745Y003600D01*
X002755Y003442D02*
X000614Y003442D01*
X000614Y003283D02*
X002820Y003283D01*
X002971Y003125D02*
X000614Y003125D01*
X000614Y002966D02*
X005111Y002966D01*
X005090Y003125D02*
X003579Y003125D01*
X003730Y003283D02*
X005090Y003283D01*
X005090Y003442D02*
X003795Y003442D01*
X003805Y003600D02*
X005090Y003600D01*
X005090Y003759D02*
X003771Y003759D01*
X003678Y003917D02*
X005090Y003917D01*
X006342Y003410D02*
X006933Y003410D01*
X007050Y003527D01*
X009108Y005585D01*
X009108Y005466D01*
X009184Y005284D01*
X009323Y005145D01*
X009505Y005070D01*
X009702Y005070D01*
X009884Y005145D01*
X010023Y005284D01*
X010098Y005466D01*
X010098Y005663D01*
X010023Y005845D01*
X009884Y005984D01*
X009702Y006060D01*
X009583Y006060D01*
X010610Y007087D01*
X010610Y007087D01*
X010610Y007026D01*
X010659Y006909D01*
X010749Y006819D01*
X010866Y006770D01*
X010293Y006770D01*
X010451Y006929D02*
X010651Y006929D01*
X010866Y006770D02*
X010994Y006770D01*
X012307Y006770D01*
X012149Y006612D02*
X010134Y006612D01*
X009976Y006453D02*
X011990Y006453D01*
X011832Y006295D02*
X009817Y006295D01*
X009659Y006136D02*
X011673Y006136D01*
X011515Y005978D02*
X009891Y005978D01*
X010034Y005819D02*
X011356Y005819D01*
X011198Y005661D02*
X010098Y005661D01*
X010098Y005502D02*
X011039Y005502D01*
X010881Y005344D02*
X010047Y005344D01*
X009923Y005185D02*
X010722Y005185D01*
X010564Y005027D02*
X008549Y005027D01*
X008708Y005185D02*
X009283Y005185D01*
X009159Y005344D02*
X008866Y005344D01*
X009025Y005502D02*
X009108Y005502D01*
X008391Y004868D02*
X010405Y004868D01*
X010247Y004710D02*
X008232Y004710D01*
X008074Y004551D02*
X010088Y004551D01*
X009930Y004393D02*
X007915Y004393D01*
X007757Y004234D02*
X009771Y004234D01*
X009613Y004076D02*
X007598Y004076D01*
X007440Y003917D02*
X009454Y003917D01*
X009296Y003759D02*
X007281Y003759D01*
X007123Y003600D02*
X009137Y003600D01*
X008979Y003442D02*
X006964Y003442D01*
X006342Y003410D02*
X006284Y003270D01*
X006135Y003121D01*
X005940Y003040D01*
X005730Y003040D01*
X005535Y003121D01*
X005490Y003165D01*
X005490Y003153D01*
X006670Y001973D01*
X006670Y002396D01*
X006764Y002490D01*
X007696Y002490D01*
X007790Y002396D01*
X007790Y001530D01*
X008216Y001530D01*
X008133Y001613D01*
X008048Y001819D01*
X008048Y002041D01*
X008133Y002247D01*
X008291Y002405D01*
X008450Y002471D01*
X008450Y002913D01*
X008567Y003030D01*
X014150Y008613D01*
X014150Y008697D01*
X014079Y008769D01*
X014030Y008886D01*
X014030Y009014D01*
X014079Y009131D01*
X014169Y009221D01*
X014286Y009270D01*
X014414Y009270D01*
X014531Y009221D01*
X014621Y009131D01*
X014670Y009014D01*
X014670Y008893D01*
X015564Y009787D01*
X015489Y009819D01*
X015417Y009890D01*
X013413Y009890D01*
X011833Y008310D01*
X011894Y008310D01*
X012011Y008261D01*
X012101Y008171D01*
X012150Y008054D01*
X012150Y007926D01*
X012101Y007809D01*
X012011Y007719D01*
X011894Y007670D01*
X011793Y007670D01*
X011250Y007127D01*
X011250Y007026D01*
X011201Y006909D01*
X011111Y006819D01*
X010994Y006770D01*
X011209Y006929D02*
X012466Y006929D01*
X012624Y007087D02*
X011250Y007087D01*
X011368Y007246D02*
X012783Y007246D01*
X012941Y007404D02*
X011527Y007404D01*
X011685Y007563D02*
X013100Y007563D01*
X013258Y007721D02*
X012014Y007721D01*
X012131Y007880D02*
X013417Y007880D01*
X013575Y008038D02*
X012150Y008038D01*
X012076Y008197D02*
X013734Y008197D01*
X013892Y008355D02*
X011878Y008355D01*
X012036Y008514D02*
X014051Y008514D01*
X014150Y008672D02*
X012195Y008672D01*
X012353Y008831D02*
X014053Y008831D01*
X014030Y008989D02*
X012512Y008989D01*
X012670Y009148D02*
X014095Y009148D01*
X014605Y009148D02*
X014925Y009148D01*
X015083Y009306D02*
X012829Y009306D01*
X012987Y009465D02*
X015242Y009465D01*
X015400Y009623D02*
X013146Y009623D01*
X013304Y009782D02*
X015559Y009782D01*
X015947Y010257D02*
X016034Y010257D01*
X016193Y010416D02*
X013518Y010416D01*
X013677Y010574D02*
X016351Y010574D01*
X016510Y010733D02*
X013835Y010733D01*
X013994Y010891D02*
X016668Y010891D01*
X016827Y011050D02*
X014152Y011050D01*
X014311Y011208D02*
X016270Y011208D01*
X016267Y011210D02*
X016344Y011170D01*
X016426Y011144D01*
X016512Y011130D01*
X016555Y011130D01*
X016555Y011680D01*
X016555Y011680D01*
X016005Y011680D01*
X016005Y011637D01*
X016019Y011551D01*
X016045Y011469D01*
X016085Y011392D01*
X016135Y011322D01*
X016197Y011260D01*
X016267Y011210D01*
X016103Y011367D02*
X014469Y011367D01*
X014628Y011525D02*
X016027Y011525D01*
X016005Y011684D02*
X014786Y011684D01*
X014945Y011842D02*
X016029Y011842D01*
X016108Y012001D02*
X015103Y012001D01*
X014435Y012318D02*
X013500Y012318D01*
X013454Y012159D02*
X014106Y012159D01*
X014030Y012001D02*
X013571Y012001D01*
X013590Y011842D02*
X014048Y011842D01*
X014164Y011684D02*
X013516Y011684D01*
X013188Y011525D02*
X014062Y011525D01*
X013904Y011367D02*
X013029Y011367D01*
X012871Y011208D02*
X013745Y011208D01*
X013587Y011050D02*
X012712Y011050D01*
X012554Y010891D02*
X013428Y010891D01*
X013270Y010733D02*
X012395Y010733D01*
X012270Y010574D02*
X013111Y010574D01*
X012953Y010416D02*
X012232Y010416D01*
X012031Y010257D02*
X012794Y010257D01*
X012636Y010099D02*
X011281Y010099D01*
X011440Y010257D02*
X011869Y010257D01*
X011668Y010416D02*
X011598Y010416D01*
X011123Y009940D02*
X012477Y009940D01*
X012319Y009782D02*
X010964Y009782D01*
X010806Y009623D02*
X012160Y009623D01*
X012002Y009465D02*
X010650Y009465D01*
X010650Y009306D02*
X011843Y009306D01*
X011685Y009148D02*
X010650Y009148D01*
X010650Y008989D02*
X011526Y008989D01*
X011368Y008831D02*
X010650Y008831D01*
X010650Y008672D02*
X011209Y008672D01*
X011051Y008514D02*
X010650Y008514D01*
X010650Y008355D02*
X010892Y008355D01*
X013950Y007246D02*
X014932Y007246D01*
X016162Y007721D02*
X016316Y007721D01*
X016320Y007563D02*
X016475Y007563D01*
X016479Y007404D02*
X016633Y007404D01*
X016637Y007246D02*
X016730Y007246D01*
X017550Y007246D02*
X017570Y007246D01*
X017570Y007404D02*
X017550Y007404D01*
X017550Y007563D02*
X017600Y007563D01*
X017550Y007721D02*
X017758Y007721D01*
X017917Y007880D02*
X017550Y007880D01*
X017681Y008038D02*
X018075Y008038D01*
X018234Y008197D02*
X017839Y008197D01*
X017998Y008355D02*
X018350Y008355D01*
X018350Y008514D02*
X018326Y008514D01*
X017749Y008672D02*
X017715Y008672D01*
X017591Y008514D02*
X017556Y008514D01*
X017432Y008355D02*
X017398Y008355D01*
X017274Y008197D02*
X017226Y008197D01*
X017150Y008038D02*
X016565Y008038D01*
X016470Y008197D02*
X016874Y008197D01*
X016751Y008355D02*
X016470Y008355D01*
X016470Y008514D02*
X016730Y008514D01*
X016799Y008672D02*
X016470Y008672D01*
X016470Y008831D02*
X017308Y008831D01*
X017466Y008989D02*
X016470Y008989D01*
X014766Y008989D02*
X014670Y008989D01*
X014863Y007880D02*
X015107Y007880D01*
X015513Y007880D02*
X016158Y007880D01*
X016723Y007880D02*
X017150Y007880D01*
X017150Y007721D02*
X016882Y007721D01*
X017550Y007087D02*
X017570Y007087D01*
X020246Y008197D02*
X021724Y008197D01*
X021622Y008355D02*
X020088Y008355D01*
X019929Y008514D02*
X021464Y008514D01*
X021305Y008672D02*
X019771Y008672D01*
X019612Y008831D02*
X021170Y008831D01*
X021170Y008989D02*
X019454Y008989D01*
X019959Y009306D02*
X020081Y009306D01*
X021596Y009623D02*
X021873Y009623D01*
X021830Y009782D02*
X021688Y009782D01*
X021679Y009940D02*
X021866Y009940D01*
X021950Y010099D02*
X021574Y010099D01*
X021570Y010257D02*
X021950Y010257D01*
X021950Y010416D02*
X021570Y010416D01*
X021529Y010574D02*
X021950Y010574D01*
X023357Y010416D02*
X023390Y010416D01*
X018349Y010257D02*
X017020Y010257D01*
X017178Y010416D02*
X018148Y010416D01*
X018110Y010574D02*
X017337Y010574D01*
X017495Y010733D02*
X017985Y010733D01*
X017667Y010891D02*
X017654Y010891D01*
X016850Y011208D02*
X016840Y011208D01*
X016555Y011208D02*
X016555Y011208D01*
X016555Y011367D02*
X016555Y011367D01*
X016555Y011525D02*
X016555Y011525D01*
X014593Y012476D02*
X013659Y012476D01*
X013817Y012635D02*
X014752Y012635D01*
X014910Y012793D02*
X013976Y012793D01*
X014134Y012952D02*
X015069Y012952D01*
X015227Y013110D02*
X014293Y013110D01*
X014451Y013269D02*
X015386Y013269D01*
X009754Y016280D02*
X009606Y016280D01*
X009475Y016439D02*
X009885Y016439D01*
X009780Y016756D02*
X009559Y016756D01*
X009641Y016914D02*
X009700Y016914D01*
X009680Y017073D02*
X009660Y017073D01*
X009627Y017231D02*
X009711Y017231D01*
X009807Y017390D02*
X009524Y017390D01*
X010097Y017548D02*
X006066Y017548D01*
X005604Y017548D02*
X003506Y017548D01*
X003705Y017390D02*
X005405Y017390D01*
X005328Y017231D02*
X003782Y017231D01*
X003805Y017073D02*
X005305Y017073D01*
X005326Y016914D02*
X003784Y016914D01*
X003710Y016756D02*
X005400Y016756D01*
X005592Y016597D02*
X003518Y016597D01*
X003044Y017548D02*
X001244Y017548D01*
X001849Y015705D02*
X001849Y015705D01*
X005815Y015646D02*
X005855Y015646D01*
X005855Y015488D02*
X005815Y015488D01*
X005815Y015329D02*
X005855Y015329D01*
X005855Y015171D02*
X005815Y015171D01*
X005815Y015012D02*
X005855Y015012D01*
X006256Y015646D02*
X007913Y015646D01*
X007764Y015805D02*
X006031Y015805D01*
X005855Y015805D02*
X005815Y015805D01*
X010383Y016597D02*
X010434Y016597D01*
X010580Y016756D02*
X010593Y016756D01*
X010680Y017073D02*
X010740Y017073D01*
X032736Y008514D02*
X034031Y008514D01*
X034189Y008672D02*
X032895Y008672D01*
X027436Y005819D02*
X023644Y005819D01*
X023802Y005661D02*
X027278Y005661D01*
X027119Y005502D02*
X023961Y005502D01*
X024284Y005344D02*
X026961Y005344D01*
X026802Y005185D02*
X024330Y005185D01*
X024297Y005027D02*
X026644Y005027D01*
X026485Y004868D02*
X024117Y004868D01*
X023832Y004710D02*
X026327Y004710D01*
X026168Y004551D02*
X023674Y004551D01*
X023515Y004393D02*
X026010Y004393D01*
X025851Y004234D02*
X023357Y004234D01*
X023198Y004076D02*
X025693Y004076D01*
X025534Y003917D02*
X023040Y003917D01*
X022881Y003759D02*
X025376Y003759D01*
X025217Y003600D02*
X022723Y003600D01*
X022564Y003442D02*
X025059Y003442D01*
X024900Y003283D02*
X022406Y003283D01*
X021707Y002810D02*
X021590Y002927D01*
X021410Y003107D01*
X021410Y003513D01*
X021470Y003573D01*
X021470Y003767D01*
X020130Y005107D01*
X020130Y003915D01*
X020166Y003930D01*
X020294Y003930D01*
X020411Y003881D01*
X020501Y003791D01*
X020550Y003674D01*
X020550Y003546D01*
X020501Y003429D01*
X020430Y003357D01*
X020430Y002013D01*
X020450Y001993D01*
X020450Y002041D01*
X020535Y002247D01*
X020692Y002405D01*
X020898Y002490D01*
X021121Y002490D01*
X021327Y002405D01*
X021484Y002247D01*
X021570Y002041D01*
X021570Y001819D01*
X021484Y001613D01*
X021327Y001455D01*
X021121Y001370D01*
X021073Y001370D01*
X021333Y001110D01*
X029705Y001110D01*
X029690Y001146D01*
X029690Y001247D01*
X029567Y001370D01*
X028811Y001370D01*
X028717Y001464D01*
X028717Y002396D01*
X028811Y002490D01*
X029744Y002490D01*
X029837Y002396D01*
X029837Y001666D01*
X029973Y001530D01*
X030074Y001530D01*
X030191Y001481D01*
X030281Y001391D01*
X030330Y001274D01*
X030330Y001146D01*
X030315Y001110D01*
X030347Y001110D01*
X030607Y001370D01*
X030544Y001370D01*
X030338Y001455D01*
X030180Y001613D01*
X030095Y001819D01*
X030095Y002041D01*
X030131Y002127D01*
X029507Y002750D01*
X026483Y002750D01*
X026411Y002679D01*
X026294Y002630D01*
X026166Y002630D01*
X026049Y002679D01*
X025959Y002769D01*
X025945Y002802D01*
X025504Y002361D01*
X025618Y002247D01*
X025703Y002041D01*
X025703Y001819D01*
X025618Y001613D01*
X025461Y001455D01*
X025255Y001370D01*
X025032Y001370D01*
X024826Y001455D01*
X024669Y001613D01*
X024583Y001819D01*
X024583Y002041D01*
X024669Y002247D01*
X024826Y002405D01*
X025032Y002490D01*
X025067Y002490D01*
X026630Y004053D01*
X026630Y004053D01*
X026747Y004170D01*
X026747Y004170D01*
X026942Y004365D01*
X026919Y004389D01*
X026870Y004506D01*
X026870Y004634D01*
X026908Y004725D01*
X024993Y002810D01*
X021707Y002810D01*
X021551Y002966D02*
X020430Y002966D01*
X020430Y002808D02*
X025385Y002808D01*
X025543Y002966D02*
X025149Y002966D01*
X025307Y003125D02*
X025702Y003125D01*
X025860Y003283D02*
X025466Y003283D01*
X025624Y003442D02*
X026019Y003442D01*
X026177Y003600D02*
X025783Y003600D01*
X025941Y003759D02*
X026336Y003759D01*
X026494Y003917D02*
X026100Y003917D01*
X026258Y004076D02*
X026653Y004076D01*
X026811Y004234D02*
X026417Y004234D01*
X026575Y004393D02*
X026917Y004393D01*
X026870Y004551D02*
X026734Y004551D01*
X026892Y004710D02*
X026901Y004710D01*
X026340Y002649D02*
X029608Y002649D01*
X029767Y002491D02*
X028051Y002491D01*
X028035Y002496D02*
X027945Y002510D01*
X027937Y002510D01*
X027937Y001968D01*
X027861Y001968D01*
X027861Y001892D01*
X027319Y001892D01*
X027319Y001884D01*
X027334Y001794D01*
X027362Y001707D01*
X027403Y001626D01*
X027457Y001552D01*
X027521Y001488D01*
X027595Y001434D01*
X027677Y001392D01*
X027763Y001364D01*
X027854Y001350D01*
X027861Y001350D01*
X027861Y001892D01*
X027937Y001892D01*
X027937Y001350D01*
X027945Y001350D01*
X028035Y001364D01*
X028122Y001392D01*
X028203Y001434D01*
X028277Y001488D01*
X028342Y001552D01*
X028395Y001626D01*
X028437Y001707D01*
X028465Y001794D01*
X028479Y001884D01*
X028479Y001892D01*
X027937Y001892D01*
X027937Y001968D01*
X028479Y001968D01*
X028479Y001976D01*
X028465Y002066D01*
X028437Y002153D01*
X028395Y002234D01*
X028342Y002308D01*
X028277Y002372D01*
X028203Y002426D01*
X028122Y002468D01*
X028035Y002496D01*
X027937Y002491D02*
X027861Y002491D01*
X027861Y002510D02*
X027854Y002510D01*
X027763Y002496D01*
X027677Y002468D01*
X027595Y002426D01*
X027521Y002372D01*
X027457Y002308D01*
X027403Y002234D01*
X027362Y002153D01*
X027334Y002066D01*
X027319Y001976D01*
X027319Y001968D01*
X027861Y001968D01*
X027861Y002510D01*
X027747Y002491D02*
X025633Y002491D01*
X025533Y002332D02*
X026131Y002332D01*
X026204Y002405D02*
X026047Y002247D01*
X025961Y002041D01*
X025961Y001819D01*
X026047Y001613D01*
X026204Y001455D01*
X026410Y001370D01*
X026633Y001370D01*
X026839Y001455D01*
X026996Y001613D01*
X027081Y001819D01*
X027081Y002041D01*
X026996Y002247D01*
X026839Y002405D01*
X026633Y002490D01*
X026410Y002490D01*
X026204Y002405D01*
X026120Y002649D02*
X025792Y002649D01*
X025226Y002649D02*
X020430Y002649D01*
X020430Y002491D02*
X025068Y002491D01*
X024753Y002332D02*
X024155Y002332D01*
X024083Y002405D02*
X024240Y002247D01*
X024325Y002041D01*
X024325Y001819D01*
X024240Y001613D01*
X024083Y001455D01*
X023877Y001370D01*
X023654Y001370D01*
X023448Y001455D01*
X023291Y001613D01*
X023205Y001819D01*
X023205Y002041D01*
X023291Y002247D01*
X023448Y002405D01*
X023654Y002490D01*
X023877Y002490D01*
X024083Y002405D01*
X024271Y002174D02*
X024638Y002174D01*
X024583Y002015D02*
X024325Y002015D01*
X024325Y001857D02*
X024583Y001857D01*
X024633Y001698D02*
X024275Y001698D01*
X024167Y001540D02*
X024742Y001540D01*
X025005Y001381D02*
X023903Y001381D01*
X023627Y001381D02*
X022525Y001381D01*
X022499Y001370D02*
X022705Y001455D01*
X022862Y001613D01*
X022947Y001819D01*
X022947Y002041D01*
X022862Y002247D01*
X022705Y002405D01*
X022499Y002490D01*
X022276Y002490D01*
X022070Y002405D01*
X021913Y002247D01*
X021827Y002041D01*
X021827Y001819D01*
X021913Y001613D01*
X022070Y001455D01*
X022276Y001370D01*
X022499Y001370D01*
X022250Y001381D02*
X021147Y001381D01*
X021220Y001223D02*
X029690Y001223D01*
X029963Y001540D02*
X030254Y001540D01*
X030286Y001381D02*
X030517Y001381D01*
X030460Y001223D02*
X030330Y001223D01*
X030145Y001698D02*
X029837Y001698D01*
X029837Y001857D02*
X030095Y001857D01*
X030095Y002015D02*
X029837Y002015D01*
X029837Y002174D02*
X030084Y002174D01*
X029925Y002332D02*
X029837Y002332D01*
X028717Y002332D02*
X028318Y002332D01*
X028426Y002174D02*
X028717Y002174D01*
X028717Y002015D02*
X028473Y002015D01*
X028475Y001857D02*
X028717Y001857D01*
X028717Y001698D02*
X028432Y001698D01*
X028329Y001540D02*
X028717Y001540D01*
X028800Y001381D02*
X028087Y001381D01*
X027937Y001381D02*
X027861Y001381D01*
X027712Y001381D02*
X026659Y001381D01*
X026383Y001381D02*
X025281Y001381D01*
X025545Y001540D02*
X026120Y001540D01*
X026011Y001698D02*
X025653Y001698D01*
X025703Y001857D02*
X025961Y001857D01*
X025961Y002015D02*
X025703Y002015D01*
X025649Y002174D02*
X026016Y002174D01*
X026911Y002332D02*
X027481Y002332D01*
X027372Y002174D02*
X027027Y002174D01*
X027081Y002015D02*
X027326Y002015D01*
X027324Y001857D02*
X027081Y001857D01*
X027031Y001698D02*
X027367Y001698D01*
X027470Y001540D02*
X026923Y001540D01*
X027861Y001540D02*
X027937Y001540D01*
X027937Y001698D02*
X027861Y001698D01*
X027861Y001857D02*
X027937Y001857D01*
X027937Y002015D02*
X027861Y002015D01*
X027861Y002174D02*
X027937Y002174D01*
X027937Y002332D02*
X027861Y002332D01*
X023375Y002332D02*
X022777Y002332D01*
X022893Y002174D02*
X023260Y002174D01*
X023205Y002015D02*
X022947Y002015D01*
X022947Y001857D02*
X023205Y001857D01*
X023255Y001698D02*
X022898Y001698D01*
X022789Y001540D02*
X023364Y001540D01*
X021986Y001540D02*
X021411Y001540D01*
X021520Y001698D02*
X021877Y001698D01*
X021827Y001857D02*
X021570Y001857D01*
X021570Y002015D02*
X021827Y002015D01*
X021882Y002174D02*
X021515Y002174D01*
X021399Y002332D02*
X021998Y002332D01*
X020620Y002332D02*
X020430Y002332D01*
X020430Y002174D02*
X020504Y002174D01*
X020450Y002015D02*
X020430Y002015D01*
X020430Y003125D02*
X021410Y003125D01*
X021410Y003283D02*
X020430Y003283D01*
X020507Y003442D02*
X021410Y003442D01*
X021470Y003600D02*
X020550Y003600D01*
X020515Y003759D02*
X021470Y003759D01*
X021320Y003917D02*
X020325Y003917D01*
X020135Y003917D02*
X020130Y003917D01*
X020130Y004076D02*
X021162Y004076D01*
X021003Y004234D02*
X020130Y004234D01*
X020130Y004393D02*
X020845Y004393D01*
X020686Y004551D02*
X020130Y004551D01*
X020130Y004710D02*
X020528Y004710D01*
X020369Y004868D02*
X020130Y004868D01*
X020130Y005027D02*
X020211Y005027D01*
X022102Y004234D02*
X022491Y004234D01*
X022333Y004076D02*
X022106Y004076D01*
X017761Y003917D02*
X013980Y003917D01*
X014138Y004076D02*
X017599Y004076D01*
X017570Y004234D02*
X014297Y004234D01*
X014455Y004393D02*
X017425Y004393D01*
X017266Y004551D02*
X014614Y004551D01*
X014772Y004710D02*
X017108Y004710D01*
X016949Y004868D02*
X014931Y004868D01*
X015089Y005027D02*
X016791Y005027D01*
X016790Y005185D02*
X015248Y005185D01*
X015406Y005344D02*
X016790Y005344D01*
X016505Y005502D02*
X015565Y005502D01*
X015723Y005661D02*
X016389Y005661D01*
X015247Y005750D02*
X012947Y003450D01*
X012830Y003333D01*
X012830Y002673D01*
X012810Y002653D01*
X012810Y002654D01*
X012761Y002771D01*
X012690Y002843D01*
X012690Y003587D01*
X015025Y005922D01*
X015039Y005889D01*
X015129Y005799D01*
X015246Y005750D01*
X015247Y005750D01*
X015158Y005661D02*
X014763Y005661D01*
X014922Y005819D02*
X015108Y005819D01*
X014999Y005502D02*
X014605Y005502D01*
X014446Y005344D02*
X014841Y005344D01*
X014682Y005185D02*
X014288Y005185D01*
X014129Y005027D02*
X014524Y005027D01*
X014365Y004868D02*
X013971Y004868D01*
X013812Y004710D02*
X014207Y004710D01*
X014048Y004551D02*
X013654Y004551D01*
X013495Y004393D02*
X013890Y004393D01*
X013731Y004234D02*
X013337Y004234D01*
X013178Y004076D02*
X013573Y004076D01*
X013414Y003917D02*
X013020Y003917D01*
X012861Y003759D02*
X013256Y003759D01*
X013097Y003600D02*
X012703Y003600D01*
X012690Y003442D02*
X012939Y003442D01*
X012830Y003283D02*
X012690Y003283D01*
X012690Y003125D02*
X012830Y003125D01*
X012830Y002966D02*
X012690Y002966D01*
X012725Y002808D02*
X012830Y002808D01*
X013230Y002808D02*
X015470Y002808D01*
X015494Y002649D02*
X013230Y002649D01*
X013213Y002491D02*
X015590Y002491D01*
X015990Y002491D02*
X016457Y002491D01*
X016486Y002332D02*
X015990Y002332D01*
X016003Y002174D02*
X016370Y002174D01*
X016316Y002015D02*
X016058Y002015D01*
X016058Y001857D02*
X016316Y001857D01*
X016366Y001698D02*
X016008Y001698D01*
X015899Y001540D02*
X016474Y001540D01*
X015096Y001540D02*
X014521Y001540D01*
X014630Y001698D02*
X014988Y001698D01*
X014938Y001857D02*
X014680Y001857D01*
X014680Y002015D02*
X014938Y002015D01*
X014992Y002174D02*
X014625Y002174D01*
X014510Y002332D02*
X015108Y002332D01*
X016086Y002649D02*
X016168Y002649D01*
X015533Y002966D02*
X013230Y002966D01*
X013230Y003125D02*
X015693Y003125D01*
X015534Y003283D02*
X013346Y003283D01*
X013504Y003442D02*
X013533Y003442D01*
X011893Y004076D02*
X010178Y004076D01*
X010337Y004234D02*
X012051Y004234D01*
X012210Y004393D02*
X010495Y004393D01*
X010654Y004551D02*
X012368Y004551D01*
X012527Y004710D02*
X010812Y004710D01*
X010971Y004868D02*
X012685Y004868D01*
X012844Y005027D02*
X011129Y005027D01*
X011288Y005185D02*
X013002Y005185D01*
X013161Y005344D02*
X011446Y005344D01*
X011605Y005502D02*
X013319Y005502D01*
X013478Y005661D02*
X011763Y005661D01*
X011922Y005819D02*
X013550Y005819D01*
X013550Y005978D02*
X012080Y005978D01*
X011734Y003917D02*
X010020Y003917D01*
X009861Y003759D02*
X011576Y003759D01*
X011417Y003600D02*
X009703Y003600D01*
X009544Y003442D02*
X011259Y003442D01*
X011100Y003283D02*
X009386Y003283D01*
X009227Y003125D02*
X010942Y003125D01*
X010783Y002966D02*
X009069Y002966D01*
X008910Y002808D02*
X010625Y002808D01*
X010466Y002649D02*
X008850Y002649D01*
X008850Y002491D02*
X010308Y002491D01*
X009596Y002332D02*
X008998Y002332D01*
X009113Y002174D02*
X009481Y002174D01*
X009426Y002015D02*
X009168Y002015D01*
X009168Y001857D02*
X009426Y001857D01*
X009476Y001698D02*
X009118Y001698D01*
X009009Y001540D02*
X009584Y001540D01*
X008206Y001540D02*
X007790Y001540D01*
X007790Y001698D02*
X008098Y001698D01*
X008048Y001857D02*
X007790Y001857D01*
X007790Y002015D02*
X008048Y002015D01*
X008103Y002174D02*
X007790Y002174D01*
X007790Y002332D02*
X008218Y002332D01*
X008450Y002491D02*
X006152Y002491D01*
X005994Y002649D02*
X008450Y002649D01*
X008450Y002808D02*
X005835Y002808D01*
X005677Y002966D02*
X008503Y002966D01*
X008662Y003125D02*
X006139Y003125D01*
X006290Y003283D02*
X008820Y003283D01*
X006670Y002332D02*
X006311Y002332D01*
X006469Y002174D02*
X006670Y002174D01*
X006670Y002015D02*
X006628Y002015D01*
X006379Y001698D02*
X006377Y001698D01*
X006325Y001540D02*
X006470Y001540D01*
X006516Y001381D02*
X006204Y001381D01*
X005855Y001381D02*
X005815Y001381D01*
X005815Y001240D02*
X005815Y001770D01*
X005285Y001770D01*
X005285Y001747D01*
X005299Y001661D01*
X005325Y001579D01*
X005365Y001502D01*
X005415Y001432D01*
X005477Y001370D01*
X005547Y001320D01*
X005624Y001280D01*
X005706Y001254D01*
X005792Y001240D01*
X005815Y001240D01*
X005466Y001381D02*
X003616Y001381D01*
X003575Y001341D02*
X003724Y001490D01*
X003805Y001685D01*
X003805Y001895D01*
X003724Y002090D01*
X003575Y002239D01*
X003380Y002320D01*
X003170Y002320D01*
X002975Y002239D01*
X002826Y002090D01*
X002745Y001895D01*
X002745Y001685D01*
X002826Y001490D01*
X002975Y001341D01*
X003170Y001260D01*
X003380Y001260D01*
X003575Y001341D01*
X003745Y001540D02*
X005345Y001540D01*
X005293Y001698D02*
X003805Y001698D01*
X003805Y001857D02*
X005289Y001857D01*
X005332Y002015D02*
X003755Y002015D01*
X003641Y002174D02*
X005441Y002174D01*
X005741Y002332D02*
X002230Y002332D01*
X002389Y002174D02*
X002909Y002174D01*
X002795Y002015D02*
X002461Y002015D01*
X002527Y001857D02*
X002745Y001857D01*
X002745Y001698D02*
X002530Y001698D01*
X002530Y001540D02*
X002805Y001540D01*
X002934Y001381D02*
X002476Y001381D01*
X002411Y001223D02*
X006675Y001223D01*
X005855Y001540D02*
X005815Y001540D01*
X005815Y001698D02*
X005855Y001698D01*
X005587Y002491D02*
X001944Y002491D01*
X001416Y002491D02*
X000614Y002491D01*
X000614Y002649D02*
X005428Y002649D01*
X005270Y002808D02*
X000614Y002808D01*
X000614Y002332D02*
X001130Y002332D01*
X000971Y002174D02*
X000614Y002174D01*
X000614Y002015D02*
X000899Y002015D01*
X000833Y001857D02*
X000614Y001857D01*
X000614Y001698D02*
X000830Y001698D01*
X000830Y001540D02*
X000615Y001540D01*
X000633Y001381D02*
X000884Y001381D01*
X000949Y001223D02*
X000684Y001223D01*
X000760Y001064D02*
X001094Y001064D01*
X000875Y000906D02*
X001329Y000906D01*
X005518Y003125D02*
X005531Y003125D01*
X012022Y001540D02*
X012340Y001540D01*
X012232Y001698D02*
X012181Y001698D01*
X013143Y001540D02*
X013718Y001540D01*
X013610Y001698D02*
X013252Y001698D01*
X013302Y001857D02*
X013560Y001857D01*
X013560Y002015D02*
X013302Y002015D01*
X013247Y002174D02*
X013614Y002174D01*
X013730Y002332D02*
X013132Y002332D01*
D23*
X015055Y002930D03*
X013180Y003805D03*
X013555Y004305D03*
X012055Y004555D03*
X014710Y005450D03*
X016700Y005280D03*
X017055Y004555D03*
X018030Y003510D03*
X019055Y004180D03*
X020305Y004055D03*
X022275Y004160D03*
X022930Y003430D03*
X023490Y002570D03*
X025930Y002530D03*
X026090Y003750D03*
X024850Y005230D03*
X025930Y005530D03*
X023670Y006470D03*
X021805Y005805D03*
X025680Y008055D03*
X026555Y008930D03*
X024670Y009190D03*
X022510Y009310D03*
X020990Y010410D03*
X021680Y010680D03*
X025555Y010430D03*
X029590Y011530D03*
X030490Y013030D03*
X032470Y013750D03*
X037305Y015555D03*
X024055Y013555D03*
X023770Y012490D03*
X021180Y013555D03*
X015805Y011180D03*
X014005Y010565D03*
X014005Y009425D03*
X012370Y008650D03*
X013555Y008555D03*
X012805Y007680D03*
X014055Y007430D03*
X015130Y007020D03*
X015500Y008110D03*
X016980Y008065D03*
X018180Y008305D03*
X016750Y009130D03*
X020370Y008890D03*
X014185Y012485D03*
X014185Y014105D03*
X010230Y011010D03*
X011250Y009060D03*
X011730Y007090D03*
X030260Y009300D03*
X032650Y009310D03*
X034450Y009130D03*
X032890Y008230D03*
X034555Y007805D03*
X034930Y006680D03*
X034305Y006055D03*
X032055Y005555D03*
X031570Y006370D03*
M02*
