%
M48
M72
T01C0.0120
T02C0.0320
T03C0.0354
T04C0.0360
T05C0.0400
T06C0.0433
T07C0.0472
T08C0.0630
T09C0.0730
T10C0.0900
T11C0.1180
T12C0.1300
%
T01
X12055Y4555
X13555Y4305
X14710Y5450
X15670Y5470
X16700Y5280
X16690Y5770
X15310Y6070
X15790Y6430
X16210Y6430
X15130Y7020
X14055Y7430
X14505Y7855
X14900Y7990
X14945Y8400
X13555Y8555
X12915Y8530
X12370Y8650
X11250Y9060
X11830Y7990
X11830Y7570
X12805Y7680
X11730Y7090
X10930Y7090
X9550Y6730
X15975Y9430
X16650Y9130
X17050Y8470
X16570Y8170
X18180Y8305
X18880Y8360
X19585Y8095
X19390Y7510
X19090Y7210
X18195Y7445
X17050Y7270
X17770Y6670
X18430Y6070
X19810Y5890
X21115Y6310
X20710Y6610
X21310Y6910
X22090Y6910
X22090Y7330
X21910Y7930
X20350Y7390
X21665Y6260
X22390Y6190
X21805Y5805
X22090Y4980
X23410Y4990
X24010Y5170
X24850Y5230
X25210Y5590
X24910Y6010
X25270Y6250
X23670Y6470
X23650Y6070
X23230Y7090
X23650Y7270
X24250Y7150
X25210Y7150
X26770Y7450
X28270Y7150
X30310Y7330
X28090Y8410
X26555Y8930
X26770Y10270
X26770Y10930
X25555Y10430
X23590Y11710
X21680Y10680
X20990Y10410
X19990Y10690
X19330Y10570
X18730Y10870
X18430Y10570
X17830Y11170
X15805Y11180
X15920Y10090
X18550Y9370
X18195Y8780
X20370Y8890
X22150Y9790
X22430Y9305
X22930Y9190
X21370Y9850
X18670Y12430
X18370Y13150
X19870Y13750
X20290Y13330
X19330Y14350
X21490Y14230
X21610Y14650
X21730Y17230
X14305Y13805
X13570Y15310
X12970Y15610
X10930Y16810
X13270Y11890
X10230Y11010
X11950Y10570
X19390Y4990
X17770Y4810
X17055Y4555
X17890Y4210
X19055Y4180
X18030Y3510
X20305Y4055
X21790Y4150
X22275Y4160
X22870Y3610
X22210Y3010
X21910Y3310
X23490Y2570
X25635Y3890
X26090Y3750
X27180Y3680
X26230Y2950
X26770Y2650
X29805Y3680
X27910Y5050
X27055Y4805
X27930Y5555
X29650Y5770
X30310Y5950
X34305Y6055
X34930Y6680
X34555Y7805
X31990Y9010
X31690Y8710
X31090Y9070
X30260Y9300
X31810Y10030
X32470Y12910
X33010Y13450
X33790Y13810
X34210Y13390
X37305Y15555
X34270Y2650
X35530Y1390
X30010Y1210
X19510Y910
X16150Y2530
X12490Y2590
T02
X16555Y11680
X16555Y12680
X20250Y12055
X22150Y12055
X25055Y12180
X25055Y13180
X25055Y14180
X25055Y15180
X25055Y16180
X25055Y17180
X29055Y17180
X29055Y16180
X29055Y15180
X29055Y14180
X29055Y13180
X29055Y12180
T03
X10180Y16055
X9180Y16055
X8180Y16055
X8180Y17055
X9180Y17055
X10180Y17055
T04
X34900Y5922
X35680Y5922
X35680Y4938
X34900Y4938
T05
X5835Y3570
X3275Y3570
X3275Y1790
X5835Y1790
X5835Y15290
X3275Y15290
X3275Y17070
X5835Y17070
T06
X9603Y13872
T07
X13555Y16430
X14933Y16430
X16311Y16430
X17689Y16430
X19067Y16430
X20445Y16430
X21823Y16430
X23201Y16430
X23765Y1930
X25143Y1930
X26521Y1930
X27899Y1930
X29277Y1930
X30655Y1930
X32033Y1930
X33411Y1930
X22387Y1930
X21010Y1930
X19632Y1930
X18254Y1930
X16876Y1930
X15498Y1930
X14120Y1930
X12742Y1930
X11364Y1930
X9986Y1930
X8608Y1930
X7230Y1930
T08
X9603Y5565
T09
X30455Y15430
X35655Y15430
T10
X36750Y7800
X36750Y3060
T11
X37143Y10505
X34781Y10505
X35962Y12355
T12
X1680Y1680
X1680Y16555
X38180Y16555
X38180Y1680
M30
