G75*
%MOIN*%
%OFA0B0*%
%FSLAX24Y24*%
%IPPOS*%
%LPD*%
%AMOC8*
5,1,8,0,0,1.08239X$1,22.5*
%
%ADD10C,0.0640*%
%ADD11C,0.0513*%
%ADD12C,0.0710*%
%ADD13R,0.1175X0.1175*%
%ADD14C,0.1380*%
%ADD15R,0.0880X0.0880*%
%ADD16C,0.0880*%
%ADD17OC8,0.0640*%
%ADD18C,0.0720*%
%ADD19C,0.0820*%
%ADD20C,0.1780*%
%ADD21C,0.0740*%
D10*
X020896Y011455D03*
X022796Y011455D03*
D11*
X009269Y013647D03*
D12*
X009269Y005340D03*
D13*
X030121Y015205D03*
X035321Y015205D03*
D14*
X001346Y001455D03*
X001346Y016330D03*
X036416Y007575D03*
X036416Y002835D03*
X037846Y001455D03*
X037846Y016330D03*
D15*
X013221Y016205D03*
X017920Y001705D03*
X028943Y001705D03*
X006896Y001705D03*
D16*
X008274Y001705D03*
X009652Y001705D03*
X011030Y001705D03*
X012408Y001705D03*
X013786Y001705D03*
X015164Y001705D03*
X016542Y001705D03*
X019298Y001705D03*
X020676Y001705D03*
X022054Y001705D03*
X023431Y001705D03*
X024809Y001705D03*
X026187Y001705D03*
X027565Y001705D03*
X030321Y001705D03*
X031699Y001705D03*
X033077Y001705D03*
X022867Y016205D03*
X021489Y016205D03*
X020111Y016205D03*
X018733Y016205D03*
X017355Y016205D03*
X015977Y016205D03*
X014599Y016205D03*
D17*
X024721Y015955D03*
X024721Y016955D03*
X028721Y016955D03*
X028721Y015955D03*
X028721Y014955D03*
X028721Y013955D03*
X028721Y012955D03*
X028721Y011955D03*
X024721Y011955D03*
X024721Y012955D03*
X024721Y013955D03*
X024721Y014955D03*
X022103Y009053D03*
X019743Y009053D03*
X019743Y007093D03*
X022103Y007093D03*
D18*
X009221Y015830D03*
X008221Y015830D03*
X007221Y015830D03*
X007221Y016830D03*
X008221Y016830D03*
X009221Y016830D03*
D19*
X010471Y016580D03*
X011471Y016580D03*
X005251Y017095D03*
X002691Y017095D03*
X002691Y015315D03*
X005251Y015315D03*
D20*
X034447Y010280D03*
X036809Y010280D03*
X035628Y012130D03*
D21*
X035346Y005697D03*
X034566Y005697D03*
X034566Y004713D03*
X035346Y004713D03*
M02*
