G75*
%MOIN*%
%OFA0B0*%
%FSLAX24Y24*%
%IPPOS*%
%LPD*%
%AMOC8*
5,1,8,0,0,1.08239X$1,22.5*
%
%ADD10C,0.0000*%
%ADD11C,0.0560*%
%ADD12R,0.0433X0.0394*%
%ADD13R,0.0315X0.0472*%
%ADD14R,0.0260X0.0800*%
%ADD15R,0.1102X0.0787*%
%ADD16R,0.1575X0.0276*%
%ADD17R,0.1575X0.0472*%
%ADD18R,0.1095X0.1095*%
%ADD19R,0.1560X0.1560*%
%ADD20R,0.0394X0.0433*%
%ADD21OC8,0.0560*%
%ADD22C,0.0640*%
%ADD23C,0.0740*%
%ADD24C,0.1700*%
%ADD25R,0.0394X0.0551*%
%ADD26R,0.0480X0.0245*%
%ADD27C,0.0660*%
%ADD28C,0.1300*%
%ADD29R,0.0800X0.0800*%
%ADD30C,0.0800*%
%ADD31R,0.0160X0.0320*%
%ADD32R,0.0551X0.0630*%
%ADD33R,0.0315X0.0315*%
%ADD34R,0.0276X0.0276*%
%ADD35R,0.0256X0.0197*%
%ADD36R,0.0140X0.0240*%
%ADD37R,0.0630X0.0390*%
%ADD38R,0.0210X0.0780*%
%ADD39R,0.0098X0.0394*%
%ADD40R,0.0394X0.0098*%
%ADD41R,0.0787X0.0787*%
%ADD42R,0.0630X0.0551*%
%ADD43R,0.0320X0.0120*%
%ADD44R,0.0120X0.0320*%
%ADD45R,0.1280X0.1280*%
%ADD46R,0.0079X0.0157*%
%ADD47R,0.0157X0.0079*%
%ADD48R,0.0500X0.0250*%
%ADD49R,0.0250X0.0500*%
%ADD50C,0.0080*%
%ADD51C,0.0320*%
%ADD52C,0.0160*%
%ADD53OC8,0.0320*%
%ADD54C,0.0100*%
D10*
X001555Y000430D02*
X038255Y000430D01*
X038321Y000432D01*
X038387Y000437D01*
X038452Y000447D01*
X038516Y000459D01*
X038580Y000476D01*
X038643Y000496D01*
X038705Y000519D01*
X038765Y000546D01*
X038823Y000577D01*
X038880Y000610D01*
X038935Y000647D01*
X038988Y000686D01*
X039038Y000729D01*
X039086Y000774D01*
X039131Y000822D01*
X039174Y000872D01*
X039213Y000925D01*
X039250Y000980D01*
X039283Y001037D01*
X039314Y001095D01*
X039341Y001155D01*
X039364Y001217D01*
X039384Y001280D01*
X039401Y001344D01*
X039413Y001408D01*
X039423Y001473D01*
X039428Y001539D01*
X039430Y001605D01*
X039430Y016696D01*
X039429Y016696D02*
X039424Y016761D01*
X039415Y016826D01*
X039402Y016890D01*
X039386Y016953D01*
X039366Y017016D01*
X039343Y017077D01*
X039317Y017137D01*
X039287Y017195D01*
X039254Y017252D01*
X039217Y017306D01*
X039178Y017359D01*
X039136Y017409D01*
X039091Y017457D01*
X039044Y017502D01*
X038994Y017544D01*
X038941Y017584D01*
X038887Y017620D01*
X038831Y017654D01*
X038772Y017684D01*
X038713Y017711D01*
X038652Y017734D01*
X038589Y017755D01*
X038526Y017771D01*
X038462Y017784D01*
X038397Y017793D01*
X038331Y017799D01*
X038266Y017801D01*
X038200Y017799D01*
X038201Y017800D02*
X001580Y017800D01*
X001513Y017798D01*
X001447Y017792D01*
X001381Y017783D01*
X001316Y017769D01*
X001251Y017752D01*
X001188Y017731D01*
X001126Y017706D01*
X001066Y017678D01*
X001007Y017646D01*
X000950Y017611D01*
X000896Y017573D01*
X000843Y017532D01*
X000794Y017488D01*
X000746Y017440D01*
X000702Y017391D01*
X000661Y017338D01*
X000623Y017284D01*
X000588Y017227D01*
X000556Y017168D01*
X000528Y017108D01*
X000503Y017046D01*
X000482Y016983D01*
X000465Y016918D01*
X000451Y016853D01*
X000442Y016787D01*
X000436Y016721D01*
X000434Y016654D01*
X000434Y001551D01*
X000436Y001486D01*
X000442Y001421D01*
X000451Y001356D01*
X000464Y001292D01*
X000481Y001229D01*
X000502Y001168D01*
X000526Y001107D01*
X000553Y001048D01*
X000584Y000991D01*
X000618Y000935D01*
X000656Y000882D01*
X000696Y000830D01*
X000740Y000782D01*
X000786Y000736D01*
X000834Y000692D01*
X000886Y000652D01*
X000939Y000614D01*
X000994Y000580D01*
X001052Y000549D01*
X001111Y000522D01*
X001172Y000498D01*
X001233Y000477D01*
X001296Y000460D01*
X001360Y000447D01*
X001425Y000438D01*
X001490Y000432D01*
X001555Y000430D01*
X001030Y001680D02*
X001032Y001730D01*
X001038Y001780D01*
X001048Y001830D01*
X001061Y001878D01*
X001078Y001926D01*
X001099Y001972D01*
X001123Y002016D01*
X001151Y002058D01*
X001182Y002098D01*
X001216Y002135D01*
X001253Y002170D01*
X001292Y002201D01*
X001333Y002230D01*
X001377Y002255D01*
X001423Y002277D01*
X001470Y002295D01*
X001518Y002309D01*
X001567Y002320D01*
X001617Y002327D01*
X001667Y002330D01*
X001718Y002329D01*
X001768Y002324D01*
X001818Y002315D01*
X001866Y002303D01*
X001914Y002286D01*
X001960Y002266D01*
X002005Y002243D01*
X002048Y002216D01*
X002088Y002186D01*
X002126Y002153D01*
X002161Y002117D01*
X002194Y002078D01*
X002223Y002037D01*
X002249Y001994D01*
X002272Y001949D01*
X002291Y001902D01*
X002306Y001854D01*
X002318Y001805D01*
X002326Y001755D01*
X002330Y001705D01*
X002330Y001655D01*
X002326Y001605D01*
X002318Y001555D01*
X002306Y001506D01*
X002291Y001458D01*
X002272Y001411D01*
X002249Y001366D01*
X002223Y001323D01*
X002194Y001282D01*
X002161Y001243D01*
X002126Y001207D01*
X002088Y001174D01*
X002048Y001144D01*
X002005Y001117D01*
X001960Y001094D01*
X001914Y001074D01*
X001866Y001057D01*
X001818Y001045D01*
X001768Y001036D01*
X001718Y001031D01*
X001667Y001030D01*
X001617Y001033D01*
X001567Y001040D01*
X001518Y001051D01*
X001470Y001065D01*
X001423Y001083D01*
X001377Y001105D01*
X001333Y001130D01*
X001292Y001159D01*
X001253Y001190D01*
X001216Y001225D01*
X001182Y001262D01*
X001151Y001302D01*
X001123Y001344D01*
X001099Y001388D01*
X001078Y001434D01*
X001061Y001482D01*
X001048Y001530D01*
X001038Y001580D01*
X001032Y001630D01*
X001030Y001680D01*
X009288Y005590D02*
X009290Y005625D01*
X009296Y005660D01*
X009306Y005694D01*
X009319Y005727D01*
X009336Y005758D01*
X009357Y005786D01*
X009380Y005813D01*
X009407Y005836D01*
X009435Y005857D01*
X009466Y005874D01*
X009499Y005887D01*
X009533Y005897D01*
X009568Y005903D01*
X009603Y005905D01*
X009638Y005903D01*
X009673Y005897D01*
X009707Y005887D01*
X009740Y005874D01*
X009771Y005857D01*
X009799Y005836D01*
X009826Y005813D01*
X009849Y005786D01*
X009870Y005758D01*
X009887Y005727D01*
X009900Y005694D01*
X009910Y005660D01*
X009916Y005625D01*
X009918Y005590D01*
X009916Y005555D01*
X009910Y005520D01*
X009900Y005486D01*
X009887Y005453D01*
X009870Y005422D01*
X009849Y005394D01*
X009826Y005367D01*
X009799Y005344D01*
X009771Y005323D01*
X009740Y005306D01*
X009707Y005293D01*
X009673Y005283D01*
X009638Y005277D01*
X009603Y005275D01*
X009568Y005277D01*
X009533Y005283D01*
X009499Y005293D01*
X009466Y005306D01*
X009435Y005323D01*
X009407Y005344D01*
X009380Y005367D01*
X009357Y005394D01*
X009336Y005422D01*
X009319Y005453D01*
X009306Y005486D01*
X009296Y005520D01*
X009290Y005555D01*
X009288Y005590D01*
X009386Y013897D02*
X009388Y013926D01*
X009394Y013954D01*
X009403Y013982D01*
X009416Y014008D01*
X009433Y014031D01*
X009452Y014053D01*
X009474Y014072D01*
X009499Y014087D01*
X009525Y014100D01*
X009553Y014108D01*
X009581Y014113D01*
X009610Y014114D01*
X009639Y014111D01*
X009667Y014104D01*
X009694Y014094D01*
X009720Y014080D01*
X009743Y014063D01*
X009764Y014043D01*
X009782Y014020D01*
X009797Y013995D01*
X009808Y013968D01*
X009816Y013940D01*
X009820Y013911D01*
X009820Y013883D01*
X009816Y013854D01*
X009808Y013826D01*
X009797Y013799D01*
X009782Y013774D01*
X009764Y013751D01*
X009743Y013731D01*
X009720Y013714D01*
X009694Y013700D01*
X009667Y013690D01*
X009639Y013683D01*
X009610Y013680D01*
X009581Y013681D01*
X009553Y013686D01*
X009525Y013694D01*
X009499Y013707D01*
X009474Y013722D01*
X009452Y013741D01*
X009433Y013763D01*
X009416Y013786D01*
X009403Y013812D01*
X009394Y013840D01*
X009388Y013868D01*
X009386Y013897D01*
X001030Y016555D02*
X001032Y016605D01*
X001038Y016655D01*
X001048Y016705D01*
X001061Y016753D01*
X001078Y016801D01*
X001099Y016847D01*
X001123Y016891D01*
X001151Y016933D01*
X001182Y016973D01*
X001216Y017010D01*
X001253Y017045D01*
X001292Y017076D01*
X001333Y017105D01*
X001377Y017130D01*
X001423Y017152D01*
X001470Y017170D01*
X001518Y017184D01*
X001567Y017195D01*
X001617Y017202D01*
X001667Y017205D01*
X001718Y017204D01*
X001768Y017199D01*
X001818Y017190D01*
X001866Y017178D01*
X001914Y017161D01*
X001960Y017141D01*
X002005Y017118D01*
X002048Y017091D01*
X002088Y017061D01*
X002126Y017028D01*
X002161Y016992D01*
X002194Y016953D01*
X002223Y016912D01*
X002249Y016869D01*
X002272Y016824D01*
X002291Y016777D01*
X002306Y016729D01*
X002318Y016680D01*
X002326Y016630D01*
X002330Y016580D01*
X002330Y016530D01*
X002326Y016480D01*
X002318Y016430D01*
X002306Y016381D01*
X002291Y016333D01*
X002272Y016286D01*
X002249Y016241D01*
X002223Y016198D01*
X002194Y016157D01*
X002161Y016118D01*
X002126Y016082D01*
X002088Y016049D01*
X002048Y016019D01*
X002005Y015992D01*
X001960Y015969D01*
X001914Y015949D01*
X001866Y015932D01*
X001818Y015920D01*
X001768Y015911D01*
X001718Y015906D01*
X001667Y015905D01*
X001617Y015908D01*
X001567Y015915D01*
X001518Y015926D01*
X001470Y015940D01*
X001423Y015958D01*
X001377Y015980D01*
X001333Y016005D01*
X001292Y016034D01*
X001253Y016065D01*
X001216Y016100D01*
X001182Y016137D01*
X001151Y016177D01*
X001123Y016219D01*
X001099Y016263D01*
X001078Y016309D01*
X001061Y016357D01*
X001048Y016405D01*
X001038Y016455D01*
X001032Y016505D01*
X001030Y016555D01*
X037530Y016555D02*
X037532Y016605D01*
X037538Y016655D01*
X037548Y016705D01*
X037561Y016753D01*
X037578Y016801D01*
X037599Y016847D01*
X037623Y016891D01*
X037651Y016933D01*
X037682Y016973D01*
X037716Y017010D01*
X037753Y017045D01*
X037792Y017076D01*
X037833Y017105D01*
X037877Y017130D01*
X037923Y017152D01*
X037970Y017170D01*
X038018Y017184D01*
X038067Y017195D01*
X038117Y017202D01*
X038167Y017205D01*
X038218Y017204D01*
X038268Y017199D01*
X038318Y017190D01*
X038366Y017178D01*
X038414Y017161D01*
X038460Y017141D01*
X038505Y017118D01*
X038548Y017091D01*
X038588Y017061D01*
X038626Y017028D01*
X038661Y016992D01*
X038694Y016953D01*
X038723Y016912D01*
X038749Y016869D01*
X038772Y016824D01*
X038791Y016777D01*
X038806Y016729D01*
X038818Y016680D01*
X038826Y016630D01*
X038830Y016580D01*
X038830Y016530D01*
X038826Y016480D01*
X038818Y016430D01*
X038806Y016381D01*
X038791Y016333D01*
X038772Y016286D01*
X038749Y016241D01*
X038723Y016198D01*
X038694Y016157D01*
X038661Y016118D01*
X038626Y016082D01*
X038588Y016049D01*
X038548Y016019D01*
X038505Y015992D01*
X038460Y015969D01*
X038414Y015949D01*
X038366Y015932D01*
X038318Y015920D01*
X038268Y015911D01*
X038218Y015906D01*
X038167Y015905D01*
X038117Y015908D01*
X038067Y015915D01*
X038018Y015926D01*
X037970Y015940D01*
X037923Y015958D01*
X037877Y015980D01*
X037833Y016005D01*
X037792Y016034D01*
X037753Y016065D01*
X037716Y016100D01*
X037682Y016137D01*
X037651Y016177D01*
X037623Y016219D01*
X037599Y016263D01*
X037578Y016309D01*
X037561Y016357D01*
X037548Y016405D01*
X037538Y016455D01*
X037532Y016505D01*
X037530Y016555D01*
X037530Y001680D02*
X037532Y001730D01*
X037538Y001780D01*
X037548Y001830D01*
X037561Y001878D01*
X037578Y001926D01*
X037599Y001972D01*
X037623Y002016D01*
X037651Y002058D01*
X037682Y002098D01*
X037716Y002135D01*
X037753Y002170D01*
X037792Y002201D01*
X037833Y002230D01*
X037877Y002255D01*
X037923Y002277D01*
X037970Y002295D01*
X038018Y002309D01*
X038067Y002320D01*
X038117Y002327D01*
X038167Y002330D01*
X038218Y002329D01*
X038268Y002324D01*
X038318Y002315D01*
X038366Y002303D01*
X038414Y002286D01*
X038460Y002266D01*
X038505Y002243D01*
X038548Y002216D01*
X038588Y002186D01*
X038626Y002153D01*
X038661Y002117D01*
X038694Y002078D01*
X038723Y002037D01*
X038749Y001994D01*
X038772Y001949D01*
X038791Y001902D01*
X038806Y001854D01*
X038818Y001805D01*
X038826Y001755D01*
X038830Y001705D01*
X038830Y001655D01*
X038826Y001605D01*
X038818Y001555D01*
X038806Y001506D01*
X038791Y001458D01*
X038772Y001411D01*
X038749Y001366D01*
X038723Y001323D01*
X038694Y001282D01*
X038661Y001243D01*
X038626Y001207D01*
X038588Y001174D01*
X038548Y001144D01*
X038505Y001117D01*
X038460Y001094D01*
X038414Y001074D01*
X038366Y001057D01*
X038318Y001045D01*
X038268Y001036D01*
X038218Y001031D01*
X038167Y001030D01*
X038117Y001033D01*
X038067Y001040D01*
X038018Y001051D01*
X037970Y001065D01*
X037923Y001083D01*
X037877Y001105D01*
X037833Y001130D01*
X037792Y001159D01*
X037753Y001190D01*
X037716Y001225D01*
X037682Y001262D01*
X037651Y001302D01*
X037623Y001344D01*
X037599Y001388D01*
X037578Y001434D01*
X037561Y001482D01*
X037548Y001530D01*
X037538Y001580D01*
X037532Y001630D01*
X037530Y001680D01*
D11*
X038630Y010536D03*
X038630Y011324D03*
X023880Y012030D03*
X021980Y012030D03*
D12*
X021995Y010480D03*
X022665Y010480D03*
X023195Y010480D03*
X023865Y010480D03*
X026035Y010630D03*
X026704Y010630D03*
X027695Y010080D03*
X028365Y010080D03*
X028015Y011334D03*
X027345Y011334D03*
X029998Y012059D03*
X030787Y012059D03*
X030787Y012728D03*
X029998Y012728D03*
X029499Y013855D03*
X028829Y013855D03*
X026868Y012830D03*
X026199Y012830D03*
X032345Y010430D03*
X033015Y010430D03*
X037745Y013030D03*
X038415Y013030D03*
X036780Y013645D03*
X036780Y014315D03*
X033665Y006830D03*
X032995Y006830D03*
X032995Y005230D03*
X033665Y005230D03*
X026315Y005630D03*
X025645Y005630D03*
X017565Y012130D03*
X016895Y012130D03*
D13*
X017576Y010930D03*
X018284Y010930D03*
D14*
X015880Y010520D03*
X015380Y010520D03*
X014880Y010520D03*
X014380Y010520D03*
X013880Y010520D03*
X013380Y010520D03*
X012880Y010520D03*
X012380Y010520D03*
X012380Y012940D03*
X012880Y012940D03*
X013380Y012940D03*
X013880Y012940D03*
X014380Y012940D03*
X014880Y012940D03*
X015380Y012940D03*
X015880Y012940D03*
D15*
X010036Y014802D03*
X001847Y014763D03*
X010076Y004724D03*
X001847Y003779D03*
D16*
X010784Y013149D03*
X010784Y013661D03*
X010784Y014133D03*
D17*
X010784Y012519D03*
X010784Y011535D03*
X010784Y010550D03*
X010784Y009566D03*
X010784Y008582D03*
X010784Y007598D03*
X010784Y006613D03*
X010784Y005629D03*
D18*
X030830Y015430D03*
X036030Y015430D03*
D19*
X033430Y015430D03*
D20*
X027876Y014605D03*
X027876Y013936D03*
X027882Y013306D03*
X027882Y012637D03*
X032995Y007630D03*
X033665Y007630D03*
X033665Y006030D03*
X032995Y006030D03*
X029530Y006745D03*
X029530Y007415D03*
X027480Y006365D03*
X027480Y005695D03*
X025015Y005630D03*
X024345Y005630D03*
X023130Y005645D03*
X023130Y006315D03*
X012065Y014930D03*
X011395Y014930D03*
D21*
X012430Y009030D03*
X013430Y009030D03*
X014430Y009030D03*
X015430Y009030D03*
X016430Y009030D03*
X017430Y009030D03*
X017430Y005030D03*
X016430Y005030D03*
X015430Y005030D03*
X014430Y005030D03*
X013430Y005030D03*
X012430Y005030D03*
D22*
X009680Y016030D03*
X008680Y016030D03*
X007680Y016030D03*
X007680Y017030D03*
X008680Y017030D03*
X009680Y017030D03*
D23*
X011630Y016980D03*
X011630Y015980D03*
X006360Y015190D03*
X003800Y015190D03*
X003800Y016970D03*
X006360Y016970D03*
X005810Y003570D03*
X003250Y003570D03*
X003250Y001790D03*
X005810Y001790D03*
D24*
X034781Y010505D03*
X037143Y010505D03*
X035962Y012355D03*
D25*
X033804Y012163D03*
X033056Y012163D03*
X032404Y012163D03*
X031656Y012163D03*
X030611Y011327D03*
X029863Y011327D03*
X030237Y010461D03*
X032030Y011297D03*
X033430Y011297D03*
X019954Y011897D03*
X019206Y011897D03*
X019580Y012763D03*
D26*
X037664Y014006D03*
X037664Y014380D03*
X037664Y014754D03*
X038696Y014754D03*
X038696Y014380D03*
X038696Y014006D03*
D27*
X035680Y005922D03*
X034900Y005922D03*
X034900Y004938D03*
X035680Y004938D03*
D28*
X036750Y003060D03*
X036750Y007800D03*
D29*
X021010Y001930D03*
X007230Y001930D03*
X014030Y016380D03*
D30*
X015408Y016380D03*
X016786Y016380D03*
X018164Y016380D03*
X019542Y016380D03*
X020920Y016380D03*
X022298Y016380D03*
X023676Y016380D03*
X025054Y016380D03*
X026432Y016380D03*
X026521Y001930D03*
X027899Y001930D03*
X029277Y001930D03*
X030655Y001930D03*
X032033Y001930D03*
X033411Y001930D03*
X025143Y001930D03*
X023765Y001930D03*
X022387Y001930D03*
X019632Y001930D03*
X018254Y001930D03*
X016876Y001930D03*
X015498Y001930D03*
X014120Y001930D03*
X012742Y001930D03*
X011364Y001930D03*
X009986Y001930D03*
X008608Y001930D03*
D31*
X012458Y006676D03*
X012773Y006676D03*
X013087Y006676D03*
X013402Y006676D03*
X013402Y007384D03*
X013087Y007384D03*
X012773Y007384D03*
X012458Y007384D03*
X015458Y007384D03*
X015773Y007384D03*
X016087Y007384D03*
X016402Y007384D03*
X016402Y006676D03*
X016087Y006676D03*
X015773Y006676D03*
X015458Y006676D03*
D32*
X032479Y009030D03*
X033581Y009030D03*
D33*
X036030Y001925D03*
X036730Y001925D03*
X036730Y001335D03*
X036030Y001335D03*
D34*
X029930Y004966D03*
X028730Y004966D03*
X028474Y005694D03*
X028986Y005694D03*
X029674Y005694D03*
X030186Y005694D03*
D35*
X034634Y002352D03*
X034634Y002037D03*
X035126Y002037D03*
X035126Y002352D03*
X035126Y001723D03*
X034634Y001723D03*
X034634Y001408D03*
X035126Y001408D03*
X019976Y005408D03*
X019976Y005723D03*
X019976Y006037D03*
X019976Y006352D03*
X019484Y006352D03*
X019484Y006037D03*
X019484Y005723D03*
X019484Y005408D03*
D36*
X026173Y011320D03*
X026433Y011320D03*
X026693Y011320D03*
X026693Y012140D03*
X026433Y012140D03*
X026173Y012140D03*
D37*
X026433Y011730D03*
D38*
X024130Y009350D03*
X023630Y009350D03*
X023130Y009350D03*
X022630Y009350D03*
X026880Y009200D03*
X027380Y009200D03*
X027880Y009200D03*
X028380Y009200D03*
X024130Y007410D03*
X023630Y007410D03*
X023130Y007410D03*
X022630Y007410D03*
X026880Y007260D03*
X027380Y007260D03*
X027880Y007260D03*
X028380Y007260D03*
D39*
X030799Y007855D03*
X030996Y007855D03*
X031193Y007855D03*
X031389Y007855D03*
X031586Y007855D03*
X031586Y006280D03*
X031389Y006280D03*
X031193Y006280D03*
X030996Y006280D03*
X030799Y006280D03*
D40*
X030405Y006674D03*
X030405Y006871D03*
X030405Y007067D03*
X030405Y007264D03*
X030405Y007461D03*
X031980Y007461D03*
X031980Y007264D03*
X031980Y007067D03*
X031980Y006871D03*
X031980Y006674D03*
D41*
X031193Y007067D03*
D42*
X021680Y006231D03*
X021680Y005129D03*
D43*
X021200Y008390D03*
X021200Y008590D03*
X021200Y008780D03*
X021200Y008980D03*
X021200Y009180D03*
X021200Y009380D03*
X021200Y009570D03*
X021200Y009770D03*
X019260Y009770D03*
X019260Y009570D03*
X019260Y009380D03*
X019260Y009180D03*
X019260Y008980D03*
X019260Y008780D03*
X019260Y008590D03*
X019260Y008390D03*
D44*
X019540Y008110D03*
X019740Y008110D03*
X019930Y008110D03*
X020130Y008110D03*
X020330Y008110D03*
X020530Y008110D03*
X020720Y008110D03*
X020920Y008110D03*
X020920Y010050D03*
X020720Y010050D03*
X020530Y010050D03*
X020330Y010050D03*
X020130Y010050D03*
X019930Y010050D03*
X019740Y010050D03*
X019540Y010050D03*
D45*
X020230Y009080D03*
D46*
X028833Y012810D03*
X028833Y013203D03*
D47*
X029030Y013105D03*
X029030Y012908D03*
X028636Y012908D03*
X028636Y013105D03*
D48*
X028884Y011948D03*
X028884Y011594D03*
D49*
X025408Y013326D03*
X025054Y013326D03*
D50*
X025080Y013280D01*
X025080Y010080D01*
X026530Y008630D01*
X027130Y008580D02*
X027130Y009630D01*
X027030Y009730D01*
X026530Y009730D01*
X026130Y010130D01*
X026780Y010180D02*
X027030Y009930D01*
X027080Y009930D01*
X027380Y009630D01*
X027380Y009200D01*
X027730Y009380D02*
X027880Y009230D01*
X027880Y009200D01*
X027880Y008930D01*
X027230Y008280D01*
X025830Y008280D01*
X025580Y008030D01*
X025580Y007630D02*
X026030Y008080D01*
X027330Y008080D01*
X027880Y008630D01*
X028580Y008630D01*
X030230Y010280D01*
X030237Y010461D01*
X029530Y011430D02*
X029230Y011130D01*
X028780Y011130D01*
X027730Y010080D01*
X027695Y010080D01*
X027730Y010080D02*
X027730Y009630D01*
X026730Y010630D01*
X026704Y010630D01*
X026680Y010630D01*
X026480Y010830D01*
X026480Y011280D01*
X026433Y011320D01*
X026180Y011320D02*
X026180Y011580D01*
X026330Y011730D01*
X026433Y011730D01*
X026433Y012140D02*
X026430Y012180D01*
X026430Y012630D01*
X026230Y012830D01*
X026199Y012830D01*
X026730Y012730D02*
X026830Y012830D01*
X026868Y012830D01*
X026730Y012730D02*
X026730Y012180D01*
X026693Y012140D01*
X027030Y012380D02*
X027930Y013280D01*
X027882Y013306D01*
X027930Y013280D02*
X028280Y012930D01*
X028330Y012930D01*
X028330Y012030D01*
X028180Y011780D02*
X027030Y011780D01*
X026730Y011330D02*
X026693Y011320D01*
X026730Y011330D02*
X027330Y011330D01*
X027345Y011334D01*
X027330Y011330D02*
X027330Y010880D01*
X028015Y011334D02*
X028030Y011330D01*
X029180Y011330D01*
X029280Y011430D01*
X029280Y012980D01*
X029180Y013080D01*
X029030Y013080D01*
X029030Y013105D01*
X029030Y012908D02*
X029030Y012880D01*
X029030Y012080D01*
X028930Y011980D01*
X028884Y011948D01*
X028330Y011630D02*
X028180Y011780D01*
X028330Y011630D02*
X028880Y011630D01*
X028884Y011594D01*
X029530Y011430D02*
X029530Y012230D01*
X029980Y012680D01*
X029998Y012728D01*
X029980Y012730D01*
X029980Y013980D01*
X029780Y014180D01*
X028780Y014180D01*
X028780Y013880D01*
X028829Y013855D01*
X028830Y013880D01*
X028829Y013855D02*
X028830Y013830D01*
X028830Y013230D01*
X028833Y013203D01*
X028630Y013230D02*
X027880Y013980D01*
X027876Y013936D01*
X027830Y013930D01*
X027530Y013930D01*
X026930Y013330D01*
X025430Y013330D01*
X025408Y013326D01*
X025054Y013326D02*
X025030Y013330D01*
X025030Y015030D01*
X023680Y016380D01*
X023676Y016380D01*
X022830Y016630D02*
X022530Y016930D01*
X021480Y016930D01*
X020930Y016380D01*
X020920Y016380D01*
X021380Y015480D02*
X022280Y016380D01*
X022298Y016380D01*
X022830Y016630D02*
X022830Y016130D01*
X021580Y014880D01*
X021580Y011380D01*
X020530Y010330D01*
X020530Y010050D01*
X020720Y010050D02*
X020730Y010080D01*
X020730Y010280D01*
X021130Y010680D01*
X021230Y010680D01*
X024230Y013680D01*
X026530Y013630D02*
X026530Y014430D01*
X025080Y015880D01*
X025080Y016380D01*
X025054Y016380D01*
X026430Y017130D02*
X018830Y017130D01*
X018805Y017105D01*
X018430Y017480D01*
X008480Y017480D01*
X008030Y017030D01*
X007680Y017030D01*
X007680Y016380D02*
X006580Y017480D01*
X006130Y017480D01*
X005830Y017180D01*
X005830Y016730D01*
X010030Y012530D01*
X010780Y012530D01*
X010784Y012519D01*
X010830Y012530D01*
X011280Y012530D01*
X011780Y013030D01*
X011780Y013330D01*
X014030Y015580D01*
X014280Y015580D01*
X014580Y015880D01*
X014580Y016330D01*
X015180Y016930D01*
X015630Y016930D01*
X016180Y016380D01*
X016786Y016380D01*
X017330Y016180D02*
X016980Y015830D01*
X014880Y015830D01*
X014855Y015855D01*
X013430Y014430D01*
X013430Y013880D01*
X013880Y013430D01*
X013880Y012940D01*
X014380Y012940D02*
X014380Y012480D01*
X012980Y011080D01*
X012230Y011080D01*
X011730Y010580D01*
X011730Y010280D01*
X011380Y009930D01*
X009930Y009930D01*
X009830Y009830D01*
X009830Y008330D01*
X010530Y007630D01*
X010780Y007630D01*
X010784Y007598D01*
X010530Y006630D02*
X009630Y007530D01*
X009630Y010630D01*
X009930Y010930D01*
X011380Y010930D01*
X011930Y011480D01*
X012130Y011480D01*
X013380Y012730D01*
X013380Y012940D01*
X012880Y012940D02*
X012880Y012730D01*
X012380Y012230D01*
X012030Y012230D01*
X011630Y011930D02*
X009980Y011930D01*
X005830Y007780D01*
X005830Y003580D01*
X005810Y003570D01*
X008080Y004730D02*
X009580Y006230D01*
X011630Y006230D01*
X012055Y006655D01*
X012330Y006380D01*
X012580Y006380D01*
X012730Y006530D01*
X012730Y006630D01*
X012773Y006676D01*
X013080Y006630D02*
X013087Y006676D01*
X013130Y006680D01*
X013130Y006830D01*
X013280Y006980D01*
X016430Y006980D01*
X016630Y007180D01*
X017330Y007180D01*
X017430Y007280D01*
X018230Y007280D01*
X018830Y007480D02*
X019030Y007480D01*
X019530Y007980D01*
X019530Y008080D01*
X019540Y008110D01*
X019730Y008080D02*
X019730Y007880D01*
X018830Y006980D01*
X019230Y006730D02*
X020130Y007630D01*
X020130Y008110D01*
X020330Y008110D02*
X020330Y007330D01*
X020930Y006730D01*
X024280Y006730D01*
X024330Y006780D01*
X024530Y006780D01*
X025355Y005955D01*
X025030Y005630D01*
X025015Y005630D01*
X024680Y005380D02*
X025230Y004830D01*
X026680Y004830D01*
X026680Y006130D01*
X024880Y007930D01*
X023980Y007930D01*
X023630Y007580D01*
X023630Y007410D01*
X024130Y007380D02*
X024130Y007410D01*
X024130Y007380D02*
X024180Y007330D01*
X024380Y007330D01*
X024480Y007330D01*
X024380Y007330D02*
X025630Y006080D01*
X026330Y006080D01*
X025730Y006380D02*
X024780Y007330D01*
X024780Y007630D01*
X025080Y008130D02*
X022930Y008130D01*
X022680Y008380D01*
X021230Y008380D01*
X021200Y008390D01*
X021230Y008580D02*
X021200Y008590D01*
X021230Y008580D02*
X022880Y008580D01*
X023280Y008580D02*
X023280Y009180D01*
X023130Y009330D01*
X023130Y009350D01*
X023630Y009380D02*
X023630Y009350D01*
X023630Y009380D02*
X023830Y009580D01*
X023830Y009980D01*
X023480Y010130D02*
X023830Y010480D01*
X023865Y010480D01*
X023880Y010480D01*
X023880Y012030D01*
X025530Y012180D02*
X025530Y011680D01*
X025730Y011480D01*
X025730Y011230D01*
X026173Y011320D02*
X026180Y011320D01*
X026180Y012140D02*
X026173Y012140D01*
X026180Y012140D02*
X026030Y012280D01*
X025630Y012280D01*
X025530Y012180D01*
X028330Y012930D02*
X028630Y012930D01*
X028636Y012908D01*
X028636Y013105D02*
X028630Y013130D01*
X028630Y013230D01*
X028833Y012810D02*
X028830Y012780D01*
X028630Y012580D01*
X028630Y012530D01*
X029880Y012030D02*
X029998Y012059D01*
X029880Y012030D02*
X029880Y011330D01*
X029863Y011327D01*
X030611Y011327D02*
X030630Y011330D01*
X030780Y011480D01*
X030780Y012030D01*
X030787Y012059D01*
X030530Y012380D02*
X031830Y012380D01*
X031656Y012163D01*
X031680Y012180D01*
X032080Y012580D01*
X032630Y012580D01*
X033030Y012180D01*
X033056Y012163D01*
X033080Y012130D01*
X033180Y012130D01*
X033580Y011730D01*
X033680Y011730D01*
X034880Y010530D01*
X034781Y010505D01*
X034830Y010530D01*
X034880Y010530D01*
X035530Y010530D01*
X037130Y012130D01*
X037780Y012130D01*
X037805Y012155D01*
X037780Y012180D01*
X037780Y013030D01*
X037745Y013030D01*
X037730Y013030D01*
X037080Y013680D01*
X036780Y013680D01*
X036780Y013645D01*
X037080Y013680D02*
X037330Y013680D01*
X037630Y013980D01*
X037664Y014006D01*
X037664Y014380D02*
X037430Y014380D01*
X037030Y013980D01*
X035630Y013980D01*
X034830Y014280D02*
X036780Y014280D01*
X036780Y014315D01*
X036780Y014330D01*
X037080Y014330D01*
X037480Y014730D01*
X037630Y014730D01*
X037664Y014754D01*
X038696Y014006D02*
X038730Y013980D01*
X038730Y013330D01*
X039030Y013030D01*
X039030Y011380D01*
X038630Y011380D01*
X038630Y011324D01*
X038630Y011330D01*
X037805Y012155D01*
X039030Y011380D02*
X039030Y010330D01*
X038230Y009530D01*
X034380Y009530D01*
X033430Y010480D01*
X033430Y011297D01*
X032930Y011630D02*
X032430Y012130D01*
X032404Y012163D01*
X032930Y012680D02*
X033230Y012680D01*
X034830Y014280D01*
X034980Y013330D02*
X033830Y012180D01*
X033804Y012163D01*
X032030Y011297D02*
X032030Y010730D01*
X032330Y010430D01*
X032345Y010430D01*
X032380Y010430D01*
X032380Y008930D01*
X032479Y009030D01*
X032430Y009030D01*
X032430Y008930D01*
X032055Y008555D01*
X032080Y008530D01*
X032080Y008280D01*
X032380Y007980D01*
X033930Y007980D01*
X034780Y007130D01*
X035680Y006830D02*
X036330Y006180D01*
X036330Y004930D01*
X035880Y004480D01*
X035380Y004480D01*
X034930Y004930D01*
X034900Y004938D01*
X034330Y005330D02*
X034880Y005880D01*
X034900Y005922D01*
X034680Y006380D02*
X034330Y006030D01*
X033680Y006030D01*
X033665Y006030D01*
X033680Y006030D02*
X033680Y005230D01*
X033665Y005230D01*
X034330Y005330D02*
X034330Y003980D01*
X034630Y003680D01*
X034630Y002380D01*
X034634Y002352D01*
X034630Y002330D01*
X034630Y002080D01*
X034634Y002037D01*
X035126Y002037D02*
X035130Y002030D01*
X035280Y002030D01*
X035930Y001380D01*
X036030Y001380D01*
X036030Y001335D01*
X035530Y001380D02*
X035530Y001430D01*
X035280Y001680D01*
X035130Y001680D01*
X035126Y001723D01*
X034634Y001723D02*
X034630Y001680D01*
X033930Y001680D01*
X033630Y001380D01*
X031230Y001380D01*
X030680Y001930D01*
X030655Y001930D01*
X030030Y001180D02*
X029805Y001405D01*
X029780Y001380D01*
X026330Y001380D01*
X025980Y001730D01*
X025980Y001830D01*
X025330Y002480D01*
X024080Y002480D01*
X022430Y004130D01*
X022280Y004130D01*
X022380Y004430D02*
X020580Y004430D01*
X020380Y004230D01*
X020380Y001930D01*
X019830Y001380D01*
X017730Y001380D01*
X017705Y001405D01*
X017480Y001180D01*
X011330Y001180D01*
X010830Y001680D01*
X010830Y001730D01*
X010605Y001955D01*
X010580Y001930D01*
X009986Y001930D01*
X010605Y001955D02*
X011130Y002480D01*
X012180Y002480D01*
X012730Y001930D01*
X012742Y001930D01*
X012930Y001380D02*
X013430Y001880D01*
X013430Y005030D01*
X013430Y006630D01*
X013402Y006676D01*
X013080Y006630D02*
X013080Y005680D01*
X012430Y005030D01*
X012330Y005030D01*
X009230Y001930D01*
X008608Y001930D01*
X008080Y001680D02*
X008080Y004730D01*
X010530Y006630D02*
X010780Y006630D01*
X010784Y006613D01*
X011730Y006980D02*
X011730Y008830D01*
X011030Y009530D01*
X010830Y009530D01*
X010784Y009566D01*
X011180Y009430D01*
X013530Y009430D01*
X014130Y010030D01*
X014130Y010980D01*
X015880Y012730D01*
X015880Y012940D01*
X015380Y012940D02*
X015380Y012730D01*
X015030Y012380D01*
X014730Y012380D01*
X014630Y012480D01*
X014630Y013430D01*
X014580Y013480D01*
X014180Y013480D01*
X014130Y013430D01*
X014130Y012480D01*
X012930Y011280D01*
X011980Y011280D01*
X011280Y010580D01*
X010830Y010580D01*
X010784Y010550D01*
X010780Y011530D02*
X010280Y011530D01*
X007230Y008480D01*
X007230Y001930D01*
X008080Y001680D02*
X008780Y000980D01*
X023430Y000980D01*
X024080Y000880D02*
X032480Y000880D01*
X033680Y001180D02*
X030030Y001180D01*
X029805Y001405D02*
X029280Y001930D01*
X029277Y001930D01*
X029305Y004655D02*
X032030Y001930D01*
X032033Y001930D01*
X033380Y001930D02*
X033411Y001930D01*
X033380Y001930D02*
X030380Y004930D01*
X029930Y004930D01*
X029930Y004966D01*
X030280Y005280D02*
X030030Y005530D01*
X029930Y005430D01*
X029480Y005430D01*
X029230Y005680D01*
X029030Y005680D01*
X028986Y005694D01*
X028980Y005680D01*
X028230Y004930D01*
X028730Y004930D02*
X028730Y004966D01*
X028730Y004930D02*
X029030Y004930D01*
X029305Y004655D01*
X029280Y004630D01*
X020280Y004630D01*
X019530Y005380D01*
X019484Y005408D01*
X019480Y005430D01*
X018980Y005430D01*
X018780Y005630D01*
X018780Y006530D01*
X019930Y007680D01*
X019930Y008110D01*
X019740Y008110D02*
X019730Y008080D01*
X019230Y008080D02*
X019230Y008380D01*
X019260Y008390D01*
X019230Y008580D02*
X019030Y008580D01*
X018830Y008380D01*
X018830Y007880D01*
X018680Y008780D02*
X017755Y007855D01*
X017430Y008180D01*
X017755Y007855D02*
X017330Y007430D01*
X016430Y007430D01*
X016402Y007384D01*
X016087Y007384D02*
X016080Y007430D01*
X016080Y008180D01*
X015980Y008480D02*
X017830Y008480D01*
X017880Y008430D01*
X018080Y008430D01*
X018630Y008980D01*
X019260Y008980D01*
X020130Y008980D01*
X020230Y009080D01*
X020530Y008780D01*
X021200Y008780D01*
X021200Y008980D02*
X021430Y008980D01*
X021455Y009005D01*
X021480Y008980D01*
X021630Y008980D01*
X021480Y009030D02*
X021480Y009330D01*
X021430Y009380D01*
X021200Y009380D01*
X021200Y009570D02*
X021230Y009580D01*
X022180Y009580D01*
X022730Y010130D01*
X023480Y010130D01*
X021995Y010480D02*
X021930Y010480D01*
X021580Y010130D01*
X021230Y009780D01*
X021200Y009770D01*
X020920Y010050D02*
X020930Y010080D01*
X021230Y010380D01*
X020330Y010380D02*
X020330Y010050D01*
X020130Y010050D02*
X020130Y011080D01*
X019830Y011380D01*
X019980Y011630D02*
X019980Y011880D01*
X019954Y011897D01*
X019730Y012330D02*
X019330Y011930D01*
X019230Y011930D01*
X019206Y011897D01*
X019730Y012330D02*
X020180Y012330D01*
X020580Y011930D01*
X020580Y011430D01*
X020580Y011030D02*
X019980Y011630D01*
X019230Y011380D02*
X019930Y010680D01*
X019930Y010050D01*
X019740Y010050D02*
X019730Y010080D01*
X019730Y010480D01*
X018780Y011430D01*
X018780Y013380D01*
X018880Y013480D01*
X019080Y012780D02*
X019580Y012780D01*
X019580Y012763D01*
X017580Y012130D02*
X017565Y012130D01*
X017580Y012130D02*
X017580Y010930D01*
X017576Y010930D01*
X017580Y010930D02*
X017580Y010280D01*
X018280Y009580D01*
X019230Y009580D01*
X019260Y009570D01*
X019260Y009380D02*
X017680Y009380D01*
X017630Y009430D01*
X016830Y009430D01*
X016430Y009030D01*
X016030Y009030D02*
X016030Y009230D01*
X016780Y009980D01*
X017480Y009980D01*
X017880Y010380D02*
X017880Y010530D01*
X018280Y010930D01*
X018284Y010930D01*
X018280Y010930D02*
X018280Y015180D01*
X019480Y016380D01*
X019542Y016380D01*
X019530Y016380D01*
X018805Y017105D01*
X018164Y016380D02*
X018130Y016380D01*
X015230Y013480D01*
X016080Y013480D01*
X016130Y013430D01*
X016130Y012280D01*
X017180Y011230D01*
X018580Y011380D02*
X018580Y014680D01*
X021380Y015480D02*
X021380Y011430D01*
X020330Y010380D01*
X019530Y010430D02*
X019530Y010080D01*
X019540Y010050D01*
X019530Y010430D02*
X018580Y011380D01*
X018280Y010380D02*
X018880Y009780D01*
X019230Y009780D01*
X019260Y009770D01*
X019260Y009180D02*
X018430Y009180D01*
X017980Y008730D01*
X018680Y008780D02*
X019260Y008780D01*
X019260Y008590D02*
X019230Y008580D01*
X020230Y009080D02*
X020330Y009180D01*
X021200Y009180D01*
X021230Y009180D01*
X021455Y009005D02*
X021480Y009030D01*
X021530Y008080D02*
X020930Y008080D01*
X020920Y008110D01*
X020730Y008080D02*
X020730Y007880D01*
X021280Y007330D01*
X021480Y007380D01*
X021780Y007030D02*
X022280Y007530D01*
X022280Y007730D01*
X022480Y007930D01*
X022780Y007930D01*
X023130Y007580D01*
X023130Y007410D01*
X021980Y007680D02*
X021630Y008080D01*
X021530Y008080D01*
X020730Y008080D02*
X020720Y008110D01*
X020530Y008110D02*
X020530Y007630D01*
X021130Y007030D01*
X020230Y006830D02*
X019980Y006830D01*
X019530Y006380D01*
X019484Y006352D01*
X019480Y006330D01*
X019480Y006080D01*
X019484Y006037D01*
X019255Y005855D02*
X019130Y005730D01*
X019080Y005730D01*
X019230Y005880D02*
X019230Y006730D01*
X019976Y006352D02*
X019980Y006330D01*
X020880Y006330D01*
X021230Y005980D01*
X021230Y005880D01*
X021380Y005730D01*
X022430Y005730D01*
X022880Y005280D01*
X023380Y005280D01*
X024080Y005980D01*
X024580Y005980D01*
X024680Y005880D01*
X024680Y005380D01*
X024345Y005630D02*
X024330Y005630D01*
X023780Y005080D01*
X023130Y005080D01*
X023130Y004980D01*
X023130Y005080D02*
X022830Y005080D01*
X022380Y005530D01*
X019980Y005530D01*
X019980Y005430D01*
X019976Y005408D01*
X019980Y005530D02*
X019980Y005680D01*
X019976Y005723D01*
X019980Y006030D02*
X019976Y006037D01*
X019980Y006030D02*
X020780Y006030D01*
X020930Y005880D01*
X021680Y006231D02*
X021680Y006280D01*
X022280Y006280D01*
X022280Y006430D01*
X022280Y006280D02*
X023130Y006280D01*
X023130Y006315D01*
X023130Y006330D01*
X023280Y006480D01*
X024430Y006480D01*
X023580Y005880D02*
X023380Y005680D01*
X023130Y005680D01*
X023130Y005645D01*
X022280Y005130D02*
X021680Y005130D01*
X021680Y005129D01*
X022380Y004430D02*
X023330Y003480D01*
X025580Y003480D01*
X025880Y003130D02*
X025880Y003880D01*
X025430Y004330D01*
X026680Y004830D02*
X027580Y004830D01*
X028430Y005680D01*
X028474Y005694D01*
X028180Y005980D02*
X028080Y005880D01*
X028180Y005980D02*
X029180Y005980D01*
X029430Y005730D01*
X029630Y005730D01*
X029674Y005694D01*
X030030Y005530D02*
X030180Y005680D01*
X030186Y005694D01*
X029880Y006080D02*
X029880Y006130D01*
X030380Y006630D01*
X030405Y006674D01*
X030180Y007080D02*
X029880Y006780D01*
X029880Y006480D01*
X029680Y006280D01*
X027930Y006280D01*
X027480Y006365D02*
X027480Y006730D01*
X026530Y006730D01*
X027480Y006730D02*
X027480Y007130D01*
X027380Y007230D01*
X027380Y007260D01*
X029080Y006880D02*
X029430Y006880D01*
X029530Y006780D01*
X029530Y006745D01*
X030180Y007080D02*
X030380Y007080D01*
X030405Y007067D01*
X030405Y007264D02*
X030380Y007280D01*
X030130Y007280D01*
X030080Y007330D01*
X030080Y007580D01*
X031330Y008830D01*
X031930Y008830D01*
X032055Y008555D02*
X032030Y008530D01*
X031830Y008530D01*
X031380Y008080D01*
X031380Y007880D01*
X031389Y007855D01*
X031193Y007855D02*
X031180Y007830D01*
X031180Y007080D01*
X031193Y007067D01*
X031230Y007030D01*
X031230Y006987D01*
X031180Y007030D02*
X031193Y007067D01*
X031130Y006680D01*
X031180Y006680D02*
X031193Y007067D01*
X031180Y007030D02*
X031180Y006680D01*
X031980Y006680D01*
X031980Y006674D01*
X031980Y006871D02*
X031980Y006880D01*
X032230Y006880D01*
X032330Y006780D01*
X032330Y005580D01*
X031980Y005230D01*
X032530Y004680D01*
X034030Y004680D01*
X034630Y004080D02*
X035230Y003480D01*
X035230Y003430D01*
X036730Y001930D01*
X036730Y001925D01*
X036030Y001925D02*
X036030Y002280D01*
X034930Y003380D01*
X034280Y002630D02*
X034180Y002630D01*
X030780Y006030D01*
X030780Y006280D01*
X030799Y006280D01*
X031180Y006280D02*
X031193Y006280D01*
X031180Y006280D02*
X031180Y006680D01*
X031980Y007067D02*
X031980Y007080D01*
X032280Y007080D01*
X032630Y006730D01*
X032630Y006380D01*
X032980Y006030D01*
X032995Y006030D01*
X032995Y006830D02*
X032980Y006880D01*
X032630Y007280D02*
X031980Y007280D01*
X031980Y007264D01*
X031980Y007461D02*
X031980Y007480D01*
X031805Y007655D01*
X031830Y007680D01*
X031830Y007730D01*
X031880Y007780D01*
X031805Y007655D02*
X031630Y007830D01*
X031586Y007855D01*
X030996Y007855D02*
X030980Y007880D01*
X030980Y008080D01*
X031430Y008530D01*
X032380Y008380D02*
X034380Y008380D01*
X037530Y005230D01*
X037530Y002730D01*
X037330Y002530D01*
X037330Y001430D01*
X036630Y000730D01*
X035780Y000730D01*
X035130Y001380D01*
X035126Y001408D01*
X034634Y001408D02*
X034630Y001380D01*
X033880Y001380D01*
X033680Y001180D01*
X035380Y002330D02*
X035630Y002080D01*
X035380Y002330D02*
X035130Y002330D01*
X035126Y002352D01*
X036380Y001030D02*
X036730Y001380D01*
X036730Y001335D01*
X035680Y004938D02*
X035680Y004980D01*
X036130Y005430D01*
X036130Y006130D01*
X035880Y006380D01*
X034680Y006380D01*
X033680Y006830D02*
X033665Y006830D01*
X033680Y006830D02*
X035680Y006830D01*
X033680Y006830D02*
X033680Y007630D01*
X033665Y007630D01*
X033380Y007330D02*
X033330Y007325D01*
X032995Y007630D02*
X032980Y007630D01*
X032630Y007280D01*
X027730Y009380D02*
X027730Y009630D01*
X030530Y012380D02*
X030230Y012680D01*
X030030Y012680D01*
X029998Y012728D01*
X030787Y012728D02*
X030830Y012730D01*
X030830Y015430D01*
X028780Y014780D02*
X026430Y017130D01*
X028780Y014780D02*
X028780Y014180D01*
X017330Y016180D02*
X017330Y016580D01*
X016780Y017130D01*
X013780Y017130D01*
X013130Y016480D01*
X009580Y016480D01*
X009030Y017030D01*
X008680Y017030D01*
X007680Y016380D02*
X007680Y016030D01*
X007480Y015580D02*
X006380Y016680D01*
X006380Y016930D01*
X006360Y016970D01*
X008905Y015605D02*
X009330Y016030D01*
X009680Y016030D01*
X008930Y015580D02*
X008905Y015605D01*
X008880Y015580D01*
X007480Y015580D01*
X008930Y015580D02*
X008930Y014030D01*
X009730Y013230D01*
X011630Y011930D02*
X011730Y011830D01*
X012030Y011830D01*
X010784Y011535D02*
X010780Y011530D01*
X014330Y013980D02*
X014980Y013330D01*
X014880Y012940D01*
X014880Y013180D01*
X015180Y013480D01*
X015230Y013480D01*
X014330Y013980D02*
X013730Y013980D01*
X012280Y015130D02*
X012080Y014930D01*
X012065Y014930D01*
X012280Y015130D02*
X012980Y015130D01*
X011430Y014930D02*
X011395Y014930D01*
X011430Y014930D02*
X011430Y015780D01*
X011630Y015980D01*
X014855Y015855D02*
X015380Y016380D01*
X015408Y016380D01*
X016030Y009030D02*
X015630Y008630D01*
X013280Y008630D01*
X012230Y007580D01*
X012230Y007180D01*
X012430Y006980D01*
X012430Y006680D01*
X012458Y006676D01*
X012055Y006655D02*
X011730Y006980D01*
X012930Y007280D02*
X012930Y007330D01*
X012980Y007330D01*
X013030Y007280D01*
X013530Y007280D01*
X013580Y007230D01*
X014730Y007230D01*
X015980Y008480D01*
X013580Y007480D02*
X013580Y007280D01*
X013530Y007230D01*
X012980Y007230D01*
X012930Y007280D01*
X013087Y007384D02*
X013130Y007430D01*
X013130Y007580D01*
X013180Y007580D01*
X013280Y007480D01*
X013580Y007480D01*
X015430Y006630D02*
X015458Y006676D01*
X015430Y006630D02*
X015430Y006030D01*
X014430Y005030D01*
X014130Y004730D01*
X014130Y001930D01*
X014120Y001930D01*
X012930Y001380D02*
X012530Y001380D01*
X011980Y001930D01*
X011364Y001930D01*
X015480Y005030D02*
X016830Y003680D01*
X016830Y001930D01*
X016876Y001930D01*
X017705Y001405D02*
X018230Y001930D01*
X018254Y001930D01*
X020380Y001930D02*
X021010Y001930D01*
X020930Y004130D02*
X023230Y001830D01*
X023230Y001730D01*
X024080Y000880D01*
X025580Y002680D02*
X025580Y002830D01*
X025880Y003130D01*
X026380Y005130D02*
X026380Y005480D01*
X026330Y005630D01*
X026315Y005630D01*
X025680Y005630D02*
X025645Y005630D01*
X025680Y005630D02*
X025355Y005955D01*
X020930Y004130D02*
X020680Y004130D01*
X018230Y003330D02*
X018230Y006030D01*
X017380Y006880D01*
X015773Y006676D02*
X015730Y006630D01*
X015730Y005330D01*
X015430Y005030D01*
X015480Y005030D01*
X019230Y005880D02*
X019255Y005855D01*
X019380Y005730D01*
X019480Y005730D01*
X019484Y005723D01*
D51*
X019080Y005730D03*
X020930Y005880D03*
X022280Y006430D03*
X021780Y007030D03*
X021480Y007380D03*
X021130Y007030D03*
X020330Y007330D03*
X020230Y006830D03*
X018830Y006980D03*
X018230Y007280D03*
X018830Y007480D03*
X018830Y007880D03*
X019230Y008080D03*
X017980Y008730D03*
X017430Y008180D03*
X016080Y008180D03*
X017380Y006880D03*
X021530Y008080D03*
X021980Y007680D03*
X022880Y008580D03*
X023280Y008580D03*
X021630Y008980D03*
X023830Y009980D03*
X021580Y010130D03*
X021230Y010380D03*
X020580Y011030D03*
X020580Y011430D03*
X019830Y011380D03*
X019230Y011380D03*
X017180Y011230D03*
X017880Y010380D03*
X018280Y010380D03*
X017480Y009980D03*
X012030Y011830D03*
X012030Y012230D03*
X009730Y013230D03*
X012980Y015130D03*
X013730Y013980D03*
X018580Y014680D03*
X018880Y013480D03*
X019080Y012780D03*
X024230Y013680D03*
X026530Y013630D03*
X028630Y012530D03*
X028330Y012030D03*
X027030Y011780D03*
X027030Y012380D03*
X025730Y011230D03*
X027330Y010880D03*
X026780Y010180D03*
X026130Y010130D03*
X026530Y008630D03*
X027130Y008580D03*
X025580Y008030D03*
X025080Y008130D03*
X024780Y007630D03*
X024480Y007330D03*
X025580Y007630D03*
X026530Y006730D03*
X025730Y006380D03*
X026330Y006080D03*
X027930Y006280D03*
X028080Y005880D03*
X026380Y005130D03*
X025430Y004330D03*
X025580Y003480D03*
X025580Y002680D03*
X022280Y004130D03*
X020680Y004130D03*
X022280Y005130D03*
X023130Y004980D03*
X023580Y005880D03*
X024430Y006480D03*
X028230Y004930D03*
X030280Y005280D03*
X029880Y006080D03*
X029080Y006880D03*
X031880Y007780D03*
X032380Y008380D03*
X031430Y008530D03*
X031930Y008830D03*
X034780Y007130D03*
X034030Y004680D03*
X034630Y004080D03*
X034930Y003380D03*
X034280Y002630D03*
X035630Y002080D03*
X035530Y001380D03*
X036380Y001030D03*
X032480Y000880D03*
X023430Y000980D03*
X018230Y003330D03*
X032930Y011630D03*
X032930Y012680D03*
X034980Y013330D03*
X035630Y013980D03*
D52*
X001128Y000713D02*
X000890Y000886D01*
X000717Y001124D01*
X000626Y001404D01*
X000614Y001551D01*
X000614Y016654D01*
X000626Y016805D01*
X000719Y017092D01*
X000897Y017337D01*
X001142Y017515D01*
X001429Y017608D01*
X001580Y017620D01*
X001580Y017620D01*
X001655Y017620D01*
X005987Y017620D01*
X005747Y017380D01*
X005630Y017263D01*
X005630Y016647D01*
X006584Y015693D01*
X006571Y015700D01*
X006489Y015726D01*
X006403Y015740D01*
X006380Y015740D01*
X006380Y015210D01*
X006910Y015210D01*
X006910Y015233D01*
X006896Y015319D01*
X006870Y015401D01*
X006863Y015414D01*
X009830Y012447D01*
X009837Y012440D01*
X009837Y012216D01*
X009923Y012130D01*
X009897Y012130D01*
X005747Y007980D01*
X005630Y007863D01*
X005630Y004069D01*
X005510Y004019D01*
X005361Y003870D01*
X005280Y003675D01*
X005280Y003465D01*
X005361Y003270D01*
X005510Y003121D01*
X005705Y003040D01*
X005915Y003040D01*
X006110Y003121D01*
X006259Y003270D01*
X006340Y003465D01*
X006340Y003675D01*
X006259Y003870D01*
X006110Y004019D01*
X006030Y004053D01*
X006030Y007697D01*
X009817Y011484D01*
X009817Y011275D01*
X009829Y011229D01*
X009853Y011188D01*
X009886Y011154D01*
X009927Y011131D01*
X009930Y011130D01*
X009847Y011130D01*
X009547Y010830D01*
X009430Y010713D01*
X009430Y007447D01*
X009899Y006978D01*
X009837Y006916D01*
X009837Y006430D01*
X009497Y006430D01*
X009380Y006313D01*
X007880Y004813D01*
X007880Y001597D01*
X007997Y001480D01*
X008697Y000780D01*
X023177Y000780D01*
X023249Y000709D01*
X023366Y000660D01*
X023494Y000660D01*
X023611Y000709D01*
X023701Y000799D01*
X023750Y000916D01*
X023750Y000927D01*
X023880Y000797D01*
X023997Y000680D01*
X032227Y000680D01*
X032297Y000610D01*
X001555Y000610D01*
X001408Y000622D01*
X001128Y000713D01*
X001080Y000747D02*
X023210Y000747D01*
X023177Y001180D02*
X017763Y001180D01*
X017763Y001180D01*
X019913Y001180D01*
X020030Y001297D01*
X020450Y001717D01*
X020450Y001464D01*
X020543Y001370D01*
X021476Y001370D01*
X021570Y001464D01*
X021570Y002396D01*
X021476Y002490D01*
X020580Y002490D01*
X020580Y003825D01*
X020616Y003810D01*
X020744Y003810D01*
X020861Y003859D01*
X020890Y003887D01*
X022287Y002490D01*
X022276Y002490D01*
X022070Y002405D01*
X021913Y002247D01*
X021827Y002041D01*
X021827Y001819D01*
X021913Y001613D01*
X022070Y001455D01*
X022276Y001370D01*
X022499Y001370D01*
X022705Y001455D01*
X022862Y001613D01*
X022947Y001819D01*
X022947Y001830D01*
X023030Y001747D01*
X023030Y001647D01*
X023377Y001300D01*
X023366Y001300D01*
X023249Y001251D01*
X023177Y001180D01*
X023220Y001223D02*
X019955Y001223D01*
X020114Y001381D02*
X020532Y001381D01*
X020450Y001540D02*
X020272Y001540D01*
X020431Y001698D02*
X020450Y001698D01*
X020180Y002069D02*
X020106Y002247D01*
X019949Y002405D01*
X019743Y002490D01*
X019520Y002490D01*
X019314Y002405D01*
X019157Y002247D01*
X019072Y002041D01*
X019072Y001819D01*
X019157Y001613D01*
X019190Y001580D01*
X018696Y001580D01*
X018728Y001613D01*
X018814Y001819D01*
X018814Y002041D01*
X018728Y002247D01*
X018571Y002405D01*
X018365Y002490D01*
X018142Y002490D01*
X017936Y002405D01*
X017779Y002247D01*
X017694Y002041D01*
X017694Y001819D01*
X017735Y001718D01*
X017622Y001605D01*
X017397Y001380D01*
X017011Y001380D01*
X017193Y001455D01*
X017350Y001613D01*
X017436Y001819D01*
X017436Y002041D01*
X017350Y002247D01*
X017193Y002405D01*
X017030Y002472D01*
X017030Y003763D01*
X015870Y004923D01*
X015870Y005187D01*
X015930Y005247D01*
X015930Y006353D01*
X015938Y006348D01*
X015984Y006336D01*
X016087Y006336D01*
X016087Y006676D01*
X016087Y006676D01*
X016402Y006676D01*
X016402Y006676D01*
X016142Y006676D01*
X016087Y006676D01*
X016087Y006676D01*
X016087Y006336D01*
X016191Y006336D01*
X016237Y006348D01*
X016245Y006353D01*
X016253Y006348D01*
X016299Y006336D01*
X016402Y006336D01*
X016402Y006676D01*
X016402Y006676D01*
X016662Y006676D01*
X016662Y006859D01*
X016650Y006905D01*
X016646Y006913D01*
X016713Y006980D01*
X017075Y006980D01*
X017060Y006944D01*
X017060Y006816D01*
X017109Y006699D01*
X017199Y006609D01*
X017316Y006560D01*
X017417Y006560D01*
X018030Y005947D01*
X018030Y003583D01*
X017959Y003511D01*
X017910Y003394D01*
X017910Y003266D01*
X017959Y003149D01*
X018049Y003059D01*
X018166Y003010D01*
X018294Y003010D01*
X018411Y003059D01*
X018501Y003149D01*
X018550Y003266D01*
X018550Y003394D01*
X018501Y003511D01*
X018430Y003583D01*
X018430Y005947D01*
X018430Y006113D01*
X017700Y006843D01*
X017700Y006944D01*
X017651Y007061D01*
X017633Y007080D01*
X017977Y007080D01*
X018049Y007009D01*
X018166Y006960D01*
X018294Y006960D01*
X018411Y007009D01*
X018501Y007099D01*
X018550Y007216D01*
X018550Y007320D01*
X018559Y007299D01*
X018627Y007230D01*
X018559Y007161D01*
X018510Y007044D01*
X018510Y006916D01*
X018559Y006799D01*
X018649Y006709D01*
X018668Y006701D01*
X018580Y006613D01*
X018580Y005547D01*
X018697Y005430D01*
X018897Y005230D01*
X019209Y005230D01*
X019290Y005149D01*
X019478Y005149D01*
X020080Y004547D01*
X020197Y004430D01*
X020297Y004430D01*
X020180Y004313D01*
X020180Y002069D01*
X020180Y002174D02*
X020137Y002174D01*
X020180Y002332D02*
X020022Y002332D01*
X020180Y002491D02*
X017030Y002491D01*
X017030Y002649D02*
X020180Y002649D01*
X020180Y002808D02*
X017030Y002808D01*
X017030Y002966D02*
X020180Y002966D01*
X020180Y003125D02*
X018477Y003125D01*
X018550Y003283D02*
X020180Y003283D01*
X020180Y003442D02*
X018530Y003442D01*
X018430Y003600D02*
X020180Y003600D01*
X020180Y003759D02*
X018430Y003759D01*
X018430Y003917D02*
X020180Y003917D01*
X020180Y004076D02*
X018430Y004076D01*
X018430Y004234D02*
X020180Y004234D01*
X020260Y004393D02*
X018430Y004393D01*
X018430Y004551D02*
X020076Y004551D01*
X019918Y004710D02*
X018430Y004710D01*
X018430Y004868D02*
X019759Y004868D01*
X019601Y005027D02*
X018430Y005027D01*
X018430Y005185D02*
X019254Y005185D01*
X018784Y005344D02*
X018430Y005344D01*
X018430Y005502D02*
X018625Y005502D01*
X018580Y005661D02*
X018430Y005661D01*
X018430Y005819D02*
X018580Y005819D01*
X018580Y005978D02*
X018430Y005978D01*
X018407Y006136D02*
X018580Y006136D01*
X018580Y006295D02*
X018248Y006295D01*
X018090Y006453D02*
X018580Y006453D01*
X018580Y006612D02*
X017931Y006612D01*
X017773Y006770D02*
X018587Y006770D01*
X018510Y006929D02*
X017700Y006929D01*
X017196Y006612D02*
X016662Y006612D01*
X016662Y006676D02*
X016402Y006676D01*
X016402Y006676D01*
X016402Y006336D01*
X016506Y006336D01*
X016552Y006348D01*
X016593Y006372D01*
X016626Y006405D01*
X016650Y006446D01*
X016662Y006492D01*
X016662Y006676D01*
X016662Y006770D02*
X017079Y006770D01*
X017060Y006929D02*
X016661Y006929D01*
X016402Y006612D02*
X016402Y006612D01*
X016402Y006453D02*
X016402Y006453D01*
X016652Y006453D02*
X017524Y006453D01*
X017683Y006295D02*
X015930Y006295D01*
X015930Y006136D02*
X017841Y006136D01*
X018000Y005978D02*
X015930Y005978D01*
X015930Y005819D02*
X018030Y005819D01*
X018030Y005661D02*
X015930Y005661D01*
X015930Y005502D02*
X018030Y005502D01*
X018030Y005344D02*
X017767Y005344D01*
X017890Y005221D02*
X017621Y005490D01*
X017430Y005490D01*
X017430Y005030D01*
X017430Y005030D01*
X017890Y005030D01*
X017890Y005221D01*
X017890Y005185D02*
X018030Y005185D01*
X018030Y005027D02*
X017890Y005027D01*
X017890Y005030D02*
X017430Y005030D01*
X017430Y005030D01*
X017430Y005030D01*
X016970Y005030D01*
X016970Y005221D01*
X017239Y005490D01*
X017430Y005490D01*
X017430Y005030D01*
X017430Y004570D01*
X017621Y004570D01*
X017890Y004839D01*
X017890Y005030D01*
X017890Y004868D02*
X018030Y004868D01*
X018030Y004710D02*
X017760Y004710D01*
X018030Y004551D02*
X016242Y004551D01*
X016239Y004570D02*
X015970Y004839D01*
X015970Y005030D01*
X016430Y005030D01*
X016430Y005030D01*
X016430Y005490D01*
X016621Y005490D01*
X016890Y005221D01*
X016890Y005030D01*
X016430Y005030D01*
X016430Y005030D01*
X016430Y005030D01*
X016430Y005490D01*
X016239Y005490D01*
X015970Y005221D01*
X015970Y005030D01*
X016430Y005030D01*
X016890Y005030D01*
X016890Y004839D01*
X016621Y004570D01*
X016430Y004570D01*
X016430Y005030D01*
X016430Y005030D01*
X016430Y004570D01*
X016239Y004570D01*
X016100Y004710D02*
X016083Y004710D01*
X015970Y004868D02*
X015925Y004868D01*
X015970Y005027D02*
X015870Y005027D01*
X015870Y005185D02*
X015970Y005185D01*
X015930Y005344D02*
X016093Y005344D01*
X016430Y005344D02*
X016430Y005344D01*
X016430Y005185D02*
X016430Y005185D01*
X016430Y005027D02*
X016430Y005027D01*
X016430Y004868D02*
X016430Y004868D01*
X016430Y004710D02*
X016430Y004710D01*
X016400Y004393D02*
X018030Y004393D01*
X018030Y004234D02*
X016559Y004234D01*
X016717Y004076D02*
X018030Y004076D01*
X018030Y003917D02*
X016876Y003917D01*
X017030Y003759D02*
X018030Y003759D01*
X018030Y003600D02*
X017030Y003600D01*
X017030Y003442D02*
X017930Y003442D01*
X017910Y003283D02*
X017030Y003283D01*
X017030Y003125D02*
X017983Y003125D01*
X016630Y003125D02*
X014330Y003125D01*
X014330Y003283D02*
X016630Y003283D01*
X016630Y003442D02*
X014330Y003442D01*
X014330Y003600D02*
X016627Y003600D01*
X016630Y003597D02*
X016630Y002434D01*
X016558Y002405D01*
X016401Y002247D01*
X016316Y002041D01*
X016316Y001819D01*
X016401Y001613D01*
X016558Y001455D01*
X016740Y001380D01*
X015682Y001380D01*
X015720Y001392D01*
X015802Y001434D01*
X015876Y001488D01*
X015940Y001552D01*
X015994Y001626D01*
X016035Y001707D01*
X016063Y001794D01*
X016078Y001884D01*
X016078Y001892D01*
X015536Y001892D01*
X015536Y001968D01*
X016078Y001968D01*
X016078Y001976D01*
X016063Y002066D01*
X016035Y002153D01*
X015994Y002234D01*
X015940Y002308D01*
X015876Y002372D01*
X015802Y002426D01*
X015720Y002468D01*
X015634Y002496D01*
X015543Y002510D01*
X015536Y002510D01*
X015536Y001968D01*
X015460Y001968D01*
X015460Y002510D01*
X015452Y002510D01*
X015362Y002496D01*
X015275Y002468D01*
X015194Y002426D01*
X015120Y002372D01*
X015055Y002308D01*
X015002Y002234D01*
X014960Y002153D01*
X014932Y002066D01*
X014918Y001976D01*
X014918Y001968D01*
X015460Y001968D01*
X015460Y001892D01*
X014918Y001892D01*
X014918Y001884D01*
X014932Y001794D01*
X014960Y001707D01*
X015002Y001626D01*
X015055Y001552D01*
X015120Y001488D01*
X015194Y001434D01*
X015275Y001392D01*
X015314Y001380D01*
X014255Y001380D01*
X014437Y001455D01*
X014595Y001613D01*
X014680Y001819D01*
X014680Y002041D01*
X014595Y002247D01*
X014437Y002405D01*
X014330Y002449D01*
X014330Y004590D01*
X014612Y004590D01*
X014870Y004848D01*
X014870Y005187D01*
X015530Y005847D01*
X015530Y005470D01*
X015248Y005470D01*
X014990Y005212D01*
X014990Y004848D01*
X015248Y004590D01*
X015612Y004590D01*
X015625Y004602D01*
X016630Y003597D01*
X016469Y003759D02*
X014330Y003759D01*
X014330Y003917D02*
X016310Y003917D01*
X016152Y004076D02*
X014330Y004076D01*
X014330Y004234D02*
X015993Y004234D01*
X015835Y004393D02*
X014330Y004393D01*
X014330Y004551D02*
X015676Y004551D01*
X015128Y004710D02*
X014732Y004710D01*
X014870Y004868D02*
X014990Y004868D01*
X014990Y005027D02*
X014870Y005027D01*
X014870Y005185D02*
X014990Y005185D01*
X015026Y005344D02*
X015121Y005344D01*
X015185Y005502D02*
X015530Y005502D01*
X015530Y005661D02*
X015343Y005661D01*
X015502Y005819D02*
X015530Y005819D01*
X016767Y005344D02*
X017093Y005344D01*
X016970Y005185D02*
X016890Y005185D01*
X016890Y005027D02*
X016970Y005027D01*
X016970Y005030D02*
X016970Y004839D01*
X017239Y004570D01*
X017430Y004570D01*
X017430Y005030D01*
X017430Y005030D01*
X016970Y005030D01*
X016970Y004868D02*
X016890Y004868D01*
X016760Y004710D02*
X017100Y004710D01*
X017430Y004710D02*
X017430Y004710D01*
X017430Y004868D02*
X017430Y004868D01*
X017430Y005027D02*
X017430Y005027D01*
X017430Y005185D02*
X017430Y005185D01*
X017430Y005344D02*
X017430Y005344D01*
X016087Y006453D02*
X016087Y006453D01*
X016087Y006612D02*
X016087Y006612D01*
X015203Y007180D02*
X013657Y007180D01*
X013662Y007201D01*
X013662Y007384D01*
X013402Y007384D01*
X013142Y007384D01*
X013087Y007384D01*
X012773Y007384D01*
X012773Y007384D01*
X012773Y007044D01*
X012876Y007044D01*
X012922Y007057D01*
X012930Y007061D01*
X012938Y007057D01*
X012984Y007044D01*
X013061Y007044D01*
X013047Y007030D01*
X013013Y006996D01*
X012941Y006996D01*
X012930Y006984D01*
X012919Y006996D01*
X012630Y006996D01*
X012630Y007055D01*
X012669Y007044D01*
X012773Y007044D01*
X012773Y007384D01*
X012773Y007384D01*
X013033Y007384D01*
X013087Y007384D01*
X013087Y007384D01*
X013087Y007724D01*
X012984Y007724D01*
X012938Y007712D01*
X012930Y007707D01*
X012922Y007712D01*
X012876Y007724D01*
X012773Y007724D01*
X012773Y007384D01*
X012773Y007384D01*
X012458Y007384D01*
X012458Y007384D01*
X012718Y007384D01*
X012773Y007384D01*
X012773Y007384D01*
X012773Y007724D01*
X012669Y007724D01*
X012653Y007720D01*
X013363Y008430D01*
X015713Y008430D01*
X016060Y008777D01*
X016248Y008590D01*
X016612Y008590D01*
X016870Y008848D01*
X016870Y009187D01*
X016913Y009230D01*
X017008Y009230D01*
X016990Y009212D01*
X016990Y008848D01*
X017248Y008590D01*
X017612Y008590D01*
X017668Y008646D01*
X017709Y008549D01*
X017799Y008459D01*
X017916Y008410D01*
X018027Y008410D01*
X017755Y008138D01*
X017750Y008143D01*
X017750Y008244D01*
X017701Y008361D01*
X017611Y008451D01*
X017494Y008500D01*
X017366Y008500D01*
X017249Y008451D01*
X017159Y008361D01*
X017110Y008244D01*
X017110Y008116D01*
X017159Y007999D01*
X017249Y007909D01*
X017366Y007860D01*
X017467Y007860D01*
X017472Y007855D01*
X017247Y007630D01*
X016623Y007630D01*
X016549Y007704D01*
X016280Y007704D01*
X016280Y007927D01*
X016351Y007999D01*
X016400Y008116D01*
X016400Y008244D01*
X016351Y008361D01*
X016261Y008451D01*
X016144Y008500D01*
X016016Y008500D01*
X015899Y008451D01*
X015809Y008361D01*
X015760Y008244D01*
X015760Y008116D01*
X015809Y007999D01*
X015880Y007927D01*
X015880Y007723D01*
X015876Y007724D01*
X015773Y007724D01*
X015773Y007384D01*
X015773Y007384D01*
X015458Y007384D01*
X015458Y007384D01*
X015718Y007384D01*
X015773Y007384D01*
X015773Y007384D01*
X015773Y007724D01*
X015669Y007724D01*
X015623Y007712D01*
X015615Y007707D01*
X015607Y007712D01*
X015561Y007724D01*
X015458Y007724D01*
X015458Y007384D01*
X015458Y007384D01*
X015198Y007384D01*
X015198Y007201D01*
X015203Y007180D01*
X015198Y007246D02*
X013662Y007246D01*
X013662Y007384D02*
X013402Y007384D01*
X013402Y007384D01*
X013087Y007384D01*
X013087Y007384D01*
X013087Y007384D01*
X013087Y007724D01*
X013191Y007724D01*
X013237Y007712D01*
X013245Y007707D01*
X013253Y007712D01*
X013299Y007724D01*
X013402Y007724D01*
X013402Y007384D01*
X013402Y007384D01*
X013402Y007384D01*
X013402Y007724D01*
X013506Y007724D01*
X013552Y007712D01*
X013593Y007688D01*
X013626Y007655D01*
X013650Y007614D01*
X013662Y007568D01*
X013662Y007384D01*
X013662Y007404D02*
X015198Y007404D01*
X015198Y007384D02*
X015458Y007384D01*
X015458Y007384D01*
X015458Y007724D01*
X015354Y007724D01*
X015308Y007712D01*
X015267Y007688D01*
X015234Y007655D01*
X015210Y007614D01*
X015198Y007568D01*
X015198Y007384D01*
X015198Y007563D02*
X013662Y007563D01*
X013519Y007721D02*
X015341Y007721D01*
X015458Y007721D02*
X015458Y007721D01*
X015574Y007721D02*
X015656Y007721D01*
X015773Y007721D02*
X015773Y007721D01*
X015773Y007563D02*
X015773Y007563D01*
X015773Y007404D02*
X015773Y007404D01*
X015458Y007404D02*
X015458Y007404D01*
X015458Y007563D02*
X015458Y007563D01*
X015880Y007880D02*
X012812Y007880D01*
X012773Y007721D02*
X012773Y007721D01*
X012889Y007721D02*
X012971Y007721D01*
X013087Y007721D02*
X013087Y007721D01*
X013204Y007721D02*
X013286Y007721D01*
X013402Y007721D02*
X013402Y007721D01*
X013402Y007563D02*
X013402Y007563D01*
X013402Y007404D02*
X013402Y007404D01*
X013087Y007404D02*
X013087Y007404D01*
X013087Y007563D02*
X013087Y007563D01*
X012773Y007563D02*
X012773Y007563D01*
X012773Y007404D02*
X012773Y007404D01*
X012773Y007246D02*
X012773Y007246D01*
X012773Y007087D02*
X012773Y007087D01*
X012221Y006906D02*
X012218Y006902D01*
X012218Y006775D01*
X012138Y006855D01*
X012138Y006855D01*
X011930Y007063D01*
X011930Y008913D01*
X011655Y009187D01*
X011698Y009230D01*
X011979Y009230D01*
X011970Y009221D01*
X011970Y009030D01*
X012430Y009030D01*
X012890Y009030D01*
X012890Y009221D01*
X012881Y009230D01*
X012979Y009230D01*
X012970Y009221D01*
X012970Y009030D01*
X013430Y009030D01*
X013890Y009030D01*
X013890Y009221D01*
X013747Y009364D01*
X014330Y009947D01*
X014330Y009960D01*
X014576Y009960D01*
X014616Y010000D01*
X014639Y009976D01*
X014681Y009952D01*
X014726Y009940D01*
X014323Y009940D01*
X014164Y009782D02*
X016299Y009782D01*
X016457Y009940D02*
X015034Y009940D01*
X015079Y009952D01*
X015121Y009976D01*
X015144Y010000D01*
X015184Y009960D01*
X015576Y009960D01*
X015630Y010014D01*
X015684Y009960D01*
X016076Y009960D01*
X016170Y010054D01*
X016170Y010986D01*
X016076Y011080D01*
X015684Y011080D01*
X015630Y011026D01*
X015576Y011080D01*
X015184Y011080D01*
X015144Y011040D01*
X015121Y011064D01*
X015079Y011088D01*
X015034Y011100D01*
X014880Y011100D01*
X014880Y010520D01*
X014880Y010520D01*
X014880Y011100D01*
X014726Y011100D01*
X014681Y011088D01*
X014639Y011064D01*
X014616Y011040D01*
X014576Y011080D01*
X014513Y011080D01*
X015813Y012380D01*
X015930Y012380D01*
X015930Y012197D01*
X016047Y012080D01*
X016860Y011267D01*
X016860Y011166D01*
X016909Y011049D01*
X016999Y010959D01*
X017116Y010910D01*
X017244Y010910D01*
X017258Y010916D01*
X017258Y010628D01*
X017352Y010534D01*
X017380Y010534D01*
X017380Y010285D01*
X017299Y010251D01*
X017227Y010180D01*
X016697Y010180D01*
X016580Y010063D01*
X015830Y009313D01*
X015830Y009281D01*
X015621Y009490D01*
X015430Y009490D01*
X015430Y009030D01*
X015430Y009030D01*
X015430Y009030D01*
X014970Y009030D01*
X014970Y009221D01*
X015239Y009490D01*
X015430Y009490D01*
X015430Y009030D01*
X014970Y009030D01*
X014970Y008839D01*
X014979Y008830D01*
X014881Y008830D01*
X014890Y008839D01*
X014890Y009030D01*
X014890Y009221D01*
X014621Y009490D01*
X014430Y009490D01*
X014430Y009030D01*
X014430Y009030D01*
X014890Y009030D01*
X014430Y009030D01*
X014430Y009030D01*
X014430Y009030D01*
X013970Y009030D01*
X013970Y009221D01*
X014239Y009490D01*
X014430Y009490D01*
X014430Y009030D01*
X013970Y009030D01*
X013970Y008839D01*
X013979Y008830D01*
X013881Y008830D01*
X013890Y008839D01*
X013890Y009030D01*
X013430Y009030D01*
X013430Y009030D01*
X013430Y009030D01*
X012970Y009030D01*
X012970Y008839D01*
X013088Y008721D01*
X013080Y008713D01*
X012030Y007663D01*
X012030Y007097D01*
X012147Y006980D01*
X012147Y006980D01*
X012221Y006906D01*
X012199Y006929D02*
X012064Y006929D01*
X012040Y007087D02*
X011930Y007087D01*
X011930Y007246D02*
X012030Y007246D01*
X012030Y007404D02*
X011930Y007404D01*
X011930Y007563D02*
X012030Y007563D01*
X012088Y007721D02*
X011930Y007721D01*
X011930Y007880D02*
X012247Y007880D01*
X012405Y008038D02*
X011930Y008038D01*
X011930Y008197D02*
X012564Y008197D01*
X012722Y008355D02*
X011930Y008355D01*
X011930Y008514D02*
X012881Y008514D01*
X012723Y008672D02*
X013039Y008672D01*
X012979Y008831D02*
X012881Y008831D01*
X012890Y008839D02*
X012890Y009030D01*
X012430Y009030D01*
X012430Y009030D01*
X012430Y009030D01*
X012430Y008570D01*
X012621Y008570D01*
X012890Y008839D01*
X012890Y008989D02*
X012970Y008989D01*
X012970Y009148D02*
X012890Y009148D01*
X012430Y009030D02*
X012430Y009030D01*
X011970Y009030D01*
X011970Y008839D01*
X012239Y008570D01*
X012430Y008570D01*
X012430Y009030D01*
X012430Y008989D02*
X012430Y008989D01*
X012430Y008831D02*
X012430Y008831D01*
X012430Y008672D02*
X012430Y008672D01*
X012137Y008672D02*
X011930Y008672D01*
X011930Y008831D02*
X011979Y008831D01*
X011970Y008989D02*
X011854Y008989D01*
X011970Y009148D02*
X011695Y009148D01*
X011279Y008998D02*
X010822Y008998D01*
X010822Y008620D01*
X010746Y008620D01*
X010746Y008998D01*
X010030Y008998D01*
X010030Y009170D01*
X011107Y009170D01*
X011279Y008998D01*
X011130Y009148D02*
X010030Y009148D01*
X009430Y009148D02*
X007480Y009148D01*
X007639Y009306D02*
X009430Y009306D01*
X009430Y009465D02*
X007797Y009465D01*
X007956Y009623D02*
X009430Y009623D01*
X009430Y009782D02*
X008114Y009782D01*
X008273Y009940D02*
X009430Y009940D01*
X009430Y010099D02*
X008431Y010099D01*
X008590Y010257D02*
X009430Y010257D01*
X009430Y010416D02*
X008748Y010416D01*
X008907Y010574D02*
X009430Y010574D01*
X009450Y010733D02*
X009065Y010733D01*
X009224Y010891D02*
X009608Y010891D01*
X009767Y011050D02*
X009382Y011050D01*
X009541Y011208D02*
X009841Y011208D01*
X009817Y011367D02*
X009699Y011367D01*
X009829Y011497D02*
X009906Y011573D01*
X010746Y011573D01*
X010746Y011497D01*
X009829Y011497D01*
X009858Y011525D02*
X010746Y011525D01*
X009894Y012159D02*
X000614Y012159D01*
X000614Y012001D02*
X009768Y012001D01*
X009609Y011842D02*
X000614Y011842D01*
X000614Y011684D02*
X009451Y011684D01*
X009292Y011525D02*
X000614Y011525D01*
X000614Y011367D02*
X009134Y011367D01*
X008975Y011208D02*
X000614Y011208D01*
X000614Y011050D02*
X008817Y011050D01*
X008658Y010891D02*
X000614Y010891D01*
X000614Y010733D02*
X008500Y010733D01*
X008341Y010574D02*
X000614Y010574D01*
X000614Y010416D02*
X008183Y010416D01*
X008024Y010257D02*
X000614Y010257D01*
X000614Y010099D02*
X007866Y010099D01*
X007707Y009940D02*
X000614Y009940D01*
X000614Y009782D02*
X007549Y009782D01*
X007390Y009623D02*
X000614Y009623D01*
X000614Y009465D02*
X007232Y009465D01*
X007073Y009306D02*
X000614Y009306D01*
X000614Y009148D02*
X006915Y009148D01*
X006756Y008989D02*
X000614Y008989D01*
X000614Y008831D02*
X006598Y008831D01*
X006439Y008672D02*
X000614Y008672D01*
X000614Y008514D02*
X006281Y008514D01*
X006122Y008355D02*
X000614Y008355D01*
X000614Y008197D02*
X005964Y008197D01*
X005805Y008038D02*
X000614Y008038D01*
X000614Y007880D02*
X005647Y007880D01*
X005630Y007721D02*
X000614Y007721D01*
X000614Y007563D02*
X005630Y007563D01*
X005630Y007404D02*
X000614Y007404D01*
X000614Y007246D02*
X005630Y007246D01*
X005630Y007087D02*
X000614Y007087D01*
X000614Y006929D02*
X005630Y006929D01*
X005630Y006770D02*
X000614Y006770D01*
X000614Y006612D02*
X005630Y006612D01*
X005630Y006453D02*
X000614Y006453D01*
X000614Y006295D02*
X005630Y006295D01*
X005630Y006136D02*
X000614Y006136D01*
X000614Y005978D02*
X005630Y005978D01*
X005630Y005819D02*
X000614Y005819D01*
X000614Y005661D02*
X005630Y005661D01*
X005630Y005502D02*
X000614Y005502D01*
X000614Y005344D02*
X005630Y005344D01*
X005630Y005185D02*
X000614Y005185D01*
X000614Y005027D02*
X005630Y005027D01*
X005630Y004868D02*
X000614Y004868D01*
X000614Y004710D02*
X005630Y004710D01*
X005630Y004551D02*
X000614Y004551D01*
X000614Y004393D02*
X005630Y004393D01*
X005630Y004234D02*
X002559Y004234D01*
X002559Y004239D02*
X002465Y004333D01*
X001230Y004333D01*
X001136Y004239D01*
X001136Y003319D01*
X001230Y003225D01*
X002465Y003225D01*
X002559Y003319D01*
X002559Y004239D01*
X002559Y004076D02*
X003085Y004076D01*
X003145Y004100D02*
X002950Y004019D01*
X002801Y003870D01*
X002720Y003675D01*
X002720Y003465D01*
X002801Y003270D01*
X002950Y003121D01*
X003145Y003040D01*
X003355Y003040D01*
X003550Y003121D01*
X003699Y003270D01*
X003780Y003465D01*
X003780Y003675D01*
X003699Y003870D01*
X003550Y004019D01*
X003355Y004100D01*
X003145Y004100D01*
X003415Y004076D02*
X005630Y004076D01*
X005407Y003917D02*
X003653Y003917D01*
X003746Y003759D02*
X005314Y003759D01*
X005280Y003600D02*
X003780Y003600D01*
X003770Y003442D02*
X005290Y003442D01*
X005355Y003283D02*
X003705Y003283D01*
X003554Y003125D02*
X005506Y003125D01*
X006114Y003125D02*
X007880Y003125D01*
X007880Y003283D02*
X006265Y003283D01*
X006330Y003442D02*
X007880Y003442D01*
X007880Y003600D02*
X006340Y003600D01*
X006306Y003759D02*
X007880Y003759D01*
X007880Y003917D02*
X006213Y003917D01*
X006030Y004076D02*
X007880Y004076D01*
X007880Y004234D02*
X006030Y004234D01*
X006030Y004393D02*
X007880Y004393D01*
X007880Y004551D02*
X006030Y004551D01*
X006030Y004710D02*
X007880Y004710D01*
X007935Y004868D02*
X006030Y004868D01*
X006030Y005027D02*
X008094Y005027D01*
X008252Y005185D02*
X006030Y005185D01*
X006030Y005344D02*
X008411Y005344D01*
X008569Y005502D02*
X006030Y005502D01*
X006030Y005661D02*
X008728Y005661D01*
X008886Y005819D02*
X006030Y005819D01*
X006030Y005978D02*
X009045Y005978D01*
X009203Y006136D02*
X006030Y006136D01*
X006030Y006295D02*
X009362Y006295D01*
X009837Y006453D02*
X006030Y006453D01*
X006030Y006612D02*
X009837Y006612D01*
X009837Y006770D02*
X006030Y006770D01*
X006030Y006929D02*
X009849Y006929D01*
X009790Y007087D02*
X006030Y007087D01*
X006030Y007246D02*
X009632Y007246D01*
X009473Y007404D02*
X006030Y007404D01*
X006030Y007563D02*
X009430Y007563D01*
X009430Y007721D02*
X006054Y007721D01*
X006212Y007880D02*
X009430Y007880D01*
X009430Y008038D02*
X006371Y008038D01*
X006529Y008197D02*
X009430Y008197D01*
X009430Y008355D02*
X006688Y008355D01*
X006846Y008514D02*
X009430Y008514D01*
X009430Y008672D02*
X007005Y008672D01*
X007163Y008831D02*
X009430Y008831D01*
X009430Y008989D02*
X007322Y008989D01*
X010277Y008166D02*
X010449Y007994D01*
X011530Y007994D01*
X011530Y008166D01*
X010822Y008166D01*
X010822Y008544D01*
X010746Y008544D01*
X010746Y008166D01*
X010277Y008166D01*
X010405Y008038D02*
X011530Y008038D01*
X010822Y008197D02*
X010746Y008197D01*
X010746Y008355D02*
X010822Y008355D01*
X010822Y008514D02*
X010746Y008514D01*
X010746Y008672D02*
X010822Y008672D01*
X010822Y008831D02*
X010746Y008831D01*
X010746Y008989D02*
X010822Y008989D01*
X011732Y009630D02*
X011732Y009869D01*
X011667Y009934D01*
X011930Y010197D01*
X011930Y010497D01*
X012070Y010637D01*
X012070Y010520D01*
X012380Y010520D01*
X012380Y009940D01*
X012534Y009940D01*
X013226Y009940D01*
X013380Y009940D01*
X013534Y009940D01*
X013757Y009940D01*
X013777Y009960D02*
X013447Y009630D01*
X011732Y009630D01*
X011732Y009782D02*
X013599Y009782D01*
X013534Y009940D02*
X013579Y009952D01*
X013621Y009976D01*
X013644Y010000D01*
X013684Y009960D01*
X013777Y009960D01*
X013380Y009940D02*
X013380Y009940D01*
X013380Y010520D01*
X013380Y010520D01*
X013380Y011100D01*
X013534Y011100D01*
X013579Y011088D01*
X013621Y011064D01*
X013644Y011040D01*
X013684Y011080D01*
X013947Y011080D01*
X014047Y011180D01*
X015047Y012180D01*
X014647Y012180D01*
X014547Y012280D01*
X014505Y012322D01*
X013283Y011100D01*
X013380Y011100D01*
X013380Y010520D01*
X013380Y010520D01*
X013380Y009940D01*
X013226Y009940D02*
X013181Y009952D01*
X013139Y009976D01*
X013116Y010000D01*
X013076Y009960D01*
X012684Y009960D01*
X012644Y010000D01*
X012621Y009976D01*
X012579Y009952D01*
X012534Y009940D01*
X012380Y009940D02*
X012380Y009940D01*
X012380Y010520D01*
X012380Y010520D01*
X012380Y010520D01*
X012070Y010520D01*
X012070Y010096D01*
X012082Y010051D01*
X012106Y010009D01*
X012139Y009976D01*
X012181Y009952D01*
X012226Y009940D01*
X011673Y009940D01*
X011831Y010099D02*
X012070Y010099D01*
X012070Y010257D02*
X011930Y010257D01*
X011930Y010416D02*
X012070Y010416D01*
X012070Y010574D02*
X012007Y010574D01*
X012380Y010416D02*
X012380Y010416D01*
X012380Y010257D02*
X012380Y010257D01*
X012380Y010099D02*
X012380Y010099D01*
X012380Y009940D02*
X012226Y009940D01*
X013380Y010099D02*
X013380Y010099D01*
X013380Y010257D02*
X013380Y010257D01*
X013380Y010416D02*
X013380Y010416D01*
X013380Y010574D02*
X013380Y010574D01*
X013380Y010733D02*
X013380Y010733D01*
X013380Y010891D02*
X013380Y010891D01*
X013380Y011050D02*
X013380Y011050D01*
X013391Y011208D02*
X014075Y011208D01*
X014234Y011367D02*
X013549Y011367D01*
X013708Y011525D02*
X014392Y011525D01*
X014551Y011684D02*
X013866Y011684D01*
X014025Y011842D02*
X014709Y011842D01*
X014868Y012001D02*
X014183Y012001D01*
X014342Y012159D02*
X015026Y012159D01*
X015433Y012001D02*
X016127Y012001D01*
X015968Y012159D02*
X015592Y012159D01*
X015750Y012318D02*
X015930Y012318D01*
X016330Y012363D02*
X016499Y012194D01*
X016499Y012351D01*
X016511Y012396D01*
X016535Y012437D01*
X016568Y012471D01*
X016609Y012495D01*
X016655Y012507D01*
X016877Y012507D01*
X016877Y012148D01*
X016914Y012148D01*
X016914Y012507D01*
X017136Y012507D01*
X017181Y012495D01*
X017222Y012471D01*
X017244Y012449D01*
X017282Y012487D01*
X017847Y012487D01*
X017941Y012393D01*
X017941Y011867D01*
X017847Y011773D01*
X017780Y011773D01*
X017780Y011326D01*
X017799Y011326D01*
X017893Y011232D01*
X017893Y010826D01*
X017967Y010900D01*
X017967Y011232D01*
X018061Y011326D01*
X018080Y011326D01*
X018080Y015263D01*
X019012Y016195D01*
X018982Y016269D01*
X018982Y016491D01*
X019027Y016600D01*
X018722Y016905D01*
X018347Y017280D01*
X016913Y017280D01*
X017413Y016780D01*
X017530Y016663D01*
X017530Y016097D01*
X017413Y015980D01*
X017413Y015980D01*
X017180Y015747D01*
X017180Y015747D01*
X017063Y015630D01*
X014913Y015630D01*
X013630Y014347D01*
X013630Y014285D01*
X013666Y014300D01*
X013794Y014300D01*
X013911Y014251D01*
X013983Y014180D01*
X014413Y014180D01*
X015005Y013588D01*
X015097Y013680D01*
X015147Y013680D01*
X017642Y016175D01*
X017604Y016269D01*
X017604Y016491D01*
X017689Y016697D01*
X017847Y016855D01*
X018052Y016940D01*
X018275Y016940D01*
X018481Y016855D01*
X018639Y016697D01*
X018724Y016491D01*
X018724Y016269D01*
X018639Y016063D01*
X018481Y015905D01*
X018275Y015820D01*
X018052Y015820D01*
X017911Y015878D01*
X015713Y013680D01*
X016163Y013680D01*
X016280Y013563D01*
X016330Y013513D01*
X016330Y012363D01*
X016375Y012318D02*
X016499Y012318D01*
X016577Y012476D02*
X016330Y012476D01*
X016330Y012635D02*
X018080Y012635D01*
X018080Y012793D02*
X016330Y012793D01*
X016330Y012952D02*
X018080Y012952D01*
X018080Y013110D02*
X016330Y013110D01*
X016330Y013269D02*
X018080Y013269D01*
X018080Y013427D02*
X016330Y013427D01*
X016257Y013586D02*
X018080Y013586D01*
X018080Y013744D02*
X015777Y013744D01*
X015935Y013903D02*
X018080Y013903D01*
X018080Y014061D02*
X016094Y014061D01*
X016252Y014220D02*
X018080Y014220D01*
X018080Y014378D02*
X016411Y014378D01*
X016569Y014537D02*
X018080Y014537D01*
X018080Y014695D02*
X016728Y014695D01*
X016886Y014854D02*
X018080Y014854D01*
X018080Y015012D02*
X017045Y015012D01*
X017203Y015171D02*
X018080Y015171D01*
X018146Y015329D02*
X017362Y015329D01*
X017520Y015488D02*
X018305Y015488D01*
X018463Y015646D02*
X017679Y015646D01*
X017837Y015805D02*
X018622Y015805D01*
X018539Y015963D02*
X018780Y015963D01*
X018663Y016122D02*
X018939Y016122D01*
X018982Y016280D02*
X018724Y016280D01*
X018724Y016439D02*
X018982Y016439D01*
X019026Y016597D02*
X018680Y016597D01*
X018580Y016756D02*
X018872Y016756D01*
X018713Y016914D02*
X018338Y016914D01*
X018555Y017073D02*
X017120Y017073D01*
X016962Y017231D02*
X018396Y017231D01*
X018573Y017620D02*
X018863Y017330D01*
X026513Y017330D01*
X026630Y017213D01*
X028980Y014863D01*
X028980Y014380D01*
X029863Y014380D01*
X029980Y014263D01*
X030180Y014063D01*
X030180Y013085D01*
X030281Y013085D01*
X030375Y012992D01*
X030375Y012818D01*
X030411Y012782D01*
X030411Y012992D01*
X030505Y013085D01*
X030630Y013085D01*
X030630Y014723D01*
X030216Y014723D01*
X030123Y014816D01*
X030123Y016044D01*
X030216Y016137D01*
X031444Y016137D01*
X031537Y016044D01*
X031537Y014816D01*
X031444Y014723D01*
X031030Y014723D01*
X031030Y013085D01*
X031070Y013085D01*
X031164Y012992D01*
X031164Y012580D01*
X031374Y012580D01*
X031393Y012599D01*
X031816Y012599D01*
X031880Y012663D01*
X031997Y012780D01*
X032625Y012780D01*
X032659Y012861D01*
X032749Y012951D01*
X032866Y013000D01*
X032994Y013000D01*
X033111Y012951D01*
X033165Y012898D01*
X034630Y014363D01*
X034747Y014480D01*
X036403Y014480D01*
X036403Y014578D01*
X036497Y014671D01*
X037063Y014671D01*
X037101Y014634D01*
X037264Y014797D01*
X037264Y014943D01*
X037358Y015036D01*
X037971Y015036D01*
X038064Y014943D01*
X038064Y013817D01*
X037971Y013724D01*
X037656Y013724D01*
X037488Y013555D01*
X037656Y013387D01*
X038028Y013387D01*
X038066Y013349D01*
X038088Y013371D01*
X038129Y013395D01*
X038174Y013407D01*
X038396Y013407D01*
X038396Y013048D01*
X038433Y013048D01*
X038433Y013407D01*
X038530Y013407D01*
X038530Y013724D01*
X038389Y013724D01*
X038296Y013817D01*
X038296Y014175D01*
X038288Y014188D01*
X038276Y014234D01*
X038276Y014380D01*
X038696Y014380D01*
X039116Y014380D01*
X039116Y014526D01*
X039105Y014567D01*
X039116Y014608D01*
X039116Y014754D01*
X038696Y014754D01*
X039116Y014754D01*
X039116Y014900D01*
X039104Y014946D01*
X039080Y014987D01*
X039046Y015020D01*
X039005Y015044D01*
X038960Y015056D01*
X038696Y015056D01*
X038696Y014754D01*
X038696Y014754D01*
X038696Y014380D01*
X038696Y014380D01*
X039116Y014380D01*
X039116Y014234D01*
X039104Y014188D01*
X039096Y014175D01*
X039096Y013817D01*
X039002Y013724D01*
X038930Y013724D01*
X038930Y013413D01*
X039113Y013230D01*
X039113Y013230D01*
X039230Y013113D01*
X039230Y010247D01*
X038430Y009447D01*
X038313Y009330D01*
X034297Y009330D01*
X033411Y010216D01*
X033411Y010209D01*
X033399Y010164D01*
X033375Y010123D01*
X033342Y010089D01*
X033301Y010065D01*
X033255Y010053D01*
X033033Y010053D01*
X033033Y010412D01*
X032996Y010412D01*
X032996Y010053D01*
X032774Y010053D01*
X032729Y010065D01*
X032688Y010089D01*
X032666Y010111D01*
X032628Y010073D01*
X032580Y010073D01*
X032580Y009505D01*
X032821Y009505D01*
X032914Y009411D01*
X032914Y008649D01*
X032846Y008580D01*
X033186Y008580D01*
X033162Y008605D01*
X033138Y008646D01*
X033126Y008691D01*
X033126Y008972D01*
X033523Y008972D01*
X033523Y009088D01*
X033126Y009088D01*
X033126Y009369D01*
X033138Y009414D01*
X033162Y009455D01*
X033195Y009489D01*
X033236Y009513D01*
X033282Y009525D01*
X033523Y009525D01*
X033523Y009088D01*
X033639Y009088D01*
X033639Y009525D01*
X033880Y009525D01*
X033926Y009513D01*
X033967Y009489D01*
X034001Y009455D01*
X034025Y009414D01*
X034037Y009369D01*
X034037Y009088D01*
X033639Y009088D01*
X033639Y008972D01*
X034037Y008972D01*
X034037Y008691D01*
X034025Y008646D01*
X034001Y008605D01*
X033976Y008580D01*
X034463Y008580D01*
X034580Y008463D01*
X037730Y005313D01*
X037730Y002647D01*
X037613Y002530D01*
X037530Y002447D01*
X037530Y002232D01*
X037699Y002401D01*
X037699Y002401D01*
X038011Y002530D01*
X038349Y002530D01*
X038661Y002401D01*
X038661Y002401D01*
X038901Y002161D01*
X038901Y002161D01*
X039030Y001849D01*
X039030Y001511D01*
X038901Y001199D01*
X038901Y001199D01*
X038661Y000959D01*
X038661Y000959D01*
X038349Y000830D01*
X038011Y000830D01*
X037699Y000959D01*
X037699Y000959D01*
X037459Y001199D01*
X037459Y001199D01*
X037437Y001254D01*
X037413Y001230D01*
X036793Y000610D01*
X038255Y000610D01*
X038410Y000622D01*
X038707Y000718D01*
X038959Y000901D01*
X039142Y001153D01*
X039238Y001450D01*
X039250Y001605D01*
X039250Y016688D01*
X039230Y016840D01*
X039119Y017129D01*
X038924Y017369D01*
X038664Y017537D01*
X038366Y017616D01*
X038221Y017620D01*
X038206Y017620D01*
X038136Y017616D01*
X038132Y017620D01*
X018573Y017620D01*
X018645Y017548D02*
X038622Y017548D01*
X038661Y017276D02*
X038349Y017405D01*
X038011Y017405D01*
X037699Y017276D01*
X037699Y017276D01*
X037459Y017036D01*
X037330Y016724D01*
X037330Y016386D01*
X037459Y016074D01*
X037699Y015834D01*
X038011Y015705D01*
X038349Y015705D01*
X038661Y015834D01*
X038661Y015834D01*
X038901Y016074D01*
X039030Y016386D01*
X039030Y016505D01*
X039030Y016724D01*
X038901Y017036D01*
X038901Y017036D01*
X038661Y017276D01*
X038661Y017276D01*
X038706Y017231D02*
X039036Y017231D01*
X039140Y017073D02*
X038865Y017073D01*
X038951Y016914D02*
X039201Y016914D01*
X039241Y016756D02*
X039017Y016756D01*
X039030Y016597D02*
X039250Y016597D01*
X039250Y016439D02*
X039030Y016439D01*
X038986Y016280D02*
X039250Y016280D01*
X039250Y016122D02*
X038920Y016122D01*
X038901Y016074D02*
X038901Y016074D01*
X038901Y016074D01*
X038790Y015963D02*
X039250Y015963D01*
X039250Y015805D02*
X038589Y015805D01*
X039250Y015646D02*
X036737Y015646D01*
X036737Y015488D02*
X039250Y015488D01*
X039250Y015329D02*
X036737Y015329D01*
X036737Y015171D02*
X039250Y015171D01*
X039250Y015012D02*
X039055Y015012D01*
X039116Y014854D02*
X039250Y014854D01*
X039250Y014695D02*
X039116Y014695D01*
X039113Y014537D02*
X039250Y014537D01*
X039250Y014378D02*
X039116Y014378D01*
X039112Y014220D02*
X039250Y014220D01*
X039250Y014061D02*
X039096Y014061D01*
X039096Y013903D02*
X039250Y013903D01*
X039250Y013744D02*
X039023Y013744D01*
X038930Y013586D02*
X039250Y013586D01*
X039250Y013427D02*
X038930Y013427D01*
X039074Y013269D02*
X039250Y013269D01*
X039250Y013110D02*
X039230Y013110D01*
X039230Y012952D02*
X039250Y012952D01*
X039250Y012793D02*
X039230Y012793D01*
X039230Y012635D02*
X039250Y012635D01*
X039250Y012476D02*
X039230Y012476D01*
X039230Y012318D02*
X039250Y012318D01*
X039250Y012159D02*
X039230Y012159D01*
X039230Y012001D02*
X039250Y012001D01*
X039250Y011842D02*
X039230Y011842D01*
X039230Y011684D02*
X039250Y011684D01*
X039250Y011525D02*
X039230Y011525D01*
X039230Y011367D02*
X039250Y011367D01*
X039250Y011208D02*
X039230Y011208D01*
X039230Y011050D02*
X039250Y011050D01*
X039250Y010891D02*
X039230Y010891D01*
X039230Y010733D02*
X039250Y010733D01*
X039250Y010574D02*
X039230Y010574D01*
X039230Y010416D02*
X039250Y010416D01*
X039250Y010257D02*
X039230Y010257D01*
X039250Y010099D02*
X039081Y010099D01*
X038923Y009940D02*
X039250Y009940D01*
X039250Y009782D02*
X038764Y009782D01*
X038606Y009623D02*
X039250Y009623D01*
X039250Y009465D02*
X038447Y009465D01*
X038147Y009730D02*
X037823Y009730D01*
X037830Y009736D01*
X037912Y009818D01*
X037984Y009908D01*
X038046Y010006D01*
X038096Y010110D01*
X038134Y010219D01*
X038160Y010332D01*
X038170Y010425D01*
X037223Y010425D01*
X037223Y010585D01*
X038170Y010585D01*
X038160Y010678D01*
X038134Y010791D01*
X038096Y010900D01*
X038046Y011004D01*
X037984Y011102D01*
X037912Y011192D01*
X037830Y011274D01*
X037740Y011346D01*
X037642Y011408D01*
X037538Y011458D01*
X037428Y011496D01*
X037316Y011522D01*
X037223Y011533D01*
X037223Y010585D01*
X037063Y010585D01*
X037063Y011533D01*
X036970Y011522D01*
X036857Y011496D01*
X036748Y011458D01*
X036734Y011451D01*
X037213Y011930D01*
X037747Y011930D01*
X038212Y011465D01*
X038190Y011411D01*
X038190Y011236D01*
X038257Y011074D01*
X038381Y010951D01*
X038408Y010939D01*
X038389Y010930D01*
X038330Y010887D01*
X038279Y010836D01*
X038237Y010777D01*
X038204Y010713D01*
X038181Y010644D01*
X038170Y010573D01*
X038170Y010536D01*
X038170Y010500D01*
X038181Y010429D01*
X038204Y010360D01*
X038237Y010295D01*
X038279Y010237D01*
X038330Y010185D01*
X038389Y010143D01*
X038453Y010110D01*
X038509Y010092D01*
X038147Y009730D01*
X038199Y009782D02*
X037876Y009782D01*
X038004Y009940D02*
X038357Y009940D01*
X038489Y010099D02*
X038090Y010099D01*
X038143Y010257D02*
X038264Y010257D01*
X038186Y010416D02*
X038169Y010416D01*
X038170Y010536D02*
X038630Y010536D01*
X038630Y010536D01*
X038170Y010536D01*
X038170Y010574D02*
X037223Y010574D01*
X037223Y010733D02*
X037063Y010733D01*
X037063Y010585D02*
X037063Y010425D01*
X036115Y010425D01*
X036126Y010332D01*
X036152Y010219D01*
X036190Y010110D01*
X036240Y010006D01*
X036302Y009908D01*
X036374Y009818D01*
X036455Y009736D01*
X036463Y009730D01*
X035434Y009730D01*
X035589Y009885D01*
X035722Y010115D01*
X035791Y010372D01*
X035791Y010508D01*
X036196Y010914D01*
X036190Y010900D01*
X036152Y010791D01*
X036126Y010678D01*
X036115Y010585D01*
X037063Y010585D01*
X037063Y010574D02*
X035857Y010574D01*
X035791Y010416D02*
X036116Y010416D01*
X036143Y010257D02*
X035760Y010257D01*
X035712Y010099D02*
X036195Y010099D01*
X036281Y009940D02*
X035621Y009940D01*
X035486Y009782D02*
X036410Y009782D01*
X036138Y010733D02*
X036015Y010733D01*
X036174Y010891D02*
X036187Y010891D01*
X035767Y011050D02*
X035633Y011050D01*
X035589Y011125D02*
X035682Y010964D01*
X036045Y011328D01*
X036042Y011328D01*
X036042Y012275D01*
X035882Y012275D01*
X035882Y011328D01*
X035789Y011338D01*
X035676Y011364D01*
X035567Y011402D01*
X035463Y011452D01*
X035365Y011514D01*
X035274Y011586D01*
X035193Y011668D01*
X035120Y011758D01*
X035059Y011856D01*
X035009Y011961D01*
X034970Y012070D01*
X034945Y012183D01*
X034934Y012275D01*
X035882Y012275D01*
X035882Y012435D01*
X034934Y012435D01*
X034945Y012528D01*
X034970Y012641D01*
X035009Y012750D01*
X035059Y012854D01*
X035120Y012952D01*
X034884Y012952D01*
X034943Y013010D02*
X035044Y013010D01*
X035161Y013059D01*
X035251Y013149D01*
X035300Y013266D01*
X035300Y013394D01*
X035251Y013511D01*
X035161Y013601D01*
X035044Y013650D01*
X034916Y013650D01*
X034799Y013601D01*
X034709Y013511D01*
X034660Y013394D01*
X034660Y013293D01*
X033966Y012599D01*
X033541Y012599D01*
X033447Y012505D01*
X033447Y012146D01*
X033413Y012180D01*
X033413Y012505D01*
X033375Y012542D01*
X034913Y014080D01*
X035325Y014080D01*
X035310Y014044D01*
X035310Y013916D01*
X035359Y013799D01*
X035449Y013709D01*
X035566Y013660D01*
X035694Y013660D01*
X035811Y013709D01*
X035883Y013780D01*
X036403Y013780D01*
X036403Y013382D01*
X036497Y013289D01*
X037063Y013289D01*
X037126Y013351D01*
X037369Y013108D01*
X037369Y012767D01*
X037463Y012673D01*
X037580Y012673D01*
X037580Y012330D01*
X037047Y012330D01*
X036989Y012272D01*
X036989Y012275D01*
X036042Y012275D01*
X036042Y012435D01*
X036989Y012435D01*
X036979Y012528D01*
X036953Y012641D01*
X036915Y012750D01*
X036865Y012854D01*
X036803Y012952D01*
X036731Y013043D01*
X036649Y013125D01*
X036559Y013197D01*
X036461Y013258D01*
X036357Y013308D01*
X036247Y013347D01*
X036135Y013372D01*
X036042Y013383D01*
X036042Y012435D01*
X035882Y012435D01*
X035882Y013383D01*
X035789Y013372D01*
X035676Y013347D01*
X035567Y013308D01*
X035463Y013258D01*
X035365Y013197D01*
X035274Y013125D01*
X035193Y013043D01*
X035120Y012952D01*
X035029Y012793D02*
X034726Y012793D01*
X034567Y012635D02*
X034969Y012635D01*
X034939Y012476D02*
X034409Y012476D01*
X034250Y012318D02*
X035882Y012318D01*
X035882Y012476D02*
X036042Y012476D01*
X036042Y012318D02*
X037035Y012318D01*
X036985Y012476D02*
X037580Y012476D01*
X037580Y012635D02*
X036955Y012635D01*
X036894Y012793D02*
X037369Y012793D01*
X037369Y012952D02*
X036804Y012952D01*
X036664Y013110D02*
X037367Y013110D01*
X037209Y013269D02*
X036440Y013269D01*
X036403Y013427D02*
X035286Y013427D01*
X035300Y013269D02*
X035484Y013269D01*
X035260Y013110D02*
X035213Y013110D01*
X034943Y013010D02*
X034161Y012228D01*
X034161Y011821D01*
X034067Y011727D01*
X033965Y011727D01*
X034299Y011393D01*
X034391Y011446D01*
X034648Y011515D01*
X034914Y011515D01*
X035171Y011446D01*
X035401Y011313D01*
X035589Y011125D01*
X035506Y011208D02*
X035925Y011208D01*
X035882Y011367D02*
X036042Y011367D01*
X036042Y011525D02*
X035882Y011525D01*
X035882Y011684D02*
X036042Y011684D01*
X036042Y011842D02*
X035882Y011842D01*
X035882Y012001D02*
X036042Y012001D01*
X036042Y012159D02*
X035882Y012159D01*
X035180Y011684D02*
X034009Y011684D01*
X034161Y011842D02*
X035068Y011842D01*
X034995Y012001D02*
X034161Y012001D01*
X034161Y012159D02*
X034950Y012159D01*
X035351Y011525D02*
X034168Y011525D01*
X033073Y011343D02*
X033073Y010955D01*
X033167Y010861D01*
X033230Y010861D01*
X033230Y010807D01*
X033033Y010807D01*
X033033Y010448D01*
X032996Y010448D01*
X032996Y010807D01*
X032774Y010807D01*
X032729Y010795D01*
X032688Y010771D01*
X032666Y010749D01*
X032628Y010787D01*
X032256Y010787D01*
X032230Y010813D01*
X032230Y010861D01*
X032293Y010861D01*
X032387Y010955D01*
X032387Y011639D01*
X032298Y011727D01*
X032550Y011727D01*
X032610Y011667D01*
X032610Y011566D01*
X032659Y011449D01*
X032749Y011359D01*
X032866Y011310D01*
X032994Y011310D01*
X033073Y011343D01*
X033073Y011208D02*
X032387Y011208D01*
X032387Y011050D02*
X033073Y011050D01*
X033137Y010891D02*
X032323Y010891D01*
X031830Y010861D02*
X031830Y010647D01*
X031969Y010508D01*
X031969Y010167D01*
X032063Y010073D01*
X032180Y010073D01*
X032180Y009505D01*
X032137Y009505D01*
X032043Y009411D01*
X032043Y009129D01*
X031994Y009150D01*
X031866Y009150D01*
X031749Y009101D01*
X031677Y009030D01*
X031247Y009030D01*
X029899Y007682D01*
X029895Y007701D01*
X029871Y007742D01*
X029837Y007775D01*
X029796Y007799D01*
X029751Y007811D01*
X029548Y007811D01*
X029548Y007433D01*
X029512Y007433D01*
X029512Y007811D01*
X029309Y007811D01*
X029264Y007799D01*
X029223Y007775D01*
X029189Y007742D01*
X029165Y007701D01*
X029153Y007655D01*
X029153Y007433D01*
X029512Y007433D01*
X029512Y007396D01*
X029153Y007396D01*
X029153Y007196D01*
X029144Y007200D01*
X029016Y007200D01*
X028899Y007151D01*
X028809Y007061D01*
X028760Y006944D01*
X028760Y006816D01*
X028809Y006699D01*
X028899Y006609D01*
X029016Y006560D01*
X029144Y006560D01*
X029173Y006572D01*
X029173Y006480D01*
X028183Y006480D01*
X028111Y006551D01*
X027994Y006600D01*
X027866Y006600D01*
X027837Y006588D01*
X027837Y006647D01*
X027774Y006710D01*
X028051Y006710D01*
X028130Y006789D01*
X028209Y006710D01*
X028551Y006710D01*
X028645Y006804D01*
X028645Y007716D01*
X028551Y007810D01*
X028209Y007810D01*
X028130Y007731D01*
X028051Y007810D01*
X027709Y007810D01*
X027630Y007731D01*
X027551Y007810D01*
X027209Y007810D01*
X027130Y007731D01*
X027051Y007810D01*
X026709Y007810D01*
X026615Y007716D01*
X026615Y007041D01*
X026594Y007050D01*
X026466Y007050D01*
X026349Y007001D01*
X026259Y006911D01*
X026236Y006857D01*
X025742Y007351D01*
X025761Y007359D01*
X025851Y007449D01*
X025900Y007566D01*
X025900Y007667D01*
X026113Y007880D01*
X027413Y007880D01*
X027530Y007997D01*
X027963Y008430D01*
X028663Y008430D01*
X028780Y008547D01*
X030258Y010025D01*
X030501Y010025D01*
X030594Y010119D01*
X030594Y010803D01*
X030506Y010891D01*
X031737Y010891D01*
X031767Y010861D02*
X031830Y010861D01*
X031767Y010861D02*
X031673Y010955D01*
X031673Y011639D01*
X031762Y011727D01*
X031393Y011727D01*
X031299Y011821D01*
X031299Y012180D01*
X031164Y012180D01*
X031164Y011796D01*
X031070Y011702D01*
X030980Y011702D01*
X030980Y011397D01*
X030968Y011386D01*
X030968Y010985D01*
X030875Y010891D01*
X030506Y010891D01*
X030594Y010733D02*
X031830Y010733D01*
X031903Y010574D02*
X030594Y010574D01*
X030594Y010416D02*
X031969Y010416D01*
X031969Y010257D02*
X030594Y010257D01*
X030574Y010099D02*
X032037Y010099D01*
X032180Y009940D02*
X030173Y009940D01*
X030014Y009782D02*
X032180Y009782D01*
X032180Y009623D02*
X029856Y009623D01*
X029697Y009465D02*
X032097Y009465D01*
X032043Y009306D02*
X029539Y009306D01*
X029380Y009148D02*
X031860Y009148D01*
X032000Y009148D02*
X032043Y009148D01*
X032580Y009623D02*
X034004Y009623D01*
X033992Y009465D02*
X034163Y009465D01*
X034037Y009306D02*
X039250Y009306D01*
X039250Y009148D02*
X034037Y009148D01*
X033639Y009148D02*
X033523Y009148D01*
X033523Y009306D02*
X033639Y009306D01*
X033639Y009465D02*
X033523Y009465D01*
X033171Y009465D02*
X032861Y009465D01*
X032914Y009306D02*
X033126Y009306D01*
X033126Y009148D02*
X032914Y009148D01*
X032914Y008989D02*
X033523Y008989D01*
X033639Y008989D02*
X039250Y008989D01*
X039250Y008831D02*
X034037Y008831D01*
X034032Y008672D02*
X039250Y008672D01*
X039250Y008514D02*
X037144Y008514D01*
X037209Y008487D02*
X036911Y008610D01*
X036589Y008610D01*
X036291Y008487D01*
X036063Y008259D01*
X035940Y007961D01*
X035940Y007639D01*
X036063Y007341D01*
X036291Y007113D01*
X036589Y006990D01*
X036911Y006990D01*
X037209Y007113D01*
X037437Y007341D01*
X037560Y007639D01*
X037560Y007961D01*
X037437Y008259D01*
X037209Y008487D01*
X037340Y008355D02*
X039250Y008355D01*
X039250Y008197D02*
X037462Y008197D01*
X037528Y008038D02*
X039250Y008038D01*
X039250Y007880D02*
X037560Y007880D01*
X037560Y007721D02*
X039250Y007721D01*
X039250Y007563D02*
X037528Y007563D01*
X037463Y007404D02*
X039250Y007404D01*
X039250Y007246D02*
X037341Y007246D01*
X037145Y007087D02*
X039250Y007087D01*
X039250Y006929D02*
X036114Y006929D01*
X035956Y007087D02*
X036355Y007087D01*
X036159Y007246D02*
X035797Y007246D01*
X035639Y007404D02*
X036037Y007404D01*
X035972Y007563D02*
X035480Y007563D01*
X035322Y007721D02*
X035940Y007721D01*
X035940Y007880D02*
X035163Y007880D01*
X035005Y008038D02*
X035972Y008038D01*
X036038Y008197D02*
X034846Y008197D01*
X034688Y008355D02*
X036159Y008355D01*
X036356Y008514D02*
X034529Y008514D01*
X033131Y008672D02*
X032914Y008672D01*
X032914Y008831D02*
X033126Y008831D01*
X032580Y009782D02*
X033846Y009782D01*
X033687Y009940D02*
X032580Y009940D01*
X032654Y010099D02*
X032678Y010099D01*
X032996Y010099D02*
X033033Y010099D01*
X033033Y010257D02*
X032996Y010257D01*
X032996Y010574D02*
X033033Y010574D01*
X033033Y010733D02*
X032996Y010733D01*
X033351Y010099D02*
X033529Y010099D01*
X031673Y011050D02*
X030968Y011050D01*
X030968Y011208D02*
X031673Y011208D01*
X031673Y011367D02*
X030968Y011367D01*
X030980Y011525D02*
X031673Y011525D01*
X031718Y011684D02*
X030980Y011684D01*
X031164Y011842D02*
X031299Y011842D01*
X031299Y012001D02*
X031164Y012001D01*
X031164Y012159D02*
X031299Y012159D01*
X031164Y012635D02*
X031852Y012635D01*
X031164Y012793D02*
X032630Y012793D01*
X032749Y012952D02*
X031164Y012952D01*
X031030Y013110D02*
X033377Y013110D01*
X033219Y012952D02*
X033111Y012952D01*
X033536Y013269D02*
X031030Y013269D01*
X031030Y013427D02*
X033694Y013427D01*
X033853Y013586D02*
X031030Y013586D01*
X031030Y013744D02*
X034011Y013744D01*
X034170Y013903D02*
X031030Y013903D01*
X031030Y014061D02*
X034328Y014061D01*
X034487Y014220D02*
X031030Y014220D01*
X031030Y014378D02*
X034645Y014378D01*
X034354Y014539D02*
X034378Y014581D01*
X034390Y014626D01*
X034390Y015350D01*
X033510Y015350D01*
X033510Y015510D01*
X034390Y015510D01*
X034390Y016234D01*
X034378Y016279D01*
X034354Y016321D01*
X034321Y016354D01*
X034279Y016378D01*
X034234Y016390D01*
X033510Y016390D01*
X033510Y015510D01*
X033350Y015510D01*
X033350Y016390D01*
X032626Y016390D01*
X032581Y016378D01*
X032539Y016354D01*
X032506Y016321D01*
X032482Y016279D01*
X032470Y016234D01*
X032470Y015510D01*
X033350Y015510D01*
X033350Y015350D01*
X033510Y015350D01*
X033510Y014470D01*
X034234Y014470D01*
X034279Y014482D01*
X034321Y014506D01*
X034354Y014539D01*
X034351Y014537D02*
X036403Y014537D01*
X036644Y014723D02*
X036737Y014816D01*
X036737Y016044D01*
X036644Y016137D01*
X035416Y016137D01*
X035323Y016044D01*
X035323Y014816D01*
X035416Y014723D01*
X036644Y014723D01*
X036737Y014854D02*
X037264Y014854D01*
X037333Y015012D02*
X036737Y015012D01*
X037162Y014695D02*
X034390Y014695D01*
X034390Y014854D02*
X035323Y014854D01*
X035323Y015012D02*
X034390Y015012D01*
X034390Y015171D02*
X035323Y015171D01*
X035323Y015329D02*
X034390Y015329D01*
X034390Y015646D02*
X035323Y015646D01*
X035323Y015488D02*
X033510Y015488D01*
X033510Y015646D02*
X033350Y015646D01*
X033350Y015488D02*
X031537Y015488D01*
X031537Y015646D02*
X032470Y015646D01*
X032470Y015805D02*
X031537Y015805D01*
X031537Y015963D02*
X032470Y015963D01*
X032470Y016122D02*
X031460Y016122D01*
X032483Y016280D02*
X027563Y016280D01*
X027721Y016122D02*
X030200Y016122D01*
X030123Y015963D02*
X027880Y015963D01*
X028038Y015805D02*
X030123Y015805D01*
X030123Y015646D02*
X028197Y015646D01*
X028355Y015488D02*
X030123Y015488D01*
X030123Y015329D02*
X028514Y015329D01*
X028672Y015171D02*
X030123Y015171D01*
X030123Y015012D02*
X028831Y015012D01*
X028980Y014854D02*
X030123Y014854D01*
X030630Y014695D02*
X028980Y014695D01*
X028980Y014537D02*
X030630Y014537D01*
X030630Y014378D02*
X029865Y014378D01*
X030023Y014220D02*
X030630Y014220D01*
X030630Y014061D02*
X030180Y014061D01*
X030180Y013903D02*
X030630Y013903D01*
X030630Y013744D02*
X030180Y013744D01*
X030180Y013586D02*
X030630Y013586D01*
X030630Y013427D02*
X030180Y013427D01*
X030180Y013269D02*
X030630Y013269D01*
X030630Y013110D02*
X030180Y013110D01*
X030375Y012952D02*
X030411Y012952D01*
X030400Y012793D02*
X030411Y012793D01*
X029780Y013085D02*
X029715Y013085D01*
X029622Y012992D01*
X029622Y012604D01*
X029330Y012313D01*
X029330Y011513D01*
X029294Y011477D01*
X029294Y012139D01*
X029230Y012204D01*
X029230Y012764D01*
X029268Y012802D01*
X029268Y012983D01*
X029276Y012996D01*
X029288Y013042D01*
X029288Y013105D01*
X029288Y013168D01*
X029276Y013214D01*
X029252Y013255D01*
X029219Y013288D01*
X029178Y013312D01*
X029132Y013324D01*
X029032Y013324D01*
X029032Y013348D01*
X029030Y013350D01*
X029030Y013498D01*
X029112Y013498D01*
X029150Y013536D01*
X029171Y013514D01*
X029212Y013490D01*
X029258Y013478D01*
X029480Y013478D01*
X029480Y013836D01*
X029517Y013836D01*
X029517Y013478D01*
X029739Y013478D01*
X029780Y013489D01*
X029780Y013085D01*
X029780Y013110D02*
X029288Y013110D01*
X029288Y013105D02*
X029177Y013105D01*
X029177Y013105D01*
X029288Y013105D01*
X029268Y012952D02*
X029622Y012952D01*
X029622Y012793D02*
X029259Y012793D01*
X029230Y012635D02*
X029622Y012635D01*
X029493Y012476D02*
X029230Y012476D01*
X029230Y012318D02*
X029335Y012318D01*
X029330Y012159D02*
X029275Y012159D01*
X029294Y012001D02*
X029330Y012001D01*
X029330Y011842D02*
X029294Y011842D01*
X029294Y011684D02*
X029330Y011684D01*
X029330Y011525D02*
X029294Y011525D01*
X028676Y011309D02*
X028580Y011213D01*
X027804Y010437D01*
X027413Y010437D01*
X027319Y010343D01*
X027319Y010324D01*
X027081Y010562D01*
X027081Y010677D01*
X027149Y010609D01*
X027266Y010560D01*
X027394Y010560D01*
X027511Y010609D01*
X027601Y010699D01*
X027650Y010816D01*
X027650Y010944D01*
X027634Y010983D01*
X027666Y011015D01*
X027688Y010993D01*
X027729Y010970D01*
X027774Y010957D01*
X027996Y010957D01*
X027996Y011316D01*
X028033Y011316D01*
X028033Y011353D01*
X028411Y011353D01*
X028411Y011430D01*
X028474Y011430D01*
X028474Y011403D01*
X028568Y011309D01*
X028676Y011309D01*
X028575Y011208D02*
X028411Y011208D01*
X028411Y011114D02*
X028411Y011316D01*
X028033Y011316D01*
X028033Y010957D01*
X028255Y010957D01*
X028301Y010970D01*
X028342Y010993D01*
X028375Y011027D01*
X028399Y011068D01*
X028411Y011114D01*
X028417Y011050D02*
X028388Y011050D01*
X028258Y010891D02*
X027650Y010891D01*
X027615Y010733D02*
X028100Y010733D01*
X027941Y010574D02*
X027427Y010574D01*
X027391Y010416D02*
X027227Y010416D01*
X027233Y010574D02*
X027081Y010574D01*
X026280Y011005D02*
X026275Y011007D01*
X026053Y011007D01*
X026053Y010648D01*
X026016Y010648D01*
X026016Y010612D01*
X025638Y010612D01*
X025638Y010409D01*
X025650Y010364D01*
X025674Y010323D01*
X025708Y010289D01*
X025749Y010265D01*
X025794Y010253D01*
X025835Y010253D01*
X025810Y010194D01*
X025810Y010066D01*
X025859Y009949D01*
X025949Y009859D01*
X026066Y009810D01*
X026167Y009810D01*
X026330Y009647D01*
X026447Y009530D01*
X026595Y009530D01*
X026595Y009200D01*
X026880Y009200D01*
X026880Y009200D01*
X026595Y009200D01*
X026595Y008949D01*
X026594Y008950D01*
X026493Y008950D01*
X025280Y010163D01*
X025280Y012916D01*
X025599Y012916D01*
X025693Y013010D01*
X025693Y013130D01*
X025859Y013130D01*
X025822Y013093D01*
X025822Y012567D01*
X025909Y012480D01*
X025547Y012480D01*
X025430Y012363D01*
X025330Y012263D01*
X025330Y011597D01*
X025447Y011480D01*
X025487Y011440D01*
X025459Y011411D01*
X025410Y011294D01*
X025410Y011166D01*
X025459Y011049D01*
X025549Y010959D01*
X025660Y010913D01*
X025650Y010896D01*
X025638Y010851D01*
X025638Y010648D01*
X026016Y010648D01*
X026016Y011007D01*
X025959Y011007D01*
X026001Y011049D01*
X026002Y011051D01*
X026034Y011032D01*
X026079Y011020D01*
X026173Y011020D01*
X026173Y011320D01*
X026173Y011320D01*
X026173Y011020D01*
X026267Y011020D01*
X026280Y011024D01*
X026280Y011005D01*
X026173Y011050D02*
X026173Y011050D01*
X026173Y011208D02*
X026173Y011208D01*
X026173Y011320D02*
X026203Y011320D01*
X026203Y011320D01*
X026173Y011320D01*
X026173Y011320D01*
X025930Y011489D02*
X025930Y011563D01*
X025730Y011763D01*
X025730Y012080D01*
X025943Y012080D01*
X025943Y011967D01*
X025938Y011949D01*
X025938Y011748D01*
X026416Y011748D01*
X026416Y011712D01*
X025938Y011712D01*
X025938Y011514D01*
X025935Y011509D01*
X025930Y011489D01*
X025930Y011525D02*
X025938Y011525D01*
X025938Y011684D02*
X025809Y011684D01*
X025730Y011842D02*
X025938Y011842D01*
X025943Y012001D02*
X025730Y012001D01*
X025330Y012001D02*
X025280Y012001D01*
X025280Y012159D02*
X025330Y012159D01*
X025280Y012318D02*
X025385Y012318D01*
X025280Y012476D02*
X025543Y012476D01*
X025280Y012635D02*
X025822Y012635D01*
X025822Y012793D02*
X025280Y012793D01*
X025634Y012952D02*
X025822Y012952D01*
X025839Y013110D02*
X025693Y013110D01*
X024880Y012916D02*
X024880Y009997D01*
X024997Y009880D01*
X026210Y008667D01*
X026210Y008566D01*
X026246Y008480D01*
X025747Y008480D01*
X025617Y008350D01*
X025516Y008350D01*
X025399Y008301D01*
X025368Y008271D01*
X025351Y008311D01*
X025261Y008401D01*
X025144Y008450D01*
X025016Y008450D01*
X024899Y008401D01*
X024827Y008330D01*
X023483Y008330D01*
X023551Y008399D01*
X023600Y008516D01*
X023600Y008644D01*
X023551Y008761D01*
X023513Y008800D01*
X023801Y008800D01*
X023880Y008879D01*
X023959Y008800D01*
X024301Y008800D01*
X024395Y008894D01*
X024395Y009806D01*
X024301Y009900D01*
X024143Y009900D01*
X024150Y009916D01*
X024150Y010044D01*
X024117Y010123D01*
X024147Y010123D01*
X024241Y010217D01*
X024241Y010743D01*
X024147Y010837D01*
X024080Y010837D01*
X024080Y011637D01*
X024129Y011657D01*
X024253Y011781D01*
X024320Y011942D01*
X024320Y012118D01*
X024253Y012279D01*
X024129Y012403D01*
X023968Y012470D01*
X023792Y012470D01*
X023631Y012403D01*
X023507Y012279D01*
X023440Y012118D01*
X023440Y011942D01*
X023507Y011781D01*
X023631Y011657D01*
X023680Y011637D01*
X023680Y010837D01*
X023582Y010837D01*
X023544Y010799D01*
X023522Y010821D01*
X023481Y010845D01*
X023436Y010857D01*
X023214Y010857D01*
X023214Y010498D01*
X023177Y010498D01*
X023177Y010462D01*
X022799Y010462D01*
X022683Y010462D01*
X022683Y010498D01*
X023177Y010498D01*
X023177Y010857D01*
X022955Y010857D01*
X022930Y010850D01*
X022905Y010857D01*
X022683Y010857D01*
X022683Y010498D01*
X022646Y010498D01*
X022646Y010857D01*
X022424Y010857D01*
X022379Y010845D01*
X022338Y010821D01*
X022316Y010799D01*
X022278Y010837D01*
X021713Y010837D01*
X021619Y010743D01*
X021619Y010452D01*
X021617Y010450D01*
X021547Y010450D01*
X021501Y010561D01*
X021448Y010615D01*
X024193Y013360D01*
X024294Y013360D01*
X024411Y013409D01*
X024501Y013499D01*
X024550Y013616D01*
X024550Y013744D01*
X024830Y013744D01*
X024830Y013704D02*
X024769Y013643D01*
X024769Y013010D01*
X024862Y012916D01*
X024880Y012916D01*
X024827Y012952D02*
X023784Y012952D01*
X023943Y013110D02*
X024769Y013110D01*
X024769Y013269D02*
X024101Y013269D01*
X024430Y013427D02*
X024769Y013427D01*
X024769Y013586D02*
X024537Y013586D01*
X024550Y013744D02*
X024501Y013861D01*
X024411Y013951D01*
X024294Y014000D01*
X024166Y014000D01*
X024049Y013951D01*
X023959Y013861D01*
X023910Y013744D01*
X021780Y013744D01*
X021780Y013586D02*
X023853Y013586D01*
X023910Y013643D02*
X022410Y012142D01*
X022353Y012279D01*
X022229Y012403D01*
X022068Y012470D01*
X021892Y012470D01*
X021780Y012423D01*
X021780Y014797D01*
X022913Y015930D01*
X023030Y016047D01*
X023030Y016713D01*
X022813Y016930D01*
X023540Y016930D01*
X023358Y016855D01*
X023201Y016697D01*
X023116Y016491D01*
X023116Y016269D01*
X023201Y016063D01*
X023358Y015905D01*
X023564Y015820D01*
X023787Y015820D01*
X023907Y015870D01*
X024830Y014947D01*
X024830Y013704D01*
X024830Y013903D02*
X024460Y013903D01*
X024830Y014061D02*
X021780Y014061D01*
X021780Y013903D02*
X024000Y013903D01*
X023910Y013744D02*
X023910Y013643D01*
X023694Y013427D02*
X021780Y013427D01*
X021780Y013269D02*
X023536Y013269D01*
X023377Y013110D02*
X021780Y013110D01*
X021780Y012952D02*
X023219Y012952D01*
X023060Y012793D02*
X021780Y012793D01*
X021780Y012635D02*
X022902Y012635D01*
X022743Y012476D02*
X021780Y012476D01*
X022315Y012318D02*
X022585Y012318D01*
X022426Y012159D02*
X022403Y012159D01*
X022675Y011842D02*
X023482Y011842D01*
X023440Y012001D02*
X022833Y012001D01*
X022992Y012159D02*
X023457Y012159D01*
X023545Y012318D02*
X023150Y012318D01*
X023309Y012476D02*
X024880Y012476D01*
X024880Y012318D02*
X024215Y012318D01*
X024303Y012159D02*
X024880Y012159D01*
X024880Y012001D02*
X024320Y012001D01*
X024278Y011842D02*
X024880Y011842D01*
X024880Y011684D02*
X024156Y011684D01*
X024080Y011525D02*
X024880Y011525D01*
X024880Y011367D02*
X024080Y011367D01*
X024080Y011208D02*
X024880Y011208D01*
X024880Y011050D02*
X024080Y011050D01*
X024080Y010891D02*
X024880Y010891D01*
X024880Y010733D02*
X024241Y010733D01*
X024241Y010574D02*
X024880Y010574D01*
X024880Y010416D02*
X024241Y010416D01*
X024241Y010257D02*
X024880Y010257D01*
X024880Y010099D02*
X024127Y010099D01*
X024150Y009940D02*
X024937Y009940D01*
X025096Y009782D02*
X024395Y009782D01*
X024395Y009623D02*
X025254Y009623D01*
X025413Y009465D02*
X024395Y009465D01*
X024395Y009306D02*
X025571Y009306D01*
X025730Y009148D02*
X024395Y009148D01*
X024395Y008989D02*
X025888Y008989D01*
X026047Y008831D02*
X024332Y008831D01*
X023928Y008831D02*
X023832Y008831D01*
X023588Y008672D02*
X026205Y008672D01*
X026232Y008514D02*
X023599Y008514D01*
X023508Y008355D02*
X024852Y008355D01*
X025308Y008355D02*
X025622Y008355D01*
X026112Y007880D02*
X030097Y007880D01*
X030255Y008038D02*
X027571Y008038D01*
X027729Y008197D02*
X030414Y008197D01*
X030572Y008355D02*
X027888Y008355D01*
X028746Y008514D02*
X030731Y008514D01*
X030889Y008672D02*
X028905Y008672D01*
X029063Y008831D02*
X031048Y008831D01*
X031206Y008989D02*
X029222Y008989D01*
X028815Y009148D02*
X028645Y009148D01*
X028645Y009306D02*
X028973Y009306D01*
X029132Y009465D02*
X028645Y009465D01*
X028645Y009623D02*
X029290Y009623D01*
X029449Y009782D02*
X028730Y009782D01*
X028725Y009773D02*
X028749Y009814D01*
X028761Y009859D01*
X028761Y010062D01*
X028383Y010062D01*
X028383Y010098D01*
X028761Y010098D01*
X028761Y010301D01*
X028749Y010346D01*
X028725Y010387D01*
X028692Y010421D01*
X028651Y010445D01*
X028605Y010457D01*
X028390Y010457D01*
X028863Y010930D01*
X029313Y010930D01*
X029507Y011124D01*
X029507Y010985D01*
X029600Y010891D01*
X029969Y010891D01*
X028824Y010891D01*
X028665Y010733D02*
X029881Y010733D01*
X029881Y010803D02*
X029881Y010213D01*
X028645Y008978D01*
X028645Y009656D01*
X028598Y009703D01*
X028605Y009703D01*
X028651Y009715D01*
X028692Y009739D01*
X028725Y009773D01*
X028761Y009940D02*
X029607Y009940D01*
X029766Y010099D02*
X028761Y010099D01*
X028761Y010257D02*
X029881Y010257D01*
X029881Y010416D02*
X028697Y010416D01*
X028507Y010574D02*
X029881Y010574D01*
X029881Y010803D02*
X029969Y010891D01*
X029507Y011050D02*
X029432Y011050D01*
X028510Y011367D02*
X028411Y011367D01*
X028033Y011208D02*
X027996Y011208D01*
X027996Y011050D02*
X028033Y011050D01*
X028010Y011980D02*
X027283Y011980D01*
X027211Y012051D01*
X027142Y012080D01*
X027211Y012109D01*
X027301Y012199D01*
X027350Y012316D01*
X027350Y012417D01*
X027505Y012572D01*
X027505Y012397D01*
X027517Y012351D01*
X027541Y012310D01*
X027574Y012277D01*
X027615Y012253D01*
X027661Y012241D01*
X027863Y012241D01*
X027863Y012619D01*
X027900Y012619D01*
X027900Y012241D01*
X028088Y012241D01*
X028059Y012211D01*
X028010Y012094D01*
X028010Y011980D01*
X028010Y012001D02*
X027262Y012001D01*
X027262Y012159D02*
X028037Y012159D01*
X027900Y012318D02*
X027863Y012318D01*
X027863Y012476D02*
X027900Y012476D01*
X027505Y012476D02*
X027409Y012476D01*
X027350Y012318D02*
X027536Y012318D01*
X029239Y013269D02*
X029780Y013269D01*
X029780Y013427D02*
X029030Y013427D01*
X029480Y013586D02*
X029517Y013586D01*
X029517Y013744D02*
X029480Y013744D01*
X028580Y014212D02*
X028546Y014212D01*
X028453Y014118D01*
X028453Y013690D01*
X028233Y013910D01*
X028233Y014218D01*
X028195Y014256D01*
X028217Y014278D01*
X028240Y014319D01*
X028253Y014365D01*
X028253Y014586D01*
X027894Y014586D01*
X027894Y014623D01*
X028253Y014623D01*
X028253Y014845D01*
X028240Y014891D01*
X028217Y014932D01*
X028183Y014965D01*
X028142Y014989D01*
X028096Y015001D01*
X027894Y015001D01*
X027894Y014623D01*
X027857Y014623D01*
X027857Y014586D01*
X027499Y014586D01*
X027499Y014365D01*
X027511Y014319D01*
X027535Y014278D01*
X027557Y014256D01*
X027519Y014218D01*
X027519Y014130D01*
X027447Y014130D01*
X027330Y014013D01*
X026847Y013530D01*
X026835Y013530D01*
X026850Y013566D01*
X026850Y013694D01*
X026801Y013811D01*
X026730Y013883D01*
X026730Y014347D01*
X026730Y014513D01*
X025347Y015896D01*
X025371Y015905D01*
X025528Y016063D01*
X025614Y016269D01*
X025614Y016491D01*
X025528Y016697D01*
X025371Y016855D01*
X025189Y016930D01*
X026247Y016930D01*
X026209Y016918D01*
X026128Y016876D01*
X026054Y016822D01*
X025989Y016758D01*
X025936Y016684D01*
X025894Y016603D01*
X025866Y016516D01*
X025852Y016426D01*
X025852Y016418D01*
X026393Y016418D01*
X026393Y016342D01*
X025852Y016342D01*
X025852Y016334D01*
X025866Y016244D01*
X025894Y016157D01*
X025936Y016076D01*
X025989Y016002D01*
X026054Y015938D01*
X026128Y015884D01*
X026209Y015842D01*
X026296Y015814D01*
X026386Y015800D01*
X026393Y015800D01*
X026393Y016342D01*
X026470Y016342D01*
X026470Y015800D01*
X026477Y015800D01*
X026567Y015814D01*
X026654Y015842D01*
X026736Y015884D01*
X026809Y015938D01*
X026874Y016002D01*
X026928Y016076D01*
X026969Y016157D01*
X026997Y016244D01*
X027002Y016275D01*
X028580Y014697D01*
X028580Y014212D01*
X028580Y014220D02*
X028231Y014220D01*
X028233Y014061D02*
X028453Y014061D01*
X028453Y013903D02*
X028240Y013903D01*
X028399Y013744D02*
X028453Y013744D01*
X027520Y014220D02*
X026730Y014220D01*
X026730Y014378D02*
X027499Y014378D01*
X027499Y014537D02*
X026706Y014537D01*
X026548Y014695D02*
X027499Y014695D01*
X027499Y014623D02*
X027857Y014623D01*
X027857Y015001D01*
X027655Y015001D01*
X027609Y014989D01*
X027568Y014965D01*
X027535Y014932D01*
X027511Y014891D01*
X027499Y014845D01*
X027499Y014623D01*
X027501Y014854D02*
X026389Y014854D01*
X026231Y015012D02*
X028265Y015012D01*
X028250Y014854D02*
X028424Y014854D01*
X028580Y014695D02*
X028253Y014695D01*
X028253Y014537D02*
X028580Y014537D01*
X028580Y014378D02*
X028253Y014378D01*
X027894Y014695D02*
X027857Y014695D01*
X027857Y014854D02*
X027894Y014854D01*
X028107Y015171D02*
X026072Y015171D01*
X025914Y015329D02*
X027948Y015329D01*
X027790Y015488D02*
X025755Y015488D01*
X025597Y015646D02*
X027631Y015646D01*
X027473Y015805D02*
X026506Y015805D01*
X026470Y015805D02*
X026393Y015805D01*
X026357Y015805D02*
X025438Y015805D01*
X025429Y015963D02*
X026028Y015963D01*
X025912Y016122D02*
X025553Y016122D01*
X025614Y016280D02*
X025860Y016280D01*
X025854Y016439D02*
X025614Y016439D01*
X025570Y016597D02*
X025892Y016597D01*
X025987Y016756D02*
X025470Y016756D01*
X025228Y016914D02*
X026202Y016914D01*
X026770Y017073D02*
X037495Y017073D01*
X037459Y017036D02*
X037459Y017036D01*
X037409Y016914D02*
X026929Y016914D01*
X027087Y016756D02*
X037343Y016756D01*
X037330Y016597D02*
X027246Y016597D01*
X027404Y016439D02*
X037330Y016439D01*
X037374Y016280D02*
X034377Y016280D01*
X034390Y016122D02*
X035400Y016122D01*
X035323Y015963D02*
X034390Y015963D01*
X034390Y015805D02*
X035323Y015805D01*
X036660Y016122D02*
X037440Y016122D01*
X037459Y016074D02*
X037459Y016074D01*
X037570Y015963D02*
X036737Y015963D01*
X036737Y015805D02*
X037771Y015805D01*
X037995Y015012D02*
X038337Y015012D01*
X038345Y015020D02*
X038312Y014987D01*
X038288Y014946D01*
X038276Y014900D01*
X038276Y014754D01*
X038276Y014608D01*
X038287Y014567D01*
X038276Y014526D01*
X038276Y014380D01*
X038696Y014380D01*
X038696Y014380D01*
X038696Y014682D01*
X038696Y014754D01*
X038696Y014754D01*
X038696Y014754D01*
X038696Y015056D01*
X038432Y015056D01*
X038386Y015044D01*
X038345Y015020D01*
X038276Y014854D02*
X038064Y014854D01*
X038064Y014695D02*
X038276Y014695D01*
X038276Y014754D02*
X038696Y014754D01*
X038696Y014754D01*
X038276Y014754D01*
X038278Y014537D02*
X038064Y014537D01*
X038064Y014378D02*
X038276Y014378D01*
X038279Y014220D02*
X038064Y014220D01*
X038064Y014061D02*
X038296Y014061D01*
X038296Y013903D02*
X038064Y013903D01*
X037991Y013744D02*
X038369Y013744D01*
X038530Y013586D02*
X037518Y013586D01*
X037616Y013427D02*
X038530Y013427D01*
X038433Y013269D02*
X038396Y013269D01*
X038396Y013110D02*
X038433Y013110D01*
X038433Y013012D02*
X038433Y012653D01*
X038655Y012653D01*
X038701Y012665D01*
X038742Y012689D01*
X038775Y012723D01*
X038799Y012764D01*
X038811Y012809D01*
X038811Y012966D01*
X038830Y012947D01*
X038830Y011717D01*
X038718Y011764D01*
X038542Y011764D01*
X038498Y011745D01*
X038005Y012238D01*
X037980Y012263D01*
X037980Y012673D01*
X038028Y012673D01*
X038066Y012711D01*
X038088Y012689D01*
X038129Y012665D01*
X038174Y012653D01*
X038396Y012653D01*
X038396Y013012D01*
X038433Y013012D01*
X038433Y012952D02*
X038396Y012952D01*
X038396Y012793D02*
X038433Y012793D01*
X038807Y012793D02*
X038830Y012793D01*
X038830Y012635D02*
X037980Y012635D01*
X037980Y012476D02*
X038830Y012476D01*
X038830Y012318D02*
X037980Y012318D01*
X038005Y012238D02*
X038005Y012238D01*
X038084Y012159D02*
X038830Y012159D01*
X038830Y012001D02*
X038242Y012001D01*
X038401Y011842D02*
X038830Y011842D01*
X038152Y011525D02*
X037289Y011525D01*
X037223Y011525D02*
X037063Y011525D01*
X036996Y011525D02*
X036808Y011525D01*
X036966Y011684D02*
X037994Y011684D01*
X037835Y011842D02*
X037125Y011842D01*
X037063Y011367D02*
X037223Y011367D01*
X037223Y011208D02*
X037063Y011208D01*
X037063Y011050D02*
X037223Y011050D01*
X037223Y010891D02*
X037063Y010891D01*
X037708Y011367D02*
X038190Y011367D01*
X038202Y011208D02*
X037896Y011208D01*
X038017Y011050D02*
X038282Y011050D01*
X038336Y010891D02*
X038099Y010891D01*
X038147Y010733D02*
X038214Y010733D01*
X035669Y011367D02*
X035308Y011367D01*
X033447Y012159D02*
X033434Y012159D01*
X033447Y012318D02*
X033413Y012318D01*
X033413Y012476D02*
X033447Y012476D01*
X033467Y012635D02*
X034002Y012635D01*
X034160Y012793D02*
X033626Y012793D01*
X033784Y012952D02*
X034319Y012952D01*
X034477Y013110D02*
X033943Y013110D01*
X034101Y013269D02*
X034636Y013269D01*
X034674Y013427D02*
X034260Y013427D01*
X034418Y013586D02*
X034783Y013586D01*
X034577Y013744D02*
X035413Y013744D01*
X035316Y013903D02*
X034735Y013903D01*
X034894Y014061D02*
X035317Y014061D01*
X035847Y013744D02*
X036403Y013744D01*
X036403Y013586D02*
X035177Y013586D01*
X035882Y013269D02*
X036042Y013269D01*
X036042Y013110D02*
X035882Y013110D01*
X035882Y012952D02*
X036042Y012952D01*
X036042Y012793D02*
X035882Y012793D01*
X035882Y012635D02*
X036042Y012635D01*
X038811Y012952D02*
X038826Y012952D01*
X038696Y014380D02*
X038696Y014380D01*
X038696Y014537D02*
X038696Y014537D01*
X038696Y014695D02*
X038696Y014695D01*
X038696Y014854D02*
X038696Y014854D01*
X038696Y015012D02*
X038696Y015012D01*
X037654Y017231D02*
X026612Y017231D01*
X026470Y016280D02*
X026393Y016280D01*
X026393Y016122D02*
X026470Y016122D01*
X026470Y015963D02*
X026393Y015963D01*
X026835Y015963D02*
X027314Y015963D01*
X027156Y016122D02*
X026951Y016122D01*
X024765Y015012D02*
X021995Y015012D01*
X022153Y015171D02*
X024607Y015171D01*
X024448Y015329D02*
X022312Y015329D01*
X022470Y015488D02*
X024290Y015488D01*
X024131Y015646D02*
X022629Y015646D01*
X022787Y015805D02*
X023973Y015805D01*
X023301Y015963D02*
X022946Y015963D01*
X023030Y016122D02*
X023177Y016122D01*
X023116Y016280D02*
X023030Y016280D01*
X023030Y016439D02*
X023116Y016439D01*
X023159Y016597D02*
X023030Y016597D01*
X022987Y016756D02*
X023259Y016756D01*
X023502Y016914D02*
X022829Y016914D01*
X018803Y017390D02*
X037974Y017390D01*
X038386Y017390D02*
X038892Y017390D01*
X033510Y016280D02*
X033350Y016280D01*
X033350Y016122D02*
X033510Y016122D01*
X033510Y015963D02*
X033350Y015963D01*
X033350Y015805D02*
X033510Y015805D01*
X033510Y015329D02*
X033350Y015329D01*
X033350Y015350D02*
X033350Y014470D01*
X032626Y014470D01*
X032581Y014482D01*
X032539Y014506D01*
X032506Y014539D01*
X032482Y014581D01*
X032470Y014626D01*
X032470Y015350D01*
X033350Y015350D01*
X033350Y015171D02*
X033510Y015171D01*
X033510Y015012D02*
X033350Y015012D01*
X033350Y014854D02*
X033510Y014854D01*
X033510Y014695D02*
X033350Y014695D01*
X033350Y014537D02*
X033510Y014537D01*
X032509Y014537D02*
X031030Y014537D01*
X031030Y014695D02*
X032470Y014695D01*
X032470Y014854D02*
X031537Y014854D01*
X031537Y015012D02*
X032470Y015012D01*
X032470Y015171D02*
X031537Y015171D01*
X031537Y015329D02*
X032470Y015329D01*
X027378Y014061D02*
X026730Y014061D01*
X026730Y013903D02*
X027220Y013903D01*
X027061Y013744D02*
X026829Y013744D01*
X026850Y013586D02*
X026903Y013586D01*
X024880Y012793D02*
X023626Y012793D01*
X023467Y012635D02*
X024880Y012635D01*
X025280Y011842D02*
X025330Y011842D01*
X025330Y011684D02*
X025280Y011684D01*
X025280Y011525D02*
X025402Y011525D01*
X025440Y011367D02*
X025280Y011367D01*
X025280Y011208D02*
X025410Y011208D01*
X025458Y011050D02*
X025280Y011050D01*
X025280Y010891D02*
X025649Y010891D01*
X025638Y010733D02*
X025280Y010733D01*
X025280Y010574D02*
X025638Y010574D01*
X025638Y010416D02*
X025280Y010416D01*
X025280Y010257D02*
X025780Y010257D01*
X025810Y010099D02*
X025344Y010099D01*
X025503Y009940D02*
X025867Y009940D01*
X025661Y009782D02*
X026196Y009782D01*
X026354Y009623D02*
X025820Y009623D01*
X025978Y009465D02*
X026595Y009465D01*
X026595Y009306D02*
X026137Y009306D01*
X026295Y009148D02*
X026595Y009148D01*
X026595Y008989D02*
X026454Y008989D01*
X028645Y008989D02*
X028656Y008989D01*
X028640Y007721D02*
X029177Y007721D01*
X029153Y007563D02*
X028645Y007563D01*
X028645Y007404D02*
X029512Y007404D01*
X029512Y007563D02*
X029548Y007563D01*
X029548Y007721D02*
X029512Y007721D01*
X029883Y007721D02*
X029938Y007721D01*
X029153Y007246D02*
X028645Y007246D01*
X028645Y007087D02*
X028834Y007087D01*
X028760Y006929D02*
X028645Y006929D01*
X028611Y006770D02*
X028779Y006770D01*
X028896Y006612D02*
X027837Y006612D01*
X028111Y006770D02*
X028149Y006770D01*
X027123Y006530D02*
X027123Y006082D01*
X027161Y006044D01*
X027139Y006022D01*
X027115Y005981D01*
X027103Y005936D01*
X027103Y005714D01*
X027462Y005714D01*
X027462Y005677D01*
X027498Y005677D01*
X027498Y005299D01*
X027701Y005299D01*
X027746Y005311D01*
X027787Y005335D01*
X027821Y005368D01*
X027845Y005409D01*
X027857Y005455D01*
X027857Y005651D01*
X027899Y005609D01*
X028016Y005560D01*
X028027Y005560D01*
X027497Y005030D01*
X026880Y005030D01*
X026880Y006213D01*
X026763Y006330D01*
X026657Y006436D01*
X026711Y006459D01*
X026783Y006530D01*
X027123Y006530D01*
X027123Y006453D02*
X026697Y006453D01*
X026798Y006295D02*
X027123Y006295D01*
X027123Y006136D02*
X026880Y006136D01*
X026880Y005978D02*
X027114Y005978D01*
X027103Y005819D02*
X026880Y005819D01*
X026880Y005661D02*
X027103Y005661D01*
X027103Y005677D02*
X027103Y005455D01*
X027115Y005409D01*
X027139Y005368D01*
X027173Y005335D01*
X027214Y005311D01*
X027259Y005299D01*
X027462Y005299D01*
X027462Y005677D01*
X027103Y005677D01*
X027103Y005502D02*
X026880Y005502D01*
X026880Y005344D02*
X027164Y005344D01*
X027462Y005344D02*
X027498Y005344D01*
X027498Y005502D02*
X027462Y005502D01*
X027462Y005661D02*
X027498Y005661D01*
X027857Y005502D02*
X027969Y005502D01*
X027811Y005344D02*
X027796Y005344D01*
X027652Y005185D02*
X026880Y005185D01*
X025735Y004430D02*
X029247Y004430D01*
X031521Y002156D01*
X031473Y002041D01*
X031473Y001819D01*
X031558Y001613D01*
X031591Y001580D01*
X031313Y001580D01*
X031174Y001719D01*
X031215Y001819D01*
X031215Y002041D01*
X031130Y002247D01*
X030972Y002405D01*
X030767Y002490D01*
X030544Y002490D01*
X030338Y002405D01*
X030180Y002247D01*
X030095Y002041D01*
X030095Y001819D01*
X030180Y001613D01*
X030338Y001455D01*
X030520Y001380D01*
X030113Y001380D01*
X029888Y001605D01*
X029789Y001703D01*
X029837Y001819D01*
X029837Y002041D01*
X029752Y002247D01*
X029594Y002405D01*
X029389Y002490D01*
X029166Y002490D01*
X028960Y002405D01*
X028802Y002247D01*
X028717Y002041D01*
X028717Y001819D01*
X028802Y001613D01*
X028835Y001580D01*
X028362Y001580D01*
X028395Y001626D01*
X028437Y001707D01*
X028465Y001794D01*
X028479Y001884D01*
X028479Y001892D01*
X027937Y001892D01*
X027937Y001968D01*
X027861Y001968D01*
X027861Y001892D01*
X027319Y001892D01*
X027319Y001884D01*
X027334Y001794D01*
X027362Y001707D01*
X027403Y001626D01*
X027437Y001580D01*
X026963Y001580D01*
X026996Y001613D01*
X027081Y001819D01*
X027081Y002041D01*
X026996Y002247D01*
X026839Y002405D01*
X026633Y002490D01*
X026410Y002490D01*
X026204Y002405D01*
X026047Y002247D01*
X025988Y002105D01*
X025707Y002386D01*
X025761Y002409D01*
X025851Y002499D01*
X025900Y002616D01*
X025900Y002744D01*
X025864Y002831D01*
X025963Y002930D01*
X026080Y003047D01*
X026080Y003963D01*
X025750Y004293D01*
X025750Y004394D01*
X025735Y004430D01*
X025750Y004393D02*
X029285Y004393D01*
X029443Y004234D02*
X025809Y004234D01*
X025967Y004076D02*
X029602Y004076D01*
X029760Y003917D02*
X026080Y003917D01*
X026080Y003759D02*
X029919Y003759D01*
X030077Y003600D02*
X026080Y003600D01*
X026080Y003442D02*
X030236Y003442D01*
X030394Y003283D02*
X026080Y003283D01*
X026080Y003125D02*
X030553Y003125D01*
X030711Y002966D02*
X025999Y002966D01*
X025963Y002930D02*
X025963Y002930D01*
X025874Y002808D02*
X030870Y002808D01*
X031028Y002649D02*
X025900Y002649D01*
X025843Y002491D02*
X027747Y002491D01*
X027763Y002496D02*
X027677Y002468D01*
X027595Y002426D01*
X027521Y002372D01*
X027457Y002308D01*
X027403Y002234D01*
X027362Y002153D01*
X027334Y002066D01*
X027319Y001976D01*
X027319Y001968D01*
X027861Y001968D01*
X027861Y002510D01*
X027854Y002510D01*
X027763Y002496D01*
X027861Y002491D02*
X027937Y002491D01*
X027937Y002510D02*
X027937Y001968D01*
X028479Y001968D01*
X028479Y001976D01*
X028465Y002066D01*
X028437Y002153D01*
X028395Y002234D01*
X028342Y002308D01*
X028277Y002372D01*
X028203Y002426D01*
X028122Y002468D01*
X028035Y002496D01*
X027945Y002510D01*
X027937Y002510D01*
X028051Y002491D02*
X031187Y002491D01*
X031045Y002332D02*
X031345Y002332D01*
X031504Y002174D02*
X031160Y002174D01*
X031215Y002015D02*
X031473Y002015D01*
X031473Y001857D02*
X031215Y001857D01*
X031195Y001698D02*
X031523Y001698D01*
X030517Y001381D02*
X030112Y001381D01*
X030254Y001540D02*
X029953Y001540D01*
X029795Y001698D02*
X030145Y001698D01*
X030095Y001857D02*
X029837Y001857D01*
X029837Y002015D02*
X030095Y002015D01*
X030150Y002174D02*
X029783Y002174D01*
X029667Y002332D02*
X030265Y002332D01*
X028887Y002332D02*
X028318Y002332D01*
X028426Y002174D02*
X028772Y002174D01*
X028717Y002015D02*
X028473Y002015D01*
X028475Y001857D02*
X028717Y001857D01*
X028767Y001698D02*
X028432Y001698D01*
X027937Y002015D02*
X027861Y002015D01*
X027861Y002174D02*
X027937Y002174D01*
X027937Y002332D02*
X027861Y002332D01*
X027481Y002332D02*
X026911Y002332D01*
X027027Y002174D02*
X027372Y002174D01*
X027326Y002015D02*
X027081Y002015D01*
X027081Y001857D02*
X027324Y001857D01*
X027367Y001698D02*
X027031Y001698D01*
X026131Y002332D02*
X025761Y002332D01*
X025919Y002174D02*
X026016Y002174D01*
X023296Y001381D02*
X022525Y001381D01*
X022250Y001381D02*
X021487Y001381D01*
X021570Y001540D02*
X021986Y001540D01*
X021877Y001698D02*
X021570Y001698D01*
X021570Y001857D02*
X021827Y001857D01*
X021827Y002015D02*
X021570Y002015D01*
X021570Y002174D02*
X021882Y002174D01*
X021998Y002332D02*
X021570Y002332D01*
X022128Y002649D02*
X020580Y002649D01*
X020580Y002491D02*
X022287Y002491D01*
X021970Y002808D02*
X020580Y002808D01*
X020580Y002966D02*
X021811Y002966D01*
X021653Y003125D02*
X020580Y003125D01*
X020580Y003283D02*
X021494Y003283D01*
X021336Y003442D02*
X020580Y003442D01*
X020580Y003600D02*
X021177Y003600D01*
X021019Y003759D02*
X020580Y003759D01*
X020297Y004430D02*
X020297Y004430D01*
X020363Y004830D02*
X020044Y005149D01*
X020170Y005149D01*
X020264Y005243D01*
X020264Y005330D01*
X021185Y005330D01*
X021185Y005187D01*
X021622Y005187D01*
X021622Y005071D01*
X021185Y005071D01*
X021185Y004830D01*
X020363Y004830D01*
X020325Y004868D02*
X021185Y004868D01*
X021185Y005027D02*
X020166Y005027D01*
X020206Y005185D02*
X021622Y005185D01*
X021738Y005185D02*
X022442Y005185D01*
X022297Y005330D02*
X022630Y004997D01*
X022747Y004880D01*
X022825Y004880D01*
X022846Y004830D01*
X022175Y004830D01*
X022175Y005071D01*
X021738Y005071D01*
X021738Y005187D01*
X022175Y005187D01*
X022175Y005330D01*
X022297Y005330D01*
X022175Y005027D02*
X022601Y005027D01*
X022830Y004868D02*
X022175Y004868D01*
X023112Y005664D02*
X023112Y005938D01*
X023148Y005938D01*
X023148Y005664D01*
X023112Y005664D01*
X023112Y005819D02*
X023148Y005819D01*
X023449Y005994D02*
X023487Y006032D01*
X023487Y006280D01*
X024177Y006280D01*
X024249Y006209D01*
X024318Y006180D01*
X023997Y006180D01*
X023880Y006063D01*
X023507Y005690D01*
X023507Y005886D01*
X023495Y005931D01*
X023471Y005972D01*
X023449Y005994D01*
X023466Y005978D02*
X023795Y005978D01*
X023953Y006136D02*
X023487Y006136D01*
X023507Y005819D02*
X023636Y005819D01*
X026164Y006929D02*
X026276Y006929D01*
X026006Y007087D02*
X026615Y007087D01*
X026615Y007246D02*
X025847Y007246D01*
X025807Y007404D02*
X026615Y007404D01*
X026615Y007563D02*
X025898Y007563D01*
X025954Y007721D02*
X026620Y007721D01*
X022345Y007312D02*
X022345Y006996D01*
X022357Y006951D01*
X022369Y006930D01*
X022085Y006930D01*
X022100Y006966D01*
X022100Y007067D01*
X022345Y007312D01*
X022345Y007246D02*
X022278Y007246D01*
X022345Y007087D02*
X022120Y007087D01*
X018612Y007246D02*
X018550Y007246D01*
X018528Y007087D02*
X018490Y007087D01*
X017338Y007721D02*
X016280Y007721D01*
X016280Y007880D02*
X017319Y007880D01*
X017142Y008038D02*
X016368Y008038D01*
X016400Y008197D02*
X017110Y008197D01*
X017156Y008355D02*
X016354Y008355D01*
X016166Y008672D02*
X015955Y008672D01*
X015796Y008514D02*
X017744Y008514D01*
X017704Y008355D02*
X017972Y008355D01*
X017814Y008197D02*
X017750Y008197D01*
X018300Y008683D02*
X018300Y008767D01*
X018513Y008980D01*
X019014Y008980D01*
X019014Y008980D01*
X018597Y008980D01*
X018480Y008863D01*
X018300Y008683D01*
X018363Y008831D02*
X018448Y008831D01*
X017166Y008672D02*
X016694Y008672D01*
X016853Y008831D02*
X017007Y008831D01*
X016990Y008989D02*
X016870Y008989D01*
X016870Y009148D02*
X016990Y009148D01*
X016140Y009623D02*
X014006Y009623D01*
X013847Y009465D02*
X014214Y009465D01*
X014430Y009465D02*
X014430Y009465D01*
X014430Y009306D02*
X014430Y009306D01*
X014430Y009148D02*
X014430Y009148D01*
X014646Y009465D02*
X015214Y009465D01*
X015430Y009465D02*
X015430Y009465D01*
X015430Y009306D02*
X015430Y009306D01*
X015430Y009148D02*
X015430Y009148D01*
X015646Y009465D02*
X015982Y009465D01*
X015830Y009306D02*
X015805Y009306D01*
X015055Y009306D02*
X014805Y009306D01*
X014890Y009148D02*
X014970Y009148D01*
X014970Y008989D02*
X014890Y008989D01*
X014881Y008831D02*
X014979Y008831D01*
X013979Y008831D02*
X013881Y008831D01*
X013890Y008989D02*
X013970Y008989D01*
X013970Y009148D02*
X013890Y009148D01*
X013805Y009306D02*
X014055Y009306D01*
X014726Y009940D02*
X014880Y009940D01*
X015034Y009940D01*
X014880Y009940D02*
X014880Y009940D01*
X014880Y010520D01*
X014880Y010520D01*
X014880Y009940D01*
X014880Y010099D02*
X014880Y010099D01*
X014880Y010257D02*
X014880Y010257D01*
X014880Y010416D02*
X014880Y010416D01*
X014880Y010574D02*
X014880Y010574D01*
X014880Y010733D02*
X014880Y010733D01*
X014880Y010891D02*
X014880Y010891D01*
X014880Y011050D02*
X014880Y011050D01*
X014625Y011050D02*
X014607Y011050D01*
X014641Y011208D02*
X016860Y011208D01*
X016908Y011050D02*
X016107Y011050D01*
X016170Y010891D02*
X017258Y010891D01*
X017258Y010733D02*
X016170Y010733D01*
X016170Y010574D02*
X017312Y010574D01*
X017380Y010416D02*
X016170Y010416D01*
X016170Y010257D02*
X017313Y010257D01*
X016616Y010099D02*
X016170Y010099D01*
X017893Y010891D02*
X017958Y010891D01*
X017967Y011050D02*
X017893Y011050D01*
X017893Y011208D02*
X017967Y011208D01*
X018080Y011367D02*
X017780Y011367D01*
X017780Y011525D02*
X018080Y011525D01*
X018080Y011684D02*
X017780Y011684D01*
X017916Y011842D02*
X018080Y011842D01*
X018080Y012001D02*
X017941Y012001D01*
X017941Y012159D02*
X018080Y012159D01*
X018080Y012318D02*
X017941Y012318D01*
X017858Y012476D02*
X018080Y012476D01*
X017271Y012476D02*
X017214Y012476D01*
X016914Y012476D02*
X016877Y012476D01*
X016877Y012318D02*
X016914Y012318D01*
X016914Y012159D02*
X016877Y012159D01*
X016444Y011684D02*
X015116Y011684D01*
X015275Y011842D02*
X016285Y011842D01*
X016602Y011525D02*
X014958Y011525D01*
X014799Y011367D02*
X016761Y011367D01*
X015653Y011050D02*
X015607Y011050D01*
X015153Y011050D02*
X015135Y011050D01*
X013653Y011050D02*
X013635Y011050D01*
X014500Y012318D02*
X014510Y012318D01*
X012380Y012940D02*
X012380Y012940D01*
X012380Y013520D01*
X012534Y013520D01*
X012579Y013508D01*
X012621Y013484D01*
X012644Y013460D01*
X012684Y013500D01*
X013076Y013500D01*
X013130Y013446D01*
X013184Y013500D01*
X013527Y013500D01*
X013347Y013680D01*
X013230Y013797D01*
X013230Y014347D01*
X013230Y014497D01*
X012253Y013520D01*
X012380Y013520D01*
X012380Y012940D01*
X012380Y012940D01*
X012070Y012940D01*
X012070Y013337D01*
X011980Y013247D01*
X011980Y012947D01*
X011732Y012699D01*
X011732Y012346D01*
X011759Y012411D01*
X011849Y012501D01*
X011966Y012550D01*
X012070Y012550D01*
X012070Y012940D01*
X012380Y012940D01*
X012380Y012952D02*
X012380Y012952D01*
X012380Y013110D02*
X012380Y013110D01*
X012380Y013269D02*
X012380Y013269D01*
X012380Y013427D02*
X012380Y013427D01*
X012318Y013586D02*
X013442Y013586D01*
X013283Y013744D02*
X012477Y013744D01*
X012635Y013903D02*
X013230Y013903D01*
X013230Y014061D02*
X012794Y014061D01*
X012952Y014220D02*
X013230Y014220D01*
X013230Y014378D02*
X013111Y014378D01*
X013661Y014378D02*
X015845Y014378D01*
X015687Y014220D02*
X013943Y014220D01*
X014532Y014061D02*
X015528Y014061D01*
X015370Y013903D02*
X014690Y013903D01*
X014849Y013744D02*
X015211Y013744D01*
X016004Y014537D02*
X013819Y014537D01*
X013978Y014695D02*
X016162Y014695D01*
X016321Y014854D02*
X014136Y014854D01*
X014295Y015012D02*
X016479Y015012D01*
X016638Y015171D02*
X014453Y015171D01*
X014612Y015329D02*
X016796Y015329D01*
X016955Y015488D02*
X014770Y015488D01*
X014217Y015800D02*
X014197Y015780D01*
X013947Y015780D01*
X013830Y015663D01*
X013300Y015133D01*
X013300Y015194D01*
X013251Y015311D01*
X013161Y015401D01*
X013044Y015450D01*
X012916Y015450D01*
X012799Y015401D01*
X012727Y015330D01*
X012363Y015330D01*
X012197Y015330D01*
X012174Y015307D01*
X011802Y015307D01*
X011730Y015235D01*
X011658Y015307D01*
X011630Y015307D01*
X011630Y015450D01*
X011735Y015450D01*
X011930Y015531D01*
X012079Y015680D01*
X012160Y015875D01*
X012160Y016085D01*
X012079Y016280D01*
X013213Y016280D01*
X013450Y016280D01*
X013450Y016342D02*
X013450Y015956D01*
X013462Y015911D01*
X013486Y015869D01*
X013519Y015836D01*
X013561Y015812D01*
X013606Y015800D01*
X013992Y015800D01*
X013992Y016342D01*
X014068Y016342D01*
X014068Y015800D01*
X014217Y015800D01*
X014068Y015805D02*
X013992Y015805D01*
X013992Y015963D02*
X014068Y015963D01*
X014068Y016122D02*
X013992Y016122D01*
X013992Y016280D02*
X014068Y016280D01*
X013992Y016342D02*
X013450Y016342D01*
X013450Y016418D02*
X013992Y016418D01*
X013992Y016342D01*
X013450Y016418D02*
X013450Y016517D01*
X013213Y016280D01*
X013371Y016439D02*
X013450Y016439D01*
X013123Y016756D02*
X012133Y016756D01*
X012140Y016769D02*
X012166Y016851D01*
X012180Y016937D01*
X012180Y016980D01*
X012180Y017023D01*
X012166Y017109D01*
X012140Y017191D01*
X012100Y017268D01*
X012092Y017280D01*
X013647Y017280D01*
X013580Y017213D01*
X013047Y016680D01*
X012092Y016680D01*
X012100Y016692D01*
X012140Y016769D01*
X012176Y016914D02*
X013281Y016914D01*
X013440Y017073D02*
X012172Y017073D01*
X012180Y016980D02*
X011630Y016980D01*
X011630Y016980D01*
X011630Y016980D01*
X011080Y016980D01*
X011080Y017023D01*
X011094Y017109D01*
X011120Y017191D01*
X011160Y017268D01*
X011168Y017280D01*
X010114Y017280D01*
X010143Y017222D01*
X010168Y017147D01*
X010180Y017069D01*
X010180Y017039D01*
X009689Y017039D01*
X009689Y017021D01*
X010180Y017021D01*
X010180Y016991D01*
X010168Y016913D01*
X010143Y016838D01*
X010108Y016768D01*
X010061Y016704D01*
X010037Y016680D01*
X011168Y016680D01*
X011160Y016692D01*
X011120Y016769D01*
X011094Y016851D01*
X011080Y016937D01*
X011080Y016980D01*
X011630Y016980D01*
X012180Y016980D01*
X012119Y017231D02*
X013598Y017231D01*
X013450Y016122D02*
X012145Y016122D01*
X012160Y015963D02*
X013450Y015963D01*
X013589Y015805D02*
X012131Y015805D01*
X012046Y015646D02*
X013813Y015646D01*
X013655Y015488D02*
X011826Y015488D01*
X011630Y015329D02*
X012196Y015329D01*
X013234Y015329D02*
X013496Y015329D01*
X013338Y015171D02*
X013300Y015171D01*
X011127Y016756D02*
X010099Y016756D01*
X010168Y016914D02*
X011084Y016914D01*
X011088Y017073D02*
X010179Y017073D01*
X010139Y017231D02*
X011141Y017231D01*
X006948Y015329D02*
X006893Y015329D01*
X006910Y015170D02*
X006380Y015170D01*
X006380Y015210D01*
X006340Y015210D01*
X006340Y015740D01*
X006317Y015740D01*
X006231Y015726D01*
X006149Y015700D01*
X006072Y015660D01*
X006002Y015610D01*
X005940Y015548D01*
X005890Y015478D01*
X005850Y015401D01*
X005824Y015319D01*
X005810Y015233D01*
X005810Y015210D01*
X006340Y015210D01*
X006340Y015170D01*
X006380Y015170D01*
X006380Y014640D01*
X006403Y014640D01*
X006489Y014654D01*
X006571Y014680D01*
X006648Y014720D01*
X006718Y014770D01*
X006780Y014832D01*
X006830Y014902D01*
X006870Y014979D01*
X006896Y015061D01*
X006910Y015147D01*
X006910Y015170D01*
X006880Y015012D02*
X007265Y015012D01*
X007107Y015171D02*
X006380Y015171D01*
X006340Y015171D02*
X004330Y015171D01*
X004330Y015085D02*
X004330Y015295D01*
X004249Y015490D01*
X004100Y015639D01*
X003905Y015720D01*
X003695Y015720D01*
X003500Y015639D01*
X003351Y015490D01*
X003270Y015295D01*
X003270Y015085D01*
X003351Y014890D01*
X003500Y014741D01*
X003695Y014660D01*
X003905Y014660D01*
X004100Y014741D01*
X004249Y014890D01*
X004330Y015085D01*
X004300Y015012D02*
X005840Y015012D01*
X005850Y014979D02*
X005890Y014902D01*
X005940Y014832D01*
X006002Y014770D01*
X006072Y014720D01*
X006149Y014680D01*
X006231Y014654D01*
X006317Y014640D01*
X006340Y014640D01*
X006340Y015170D01*
X005810Y015170D01*
X005810Y015147D01*
X005824Y015061D01*
X005850Y014979D01*
X005925Y014854D02*
X004213Y014854D01*
X003990Y014695D02*
X006120Y014695D01*
X006340Y014695D02*
X006380Y014695D01*
X006380Y014854D02*
X006340Y014854D01*
X006340Y015012D02*
X006380Y015012D01*
X006795Y014854D02*
X007424Y014854D01*
X007582Y014695D02*
X006600Y014695D01*
X007741Y014537D02*
X002579Y014537D01*
X002579Y014683D02*
X002579Y014346D01*
X002566Y014300D01*
X002543Y014259D01*
X002509Y014225D01*
X002468Y014202D01*
X002422Y014189D01*
X001927Y014189D01*
X001927Y014683D01*
X001767Y014683D01*
X001116Y014683D01*
X001116Y014346D01*
X001128Y014300D01*
X001152Y014259D01*
X001186Y014225D01*
X001227Y014202D01*
X001272Y014189D01*
X001767Y014189D01*
X001767Y014683D01*
X001767Y014843D01*
X001116Y014843D01*
X001116Y015180D01*
X001128Y015226D01*
X001152Y015267D01*
X001186Y015301D01*
X001227Y015325D01*
X001272Y015337D01*
X001767Y015337D01*
X001767Y014843D01*
X001927Y014843D01*
X001927Y015337D01*
X002422Y015337D01*
X002468Y015325D01*
X002509Y015301D01*
X002543Y015267D01*
X002566Y015226D01*
X002579Y015180D01*
X002579Y014843D01*
X001927Y014843D01*
X001927Y014683D01*
X002579Y014683D01*
X002579Y014854D02*
X003387Y014854D01*
X003300Y015012D02*
X002579Y015012D01*
X002579Y015171D02*
X003270Y015171D01*
X003284Y015329D02*
X002451Y015329D01*
X001927Y015329D02*
X001767Y015329D01*
X001767Y015171D02*
X001927Y015171D01*
X001927Y015012D02*
X001767Y015012D01*
X001767Y014854D02*
X001927Y014854D01*
X001927Y014695D02*
X003610Y014695D01*
X002579Y014378D02*
X007899Y014378D01*
X008058Y014220D02*
X002499Y014220D01*
X001927Y014220D02*
X001767Y014220D01*
X001767Y014378D02*
X001927Y014378D01*
X001927Y014537D02*
X001767Y014537D01*
X001767Y014695D02*
X000614Y014695D01*
X000614Y014537D02*
X001116Y014537D01*
X001116Y014378D02*
X000614Y014378D01*
X000614Y014220D02*
X001196Y014220D01*
X000614Y014061D02*
X008216Y014061D01*
X008375Y013903D02*
X000614Y013903D01*
X000614Y013744D02*
X008533Y013744D01*
X008692Y013586D02*
X000614Y013586D01*
X000614Y013427D02*
X008850Y013427D01*
X009009Y013269D02*
X000614Y013269D01*
X000614Y013110D02*
X009167Y013110D01*
X009326Y012952D02*
X000614Y012952D01*
X000614Y012793D02*
X009484Y012793D01*
X009643Y012635D02*
X000614Y012635D01*
X000614Y012476D02*
X009801Y012476D01*
X009837Y012318D02*
X000614Y012318D01*
X000614Y014854D02*
X001116Y014854D01*
X001116Y015012D02*
X000614Y015012D01*
X000614Y015171D02*
X001116Y015171D01*
X001244Y015329D02*
X000614Y015329D01*
X000614Y015488D02*
X003350Y015488D01*
X003516Y015646D02*
X000614Y015646D01*
X000614Y015805D02*
X001271Y015805D01*
X001199Y015834D02*
X001511Y015705D01*
X001630Y015705D01*
X001849Y015705D01*
X002161Y015834D01*
X002161Y015834D01*
X002401Y016074D01*
X002530Y016386D01*
X002530Y016724D01*
X002401Y017036D01*
X002401Y017036D01*
X002161Y017276D01*
X001849Y017405D01*
X001511Y017405D01*
X001199Y017276D01*
X001199Y017276D01*
X000959Y017036D01*
X000830Y016724D01*
X000830Y016386D01*
X000959Y016074D01*
X001199Y015834D01*
X001199Y015834D01*
X001070Y015963D02*
X000614Y015963D01*
X000614Y016122D02*
X000940Y016122D01*
X000959Y016074D02*
X000959Y016074D01*
X000874Y016280D02*
X000614Y016280D01*
X000614Y016439D02*
X000830Y016439D01*
X000830Y016597D02*
X000614Y016597D01*
X000622Y016756D02*
X000843Y016756D01*
X000909Y016914D02*
X000661Y016914D01*
X000713Y017073D02*
X000995Y017073D01*
X000959Y017036D02*
X000959Y017036D01*
X000959Y017036D01*
X000820Y017231D02*
X001154Y017231D01*
X000969Y017390D02*
X001474Y017390D01*
X001244Y017548D02*
X005915Y017548D01*
X005757Y017390D02*
X004130Y017390D01*
X004100Y017419D02*
X003905Y017500D01*
X003695Y017500D01*
X003500Y017419D01*
X003351Y017270D01*
X003270Y017075D01*
X003270Y016865D01*
X003351Y016670D01*
X003500Y016521D01*
X003695Y016440D01*
X003905Y016440D01*
X004100Y016521D01*
X004249Y016670D01*
X004330Y016865D01*
X004330Y017075D01*
X004249Y017270D01*
X004100Y017419D01*
X004266Y017231D02*
X005630Y017231D01*
X005630Y017073D02*
X004330Y017073D01*
X004330Y016914D02*
X005630Y016914D01*
X005630Y016756D02*
X004285Y016756D01*
X004177Y016597D02*
X005680Y016597D01*
X005839Y016439D02*
X002530Y016439D01*
X002530Y016597D02*
X003423Y016597D01*
X003315Y016756D02*
X002517Y016756D01*
X002451Y016914D02*
X003270Y016914D01*
X003270Y017073D02*
X002365Y017073D01*
X002206Y017231D02*
X003334Y017231D01*
X003470Y017390D02*
X001886Y017390D01*
X002161Y017276D02*
X002161Y017276D01*
X001655Y017620D02*
X001655Y017620D01*
X002486Y016280D02*
X005997Y016280D01*
X006156Y016122D02*
X002420Y016122D01*
X002401Y016074D02*
X002401Y016074D01*
X002290Y015963D02*
X006314Y015963D01*
X006473Y015805D02*
X002089Y015805D01*
X004084Y015646D02*
X006052Y015646D01*
X005896Y015488D02*
X004250Y015488D01*
X004316Y015329D02*
X005827Y015329D01*
X006340Y015329D02*
X006380Y015329D01*
X006380Y015488D02*
X006340Y015488D01*
X006340Y015646D02*
X006380Y015646D01*
X012001Y013269D02*
X012070Y013269D01*
X012070Y013110D02*
X011980Y013110D01*
X011980Y012952D02*
X012070Y012952D01*
X012070Y012793D02*
X011826Y012793D01*
X011732Y012635D02*
X012070Y012635D01*
X011823Y012476D02*
X011732Y012476D01*
X017079Y015646D02*
X017113Y015646D01*
X017237Y015805D02*
X017272Y015805D01*
X017396Y015963D02*
X017430Y015963D01*
X017530Y016122D02*
X017589Y016122D01*
X017604Y016280D02*
X017530Y016280D01*
X017530Y016439D02*
X017604Y016439D01*
X017648Y016597D02*
X017530Y016597D01*
X017437Y016756D02*
X017747Y016756D01*
X017990Y016914D02*
X017279Y016914D01*
X021836Y014854D02*
X024830Y014854D01*
X024830Y014695D02*
X021780Y014695D01*
X021780Y014537D02*
X024830Y014537D01*
X024830Y014378D02*
X021780Y014378D01*
X021780Y014220D02*
X024830Y014220D01*
X023604Y011684D02*
X022516Y011684D01*
X022358Y011525D02*
X023680Y011525D01*
X023680Y011367D02*
X022199Y011367D01*
X022041Y011208D02*
X023680Y011208D01*
X023680Y011050D02*
X021882Y011050D01*
X021724Y010891D02*
X023680Y010891D01*
X023214Y010733D02*
X023177Y010733D01*
X023177Y010574D02*
X023214Y010574D01*
X022683Y010574D02*
X022646Y010574D01*
X022646Y010733D02*
X022683Y010733D01*
X021619Y010733D02*
X021565Y010733D01*
X021619Y010574D02*
X021489Y010574D01*
X021900Y010123D02*
X022278Y010123D01*
X022316Y010161D01*
X022338Y010139D01*
X022379Y010115D01*
X022421Y010104D01*
X022097Y009780D01*
X021520Y009780D01*
X021520Y009787D01*
X021543Y009810D01*
X021644Y009810D01*
X021761Y009859D01*
X021851Y009949D01*
X021900Y010066D01*
X021900Y010123D01*
X021900Y010099D02*
X022416Y010099D01*
X022257Y009940D02*
X021843Y009940D01*
X022099Y009782D02*
X021520Y009782D01*
X026016Y010733D02*
X026053Y010733D01*
X026053Y010891D02*
X026016Y010891D01*
X026002Y011050D02*
X026004Y011050D01*
X032342Y011684D02*
X032594Y011684D01*
X032627Y011525D02*
X032387Y011525D01*
X032387Y011367D02*
X032741Y011367D01*
X033330Y007325D02*
X033402Y007253D01*
X033480Y007253D01*
X033480Y007187D01*
X033382Y007187D01*
X033344Y007149D01*
X033322Y007171D01*
X033281Y007195D01*
X033236Y007207D01*
X033014Y007207D01*
X033014Y006848D01*
X032977Y006848D01*
X032977Y007207D01*
X032840Y007207D01*
X032886Y007253D01*
X033258Y007253D01*
X033330Y007325D01*
X033480Y007246D02*
X032878Y007246D01*
X032977Y007087D02*
X033014Y007087D01*
X033014Y006929D02*
X032977Y006929D01*
X032977Y006812D02*
X033014Y006812D01*
X033014Y006453D01*
X033236Y006453D01*
X033281Y006465D01*
X033322Y006489D01*
X033344Y006511D01*
X033382Y006473D01*
X033947Y006473D01*
X034041Y006567D01*
X034041Y006630D01*
X035597Y006630D01*
X035647Y006580D01*
X034597Y006580D01*
X034480Y006463D01*
X034247Y006230D01*
X034021Y006230D01*
X034021Y006313D01*
X033928Y006407D01*
X033402Y006407D01*
X033330Y006335D01*
X033258Y006407D01*
X032886Y006407D01*
X032840Y006453D01*
X034470Y006453D01*
X034312Y006295D02*
X034021Y006295D01*
X034041Y006612D02*
X035616Y006612D01*
X036273Y006770D02*
X039250Y006770D01*
X039250Y006612D02*
X036431Y006612D01*
X036590Y006453D02*
X039250Y006453D01*
X039250Y006295D02*
X036748Y006295D01*
X036907Y006136D02*
X039250Y006136D01*
X039250Y005978D02*
X037065Y005978D01*
X037224Y005819D02*
X039250Y005819D01*
X039250Y005661D02*
X037382Y005661D01*
X037541Y005502D02*
X039250Y005502D01*
X039250Y005344D02*
X037699Y005344D01*
X037730Y005185D02*
X039250Y005185D01*
X039250Y005027D02*
X037730Y005027D01*
X037730Y004868D02*
X039250Y004868D01*
X039250Y004710D02*
X037730Y004710D01*
X037730Y004551D02*
X039250Y004551D01*
X039250Y004393D02*
X037730Y004393D01*
X037730Y004234D02*
X039250Y004234D01*
X039250Y004076D02*
X037730Y004076D01*
X037730Y003917D02*
X039250Y003917D01*
X039250Y003759D02*
X037730Y003759D01*
X037730Y003600D02*
X039250Y003600D01*
X039250Y003442D02*
X037730Y003442D01*
X037730Y003283D02*
X039250Y003283D01*
X039250Y003125D02*
X037730Y003125D01*
X037730Y002966D02*
X039250Y002966D01*
X039250Y002808D02*
X037730Y002808D01*
X037730Y002649D02*
X039250Y002649D01*
X039250Y002491D02*
X038444Y002491D01*
X038730Y002332D02*
X039250Y002332D01*
X039250Y002174D02*
X038889Y002174D01*
X038961Y002015D02*
X039250Y002015D01*
X039250Y001857D02*
X039027Y001857D01*
X039030Y001698D02*
X039250Y001698D01*
X039245Y001540D02*
X039030Y001540D01*
X038976Y001381D02*
X039215Y001381D01*
X039164Y001223D02*
X038911Y001223D01*
X038766Y001064D02*
X039077Y001064D01*
X038961Y000906D02*
X038531Y000906D01*
X038746Y000747D02*
X036930Y000747D01*
X037088Y000906D02*
X037829Y000906D01*
X037594Y001064D02*
X037247Y001064D01*
X037405Y001223D02*
X037449Y001223D01*
X037530Y002332D02*
X037630Y002332D01*
X037573Y002491D02*
X037916Y002491D01*
X032684Y004880D02*
X032613Y004880D01*
X032263Y005230D01*
X032530Y005497D01*
X032530Y006197D01*
X032639Y006089D01*
X032639Y005747D01*
X032732Y005653D01*
X033258Y005653D01*
X033330Y005725D01*
X033402Y005653D01*
X033480Y005653D01*
X033480Y005587D01*
X033382Y005587D01*
X033344Y005549D01*
X033322Y005571D01*
X033281Y005595D01*
X033236Y005607D01*
X033014Y005607D01*
X033014Y005248D01*
X032977Y005248D01*
X032977Y005212D01*
X032599Y005212D01*
X032599Y005009D01*
X032611Y004964D01*
X032635Y004923D01*
X032668Y004889D01*
X032684Y004880D01*
X032599Y005027D02*
X032466Y005027D01*
X032599Y005185D02*
X032308Y005185D01*
X032376Y005344D02*
X032599Y005344D01*
X032599Y005248D02*
X032599Y005451D01*
X032611Y005496D01*
X032635Y005537D01*
X032668Y005571D01*
X032709Y005595D01*
X032755Y005607D01*
X032977Y005607D01*
X032977Y005248D01*
X032599Y005248D01*
X032977Y005344D02*
X033014Y005344D01*
X033014Y005502D02*
X032977Y005502D01*
X032725Y005661D02*
X032530Y005661D01*
X032530Y005819D02*
X032639Y005819D01*
X032639Y005978D02*
X032530Y005978D01*
X032530Y006136D02*
X032591Y006136D01*
X032130Y006136D02*
X031796Y006136D01*
X031796Y006017D02*
X031702Y005923D01*
X031325Y005923D01*
X031311Y005915D01*
X031266Y005903D01*
X031193Y005903D01*
X031193Y006005D01*
X031193Y006005D01*
X031193Y006005D01*
X031193Y005903D01*
X031190Y005903D01*
X031780Y005313D01*
X031780Y005313D01*
X032130Y005663D01*
X032130Y006444D01*
X031980Y006444D01*
X031980Y006661D01*
X031980Y006661D01*
X031980Y006444D01*
X031796Y006444D01*
X031796Y006017D01*
X031756Y005978D02*
X032130Y005978D01*
X032130Y005819D02*
X031274Y005819D01*
X031193Y005978D02*
X031193Y005978D01*
X031432Y005661D02*
X032128Y005661D01*
X031969Y005502D02*
X031591Y005502D01*
X031749Y005344D02*
X031811Y005344D01*
X032530Y005502D02*
X032614Y005502D01*
X033266Y005661D02*
X033394Y005661D01*
X032130Y006295D02*
X031796Y006295D01*
X031980Y006453D02*
X031980Y006453D01*
X031980Y006612D02*
X031980Y006612D01*
X031273Y006655D02*
X031273Y006987D01*
X031113Y006987D01*
X031113Y006655D01*
X031120Y006657D01*
X031193Y006657D01*
X031193Y006555D01*
X031193Y006555D01*
X031193Y006555D01*
X031193Y006657D01*
X031266Y006657D01*
X031273Y006655D01*
X031193Y006612D02*
X031193Y006612D01*
X031113Y006770D02*
X031273Y006770D01*
X031273Y006929D02*
X031113Y006929D01*
X032840Y006453D02*
X032977Y006453D01*
X032977Y006812D01*
X032977Y006770D02*
X033014Y006770D01*
X033014Y006612D02*
X032977Y006612D01*
X023030Y001698D02*
X022898Y001698D01*
X022789Y001540D02*
X023138Y001540D01*
X023746Y000906D02*
X023772Y000906D01*
X023880Y000797D02*
X023880Y000797D01*
X023930Y000747D02*
X023650Y000747D01*
X019242Y002332D02*
X018644Y002332D01*
X018759Y002174D02*
X019126Y002174D01*
X019072Y002015D02*
X018814Y002015D01*
X018814Y001857D02*
X019072Y001857D01*
X019122Y001698D02*
X018764Y001698D01*
X017715Y001698D02*
X017386Y001698D01*
X017436Y001857D02*
X017694Y001857D01*
X017694Y002015D02*
X017436Y002015D01*
X017381Y002174D02*
X017748Y002174D01*
X017864Y002332D02*
X017266Y002332D01*
X016630Y002491D02*
X015650Y002491D01*
X015536Y002491D02*
X015460Y002491D01*
X015346Y002491D02*
X014330Y002491D01*
X014330Y002649D02*
X016630Y002649D01*
X016630Y002808D02*
X014330Y002808D01*
X014330Y002966D02*
X016630Y002966D01*
X016486Y002332D02*
X015916Y002332D01*
X016025Y002174D02*
X016370Y002174D01*
X016316Y002015D02*
X016071Y002015D01*
X016073Y001857D02*
X016316Y001857D01*
X016366Y001698D02*
X016030Y001698D01*
X015927Y001540D02*
X016474Y001540D01*
X016738Y001381D02*
X015685Y001381D01*
X015310Y001381D02*
X014258Y001381D01*
X014521Y001540D02*
X015068Y001540D01*
X014965Y001698D02*
X014630Y001698D01*
X014680Y001857D02*
X014922Y001857D01*
X014924Y002015D02*
X014680Y002015D01*
X014625Y002174D02*
X014971Y002174D01*
X015079Y002332D02*
X014510Y002332D01*
X015460Y002332D02*
X015536Y002332D01*
X015536Y002174D02*
X015460Y002174D01*
X015460Y002015D02*
X015536Y002015D01*
X017014Y001381D02*
X017398Y001381D01*
X017277Y001540D02*
X017557Y001540D01*
X011568Y004551D02*
X010807Y004551D01*
X010807Y004644D02*
X010807Y004306D01*
X010795Y004261D01*
X010771Y004219D01*
X010737Y004186D01*
X010696Y004162D01*
X010651Y004150D01*
X010156Y004150D01*
X010156Y004644D01*
X010156Y004804D01*
X010807Y004804D01*
X010807Y005141D01*
X010795Y005187D01*
X010771Y005228D01*
X010766Y005233D01*
X011638Y005233D01*
X011732Y005327D01*
X011732Y005932D01*
X011638Y006025D01*
X009931Y006025D01*
X009899Y005994D01*
X009884Y006009D01*
X009834Y006030D01*
X011713Y006030D01*
X012055Y006372D01*
X012247Y006180D01*
X012663Y006180D01*
X012780Y006297D01*
X012839Y006356D01*
X012880Y006356D01*
X012880Y005763D01*
X012587Y005470D01*
X012248Y005470D01*
X011990Y005212D01*
X011990Y004973D01*
X009147Y002130D01*
X009131Y002130D01*
X009083Y002247D01*
X008925Y002405D01*
X008719Y002490D01*
X008497Y002490D01*
X008291Y002405D01*
X008280Y002394D01*
X008280Y004647D01*
X009113Y005480D01*
X009184Y005309D01*
X009323Y005170D01*
X009349Y005159D01*
X009344Y005141D01*
X009344Y004804D01*
X009996Y004804D01*
X009996Y004644D01*
X010156Y004644D01*
X010807Y004644D01*
X010807Y004868D02*
X011885Y004868D01*
X011990Y005027D02*
X010807Y005027D01*
X010795Y005185D02*
X011990Y005185D01*
X012121Y005344D02*
X011732Y005344D01*
X011732Y005502D02*
X012619Y005502D01*
X012778Y005661D02*
X011732Y005661D01*
X011732Y005819D02*
X012880Y005819D01*
X012880Y005978D02*
X011686Y005978D01*
X011819Y006136D02*
X012880Y006136D01*
X012880Y006295D02*
X012777Y006295D01*
X012133Y006295D02*
X011977Y006295D01*
X009308Y005185D02*
X008818Y005185D01*
X008976Y005344D02*
X009170Y005344D01*
X009344Y005027D02*
X008659Y005027D01*
X008501Y004868D02*
X009344Y004868D01*
X009344Y004644D02*
X009344Y004306D01*
X009357Y004261D01*
X009380Y004219D01*
X009414Y004186D01*
X009455Y004162D01*
X009501Y004150D01*
X009996Y004150D01*
X009996Y004644D01*
X009344Y004644D01*
X009344Y004551D02*
X008280Y004551D01*
X008280Y004393D02*
X009344Y004393D01*
X009372Y004234D02*
X008280Y004234D01*
X008280Y004076D02*
X011093Y004076D01*
X011251Y004234D02*
X010779Y004234D01*
X010807Y004393D02*
X011410Y004393D01*
X011727Y004710D02*
X010156Y004710D01*
X010156Y004551D02*
X009996Y004551D01*
X009996Y004393D02*
X010156Y004393D01*
X010156Y004234D02*
X009996Y004234D01*
X009996Y004710D02*
X008342Y004710D01*
X008280Y003917D02*
X010934Y003917D01*
X010776Y003759D02*
X008280Y003759D01*
X008280Y003600D02*
X010617Y003600D01*
X010459Y003442D02*
X008280Y003442D01*
X008280Y003283D02*
X010300Y003283D01*
X010142Y003125D02*
X008280Y003125D01*
X008280Y002966D02*
X009983Y002966D01*
X009825Y002808D02*
X008280Y002808D01*
X008280Y002649D02*
X009666Y002649D01*
X009508Y002491D02*
X008280Y002491D01*
X007880Y002491D02*
X007712Y002491D01*
X007699Y002498D02*
X007654Y002510D01*
X007268Y002510D01*
X007268Y001968D01*
X007810Y001968D01*
X007810Y002354D01*
X007798Y002399D01*
X007774Y002441D01*
X007741Y002474D01*
X007699Y002498D01*
X007810Y002332D02*
X007880Y002332D01*
X007880Y002174D02*
X007810Y002174D01*
X007810Y002015D02*
X007880Y002015D01*
X007810Y001892D02*
X007268Y001892D01*
X007268Y001968D01*
X007192Y001968D01*
X007192Y001892D01*
X007268Y001892D01*
X007268Y001350D01*
X007654Y001350D01*
X007699Y001362D01*
X007741Y001386D01*
X007774Y001419D01*
X007798Y001461D01*
X007810Y001506D01*
X007810Y001892D01*
X007810Y001857D02*
X007880Y001857D01*
X007880Y001698D02*
X007810Y001698D01*
X007810Y001540D02*
X007938Y001540D01*
X008096Y001381D02*
X007732Y001381D01*
X007268Y001381D02*
X007192Y001381D01*
X007192Y001350D02*
X007192Y001892D01*
X006650Y001892D01*
X006650Y001506D01*
X006662Y001461D01*
X006686Y001419D01*
X006719Y001386D01*
X006761Y001362D01*
X006806Y001350D01*
X007192Y001350D01*
X007192Y001540D02*
X007268Y001540D01*
X007268Y001698D02*
X007192Y001698D01*
X007192Y001857D02*
X007268Y001857D01*
X007192Y001968D02*
X006650Y001968D01*
X006650Y002354D01*
X006662Y002399D01*
X006686Y002441D01*
X006719Y002474D01*
X006761Y002498D01*
X006806Y002510D01*
X007192Y002510D01*
X007192Y001968D01*
X007192Y002015D02*
X007268Y002015D01*
X007268Y002174D02*
X007192Y002174D01*
X007192Y002332D02*
X007268Y002332D01*
X007268Y002491D02*
X007192Y002491D01*
X006748Y002491D02*
X001944Y002491D01*
X001849Y002530D02*
X001511Y002530D01*
X001199Y002401D01*
X001199Y002401D01*
X000959Y002161D01*
X000830Y001849D01*
X000830Y001511D01*
X000959Y001199D01*
X001199Y000959D01*
X001511Y000830D01*
X001730Y000830D01*
X001849Y000830D01*
X001849Y000830D01*
X002161Y000959D01*
X002161Y000959D01*
X002401Y001199D01*
X002530Y001511D01*
X002530Y001849D01*
X002401Y002161D01*
X002401Y002161D01*
X002161Y002401D01*
X001849Y002530D01*
X002161Y002401D02*
X002161Y002401D01*
X002230Y002332D02*
X005716Y002332D01*
X005681Y002326D02*
X005767Y002340D01*
X005790Y002340D01*
X005790Y001810D01*
X005830Y001810D01*
X006360Y001810D01*
X006360Y001833D01*
X006346Y001919D01*
X006320Y002001D01*
X006280Y002078D01*
X006230Y002148D01*
X006168Y002210D01*
X006098Y002260D01*
X006021Y002300D01*
X005939Y002326D01*
X005853Y002340D01*
X005830Y002340D01*
X005830Y001810D01*
X005830Y001770D01*
X006360Y001770D01*
X006360Y001747D01*
X006346Y001661D01*
X006320Y001579D01*
X006280Y001502D01*
X006230Y001432D01*
X006168Y001370D01*
X006098Y001320D01*
X006021Y001280D01*
X005939Y001254D01*
X005853Y001240D01*
X005830Y001240D01*
X005830Y001770D01*
X005790Y001770D01*
X005790Y001240D01*
X005767Y001240D01*
X005681Y001254D01*
X005599Y001280D01*
X005522Y001320D01*
X005452Y001370D01*
X005390Y001432D01*
X005340Y001502D01*
X005300Y001579D01*
X005274Y001661D01*
X005260Y001747D01*
X005260Y001770D01*
X005790Y001770D01*
X005790Y001810D01*
X005260Y001810D01*
X005260Y001833D01*
X005274Y001919D01*
X005300Y002001D01*
X005340Y002078D01*
X005390Y002148D01*
X005452Y002210D01*
X005522Y002260D01*
X005599Y002300D01*
X005681Y002326D01*
X005790Y002332D02*
X005830Y002332D01*
X005904Y002332D02*
X006650Y002332D01*
X006650Y002174D02*
X006204Y002174D01*
X006313Y002015D02*
X006650Y002015D01*
X006650Y001857D02*
X006356Y001857D01*
X006352Y001698D02*
X006650Y001698D01*
X006650Y001540D02*
X006300Y001540D01*
X006179Y001381D02*
X006728Y001381D01*
X005830Y001381D02*
X005790Y001381D01*
X005790Y001540D02*
X005830Y001540D01*
X005830Y001698D02*
X005790Y001698D01*
X005790Y001857D02*
X005830Y001857D01*
X005830Y002015D02*
X005790Y002015D01*
X005790Y002174D02*
X005830Y002174D01*
X005416Y002174D02*
X003616Y002174D01*
X003550Y002239D02*
X003355Y002320D01*
X003145Y002320D01*
X002950Y002239D01*
X002801Y002090D01*
X002720Y001895D01*
X002720Y001685D01*
X002801Y001490D01*
X002950Y001341D01*
X003145Y001260D01*
X003355Y001260D01*
X003550Y001341D01*
X003699Y001490D01*
X003780Y001685D01*
X003780Y001895D01*
X003699Y002090D01*
X003550Y002239D01*
X003730Y002015D02*
X005307Y002015D01*
X005264Y001857D02*
X003780Y001857D01*
X003780Y001698D02*
X005268Y001698D01*
X005320Y001540D02*
X003720Y001540D01*
X003591Y001381D02*
X005441Y001381D01*
X002909Y001381D02*
X002476Y001381D01*
X002530Y001540D02*
X002780Y001540D01*
X002720Y001698D02*
X002530Y001698D01*
X002527Y001857D02*
X002720Y001857D01*
X002770Y002015D02*
X002461Y002015D01*
X002389Y002174D02*
X002884Y002174D01*
X001416Y002491D02*
X000614Y002491D01*
X000614Y002649D02*
X007880Y002649D01*
X007880Y002808D02*
X000614Y002808D01*
X000614Y002966D02*
X007880Y002966D01*
X008998Y002332D02*
X009349Y002332D01*
X009191Y002174D02*
X009113Y002174D01*
X008255Y001223D02*
X002411Y001223D01*
X002401Y001199D02*
X002401Y001199D01*
X002266Y001064D02*
X008413Y001064D01*
X008572Y000906D02*
X002031Y000906D01*
X001329Y000906D02*
X000875Y000906D01*
X000760Y001064D02*
X001094Y001064D01*
X001199Y000959D02*
X001199Y000959D01*
X000959Y001199D02*
X000959Y001199D01*
X000949Y001223D02*
X000684Y001223D01*
X000633Y001381D02*
X000884Y001381D01*
X000830Y001540D02*
X000615Y001540D01*
X000614Y001698D02*
X000830Y001698D01*
X000833Y001857D02*
X000614Y001857D01*
X000614Y002015D02*
X000899Y002015D01*
X000959Y002161D02*
X000959Y002161D01*
X000971Y002174D02*
X000614Y002174D01*
X000614Y002332D02*
X001130Y002332D01*
X000614Y003125D02*
X002946Y003125D01*
X002795Y003283D02*
X002523Y003283D01*
X002559Y003442D02*
X002730Y003442D01*
X002720Y003600D02*
X002559Y003600D01*
X002559Y003759D02*
X002754Y003759D01*
X002847Y003917D02*
X002559Y003917D01*
X001136Y003917D02*
X000614Y003917D01*
X000614Y003759D02*
X001136Y003759D01*
X001136Y003600D02*
X000614Y003600D01*
X000614Y003442D02*
X001136Y003442D01*
X001172Y003283D02*
X000614Y003283D01*
X000614Y004076D02*
X001136Y004076D01*
X001136Y004234D02*
X000614Y004234D01*
X012654Y007721D02*
X012656Y007721D01*
X012971Y008038D02*
X015792Y008038D01*
X015760Y008197D02*
X013129Y008197D01*
X013288Y008355D02*
X015806Y008355D01*
D53*
X014380Y007630D03*
X010130Y009080D03*
X011980Y009980D03*
X004880Y009330D03*
X012530Y013630D03*
X017530Y017080D03*
X025780Y015580D03*
X027630Y015280D03*
X027880Y012180D03*
X025830Y011930D03*
X027830Y010780D03*
X029030Y010330D03*
X026030Y009530D03*
X025380Y008730D03*
X027880Y008030D03*
X031580Y005780D03*
X032480Y005230D03*
X034180Y006480D03*
X035330Y008930D03*
X027480Y005180D03*
X028530Y002830D03*
X021480Y002830D03*
X017580Y002830D03*
X020430Y004980D03*
X022280Y007030D03*
X022080Y009930D03*
X009330Y002880D03*
D54*
X022280Y007030D02*
X022280Y007060D01*
X022630Y007410D01*
X022115Y009930D02*
X022080Y009930D01*
X022115Y009930D02*
X022665Y010480D01*
X029180Y013080D02*
X029499Y013399D01*
X029499Y013855D01*
M02*
