G04 This is an RS-274x file exported by *
G04 gerbv version 2.5.0 *
G04 More information is available about gerbv at *
G04 http://gerbv.gpleda.org/ *
G04 --End of header info--*
%MOIN*%
%FSLAX23Y23*%
%IPPOS*%
G04 --Define apertures--*
%ADD10C,0.0000*%
%ADD11C,0.0640*%
%ADD12C,0.0820*%
%ADD13C,0.0640*%
%ADD14C,0.0730*%
%AMMACRO15*
5,1,8,0.000000,0.000000,0.069273,22.500000*
%
%ADD15MACRO15*%
%ADD16R,0.0880X0.0340*%
%ADD17R,0.0297X0.0552*%
%ADD18C,0.0513*%
%ADD19C,0.0710*%
%ADD20R,0.1182X0.0867*%
%ADD21R,0.1655X0.0356*%
%ADD22R,0.1655X0.0552*%
%ADD23R,0.1640X0.1640*%
%ADD24R,0.1175X0.1175*%
%ADD25C,0.1380*%
%ADD26R,0.0380X0.0680*%
%ADD27R,0.0880X0.0880*%
%ADD28C,0.0880*%
%ADD29C,0.0720*%
%ADD30R,0.0946X0.0316*%
%ADD31R,0.0710X0.0631*%
%ADD32R,0.1740X0.1740*%
%ADD33R,0.1937X0.1937*%
G04 --Start main section--*
G54D10*
G01X00123Y00010D02*
G01X03905Y00010D01*
G01X03905Y00010D02*
G01X03913Y00010D01*
G01X03913Y00010D02*
G01X03920Y00011D01*
G01X03920Y00011D02*
G01X03927Y00012D01*
G01X03927Y00012D02*
G01X03935Y00013D01*
G01X03935Y00013D02*
G01X03942Y00015D01*
G01X03942Y00015D02*
G01X03949Y00017D01*
G01X03949Y00017D02*
G01X03956Y00020D01*
G01X03956Y00020D02*
G01X03963Y00022D01*
G01X03963Y00022D02*
G01X03970Y00026D01*
G01X03970Y00026D02*
G01X03976Y00029D01*
G01X03976Y00029D02*
G01X03983Y00033D01*
G01X03983Y00033D02*
G01X03989Y00037D01*
G01X03989Y00037D02*
G01X03995Y00042D01*
G01X03995Y00042D02*
G01X04000Y00047D01*
G01X04000Y00047D02*
G01X04006Y00052D01*
G01X04006Y00052D02*
G01X04011Y00057D01*
G01X04011Y00057D02*
G01X04016Y00063D01*
G01X04016Y00063D02*
G01X04020Y00069D01*
G01X04020Y00069D02*
G01X04025Y00075D01*
G01X04025Y00075D02*
G01X04029Y00081D01*
G01X04029Y00081D02*
G01X04032Y00088D01*
G01X04032Y00088D02*
G01X04035Y00095D01*
G01X04035Y00095D02*
G01X04038Y00102D01*
G01X04038Y00102D02*
G01X04041Y00109D01*
G01X04041Y00109D02*
G01X04043Y00116D01*
G01X04043Y00116D02*
G01X04045Y00123D01*
G01X04045Y00123D02*
G01X04046Y00130D01*
G01X04046Y00130D02*
G01X04047Y00138D01*
G01X04047Y00138D02*
G01X04047Y00145D01*
G01X04047Y00145D02*
G01X04048Y00153D01*
G01X04048Y00153D02*
G01X04048Y01624D01*
G01X04048Y01624D02*
G01X04047Y01631D01*
G01X04047Y01631D02*
G01X04047Y01638D01*
G01X04047Y01638D02*
G01X04046Y01645D01*
G01X04046Y01645D02*
G01X04045Y01652D01*
G01X04045Y01652D02*
G01X04043Y01658D01*
G01X04043Y01658D02*
G01X04041Y01665D01*
G01X04041Y01665D02*
G01X04038Y01671D01*
G01X04038Y01671D02*
G01X04035Y01678D01*
G01X04035Y01678D02*
G01X04032Y01684D01*
G01X04032Y01684D02*
G01X04029Y01690D01*
G01X04029Y01690D02*
G01X04025Y01695D01*
G01X04025Y01695D02*
G01X04021Y01701D01*
G01X04021Y01701D02*
G01X04016Y01706D01*
G01X04016Y01706D02*
G01X04012Y01711D01*
G01X04012Y01711D02*
G01X04007Y01716D01*
G01X04007Y01716D02*
G01X04001Y01720D01*
G01X04001Y01720D02*
G01X03996Y01724D01*
G01X03996Y01724D02*
G01X03990Y01728D01*
G01X03990Y01728D02*
G01X03984Y01732D01*
G01X03984Y01732D02*
G01X03978Y01735D01*
G01X03978Y01735D02*
G01X03972Y01738D01*
G01X03972Y01738D02*
G01X03965Y01740D01*
G01X03965Y01740D02*
G01X03959Y01742D01*
G01X03959Y01742D02*
G01X03952Y01744D01*
G01X03952Y01744D02*
G01X03945Y01745D01*
G01X03945Y01745D02*
G01X03939Y01746D01*
G01X03939Y01746D02*
G01X03932Y01747D01*
G01X03932Y01747D02*
G01X03925Y01747D01*
G01X03925Y01747D02*
G01X00125Y01747D01*
G01X00125Y01747D02*
G01X00118Y01747D01*
G01X00118Y01747D02*
G01X00112Y01746D01*
G01X00112Y01746D02*
G01X00105Y01745D01*
G01X00105Y01745D02*
G01X00099Y01744D01*
G01X00099Y01744D02*
G01X00092Y01742D01*
G01X00092Y01742D02*
G01X00086Y01740D01*
G01X00086Y01740D02*
G01X00080Y01738D01*
G01X00080Y01738D02*
G01X00074Y01735D01*
G01X00074Y01735D02*
G01X00068Y01732D01*
G01X00068Y01732D02*
G01X00062Y01728D01*
G01X00062Y01728D02*
G01X00057Y01724D01*
G01X00057Y01724D02*
G01X00051Y01720D01*
G01X00051Y01720D02*
G01X00047Y01716D01*
G01X00047Y01716D02*
G01X00042Y01711D01*
G01X00042Y01711D02*
G01X00037Y01706D01*
G01X00037Y01706D02*
G01X00033Y01701D01*
G01X00033Y01701D02*
G01X00029Y01696D01*
G01X00029Y01696D02*
G01X00026Y01690D01*
G01X00026Y01690D02*
G01X00023Y01684D01*
G01X00023Y01684D02*
G01X00020Y01678D01*
G01X00020Y01678D02*
G01X00017Y01672D01*
G01X00017Y01672D02*
G01X00015Y01665D01*
G01X00015Y01665D02*
G01X00014Y01659D01*
G01X00014Y01659D02*
G01X00012Y01652D01*
G01X00012Y01652D02*
G01X00011Y01646D01*
G01X00011Y01646D02*
G01X00011Y01639D01*
G01X00011Y01639D02*
G01X00011Y01633D01*
G01X00011Y01633D02*
G01X00011Y00122D01*
G01X00011Y00122D02*
G01X00011Y00116D01*
G01X00011Y00116D02*
G01X00011Y00109D01*
G01X00011Y00109D02*
G01X00012Y00103D01*
G01X00012Y00103D02*
G01X00014Y00096D01*
G01X00014Y00096D02*
G01X00015Y00090D01*
G01X00015Y00090D02*
G01X00017Y00084D01*
G01X00017Y00084D02*
G01X00020Y00078D01*
G01X00020Y00078D02*
G01X00022Y00072D01*
G01X00022Y00072D02*
G01X00026Y00066D01*
G01X00026Y00066D02*
G01X00029Y00061D01*
G01X00029Y00061D02*
G01X00033Y00055D01*
G01X00033Y00055D02*
G01X00037Y00050D01*
G01X00037Y00050D02*
G01X00041Y00045D01*
G01X00041Y00045D02*
G01X00046Y00041D01*
G01X00046Y00041D02*
G01X00051Y00036D01*
G01X00051Y00036D02*
G01X00056Y00032D01*
G01X00056Y00032D02*
G01X00061Y00029D01*
G01X00061Y00029D02*
G01X00067Y00025D01*
G01X00067Y00025D02*
G01X00072Y00022D01*
G01X00072Y00022D02*
G01X00078Y00019D01*
G01X00078Y00019D02*
G01X00084Y00017D01*
G01X00084Y00017D02*
G01X00090Y00015D01*
G01X00090Y00015D02*
G01X00097Y00013D01*
G01X00097Y00013D02*
G01X00103Y00012D01*
G01X00103Y00012D02*
G01X00110Y00011D01*
G01X00110Y00011D02*
G01X00116Y00010D01*
G01X00116Y00010D02*
G01X00123Y00010D01*
G01X00095Y00160D02*
G01X00095Y00165D01*
G01X00095Y00165D02*
G01X00096Y00170D01*
G01X00096Y00170D02*
G01X00097Y00175D01*
G01X00097Y00175D02*
G01X00098Y00180D01*
G01X00098Y00180D02*
G01X00100Y00185D01*
G01X00100Y00185D02*
G01X00102Y00189D01*
G01X00102Y00189D02*
G01X00104Y00194D01*
G01X00104Y00194D02*
G01X00107Y00198D01*
G01X00107Y00198D02*
G01X00110Y00202D01*
G01X00110Y00202D02*
G01X00114Y00206D01*
G01X00114Y00206D02*
G01X00117Y00209D01*
G01X00117Y00209D02*
G01X00121Y00212D01*
G01X00121Y00212D02*
G01X00125Y00215D01*
G01X00125Y00215D02*
G01X00130Y00218D01*
G01X00130Y00218D02*
G01X00134Y00220D01*
G01X00134Y00220D02*
G01X00139Y00222D01*
G01X00139Y00222D02*
G01X00144Y00223D01*
G01X00144Y00223D02*
G01X00149Y00224D01*
G01X00149Y00224D02*
G01X00154Y00225D01*
G01X00154Y00225D02*
G01X00159Y00225D01*
G01X00159Y00225D02*
G01X00164Y00225D01*
G01X00164Y00225D02*
G01X00169Y00225D01*
G01X00169Y00225D02*
G01X00174Y00224D01*
G01X00174Y00224D02*
G01X00179Y00222D01*
G01X00179Y00222D02*
G01X00184Y00221D01*
G01X00184Y00221D02*
G01X00188Y00219D01*
G01X00188Y00219D02*
G01X00193Y00216D01*
G01X00193Y00216D02*
G01X00197Y00214D01*
G01X00197Y00214D02*
G01X00201Y00211D01*
G01X00201Y00211D02*
G01X00205Y00207D01*
G01X00205Y00207D02*
G01X00208Y00204D01*
G01X00208Y00204D02*
G01X00212Y00200D01*
G01X00212Y00200D02*
G01X00214Y00196D01*
G01X00214Y00196D02*
G01X00217Y00192D01*
G01X00217Y00192D02*
G01X00219Y00187D01*
G01X00219Y00187D02*
G01X00221Y00182D01*
G01X00221Y00182D02*
G01X00223Y00178D01*
G01X00223Y00178D02*
G01X00224Y00173D01*
G01X00224Y00173D02*
G01X00225Y00168D01*
G01X00225Y00168D02*
G01X00225Y00163D01*
G01X00225Y00163D02*
G01X00225Y00158D01*
G01X00225Y00158D02*
G01X00225Y00153D01*
G01X00225Y00153D02*
G01X00224Y00148D01*
G01X00224Y00148D02*
G01X00223Y00143D01*
G01X00223Y00143D02*
G01X00221Y00138D01*
G01X00221Y00138D02*
G01X00219Y00133D01*
G01X00219Y00133D02*
G01X00217Y00129D01*
G01X00217Y00129D02*
G01X00214Y00124D01*
G01X00214Y00124D02*
G01X00212Y00120D01*
G01X00212Y00120D02*
G01X00208Y00116D01*
G01X00208Y00116D02*
G01X00205Y00113D01*
G01X00205Y00113D02*
G01X00201Y00110D01*
G01X00201Y00110D02*
G01X00197Y00107D01*
G01X00197Y00107D02*
G01X00193Y00104D01*
G01X00193Y00104D02*
G01X00188Y00102D01*
G01X00188Y00102D02*
G01X00184Y00100D01*
G01X00184Y00100D02*
G01X00179Y00098D01*
G01X00179Y00098D02*
G01X00174Y00097D01*
G01X00174Y00097D02*
G01X00169Y00096D01*
G01X00169Y00096D02*
G01X00164Y00095D01*
G01X00164Y00095D02*
G01X00159Y00095D01*
G01X00159Y00095D02*
G01X00154Y00095D01*
G01X00154Y00095D02*
G01X00149Y00096D01*
G01X00149Y00096D02*
G01X00144Y00097D01*
G01X00144Y00097D02*
G01X00139Y00099D01*
G01X00139Y00099D02*
G01X00134Y00100D01*
G01X00134Y00100D02*
G01X00130Y00103D01*
G01X00130Y00103D02*
G01X00125Y00105D01*
G01X00125Y00105D02*
G01X00121Y00108D01*
G01X00121Y00108D02*
G01X00117Y00111D01*
G01X00117Y00111D02*
G01X00114Y00115D01*
G01X00114Y00115D02*
G01X00110Y00118D01*
G01X00110Y00118D02*
G01X00107Y00122D01*
G01X00107Y00122D02*
G01X00104Y00127D01*
G01X00104Y00127D02*
G01X00102Y00131D01*
G01X00102Y00131D02*
G01X00100Y00136D01*
G01X00100Y00136D02*
G01X00098Y00140D01*
G01X00098Y00140D02*
G01X00097Y00145D01*
G01X00097Y00145D02*
G01X00096Y00150D01*
G01X00096Y00150D02*
G01X00095Y00155D01*
G01X00095Y00155D02*
G01X00095Y00160D01*
G01X00896Y00524D02*
G01X00896Y00527D01*
G01X00896Y00527D02*
G01X00897Y00531D01*
G01X00897Y00531D02*
G01X00898Y00534D01*
G01X00898Y00534D02*
G01X00899Y00537D01*
G01X00899Y00537D02*
G01X00901Y00540D01*
G01X00901Y00540D02*
G01X00903Y00543D01*
G01X00903Y00543D02*
G01X00905Y00546D01*
G01X00905Y00546D02*
G01X00908Y00548D01*
G01X00908Y00548D02*
G01X00911Y00550D01*
G01X00911Y00550D02*
G01X00914Y00552D01*
G01X00914Y00552D02*
G01X00917Y00553D01*
G01X00917Y00553D02*
G01X00920Y00554D01*
G01X00920Y00554D02*
G01X00924Y00555D01*
G01X00924Y00555D02*
G01X00927Y00555D01*
G01X00927Y00555D02*
G01X00931Y00555D01*
G01X00931Y00555D02*
G01X00934Y00554D01*
G01X00934Y00554D02*
G01X00938Y00553D01*
G01X00938Y00553D02*
G01X00941Y00552D01*
G01X00941Y00552D02*
G01X00944Y00550D01*
G01X00944Y00550D02*
G01X00947Y00548D01*
G01X00947Y00548D02*
G01X00950Y00546D01*
G01X00950Y00546D02*
G01X00952Y00543D01*
G01X00952Y00543D02*
G01X00954Y00540D01*
G01X00954Y00540D02*
G01X00956Y00537D01*
G01X00956Y00537D02*
G01X00957Y00534D01*
G01X00957Y00534D02*
G01X00958Y00531D01*
G01X00958Y00531D02*
G01X00959Y00527D01*
G01X00959Y00527D02*
G01X00959Y00524D01*
G01X00959Y00524D02*
G01X00959Y00520D01*
G01X00959Y00520D02*
G01X00958Y00517D01*
G01X00958Y00517D02*
G01X00957Y00513D01*
G01X00957Y00513D02*
G01X00956Y00510D01*
G01X00956Y00510D02*
G01X00954Y00507D01*
G01X00954Y00507D02*
G01X00952Y00504D01*
G01X00952Y00504D02*
G01X00950Y00501D01*
G01X00950Y00501D02*
G01X00947Y00499D01*
G01X00947Y00499D02*
G01X00944Y00497D01*
G01X00944Y00497D02*
G01X00941Y00495D01*
G01X00941Y00495D02*
G01X00938Y00494D01*
G01X00938Y00494D02*
G01X00934Y00493D01*
G01X00934Y00493D02*
G01X00931Y00492D01*
G01X00931Y00492D02*
G01X00927Y00492D01*
G01X00927Y00492D02*
G01X00924Y00492D01*
G01X00924Y00492D02*
G01X00920Y00493D01*
G01X00920Y00493D02*
G01X00917Y00494D01*
G01X00917Y00494D02*
G01X00914Y00495D01*
G01X00914Y00495D02*
G01X00911Y00497D01*
G01X00911Y00497D02*
G01X00908Y00499D01*
G01X00908Y00499D02*
G01X00905Y00501D01*
G01X00905Y00501D02*
G01X00903Y00504D01*
G01X00903Y00504D02*
G01X00901Y00507D01*
G01X00901Y00507D02*
G01X00899Y00510D01*
G01X00899Y00510D02*
G01X00898Y00513D01*
G01X00898Y00513D02*
G01X00897Y00517D01*
G01X00897Y00517D02*
G01X00896Y00520D01*
G01X00896Y00520D02*
G01X00896Y00524D01*
G01X00906Y01354D02*
G01X00906Y01357D01*
G01X00906Y01357D02*
G01X00907Y01360D01*
G01X00907Y01360D02*
G01X00907Y01363D01*
G01X00907Y01363D02*
G01X00909Y01365D01*
G01X00909Y01365D02*
G01X00910Y01368D01*
G01X00910Y01368D02*
G01X00912Y01370D01*
G01X00912Y01370D02*
G01X00915Y01372D01*
G01X00915Y01372D02*
G01X00917Y01373D01*
G01X00917Y01373D02*
G01X00920Y01375D01*
G01X00920Y01375D02*
G01X00922Y01375D01*
G01X00922Y01375D02*
G01X00925Y01376D01*
G01X00925Y01376D02*
G01X00928Y01376D01*
G01X00928Y01376D02*
G01X00931Y01376D01*
G01X00931Y01376D02*
G01X00934Y01375D01*
G01X00934Y01375D02*
G01X00937Y01374D01*
G01X00937Y01374D02*
G01X00939Y01373D01*
G01X00939Y01373D02*
G01X00941Y01371D01*
G01X00941Y01371D02*
G01X00944Y01369D01*
G01X00944Y01369D02*
G01X00945Y01367D01*
G01X00945Y01367D02*
G01X00947Y01364D01*
G01X00947Y01364D02*
G01X00948Y01361D01*
G01X00948Y01361D02*
G01X00949Y01359D01*
G01X00949Y01359D02*
G01X00949Y01356D01*
G01X00949Y01356D02*
G01X00949Y01353D01*
G01X00949Y01353D02*
G01X00949Y01350D01*
G01X00949Y01350D02*
G01X00948Y01347D01*
G01X00948Y01347D02*
G01X00947Y01345D01*
G01X00947Y01345D02*
G01X00945Y01342D01*
G01X00945Y01342D02*
G01X00944Y01340D01*
G01X00944Y01340D02*
G01X00941Y01338D01*
G01X00941Y01338D02*
G01X00939Y01336D01*
G01X00939Y01336D02*
G01X00937Y01335D01*
G01X00937Y01335D02*
G01X00934Y01334D01*
G01X00934Y01334D02*
G01X00931Y01333D01*
G01X00931Y01333D02*
G01X00928Y01333D01*
G01X00928Y01333D02*
G01X00925Y01333D01*
G01X00925Y01333D02*
G01X00922Y01333D01*
G01X00922Y01333D02*
G01X00920Y01334D01*
G01X00920Y01334D02*
G01X00917Y01335D01*
G01X00917Y01335D02*
G01X00915Y01337D01*
G01X00915Y01337D02*
G01X00912Y01339D01*
G01X00912Y01339D02*
G01X00910Y01341D01*
G01X00910Y01341D02*
G01X00909Y01343D01*
G01X00909Y01343D02*
G01X00907Y01346D01*
G01X00907Y01346D02*
G01X00907Y01349D01*
G01X00907Y01349D02*
G01X00906Y01351D01*
G01X00906Y01351D02*
G01X00906Y01354D01*
G01X00095Y01598D02*
G01X00095Y01603D01*
G01X00095Y01603D02*
G01X00096Y01608D01*
G01X00096Y01608D02*
G01X00097Y01613D01*
G01X00097Y01613D02*
G01X00098Y01617D01*
G01X00098Y01617D02*
G01X00100Y01622D01*
G01X00100Y01622D02*
G01X00102Y01627D01*
G01X00102Y01627D02*
G01X00104Y01631D01*
G01X00104Y01631D02*
G01X00107Y01635D01*
G01X00107Y01635D02*
G01X00110Y01639D01*
G01X00110Y01639D02*
G01X00114Y01643D01*
G01X00114Y01643D02*
G01X00117Y01647D01*
G01X00117Y01647D02*
G01X00121Y01650D01*
G01X00121Y01650D02*
G01X00125Y01653D01*
G01X00125Y01653D02*
G01X00130Y01655D01*
G01X00130Y01655D02*
G01X00134Y01657D01*
G01X00134Y01657D02*
G01X00139Y01659D01*
G01X00139Y01659D02*
G01X00144Y01661D01*
G01X00144Y01661D02*
G01X00149Y01662D01*
G01X00149Y01662D02*
G01X00154Y01662D01*
G01X00154Y01662D02*
G01X00159Y01663D01*
G01X00159Y01663D02*
G01X00164Y01663D01*
G01X00164Y01663D02*
G01X00169Y01662D01*
G01X00169Y01662D02*
G01X00174Y01661D01*
G01X00174Y01661D02*
G01X00179Y01660D01*
G01X00179Y01660D02*
G01X00184Y01658D01*
G01X00184Y01658D02*
G01X00188Y01656D01*
G01X00188Y01656D02*
G01X00193Y01654D01*
G01X00193Y01654D02*
G01X00197Y01651D01*
G01X00197Y01651D02*
G01X00201Y01648D01*
G01X00201Y01648D02*
G01X00205Y01645D01*
G01X00205Y01645D02*
G01X00208Y01641D01*
G01X00208Y01641D02*
G01X00212Y01637D01*
G01X00212Y01637D02*
G01X00214Y01633D01*
G01X00214Y01633D02*
G01X00217Y01629D01*
G01X00217Y01629D02*
G01X00219Y01625D01*
G01X00219Y01625D02*
G01X00221Y01620D01*
G01X00221Y01620D02*
G01X00223Y01615D01*
G01X00223Y01615D02*
G01X00224Y01610D01*
G01X00224Y01610D02*
G01X00225Y01605D01*
G01X00225Y01605D02*
G01X00225Y01600D01*
G01X00225Y01600D02*
G01X00225Y01595D01*
G01X00225Y01595D02*
G01X00225Y01590D01*
G01X00225Y01590D02*
G01X00224Y01585D01*
G01X00224Y01585D02*
G01X00223Y01580D01*
G01X00223Y01580D02*
G01X00221Y01575D01*
G01X00221Y01575D02*
G01X00219Y01571D01*
G01X00219Y01571D02*
G01X00217Y01566D01*
G01X00217Y01566D02*
G01X00214Y01562D01*
G01X00214Y01562D02*
G01X00212Y01558D01*
G01X00212Y01558D02*
G01X00208Y01554D01*
G01X00208Y01554D02*
G01X00205Y01550D01*
G01X00205Y01550D02*
G01X00201Y01547D01*
G01X00201Y01547D02*
G01X00197Y01544D01*
G01X00197Y01544D02*
G01X00193Y01541D01*
G01X00193Y01541D02*
G01X00188Y01539D01*
G01X00188Y01539D02*
G01X00184Y01537D01*
G01X00184Y01537D02*
G01X00179Y01535D01*
G01X00179Y01535D02*
G01X00174Y01534D01*
G01X00174Y01534D02*
G01X00169Y01533D01*
G01X00169Y01533D02*
G01X00164Y01533D01*
G01X00164Y01533D02*
G01X00159Y01533D01*
G01X00159Y01533D02*
G01X00154Y01533D01*
G01X00154Y01533D02*
G01X00149Y01534D01*
G01X00149Y01534D02*
G01X00144Y01535D01*
G01X00144Y01535D02*
G01X00139Y01536D01*
G01X00139Y01536D02*
G01X00134Y01538D01*
G01X00134Y01538D02*
G01X00130Y01540D01*
G01X00130Y01540D02*
G01X00125Y01543D01*
G01X00125Y01543D02*
G01X00121Y01546D01*
G01X00121Y01546D02*
G01X00117Y01549D01*
G01X00117Y01549D02*
G01X00114Y01552D01*
G01X00114Y01552D02*
G01X00110Y01556D01*
G01X00110Y01556D02*
G01X00107Y01560D01*
G01X00107Y01560D02*
G01X00104Y01564D01*
G01X00104Y01564D02*
G01X00102Y01568D01*
G01X00102Y01568D02*
G01X00100Y01573D01*
G01X00100Y01573D02*
G01X00098Y01578D01*
G01X00098Y01578D02*
G01X00097Y01583D01*
G01X00097Y01583D02*
G01X00096Y01588D01*
G01X00096Y01588D02*
G01X00095Y01593D01*
G01X00095Y01593D02*
G01X00095Y01598D01*
G01X02529Y01658D02*
G01X02529Y01661D01*
G01X02529Y01661D02*
G01X02530Y01663D01*
G01X02530Y01663D02*
G01X02530Y01666D01*
G01X02530Y01666D02*
G01X02532Y01669D01*
G01X02532Y01669D02*
G01X02533Y01671D01*
G01X02533Y01671D02*
G01X02535Y01673D01*
G01X02535Y01673D02*
G01X02538Y01675D01*
G01X02538Y01675D02*
G01X02540Y01677D01*
G01X02540Y01677D02*
G01X02543Y01678D01*
G01X02543Y01678D02*
G01X02545Y01679D01*
G01X02545Y01679D02*
G01X02548Y01679D01*
G01X02548Y01679D02*
G01X02551Y01679D01*
G01X02551Y01679D02*
G01X02554Y01679D01*
G01X02554Y01679D02*
G01X02557Y01678D01*
G01X02557Y01678D02*
G01X02560Y01677D01*
G01X02560Y01677D02*
G01X02562Y01676D01*
G01X02562Y01676D02*
G01X02564Y01674D01*
G01X02564Y01674D02*
G01X02567Y01672D01*
G01X02567Y01672D02*
G01X02568Y01670D01*
G01X02568Y01670D02*
G01X02570Y01667D01*
G01X02570Y01667D02*
G01X02571Y01665D01*
G01X02571Y01665D02*
G01X02572Y01662D01*
G01X02572Y01662D02*
G01X02572Y01659D01*
G01X02572Y01659D02*
G01X02572Y01656D01*
G01X02572Y01656D02*
G01X02572Y01653D01*
G01X02572Y01653D02*
G01X02571Y01651D01*
G01X02571Y01651D02*
G01X02570Y01648D01*
G01X02570Y01648D02*
G01X02568Y01645D01*
G01X02568Y01645D02*
G01X02567Y01643D01*
G01X02567Y01643D02*
G01X02564Y01641D01*
G01X02564Y01641D02*
G01X02562Y01639D01*
G01X02562Y01639D02*
G01X02560Y01638D01*
G01X02560Y01638D02*
G01X02557Y01637D01*
G01X02557Y01637D02*
G01X02554Y01636D01*
G01X02554Y01636D02*
G01X02551Y01636D01*
G01X02551Y01636D02*
G01X02548Y01636D01*
G01X02548Y01636D02*
G01X02545Y01637D01*
G01X02545Y01637D02*
G01X02543Y01637D01*
G01X02543Y01637D02*
G01X02540Y01639D01*
G01X02540Y01639D02*
G01X02538Y01640D01*
G01X02538Y01640D02*
G01X02535Y01642D01*
G01X02535Y01642D02*
G01X02533Y01644D01*
G01X02533Y01644D02*
G01X02532Y01647D01*
G01X02532Y01647D02*
G01X02530Y01649D01*
G01X02530Y01649D02*
G01X02530Y01652D01*
G01X02530Y01652D02*
G01X02529Y01655D01*
G01X02529Y01655D02*
G01X02529Y01658D01*
G01X02529Y01520D02*
G01X02529Y01523D01*
G01X02529Y01523D02*
G01X02530Y01526D01*
G01X02530Y01526D02*
G01X02530Y01528D01*
G01X02530Y01528D02*
G01X02532Y01531D01*
G01X02532Y01531D02*
G01X02533Y01533D01*
G01X02533Y01533D02*
G01X02535Y01535D01*
G01X02535Y01535D02*
G01X02538Y01537D01*
G01X02538Y01537D02*
G01X02540Y01539D01*
G01X02540Y01539D02*
G01X02543Y01540D01*
G01X02543Y01540D02*
G01X02545Y01541D01*
G01X02545Y01541D02*
G01X02548Y01541D01*
G01X02548Y01541D02*
G01X02551Y01542D01*
G01X02551Y01542D02*
G01X02554Y01541D01*
G01X02554Y01541D02*
G01X02557Y01541D01*
G01X02557Y01541D02*
G01X02560Y01540D01*
G01X02560Y01540D02*
G01X02562Y01538D01*
G01X02562Y01538D02*
G01X02564Y01536D01*
G01X02564Y01536D02*
G01X02567Y01534D01*
G01X02567Y01534D02*
G01X02568Y01532D01*
G01X02568Y01532D02*
G01X02570Y01530D01*
G01X02570Y01530D02*
G01X02571Y01527D01*
G01X02571Y01527D02*
G01X02572Y01524D01*
G01X02572Y01524D02*
G01X02572Y01521D01*
G01X02572Y01521D02*
G01X02572Y01518D01*
G01X02572Y01518D02*
G01X02572Y01516D01*
G01X02572Y01516D02*
G01X02571Y01513D01*
G01X02571Y01513D02*
G01X02570Y01510D01*
G01X02570Y01510D02*
G01X02568Y01508D01*
G01X02568Y01508D02*
G01X02567Y01505D01*
G01X02567Y01505D02*
G01X02564Y01503D01*
G01X02564Y01503D02*
G01X02562Y01502D01*
G01X02562Y01502D02*
G01X02560Y01500D01*
G01X02560Y01500D02*
G01X02557Y01499D01*
G01X02557Y01499D02*
G01X02554Y01498D01*
G01X02554Y01498D02*
G01X02551Y01498D01*
G01X02551Y01498D02*
G01X02548Y01498D01*
G01X02548Y01498D02*
G01X02545Y01499D01*
G01X02545Y01499D02*
G01X02543Y01500D01*
G01X02543Y01500D02*
G01X02540Y01501D01*
G01X02540Y01501D02*
G01X02538Y01502D01*
G01X02538Y01502D02*
G01X02535Y01504D01*
G01X02535Y01504D02*
G01X02533Y01506D01*
G01X02533Y01506D02*
G01X02532Y01509D01*
G01X02532Y01509D02*
G01X02530Y01511D01*
G01X02530Y01511D02*
G01X02530Y01514D01*
G01X02530Y01514D02*
G01X02529Y01517D01*
G01X02529Y01517D02*
G01X02529Y01520D01*
G01X03833Y01598D02*
G01X03833Y01603D01*
G01X03833Y01603D02*
G01X03833Y01608D01*
G01X03833Y01608D02*
G01X03834Y01613D01*
G01X03834Y01613D02*
G01X03836Y01617D01*
G01X03836Y01617D02*
G01X03837Y01622D01*
G01X03837Y01622D02*
G01X03840Y01627D01*
G01X03840Y01627D02*
G01X03842Y01631D01*
G01X03842Y01631D02*
G01X03845Y01635D01*
G01X03845Y01635D02*
G01X03848Y01639D01*
G01X03848Y01639D02*
G01X03851Y01643D01*
G01X03851Y01643D02*
G01X03855Y01647D01*
G01X03855Y01647D02*
G01X03859Y01650D01*
G01X03859Y01650D02*
G01X03863Y01653D01*
G01X03863Y01653D02*
G01X03867Y01655D01*
G01X03867Y01655D02*
G01X03872Y01657D01*
G01X03872Y01657D02*
G01X03877Y01659D01*
G01X03877Y01659D02*
G01X03881Y01661D01*
G01X03881Y01661D02*
G01X03886Y01662D01*
G01X03886Y01662D02*
G01X03891Y01662D01*
G01X03891Y01662D02*
G01X03896Y01663D01*
G01X03896Y01663D02*
G01X03901Y01663D01*
G01X03901Y01663D02*
G01X03906Y01662D01*
G01X03906Y01662D02*
G01X03911Y01661D01*
G01X03911Y01661D02*
G01X03916Y01660D01*
G01X03916Y01660D02*
G01X03921Y01658D01*
G01X03921Y01658D02*
G01X03926Y01656D01*
G01X03926Y01656D02*
G01X03930Y01654D01*
G01X03930Y01654D02*
G01X03934Y01651D01*
G01X03934Y01651D02*
G01X03938Y01648D01*
G01X03938Y01648D02*
G01X03942Y01645D01*
G01X03942Y01645D02*
G01X03946Y01641D01*
G01X03946Y01641D02*
G01X03949Y01637D01*
G01X03949Y01637D02*
G01X03952Y01633D01*
G01X03952Y01633D02*
G01X03955Y01629D01*
G01X03955Y01629D02*
G01X03957Y01625D01*
G01X03957Y01625D02*
G01X03959Y01620D01*
G01X03959Y01620D02*
G01X03960Y01615D01*
G01X03960Y01615D02*
G01X03961Y01610D01*
G01X03961Y01610D02*
G01X03962Y01605D01*
G01X03962Y01605D02*
G01X03963Y01600D01*
G01X03963Y01600D02*
G01X03963Y01595D01*
G01X03963Y01595D02*
G01X03962Y01590D01*
G01X03962Y01590D02*
G01X03961Y01585D01*
G01X03961Y01585D02*
G01X03960Y01580D01*
G01X03960Y01580D02*
G01X03959Y01575D01*
G01X03959Y01575D02*
G01X03957Y01571D01*
G01X03957Y01571D02*
G01X03955Y01566D01*
G01X03955Y01566D02*
G01X03952Y01562D01*
G01X03952Y01562D02*
G01X03949Y01558D01*
G01X03949Y01558D02*
G01X03946Y01554D01*
G01X03946Y01554D02*
G01X03942Y01550D01*
G01X03942Y01550D02*
G01X03938Y01547D01*
G01X03938Y01547D02*
G01X03934Y01544D01*
G01X03934Y01544D02*
G01X03930Y01541D01*
G01X03930Y01541D02*
G01X03926Y01539D01*
G01X03926Y01539D02*
G01X03921Y01537D01*
G01X03921Y01537D02*
G01X03916Y01535D01*
G01X03916Y01535D02*
G01X03911Y01534D01*
G01X03911Y01534D02*
G01X03906Y01533D01*
G01X03906Y01533D02*
G01X03901Y01533D01*
G01X03901Y01533D02*
G01X03896Y01533D01*
G01X03896Y01533D02*
G01X03891Y01533D01*
G01X03891Y01533D02*
G01X03886Y01534D01*
G01X03886Y01534D02*
G01X03881Y01535D01*
G01X03881Y01535D02*
G01X03877Y01536D01*
G01X03877Y01536D02*
G01X03872Y01538D01*
G01X03872Y01538D02*
G01X03867Y01540D01*
G01X03867Y01540D02*
G01X03863Y01543D01*
G01X03863Y01543D02*
G01X03859Y01546D01*
G01X03859Y01546D02*
G01X03855Y01549D01*
G01X03855Y01549D02*
G01X03851Y01552D01*
G01X03851Y01552D02*
G01X03848Y01556D01*
G01X03848Y01556D02*
G01X03845Y01560D01*
G01X03845Y01560D02*
G01X03842Y01564D01*
G01X03842Y01564D02*
G01X03840Y01568D01*
G01X03840Y01568D02*
G01X03837Y01573D01*
G01X03837Y01573D02*
G01X03836Y01578D01*
G01X03836Y01578D02*
G01X03834Y01583D01*
G01X03834Y01583D02*
G01X03833Y01588D01*
G01X03833Y01588D02*
G01X03833Y01593D01*
G01X03833Y01593D02*
G01X03833Y01598D01*
G01X03833Y00160D02*
G01X03833Y00165D01*
G01X03833Y00165D02*
G01X03833Y00170D01*
G01X03833Y00170D02*
G01X03834Y00175D01*
G01X03834Y00175D02*
G01X03836Y00180D01*
G01X03836Y00180D02*
G01X03837Y00185D01*
G01X03837Y00185D02*
G01X03840Y00189D01*
G01X03840Y00189D02*
G01X03842Y00194D01*
G01X03842Y00194D02*
G01X03845Y00198D01*
G01X03845Y00198D02*
G01X03848Y00202D01*
G01X03848Y00202D02*
G01X03851Y00206D01*
G01X03851Y00206D02*
G01X03855Y00209D01*
G01X03855Y00209D02*
G01X03859Y00212D01*
G01X03859Y00212D02*
G01X03863Y00215D01*
G01X03863Y00215D02*
G01X03867Y00218D01*
G01X03867Y00218D02*
G01X03872Y00220D01*
G01X03872Y00220D02*
G01X03877Y00222D01*
G01X03877Y00222D02*
G01X03881Y00223D01*
G01X03881Y00223D02*
G01X03886Y00224D01*
G01X03886Y00224D02*
G01X03891Y00225D01*
G01X03891Y00225D02*
G01X03896Y00225D01*
G01X03896Y00225D02*
G01X03901Y00225D01*
G01X03901Y00225D02*
G01X03906Y00225D01*
G01X03906Y00225D02*
G01X03911Y00224D01*
G01X03911Y00224D02*
G01X03916Y00222D01*
G01X03916Y00222D02*
G01X03921Y00221D01*
G01X03921Y00221D02*
G01X03926Y00219D01*
G01X03926Y00219D02*
G01X03930Y00216D01*
G01X03930Y00216D02*
G01X03934Y00214D01*
G01X03934Y00214D02*
G01X03938Y00211D01*
G01X03938Y00211D02*
G01X03942Y00207D01*
G01X03942Y00207D02*
G01X03946Y00204D01*
G01X03946Y00204D02*
G01X03949Y00200D01*
G01X03949Y00200D02*
G01X03952Y00196D01*
G01X03952Y00196D02*
G01X03955Y00192D01*
G01X03955Y00192D02*
G01X03957Y00187D01*
G01X03957Y00187D02*
G01X03959Y00182D01*
G01X03959Y00182D02*
G01X03960Y00178D01*
G01X03960Y00178D02*
G01X03961Y00173D01*
G01X03961Y00173D02*
G01X03962Y00168D01*
G01X03962Y00168D02*
G01X03963Y00163D01*
G01X03963Y00163D02*
G01X03963Y00158D01*
G01X03963Y00158D02*
G01X03962Y00153D01*
G01X03962Y00153D02*
G01X03961Y00148D01*
G01X03961Y00148D02*
G01X03960Y00143D01*
G01X03960Y00143D02*
G01X03959Y00138D01*
G01X03959Y00138D02*
G01X03957Y00133D01*
G01X03957Y00133D02*
G01X03955Y00129D01*
G01X03955Y00129D02*
G01X03952Y00124D01*
G01X03952Y00124D02*
G01X03949Y00120D01*
G01X03949Y00120D02*
G01X03946Y00116D01*
G01X03946Y00116D02*
G01X03942Y00113D01*
G01X03942Y00113D02*
G01X03938Y00110D01*
G01X03938Y00110D02*
G01X03934Y00107D01*
G01X03934Y00107D02*
G01X03930Y00104D01*
G01X03930Y00104D02*
G01X03926Y00102D01*
G01X03926Y00102D02*
G01X03921Y00100D01*
G01X03921Y00100D02*
G01X03916Y00098D01*
G01X03916Y00098D02*
G01X03911Y00097D01*
G01X03911Y00097D02*
G01X03906Y00096D01*
G01X03906Y00096D02*
G01X03901Y00095D01*
G01X03901Y00095D02*
G01X03896Y00095D01*
G01X03896Y00095D02*
G01X03891Y00095D01*
G01X03891Y00095D02*
G01X03886Y00096D01*
G01X03886Y00096D02*
G01X03881Y00097D01*
G01X03881Y00097D02*
G01X03877Y00099D01*
G01X03877Y00099D02*
G01X03872Y00100D01*
G01X03872Y00100D02*
G01X03867Y00103D01*
G01X03867Y00103D02*
G01X03863Y00105D01*
G01X03863Y00105D02*
G01X03859Y00108D01*
G01X03859Y00108D02*
G01X03855Y00111D01*
G01X03855Y00111D02*
G01X03851Y00115D01*
G01X03851Y00115D02*
G01X03848Y00118D01*
G01X03848Y00118D02*
G01X03845Y00122D01*
G01X03845Y00122D02*
G01X03842Y00127D01*
G01X03842Y00127D02*
G01X03840Y00131D01*
G01X03840Y00131D02*
G01X03837Y00136D01*
G01X03837Y00136D02*
G01X03836Y00140D01*
G01X03836Y00140D02*
G01X03834Y00145D01*
G01X03834Y00145D02*
G01X03833Y00150D01*
G01X03833Y00150D02*
G01X03833Y00155D01*
G01X03833Y00155D02*
G01X03833Y00160D01*
G54D11*
G01X02610Y00782D02*
G01X02610Y00838D01*
G01X02510Y00838D02*
G01X02510Y00782D01*
G01X02410Y00782D02*
G01X02410Y00838D01*
G01X02310Y00838D02*
G01X02310Y00782D01*
G01X02210Y00782D02*
G01X02210Y00838D01*
G01X02110Y00838D02*
G01X02110Y00782D01*
G01X02010Y00782D02*
G01X02010Y00838D01*
G01X01910Y00838D02*
G01X01910Y00782D01*
G01X01810Y00782D02*
G01X01810Y00838D01*
G01X01710Y00838D02*
G01X01710Y00782D01*
G01X01610Y00782D02*
G01X01610Y00838D01*
G01X01510Y00838D02*
G01X01510Y00782D01*
G01X01410Y00782D02*
G01X01410Y00838D01*
G01X01310Y00838D02*
G01X01310Y00782D01*
G01X01310Y01082D02*
G01X01310Y01138D01*
G01X01410Y01138D02*
G01X01410Y01082D01*
G01X01510Y01082D02*
G01X01510Y01138D01*
G01X01610Y01138D02*
G01X01610Y01082D01*
G01X01710Y01082D02*
G01X01710Y01138D01*
G01X01810Y01138D02*
G01X01810Y01082D01*
G01X01910Y01082D02*
G01X01910Y01138D01*
G01X02010Y01138D02*
G01X02010Y01082D01*
G01X02110Y01082D02*
G01X02110Y01138D01*
G01X02210Y01138D02*
G01X02210Y01082D01*
G01X02310Y01082D02*
G01X02310Y01138D01*
G01X02410Y01138D02*
G01X02410Y01082D01*
G01X02510Y01082D02*
G01X02510Y01138D01*
G01X02610Y01138D02*
G01X02610Y01082D01*
G54D12*
G01X02660Y00635D03*
G01X02560Y00635D03*
G01X03730Y00588D03*
G01X03730Y00688D03*
G01X03730Y00788D03*
G01X03730Y00888D03*
G01X03730Y00488D03*
G01X03730Y00388D03*
G01X03660Y01516D03*
G01X03660Y01630D03*
G54D13*
G01X01785Y01555D03*
G01X01785Y01365D03*
G54D14*
G01X01985Y01260D03*
G01X02085Y01260D03*
G01X02198Y01260D03*
G01X02298Y01260D03*
G01X00923Y01585D03*
G01X00773Y01510D03*
G01X00673Y01510D03*
G01X00673Y01673D03*
G01X00773Y01673D03*
G01X00923Y01685D03*
G01X00523Y00235D03*
G01X00360Y00235D03*
G01X00360Y00135D03*
G01X00523Y00135D03*
G54D15*
G01X01210Y00660D03*
G01X01610Y00660D03*
G01X01723Y00660D03*
G01X01973Y00523D03*
G01X02123Y00660D03*
G01X02235Y00660D03*
G01X02435Y00660D03*
G01X02373Y00523D03*
G01X02798Y00610D03*
G01X02798Y01110D03*
G01X02723Y01260D03*
G01X02623Y01260D03*
G01X02423Y01260D03*
G01X02235Y01360D03*
G01X02035Y01360D03*
G01X02923Y01260D03*
G54D16*
G01X01556Y01335D03*
G01X01556Y01385D03*
G01X01556Y01435D03*
G01X01556Y01485D03*
G01X01556Y01535D03*
G01X01556Y01585D03*
G01X01556Y01635D03*
G01X01556Y01685D03*
G01X01314Y01685D03*
G01X01314Y01635D03*
G01X01314Y01585D03*
G01X01314Y01535D03*
G01X01314Y01485D03*
G01X01314Y01435D03*
G01X01314Y01385D03*
G01X01314Y01335D03*
G54D17*
G01X01160Y01559D03*
G01X01085Y01559D03*
G01X01085Y01661D03*
G01X01123Y01661D03*
G01X01160Y01661D03*
G01X00710Y00236D03*
G01X00635Y00236D03*
G01X00635Y00134D03*
G01X00673Y00134D03*
G01X00710Y00134D03*
G54D18*
G01X00927Y01354D03*
G01X02550Y01520D03*
G01X02550Y01658D03*
G54D19*
G01X00927Y00524D03*
G54D20*
G01X00975Y00437D03*
G01X00152Y00343D03*
G01X00152Y01441D03*
G01X00971Y01445D03*
G54D21*
G01X01046Y01378D03*
G01X01046Y01331D03*
G01X01046Y01280D03*
G54D22*
G01X01046Y01217D03*
G01X01046Y01118D03*
G01X01046Y01020D03*
G01X01046Y00921D03*
G01X01046Y00823D03*
G01X01046Y00724D03*
G01X01046Y00626D03*
G01X01046Y00528D03*
G54D23*
G01X03210Y01498D03*
G54D24*
G01X03470Y01498D03*
G01X02950Y01498D03*
G54D25*
G01X03898Y01598D03*
G01X03898Y00160D03*
G01X00160Y00160D03*
G01X00160Y01598D03*
G54D26*
G01X00385Y01698D03*
G01X00535Y01698D03*
G01X00535Y01498D03*
G01X00385Y01498D03*
G54D27*
G01X00917Y00160D03*
G01X02060Y00160D03*
G01X03210Y00160D03*
G54D28*
G01X03348Y00160D03*
G01X03486Y00160D03*
G01X03624Y00160D03*
G01X03025Y00160D03*
G01X02887Y00160D03*
G01X02749Y00160D03*
G01X02611Y00160D03*
G01X02474Y00160D03*
G01X02336Y00160D03*
G01X02198Y00160D03*
G01X01881Y00160D03*
G01X01743Y00160D03*
G01X01606Y00160D03*
G01X01468Y00160D03*
G01X01330Y00160D03*
G01X01192Y00160D03*
G01X01054Y00160D03*
G54D29*
G01X02048Y01523D03*
G01X02148Y01523D03*
G01X02248Y01523D03*
G01X02248Y01623D03*
G01X02148Y01623D03*
G01X02048Y01623D03*
G54D30*
G01X03029Y00998D03*
G01X03029Y00948D03*
G01X03029Y00898D03*
G01X03029Y00848D03*
G01X03029Y00798D03*
G01X03029Y00748D03*
G01X03029Y00698D03*
G01X03029Y00648D03*
G01X03391Y00648D03*
G01X03391Y00698D03*
G01X03391Y00748D03*
G01X03391Y00798D03*
G01X03391Y00848D03*
G01X03391Y00898D03*
G01X03391Y00948D03*
G01X03391Y00998D03*
G54D31*
G01X02763Y01500D03*
G01X02417Y01500D03*
G01X02417Y01677D03*
G01X02763Y01677D03*
G54D32*
G01X03861Y01198D03*
G54D33*
G01X03625Y01198D03*
M02*
