G75*
%MOIN*%
%OFA0B0*%
%FSLAX25Y25*%
%IPPOS*%
%LPD*%
%AMOC8*
5,1,8,0,0,1.08239X$1,22.5*
%
%ADD10C,0.06400*%
%ADD11C,0.05131*%
%ADD12C,0.07099*%
%ADD13R,0.11750X0.11750*%
%ADD14C,0.13800*%
%ADD15OC8,0.06400*%
%ADD16C,0.07200*%
%ADD17C,0.08200*%
%ADD18C,0.17800*%
%ADD19C,0.07400*%
%ADD20R,0.08800X0.08800*%
%ADD21C,0.08800*%
D10*
X0219800Y0120300D03*
X0238800Y0120300D03*
X0383300Y0134363D03*
X0383300Y0142237D03*
D11*
X0096032Y0138969D03*
D12*
X0096032Y0055898D03*
D13*
X0308300Y0154300D03*
X0360300Y0154300D03*
D14*
X0016800Y0016800D03*
X0016800Y0165550D03*
X0367500Y0078000D03*
X0367500Y0030600D03*
X0381800Y0016800D03*
X0381800Y0165550D03*
D15*
X0174800Y0088300D03*
X0164800Y0088300D03*
X0154800Y0088300D03*
X0144800Y0088300D03*
X0134800Y0088300D03*
X0124800Y0088300D03*
X0124800Y0048300D03*
X0134800Y0048300D03*
X0144800Y0048300D03*
X0154800Y0048300D03*
X0164800Y0048300D03*
X0174800Y0048300D03*
D16*
X0096800Y0160300D03*
X0086800Y0160300D03*
X0076800Y0160300D03*
X0076800Y0170300D03*
X0086800Y0170300D03*
X0096800Y0170300D03*
D17*
X0116300Y0169800D03*
X0116300Y0159800D03*
X0063600Y0151900D03*
X0038000Y0151900D03*
X0038000Y0169700D03*
X0063600Y0169700D03*
X0058100Y0035700D03*
X0032500Y0035700D03*
X0032500Y0017900D03*
X0058100Y0017900D03*
D18*
X0347807Y0105050D03*
X0371429Y0105050D03*
X0359618Y0123554D03*
D19*
X0356800Y0059221D03*
X0349000Y0059221D03*
X0349000Y0049379D03*
X0356800Y0049379D03*
D20*
X0210095Y0019300D03*
X0072300Y0019300D03*
X0140300Y0163800D03*
D21*
X0154080Y0163800D03*
X0167859Y0163800D03*
X0181639Y0163800D03*
X0195418Y0163800D03*
X0209198Y0163800D03*
X0222977Y0163800D03*
X0236757Y0163800D03*
X0250536Y0163800D03*
X0264316Y0163800D03*
X0265213Y0019300D03*
X0251434Y0019300D03*
X0237654Y0019300D03*
X0223875Y0019300D03*
X0196316Y0019300D03*
X0182536Y0019300D03*
X0168757Y0019300D03*
X0154977Y0019300D03*
X0141198Y0019300D03*
X0127418Y0019300D03*
X0113639Y0019300D03*
X0099859Y0019300D03*
X0086080Y0019300D03*
X0278993Y0019300D03*
X0292772Y0019300D03*
X0306552Y0019300D03*
X0320331Y0019300D03*
X0334111Y0019300D03*
M02*
