G75*
G70*
%OFA0B0*%
%FSLAX24Y24*%
%IPPOS*%
%LPD*%
%AMOC8*
5,1,8,0,0,1.08239X$1,22.5*
%
%ADD10C,0.0560*%
%ADD11R,0.0433X0.0394*%
%ADD12R,0.0472X0.0315*%
%ADD13R,0.0394X0.0433*%
%ADD14R,0.0260X0.0800*%
%ADD15R,0.0472X0.0217*%
%ADD16R,0.1102X0.0787*%
%ADD17R,0.1575X0.0276*%
%ADD18R,0.1575X0.0472*%
%ADD19R,0.1095X0.1095*%
%ADD20R,0.1560X0.1560*%
%ADD21R,0.0300X0.0600*%
%ADD22R,0.0800X0.0800*%
%ADD23C,0.0800*%
%ADD24OC8,0.0560*%
%ADD25C,0.0640*%
%ADD26R,0.0236X0.0866*%
%ADD27C,0.0740*%
%ADD28R,0.0630X0.0551*%
%ADD29R,0.0220X0.0500*%
%ADD30R,0.0500X0.0220*%
%ADD31C,0.1700*%
%ADD32R,0.0550X0.0137*%
%ADD33R,0.0315X0.0315*%
%ADD34R,0.0551X0.0394*%
%ADD35C,0.0283*%
%ADD36R,0.0480X0.0245*%
%ADD37C,0.0660*%
%ADD38C,0.1300*%
%ADD39R,0.0551X0.0630*%
%ADD40C,0.0080*%
%ADD41C,0.0400*%
D10*
X020596Y010255D03*
X020596Y012155D03*
D11*
X017931Y011830D03*
X017261Y011830D03*
X017261Y012580D03*
X017931Y012580D03*
X024096Y008415D03*
X024096Y007745D03*
X024096Y007165D03*
X024096Y006495D03*
X010721Y001915D03*
X010721Y001245D03*
D12*
X010721Y002601D03*
X010721Y003309D03*
D13*
X006221Y001540D03*
X005346Y001540D03*
X004471Y001540D03*
X003596Y001540D03*
X003596Y000870D03*
X004471Y000870D03*
X005346Y000870D03*
X006221Y000870D03*
X014886Y007080D03*
X015556Y007080D03*
X029471Y011495D03*
X029471Y012165D03*
X034636Y009580D03*
X035306Y009580D03*
X036136Y009705D03*
X036806Y009705D03*
X036806Y010455D03*
X036136Y010455D03*
X035721Y016370D03*
X035721Y017040D03*
D14*
X015846Y012915D03*
X015346Y012915D03*
X014846Y012915D03*
X014346Y012915D03*
X013846Y012915D03*
X013346Y012915D03*
X012846Y012915D03*
X012346Y012915D03*
X012346Y010495D03*
X012846Y010495D03*
X013346Y010495D03*
X013846Y010495D03*
X014346Y010495D03*
X014846Y010495D03*
X015346Y010495D03*
X015846Y010495D03*
D15*
X006483Y003204D03*
X005459Y003204D03*
X005459Y002830D03*
X005459Y002456D03*
X006483Y002456D03*
X004483Y002456D03*
X003459Y002456D03*
X003459Y002830D03*
X003459Y003204D03*
X004483Y003204D03*
D16*
X001513Y003529D03*
X009742Y004474D03*
X009702Y014552D03*
X001513Y014513D03*
D17*
X010450Y013883D03*
X010450Y013411D03*
X010450Y012899D03*
D18*
X010450Y012269D03*
X010450Y011285D03*
X010450Y010300D03*
X010450Y009316D03*
X010450Y008332D03*
X010450Y007348D03*
X010450Y006363D03*
X010450Y005379D03*
D19*
X027621Y015330D03*
X032821Y015330D03*
D20*
X030221Y015330D03*
D21*
X005346Y015080D03*
X003846Y015080D03*
X003846Y017080D03*
X005346Y017080D03*
D22*
X020596Y016080D03*
X024096Y001705D03*
X012661Y001705D03*
D23*
X014039Y001705D03*
X015417Y001705D03*
X016795Y001705D03*
X018173Y001705D03*
X019551Y001705D03*
X020929Y001705D03*
X022306Y001705D03*
X025474Y001705D03*
X026852Y001705D03*
X028230Y001705D03*
X029608Y001705D03*
X030986Y001705D03*
X032364Y001705D03*
X033742Y001705D03*
X019218Y016080D03*
X017840Y016080D03*
X016462Y016080D03*
D24*
X022471Y015955D03*
X022471Y014955D03*
X022471Y013955D03*
X022471Y012955D03*
X022471Y011955D03*
X026471Y011955D03*
X026471Y012955D03*
X026471Y013955D03*
X026471Y014955D03*
X026471Y015955D03*
X026471Y016955D03*
X022471Y016955D03*
D25*
X008596Y016455D03*
X007596Y016455D03*
X006596Y016455D03*
X006596Y015455D03*
X007596Y015455D03*
X008596Y015455D03*
D26*
X025096Y009266D03*
X025596Y009266D03*
X026096Y009266D03*
X026596Y009266D03*
X027096Y009266D03*
X027596Y009266D03*
X028096Y009266D03*
X028596Y009266D03*
X028596Y005644D03*
X028096Y005644D03*
X027596Y005644D03*
X027096Y005644D03*
X026596Y005644D03*
X026096Y005644D03*
X025596Y005644D03*
X025096Y005644D03*
D27*
X013096Y008080D03*
X012096Y008080D03*
D28*
X011036Y015231D03*
X014501Y015231D03*
X014501Y017002D03*
X011036Y017002D03*
D29*
X016994Y008770D03*
X017309Y008770D03*
X017624Y008770D03*
X017939Y008770D03*
X018254Y008770D03*
X018569Y008770D03*
X018883Y008770D03*
X019198Y008770D03*
X019198Y005390D03*
X018883Y005390D03*
X018569Y005390D03*
X018254Y005390D03*
X017939Y005390D03*
X017624Y005390D03*
X017309Y005390D03*
X016994Y005390D03*
D30*
X016406Y005978D03*
X016406Y006293D03*
X016406Y006608D03*
X016406Y006923D03*
X016406Y007237D03*
X016406Y007552D03*
X016406Y007867D03*
X016406Y008182D03*
X019786Y008182D03*
X019786Y007867D03*
X019786Y007552D03*
X019786Y007237D03*
X019786Y006923D03*
X019786Y006608D03*
X019786Y006293D03*
X019786Y005978D03*
D31*
X033657Y012905D03*
X036020Y012905D03*
X034838Y014755D03*
D32*
X033410Y009493D03*
X033410Y009237D03*
X033410Y008982D03*
X033410Y008726D03*
X033410Y008470D03*
X033410Y008214D03*
X033410Y007958D03*
X033410Y007702D03*
X033410Y007446D03*
X033410Y007190D03*
X033410Y006934D03*
X033410Y006678D03*
X033410Y006423D03*
X033410Y006167D03*
X030532Y006167D03*
X030532Y006423D03*
X030532Y006678D03*
X030532Y006934D03*
X030532Y007190D03*
X030532Y007446D03*
X030532Y007702D03*
X030532Y007958D03*
X030532Y008214D03*
X030532Y008470D03*
X030532Y008726D03*
X030532Y008982D03*
X030532Y009237D03*
X030532Y009493D03*
D33*
X038051Y009705D03*
X038641Y009705D03*
X038641Y010455D03*
X038051Y010455D03*
D34*
X032904Y010456D03*
X032038Y010830D03*
X032904Y011204D03*
X031038Y011706D03*
X031904Y012080D03*
X031038Y012454D03*
D35*
X034585Y010655D02*
X034585Y010505D01*
X034585Y010655D02*
X034657Y010655D01*
X034657Y010505D01*
X034585Y010505D01*
X035285Y010505D02*
X035285Y010655D01*
X035357Y010655D01*
X035357Y010505D01*
X035285Y010505D01*
D36*
X034862Y016331D03*
X034862Y016705D03*
X034862Y017079D03*
X033830Y017079D03*
X033830Y016705D03*
X033830Y016331D03*
D37*
X034941Y006572D03*
X035721Y006572D03*
X035721Y005588D03*
X034941Y005588D03*
D38*
X036791Y003710D03*
X036791Y008450D03*
D39*
X028272Y010705D03*
X027170Y010705D03*
D40*
X027336Y010825D01*
X028356Y009805D01*
X028356Y006925D01*
X028116Y006925D01*
X027096Y005905D01*
X027096Y005665D01*
X027096Y005644D01*
X027096Y005665D02*
X026616Y005665D01*
X026596Y005644D01*
X026556Y005665D01*
X026136Y005665D01*
X026096Y005644D01*
X026076Y005665D01*
X025596Y005665D01*
X025596Y005644D01*
X025596Y005665D02*
X025416Y005665D01*
X025416Y001705D01*
X025474Y001705D01*
X026016Y001885D02*
X026016Y001465D01*
X025716Y001165D01*
X025236Y001165D01*
X024636Y001765D01*
X024636Y005905D01*
X024096Y006445D01*
X024096Y006495D01*
X024096Y006505D01*
X020136Y006505D01*
X020076Y006565D01*
X019836Y006565D01*
X019786Y006608D01*
X019836Y006865D02*
X019786Y006923D01*
X019836Y006865D02*
X020556Y006865D01*
X020736Y006685D01*
X023436Y006685D01*
X023616Y006865D01*
X024096Y007165D02*
X024096Y007165D01*
X023856Y007405D01*
X023796Y007405D01*
X023736Y007465D01*
X023736Y008005D01*
X022596Y009145D01*
X018336Y009145D01*
X018216Y009025D01*
X018216Y008785D01*
X018254Y008770D01*
X018216Y009025D02*
X018096Y009145D01*
X017736Y009145D01*
X017676Y009085D01*
X017676Y008785D01*
X017624Y008770D01*
X017939Y008770D02*
X017976Y008725D01*
X017976Y008485D01*
X018096Y008365D01*
X017556Y007825D01*
X017016Y008365D01*
X016836Y008365D01*
X015876Y009325D01*
X015876Y010465D01*
X015846Y010495D01*
X015876Y010525D01*
X015876Y012385D01*
X015156Y012385D01*
X014856Y012685D01*
X014846Y012915D01*
X014856Y012865D01*
X014856Y012685D01*
X014556Y012385D01*
X013056Y012385D01*
X011976Y011305D01*
X010476Y011305D01*
X010450Y011285D01*
X010416Y011245D01*
X010176Y011245D01*
X009516Y010585D01*
X009516Y009025D01*
X010176Y008365D01*
X010416Y008365D01*
X010450Y008332D01*
X010476Y008305D01*
X010656Y008125D01*
X012096Y008125D01*
X012096Y008080D01*
X011436Y007585D02*
X011136Y007885D01*
X009456Y007885D01*
X009096Y007465D02*
X009096Y011125D01*
X010056Y012085D01*
X010450Y012269D01*
X010416Y012265D01*
X010236Y012265D01*
X010056Y012085D01*
X008856Y013285D01*
X008856Y014845D01*
X009036Y015025D01*
X009036Y015685D01*
X008796Y015925D01*
X007416Y015925D01*
X006996Y015505D01*
X006636Y015505D01*
X006596Y015455D01*
X006396Y015025D02*
X006456Y014965D01*
X008076Y014965D01*
X008076Y007525D01*
X009816Y005785D01*
X011436Y005785D01*
X011796Y005425D01*
X011616Y005065D02*
X015876Y005065D01*
X014796Y005425D02*
X014376Y005845D01*
X014376Y007165D01*
X013776Y007765D01*
X013476Y007765D01*
X013296Y007585D01*
X011436Y007585D01*
X011316Y006985D02*
X009576Y006985D01*
X009096Y007465D01*
X010450Y007348D02*
X010476Y007405D01*
X013656Y007405D01*
X013716Y008065D02*
X014676Y007105D01*
X014856Y007105D01*
X014886Y007080D01*
X015216Y007465D02*
X015816Y007465D01*
X015996Y007285D01*
X016356Y007285D01*
X016406Y007237D01*
X016176Y006925D02*
X016056Y007045D01*
X015576Y007045D01*
X015556Y007080D01*
X016176Y006925D02*
X016356Y006925D01*
X016406Y006923D01*
X016406Y006608D02*
X016356Y006565D01*
X015876Y006565D01*
X016056Y006265D02*
X015996Y006205D01*
X015756Y006205D01*
X015396Y006565D01*
X016056Y006265D02*
X016356Y006265D01*
X016406Y006293D01*
X016356Y006025D02*
X016406Y005978D01*
X016356Y006025D02*
X014736Y006025D01*
X014796Y005425D02*
X016956Y005425D01*
X016994Y005390D01*
X017256Y005365D02*
X017309Y005390D01*
X017256Y005365D02*
X017256Y005065D01*
X015876Y003685D01*
X011136Y003685D01*
X010776Y003325D01*
X010721Y003309D01*
X010716Y003325D01*
X010116Y003325D01*
X008796Y002005D01*
X006096Y002005D01*
X005676Y001585D01*
X005376Y001585D01*
X005346Y001540D01*
X005016Y001225D02*
X005016Y002185D01*
X005076Y002245D01*
X005076Y002605D01*
X005256Y002785D01*
X005436Y002785D01*
X005459Y002830D01*
X005496Y002845D01*
X006696Y002845D01*
X008316Y004465D01*
X003336Y009445D01*
X003336Y014545D01*
X003816Y015025D01*
X003846Y015080D01*
X003876Y015085D01*
X003876Y016945D01*
X003846Y017080D01*
X003876Y017065D01*
X003876Y016945D01*
X004896Y016945D01*
X005346Y017080D02*
X005376Y017065D01*
X005376Y015085D01*
X005346Y015080D01*
X005376Y015025D01*
X006396Y015025D01*
X008076Y014965D02*
X008556Y015445D01*
X008596Y015455D01*
X008596Y016455D02*
X008616Y016465D01*
X009096Y016945D01*
X011016Y016945D01*
X011036Y017002D01*
X011076Y017005D01*
X011256Y017185D01*
X012516Y017185D01*
X012696Y017005D01*
X013356Y017005D01*
X013356Y012925D01*
X013346Y012915D01*
X013296Y012865D01*
X013296Y012625D01*
X013056Y012385D01*
X015096Y012025D02*
X015096Y009745D01*
X015216Y009625D01*
X015216Y008785D01*
X016116Y007885D01*
X016356Y007885D01*
X016406Y007867D01*
X016416Y008125D02*
X016406Y008182D01*
X016416Y008125D02*
X016716Y008125D01*
X016956Y007885D01*
X017496Y007765D02*
X017556Y007825D01*
X017496Y007765D02*
X017496Y007405D01*
X018216Y006685D01*
X018216Y005425D01*
X018254Y005390D01*
X017976Y005425D02*
X017939Y005390D01*
X017916Y005365D01*
X017916Y003325D01*
X019536Y001705D01*
X019551Y001705D01*
X020076Y001465D02*
X019776Y001165D01*
X015996Y001165D01*
X015456Y001705D01*
X015417Y001705D01*
X015396Y000985D02*
X014676Y001705D01*
X014676Y003145D01*
X014496Y003505D02*
X012696Y001705D01*
X012661Y001705D01*
X012576Y000805D02*
X011496Y001885D01*
X010776Y001885D01*
X010721Y001915D01*
X010716Y001945D01*
X010716Y002485D01*
X010721Y002601D01*
X010716Y002545D01*
X010716Y002485D01*
X010236Y002965D01*
X008736Y002185D02*
X011616Y005065D01*
X011796Y006025D02*
X010776Y006025D01*
X010476Y006325D01*
X010450Y006363D01*
X011316Y006985D02*
X012276Y006025D01*
X009742Y004474D02*
X009696Y004465D01*
X008316Y004465D01*
X006336Y004165D02*
X003516Y004165D01*
X003516Y003805D02*
X006096Y003805D01*
X006456Y003445D01*
X006456Y003205D01*
X006483Y003204D01*
X005976Y003445D02*
X005736Y003205D01*
X005496Y003205D01*
X005459Y003204D01*
X005436Y003205D01*
X005196Y003445D01*
X004176Y003445D01*
X003936Y003205D01*
X003516Y003205D01*
X003459Y003204D01*
X003096Y003385D02*
X003516Y003805D01*
X003096Y003385D02*
X003096Y001405D01*
X003576Y000925D01*
X003596Y000870D01*
X004116Y000625D02*
X004236Y000505D01*
X004956Y000505D01*
X005316Y000865D01*
X005346Y000870D01*
X005316Y000925D01*
X005016Y001225D01*
X004836Y001285D02*
X004836Y002065D01*
X004656Y002065D01*
X004836Y002065D02*
X004836Y002245D01*
X004896Y002305D01*
X004896Y002785D01*
X004536Y003145D01*
X004483Y003204D01*
X003876Y002605D02*
X003696Y002785D01*
X003516Y002785D01*
X003459Y002830D01*
X003876Y002605D02*
X003876Y001525D01*
X003636Y001525D01*
X003596Y001540D01*
X003876Y001525D02*
X004116Y001525D01*
X004116Y000625D01*
X004471Y000870D02*
X004476Y000925D01*
X004836Y001285D01*
X004471Y001540D02*
X004416Y001525D01*
X004116Y001525D01*
X003516Y002065D02*
X003516Y002425D01*
X003459Y002456D01*
X005459Y002456D02*
X005496Y002425D01*
X005976Y002425D01*
X006216Y002185D01*
X008736Y002185D01*
X010476Y001525D02*
X011256Y001525D01*
X010716Y001285D02*
X010721Y001245D01*
X010716Y001285D02*
X010476Y001525D01*
X006276Y001525D01*
X006221Y001540D01*
X006221Y000870D02*
X006276Y000865D01*
X012276Y000865D01*
X012636Y000505D01*
X030576Y000505D01*
X032616Y001165D02*
X026256Y001165D01*
X025896Y000805D01*
X012576Y000805D01*
X015396Y000985D02*
X025776Y000985D01*
X026316Y001525D01*
X026316Y001945D01*
X026616Y002245D01*
X030396Y002245D01*
X030936Y001705D01*
X030986Y001705D01*
X032364Y001705D02*
X032376Y001705D01*
X032376Y002605D01*
X028236Y002605D01*
X026852Y001705D02*
X026796Y001705D01*
X026256Y001165D01*
X026016Y001885D02*
X028056Y003925D01*
X028056Y005605D01*
X028096Y005644D01*
X027596Y005644D02*
X027576Y005605D01*
X027576Y004885D01*
X028596Y005644D02*
X028596Y005905D01*
X028296Y006205D01*
X028236Y006205D01*
X028056Y006385D01*
X027096Y006385D02*
X027096Y008425D01*
X027516Y008425D01*
X028056Y008965D01*
X028056Y009265D01*
X028096Y009266D01*
X027596Y009266D02*
X027576Y009325D01*
X027576Y009565D01*
X027156Y009985D01*
X026616Y010165D02*
X027156Y010705D01*
X027170Y010705D01*
X027216Y010705D01*
X027336Y010825D01*
X027996Y011485D01*
X027936Y011485D01*
X026496Y012925D01*
X026471Y012955D01*
X026496Y012985D01*
X026496Y013945D01*
X026471Y013955D01*
X026496Y014005D01*
X026496Y014905D01*
X026471Y014955D01*
X026496Y014965D01*
X026496Y015925D01*
X026471Y015955D01*
X026496Y015985D01*
X026496Y016945D01*
X026471Y016955D01*
X022471Y015955D02*
X022416Y015985D01*
X020676Y015985D01*
X020616Y016045D01*
X020596Y016080D01*
X019218Y016080D02*
X019176Y016045D01*
X018636Y015505D01*
X017676Y015505D01*
X017136Y016045D01*
X016476Y016045D01*
X016462Y016080D01*
X014556Y015205D02*
X014501Y015231D01*
X014556Y015205D02*
X019596Y015205D01*
X022416Y012385D01*
X023436Y012385D01*
X022471Y011955D02*
X022476Y011905D01*
X022656Y011725D01*
X020436Y011725D01*
X020376Y011785D01*
X017976Y011785D01*
X017931Y011830D01*
X017916Y011845D01*
X017916Y012565D01*
X017931Y012580D01*
X017916Y012625D01*
X017616Y012925D01*
X015876Y012925D01*
X015846Y012915D01*
X015876Y012865D01*
X015876Y012385D01*
X016776Y012205D02*
X016896Y012085D01*
X016896Y008845D01*
X016956Y008785D01*
X016994Y008770D01*
X017256Y008785D02*
X017309Y008770D01*
X017256Y008785D02*
X017256Y010285D01*
X020556Y010285D01*
X020596Y010255D01*
X020796Y008905D02*
X021516Y008905D01*
X021816Y008605D01*
X021816Y007045D01*
X021396Y007105D02*
X021336Y007045D01*
X021396Y007105D02*
X021396Y008545D01*
X020916Y008545D02*
X020916Y007105D01*
X020856Y007045D01*
X020496Y007405D02*
X020076Y007825D01*
X019836Y007825D01*
X019786Y007867D01*
X019786Y008182D02*
X019836Y008185D01*
X020556Y008185D01*
X019776Y007585D02*
X019236Y007585D01*
X019776Y007585D02*
X019786Y007552D01*
X019786Y007237D02*
X019776Y007225D01*
X019236Y007225D01*
X018936Y006925D01*
X019786Y006293D02*
X019836Y006265D01*
X020376Y006265D01*
X020916Y005725D01*
X021336Y006145D01*
X020916Y005725D02*
X020916Y001705D01*
X020929Y001705D01*
X020076Y001465D02*
X020076Y001945D01*
X019236Y002785D01*
X019236Y005185D01*
X019198Y005390D01*
X019236Y005365D01*
X019236Y005185D01*
X019596Y005545D01*
X019956Y005845D02*
X019836Y005965D01*
X019786Y005978D01*
X019776Y005965D01*
X019236Y005965D01*
X019956Y005845D02*
X020316Y005845D01*
X018883Y005390D02*
X018876Y005365D01*
X018876Y004825D01*
X018569Y005390D02*
X018576Y005425D01*
X018576Y007765D01*
X017856Y007525D02*
X018876Y008545D01*
X018876Y008725D01*
X018883Y008770D01*
X018569Y008770D02*
X018516Y008725D01*
X018516Y008485D01*
X018396Y008365D01*
X018096Y008365D01*
X019198Y008770D02*
X019236Y008785D01*
X020676Y008785D01*
X020796Y008905D01*
X023736Y008005D02*
X024096Y008365D01*
X024096Y008415D01*
X024096Y008425D01*
X027096Y008425D01*
X026736Y007705D02*
X024096Y007705D01*
X024096Y007745D01*
X025096Y009266D02*
X025056Y009325D01*
X022656Y011725D01*
X020596Y012155D02*
X020556Y012205D01*
X018936Y012205D01*
X017856Y013285D01*
X017261Y012580D02*
X017256Y012565D01*
X017256Y012445D01*
X016896Y012085D01*
X017261Y011830D02*
X017256Y011785D01*
X017256Y010285D01*
X015516Y010345D02*
X015516Y009805D01*
X015516Y010345D02*
X015396Y010465D01*
X015346Y010495D01*
X014856Y010465D02*
X014846Y010495D01*
X014856Y010465D02*
X014856Y009085D01*
X014736Y008485D02*
X013896Y009325D01*
X013896Y010465D01*
X013846Y010495D01*
X013346Y010495D02*
X013296Y010465D01*
X013296Y009805D01*
X013476Y009205D02*
X015216Y007465D01*
X016406Y007552D02*
X016416Y007525D01*
X016776Y007525D01*
X016956Y007345D01*
X017316Y006985D02*
X017316Y006865D01*
X017976Y006205D01*
X017976Y005425D01*
X017624Y005390D02*
X017616Y005425D01*
X017616Y006085D01*
X017496Y004825D02*
X017256Y004825D01*
X015936Y003505D01*
X014496Y003505D01*
X016836Y001705D02*
X017916Y002785D01*
X017916Y003325D01*
X016836Y001705D02*
X016795Y001705D01*
X025096Y005644D02*
X025116Y005665D01*
X025416Y005665D01*
X028356Y006925D02*
X030516Y006925D01*
X030532Y006934D01*
X030576Y006925D01*
X031836Y006925D01*
X030816Y007945D01*
X030576Y007945D01*
X030532Y007958D01*
X030516Y008425D02*
X030532Y008470D01*
X030516Y008425D02*
X030216Y008425D01*
X029076Y007285D01*
X030816Y008725D02*
X032016Y007525D01*
X032016Y010825D01*
X032038Y010830D01*
X032904Y010456D02*
X032916Y010465D01*
X033396Y010945D01*
X034416Y010945D01*
X034416Y011065D01*
X034416Y010945D02*
X034776Y010945D01*
X034956Y010765D01*
X034956Y010285D01*
X034656Y009985D01*
X034656Y009625D01*
X034636Y009580D01*
X034596Y010165D02*
X033816Y009385D01*
X033816Y009085D01*
X033816Y008485D01*
X034536Y007765D01*
X033756Y006985D01*
X033456Y006985D01*
X033410Y006934D01*
X033396Y006925D01*
X032376Y006925D01*
X032376Y002605D01*
X033156Y001705D02*
X032616Y001165D01*
X033156Y001705D02*
X033742Y001705D01*
X034716Y005125D02*
X035256Y005125D01*
X035676Y005545D01*
X035721Y005588D01*
X034941Y005588D02*
X034896Y005605D01*
X034116Y006385D01*
X033456Y006385D01*
X033410Y006423D01*
X033410Y006167D02*
X033456Y006145D01*
X033696Y006145D01*
X034716Y005125D01*
X035436Y006085D02*
X034956Y006565D01*
X034941Y006572D01*
X035436Y006085D02*
X035916Y006085D01*
X036216Y006385D01*
X036216Y006745D01*
X035976Y006985D01*
X035976Y008725D01*
X036096Y008845D01*
X036096Y009685D01*
X036136Y009705D01*
X036156Y009745D01*
X036156Y010405D01*
X036136Y010455D01*
X036806Y010455D02*
X036816Y010465D01*
X038016Y010465D01*
X038051Y010455D01*
X038256Y010825D02*
X038616Y010465D01*
X038641Y010455D01*
X038256Y010825D02*
X037296Y010825D01*
X037176Y012385D02*
X035376Y010585D01*
X035321Y010580D01*
X035316Y010585D01*
X035316Y010705D01*
X033396Y012625D01*
X033657Y012905D01*
X033636Y012865D01*
X033396Y012625D01*
X032916Y012145D01*
X032916Y011725D01*
X031056Y011725D01*
X031038Y011706D01*
X031904Y012080D02*
X031956Y012085D01*
X031956Y012625D01*
X033216Y013885D01*
X034056Y013885D01*
X034656Y013285D01*
X034656Y012865D01*
X035616Y011905D01*
X036396Y011905D01*
X036996Y012505D01*
X036996Y014005D01*
X034896Y016105D01*
X034896Y016285D01*
X034862Y016331D01*
X034656Y016705D02*
X034476Y016525D01*
X034476Y016045D01*
X030936Y016045D01*
X030221Y015330D01*
X030216Y015325D01*
X030216Y012925D01*
X029496Y012205D01*
X029471Y012165D01*
X029436Y012145D01*
X028656Y012145D01*
X027996Y011485D01*
X028296Y010705D02*
X029076Y011485D01*
X029436Y011485D01*
X029471Y011495D01*
X028296Y010705D02*
X028272Y010705D01*
X028236Y010705D01*
X030156Y008785D01*
X030516Y008785D01*
X030532Y008726D01*
X030576Y008725D01*
X030816Y008725D01*
X030876Y009205D02*
X031536Y008545D01*
X032796Y008545D02*
X033096Y008245D01*
X033396Y008245D01*
X033410Y008214D01*
X033096Y008005D02*
X033036Y008065D01*
X032796Y008065D01*
X033096Y008005D02*
X033396Y008005D01*
X033410Y007958D01*
X033410Y007702D02*
X033456Y007705D01*
X033696Y007705D01*
X033816Y007825D01*
X033816Y008485D01*
X033456Y008725D02*
X033410Y008726D01*
X033456Y008725D02*
X033576Y008845D01*
X033456Y008965D01*
X033410Y008982D01*
X033576Y008845D02*
X033816Y009085D01*
X035306Y009580D02*
X035316Y009625D01*
X035316Y010525D01*
X035321Y010580D01*
X034621Y010580D02*
X034596Y010525D01*
X034596Y010165D01*
X032904Y011204D02*
X032916Y011245D01*
X032916Y011725D01*
X031038Y012454D02*
X031056Y012505D01*
X031296Y012745D01*
X031296Y015085D01*
X033830Y016331D02*
X033876Y016345D01*
X034056Y016345D01*
X034236Y016525D01*
X034236Y017005D01*
X034656Y017425D01*
X035976Y017425D01*
X036096Y017305D01*
X036096Y016765D01*
X035736Y016405D01*
X035721Y016370D01*
X035736Y016345D01*
X035736Y015505D01*
X037176Y014065D01*
X037176Y012385D01*
X036020Y012905D02*
X035976Y012925D01*
X035976Y013645D01*
X034896Y014725D01*
X034838Y014755D01*
X034836Y014785D01*
X034476Y015145D01*
X034476Y016045D01*
X034656Y016705D02*
X034862Y016705D01*
X034896Y016705D01*
X034896Y017065D01*
X034862Y017079D01*
X034896Y017065D02*
X035676Y017065D01*
X035721Y017040D01*
X033830Y017079D02*
X033816Y017065D01*
X033276Y017065D01*
X032916Y016705D02*
X033830Y016705D01*
X026616Y010165D02*
X026616Y009325D01*
X026596Y009266D01*
X026556Y009265D01*
X026136Y009265D01*
X026096Y009266D01*
X026076Y009265D01*
X025596Y009265D01*
X025596Y009266D01*
X025596Y009265D02*
X025116Y009265D01*
X025096Y009266D01*
X030156Y009865D02*
X030516Y009505D01*
X030532Y009493D01*
X030532Y009237D02*
X030576Y009205D01*
X030876Y009205D01*
X032016Y007525D02*
X032076Y007465D01*
X032796Y007465D01*
X033396Y007465D01*
X033410Y007446D01*
X032376Y006925D02*
X031836Y006925D01*
X034536Y007765D02*
X035676Y006625D01*
X035721Y006572D01*
X038196Y009265D02*
X038616Y009685D01*
X038641Y009705D01*
X038051Y009705D02*
X038016Y009745D01*
X036816Y009745D01*
X036806Y009705D01*
X014496Y009805D02*
X014496Y010345D01*
X014346Y010495D01*
X012846Y010495D02*
X012816Y010525D01*
X012816Y010765D01*
X012516Y011065D01*
X011436Y011065D01*
X010716Y010345D01*
X010476Y010345D01*
X010450Y010300D01*
X010836Y009445D02*
X011856Y010465D01*
X012336Y010465D01*
X012346Y010495D01*
X010836Y009445D02*
X010450Y009316D01*
X010476Y009325D01*
X010716Y009325D01*
X010836Y009445D01*
X011436Y008845D01*
X013096Y008080D02*
X013116Y008065D01*
X013716Y008065D01*
X003336Y014545D02*
X001536Y014545D01*
X001513Y014513D01*
X011036Y015231D02*
X011076Y015205D01*
X011556Y014725D01*
X013356Y017005D02*
X014496Y017005D01*
X014501Y017002D01*
D41*
X003096Y001405D03*
X003516Y002065D03*
X004656Y002065D03*
X005976Y003445D03*
X006336Y004165D03*
X003516Y004165D03*
X010236Y002965D03*
X011256Y001525D03*
X014676Y003145D03*
X017496Y004825D03*
X018876Y004825D03*
X019596Y005545D03*
X020316Y005845D03*
X019236Y005965D03*
X017616Y006085D03*
X018936Y006925D03*
X019236Y007585D03*
X018576Y007765D03*
X017856Y007525D03*
X016956Y007345D03*
X017316Y006985D03*
X015876Y006565D03*
X015396Y006565D03*
X014736Y006025D03*
X015876Y005065D03*
X012276Y006025D03*
X011796Y006025D03*
X011796Y005425D03*
X013656Y007405D03*
X014736Y008485D03*
X014856Y009085D03*
X013476Y009205D03*
X013296Y009805D03*
X014496Y009805D03*
X015516Y009805D03*
X016956Y007885D03*
X020496Y007405D03*
X020856Y007045D03*
X021336Y007045D03*
X021816Y007045D03*
X023616Y006865D03*
X021336Y006145D03*
X020556Y008185D03*
X020916Y008545D03*
X021396Y008545D03*
X026736Y007705D03*
X029076Y007285D03*
X028056Y006385D03*
X027096Y006385D03*
X027576Y004885D03*
X028236Y002605D03*
X030576Y000505D03*
X032796Y007465D03*
X032796Y008065D03*
X032796Y008545D03*
X031536Y008545D03*
X030156Y009865D03*
X027156Y009985D03*
X023436Y012385D03*
X017856Y013285D03*
X016776Y012205D03*
X015096Y012025D03*
X011556Y014725D03*
X004896Y016945D03*
X011436Y008845D03*
X009456Y007885D03*
X031296Y015085D03*
X032916Y016705D03*
X033276Y017065D03*
X034416Y011065D03*
X037296Y010825D03*
X038196Y009265D03*
M02*
