G75*
%MOIN*%
%OFA0B0*%
%FSLAX24Y24*%
%IPPOS*%
%LPD*%
%AMOC8*
5,1,8,0,0,1.08239X$1,22.5*
%
%ADD10C,0.0560*%
%ADD11R,0.1095X0.1095*%
%ADD12OC8,0.0560*%
%ADD13C,0.0640*%
%ADD14C,0.0740*%
%ADD15C,0.1700*%
%ADD16C,0.0660*%
%ADD17C,0.1300*%
%ADD18R,0.0800X0.0800*%
%ADD19C,0.0800*%
%ADD20C,0.0080*%
%ADD21C,0.0320*%
%ADD22C,0.0160*%
%ADD23OC8,0.0320*%
D10*
X021980Y012030D03*
X023880Y012030D03*
X038630Y011324D03*
X038630Y010536D03*
D11*
X036030Y015430D03*
X030830Y015430D03*
D12*
X017430Y009030D03*
X016430Y009030D03*
X015430Y009030D03*
X014430Y009030D03*
X013430Y009030D03*
X012430Y009030D03*
X012430Y005030D03*
X013430Y005030D03*
X014430Y005030D03*
X015430Y005030D03*
X016430Y005030D03*
X017430Y005030D03*
D13*
X009680Y016030D03*
X008680Y016030D03*
X007680Y016030D03*
X007680Y017030D03*
X008680Y017030D03*
X009680Y017030D03*
D14*
X011630Y016980D03*
X011630Y015980D03*
X006360Y015190D03*
X003800Y015190D03*
X003800Y016970D03*
X006360Y016970D03*
X005810Y003570D03*
X003250Y003570D03*
X003250Y001790D03*
X005810Y001790D03*
D15*
X034781Y010505D03*
X037143Y010505D03*
X035962Y012355D03*
D16*
X035680Y005922D03*
X034900Y005922D03*
X034900Y004938D03*
X035680Y004938D03*
D17*
X036750Y003060D03*
X036750Y007800D03*
D18*
X021010Y001930D03*
X007230Y001930D03*
X014030Y016380D03*
D19*
X015408Y016380D03*
X016786Y016380D03*
X018164Y016380D03*
X019542Y016380D03*
X020920Y016380D03*
X022298Y016380D03*
X023676Y016380D03*
X025054Y016380D03*
X026432Y016380D03*
X026521Y001930D03*
X027899Y001930D03*
X029277Y001930D03*
X030655Y001930D03*
X032033Y001930D03*
X033411Y001930D03*
X025143Y001930D03*
X023765Y001930D03*
X022387Y001930D03*
X019632Y001930D03*
X018254Y001930D03*
X016876Y001930D03*
X015498Y001930D03*
X014120Y001930D03*
X012742Y001930D03*
X011364Y001930D03*
X009986Y001930D03*
X008608Y001930D03*
D20*
X012742Y001930D02*
X012780Y001930D01*
X012830Y001980D01*
X012830Y005030D01*
X013930Y006130D01*
X017030Y006130D01*
X017680Y006780D01*
X017680Y007130D01*
X017980Y007430D01*
X017980Y008730D01*
X017430Y009030D02*
X018680Y009030D01*
X019530Y008180D01*
X019530Y006480D01*
X022380Y003630D01*
X022380Y001930D01*
X022387Y001930D01*
X023765Y001930D02*
X023780Y001930D01*
X023780Y002080D01*
X025730Y004030D01*
X025730Y006380D01*
X025930Y006130D02*
X025930Y003830D01*
X025580Y003480D01*
X025430Y004330D02*
X025180Y004580D01*
X025180Y006580D01*
X026130Y007530D01*
X026130Y008230D01*
X025780Y008580D01*
X025780Y008780D01*
X026630Y009630D01*
X026980Y009630D01*
X027330Y009980D01*
X027330Y010880D01*
X027330Y011330D01*
X027580Y011580D01*
X027580Y012580D01*
X026530Y013630D01*
X028630Y013430D02*
X025580Y016480D01*
X025580Y016630D01*
X025280Y016930D01*
X024830Y016930D01*
X024230Y016330D01*
X024230Y013680D01*
X025880Y012380D02*
X027030Y012380D01*
X027030Y011780D02*
X026105Y010855D01*
X025730Y011230D01*
X025730Y011180D01*
X025680Y011230D01*
X025530Y011230D01*
X022880Y008580D01*
X023280Y008580D02*
X022380Y007680D01*
X021980Y007680D01*
X021580Y007680D02*
X021080Y007680D01*
X020230Y006830D01*
X021130Y007030D02*
X021130Y006480D01*
X020630Y005980D01*
X020630Y005780D01*
X022280Y004130D01*
X020680Y004130D02*
X019080Y005730D01*
X019230Y006280D02*
X018130Y005180D01*
X018130Y004780D01*
X017680Y004330D01*
X014180Y004330D01*
X013480Y005030D01*
X013430Y005030D01*
X014430Y005030D02*
X014480Y005030D01*
X015380Y005930D01*
X017280Y005930D01*
X018830Y007480D01*
X018830Y007880D02*
X018230Y007280D01*
X018830Y006980D02*
X017580Y005730D01*
X016180Y005730D01*
X015480Y005030D01*
X015430Y005030D01*
X018230Y003330D02*
X019630Y001930D01*
X019632Y001930D01*
X023130Y000880D02*
X023130Y004980D01*
X023880Y005730D01*
X023880Y006330D01*
X025580Y008030D01*
X025080Y007930D02*
X024780Y007630D01*
X024480Y007330D02*
X023030Y005880D01*
X020930Y005880D01*
X021780Y007030D02*
X022280Y006430D01*
X023280Y005880D02*
X022530Y005130D01*
X022280Y005130D01*
X023280Y005880D02*
X023580Y005880D01*
X024430Y006480D02*
X025580Y007630D01*
X025080Y007930D02*
X025080Y008130D01*
X026530Y008630D02*
X026530Y006730D01*
X025930Y006130D01*
X026330Y006080D02*
X026830Y006580D01*
X028030Y006580D01*
X028230Y006380D01*
X028230Y006180D01*
X028080Y006030D01*
X028080Y005880D01*
X027930Y006280D02*
X027530Y006280D01*
X026380Y005130D01*
X028230Y004930D02*
X028230Y004730D01*
X025680Y002180D01*
X025680Y001730D01*
X024930Y000980D01*
X023430Y000980D01*
X023130Y000880D02*
X023330Y000680D01*
X024880Y000680D01*
X026130Y001930D01*
X026521Y001930D01*
X025580Y002680D02*
X025180Y002280D01*
X025180Y001930D01*
X025143Y001930D01*
X030630Y001930D02*
X030655Y001930D01*
X030630Y001930D02*
X030630Y004230D01*
X027130Y007730D01*
X027130Y008580D01*
X026780Y010180D02*
X026105Y010855D01*
X026130Y010130D02*
X023380Y007380D01*
X021480Y007380D01*
X021580Y007680D02*
X023830Y009980D01*
X023830Y010180D01*
X025530Y011880D01*
X025530Y012030D01*
X025880Y012380D01*
X028330Y012030D02*
X028330Y007230D01*
X030280Y005280D01*
X030230Y006130D02*
X029880Y006130D01*
X029880Y006080D01*
X029080Y006880D01*
X030230Y006130D02*
X031880Y007780D01*
X032180Y007880D02*
X031530Y008530D01*
X031430Y008530D01*
X031930Y008830D02*
X032380Y008380D01*
X032180Y007880D02*
X032180Y006130D01*
X034930Y003380D01*
X034630Y004080D02*
X034030Y004680D01*
X034880Y005930D02*
X034900Y005922D01*
X034880Y005930D02*
X034780Y006030D01*
X034780Y007130D01*
X032930Y011630D02*
X032930Y012680D01*
X034980Y013330D02*
X035630Y013980D01*
X028630Y013430D02*
X028630Y012530D01*
X021980Y012030D02*
X021980Y011980D01*
X021580Y011580D01*
X021580Y010130D01*
X021230Y010380D02*
X020580Y011030D01*
X020280Y011130D02*
X020280Y010730D01*
X021930Y009080D01*
X021930Y008480D01*
X021530Y008080D01*
X020480Y007480D02*
X020330Y007330D01*
X020480Y007480D02*
X018280Y009680D01*
X017380Y009680D01*
X017330Y009730D01*
X013480Y009730D01*
X009980Y013230D01*
X009730Y013230D01*
X010730Y013980D02*
X013730Y013980D01*
X012980Y015130D02*
X014930Y013180D01*
X019080Y013180D01*
X019830Y012430D01*
X019830Y011380D01*
X020280Y011130D02*
X020580Y011430D01*
X019230Y011380D02*
X019080Y011530D01*
X011930Y011530D01*
X011730Y011730D01*
X011730Y011930D01*
X012030Y012230D01*
X012030Y011830D02*
X018130Y011830D01*
X019080Y012780D01*
X018880Y013480D02*
X016780Y015580D01*
X016280Y015580D01*
X015480Y016380D01*
X015408Y016380D01*
X016786Y016380D02*
X016880Y016380D01*
X018580Y014680D01*
X017430Y011230D02*
X017180Y011230D01*
X017430Y011230D02*
X018280Y010380D01*
X018130Y010080D02*
X017880Y010330D01*
X017880Y010380D01*
X017480Y009980D01*
X018130Y010080D02*
X020530Y010080D01*
X021630Y008980D01*
X019230Y008080D02*
X019230Y006280D01*
X017380Y006880D02*
X016080Y008180D01*
X016080Y008630D01*
X016430Y008980D01*
X016430Y009030D01*
X017430Y009030D02*
X017430Y008180D01*
X010730Y013980D02*
X008680Y016030D01*
X034280Y002630D02*
X035530Y001380D01*
X035630Y001780D02*
X036380Y001030D01*
X035630Y001780D02*
X035630Y002080D01*
X033411Y001930D02*
X033380Y001930D01*
X033380Y001780D01*
X032480Y000880D01*
D21*
X032480Y000880D03*
X035530Y001380D03*
X036380Y001030D03*
X035630Y002080D03*
X034280Y002630D03*
X034930Y003380D03*
X034630Y004080D03*
X034030Y004680D03*
X030280Y005280D03*
X029880Y006080D03*
X029080Y006880D03*
X027930Y006280D03*
X028080Y005880D03*
X026330Y006080D03*
X025730Y006380D03*
X026530Y006730D03*
X025580Y007630D03*
X024780Y007630D03*
X024480Y007330D03*
X025080Y008130D03*
X025580Y008030D03*
X026530Y008630D03*
X027130Y008580D03*
X026780Y010180D03*
X026130Y010130D03*
X027330Y010880D03*
X025730Y011230D03*
X027030Y011780D03*
X027030Y012380D03*
X028330Y012030D03*
X028630Y012530D03*
X026530Y013630D03*
X024230Y013680D03*
X020580Y011430D03*
X020580Y011030D03*
X019830Y011380D03*
X019230Y011380D03*
X017180Y011230D03*
X017880Y010380D03*
X018280Y010380D03*
X017480Y009980D03*
X017980Y008730D03*
X017430Y008180D03*
X016080Y008180D03*
X018230Y007280D03*
X018830Y007480D03*
X018830Y007880D03*
X019230Y008080D03*
X020330Y007330D03*
X021130Y007030D03*
X021480Y007380D03*
X021780Y007030D03*
X022280Y006430D03*
X023580Y005880D03*
X024430Y006480D03*
X026380Y005130D03*
X025430Y004330D03*
X025580Y003480D03*
X025580Y002680D03*
X022280Y004130D03*
X020680Y004130D03*
X022280Y005130D03*
X023130Y004980D03*
X020930Y005880D03*
X020230Y006830D03*
X018830Y006980D03*
X017380Y006880D03*
X019080Y005730D03*
X021980Y007680D03*
X021530Y008080D03*
X022880Y008580D03*
X023280Y008580D03*
X021630Y008980D03*
X023830Y009980D03*
X021580Y010130D03*
X021230Y010380D03*
X019080Y012780D03*
X018880Y013480D03*
X018580Y014680D03*
X013730Y013980D03*
X012980Y015130D03*
X009730Y013230D03*
X012030Y012230D03*
X012030Y011830D03*
X028230Y004930D03*
X031880Y007780D03*
X032380Y008380D03*
X031430Y008530D03*
X031930Y008830D03*
X034780Y007130D03*
X032930Y011630D03*
X032930Y012680D03*
X034980Y013330D03*
X035630Y013980D03*
X018230Y003330D03*
X023430Y000980D03*
D22*
X001128Y000713D02*
X000890Y000886D01*
X000717Y001124D01*
X000626Y001404D01*
X000614Y001551D01*
X000614Y016654D01*
X000626Y016805D01*
X000719Y017092D01*
X000897Y017337D01*
X001142Y017515D01*
X001429Y017608D01*
X001580Y017620D01*
X001580Y017620D01*
X001655Y017620D01*
X038132Y017620D01*
X038136Y017616D01*
X038206Y017620D01*
X038221Y017620D01*
X038366Y017616D01*
X038664Y017537D01*
X038924Y017369D01*
X039119Y017129D01*
X039230Y016840D01*
X039250Y016688D01*
X039250Y001605D01*
X039238Y001450D01*
X039142Y001153D01*
X038959Y000901D01*
X038707Y000718D01*
X038410Y000622D01*
X038255Y000610D01*
X032663Y000610D01*
X032751Y000699D01*
X032800Y000816D01*
X032800Y000917D01*
X033267Y001384D01*
X033300Y001370D01*
X033522Y001370D01*
X033728Y001455D01*
X033886Y001613D01*
X033971Y001819D01*
X033971Y002041D01*
X033886Y002247D01*
X033728Y002405D01*
X033522Y002490D01*
X033300Y002490D01*
X033094Y002405D01*
X032936Y002247D01*
X032851Y002041D01*
X032851Y001819D01*
X032934Y001617D01*
X032517Y001200D01*
X032416Y001200D01*
X032299Y001151D01*
X032209Y001061D01*
X032160Y000944D01*
X032160Y000816D01*
X032209Y000699D01*
X032297Y000610D01*
X025093Y000610D01*
X026071Y001588D01*
X026204Y001455D01*
X026410Y001370D01*
X026633Y001370D01*
X026839Y001455D01*
X026996Y001613D01*
X027081Y001819D01*
X027081Y002041D01*
X026996Y002247D01*
X026839Y002405D01*
X026633Y002490D01*
X026410Y002490D01*
X026204Y002405D01*
X026047Y002247D01*
X025963Y002046D01*
X025880Y001963D01*
X025880Y002097D01*
X028430Y004647D01*
X028430Y004677D01*
X028501Y004749D01*
X028550Y004866D01*
X028550Y004994D01*
X028501Y005111D01*
X028411Y005201D01*
X028294Y005250D01*
X028166Y005250D01*
X028049Y005201D01*
X027959Y005111D01*
X027910Y004994D01*
X027910Y004866D01*
X027959Y004749D01*
X027962Y004745D01*
X025900Y002683D01*
X025900Y002744D01*
X025851Y002861D01*
X025761Y002951D01*
X025644Y003000D01*
X025516Y003000D01*
X025399Y002951D01*
X025309Y002861D01*
X025260Y002744D01*
X025260Y002643D01*
X025107Y002490D01*
X025032Y002490D01*
X024826Y002405D01*
X024669Y002247D01*
X024583Y002041D01*
X024583Y001819D01*
X024669Y001613D01*
X024826Y001455D01*
X025032Y001370D01*
X025037Y001370D01*
X024847Y001180D01*
X023683Y001180D01*
X023611Y001251D01*
X023494Y001300D01*
X023366Y001300D01*
X023330Y001285D01*
X023330Y001573D01*
X023448Y001455D01*
X023654Y001370D01*
X023877Y001370D01*
X024083Y001455D01*
X024240Y001613D01*
X024325Y001819D01*
X024325Y002041D01*
X024240Y002247D01*
X024235Y002252D01*
X025301Y003318D01*
X025309Y003299D01*
X025399Y003209D01*
X025516Y003160D01*
X025644Y003160D01*
X025761Y003209D01*
X025851Y003299D01*
X025900Y003416D01*
X025900Y003517D01*
X026130Y003747D01*
X026130Y004927D01*
X026199Y004859D01*
X026316Y004810D01*
X026444Y004810D01*
X026561Y004859D01*
X026651Y004949D01*
X026700Y005066D01*
X026700Y005167D01*
X027613Y006080D01*
X027677Y006080D01*
X027749Y006009D01*
X027781Y005995D01*
X027760Y005944D01*
X027760Y005816D01*
X027809Y005699D01*
X027899Y005609D01*
X028016Y005560D01*
X028144Y005560D01*
X028261Y005609D01*
X028351Y005699D01*
X028400Y005816D01*
X028400Y005944D01*
X028364Y006031D01*
X028430Y006097D01*
X028430Y006147D01*
X030430Y004147D01*
X030430Y002443D01*
X030338Y002405D01*
X030180Y002247D01*
X030095Y002041D01*
X030095Y001819D01*
X030180Y001613D01*
X030338Y001455D01*
X030544Y001370D01*
X030767Y001370D01*
X030972Y001455D01*
X031130Y001613D01*
X031215Y001819D01*
X031215Y002041D01*
X031130Y002247D01*
X030972Y002405D01*
X030830Y002464D01*
X030830Y004313D01*
X030713Y004430D01*
X030159Y004984D01*
X030216Y004960D01*
X030344Y004960D01*
X030461Y005009D01*
X030551Y005099D01*
X030600Y005216D01*
X030600Y005344D01*
X030551Y005461D01*
X030461Y005551D01*
X030344Y005600D01*
X030243Y005600D01*
X030042Y005801D01*
X030061Y005809D01*
X030151Y005899D01*
X030164Y005930D01*
X030313Y005930D01*
X030430Y006047D01*
X031843Y007460D01*
X031944Y007460D01*
X031980Y007475D01*
X031980Y006047D01*
X032097Y005930D01*
X034610Y003417D01*
X034610Y003316D01*
X034659Y003199D01*
X034749Y003109D01*
X034866Y003060D01*
X034994Y003060D01*
X035111Y003109D01*
X035201Y003199D01*
X035250Y003316D01*
X035250Y003444D01*
X035201Y003561D01*
X035111Y003651D01*
X034994Y003700D01*
X034893Y003700D01*
X034792Y003801D01*
X034811Y003809D01*
X034901Y003899D01*
X034950Y004016D01*
X034950Y004144D01*
X034901Y004261D01*
X034811Y004351D01*
X034694Y004400D01*
X034593Y004400D01*
X034350Y004643D01*
X034350Y004744D01*
X034301Y004861D01*
X034211Y004951D01*
X034094Y005000D01*
X033966Y005000D01*
X033849Y004951D01*
X033759Y004861D01*
X033751Y004842D01*
X032380Y006213D01*
X032380Y007963D01*
X032259Y008084D01*
X032316Y008060D01*
X032444Y008060D01*
X032561Y008109D01*
X032651Y008199D01*
X032700Y008316D01*
X032700Y008444D01*
X032651Y008561D01*
X032561Y008651D01*
X032444Y008700D01*
X032343Y008700D01*
X032250Y008793D01*
X032250Y008894D01*
X032201Y009011D01*
X032111Y009101D01*
X031994Y009150D01*
X031866Y009150D01*
X031749Y009101D01*
X031659Y009011D01*
X031610Y008894D01*
X031610Y008802D01*
X031494Y008850D01*
X031366Y008850D01*
X031249Y008801D01*
X031159Y008711D01*
X031110Y008594D01*
X031110Y008466D01*
X031159Y008349D01*
X031249Y008259D01*
X031366Y008210D01*
X031494Y008210D01*
X031546Y008232D01*
X031718Y008059D01*
X031699Y008051D01*
X031609Y007961D01*
X031560Y007844D01*
X031560Y007743D01*
X030147Y006330D01*
X030083Y006330D01*
X030061Y006351D01*
X029944Y006400D01*
X029843Y006400D01*
X029400Y006843D01*
X029400Y006944D01*
X029351Y007061D01*
X029261Y007151D01*
X029144Y007200D01*
X029016Y007200D01*
X028899Y007151D01*
X028809Y007061D01*
X028801Y007042D01*
X028530Y007313D01*
X028530Y011777D01*
X028601Y011849D01*
X028650Y011966D01*
X028650Y012094D01*
X028602Y012210D01*
X028694Y012210D01*
X028811Y012259D01*
X028901Y012349D01*
X028950Y012466D01*
X028950Y012594D01*
X028901Y012711D01*
X028830Y012783D01*
X028830Y013347D01*
X028830Y013513D01*
X026534Y015809D01*
X026567Y015814D01*
X026654Y015842D01*
X026736Y015884D01*
X026809Y015938D01*
X026874Y016002D01*
X026928Y016076D01*
X026969Y016157D01*
X026997Y016244D01*
X027012Y016334D01*
X027012Y016342D01*
X026470Y016342D01*
X026470Y016418D01*
X027012Y016418D01*
X027012Y016426D01*
X026997Y016516D01*
X026969Y016603D01*
X026928Y016684D01*
X026874Y016758D01*
X026809Y016822D01*
X026736Y016876D01*
X026654Y016918D01*
X026567Y016946D01*
X026477Y016960D01*
X026470Y016960D01*
X026470Y016418D01*
X026393Y016418D01*
X026393Y016960D01*
X026386Y016960D01*
X026296Y016946D01*
X026209Y016918D01*
X026128Y016876D01*
X026054Y016822D01*
X025989Y016758D01*
X025936Y016684D01*
X025894Y016603D01*
X025866Y016516D01*
X025861Y016482D01*
X025780Y016563D01*
X025780Y016713D01*
X025480Y017013D01*
X025363Y017130D01*
X024747Y017130D01*
X024198Y016581D01*
X024150Y016697D01*
X023993Y016855D01*
X023787Y016940D01*
X023564Y016940D01*
X023358Y016855D01*
X023201Y016697D01*
X023116Y016491D01*
X023116Y016269D01*
X023201Y016063D01*
X023358Y015905D01*
X023564Y015820D01*
X023787Y015820D01*
X023993Y015905D01*
X024030Y015942D01*
X024030Y013933D01*
X023959Y013861D01*
X023910Y013744D01*
X019069Y013744D01*
X019061Y013751D02*
X018944Y013800D01*
X018843Y013800D01*
X016980Y015663D01*
X016863Y015780D01*
X016363Y015780D01*
X015941Y016202D01*
X015968Y016269D01*
X015968Y016491D01*
X015883Y016697D01*
X015725Y016855D01*
X015519Y016940D01*
X015297Y016940D01*
X015091Y016855D01*
X014933Y016697D01*
X014848Y016491D01*
X014848Y016269D01*
X014933Y016063D01*
X015091Y015905D01*
X015297Y015820D01*
X015519Y015820D01*
X015688Y015890D01*
X016197Y015380D01*
X016697Y015380D01*
X018560Y013517D01*
X018560Y013416D01*
X018575Y013380D01*
X015013Y013380D01*
X013300Y015093D01*
X013300Y015194D01*
X013251Y015311D01*
X013161Y015401D01*
X013044Y015450D01*
X012916Y015450D01*
X012799Y015401D01*
X012709Y015311D01*
X012660Y015194D01*
X012660Y015066D01*
X012709Y014949D01*
X012799Y014859D01*
X012916Y014810D01*
X013017Y014810D01*
X013568Y014259D01*
X013549Y014251D01*
X013477Y014180D01*
X010813Y014180D01*
X009130Y015863D01*
X009160Y015935D01*
X009160Y016125D01*
X009087Y016302D01*
X008952Y016437D01*
X008775Y016510D01*
X008585Y016510D01*
X008408Y016437D01*
X008273Y016302D01*
X008200Y016125D01*
X008200Y015935D01*
X008273Y015758D01*
X008408Y015623D01*
X008585Y015550D01*
X008775Y015550D01*
X008847Y015580D01*
X010530Y013897D01*
X010647Y013780D01*
X013477Y013780D01*
X013549Y013709D01*
X013666Y013660D01*
X013794Y013660D01*
X013911Y013709D01*
X014001Y013799D01*
X014009Y013818D01*
X014847Y012980D01*
X018827Y012980D01*
X018809Y012961D01*
X018760Y012844D01*
X018760Y012743D01*
X018047Y012030D01*
X012283Y012030D01*
X012283Y012030D01*
X012301Y012049D01*
X012350Y012166D01*
X012350Y012294D01*
X012301Y012411D01*
X012211Y012501D01*
X012094Y012550D01*
X011966Y012550D01*
X011849Y012501D01*
X011759Y012411D01*
X011710Y012294D01*
X011710Y012193D01*
X011530Y012013D01*
X011530Y011963D01*
X010063Y013430D01*
X009983Y013430D01*
X009911Y013501D01*
X009798Y013548D01*
X009828Y013561D01*
X009939Y013672D01*
X010000Y013818D01*
X010000Y013976D01*
X009939Y014122D01*
X009828Y014233D01*
X009682Y014293D01*
X009524Y014293D01*
X009379Y014233D01*
X009267Y014122D01*
X009207Y013976D01*
X009207Y013818D01*
X009267Y013672D01*
X009379Y013561D01*
X009524Y013500D01*
X009548Y013500D01*
X009459Y013411D01*
X009410Y013294D01*
X009410Y013166D01*
X009459Y013049D01*
X009549Y012959D01*
X009666Y012910D01*
X009794Y012910D01*
X009911Y012959D01*
X009940Y012987D01*
X013280Y009647D01*
X013397Y009530D01*
X017247Y009530D01*
X017297Y009480D01*
X018197Y009480D01*
X018447Y009230D01*
X017852Y009230D01*
X017612Y009470D01*
X017248Y009470D01*
X016990Y009212D01*
X016990Y008848D01*
X017230Y008608D01*
X017230Y008433D01*
X017159Y008361D01*
X017110Y008244D01*
X017110Y008116D01*
X017159Y007999D01*
X017249Y007909D01*
X017366Y007860D01*
X017494Y007860D01*
X017611Y007909D01*
X017701Y007999D01*
X017750Y008116D01*
X017750Y008244D01*
X017701Y008361D01*
X017630Y008433D01*
X017630Y008608D01*
X017668Y008646D01*
X017709Y008549D01*
X017780Y008477D01*
X017780Y007513D01*
X017597Y007330D01*
X017480Y007213D01*
X017480Y007185D01*
X017444Y007200D01*
X017343Y007200D01*
X016400Y008143D01*
X016400Y008244D01*
X016351Y008361D01*
X016280Y008433D01*
X016280Y008547D01*
X016323Y008590D01*
X016612Y008590D01*
X016870Y008848D01*
X016870Y009212D01*
X016612Y009470D01*
X016248Y009470D01*
X015990Y009212D01*
X015990Y008848D01*
X016002Y008835D01*
X015880Y008713D01*
X015880Y008433D01*
X015809Y008361D01*
X015760Y008244D01*
X015760Y008116D01*
X015809Y007999D01*
X015899Y007909D01*
X016016Y007860D01*
X016117Y007860D01*
X017060Y006917D01*
X017060Y006816D01*
X017109Y006699D01*
X017199Y006609D01*
X017218Y006601D01*
X016947Y006330D01*
X013847Y006330D01*
X012800Y005283D01*
X012612Y005470D01*
X012248Y005470D01*
X011990Y005212D01*
X011990Y004848D01*
X012248Y004590D01*
X012612Y004590D01*
X012630Y004608D01*
X012630Y002490D01*
X012425Y002405D01*
X012267Y002247D01*
X012182Y002041D01*
X012182Y001819D01*
X012267Y001613D01*
X012425Y001455D01*
X012630Y001370D01*
X012853Y001370D01*
X013059Y001455D01*
X013217Y001613D01*
X013302Y001819D01*
X013302Y002041D01*
X013217Y002247D01*
X013059Y002405D01*
X013030Y002417D01*
X013030Y004808D01*
X013248Y004590D01*
X013612Y004590D01*
X013625Y004602D01*
X014097Y004130D01*
X017763Y004130D01*
X017880Y004247D01*
X018330Y004697D01*
X018330Y005097D01*
X018801Y005568D01*
X018809Y005549D01*
X018899Y005459D01*
X019016Y005410D01*
X019117Y005410D01*
X020360Y004167D01*
X020360Y004066D01*
X020409Y003949D01*
X020499Y003859D01*
X020616Y003810D01*
X020744Y003810D01*
X020861Y003859D01*
X020951Y003949D01*
X021000Y004066D01*
X021000Y004194D01*
X020951Y004311D01*
X020861Y004401D01*
X020744Y004450D01*
X020643Y004450D01*
X019400Y005693D01*
X019400Y005794D01*
X019351Y005911D01*
X019261Y006001D01*
X019242Y006009D01*
X019430Y006197D01*
X019430Y006297D01*
X019447Y006280D01*
X022180Y003547D01*
X022180Y002450D01*
X022070Y002405D01*
X021913Y002247D01*
X021827Y002041D01*
X021827Y001819D01*
X021913Y001613D01*
X022070Y001455D01*
X022276Y001370D01*
X022499Y001370D01*
X022705Y001455D01*
X022862Y001613D01*
X022930Y001776D01*
X022930Y000797D01*
X023047Y000680D01*
X023047Y000680D01*
X023117Y000610D01*
X001555Y000610D01*
X001408Y000622D01*
X001128Y000713D01*
X001080Y000747D02*
X022980Y000747D01*
X022930Y000906D02*
X002031Y000906D01*
X002161Y000959D02*
X001849Y000830D01*
X001730Y000830D01*
X001511Y000830D01*
X001199Y000959D01*
X001199Y000959D01*
X000959Y001199D01*
X000959Y001199D01*
X000830Y001511D01*
X000830Y001849D01*
X000959Y002161D01*
X000959Y002161D01*
X001199Y002401D01*
X001199Y002401D01*
X001511Y002530D01*
X001849Y002530D01*
X002161Y002401D01*
X002161Y002401D01*
X002401Y002161D01*
X002401Y002161D01*
X002530Y001849D01*
X002530Y001511D01*
X002401Y001199D01*
X002401Y001199D01*
X002161Y000959D01*
X002161Y000959D01*
X002266Y001064D02*
X022930Y001064D01*
X022930Y001223D02*
X002411Y001223D01*
X002476Y001381D02*
X002909Y001381D01*
X002950Y001341D02*
X003145Y001260D01*
X003355Y001260D01*
X003550Y001341D01*
X003699Y001490D01*
X003780Y001685D01*
X003780Y001895D01*
X003699Y002090D01*
X003550Y002239D01*
X003355Y002320D01*
X003145Y002320D01*
X002950Y002239D01*
X002801Y002090D01*
X002720Y001895D01*
X002720Y001685D01*
X002801Y001490D01*
X002950Y001341D01*
X002780Y001540D02*
X002530Y001540D01*
X002530Y001698D02*
X002720Y001698D01*
X002720Y001857D02*
X002527Y001857D01*
X002461Y002015D02*
X002770Y002015D01*
X002884Y002174D02*
X002389Y002174D01*
X002230Y002332D02*
X005716Y002332D01*
X005681Y002326D02*
X005767Y002340D01*
X005790Y002340D01*
X005790Y001810D01*
X005830Y001810D01*
X006360Y001810D01*
X006360Y001833D01*
X006346Y001919D01*
X006320Y002001D01*
X006280Y002078D01*
X006230Y002148D01*
X006168Y002210D01*
X006098Y002260D01*
X006021Y002300D01*
X005939Y002326D01*
X005853Y002340D01*
X005830Y002340D01*
X005830Y001810D01*
X005830Y001770D01*
X006360Y001770D01*
X006360Y001747D01*
X006346Y001661D01*
X006320Y001579D01*
X006280Y001502D01*
X006230Y001432D01*
X006168Y001370D01*
X006098Y001320D01*
X006021Y001280D01*
X005939Y001254D01*
X005853Y001240D01*
X005830Y001240D01*
X005830Y001770D01*
X005790Y001770D01*
X005790Y001240D01*
X005767Y001240D01*
X005681Y001254D01*
X005599Y001280D01*
X005522Y001320D01*
X005452Y001370D01*
X005390Y001432D01*
X005340Y001502D01*
X005300Y001579D01*
X005274Y001661D01*
X005260Y001747D01*
X005260Y001770D01*
X005790Y001770D01*
X005790Y001810D01*
X005260Y001810D01*
X005260Y001833D01*
X005274Y001919D01*
X005300Y002001D01*
X005340Y002078D01*
X005390Y002148D01*
X005452Y002210D01*
X005522Y002260D01*
X005599Y002300D01*
X005681Y002326D01*
X005790Y002332D02*
X005830Y002332D01*
X005904Y002332D02*
X006650Y002332D01*
X006650Y002354D02*
X006650Y001968D01*
X007192Y001968D01*
X007192Y001892D01*
X007268Y001892D01*
X007268Y001968D01*
X007810Y001968D01*
X007810Y002354D01*
X007798Y002399D01*
X007774Y002441D01*
X007741Y002474D01*
X007699Y002498D01*
X007654Y002510D01*
X007268Y002510D01*
X007268Y001968D01*
X007192Y001968D01*
X007192Y002510D01*
X006806Y002510D01*
X006761Y002498D01*
X006719Y002474D01*
X006686Y002441D01*
X006662Y002399D01*
X006650Y002354D01*
X006748Y002491D02*
X001944Y002491D01*
X001416Y002491D02*
X000614Y002491D01*
X000614Y002649D02*
X012630Y002649D01*
X012630Y002491D02*
X007712Y002491D01*
X007810Y002332D02*
X008218Y002332D01*
X008291Y002405D02*
X008133Y002247D01*
X008048Y002041D01*
X008048Y001819D01*
X008133Y001613D01*
X008291Y001455D01*
X008497Y001370D01*
X008719Y001370D01*
X008925Y001455D01*
X009083Y001613D01*
X009168Y001819D01*
X009168Y002041D01*
X009083Y002247D01*
X008925Y002405D01*
X008719Y002490D01*
X008497Y002490D01*
X008291Y002405D01*
X008103Y002174D02*
X007810Y002174D01*
X007810Y002015D02*
X008048Y002015D01*
X008048Y001857D02*
X007810Y001857D01*
X007810Y001892D02*
X007268Y001892D01*
X007268Y001350D01*
X007654Y001350D01*
X007699Y001362D01*
X007741Y001386D01*
X007774Y001419D01*
X007798Y001461D01*
X007810Y001506D01*
X007810Y001892D01*
X007810Y001698D02*
X008098Y001698D01*
X008206Y001540D02*
X007810Y001540D01*
X007732Y001381D02*
X008470Y001381D01*
X008746Y001381D02*
X009848Y001381D01*
X009875Y001370D02*
X010097Y001370D01*
X010303Y001455D01*
X010461Y001613D01*
X010546Y001819D01*
X010546Y002041D01*
X010461Y002247D01*
X010303Y002405D01*
X010097Y002490D01*
X009875Y002490D01*
X009669Y002405D01*
X009511Y002247D01*
X009426Y002041D01*
X009426Y001819D01*
X009511Y001613D01*
X009669Y001455D01*
X009875Y001370D01*
X010124Y001381D02*
X011226Y001381D01*
X011252Y001370D02*
X011475Y001370D01*
X011681Y001455D01*
X011839Y001613D01*
X011924Y001819D01*
X011924Y002041D01*
X011839Y002247D01*
X011681Y002405D01*
X011475Y002490D01*
X011252Y002490D01*
X011047Y002405D01*
X010889Y002247D01*
X010804Y002041D01*
X010804Y001819D01*
X010889Y001613D01*
X011047Y001455D01*
X011252Y001370D01*
X011502Y001381D02*
X012604Y001381D01*
X012880Y001381D02*
X013982Y001381D01*
X014008Y001370D02*
X014231Y001370D01*
X014437Y001455D01*
X014595Y001613D01*
X014680Y001819D01*
X014680Y002041D01*
X014595Y002247D01*
X014437Y002405D01*
X014231Y002490D01*
X014008Y002490D01*
X013803Y002405D01*
X013645Y002247D01*
X013560Y002041D01*
X013560Y001819D01*
X013645Y001613D01*
X013803Y001455D01*
X014008Y001370D01*
X014258Y001381D02*
X015310Y001381D01*
X015275Y001392D02*
X015362Y001364D01*
X015452Y001350D01*
X015460Y001350D01*
X015460Y001892D01*
X015536Y001892D01*
X015536Y001968D01*
X016078Y001968D01*
X016078Y001976D01*
X016063Y002066D01*
X016035Y002153D01*
X015994Y002234D01*
X015940Y002308D01*
X015876Y002372D01*
X015802Y002426D01*
X015720Y002468D01*
X015634Y002496D01*
X015543Y002510D01*
X015536Y002510D01*
X015536Y001968D01*
X015460Y001968D01*
X015460Y002510D01*
X015452Y002510D01*
X015362Y002496D01*
X015275Y002468D01*
X015194Y002426D01*
X015120Y002372D01*
X015055Y002308D01*
X015002Y002234D01*
X014960Y002153D01*
X014932Y002066D01*
X014918Y001976D01*
X014918Y001968D01*
X015460Y001968D01*
X015460Y001892D01*
X014918Y001892D01*
X014918Y001884D01*
X014932Y001794D01*
X014960Y001707D01*
X015002Y001626D01*
X015055Y001552D01*
X015120Y001488D01*
X015194Y001434D01*
X015275Y001392D01*
X015460Y001381D02*
X015536Y001381D01*
X015536Y001350D02*
X015543Y001350D01*
X015634Y001364D01*
X015720Y001392D01*
X015802Y001434D01*
X015876Y001488D01*
X015940Y001552D01*
X015994Y001626D01*
X016035Y001707D01*
X016063Y001794D01*
X016078Y001884D01*
X016078Y001892D01*
X015536Y001892D01*
X015536Y001350D01*
X015685Y001381D02*
X016738Y001381D01*
X016764Y001370D02*
X016987Y001370D01*
X017193Y001455D01*
X017350Y001613D01*
X017436Y001819D01*
X017436Y002041D01*
X017350Y002247D01*
X017193Y002405D01*
X016987Y002490D01*
X016764Y002490D01*
X016558Y002405D01*
X016401Y002247D01*
X016316Y002041D01*
X016316Y001819D01*
X016401Y001613D01*
X016558Y001455D01*
X016764Y001370D01*
X017014Y001381D02*
X018116Y001381D01*
X018142Y001370D02*
X018365Y001370D01*
X018571Y001455D01*
X018728Y001613D01*
X018814Y001819D01*
X018814Y002041D01*
X018728Y002247D01*
X018571Y002405D01*
X018365Y002490D01*
X018142Y002490D01*
X017936Y002405D01*
X017779Y002247D01*
X017694Y002041D01*
X017694Y001819D01*
X017779Y001613D01*
X017936Y001455D01*
X018142Y001370D01*
X018392Y001381D02*
X019494Y001381D01*
X019520Y001370D02*
X019743Y001370D01*
X019949Y001455D01*
X020106Y001613D01*
X020192Y001819D01*
X020192Y002041D01*
X020106Y002247D01*
X019949Y002405D01*
X019743Y002490D01*
X019520Y002490D01*
X019402Y002441D01*
X018550Y003293D01*
X018550Y003394D01*
X018501Y003511D01*
X018411Y003601D01*
X018294Y003650D01*
X018166Y003650D01*
X018049Y003601D01*
X017959Y003511D01*
X017910Y003394D01*
X017910Y003266D01*
X017959Y003149D01*
X018049Y003059D01*
X018166Y003010D01*
X018267Y003010D01*
X019120Y002157D01*
X019072Y002041D01*
X019072Y001819D01*
X019157Y001613D01*
X019314Y001455D01*
X019520Y001370D01*
X019770Y001381D02*
X020532Y001381D01*
X020543Y001370D02*
X021476Y001370D01*
X021570Y001464D01*
X021570Y002396D01*
X021476Y002490D01*
X020543Y002490D01*
X020450Y002396D01*
X020450Y001464D01*
X020543Y001370D01*
X020450Y001540D02*
X020033Y001540D01*
X020142Y001698D02*
X020450Y001698D01*
X020450Y001857D02*
X020192Y001857D01*
X020192Y002015D02*
X020450Y002015D01*
X020450Y002174D02*
X020137Y002174D01*
X020022Y002332D02*
X020450Y002332D01*
X021570Y002332D02*
X021998Y002332D01*
X021882Y002174D02*
X021570Y002174D01*
X021570Y002015D02*
X021827Y002015D01*
X021827Y001857D02*
X021570Y001857D01*
X021570Y001698D02*
X021877Y001698D01*
X021986Y001540D02*
X021570Y001540D01*
X021487Y001381D02*
X022250Y001381D01*
X022525Y001381D02*
X022930Y001381D01*
X022930Y001540D02*
X022789Y001540D01*
X022898Y001698D02*
X022930Y001698D01*
X023330Y001540D02*
X023364Y001540D01*
X023330Y001381D02*
X023627Y001381D01*
X023640Y001223D02*
X024890Y001223D01*
X025005Y001381D02*
X023903Y001381D01*
X024167Y001540D02*
X024742Y001540D01*
X024633Y001698D02*
X024275Y001698D01*
X024325Y001857D02*
X024583Y001857D01*
X024583Y002015D02*
X024325Y002015D01*
X024271Y002174D02*
X024638Y002174D01*
X024753Y002332D02*
X024315Y002332D01*
X024473Y002491D02*
X025108Y002491D01*
X025260Y002649D02*
X024632Y002649D01*
X024790Y002808D02*
X025286Y002808D01*
X025434Y002966D02*
X024949Y002966D01*
X025107Y003125D02*
X026342Y003125D01*
X026500Y003283D02*
X025836Y003283D01*
X025900Y003442D02*
X026659Y003442D01*
X026817Y003600D02*
X025983Y003600D01*
X026130Y003759D02*
X026976Y003759D01*
X027134Y003917D02*
X026130Y003917D01*
X026130Y004076D02*
X027293Y004076D01*
X027451Y004234D02*
X026130Y004234D01*
X026130Y004393D02*
X027610Y004393D01*
X027768Y004551D02*
X026130Y004551D01*
X026130Y004710D02*
X027927Y004710D01*
X027910Y004868D02*
X026571Y004868D01*
X026683Y005027D02*
X027924Y005027D01*
X028032Y005185D02*
X026718Y005185D01*
X026876Y005344D02*
X029234Y005344D01*
X029075Y005502D02*
X027035Y005502D01*
X027193Y005661D02*
X027847Y005661D01*
X027760Y005819D02*
X027352Y005819D01*
X027510Y005978D02*
X027774Y005978D01*
X028386Y005978D02*
X028600Y005978D01*
X028441Y006136D02*
X028430Y006136D01*
X028848Y006295D02*
X028983Y006295D01*
X029007Y006136D02*
X029141Y006136D01*
X029165Y005978D02*
X029300Y005978D01*
X029324Y005819D02*
X029458Y005819D01*
X029482Y005661D02*
X029617Y005661D01*
X029641Y005502D02*
X029775Y005502D01*
X029799Y005344D02*
X029934Y005344D01*
X029960Y005317D02*
X029960Y005216D01*
X029984Y005159D01*
X027330Y007813D01*
X027330Y008327D01*
X027401Y008399D01*
X027450Y008516D01*
X027450Y008644D01*
X027401Y008761D01*
X027311Y008851D01*
X027194Y008900D01*
X027066Y008900D01*
X026949Y008851D01*
X026859Y008761D01*
X026840Y008717D01*
X026801Y008811D01*
X026711Y008901D01*
X026594Y008950D01*
X026466Y008950D01*
X026349Y008901D01*
X026259Y008811D01*
X026210Y008694D01*
X026210Y008566D01*
X026259Y008449D01*
X026330Y008377D01*
X026330Y006983D01*
X026259Y006911D01*
X026210Y006794D01*
X026210Y006693D01*
X026024Y006507D01*
X026001Y006561D01*
X025911Y006651D01*
X025794Y006700D01*
X025666Y006700D01*
X025549Y006651D01*
X025459Y006561D01*
X025410Y006444D01*
X025410Y006316D01*
X025459Y006199D01*
X025530Y006127D01*
X025530Y004635D01*
X025494Y004650D01*
X025393Y004650D01*
X025380Y004663D01*
X025380Y006497D01*
X026213Y007330D01*
X026330Y007447D01*
X026330Y008313D01*
X025980Y008663D01*
X025980Y008697D01*
X026713Y009430D01*
X027063Y009430D01*
X027413Y009780D01*
X027530Y009897D01*
X027530Y010627D01*
X027601Y010699D01*
X027650Y010816D01*
X027650Y010944D01*
X027601Y011061D01*
X027530Y011133D01*
X027530Y011247D01*
X027663Y011380D01*
X027780Y011497D01*
X027780Y012663D01*
X027663Y012780D01*
X027663Y012780D01*
X026850Y013593D01*
X026850Y013694D01*
X026801Y013811D01*
X026711Y013901D01*
X026594Y013950D01*
X026466Y013950D01*
X026349Y013901D01*
X026259Y013811D01*
X026210Y013694D01*
X026210Y013566D01*
X026259Y013449D01*
X026349Y013359D01*
X026466Y013310D01*
X026567Y013310D01*
X027380Y012497D01*
X027380Y011663D01*
X027130Y011413D01*
X027130Y011133D01*
X027059Y011061D01*
X027010Y010944D01*
X027010Y010816D01*
X027059Y010699D01*
X027130Y010627D01*
X027130Y010063D01*
X026897Y009830D01*
X026547Y009830D01*
X026430Y009713D01*
X025580Y008863D01*
X025580Y008497D01*
X025697Y008380D01*
X025930Y008147D01*
X025930Y007613D01*
X025900Y007583D01*
X025900Y007694D01*
X025851Y007811D01*
X025833Y007830D01*
X025851Y007849D01*
X025900Y007966D01*
X025900Y008094D01*
X025851Y008211D01*
X025761Y008301D01*
X025644Y008350D01*
X025516Y008350D01*
X025399Y008301D01*
X025368Y008271D01*
X025351Y008311D01*
X025261Y008401D01*
X025144Y008450D01*
X025016Y008450D01*
X024899Y008401D01*
X024809Y008311D01*
X024760Y008194D01*
X024760Y008066D01*
X024808Y007950D01*
X024716Y007950D01*
X024599Y007901D01*
X024509Y007811D01*
X024460Y007694D01*
X024460Y007650D01*
X024416Y007650D01*
X024299Y007601D01*
X024209Y007511D01*
X024160Y007394D01*
X024160Y007293D01*
X022947Y006080D01*
X021183Y006080D01*
X021111Y006151D01*
X021092Y006159D01*
X021330Y006397D01*
X021330Y006777D01*
X021401Y006849D01*
X021450Y006966D01*
X021450Y007060D01*
X021460Y007060D01*
X021460Y006966D01*
X021509Y006849D01*
X021599Y006759D01*
X021716Y006710D01*
X021786Y006710D01*
X021962Y006499D01*
X021960Y006494D01*
X021960Y006366D01*
X022009Y006249D01*
X022099Y006159D01*
X022216Y006110D01*
X022344Y006110D01*
X022461Y006159D01*
X022551Y006249D01*
X022600Y006366D01*
X022600Y006494D01*
X022551Y006611D01*
X022461Y006701D01*
X022344Y006750D01*
X022274Y006750D01*
X022098Y006961D01*
X022100Y006966D01*
X022100Y007094D01*
X022064Y007180D01*
X023463Y007180D01*
X026093Y009810D01*
X026194Y009810D01*
X026311Y009859D01*
X026401Y009949D01*
X026450Y010066D01*
X026450Y010194D01*
X026426Y010251D01*
X026460Y010217D01*
X026460Y010116D01*
X026509Y009999D01*
X026599Y009909D01*
X026716Y009860D01*
X026844Y009860D01*
X026961Y009909D01*
X027051Y009999D01*
X027100Y010116D01*
X027100Y010244D01*
X027051Y010361D01*
X026961Y010451D01*
X026844Y010500D01*
X026743Y010500D01*
X026388Y010855D01*
X026993Y011460D01*
X027094Y011460D01*
X027211Y011509D01*
X027301Y011599D01*
X027350Y011716D01*
X027350Y011844D01*
X027301Y011961D01*
X027211Y012051D01*
X027142Y012080D01*
X027211Y012109D01*
X027301Y012199D01*
X027350Y012316D01*
X027350Y012444D01*
X027301Y012561D01*
X027211Y012651D01*
X027094Y012700D01*
X026966Y012700D01*
X026849Y012651D01*
X026777Y012580D01*
X025797Y012580D01*
X025680Y012463D01*
X025330Y012113D01*
X025330Y011963D01*
X023630Y010263D01*
X023630Y010233D01*
X023559Y010161D01*
X023510Y010044D01*
X023510Y009939D01*
X022130Y008528D01*
X022130Y009163D01*
X022013Y009280D01*
X021459Y009834D01*
X021516Y009810D01*
X021644Y009810D01*
X021761Y009859D01*
X021851Y009949D01*
X021900Y010066D01*
X021900Y010194D01*
X021851Y010311D01*
X021780Y010383D01*
X021780Y011497D01*
X021879Y011596D01*
X021892Y011590D01*
X022068Y011590D01*
X022229Y011657D01*
X022353Y011781D01*
X022420Y011942D01*
X022420Y012118D01*
X022353Y012279D01*
X022229Y012403D01*
X022068Y012470D01*
X021892Y012470D01*
X021731Y012403D01*
X021607Y012279D01*
X021540Y012118D01*
X021540Y011942D01*
X021575Y011858D01*
X021380Y011663D01*
X021380Y010664D01*
X021294Y010700D01*
X021193Y010700D01*
X020900Y010993D01*
X020900Y011094D01*
X020851Y011211D01*
X020833Y011230D01*
X020851Y011249D01*
X020900Y011366D01*
X020900Y011494D01*
X020851Y011611D01*
X020761Y011701D01*
X020644Y011750D01*
X020516Y011750D01*
X020399Y011701D01*
X020309Y011611D01*
X020260Y011494D01*
X020260Y011393D01*
X020197Y011330D01*
X020126Y011259D01*
X020150Y011316D01*
X020150Y011444D01*
X020101Y011561D01*
X020030Y011633D01*
X020030Y012513D01*
X019280Y013263D01*
X019178Y013364D01*
X019200Y013416D01*
X019200Y013544D01*
X019151Y013661D01*
X019061Y013751D01*
X019183Y013586D02*
X023923Y013586D01*
X023910Y013616D02*
X023959Y013499D01*
X024049Y013409D01*
X024166Y013360D01*
X024294Y013360D01*
X024411Y013409D01*
X024501Y013499D01*
X024550Y013616D01*
X024550Y013744D01*
X026231Y013744D01*
X026210Y013586D02*
X024537Y013586D01*
X024550Y013744D02*
X024501Y013861D01*
X024430Y013933D01*
X024430Y016247D01*
X024494Y016311D01*
X024494Y016269D01*
X024579Y016063D01*
X024736Y015905D01*
X024942Y015820D01*
X025165Y015820D01*
X025371Y015905D01*
X025528Y016063D01*
X025583Y016194D01*
X028430Y013347D01*
X028430Y012783D01*
X028359Y012711D01*
X028310Y012594D01*
X028310Y012466D01*
X028358Y012350D01*
X028266Y012350D01*
X028149Y012301D01*
X028059Y012211D01*
X028010Y012094D01*
X028010Y011966D01*
X028059Y011849D01*
X028130Y011777D01*
X028130Y007147D01*
X029960Y005317D01*
X029958Y005185D02*
X029973Y005185D01*
X029551Y005027D02*
X028536Y005027D01*
X028550Y004868D02*
X029709Y004868D01*
X029868Y004710D02*
X028462Y004710D01*
X028334Y004551D02*
X030026Y004551D01*
X030185Y004393D02*
X028175Y004393D01*
X028017Y004234D02*
X030343Y004234D01*
X030430Y004076D02*
X027858Y004076D01*
X027700Y003917D02*
X030430Y003917D01*
X030430Y003759D02*
X027541Y003759D01*
X027383Y003600D02*
X030430Y003600D01*
X030430Y003442D02*
X027224Y003442D01*
X027066Y003283D02*
X030430Y003283D01*
X030430Y003125D02*
X026907Y003125D01*
X026749Y002966D02*
X030430Y002966D01*
X030430Y002808D02*
X026590Y002808D01*
X026432Y002649D02*
X030430Y002649D01*
X030430Y002491D02*
X028051Y002491D01*
X028035Y002496D02*
X027945Y002510D01*
X027937Y002510D01*
X027937Y001968D01*
X027861Y001968D01*
X027861Y001892D01*
X027319Y001892D01*
X027319Y001884D01*
X027334Y001794D01*
X027362Y001707D01*
X027403Y001626D01*
X027457Y001552D01*
X027521Y001488D01*
X027595Y001434D01*
X027677Y001392D01*
X027763Y001364D01*
X027854Y001350D01*
X027861Y001350D01*
X027861Y001892D01*
X027937Y001892D01*
X027937Y001350D01*
X027945Y001350D01*
X028035Y001364D01*
X028122Y001392D01*
X028203Y001434D01*
X028277Y001488D01*
X028342Y001552D01*
X028395Y001626D01*
X028437Y001707D01*
X028465Y001794D01*
X028479Y001884D01*
X028479Y001892D01*
X027937Y001892D01*
X027937Y001968D01*
X028479Y001968D01*
X028479Y001976D01*
X028465Y002066D01*
X028437Y002153D01*
X028395Y002234D01*
X028342Y002308D01*
X028277Y002372D01*
X028203Y002426D01*
X028122Y002468D01*
X028035Y002496D01*
X027937Y002491D02*
X027861Y002491D01*
X027861Y002510D02*
X027854Y002510D01*
X027763Y002496D01*
X027677Y002468D01*
X027595Y002426D01*
X027521Y002372D01*
X027457Y002308D01*
X027403Y002234D01*
X027362Y002153D01*
X027334Y002066D01*
X027319Y001976D01*
X027319Y001968D01*
X027861Y001968D01*
X027861Y002510D01*
X027747Y002491D02*
X026273Y002491D01*
X026131Y002332D02*
X026115Y002332D01*
X026016Y002174D02*
X025956Y002174D01*
X025932Y002015D02*
X025880Y002015D01*
X026022Y001540D02*
X026120Y001540D01*
X025864Y001381D02*
X026383Y001381D01*
X026659Y001381D02*
X027712Y001381D01*
X027861Y001381D02*
X027937Y001381D01*
X028087Y001381D02*
X029139Y001381D01*
X029166Y001370D02*
X029389Y001370D01*
X029594Y001455D01*
X029752Y001613D01*
X029837Y001819D01*
X029837Y002041D01*
X029752Y002247D01*
X029594Y002405D01*
X029389Y002490D01*
X029166Y002490D01*
X028960Y002405D01*
X028802Y002247D01*
X028717Y002041D01*
X028717Y001819D01*
X028802Y001613D01*
X028960Y001455D01*
X029166Y001370D01*
X029415Y001381D02*
X030517Y001381D01*
X030793Y001381D02*
X031895Y001381D01*
X031922Y001370D02*
X032145Y001370D01*
X032350Y001455D01*
X032508Y001613D01*
X032593Y001819D01*
X032593Y002041D01*
X032508Y002247D01*
X032350Y002405D01*
X032145Y002490D01*
X031922Y002490D01*
X031716Y002405D01*
X031558Y002247D01*
X031473Y002041D01*
X031473Y001819D01*
X031558Y001613D01*
X031716Y001455D01*
X031922Y001370D01*
X032171Y001381D02*
X032698Y001381D01*
X032540Y001223D02*
X025705Y001223D01*
X025547Y001064D02*
X032211Y001064D01*
X032160Y000906D02*
X025388Y000906D01*
X025230Y000747D02*
X032189Y000747D01*
X032771Y000747D02*
X036227Y000747D01*
X036199Y000759D02*
X036316Y000710D01*
X036444Y000710D01*
X036561Y000759D01*
X036651Y000849D01*
X036700Y000966D01*
X036700Y001094D01*
X036651Y001211D01*
X036561Y001301D01*
X036444Y001350D01*
X036343Y001350D01*
X035848Y001845D01*
X035901Y001899D01*
X035950Y002016D01*
X035950Y002144D01*
X035901Y002261D01*
X035811Y002351D01*
X035694Y002400D01*
X035566Y002400D01*
X035449Y002351D01*
X035359Y002261D01*
X035310Y002144D01*
X035310Y002016D01*
X035359Y001899D01*
X035430Y001827D01*
X035430Y001763D01*
X034600Y002593D01*
X034600Y002694D01*
X034551Y002811D01*
X034461Y002901D01*
X034344Y002950D01*
X034216Y002950D01*
X034099Y002901D01*
X034009Y002811D01*
X033960Y002694D01*
X033960Y002566D01*
X034009Y002449D01*
X034099Y002359D01*
X034216Y002310D01*
X034317Y002310D01*
X035210Y001417D01*
X035210Y001316D01*
X035259Y001199D01*
X035349Y001109D01*
X035466Y001060D01*
X035594Y001060D01*
X035711Y001109D01*
X035801Y001199D01*
X035839Y001289D01*
X036060Y001067D01*
X036060Y000966D01*
X036109Y000849D01*
X036199Y000759D01*
X036085Y000906D02*
X032800Y000906D01*
X032947Y001064D02*
X035457Y001064D01*
X035603Y001064D02*
X036060Y001064D01*
X035905Y001223D02*
X035811Y001223D01*
X035249Y001223D02*
X033105Y001223D01*
X033264Y001381D02*
X033273Y001381D01*
X033549Y001381D02*
X035210Y001381D01*
X035088Y001540D02*
X033813Y001540D01*
X033921Y001698D02*
X034929Y001698D01*
X034771Y001857D02*
X033971Y001857D01*
X033971Y002015D02*
X034612Y002015D01*
X034454Y002174D02*
X033916Y002174D01*
X033801Y002332D02*
X034163Y002332D01*
X033991Y002491D02*
X030830Y002491D01*
X030830Y002649D02*
X033960Y002649D01*
X034007Y002808D02*
X030830Y002808D01*
X030830Y002966D02*
X035940Y002966D01*
X035940Y002899D02*
X036063Y002601D01*
X036291Y002373D01*
X036589Y002250D01*
X036911Y002250D01*
X037209Y002373D01*
X037437Y002601D01*
X037560Y002899D01*
X037560Y003221D01*
X037437Y003519D01*
X037209Y003747D01*
X036911Y003870D01*
X036589Y003870D01*
X036291Y003747D01*
X036063Y003519D01*
X035940Y003221D01*
X035940Y002899D01*
X035978Y002808D02*
X034553Y002808D01*
X034600Y002649D02*
X036044Y002649D01*
X036174Y002491D02*
X034702Y002491D01*
X034861Y002332D02*
X035429Y002332D01*
X035322Y002174D02*
X035019Y002174D01*
X035178Y002015D02*
X035311Y002015D01*
X035336Y001857D02*
X035401Y001857D01*
X035859Y001857D02*
X037333Y001857D01*
X037330Y001849D02*
X037330Y001511D01*
X037459Y001199D01*
X037699Y000959D01*
X038011Y000830D01*
X038349Y000830D01*
X038661Y000959D01*
X038661Y000959D01*
X038901Y001199D01*
X039030Y001511D01*
X039030Y001630D01*
X039030Y001849D01*
X038901Y002161D01*
X038901Y002161D01*
X038661Y002401D01*
X038349Y002530D01*
X038011Y002530D01*
X037699Y002401D01*
X037699Y002401D01*
X037459Y002161D01*
X037330Y001849D01*
X037330Y001698D02*
X035995Y001698D01*
X036153Y001540D02*
X037330Y001540D01*
X037384Y001381D02*
X036312Y001381D01*
X036640Y001223D02*
X037449Y001223D01*
X037459Y001199D02*
X037459Y001199D01*
X037594Y001064D02*
X036700Y001064D01*
X036675Y000906D02*
X037829Y000906D01*
X037699Y000959D02*
X037699Y000959D01*
X038531Y000906D02*
X038961Y000906D01*
X039077Y001064D02*
X038766Y001064D01*
X038901Y001199D02*
X038901Y001199D01*
X038911Y001223D02*
X039164Y001223D01*
X039215Y001381D02*
X038976Y001381D01*
X039030Y001540D02*
X039245Y001540D01*
X039250Y001698D02*
X039030Y001698D01*
X039027Y001857D02*
X039250Y001857D01*
X039250Y002015D02*
X038961Y002015D01*
X038889Y002174D02*
X039250Y002174D01*
X039250Y002332D02*
X038730Y002332D01*
X038661Y002401D02*
X038661Y002401D01*
X038444Y002491D02*
X039250Y002491D01*
X039250Y002649D02*
X037456Y002649D01*
X037522Y002808D02*
X039250Y002808D01*
X039250Y002966D02*
X037560Y002966D01*
X037560Y003125D02*
X039250Y003125D01*
X039250Y003283D02*
X037534Y003283D01*
X037469Y003442D02*
X039250Y003442D01*
X039250Y003600D02*
X037356Y003600D01*
X037180Y003759D02*
X039250Y003759D01*
X039250Y003917D02*
X034909Y003917D01*
X034950Y004076D02*
X039250Y004076D01*
X039250Y004234D02*
X034913Y004234D01*
X034997Y004448D02*
X035178Y004522D01*
X035290Y004635D01*
X035402Y004522D01*
X035583Y004448D01*
X035777Y004448D01*
X035958Y004522D01*
X036095Y004660D01*
X036170Y004840D01*
X036170Y005035D01*
X036095Y005215D01*
X035958Y005353D01*
X035789Y005423D01*
X035799Y005425D01*
X035876Y005449D01*
X035947Y005486D01*
X036012Y005533D01*
X036069Y005590D01*
X036116Y005655D01*
X036153Y005726D01*
X036177Y005803D01*
X036190Y005882D01*
X036190Y005912D01*
X035690Y005912D01*
X035690Y005932D01*
X036190Y005932D01*
X036190Y005962D01*
X036177Y006042D01*
X036153Y006118D01*
X036116Y006189D01*
X036069Y006254D01*
X036012Y006311D01*
X035947Y006358D01*
X035876Y006395D01*
X035799Y006420D01*
X035720Y006432D01*
X035690Y006432D01*
X035690Y005932D01*
X035670Y005932D01*
X035670Y006432D01*
X035640Y006432D01*
X035561Y006420D01*
X035484Y006395D01*
X035413Y006358D01*
X035348Y006311D01*
X035291Y006254D01*
X035278Y006237D01*
X035178Y006338D01*
X034997Y006412D01*
X034980Y006412D01*
X034980Y006877D01*
X035051Y006949D01*
X035100Y007066D01*
X035100Y007194D01*
X035051Y007311D01*
X034961Y007401D01*
X034844Y007450D01*
X034716Y007450D01*
X034599Y007401D01*
X034509Y007311D01*
X034460Y007194D01*
X034460Y007066D01*
X034509Y006949D01*
X034580Y006877D01*
X034580Y006295D01*
X034485Y006200D01*
X034410Y006020D01*
X034410Y005825D01*
X034485Y005645D01*
X034622Y005507D01*
X034803Y005432D01*
X034997Y005432D01*
X035178Y005507D01*
X035278Y005607D01*
X035291Y005590D01*
X035348Y005533D01*
X035413Y005486D01*
X035484Y005449D01*
X035561Y005425D01*
X035571Y005423D01*
X035402Y005353D01*
X035290Y005241D01*
X035178Y005353D01*
X034997Y005428D01*
X034803Y005428D01*
X034622Y005353D01*
X034485Y005215D01*
X034410Y005035D01*
X034410Y004840D01*
X034485Y004660D01*
X034622Y004522D01*
X034803Y004448D01*
X034997Y004448D01*
X035206Y004551D02*
X035374Y004551D01*
X034712Y004393D02*
X039250Y004393D01*
X039250Y004551D02*
X035986Y004551D01*
X036116Y004710D02*
X039250Y004710D01*
X039250Y004868D02*
X036170Y004868D01*
X036170Y005027D02*
X039250Y005027D01*
X039250Y005185D02*
X036108Y005185D01*
X035967Y005344D02*
X039250Y005344D01*
X039250Y005502D02*
X035969Y005502D01*
X036119Y005661D02*
X039250Y005661D01*
X039250Y005819D02*
X036180Y005819D01*
X036188Y005978D02*
X039250Y005978D01*
X039250Y006136D02*
X036143Y006136D01*
X036029Y006295D02*
X039250Y006295D01*
X039250Y006453D02*
X034980Y006453D01*
X034980Y006612D02*
X039250Y006612D01*
X039250Y006770D02*
X034980Y006770D01*
X035031Y006929D02*
X039250Y006929D01*
X039250Y007087D02*
X037145Y007087D01*
X037209Y007113D02*
X037437Y007341D01*
X037560Y007639D01*
X037560Y007961D01*
X037437Y008259D01*
X037209Y008487D01*
X036911Y008610D01*
X036589Y008610D01*
X036291Y008487D01*
X036063Y008259D01*
X035940Y007961D01*
X035940Y007639D01*
X036063Y007341D01*
X036291Y007113D01*
X036589Y006990D01*
X036911Y006990D01*
X037209Y007113D01*
X037341Y007246D02*
X039250Y007246D01*
X039250Y007404D02*
X037463Y007404D01*
X037528Y007563D02*
X039250Y007563D01*
X039250Y007721D02*
X037560Y007721D01*
X037560Y007880D02*
X039250Y007880D01*
X039250Y008038D02*
X037528Y008038D01*
X037462Y008197D02*
X039250Y008197D01*
X039250Y008355D02*
X037340Y008355D01*
X037144Y008514D02*
X039250Y008514D01*
X039250Y008672D02*
X032511Y008672D01*
X032671Y008514D02*
X036356Y008514D01*
X036159Y008355D02*
X032700Y008355D01*
X032649Y008197D02*
X036038Y008197D01*
X035972Y008038D02*
X032305Y008038D01*
X032380Y007880D02*
X035940Y007880D01*
X035940Y007721D02*
X032380Y007721D01*
X032380Y007563D02*
X035972Y007563D01*
X036037Y007404D02*
X034955Y007404D01*
X035079Y007246D02*
X036159Y007246D01*
X036355Y007087D02*
X035100Y007087D01*
X034605Y007404D02*
X032380Y007404D01*
X032380Y007246D02*
X034481Y007246D01*
X034460Y007087D02*
X032380Y007087D01*
X032380Y006929D02*
X034529Y006929D01*
X034580Y006770D02*
X032380Y006770D01*
X032380Y006612D02*
X034580Y006612D01*
X034580Y006453D02*
X032380Y006453D01*
X032380Y006295D02*
X034579Y006295D01*
X034458Y006136D02*
X032457Y006136D01*
X032615Y005978D02*
X034410Y005978D01*
X034412Y005819D02*
X032774Y005819D01*
X032932Y005661D02*
X034478Y005661D01*
X034634Y005502D02*
X033091Y005502D01*
X033249Y005344D02*
X034613Y005344D01*
X034472Y005185D02*
X033408Y005185D01*
X033566Y005027D02*
X034410Y005027D01*
X034410Y004868D02*
X034295Y004868D01*
X034350Y004710D02*
X034464Y004710D01*
X034442Y004551D02*
X034594Y004551D01*
X033952Y004076D02*
X030830Y004076D01*
X030830Y004234D02*
X033793Y004234D01*
X033635Y004393D02*
X030750Y004393D01*
X030592Y004551D02*
X033476Y004551D01*
X033318Y004710D02*
X030433Y004710D01*
X030275Y004868D02*
X033159Y004868D01*
X033001Y005027D02*
X030479Y005027D01*
X030587Y005185D02*
X032842Y005185D01*
X032684Y005344D02*
X030600Y005344D01*
X030511Y005502D02*
X032525Y005502D01*
X032367Y005661D02*
X030182Y005661D01*
X030072Y005819D02*
X032208Y005819D01*
X032050Y005978D02*
X030360Y005978D01*
X030519Y006136D02*
X031980Y006136D01*
X031980Y006295D02*
X030677Y006295D01*
X030836Y006453D02*
X031980Y006453D01*
X031980Y006612D02*
X030994Y006612D01*
X031153Y006770D02*
X031980Y006770D01*
X031980Y006929D02*
X031311Y006929D01*
X031470Y007087D02*
X031980Y007087D01*
X031980Y007246D02*
X031628Y007246D01*
X031787Y007404D02*
X031980Y007404D01*
X031380Y007563D02*
X028530Y007563D01*
X028530Y007721D02*
X031538Y007721D01*
X031575Y007880D02*
X028530Y007880D01*
X028530Y008038D02*
X031685Y008038D01*
X031581Y008197D02*
X028530Y008197D01*
X028530Y008355D02*
X031156Y008355D01*
X031110Y008514D02*
X028530Y008514D01*
X028530Y008672D02*
X031142Y008672D01*
X031319Y008831D02*
X028530Y008831D01*
X028530Y008989D02*
X031650Y008989D01*
X031610Y008831D02*
X031541Y008831D01*
X031860Y009148D02*
X028530Y009148D01*
X028530Y009306D02*
X039250Y009306D01*
X039250Y009148D02*
X032000Y009148D01*
X032210Y008989D02*
X039250Y008989D01*
X039250Y008831D02*
X032250Y008831D01*
X033972Y009885D02*
X034161Y009697D01*
X034391Y009564D01*
X034648Y009495D01*
X034914Y009495D01*
X035171Y009564D01*
X035401Y009697D01*
X035589Y009885D01*
X035722Y010115D01*
X035791Y010372D01*
X035791Y010638D01*
X035722Y010895D01*
X035589Y011125D01*
X035401Y011313D01*
X035171Y011446D01*
X034914Y011515D01*
X034648Y011515D01*
X034391Y011446D01*
X034161Y011313D01*
X033972Y011125D01*
X033839Y010895D01*
X033771Y010638D01*
X033771Y010372D01*
X033839Y010115D01*
X033972Y009885D01*
X033941Y009940D02*
X028530Y009940D01*
X028530Y009782D02*
X034076Y009782D01*
X034288Y009623D02*
X028530Y009623D01*
X028530Y009465D02*
X039250Y009465D01*
X039250Y009623D02*
X037675Y009623D01*
X037642Y009602D02*
X037740Y009664D01*
X037830Y009736D01*
X037912Y009818D01*
X037984Y009908D01*
X038046Y010006D01*
X038096Y010110D01*
X038134Y010219D01*
X038160Y010332D01*
X038170Y010425D01*
X037223Y010425D01*
X037223Y010585D01*
X038170Y010585D01*
X038160Y010678D01*
X038134Y010791D01*
X038096Y010900D01*
X038046Y011004D01*
X037984Y011102D01*
X037912Y011192D01*
X037830Y011274D01*
X037740Y011346D01*
X037642Y011408D01*
X037538Y011458D01*
X037428Y011496D01*
X037316Y011522D01*
X037223Y011533D01*
X037223Y010585D01*
X037063Y010585D01*
X037063Y011533D01*
X036970Y011522D01*
X036857Y011496D01*
X036748Y011458D01*
X036644Y011408D01*
X036546Y011346D01*
X036455Y011274D01*
X036374Y011192D01*
X036302Y011102D01*
X036240Y011004D01*
X036190Y010900D01*
X036152Y010791D01*
X036126Y010678D01*
X036115Y010585D01*
X037063Y010585D01*
X037063Y010425D01*
X037223Y010425D01*
X037223Y009477D01*
X037316Y009488D01*
X037428Y009514D01*
X037538Y009552D01*
X037642Y009602D01*
X037876Y009782D02*
X039250Y009782D01*
X039250Y009940D02*
X038004Y009940D01*
X038090Y010099D02*
X038489Y010099D01*
X038522Y010088D02*
X038594Y010076D01*
X038630Y010076D01*
X038666Y010076D01*
X038738Y010088D01*
X038807Y010110D01*
X038871Y010143D01*
X038930Y010185D01*
X038981Y010237D01*
X039023Y010295D01*
X039056Y010360D01*
X039079Y010429D01*
X039090Y010500D01*
X039090Y010536D01*
X038630Y010536D01*
X038630Y010076D01*
X038630Y010536D01*
X038630Y010536D01*
X038170Y010536D01*
X038170Y010500D01*
X038181Y010429D01*
X038204Y010360D01*
X038237Y010295D01*
X038279Y010237D01*
X038330Y010185D01*
X038389Y010143D01*
X038453Y010110D01*
X038522Y010088D01*
X038630Y010099D02*
X038630Y010099D01*
X038771Y010099D02*
X039250Y010099D01*
X039250Y010257D02*
X038996Y010257D01*
X039074Y010416D02*
X039250Y010416D01*
X039250Y010574D02*
X039090Y010574D01*
X039090Y010573D02*
X039079Y010644D01*
X039056Y010713D01*
X039023Y010777D01*
X038981Y010836D01*
X038930Y010887D01*
X038871Y010930D01*
X038852Y010939D01*
X038879Y010951D01*
X039003Y011074D01*
X039070Y011236D01*
X039070Y011411D01*
X039003Y011573D01*
X038879Y011697D01*
X038718Y011764D01*
X038542Y011764D01*
X038381Y011697D01*
X038257Y011573D01*
X038190Y011411D01*
X038190Y011236D01*
X038257Y011074D01*
X038381Y010951D01*
X038408Y010939D01*
X038389Y010930D01*
X038330Y010887D01*
X038279Y010836D01*
X038237Y010777D01*
X038204Y010713D01*
X038181Y010644D01*
X038170Y010573D01*
X038170Y010536D01*
X038630Y010536D01*
X038630Y010536D01*
X038630Y010536D01*
X039090Y010536D01*
X039090Y010573D01*
X039046Y010733D02*
X039250Y010733D01*
X039250Y010891D02*
X038924Y010891D01*
X038978Y011050D02*
X039250Y011050D01*
X039250Y011208D02*
X039058Y011208D01*
X039070Y011367D02*
X039250Y011367D01*
X039250Y011525D02*
X039023Y011525D01*
X038892Y011684D02*
X039250Y011684D01*
X039250Y011842D02*
X036856Y011842D01*
X036865Y011856D02*
X036803Y011758D01*
X036731Y011668D01*
X036649Y011586D01*
X036559Y011514D01*
X036461Y011452D01*
X036357Y011402D01*
X036247Y011364D01*
X036135Y011338D01*
X036042Y011328D01*
X036042Y012275D01*
X035882Y012275D01*
X035882Y011328D01*
X035789Y011338D01*
X035676Y011364D01*
X035567Y011402D01*
X035463Y011452D01*
X035365Y011514D01*
X035274Y011586D01*
X035193Y011668D01*
X035120Y011758D01*
X035059Y011856D01*
X035009Y011961D01*
X034970Y012070D01*
X034945Y012183D01*
X034934Y012275D01*
X035882Y012275D01*
X035882Y012435D01*
X034934Y012435D01*
X034945Y012528D01*
X034970Y012641D01*
X035009Y012750D01*
X035059Y012854D01*
X035120Y012952D01*
X033111Y012952D01*
X033111Y012951D02*
X032994Y013000D01*
X032866Y013000D01*
X032749Y012951D01*
X032659Y012861D01*
X032610Y012744D01*
X032610Y012616D01*
X032659Y012499D01*
X032730Y012427D01*
X032730Y011883D01*
X032659Y011811D01*
X032610Y011694D01*
X032610Y011566D01*
X032659Y011449D01*
X032749Y011359D01*
X032866Y011310D01*
X032994Y011310D01*
X033111Y011359D01*
X033201Y011449D01*
X033250Y011566D01*
X033250Y011694D01*
X033201Y011811D01*
X033130Y011883D01*
X033130Y012427D01*
X033201Y012499D01*
X033250Y012616D01*
X033250Y012744D01*
X033201Y012861D01*
X033111Y012951D01*
X033230Y012793D02*
X035029Y012793D01*
X034969Y012635D02*
X033250Y012635D01*
X033179Y012476D02*
X034939Y012476D01*
X034950Y012159D02*
X033130Y012159D01*
X033130Y012001D02*
X034995Y012001D01*
X035068Y011842D02*
X033171Y011842D01*
X033250Y011684D02*
X035180Y011684D01*
X035351Y011525D02*
X033233Y011525D01*
X033119Y011367D02*
X034253Y011367D01*
X034055Y011208D02*
X028530Y011208D01*
X028530Y011050D02*
X033929Y011050D01*
X033838Y010891D02*
X028530Y010891D01*
X028530Y010733D02*
X033796Y010733D01*
X033771Y010574D02*
X028530Y010574D01*
X028530Y010416D02*
X033771Y010416D01*
X033801Y010257D02*
X028530Y010257D01*
X028530Y010099D02*
X033849Y010099D01*
X035273Y009623D02*
X036611Y009623D01*
X036644Y009602D02*
X036748Y009552D01*
X036857Y009514D01*
X036970Y009488D01*
X037063Y009477D01*
X037063Y010425D01*
X036115Y010425D01*
X036126Y010332D01*
X036152Y010219D01*
X036190Y010110D01*
X036240Y010006D01*
X036302Y009908D01*
X036374Y009818D01*
X036455Y009736D01*
X036546Y009664D01*
X036644Y009602D01*
X036410Y009782D02*
X035486Y009782D01*
X035621Y009940D02*
X036281Y009940D01*
X036195Y010099D02*
X035712Y010099D01*
X035760Y010257D02*
X036143Y010257D01*
X036116Y010416D02*
X035791Y010416D01*
X035791Y010574D02*
X037063Y010574D01*
X037063Y010416D02*
X037223Y010416D01*
X037223Y010574D02*
X038170Y010574D01*
X038169Y010416D02*
X038186Y010416D01*
X038143Y010257D02*
X038264Y010257D01*
X038630Y010257D02*
X038630Y010257D01*
X038630Y010416D02*
X038630Y010416D01*
X038214Y010733D02*
X038147Y010733D01*
X038099Y010891D02*
X038336Y010891D01*
X038282Y011050D02*
X038017Y011050D01*
X037896Y011208D02*
X038202Y011208D01*
X038190Y011367D02*
X037708Y011367D01*
X037289Y011525D02*
X038237Y011525D01*
X038368Y011684D02*
X036743Y011684D01*
X036865Y011856D02*
X036915Y011961D01*
X036953Y012070D01*
X036979Y012183D01*
X036989Y012275D01*
X036042Y012275D01*
X036042Y012435D01*
X036989Y012435D01*
X036979Y012528D01*
X036953Y012641D01*
X036915Y012750D01*
X036865Y012854D01*
X036803Y012952D01*
X036731Y013043D01*
X036649Y013125D01*
X036559Y013197D01*
X036461Y013258D01*
X036357Y013308D01*
X036247Y013347D01*
X036135Y013372D01*
X036042Y013383D01*
X036042Y012435D01*
X035882Y012435D01*
X035882Y013383D01*
X035789Y013372D01*
X035676Y013347D01*
X035567Y013308D01*
X035463Y013258D01*
X035365Y013197D01*
X035274Y013125D01*
X035193Y013043D01*
X035120Y012952D01*
X035044Y013010D02*
X035161Y013059D01*
X035251Y013149D01*
X035300Y013266D01*
X035300Y013367D01*
X035593Y013660D01*
X035694Y013660D01*
X035811Y013709D01*
X035901Y013799D01*
X035950Y013916D01*
X035950Y014044D01*
X035901Y014161D01*
X035811Y014251D01*
X035694Y014300D01*
X035566Y014300D01*
X035449Y014251D01*
X035359Y014161D01*
X035310Y014044D01*
X035310Y013943D01*
X035017Y013650D01*
X034916Y013650D01*
X034799Y013601D01*
X034709Y013511D01*
X034660Y013394D01*
X034660Y013266D01*
X034709Y013149D01*
X034799Y013059D01*
X034916Y013010D01*
X035044Y013010D01*
X035213Y013110D02*
X035260Y013110D01*
X035300Y013269D02*
X035484Y013269D01*
X035360Y013427D02*
X039250Y013427D01*
X039250Y013269D02*
X036440Y013269D01*
X036664Y013110D02*
X039250Y013110D01*
X039250Y012952D02*
X036804Y012952D01*
X036894Y012793D02*
X039250Y012793D01*
X039250Y012635D02*
X036955Y012635D01*
X036985Y012476D02*
X039250Y012476D01*
X039250Y012318D02*
X036042Y012318D01*
X036042Y012476D02*
X035882Y012476D01*
X035882Y012318D02*
X033130Y012318D01*
X032730Y012318D02*
X028870Y012318D01*
X028950Y012476D02*
X032681Y012476D01*
X032610Y012635D02*
X028933Y012635D01*
X028830Y012793D02*
X032630Y012793D01*
X032749Y012952D02*
X028830Y012952D01*
X028830Y013110D02*
X034747Y013110D01*
X034660Y013269D02*
X028830Y013269D01*
X028830Y013427D02*
X034674Y013427D01*
X034783Y013586D02*
X028757Y013586D01*
X028599Y013744D02*
X035111Y013744D01*
X035270Y013903D02*
X028440Y013903D01*
X028282Y014061D02*
X035317Y014061D01*
X035417Y014220D02*
X028123Y014220D01*
X027965Y014378D02*
X039250Y014378D01*
X039250Y014220D02*
X035843Y014220D01*
X035943Y014061D02*
X039250Y014061D01*
X039250Y013903D02*
X035944Y013903D01*
X035847Y013744D02*
X039250Y013744D01*
X039250Y013586D02*
X035518Y013586D01*
X035882Y013269D02*
X036042Y013269D01*
X036042Y013110D02*
X035882Y013110D01*
X035882Y012952D02*
X036042Y012952D01*
X036042Y012793D02*
X035882Y012793D01*
X035882Y012635D02*
X036042Y012635D01*
X036042Y012159D02*
X035882Y012159D01*
X035882Y012001D02*
X036042Y012001D01*
X036042Y011842D02*
X035882Y011842D01*
X035882Y011684D02*
X036042Y011684D01*
X036042Y011525D02*
X035882Y011525D01*
X035882Y011367D02*
X036042Y011367D01*
X036254Y011367D02*
X036578Y011367D01*
X036573Y011525D02*
X036996Y011525D01*
X037063Y011525D02*
X037223Y011525D01*
X037223Y011367D02*
X037063Y011367D01*
X037063Y011208D02*
X037223Y011208D01*
X037223Y011050D02*
X037063Y011050D01*
X037063Y010891D02*
X037223Y010891D01*
X037223Y010733D02*
X037063Y010733D01*
X037063Y010257D02*
X037223Y010257D01*
X037223Y010099D02*
X037063Y010099D01*
X037063Y009940D02*
X037223Y009940D01*
X037223Y009782D02*
X037063Y009782D01*
X037063Y009623D02*
X037223Y009623D01*
X036138Y010733D02*
X035765Y010733D01*
X035723Y010891D02*
X036187Y010891D01*
X036269Y011050D02*
X035633Y011050D01*
X035506Y011208D02*
X036389Y011208D01*
X035669Y011367D02*
X035308Y011367D01*
X036929Y012001D02*
X039250Y012001D01*
X039250Y012159D02*
X036973Y012159D01*
X032730Y012159D02*
X028623Y012159D01*
X028650Y012001D02*
X032730Y012001D01*
X032689Y011842D02*
X028595Y011842D01*
X028530Y011684D02*
X032610Y011684D01*
X032627Y011525D02*
X028530Y011525D01*
X028530Y011367D02*
X032741Y011367D01*
X028430Y012793D02*
X027650Y012793D01*
X027780Y012635D02*
X028327Y012635D01*
X028310Y012476D02*
X027780Y012476D01*
X027780Y012318D02*
X028188Y012318D01*
X028037Y012159D02*
X027780Y012159D01*
X027780Y012001D02*
X028010Y012001D01*
X028065Y011842D02*
X027780Y011842D01*
X027780Y011684D02*
X028130Y011684D01*
X028130Y011525D02*
X027780Y011525D01*
X027649Y011367D02*
X028130Y011367D01*
X028130Y011208D02*
X027530Y011208D01*
X027606Y011050D02*
X028130Y011050D01*
X028130Y010891D02*
X027650Y010891D01*
X027615Y010733D02*
X028130Y010733D01*
X028130Y010574D02*
X027530Y010574D01*
X027530Y010416D02*
X028130Y010416D01*
X028130Y010257D02*
X027530Y010257D01*
X027530Y010099D02*
X028130Y010099D01*
X028130Y009940D02*
X027530Y009940D01*
X027414Y009782D02*
X028130Y009782D01*
X028130Y009623D02*
X027256Y009623D01*
X027097Y009465D02*
X028130Y009465D01*
X028130Y009306D02*
X026589Y009306D01*
X026430Y009148D02*
X028130Y009148D01*
X028130Y008989D02*
X026272Y008989D01*
X026278Y008831D02*
X026113Y008831D01*
X026210Y008672D02*
X025980Y008672D01*
X026129Y008514D02*
X026232Y008514D01*
X026288Y008355D02*
X026330Y008355D01*
X026330Y008197D02*
X026330Y008197D01*
X026330Y008038D02*
X026330Y008038D01*
X026330Y007880D02*
X026330Y007880D01*
X026330Y007721D02*
X026330Y007721D01*
X026330Y007563D02*
X026330Y007563D01*
X026330Y007404D02*
X026287Y007404D01*
X026330Y007246D02*
X026128Y007246D01*
X025970Y007087D02*
X026330Y007087D01*
X026276Y006929D02*
X025811Y006929D01*
X025653Y006770D02*
X026210Y006770D01*
X026129Y006612D02*
X025951Y006612D01*
X025509Y006612D02*
X025494Y006612D01*
X025414Y006453D02*
X025380Y006453D01*
X025380Y006295D02*
X025419Y006295D01*
X025380Y006136D02*
X025521Y006136D01*
X025530Y005978D02*
X025380Y005978D01*
X025380Y005819D02*
X025530Y005819D01*
X025530Y005661D02*
X025380Y005661D01*
X025380Y005502D02*
X025530Y005502D01*
X025530Y005344D02*
X025380Y005344D01*
X025380Y005185D02*
X025530Y005185D01*
X025530Y005027D02*
X025380Y005027D01*
X025380Y004868D02*
X025530Y004868D01*
X025530Y004710D02*
X025380Y004710D01*
X026130Y004868D02*
X026189Y004868D01*
X028428Y005185D02*
X029392Y005185D01*
X028917Y005661D02*
X028313Y005661D01*
X028400Y005819D02*
X028758Y005819D01*
X028690Y006453D02*
X028824Y006453D01*
X028666Y006612D02*
X028531Y006612D01*
X028507Y006770D02*
X028373Y006770D01*
X028349Y006929D02*
X028214Y006929D01*
X028190Y007087D02*
X028056Y007087D01*
X028130Y007246D02*
X027897Y007246D01*
X027739Y007404D02*
X028130Y007404D01*
X028130Y007563D02*
X027580Y007563D01*
X027422Y007721D02*
X028130Y007721D01*
X028130Y007880D02*
X027330Y007880D01*
X027330Y008038D02*
X028130Y008038D01*
X028130Y008197D02*
X027330Y008197D01*
X027358Y008355D02*
X028130Y008355D01*
X028130Y008514D02*
X027449Y008514D01*
X027438Y008672D02*
X028130Y008672D01*
X028130Y008831D02*
X027332Y008831D01*
X026928Y008831D02*
X026782Y008831D01*
X025865Y009148D02*
X025430Y009148D01*
X025589Y009306D02*
X026023Y009306D01*
X026182Y009465D02*
X025747Y009465D01*
X025906Y009623D02*
X026340Y009623D01*
X026499Y009782D02*
X026064Y009782D01*
X026393Y009940D02*
X026567Y009940D01*
X026467Y010099D02*
X026450Y010099D01*
X026669Y010574D02*
X027130Y010574D01*
X027130Y010416D02*
X026997Y010416D01*
X027094Y010257D02*
X027130Y010257D01*
X027130Y010099D02*
X027093Y010099D01*
X027007Y009940D02*
X026993Y009940D01*
X027045Y010733D02*
X026510Y010733D01*
X026424Y010891D02*
X027010Y010891D01*
X027054Y011050D02*
X026582Y011050D01*
X026741Y011208D02*
X027130Y011208D01*
X027130Y011367D02*
X026899Y011367D01*
X027228Y011525D02*
X027242Y011525D01*
X027336Y011684D02*
X027380Y011684D01*
X027380Y011842D02*
X027350Y011842D01*
X027380Y012001D02*
X027262Y012001D01*
X027262Y012159D02*
X027380Y012159D01*
X027380Y012318D02*
X027350Y012318D01*
X027337Y012476D02*
X027380Y012476D01*
X027243Y012635D02*
X027228Y012635D01*
X027084Y012793D02*
X019750Y012793D01*
X019908Y012635D02*
X026832Y012635D01*
X026926Y012952D02*
X019591Y012952D01*
X019433Y013110D02*
X026767Y013110D01*
X026609Y013269D02*
X019274Y013269D01*
X019200Y013427D02*
X024030Y013427D01*
X023910Y013616D02*
X023910Y013744D01*
X024000Y013903D02*
X018740Y013903D01*
X018582Y014061D02*
X024030Y014061D01*
X024030Y014220D02*
X018423Y014220D01*
X018473Y014378D02*
X018265Y014378D01*
X018309Y014499D02*
X018399Y014409D01*
X018516Y014360D01*
X018644Y014360D01*
X018761Y014409D01*
X018851Y014499D01*
X018900Y014616D01*
X018900Y014744D01*
X018851Y014861D01*
X018761Y014951D01*
X018644Y015000D01*
X018543Y015000D01*
X017325Y016218D01*
X017346Y016269D01*
X017346Y016491D01*
X017261Y016697D01*
X017103Y016855D01*
X016897Y016940D01*
X016675Y016940D01*
X016469Y016855D01*
X016311Y016697D01*
X016226Y016491D01*
X016226Y016269D01*
X016311Y016063D01*
X016469Y015905D01*
X016675Y015820D01*
X016897Y015820D01*
X017081Y015896D01*
X018260Y014717D01*
X018260Y014616D01*
X018309Y014499D01*
X018293Y014537D02*
X018106Y014537D01*
X018260Y014695D02*
X017948Y014695D01*
X017789Y014854D02*
X018124Y014854D01*
X017965Y015012D02*
X017631Y015012D01*
X017472Y015171D02*
X017807Y015171D01*
X017648Y015329D02*
X017314Y015329D01*
X017155Y015488D02*
X017490Y015488D01*
X017331Y015646D02*
X016997Y015646D01*
X017173Y015805D02*
X016338Y015805D01*
X016411Y015963D02*
X016180Y015963D01*
X016287Y016122D02*
X016021Y016122D01*
X015968Y016280D02*
X016226Y016280D01*
X016226Y016439D02*
X015968Y016439D01*
X015924Y016597D02*
X016270Y016597D01*
X016369Y016756D02*
X015824Y016756D01*
X015582Y016914D02*
X016612Y016914D01*
X016960Y016914D02*
X017990Y016914D01*
X018052Y016940D02*
X017847Y016855D01*
X017689Y016697D01*
X017604Y016491D01*
X017604Y016269D01*
X017689Y016063D01*
X017847Y015905D01*
X018052Y015820D01*
X018275Y015820D01*
X018481Y015905D01*
X018639Y016063D01*
X018724Y016269D01*
X018724Y016491D01*
X018639Y016697D01*
X018481Y016855D01*
X018275Y016940D01*
X018052Y016940D01*
X018338Y016914D02*
X019368Y016914D01*
X019430Y016940D02*
X019225Y016855D01*
X019067Y016697D01*
X018982Y016491D01*
X018982Y016269D01*
X019067Y016063D01*
X019225Y015905D01*
X019430Y015820D01*
X019653Y015820D01*
X019859Y015905D01*
X020017Y016063D01*
X020102Y016269D01*
X020102Y016491D01*
X020017Y016697D01*
X019859Y016855D01*
X019653Y016940D01*
X019430Y016940D01*
X019716Y016914D02*
X020746Y016914D01*
X020808Y016940D02*
X020603Y016855D01*
X020445Y016697D01*
X020360Y016491D01*
X020360Y016269D01*
X020445Y016063D01*
X020603Y015905D01*
X020808Y015820D01*
X021031Y015820D01*
X021237Y015905D01*
X021395Y016063D01*
X021480Y016269D01*
X021480Y016491D01*
X021395Y016697D01*
X021237Y016855D01*
X021031Y016940D01*
X020808Y016940D01*
X021094Y016914D02*
X022124Y016914D01*
X022186Y016940D02*
X021981Y016855D01*
X021823Y016697D01*
X021738Y016491D01*
X021738Y016269D01*
X021823Y016063D01*
X021981Y015905D01*
X022186Y015820D01*
X022409Y015820D01*
X022615Y015905D01*
X022772Y016063D01*
X022858Y016269D01*
X022858Y016491D01*
X022772Y016697D01*
X022615Y016855D01*
X022409Y016940D01*
X022186Y016940D01*
X022472Y016914D02*
X023502Y016914D01*
X023259Y016756D02*
X022714Y016756D01*
X022814Y016597D02*
X023159Y016597D01*
X023116Y016439D02*
X022858Y016439D01*
X022858Y016280D02*
X023116Y016280D01*
X023177Y016122D02*
X022797Y016122D01*
X022673Y015963D02*
X023301Y015963D01*
X024030Y015805D02*
X017738Y015805D01*
X017789Y015963D02*
X017580Y015963D01*
X017665Y016122D02*
X017421Y016122D01*
X017346Y016280D02*
X017604Y016280D01*
X017604Y016439D02*
X017346Y016439D01*
X017302Y016597D02*
X017648Y016597D01*
X017747Y016756D02*
X017202Y016756D01*
X018580Y016756D02*
X019125Y016756D01*
X019026Y016597D02*
X018680Y016597D01*
X018724Y016439D02*
X018982Y016439D01*
X018982Y016280D02*
X018724Y016280D01*
X018663Y016122D02*
X019043Y016122D01*
X019167Y015963D02*
X018539Y015963D01*
X017897Y015646D02*
X024030Y015646D01*
X024030Y015488D02*
X018055Y015488D01*
X018214Y015329D02*
X024030Y015329D01*
X024030Y015171D02*
X018372Y015171D01*
X018531Y015012D02*
X024030Y015012D01*
X024030Y014854D02*
X018854Y014854D01*
X018900Y014695D02*
X024030Y014695D01*
X024030Y014537D02*
X018867Y014537D01*
X018687Y014378D02*
X024030Y014378D01*
X024430Y014378D02*
X027399Y014378D01*
X027241Y014537D02*
X024430Y014537D01*
X024430Y014695D02*
X027082Y014695D01*
X026924Y014854D02*
X024430Y014854D01*
X024430Y015012D02*
X026765Y015012D01*
X026607Y015171D02*
X024430Y015171D01*
X024430Y015329D02*
X026448Y015329D01*
X026290Y015488D02*
X024430Y015488D01*
X024430Y015646D02*
X026131Y015646D01*
X025973Y015805D02*
X024430Y015805D01*
X024430Y015963D02*
X024679Y015963D01*
X024555Y016122D02*
X024430Y016122D01*
X024463Y016280D02*
X024494Y016280D01*
X024214Y016597D02*
X024192Y016597D01*
X024092Y016756D02*
X024373Y016756D01*
X024531Y016914D02*
X023850Y016914D01*
X024690Y017073D02*
X012172Y017073D01*
X012166Y017109D02*
X012140Y017191D01*
X012100Y017268D01*
X012050Y017338D01*
X011988Y017400D01*
X011918Y017450D01*
X011841Y017490D01*
X011759Y017516D01*
X011673Y017530D01*
X011630Y017530D01*
X011630Y016980D01*
X012180Y016980D01*
X012180Y017023D01*
X012166Y017109D01*
X012180Y016980D02*
X011630Y016980D01*
X011630Y016980D01*
X011630Y016980D01*
X011630Y016980D01*
X011080Y016980D01*
X011080Y017023D01*
X011094Y017109D01*
X011120Y017191D01*
X011160Y017268D01*
X011210Y017338D01*
X011272Y017400D01*
X011342Y017450D01*
X011419Y017490D01*
X011501Y017516D01*
X011587Y017530D01*
X011630Y017530D01*
X011630Y016980D01*
X011080Y016980D01*
X011080Y016937D01*
X011094Y016851D01*
X011120Y016769D01*
X011160Y016692D01*
X011210Y016622D01*
X011272Y016560D01*
X011342Y016510D01*
X011419Y016470D01*
X011424Y016469D01*
X011330Y016429D01*
X011181Y016280D01*
X011100Y016085D01*
X011100Y015875D01*
X011181Y015680D01*
X011330Y015531D01*
X011525Y015450D01*
X011735Y015450D01*
X011930Y015531D01*
X012079Y015680D01*
X012160Y015875D01*
X012160Y016085D01*
X012079Y016280D01*
X011930Y016429D01*
X011836Y016469D01*
X011841Y016470D01*
X011918Y016510D01*
X011988Y016560D01*
X012050Y016622D01*
X012100Y016692D01*
X012140Y016769D01*
X012166Y016851D01*
X012180Y016937D01*
X012180Y016980D01*
X012176Y016914D02*
X013509Y016914D01*
X013519Y016924D02*
X013486Y016891D01*
X013462Y016849D01*
X013450Y016804D01*
X013450Y016418D01*
X013992Y016418D01*
X013992Y016342D01*
X014068Y016342D01*
X014068Y016418D01*
X014610Y016418D01*
X014610Y016804D01*
X014598Y016849D01*
X014574Y016891D01*
X014541Y016924D01*
X014499Y016948D01*
X014454Y016960D01*
X014068Y016960D01*
X014068Y016418D01*
X013992Y016418D01*
X013992Y016960D01*
X013606Y016960D01*
X013561Y016948D01*
X013519Y016924D01*
X013450Y016756D02*
X012133Y016756D01*
X012025Y016597D02*
X013450Y016597D01*
X013450Y016439D02*
X011908Y016439D01*
X012079Y016280D02*
X013450Y016280D01*
X013450Y016342D02*
X013450Y015956D01*
X013462Y015911D01*
X013486Y015869D01*
X013519Y015836D01*
X013561Y015812D01*
X013606Y015800D01*
X013992Y015800D01*
X013992Y016342D01*
X013450Y016342D01*
X013450Y016122D02*
X012145Y016122D01*
X012160Y015963D02*
X013450Y015963D01*
X013589Y015805D02*
X012131Y015805D01*
X012046Y015646D02*
X015931Y015646D01*
X015773Y015805D02*
X014471Y015805D01*
X014454Y015800D02*
X014499Y015812D01*
X014541Y015836D01*
X014574Y015869D01*
X014598Y015911D01*
X014610Y015956D01*
X014610Y016342D01*
X014068Y016342D01*
X014068Y015800D01*
X014454Y015800D01*
X014610Y015963D02*
X015033Y015963D01*
X014909Y016122D02*
X014610Y016122D01*
X014610Y016280D02*
X014848Y016280D01*
X014848Y016439D02*
X014610Y016439D01*
X014610Y016597D02*
X014892Y016597D01*
X014992Y016756D02*
X014610Y016756D01*
X014551Y016914D02*
X015234Y016914D01*
X014068Y016914D02*
X013992Y016914D01*
X013992Y016756D02*
X014068Y016756D01*
X014068Y016597D02*
X013992Y016597D01*
X013992Y016439D02*
X014068Y016439D01*
X014068Y016280D02*
X013992Y016280D01*
X013992Y016122D02*
X014068Y016122D01*
X014068Y015963D02*
X013992Y015963D01*
X013992Y015805D02*
X014068Y015805D01*
X013234Y015329D02*
X016748Y015329D01*
X016907Y015171D02*
X013300Y015171D01*
X013381Y015012D02*
X017065Y015012D01*
X017224Y014854D02*
X013539Y014854D01*
X013698Y014695D02*
X017382Y014695D01*
X017541Y014537D02*
X013856Y014537D01*
X014015Y014378D02*
X017699Y014378D01*
X017858Y014220D02*
X014173Y014220D01*
X014332Y014061D02*
X018016Y014061D01*
X018175Y013903D02*
X014490Y013903D01*
X014649Y013744D02*
X018333Y013744D01*
X018492Y013586D02*
X014807Y013586D01*
X014966Y013427D02*
X018560Y013427D01*
X018805Y012952D02*
X010541Y012952D01*
X010383Y013110D02*
X014717Y013110D01*
X014559Y013269D02*
X010224Y013269D01*
X010066Y013427D02*
X014400Y013427D01*
X014242Y013586D02*
X009853Y013586D01*
X009969Y013744D02*
X013513Y013744D01*
X013947Y013744D02*
X014083Y013744D01*
X013517Y014220D02*
X010773Y014220D01*
X010615Y014378D02*
X013449Y014378D01*
X013291Y014537D02*
X010456Y014537D01*
X010298Y014695D02*
X013132Y014695D01*
X012811Y014854D02*
X010139Y014854D01*
X009981Y015012D02*
X012683Y015012D01*
X012660Y015171D02*
X009822Y015171D01*
X009664Y015329D02*
X012726Y015329D01*
X011826Y015488D02*
X016090Y015488D01*
X019917Y015963D02*
X020545Y015963D01*
X020421Y016122D02*
X020041Y016122D01*
X020102Y016280D02*
X020360Y016280D01*
X020360Y016439D02*
X020102Y016439D01*
X020058Y016597D02*
X020404Y016597D01*
X020503Y016756D02*
X019958Y016756D01*
X021336Y016756D02*
X021881Y016756D01*
X021781Y016597D02*
X021436Y016597D01*
X021480Y016439D02*
X021738Y016439D01*
X021738Y016280D02*
X021480Y016280D01*
X021419Y016122D02*
X021799Y016122D01*
X021923Y015963D02*
X021295Y015963D01*
X024430Y014220D02*
X027558Y014220D01*
X027716Y014061D02*
X024430Y014061D01*
X024460Y013903D02*
X026352Y013903D01*
X026708Y013903D02*
X027875Y013903D01*
X028033Y013744D02*
X026829Y013744D01*
X026857Y013586D02*
X028192Y013586D01*
X028350Y013427D02*
X027016Y013427D01*
X027174Y013269D02*
X028430Y013269D01*
X028430Y013110D02*
X027333Y013110D01*
X027491Y012952D02*
X028430Y012952D01*
X026918Y012080D02*
X026849Y012051D01*
X026759Y011961D01*
X026710Y011844D01*
X026710Y011743D01*
X026105Y011138D01*
X026050Y011193D01*
X026050Y011294D01*
X026001Y011411D01*
X025911Y011501D01*
X025794Y011550D01*
X025666Y011550D01*
X025549Y011501D01*
X025477Y011430D01*
X025447Y011430D01*
X024124Y010107D01*
X024101Y010161D01*
X024098Y010165D01*
X025613Y011680D01*
X025730Y011797D01*
X025730Y011947D01*
X025963Y012180D01*
X026777Y012180D01*
X026849Y012109D01*
X026918Y012080D01*
X026798Y012159D02*
X025942Y012159D01*
X025783Y012001D02*
X026798Y012001D01*
X026710Y011842D02*
X025730Y011842D01*
X025616Y011684D02*
X026651Y011684D01*
X026492Y011525D02*
X025854Y011525D01*
X026020Y011367D02*
X026334Y011367D01*
X026175Y011208D02*
X026050Y011208D01*
X025384Y011367D02*
X025299Y011367D01*
X025225Y011208D02*
X025141Y011208D01*
X025067Y011050D02*
X024982Y011050D01*
X024908Y010891D02*
X024824Y010891D01*
X024750Y010733D02*
X024665Y010733D01*
X024591Y010574D02*
X024507Y010574D01*
X024433Y010416D02*
X024348Y010416D01*
X024274Y010257D02*
X024190Y010257D01*
X023941Y010574D02*
X021780Y010574D01*
X021780Y010416D02*
X023783Y010416D01*
X023630Y010257D02*
X021874Y010257D01*
X021900Y010099D02*
X023533Y010099D01*
X023510Y009940D02*
X021843Y009940D01*
X021511Y009782D02*
X023356Y009782D01*
X023201Y009623D02*
X021670Y009623D01*
X021828Y009465D02*
X023046Y009465D01*
X022891Y009306D02*
X021987Y009306D01*
X022130Y009148D02*
X022736Y009148D01*
X022581Y008989D02*
X022130Y008989D01*
X022130Y008831D02*
X022426Y008831D01*
X022271Y008672D02*
X022130Y008672D01*
X024004Y007721D02*
X024471Y007721D01*
X024577Y007880D02*
X024162Y007880D01*
X024321Y008038D02*
X024772Y008038D01*
X024761Y008197D02*
X024479Y008197D01*
X024638Y008355D02*
X024852Y008355D01*
X024796Y008514D02*
X025580Y008514D01*
X025580Y008672D02*
X024955Y008672D01*
X025113Y008831D02*
X025580Y008831D01*
X025706Y008989D02*
X025272Y008989D01*
X025308Y008355D02*
X025722Y008355D01*
X025857Y008197D02*
X025881Y008197D01*
X025900Y008038D02*
X025930Y008038D01*
X025930Y007880D02*
X025864Y007880D01*
X025889Y007721D02*
X025930Y007721D01*
X024260Y007563D02*
X023845Y007563D01*
X023687Y007404D02*
X024164Y007404D01*
X024113Y007246D02*
X023528Y007246D01*
X023954Y007087D02*
X022100Y007087D01*
X022125Y006929D02*
X023796Y006929D01*
X023637Y006770D02*
X022257Y006770D01*
X022551Y006612D02*
X023479Y006612D01*
X023320Y006453D02*
X022600Y006453D01*
X022570Y006295D02*
X023162Y006295D01*
X023003Y006136D02*
X022406Y006136D01*
X022154Y006136D02*
X021127Y006136D01*
X021227Y006295D02*
X021990Y006295D01*
X021960Y006453D02*
X021330Y006453D01*
X021330Y006612D02*
X021868Y006612D01*
X021587Y006770D02*
X021330Y006770D01*
X021434Y006929D02*
X021476Y006929D01*
X019591Y006136D02*
X019369Y006136D01*
X019430Y006295D02*
X019433Y006295D01*
X019030Y006363D02*
X018047Y005380D01*
X017930Y005263D01*
X017930Y004863D01*
X017597Y004530D01*
X014263Y004530D01*
X013870Y004923D01*
X013870Y005212D01*
X013612Y005470D01*
X013553Y005470D01*
X014013Y005930D01*
X015097Y005930D01*
X014625Y005458D01*
X014612Y005470D01*
X014248Y005470D01*
X013990Y005212D01*
X013990Y004848D01*
X014248Y004590D01*
X014612Y004590D01*
X014870Y004848D01*
X014870Y005137D01*
X015463Y005730D01*
X015897Y005730D01*
X015625Y005458D01*
X015612Y005470D01*
X015248Y005470D01*
X014990Y005212D01*
X014990Y004848D01*
X015248Y004590D01*
X015612Y004590D01*
X015870Y004848D01*
X015870Y005137D01*
X016263Y005530D01*
X017663Y005530D01*
X017780Y005647D01*
X018793Y006660D01*
X018894Y006660D01*
X019011Y006709D01*
X019030Y006727D01*
X019030Y006363D01*
X019030Y006453D02*
X018586Y006453D01*
X018744Y006612D02*
X019030Y006612D01*
X018962Y006295D02*
X018427Y006295D01*
X018269Y006136D02*
X018803Y006136D01*
X018645Y005978D02*
X018110Y005978D01*
X017952Y005819D02*
X018486Y005819D01*
X018328Y005661D02*
X017793Y005661D01*
X017621Y005490D02*
X017430Y005490D01*
X017430Y005030D01*
X017430Y005030D01*
X017890Y005030D01*
X017890Y005221D01*
X017621Y005490D01*
X017430Y005490D02*
X017239Y005490D01*
X016970Y005221D01*
X016970Y005030D01*
X017430Y005030D01*
X017430Y005030D01*
X017430Y005030D01*
X017430Y005490D01*
X017430Y005344D02*
X017430Y005344D01*
X017430Y005185D02*
X017430Y005185D01*
X017430Y005030D02*
X016970Y005030D01*
X016970Y004839D01*
X017239Y004570D01*
X017430Y004570D01*
X017621Y004570D01*
X017890Y004839D01*
X017890Y005030D01*
X017430Y005030D01*
X017430Y004570D01*
X017430Y005030D01*
X017430Y005030D01*
X017430Y005027D02*
X017430Y005027D01*
X017430Y004868D02*
X017430Y004868D01*
X017430Y004710D02*
X017430Y004710D01*
X017618Y004551D02*
X014242Y004551D01*
X014128Y004710D02*
X014083Y004710D01*
X013990Y004868D02*
X013925Y004868D01*
X013870Y005027D02*
X013990Y005027D01*
X013990Y005185D02*
X013870Y005185D01*
X013739Y005344D02*
X014121Y005344D01*
X013585Y005502D02*
X014669Y005502D01*
X014828Y005661D02*
X013743Y005661D01*
X013902Y005819D02*
X014986Y005819D01*
X015235Y005502D02*
X015669Y005502D01*
X015828Y005661D02*
X015393Y005661D01*
X015121Y005344D02*
X015076Y005344D01*
X014990Y005185D02*
X014918Y005185D01*
X014870Y005027D02*
X014990Y005027D01*
X014990Y004868D02*
X014870Y004868D01*
X014732Y004710D02*
X015128Y004710D01*
X015732Y004710D02*
X016100Y004710D01*
X015970Y004839D02*
X016239Y004570D01*
X016430Y004570D01*
X016621Y004570D01*
X016890Y004839D01*
X016890Y005030D01*
X016890Y005221D01*
X016621Y005490D01*
X016430Y005490D01*
X016430Y005030D01*
X016430Y005030D01*
X016890Y005030D01*
X016430Y005030D01*
X016430Y005030D01*
X016430Y005030D01*
X015970Y005030D01*
X015970Y005221D01*
X016239Y005490D01*
X016430Y005490D01*
X016430Y005030D01*
X016430Y004570D01*
X016430Y005030D01*
X016430Y005030D01*
X015970Y005030D01*
X015970Y004839D01*
X015970Y004868D02*
X015870Y004868D01*
X015870Y005027D02*
X015970Y005027D01*
X015970Y005185D02*
X015918Y005185D01*
X016076Y005344D02*
X016093Y005344D01*
X016235Y005502D02*
X018169Y005502D01*
X018011Y005344D02*
X017767Y005344D01*
X017890Y005185D02*
X017930Y005185D01*
X017930Y005027D02*
X017890Y005027D01*
X017890Y004868D02*
X017930Y004868D01*
X017777Y004710D02*
X017760Y004710D01*
X018025Y004393D02*
X020135Y004393D01*
X019976Y004551D02*
X018184Y004551D01*
X018330Y004710D02*
X019818Y004710D01*
X019659Y004868D02*
X018330Y004868D01*
X018330Y005027D02*
X019501Y005027D01*
X019342Y005185D02*
X018418Y005185D01*
X018576Y005344D02*
X019184Y005344D01*
X018855Y005502D02*
X018735Y005502D01*
X019432Y005661D02*
X020067Y005661D01*
X019908Y005819D02*
X019389Y005819D01*
X019285Y005978D02*
X019750Y005978D01*
X019591Y005502D02*
X020225Y005502D01*
X020384Y005344D02*
X019749Y005344D01*
X019908Y005185D02*
X020542Y005185D01*
X020701Y005027D02*
X020066Y005027D01*
X020225Y004868D02*
X020859Y004868D01*
X021018Y004710D02*
X020383Y004710D01*
X020542Y004551D02*
X021176Y004551D01*
X021335Y004393D02*
X020870Y004393D01*
X020983Y004234D02*
X021493Y004234D01*
X021652Y004076D02*
X021000Y004076D01*
X020920Y003917D02*
X021810Y003917D01*
X021969Y003759D02*
X013030Y003759D01*
X013030Y003917D02*
X020440Y003917D01*
X020360Y004076D02*
X013030Y004076D01*
X013030Y004234D02*
X013993Y004234D01*
X013835Y004393D02*
X013030Y004393D01*
X013030Y004551D02*
X013676Y004551D01*
X013128Y004710D02*
X013030Y004710D01*
X012630Y004551D02*
X000614Y004551D01*
X000614Y004393D02*
X012630Y004393D01*
X012630Y004234D02*
X000614Y004234D01*
X000614Y004076D02*
X003085Y004076D01*
X003145Y004100D02*
X002950Y004019D01*
X002801Y003870D01*
X002720Y003675D01*
X002720Y003465D01*
X002801Y003270D01*
X002950Y003121D01*
X003145Y003040D01*
X003355Y003040D01*
X003550Y003121D01*
X003699Y003270D01*
X003780Y003465D01*
X003780Y003675D01*
X003699Y003870D01*
X003550Y004019D01*
X003355Y004100D01*
X003145Y004100D01*
X003415Y004076D02*
X005645Y004076D01*
X005705Y004100D02*
X005510Y004019D01*
X005361Y003870D01*
X005280Y003675D01*
X005280Y003465D01*
X005361Y003270D01*
X005510Y003121D01*
X005705Y003040D01*
X005915Y003040D01*
X006110Y003121D01*
X006259Y003270D01*
X006340Y003465D01*
X006340Y003675D01*
X006259Y003870D01*
X006110Y004019D01*
X005915Y004100D01*
X005705Y004100D01*
X005975Y004076D02*
X012630Y004076D01*
X012630Y003917D02*
X006213Y003917D01*
X006306Y003759D02*
X012630Y003759D01*
X012630Y003600D02*
X006340Y003600D01*
X006330Y003442D02*
X012630Y003442D01*
X012630Y003283D02*
X006265Y003283D01*
X006114Y003125D02*
X012630Y003125D01*
X012630Y002966D02*
X000614Y002966D01*
X000614Y002808D02*
X012630Y002808D01*
X013030Y002808D02*
X018470Y002808D01*
X018311Y002966D02*
X013030Y002966D01*
X013030Y003125D02*
X017983Y003125D01*
X017910Y003283D02*
X013030Y003283D01*
X013030Y003442D02*
X017930Y003442D01*
X018047Y003600D02*
X013030Y003600D01*
X013030Y002649D02*
X018628Y002649D01*
X018787Y002491D02*
X015650Y002491D01*
X015536Y002491D02*
X015460Y002491D01*
X015346Y002491D02*
X013030Y002491D01*
X013132Y002332D02*
X013730Y002332D01*
X013614Y002174D02*
X013247Y002174D01*
X013302Y002015D02*
X013560Y002015D01*
X013560Y001857D02*
X013302Y001857D01*
X013252Y001698D02*
X013610Y001698D01*
X013718Y001540D02*
X013143Y001540D01*
X012340Y001540D02*
X011765Y001540D01*
X011874Y001698D02*
X012232Y001698D01*
X012182Y001857D02*
X011924Y001857D01*
X011924Y002015D02*
X012182Y002015D01*
X012237Y002174D02*
X011869Y002174D01*
X011754Y002332D02*
X012352Y002332D01*
X010974Y002332D02*
X010376Y002332D01*
X010491Y002174D02*
X010859Y002174D01*
X010804Y002015D02*
X010546Y002015D01*
X010546Y001857D02*
X010804Y001857D01*
X010854Y001698D02*
X010496Y001698D01*
X010387Y001540D02*
X010962Y001540D01*
X009584Y001540D02*
X009009Y001540D01*
X009118Y001698D02*
X009476Y001698D01*
X009426Y001857D02*
X009168Y001857D01*
X009168Y002015D02*
X009426Y002015D01*
X009481Y002174D02*
X009113Y002174D01*
X008998Y002332D02*
X009596Y002332D01*
X007268Y002332D02*
X007192Y002332D01*
X007192Y002174D02*
X007268Y002174D01*
X007268Y002015D02*
X007192Y002015D01*
X007192Y001892D02*
X006650Y001892D01*
X006650Y001506D01*
X006662Y001461D01*
X006686Y001419D01*
X006719Y001386D01*
X006761Y001362D01*
X006806Y001350D01*
X007192Y001350D01*
X007192Y001892D01*
X007192Y001857D02*
X007268Y001857D01*
X007268Y001698D02*
X007192Y001698D01*
X007192Y001540D02*
X007268Y001540D01*
X007268Y001381D02*
X007192Y001381D01*
X006728Y001381D02*
X006179Y001381D01*
X006300Y001540D02*
X006650Y001540D01*
X006650Y001698D02*
X006352Y001698D01*
X006356Y001857D02*
X006650Y001857D01*
X006650Y002015D02*
X006313Y002015D01*
X006204Y002174D02*
X006650Y002174D01*
X007192Y002491D02*
X007268Y002491D01*
X005830Y002174D02*
X005790Y002174D01*
X005790Y002015D02*
X005830Y002015D01*
X005830Y001857D02*
X005790Y001857D01*
X005790Y001698D02*
X005830Y001698D01*
X005830Y001540D02*
X005790Y001540D01*
X005790Y001381D02*
X005830Y001381D01*
X005441Y001381D02*
X003591Y001381D01*
X003720Y001540D02*
X005320Y001540D01*
X005268Y001698D02*
X003780Y001698D01*
X003780Y001857D02*
X005264Y001857D01*
X005307Y002015D02*
X003730Y002015D01*
X003616Y002174D02*
X005416Y002174D01*
X005506Y003125D02*
X003554Y003125D01*
X003705Y003283D02*
X005355Y003283D01*
X005290Y003442D02*
X003770Y003442D01*
X003780Y003600D02*
X005280Y003600D01*
X005314Y003759D02*
X003746Y003759D01*
X003653Y003917D02*
X005407Y003917D01*
X002946Y003125D02*
X000614Y003125D01*
X000614Y003283D02*
X002795Y003283D01*
X002730Y003442D02*
X000614Y003442D01*
X000614Y003600D02*
X002720Y003600D01*
X002754Y003759D02*
X000614Y003759D01*
X000614Y003917D02*
X002847Y003917D01*
X000614Y004710D02*
X012128Y004710D01*
X011990Y004868D02*
X000614Y004868D01*
X000614Y005027D02*
X011990Y005027D01*
X011990Y005185D02*
X009898Y005185D01*
X009884Y005170D02*
X010023Y005309D01*
X010098Y005491D01*
X010098Y005688D01*
X010023Y005870D01*
X009884Y006009D01*
X009702Y006085D01*
X009505Y006085D01*
X009323Y006009D01*
X009184Y005870D01*
X009108Y005688D01*
X009108Y005491D01*
X009184Y005309D01*
X009323Y005170D01*
X009505Y005095D01*
X009702Y005095D01*
X009884Y005170D01*
X010037Y005344D02*
X012121Y005344D01*
X012739Y005344D02*
X012861Y005344D01*
X013019Y005502D02*
X010098Y005502D01*
X010098Y005661D02*
X013178Y005661D01*
X013336Y005819D02*
X010044Y005819D01*
X009916Y005978D02*
X013495Y005978D01*
X013653Y006136D02*
X000614Y006136D01*
X000614Y005978D02*
X009291Y005978D01*
X009162Y005819D02*
X000614Y005819D01*
X000614Y005661D02*
X009108Y005661D01*
X009108Y005502D02*
X000614Y005502D01*
X000614Y005344D02*
X009170Y005344D01*
X009308Y005185D02*
X000614Y005185D01*
X000614Y006295D02*
X013812Y006295D01*
X016430Y005344D02*
X016430Y005344D01*
X016430Y005185D02*
X016430Y005185D01*
X016430Y005027D02*
X016430Y005027D01*
X016430Y004868D02*
X016430Y004868D01*
X016430Y004710D02*
X016430Y004710D01*
X016760Y004710D02*
X017100Y004710D01*
X016970Y004868D02*
X016890Y004868D01*
X016890Y005027D02*
X016970Y005027D01*
X016970Y005185D02*
X016890Y005185D01*
X016767Y005344D02*
X017093Y005344D01*
X017070Y006453D02*
X000614Y006453D01*
X000614Y006612D02*
X017196Y006612D01*
X017079Y006770D02*
X000614Y006770D01*
X000614Y006929D02*
X017049Y006929D01*
X016890Y007087D02*
X000614Y007087D01*
X000614Y007246D02*
X016732Y007246D01*
X016573Y007404D02*
X000614Y007404D01*
X000614Y007563D02*
X016415Y007563D01*
X016256Y007721D02*
X000614Y007721D01*
X000614Y007880D02*
X015969Y007880D01*
X015792Y008038D02*
X000614Y008038D01*
X000614Y008197D02*
X015760Y008197D01*
X015806Y008355D02*
X000614Y008355D01*
X000614Y008514D02*
X015880Y008514D01*
X015880Y008672D02*
X015723Y008672D01*
X015621Y008570D02*
X015430Y008570D01*
X015430Y009030D01*
X015430Y009030D01*
X015430Y009490D01*
X015621Y009490D01*
X015890Y009221D01*
X015890Y009030D01*
X015430Y009030D01*
X015430Y009030D01*
X015430Y009030D01*
X014970Y009030D01*
X014970Y009221D01*
X015239Y009490D01*
X015430Y009490D01*
X015430Y009030D01*
X015890Y009030D01*
X015890Y008839D01*
X015621Y008570D01*
X015430Y008570D02*
X015430Y009030D01*
X015430Y009030D01*
X014970Y009030D01*
X014970Y008839D01*
X015239Y008570D01*
X015430Y008570D01*
X015430Y008672D02*
X015430Y008672D01*
X015430Y008831D02*
X015430Y008831D01*
X015430Y008989D02*
X015430Y008989D01*
X015430Y009148D02*
X015430Y009148D01*
X015430Y009306D02*
X015430Y009306D01*
X015430Y009465D02*
X015430Y009465D01*
X015646Y009465D02*
X016242Y009465D01*
X016084Y009306D02*
X015805Y009306D01*
X015890Y009148D02*
X015990Y009148D01*
X015990Y008989D02*
X015890Y008989D01*
X015881Y008831D02*
X015998Y008831D01*
X016694Y008672D02*
X017166Y008672D01*
X017230Y008514D02*
X016280Y008514D01*
X016354Y008355D02*
X017156Y008355D01*
X017110Y008197D02*
X016400Y008197D01*
X016505Y008038D02*
X017142Y008038D01*
X017319Y007880D02*
X016663Y007880D01*
X016822Y007721D02*
X017780Y007721D01*
X017780Y007563D02*
X016980Y007563D01*
X017139Y007404D02*
X017671Y007404D01*
X017513Y007246D02*
X017297Y007246D01*
X017541Y007880D02*
X017780Y007880D01*
X017780Y008038D02*
X017718Y008038D01*
X017750Y008197D02*
X017780Y008197D01*
X017780Y008355D02*
X017704Y008355D01*
X017744Y008514D02*
X017630Y008514D01*
X017007Y008831D02*
X016853Y008831D01*
X016870Y008989D02*
X016990Y008989D01*
X016990Y009148D02*
X016870Y009148D01*
X016776Y009306D02*
X017084Y009306D01*
X017242Y009465D02*
X016618Y009465D01*
X017618Y009465D02*
X018213Y009465D01*
X018371Y009306D02*
X017776Y009306D01*
X015214Y009465D02*
X014646Y009465D01*
X014621Y009490D02*
X014430Y009490D01*
X014430Y009030D01*
X014430Y009030D01*
X014890Y009030D01*
X014890Y009221D01*
X014621Y009490D01*
X014430Y009490D02*
X014239Y009490D01*
X013970Y009221D01*
X013970Y009030D01*
X014430Y009030D01*
X014430Y009030D01*
X014430Y009030D01*
X014430Y009490D01*
X014430Y009465D02*
X014430Y009465D01*
X014430Y009306D02*
X014430Y009306D01*
X014430Y009148D02*
X014430Y009148D01*
X014430Y009030D02*
X013970Y009030D01*
X013970Y008839D01*
X014239Y008570D01*
X014430Y008570D01*
X014621Y008570D01*
X014890Y008839D01*
X014890Y009030D01*
X014430Y009030D01*
X014430Y008570D01*
X014430Y009030D01*
X014430Y009030D01*
X014430Y008989D02*
X014430Y008989D01*
X014430Y008831D02*
X014430Y008831D01*
X014430Y008672D02*
X014430Y008672D01*
X014723Y008672D02*
X015137Y008672D01*
X014979Y008831D02*
X014881Y008831D01*
X014890Y008989D02*
X014970Y008989D01*
X014970Y009148D02*
X014890Y009148D01*
X014805Y009306D02*
X015055Y009306D01*
X014214Y009465D02*
X013646Y009465D01*
X013621Y009490D02*
X013430Y009490D01*
X013430Y009030D01*
X013430Y009030D01*
X013890Y009030D01*
X013890Y009221D01*
X013621Y009490D01*
X013430Y009490D02*
X013239Y009490D01*
X012970Y009221D01*
X012970Y009030D01*
X013430Y009030D01*
X013430Y009030D01*
X013430Y009030D01*
X013430Y009490D01*
X013430Y009465D02*
X013430Y009465D01*
X013430Y009306D02*
X013430Y009306D01*
X013430Y009148D02*
X013430Y009148D01*
X013430Y009030D02*
X012970Y009030D01*
X012970Y008839D01*
X013239Y008570D01*
X013430Y008570D01*
X013621Y008570D01*
X013890Y008839D01*
X013890Y009030D01*
X013430Y009030D01*
X013430Y008570D01*
X013430Y009030D01*
X013430Y009030D01*
X013430Y008989D02*
X013430Y008989D01*
X013430Y008831D02*
X013430Y008831D01*
X013430Y008672D02*
X013430Y008672D01*
X013723Y008672D02*
X014137Y008672D01*
X013979Y008831D02*
X013881Y008831D01*
X013890Y008989D02*
X013970Y008989D01*
X013970Y009148D02*
X013890Y009148D01*
X013805Y009306D02*
X014055Y009306D01*
X013304Y009623D02*
X000614Y009623D01*
X000614Y009465D02*
X012214Y009465D01*
X012239Y009490D02*
X011970Y009221D01*
X011970Y009030D01*
X012430Y009030D01*
X012430Y009030D01*
X012430Y009490D01*
X012621Y009490D01*
X012890Y009221D01*
X012890Y009030D01*
X012430Y009030D01*
X012430Y009030D01*
X012430Y009030D01*
X012430Y009490D01*
X012239Y009490D01*
X012430Y009465D02*
X012430Y009465D01*
X012430Y009306D02*
X012430Y009306D01*
X012430Y009148D02*
X012430Y009148D01*
X012430Y009030D02*
X011970Y009030D01*
X011970Y008839D01*
X012239Y008570D01*
X012430Y008570D01*
X012621Y008570D01*
X012890Y008839D01*
X012890Y009030D01*
X012430Y009030D01*
X012430Y008570D01*
X012430Y009030D01*
X012430Y009030D01*
X012430Y008989D02*
X012430Y008989D01*
X012430Y008831D02*
X012430Y008831D01*
X012430Y008672D02*
X012430Y008672D01*
X012723Y008672D02*
X013137Y008672D01*
X012979Y008831D02*
X012881Y008831D01*
X012890Y008989D02*
X012970Y008989D01*
X012970Y009148D02*
X012890Y009148D01*
X012805Y009306D02*
X013055Y009306D01*
X013214Y009465D02*
X012646Y009465D01*
X013146Y009782D02*
X000614Y009782D01*
X000614Y009940D02*
X012987Y009940D01*
X012829Y010099D02*
X000614Y010099D01*
X000614Y010257D02*
X012670Y010257D01*
X012512Y010416D02*
X000614Y010416D01*
X000614Y010574D02*
X012353Y010574D01*
X012195Y010733D02*
X000614Y010733D01*
X000614Y010891D02*
X012036Y010891D01*
X011878Y011050D02*
X000614Y011050D01*
X000614Y011208D02*
X011719Y011208D01*
X011561Y011367D02*
X000614Y011367D01*
X000614Y011525D02*
X011402Y011525D01*
X011244Y011684D02*
X000614Y011684D01*
X000614Y011842D02*
X011085Y011842D01*
X010927Y012001D02*
X000614Y012001D01*
X000614Y012159D02*
X010768Y012159D01*
X010610Y012318D02*
X000614Y012318D01*
X000614Y012476D02*
X010451Y012476D01*
X010293Y012635D02*
X000614Y012635D01*
X000614Y012793D02*
X010134Y012793D01*
X009976Y012952D02*
X009894Y012952D01*
X009566Y012952D02*
X000614Y012952D01*
X000614Y013110D02*
X009433Y013110D01*
X009410Y013269D02*
X000614Y013269D01*
X000614Y013427D02*
X009474Y013427D01*
X009354Y013586D02*
X000614Y013586D01*
X000614Y013744D02*
X009237Y013744D01*
X009207Y013903D02*
X000614Y013903D01*
X000614Y014061D02*
X009242Y014061D01*
X009365Y014220D02*
X000614Y014220D01*
X000614Y014378D02*
X010049Y014378D01*
X009891Y014537D02*
X000614Y014537D01*
X000614Y014695D02*
X003610Y014695D01*
X003695Y014660D02*
X003500Y014741D01*
X003351Y014890D01*
X003270Y015085D01*
X003270Y015295D01*
X003351Y015490D01*
X003500Y015639D01*
X003695Y015720D01*
X003905Y015720D01*
X004100Y015639D01*
X004249Y015490D01*
X004330Y015295D01*
X004330Y015085D01*
X004249Y014890D01*
X004100Y014741D01*
X003905Y014660D01*
X003695Y014660D01*
X003990Y014695D02*
X006120Y014695D01*
X006149Y014680D02*
X006231Y014654D01*
X006317Y014640D01*
X006340Y014640D01*
X006340Y015170D01*
X006380Y015170D01*
X006380Y015210D01*
X006910Y015210D01*
X006910Y015233D01*
X006896Y015319D01*
X006870Y015401D01*
X006830Y015478D01*
X006780Y015548D01*
X006718Y015610D01*
X006648Y015660D01*
X006571Y015700D01*
X006489Y015726D01*
X006403Y015740D01*
X006380Y015740D01*
X006380Y015210D01*
X006340Y015210D01*
X006340Y015740D01*
X006317Y015740D01*
X006231Y015726D01*
X006149Y015700D01*
X006072Y015660D01*
X006002Y015610D01*
X005940Y015548D01*
X005890Y015478D01*
X005850Y015401D01*
X005824Y015319D01*
X005810Y015233D01*
X005810Y015210D01*
X006340Y015210D01*
X006340Y015170D01*
X005810Y015170D01*
X005810Y015147D01*
X005824Y015061D01*
X005850Y014979D01*
X005890Y014902D01*
X005940Y014832D01*
X006002Y014770D01*
X006072Y014720D01*
X006149Y014680D01*
X006340Y014695D02*
X006380Y014695D01*
X006380Y014640D02*
X006403Y014640D01*
X006489Y014654D01*
X006571Y014680D01*
X006648Y014720D01*
X006718Y014770D01*
X006780Y014832D01*
X006830Y014902D01*
X006870Y014979D01*
X006896Y015061D01*
X006910Y015147D01*
X006910Y015170D01*
X006380Y015170D01*
X006380Y014640D01*
X006380Y014854D02*
X006340Y014854D01*
X006340Y015012D02*
X006380Y015012D01*
X006380Y015171D02*
X009257Y015171D01*
X009098Y015329D02*
X006893Y015329D01*
X006824Y015488D02*
X008940Y015488D01*
X009347Y015646D02*
X009385Y015646D01*
X009408Y015623D02*
X009585Y015550D01*
X009775Y015550D01*
X009952Y015623D01*
X010087Y015758D01*
X010160Y015935D01*
X010160Y016125D01*
X010087Y016302D01*
X009952Y016437D01*
X009775Y016510D01*
X009585Y016510D01*
X009408Y016437D01*
X009273Y016302D01*
X009200Y016125D01*
X009200Y015935D01*
X009273Y015758D01*
X009408Y015623D01*
X009505Y015488D02*
X011434Y015488D01*
X011214Y015646D02*
X009975Y015646D01*
X010106Y015805D02*
X011129Y015805D01*
X011100Y015963D02*
X010160Y015963D01*
X010160Y016122D02*
X011115Y016122D01*
X011181Y016280D02*
X010096Y016280D01*
X009948Y016439D02*
X011352Y016439D01*
X011235Y016597D02*
X009932Y016597D01*
X009942Y016602D02*
X010006Y016649D01*
X010061Y016704D01*
X010108Y016768D01*
X010143Y016838D01*
X010168Y016913D01*
X010180Y016991D01*
X010180Y017021D01*
X009689Y017021D01*
X009689Y017039D01*
X009671Y017039D01*
X009671Y017530D01*
X009641Y017530D01*
X009563Y017518D01*
X009488Y017493D01*
X009418Y017458D01*
X009354Y017411D01*
X009299Y017356D01*
X009252Y017292D01*
X009217Y017222D01*
X009192Y017147D01*
X009180Y017069D01*
X009180Y017039D01*
X009671Y017039D01*
X009671Y017021D01*
X009180Y017021D01*
X009180Y016991D01*
X009192Y016913D01*
X009217Y016838D01*
X009252Y016768D01*
X009299Y016704D01*
X009354Y016649D01*
X009418Y016602D01*
X009488Y016567D01*
X009563Y016542D01*
X009641Y016530D01*
X009671Y016530D01*
X009671Y017021D01*
X009689Y017021D01*
X009689Y016530D01*
X009719Y016530D01*
X009797Y016542D01*
X009872Y016567D01*
X009942Y016602D01*
X010099Y016756D02*
X011127Y016756D01*
X011084Y016914D02*
X010168Y016914D01*
X010180Y017039D02*
X009689Y017039D01*
X009689Y017530D01*
X009719Y017530D01*
X009797Y017518D01*
X009872Y017493D01*
X009942Y017458D01*
X010006Y017411D01*
X010061Y017356D01*
X010108Y017292D01*
X010143Y017222D01*
X010168Y017147D01*
X010180Y017069D01*
X010180Y017039D01*
X010179Y017073D02*
X011088Y017073D01*
X011141Y017231D02*
X010139Y017231D01*
X010028Y017390D02*
X011262Y017390D01*
X011630Y017390D02*
X011630Y017390D01*
X011630Y017231D02*
X011630Y017231D01*
X011630Y017073D02*
X011630Y017073D01*
X012119Y017231D02*
X037654Y017231D01*
X037699Y017276D02*
X037459Y017036D01*
X037330Y016724D01*
X037330Y016386D01*
X037459Y016074D01*
X037699Y015834D01*
X038011Y015705D01*
X038349Y015705D01*
X038661Y015834D01*
X038661Y015834D01*
X038901Y016074D01*
X039030Y016386D01*
X039030Y016605D01*
X039030Y016724D01*
X039030Y016724D01*
X038901Y017036D01*
X038901Y017036D01*
X038661Y017276D01*
X038349Y017405D01*
X038011Y017405D01*
X037699Y017276D01*
X037699Y017276D01*
X037495Y017073D02*
X025420Y017073D01*
X025579Y016914D02*
X026202Y016914D01*
X026393Y016914D02*
X026470Y016914D01*
X026470Y016756D02*
X026393Y016756D01*
X026393Y016597D02*
X026470Y016597D01*
X026470Y016439D02*
X026393Y016439D01*
X025987Y016756D02*
X025737Y016756D01*
X025780Y016597D02*
X025892Y016597D01*
X026661Y016914D02*
X037409Y016914D01*
X037459Y017036D02*
X037459Y017036D01*
X037343Y016756D02*
X026876Y016756D01*
X026971Y016597D02*
X037330Y016597D01*
X037330Y016439D02*
X027010Y016439D01*
X027003Y016280D02*
X037374Y016280D01*
X037440Y016122D02*
X036660Y016122D01*
X036644Y016137D02*
X035416Y016137D01*
X035323Y016044D01*
X035323Y014816D01*
X035416Y014723D01*
X036644Y014723D01*
X036737Y014816D01*
X036737Y016044D01*
X036644Y016137D01*
X036737Y015963D02*
X037570Y015963D01*
X037459Y016074D02*
X037459Y016074D01*
X037699Y015834D02*
X037699Y015834D01*
X037771Y015805D02*
X036737Y015805D01*
X036737Y015646D02*
X039250Y015646D01*
X039250Y015488D02*
X036737Y015488D01*
X036737Y015329D02*
X039250Y015329D01*
X039250Y015171D02*
X036737Y015171D01*
X036737Y015012D02*
X039250Y015012D01*
X039250Y014854D02*
X036737Y014854D01*
X035323Y014854D02*
X031537Y014854D01*
X031537Y014816D02*
X031444Y014723D01*
X030216Y014723D01*
X030123Y014816D01*
X030123Y016044D01*
X030216Y016137D01*
X031444Y016137D01*
X031537Y016044D01*
X031537Y014816D01*
X031537Y015012D02*
X035323Y015012D01*
X035323Y015171D02*
X031537Y015171D01*
X031537Y015329D02*
X035323Y015329D01*
X035323Y015488D02*
X031537Y015488D01*
X031537Y015646D02*
X035323Y015646D01*
X035323Y015805D02*
X031537Y015805D01*
X031537Y015963D02*
X035323Y015963D01*
X035400Y016122D02*
X031460Y016122D01*
X030200Y016122D02*
X026951Y016122D01*
X026835Y015963D02*
X030123Y015963D01*
X030123Y015805D02*
X026538Y015805D01*
X026697Y015646D02*
X030123Y015646D01*
X030123Y015488D02*
X026855Y015488D01*
X027014Y015329D02*
X030123Y015329D01*
X030123Y015171D02*
X027172Y015171D01*
X027331Y015012D02*
X030123Y015012D01*
X030123Y014854D02*
X027489Y014854D01*
X027648Y014695D02*
X039250Y014695D01*
X039250Y014537D02*
X027806Y014537D01*
X026280Y013427D02*
X024430Y013427D01*
X023968Y012470D02*
X023792Y012470D01*
X023631Y012403D01*
X023507Y012279D01*
X023440Y012118D01*
X023440Y011942D01*
X023507Y011781D01*
X023631Y011657D01*
X023792Y011590D01*
X023968Y011590D01*
X024129Y011657D01*
X024253Y011781D01*
X024320Y011942D01*
X024320Y012118D01*
X024253Y012279D01*
X024129Y012403D01*
X023968Y012470D01*
X024215Y012318D02*
X025535Y012318D01*
X025693Y012476D02*
X020030Y012476D01*
X020030Y012318D02*
X021645Y012318D01*
X021557Y012159D02*
X020030Y012159D01*
X020030Y012001D02*
X021540Y012001D01*
X021559Y011842D02*
X020030Y011842D01*
X020030Y011684D02*
X020381Y011684D01*
X020273Y011525D02*
X020116Y011525D01*
X020150Y011367D02*
X020234Y011367D01*
X020779Y011684D02*
X021401Y011684D01*
X021380Y011525D02*
X020887Y011525D01*
X020900Y011367D02*
X021380Y011367D01*
X021380Y011208D02*
X020853Y011208D01*
X020900Y011050D02*
X021380Y011050D01*
X021380Y010891D02*
X021002Y010891D01*
X021160Y010733D02*
X021380Y010733D01*
X021780Y010733D02*
X024100Y010733D01*
X024258Y010891D02*
X021780Y010891D01*
X021780Y011050D02*
X024417Y011050D01*
X024575Y011208D02*
X021780Y011208D01*
X021780Y011367D02*
X024734Y011367D01*
X024892Y011525D02*
X021808Y011525D01*
X022256Y011684D02*
X023604Y011684D01*
X023482Y011842D02*
X022378Y011842D01*
X022420Y012001D02*
X023440Y012001D01*
X023457Y012159D02*
X022403Y012159D01*
X022315Y012318D02*
X023545Y012318D01*
X024303Y012159D02*
X025376Y012159D01*
X025330Y012001D02*
X024320Y012001D01*
X024278Y011842D02*
X025209Y011842D01*
X025051Y011684D02*
X024156Y011684D01*
X025458Y011525D02*
X025606Y011525D01*
X025613Y011680D02*
X025613Y011680D01*
X018760Y012793D02*
X010700Y012793D01*
X010858Y012635D02*
X018652Y012635D01*
X018493Y012476D02*
X012237Y012476D01*
X012340Y012318D02*
X018335Y012318D01*
X018176Y012159D02*
X012347Y012159D01*
X011823Y012476D02*
X011017Y012476D01*
X011175Y012318D02*
X011720Y012318D01*
X011676Y012159D02*
X011334Y012159D01*
X011492Y012001D02*
X011530Y012001D01*
X010525Y013903D02*
X010000Y013903D01*
X009964Y014061D02*
X010366Y014061D01*
X010208Y014220D02*
X009841Y014220D01*
X009732Y014695D02*
X006600Y014695D01*
X006795Y014854D02*
X009574Y014854D01*
X009415Y015012D02*
X006880Y015012D01*
X006340Y015171D02*
X004330Y015171D01*
X004316Y015329D02*
X005827Y015329D01*
X005896Y015488D02*
X004250Y015488D01*
X004084Y015646D02*
X006052Y015646D01*
X006340Y015646D02*
X006380Y015646D01*
X006380Y015488D02*
X006340Y015488D01*
X006340Y015329D02*
X006380Y015329D01*
X006668Y015646D02*
X007385Y015646D01*
X007408Y015623D02*
X007585Y015550D01*
X007775Y015550D01*
X007952Y015623D01*
X008087Y015758D01*
X008160Y015935D01*
X008160Y016125D01*
X008087Y016302D01*
X007952Y016437D01*
X007775Y016510D01*
X007585Y016510D01*
X007408Y016437D01*
X007273Y016302D01*
X007200Y016125D01*
X007200Y015935D01*
X007273Y015758D01*
X007408Y015623D01*
X007254Y015805D02*
X002089Y015805D01*
X002161Y015834D02*
X002161Y015834D01*
X001849Y015705D01*
X001730Y015705D01*
X001511Y015705D01*
X001199Y015834D01*
X001199Y015834D01*
X000959Y016074D01*
X000959Y016074D01*
X000830Y016386D01*
X000830Y016724D01*
X000959Y017036D01*
X000959Y017036D01*
X001199Y017276D01*
X001199Y017276D01*
X001511Y017405D01*
X001849Y017405D01*
X002161Y017276D01*
X002161Y017276D01*
X002401Y017036D01*
X002401Y017036D01*
X002530Y016724D01*
X002530Y016386D01*
X002401Y016074D01*
X002401Y016074D01*
X002401Y016074D01*
X002161Y015834D01*
X002290Y015963D02*
X007200Y015963D01*
X007200Y016122D02*
X002420Y016122D01*
X002486Y016280D02*
X007264Y016280D01*
X007412Y016439D02*
X002530Y016439D01*
X002530Y016597D02*
X003423Y016597D01*
X003351Y016670D02*
X003500Y016521D01*
X003695Y016440D01*
X003905Y016440D01*
X004100Y016521D01*
X004249Y016670D01*
X004330Y016865D01*
X004330Y017075D01*
X004249Y017270D01*
X004100Y017419D01*
X003905Y017500D01*
X003695Y017500D01*
X003500Y017419D01*
X003351Y017270D01*
X003270Y017075D01*
X003270Y016865D01*
X003351Y016670D01*
X003315Y016756D02*
X002517Y016756D01*
X002451Y016914D02*
X003270Y016914D01*
X003270Y017073D02*
X002365Y017073D01*
X002206Y017231D02*
X003334Y017231D01*
X003470Y017390D02*
X001886Y017390D01*
X001655Y017620D02*
X001655Y017620D01*
X001474Y017390D02*
X000969Y017390D01*
X000820Y017231D02*
X001154Y017231D01*
X000995Y017073D02*
X000713Y017073D01*
X000661Y016914D02*
X000909Y016914D01*
X000843Y016756D02*
X000622Y016756D01*
X000614Y016597D02*
X000830Y016597D01*
X000830Y016439D02*
X000614Y016439D01*
X000614Y016280D02*
X000874Y016280D01*
X000940Y016122D02*
X000614Y016122D01*
X000614Y015963D02*
X001070Y015963D01*
X001271Y015805D02*
X000614Y015805D01*
X000614Y015646D02*
X003516Y015646D01*
X003350Y015488D02*
X000614Y015488D01*
X000614Y015329D02*
X003284Y015329D01*
X003270Y015171D02*
X000614Y015171D01*
X000614Y015012D02*
X003300Y015012D01*
X003387Y014854D02*
X000614Y014854D01*
X004213Y014854D02*
X005925Y014854D01*
X005840Y015012D02*
X004300Y015012D01*
X005911Y016670D02*
X006060Y016521D01*
X006255Y016440D01*
X006465Y016440D01*
X006660Y016521D01*
X006809Y016670D01*
X006890Y016865D01*
X006890Y017075D01*
X006809Y017270D01*
X006660Y017419D01*
X006465Y017500D01*
X006255Y017500D01*
X006060Y017419D01*
X005911Y017270D01*
X005830Y017075D01*
X005830Y016865D01*
X005911Y016670D01*
X005875Y016756D02*
X004285Y016756D01*
X004330Y016914D02*
X005830Y016914D01*
X005830Y017073D02*
X004330Y017073D01*
X004266Y017231D02*
X005894Y017231D01*
X006030Y017390D02*
X004130Y017390D01*
X004177Y016597D02*
X005983Y016597D01*
X006737Y016597D02*
X007471Y016597D01*
X007408Y016623D02*
X007585Y016550D01*
X007775Y016550D01*
X007952Y016623D01*
X008087Y016758D01*
X008160Y016935D01*
X008160Y017125D01*
X008087Y017302D01*
X007952Y017437D01*
X007775Y017510D01*
X007585Y017510D01*
X007408Y017437D01*
X007273Y017302D01*
X007200Y017125D01*
X007200Y016935D01*
X007273Y016758D01*
X007408Y016623D01*
X007276Y016756D02*
X006845Y016756D01*
X006890Y016914D02*
X007208Y016914D01*
X007200Y017073D02*
X006890Y017073D01*
X006826Y017231D02*
X007244Y017231D01*
X007361Y017390D02*
X006690Y017390D01*
X007999Y017390D02*
X008361Y017390D01*
X008408Y017437D02*
X008273Y017302D01*
X008200Y017125D01*
X008200Y016935D01*
X008273Y016758D01*
X008408Y016623D01*
X008585Y016550D01*
X008775Y016550D01*
X008952Y016623D01*
X009087Y016758D01*
X009160Y016935D01*
X009160Y017125D01*
X009087Y017302D01*
X008952Y017437D01*
X008775Y017510D01*
X008585Y017510D01*
X008408Y017437D01*
X008244Y017231D02*
X008116Y017231D01*
X008160Y017073D02*
X008200Y017073D01*
X008208Y016914D02*
X008152Y016914D01*
X008084Y016756D02*
X008276Y016756D01*
X008471Y016597D02*
X007889Y016597D01*
X007948Y016439D02*
X008412Y016439D01*
X008264Y016280D02*
X008096Y016280D01*
X008160Y016122D02*
X008200Y016122D01*
X008200Y015963D02*
X008160Y015963D01*
X008106Y015805D02*
X008254Y015805D01*
X008385Y015646D02*
X007975Y015646D01*
X009188Y015805D02*
X009254Y015805D01*
X009200Y015963D02*
X009160Y015963D01*
X009160Y016122D02*
X009200Y016122D01*
X009264Y016280D02*
X009096Y016280D01*
X008948Y016439D02*
X009412Y016439D01*
X009428Y016597D02*
X008889Y016597D01*
X009084Y016756D02*
X009261Y016756D01*
X009192Y016914D02*
X009152Y016914D01*
X009160Y017073D02*
X009181Y017073D01*
X009221Y017231D02*
X009116Y017231D01*
X008999Y017390D02*
X009332Y017390D01*
X009671Y017390D02*
X009689Y017390D01*
X009689Y017231D02*
X009671Y017231D01*
X009671Y017073D02*
X009689Y017073D01*
X009689Y016914D02*
X009671Y016914D01*
X009671Y016756D02*
X009689Y016756D01*
X009689Y016597D02*
X009671Y016597D01*
X011998Y017390D02*
X037974Y017390D01*
X038386Y017390D02*
X038892Y017390D01*
X039036Y017231D02*
X038706Y017231D01*
X038661Y017276D02*
X038661Y017276D01*
X038865Y017073D02*
X039140Y017073D01*
X039201Y016914D02*
X038951Y016914D01*
X039017Y016756D02*
X039241Y016756D01*
X039250Y016597D02*
X039030Y016597D01*
X039030Y016439D02*
X039250Y016439D01*
X039250Y016280D02*
X038986Y016280D01*
X038920Y016122D02*
X039250Y016122D01*
X039250Y015963D02*
X038790Y015963D01*
X038901Y016074D02*
X038901Y016074D01*
X038589Y015805D02*
X039250Y015805D01*
X038622Y017548D02*
X001244Y017548D01*
X000614Y009306D02*
X012055Y009306D01*
X011970Y009148D02*
X000614Y009148D01*
X000614Y008989D02*
X011970Y008989D01*
X011979Y008831D02*
X000614Y008831D01*
X000614Y008672D02*
X012137Y008672D01*
X021092Y005601D02*
X021111Y005609D01*
X021183Y005680D01*
X023113Y005680D01*
X023680Y006247D01*
X023680Y005813D01*
X023167Y005300D01*
X023066Y005300D01*
X022949Y005251D01*
X022859Y005161D01*
X022810Y005044D01*
X022810Y004916D01*
X022859Y004799D01*
X022930Y004727D01*
X022930Y002084D01*
X022862Y002247D01*
X022705Y002405D01*
X022580Y002456D01*
X022580Y003713D01*
X022442Y003851D01*
X022461Y003859D01*
X022551Y003949D01*
X022600Y004066D01*
X022600Y004194D01*
X022551Y004311D01*
X022461Y004401D01*
X022344Y004450D01*
X022243Y004450D01*
X021092Y005601D01*
X021163Y005661D02*
X023528Y005661D01*
X023680Y005819D02*
X023252Y005819D01*
X023410Y005978D02*
X023680Y005978D01*
X023680Y006136D02*
X023569Y006136D01*
X023369Y005502D02*
X021191Y005502D01*
X021349Y005344D02*
X023211Y005344D01*
X022882Y005185D02*
X021508Y005185D01*
X021666Y005027D02*
X022810Y005027D01*
X022830Y004868D02*
X021825Y004868D01*
X021983Y004710D02*
X022930Y004710D01*
X022930Y004551D02*
X022142Y004551D01*
X022470Y004393D02*
X022930Y004393D01*
X022930Y004234D02*
X022583Y004234D01*
X022600Y004076D02*
X022930Y004076D01*
X022930Y003917D02*
X022520Y003917D01*
X022534Y003759D02*
X022930Y003759D01*
X022930Y003600D02*
X022580Y003600D01*
X022580Y003442D02*
X022930Y003442D01*
X022930Y003283D02*
X022580Y003283D01*
X022580Y003125D02*
X022930Y003125D01*
X022930Y002966D02*
X022580Y002966D01*
X022580Y002808D02*
X022930Y002808D01*
X022930Y002649D02*
X022580Y002649D01*
X022580Y002491D02*
X022930Y002491D01*
X022930Y002332D02*
X022777Y002332D01*
X022893Y002174D02*
X022930Y002174D01*
X022180Y002491D02*
X019352Y002491D01*
X019194Y002649D02*
X022180Y002649D01*
X022180Y002808D02*
X019035Y002808D01*
X018877Y002966D02*
X022180Y002966D01*
X022180Y003125D02*
X018718Y003125D01*
X018560Y003283D02*
X022180Y003283D01*
X022180Y003442D02*
X018530Y003442D01*
X018413Y003600D02*
X022127Y003600D01*
X020293Y004234D02*
X017867Y004234D01*
X017864Y002332D02*
X017266Y002332D01*
X017381Y002174D02*
X017748Y002174D01*
X017694Y002015D02*
X017436Y002015D01*
X017436Y001857D02*
X017694Y001857D01*
X017744Y001698D02*
X017386Y001698D01*
X017277Y001540D02*
X017852Y001540D01*
X018655Y001540D02*
X019230Y001540D01*
X019122Y001698D02*
X018764Y001698D01*
X018814Y001857D02*
X019072Y001857D01*
X019072Y002015D02*
X018814Y002015D01*
X018759Y002174D02*
X019104Y002174D01*
X018945Y002332D02*
X018644Y002332D01*
X016486Y002332D02*
X015916Y002332D01*
X016025Y002174D02*
X016370Y002174D01*
X016316Y002015D02*
X016071Y002015D01*
X016073Y001857D02*
X016316Y001857D01*
X016366Y001698D02*
X016030Y001698D01*
X015927Y001540D02*
X016474Y001540D01*
X015536Y001540D02*
X015460Y001540D01*
X015460Y001698D02*
X015536Y001698D01*
X015536Y001857D02*
X015460Y001857D01*
X015460Y002015D02*
X015536Y002015D01*
X015536Y002174D02*
X015460Y002174D01*
X015460Y002332D02*
X015536Y002332D01*
X015079Y002332D02*
X014510Y002332D01*
X014625Y002174D02*
X014971Y002174D01*
X014924Y002015D02*
X014680Y002015D01*
X014680Y001857D02*
X014922Y001857D01*
X014965Y001698D02*
X014630Y001698D01*
X014521Y001540D02*
X015068Y001540D01*
X025266Y003283D02*
X025324Y003283D01*
X025726Y002966D02*
X026183Y002966D01*
X026025Y002808D02*
X025874Y002808D01*
X026911Y002332D02*
X027481Y002332D01*
X027372Y002174D02*
X027027Y002174D01*
X027081Y002015D02*
X027326Y002015D01*
X027324Y001857D02*
X027081Y001857D01*
X027031Y001698D02*
X027367Y001698D01*
X027470Y001540D02*
X026923Y001540D01*
X027861Y001540D02*
X027937Y001540D01*
X027937Y001698D02*
X027861Y001698D01*
X027861Y001857D02*
X027937Y001857D01*
X027937Y002015D02*
X027861Y002015D01*
X027861Y002174D02*
X027937Y002174D01*
X027937Y002332D02*
X027861Y002332D01*
X028318Y002332D02*
X028887Y002332D01*
X028772Y002174D02*
X028426Y002174D01*
X028473Y002015D02*
X028717Y002015D01*
X028717Y001857D02*
X028475Y001857D01*
X028432Y001698D02*
X028767Y001698D01*
X028876Y001540D02*
X028329Y001540D01*
X029679Y001540D02*
X030254Y001540D01*
X030145Y001698D02*
X029787Y001698D01*
X029837Y001857D02*
X030095Y001857D01*
X030095Y002015D02*
X029837Y002015D01*
X029783Y002174D02*
X030150Y002174D01*
X030265Y002332D02*
X029667Y002332D01*
X031045Y002332D02*
X031643Y002332D01*
X031528Y002174D02*
X031160Y002174D01*
X031215Y002015D02*
X031473Y002015D01*
X031473Y001857D02*
X031215Y001857D01*
X031165Y001698D02*
X031523Y001698D01*
X031632Y001540D02*
X031057Y001540D01*
X032435Y001540D02*
X032857Y001540D01*
X032901Y001698D02*
X032543Y001698D01*
X032593Y001857D02*
X032851Y001857D01*
X032851Y002015D02*
X032593Y002015D01*
X032538Y002174D02*
X032906Y002174D01*
X033021Y002332D02*
X032423Y002332D01*
X030830Y003125D02*
X034733Y003125D01*
X034624Y003283D02*
X030830Y003283D01*
X030830Y003442D02*
X034586Y003442D01*
X034427Y003600D02*
X030830Y003600D01*
X030830Y003759D02*
X034269Y003759D01*
X034110Y003917D02*
X030830Y003917D01*
X033725Y004868D02*
X033765Y004868D01*
X035187Y005344D02*
X035393Y005344D01*
X035391Y005502D02*
X035166Y005502D01*
X035670Y005978D02*
X035690Y005978D01*
X035690Y006136D02*
X035670Y006136D01*
X035670Y006295D02*
X035690Y006295D01*
X035331Y006295D02*
X035221Y006295D01*
X031221Y007404D02*
X028530Y007404D01*
X028597Y007246D02*
X031063Y007246D01*
X030904Y007087D02*
X029326Y007087D01*
X029400Y006929D02*
X030746Y006929D01*
X030587Y006770D02*
X029473Y006770D01*
X029631Y006612D02*
X030429Y006612D01*
X030270Y006453D02*
X029790Y006453D01*
X028834Y007087D02*
X028756Y007087D01*
X034834Y003759D02*
X036320Y003759D01*
X036144Y003600D02*
X035163Y003600D01*
X035250Y003442D02*
X036031Y003442D01*
X035966Y003283D02*
X035236Y003283D01*
X035127Y003125D02*
X035940Y003125D01*
X037326Y002491D02*
X037916Y002491D01*
X037630Y002332D02*
X037109Y002332D01*
X037471Y002174D02*
X035938Y002174D01*
X035949Y002015D02*
X037399Y002015D01*
X036391Y002332D02*
X035831Y002332D01*
X036533Y000747D02*
X038746Y000747D01*
X025814Y015963D02*
X025429Y015963D01*
X025553Y016122D02*
X025656Y016122D01*
X001130Y002332D02*
X000614Y002332D01*
X000614Y002174D02*
X000971Y002174D01*
X000899Y002015D02*
X000614Y002015D01*
X000614Y001857D02*
X000833Y001857D01*
X000830Y001698D02*
X000614Y001698D01*
X000615Y001540D02*
X000830Y001540D01*
X000884Y001381D02*
X000633Y001381D01*
X000684Y001223D02*
X000949Y001223D01*
X001094Y001064D02*
X000760Y001064D01*
X000875Y000906D02*
X001329Y000906D01*
X001849Y000830D02*
X001849Y000830D01*
D23*
X009330Y002880D03*
X017580Y002830D03*
X021480Y002830D03*
X020430Y004980D03*
X022280Y007030D03*
X025380Y008730D03*
X026030Y009530D03*
X027830Y010780D03*
X029030Y010330D03*
X025830Y011930D03*
X027880Y012180D03*
X022080Y009930D03*
X027880Y008030D03*
X031580Y005780D03*
X032480Y005230D03*
X034180Y006480D03*
X035330Y008930D03*
X027480Y005180D03*
X028530Y002830D03*
X014380Y007630D03*
X010130Y009080D03*
X011980Y009980D03*
X004880Y009330D03*
X012530Y013630D03*
X017530Y017080D03*
X025780Y015580D03*
X027630Y015280D03*
M02*
