%
M48
M72
T01C0.0120
T02C0.0320
T03C0.0354
T04C0.0360
T05C0.0400
T06C0.0433
T07C0.0472
T08C0.0630
T09C0.0730
T10C0.0900
T11C0.1180
T12C0.1300
%
T01
X3396Y1585
X2856Y1885
X3876Y2065
X4296Y1285
X5256Y2845
X3096Y3145
X7956Y3745
X12036Y2965
X12036Y2545
X13116Y1765
X16116Y3565
X16956Y3865
X17496Y3565
X18216Y3145
X21276Y3265
X18096Y4645
X17796Y4945
X18276Y5485
X18696Y5485
X16476Y5425
X16476Y5845
X16476Y6265
X15276Y6565
X15276Y7165
X16296Y6925
X16596Y7225
X17496Y7165
X18696Y7405
X20556Y7765
X20856Y7405
X21276Y7405
X21696Y7465
X22536Y8065
X23496Y8425
X23436Y8905
X23436Y9325
X24576Y9325
X25176Y9805
X26436Y10165
X27996Y10765
X29136Y9625
X28836Y9025
X31176Y8425
X31596Y8605
X32616Y7345
X32676Y6745
X31716Y5545
X33876Y4765
X32316Y3805
X31116Y4165
X30516Y3865
X30336Y4465
X29556Y4525
X28416Y4825
X28836Y5905
X26196Y6205
X25716Y7165
X25296Y7765
X24396Y7465
X22116Y6565
X22116Y5725
X24996Y4825
X30696Y2605
X33996Y1945
X36096Y1945
X36216Y505
X35736Y505
X35616Y3925
X35796Y6085
X30456Y11245
X33096Y12205
X34056Y12745
X34536Y13645
X36816Y14185
X36756Y12445
X37476Y12445
X29016Y13405
X26196Y13405
X25776Y12085
X25716Y11545
X23556Y10285
X21996Y9925
X17076Y11245
X16236Y10825
X14976Y11185
X15876Y11905
X17076Y12085
X18756Y12505
X19236Y12805
X19716Y12325
X22356Y12805
X23196Y13225
X23796Y15205
X14976Y13465
X13056Y12865
X12636Y12865
X11496Y12685
X11496Y13105
X10656Y14425
X10656Y15265
X7596Y15325
X7656Y14065
X12936Y11365
X13716Y10585
X14316Y10405
X12456Y10285
X10956Y9805
X9396Y9385
X9096Y8665
X9396Y8365
X9696Y7825
X8256Y7645
X9096Y6805
X9396Y6505
X8796Y6265
X11616Y5905
X11856Y6265
X11916Y6805
X13296Y6385
X13656Y5845
X13956Y5545
X13296Y5545
X14616Y5545
X15276Y5785
X15576Y4825
X14616Y4525
X13056Y3985
X17916Y865
X5916Y6685
X2496Y6685
X8616Y10225
X11676Y9025
X12636Y8185
X13656Y7885
X14256Y7885
X13956Y7345
X11916Y7765
X13536Y8965
X16536Y7825
X16596Y8605
T02
X19743Y9053
X22103Y9053
X22103Y7093
X19743Y7093
X20896Y11455
X22796Y11455
X24721Y11955
X24721Y12955
X24721Y13955
X24721Y14955
X24721Y15955
X24721Y16955
X28721Y16955
X28721Y15955
X28721Y14955
X28721Y13955
X28721Y12955
X28721Y11955
X11471Y16580
X10471Y16580
T03
X9221Y16830
X8221Y16830
X7221Y16830
X7221Y15830
X8221Y15830
X9221Y15830
T04
X34566Y5697
X35346Y5697
X35346Y4713
X34566Y4713
T05
X5251Y15315
X2691Y15315
X2691Y17095
X5251Y17095
T06
X9269Y13647
T07
X13221Y16205
X14599Y16205
X15977Y16205
X17355Y16205
X18733Y16205
X20111Y16205
X21489Y16205
X22867Y16205
X23431Y1705
X22054Y1705
X20676Y1705
X19298Y1705
X17920Y1705
X16542Y1705
X15164Y1705
X13786Y1705
X12408Y1705
X11030Y1705
X9652Y1705
X8274Y1705
X6896Y1705
X24809Y1705
X26187Y1705
X27565Y1705
X28943Y1705
X30321Y1705
X31699Y1705
X33077Y1705
T08
X9269Y5340
T09
X30121Y15205
X35321Y15205
T10
X36416Y7575
X36416Y2835
T11
X36809Y10280
X34447Y10280
X35628Y12130
T12
X1346Y1455
X1346Y16330
X37846Y16330
X37846Y1455
M30
