G75*
%MOIN*%
%OFA0B0*%
%FSLAX24Y24*%
%IPPOS*%
%LPD*%
%AMOC8*
5,1,8,0,0,1.08239X$1,22.5*
%
%ADD10C,0.0640*%
%ADD11R,0.0474X0.0513*%
%ADD12R,0.0395X0.0552*%
%ADD13R,0.0513X0.0474*%
%ADD14R,0.0340X0.0880*%
%ADD15R,0.0552X0.0297*%
%ADD16R,0.1182X0.0867*%
%ADD17R,0.1655X0.0356*%
%ADD18R,0.1655X0.0552*%
%ADD19C,0.0513*%
%ADD20C,0.0710*%
%ADD21R,0.1175X0.1175*%
%ADD22R,0.1640X0.1640*%
%ADD23C,0.1380*%
%ADD24R,0.0880X0.0880*%
%ADD25C,0.0880*%
%ADD26OC8,0.0640*%
%ADD27C,0.0720*%
%ADD28R,0.0316X0.0946*%
%ADD29C,0.0820*%
%ADD30R,0.0300X0.0580*%
%ADD31R,0.0580X0.0300*%
%ADD32C,0.1780*%
%ADD33R,0.0474X0.0631*%
%ADD34R,0.0560X0.0325*%
%ADD35C,0.0740*%
%ADD36R,0.0240X0.0400*%
%ADD37R,0.0710X0.0631*%
%ADD38R,0.0395X0.0395*%
%ADD39R,0.0356X0.0356*%
%ADD40R,0.0631X0.0474*%
%ADD41R,0.0217X0.0630*%
D10*
X020896Y011455D03*
X022796Y011455D03*
D11*
X002846Y000745D03*
X003846Y000745D03*
X003846Y001415D03*
X002846Y001415D03*
X019221Y010370D03*
X019221Y011040D03*
X019221Y011620D03*
X019221Y012290D03*
X017931Y012955D03*
X017261Y012955D03*
X026886Y010955D03*
X027556Y010955D03*
X027556Y010205D03*
X026886Y010205D03*
X037096Y012870D03*
X037921Y012870D03*
X037921Y013540D03*
X037096Y013540D03*
X038471Y014245D03*
X038471Y014915D03*
D12*
X005450Y001455D03*
X004742Y001455D03*
D13*
X004761Y000705D03*
X005431Y000705D03*
X023971Y005870D03*
X023971Y006540D03*
X023971Y007120D03*
X023971Y007790D03*
X023971Y008370D03*
X023971Y009040D03*
X032422Y008660D03*
X033091Y008660D03*
X033843Y008330D03*
X033843Y008999D03*
X029702Y013421D03*
X029702Y014090D03*
X036221Y016245D03*
X036221Y016915D03*
X011471Y015290D03*
X011471Y014620D03*
X034471Y002415D03*
X035221Y002415D03*
X035221Y001745D03*
X034471Y001745D03*
X034471Y001165D03*
X035221Y001165D03*
X035221Y000495D03*
X034471Y000495D03*
D14*
X015471Y009620D03*
X014971Y009620D03*
X014471Y009620D03*
X013971Y009620D03*
X013471Y009620D03*
X012971Y009620D03*
X012471Y009620D03*
X011971Y009620D03*
X011971Y012040D03*
X012471Y012040D03*
X012971Y012040D03*
X013471Y012040D03*
X013971Y012040D03*
X014471Y012040D03*
X014971Y012040D03*
X015471Y012040D03*
D15*
X005608Y003204D03*
X004584Y003204D03*
X004584Y002830D03*
X004584Y002456D03*
X005608Y002456D03*
X003608Y002456D03*
X002584Y002456D03*
X002584Y002830D03*
X002584Y003204D03*
X003608Y003204D03*
D16*
X001513Y003529D03*
X009742Y004474D03*
X001513Y014513D03*
X009702Y014552D03*
D17*
X010450Y013883D03*
X010450Y013411D03*
X010450Y012899D03*
D18*
X010450Y012269D03*
X010450Y011285D03*
X010450Y010300D03*
X010450Y009316D03*
X010450Y008332D03*
X010450Y007348D03*
X010450Y006363D03*
X010450Y005379D03*
D19*
X009269Y013647D03*
D20*
X009269Y005340D03*
D21*
X030121Y015205D03*
X035321Y015205D03*
D22*
X032721Y015205D03*
D23*
X037846Y016330D03*
X036416Y007575D03*
X036416Y002835D03*
X037846Y001455D03*
X001346Y001455D03*
X001346Y016330D03*
D24*
X013221Y016205D03*
X017920Y001705D03*
X028943Y001705D03*
X006896Y001705D03*
D25*
X008274Y001705D03*
X009652Y001705D03*
X011030Y001705D03*
X012408Y001705D03*
X013786Y001705D03*
X015164Y001705D03*
X016542Y001705D03*
X019298Y001705D03*
X020676Y001705D03*
X022054Y001705D03*
X023431Y001705D03*
X024809Y001705D03*
X026187Y001705D03*
X027565Y001705D03*
X030321Y001705D03*
X031699Y001705D03*
X033077Y001705D03*
X022867Y016205D03*
X021489Y016205D03*
X020111Y016205D03*
X018733Y016205D03*
X017355Y016205D03*
X015977Y016205D03*
X014599Y016205D03*
D26*
X024721Y015955D03*
X024721Y016955D03*
X028721Y016955D03*
X028721Y015955D03*
X028721Y014955D03*
X028721Y013955D03*
X028721Y012955D03*
X028721Y011955D03*
X024721Y011955D03*
X024721Y012955D03*
X024721Y013955D03*
X024721Y014955D03*
X022103Y009053D03*
X019743Y009053D03*
X019743Y007093D03*
X022103Y007093D03*
D27*
X009221Y015830D03*
X008221Y015830D03*
X007221Y015830D03*
X007221Y016830D03*
X008221Y016830D03*
X009221Y016830D03*
D28*
X024971Y009141D03*
X025471Y009141D03*
X025971Y009141D03*
X026471Y009141D03*
X026971Y009141D03*
X027471Y009141D03*
X027971Y009141D03*
X028471Y009141D03*
X028471Y005519D03*
X027971Y005519D03*
X027471Y005519D03*
X026971Y005519D03*
X026471Y005519D03*
X025971Y005519D03*
X025471Y005519D03*
X024971Y005519D03*
D29*
X005251Y015315D03*
X002691Y015315D03*
X002691Y017095D03*
X005251Y017095D03*
X010471Y016580D03*
X011471Y016580D03*
D30*
X012994Y008395D03*
X013309Y008395D03*
X013624Y008395D03*
X013939Y008395D03*
X014254Y008395D03*
X014569Y008395D03*
X014883Y008395D03*
X015198Y008395D03*
X015198Y005015D03*
X014883Y005015D03*
X014569Y005015D03*
X014254Y005015D03*
X013939Y005015D03*
X013624Y005015D03*
X013309Y005015D03*
X012994Y005015D03*
D31*
X012406Y005603D03*
X012406Y005918D03*
X012406Y006233D03*
X012406Y006548D03*
X012406Y006862D03*
X012406Y007177D03*
X012406Y007492D03*
X012406Y007807D03*
X015786Y007807D03*
X015786Y007492D03*
X015786Y007177D03*
X015786Y006862D03*
X015786Y006548D03*
X015786Y006233D03*
X015786Y005918D03*
X015786Y005603D03*
D32*
X034447Y010280D03*
X036809Y010280D03*
X035628Y012130D03*
D33*
X033965Y011450D03*
X033217Y011450D03*
X032152Y012220D03*
X031404Y012220D03*
X031778Y011354D03*
X033591Y012316D03*
D34*
X036305Y014257D03*
X036305Y014631D03*
X036305Y015005D03*
X037336Y015005D03*
X037336Y014631D03*
X037336Y014257D03*
D35*
X035346Y005697D03*
X034566Y005697D03*
X034566Y004713D03*
X035346Y004713D03*
D36*
X017844Y005377D03*
X017529Y005377D03*
X017214Y005377D03*
X016899Y005377D03*
X016899Y006086D03*
X017214Y006086D03*
X017529Y006086D03*
X017844Y006086D03*
X017832Y007611D03*
X017517Y007611D03*
X017202Y007611D03*
X016887Y007611D03*
X016887Y008320D03*
X017202Y008320D03*
X017517Y008320D03*
X017832Y008320D03*
D37*
X029870Y011301D03*
X029870Y012404D03*
D38*
X035974Y001491D03*
X036541Y001491D03*
X036541Y000901D03*
X035974Y000901D03*
D39*
X030903Y009475D03*
X031631Y009731D03*
X030903Y009986D03*
X028958Y010202D03*
X028446Y010202D03*
X028702Y010930D03*
X024250Y009644D03*
X023738Y009644D03*
X023994Y010372D03*
D40*
X025192Y010264D03*
X026058Y010638D03*
X025192Y011012D03*
D41*
X029808Y007894D03*
X030064Y007894D03*
X030319Y007894D03*
X030575Y007894D03*
X030831Y007894D03*
X031087Y007894D03*
X031343Y007894D03*
X031599Y007894D03*
X031855Y007894D03*
X032111Y007894D03*
X032367Y007894D03*
X032623Y007894D03*
X032879Y007894D03*
X033134Y007894D03*
X033134Y005016D03*
X032879Y005016D03*
X032623Y005016D03*
X032367Y005016D03*
X032111Y005016D03*
X031855Y005016D03*
X031599Y005016D03*
X031343Y005016D03*
X031087Y005016D03*
X030831Y005016D03*
X030575Y005016D03*
X030319Y005016D03*
X030064Y005016D03*
X029808Y005016D03*
M02*
