G75*
%MOIN*%
%OFA0B0*%
%FSLAX24Y24*%
%IPPOS*%
%LPD*%
%AMOC8*
5,1,8,0,0,1.08239X$1,22.5*
%
%ADD10C,0.0640*%
%ADD11C,0.0513*%
%ADD12C,0.0710*%
%ADD13R,0.1175X0.1175*%
%ADD14C,0.1380*%
%ADD15R,0.0880X0.0880*%
%ADD16C,0.0880*%
%ADD17OC8,0.0640*%
%ADD18C,0.0720*%
%ADD19C,0.0820*%
%ADD20C,0.1780*%
%ADD21C,0.0740*%
D10*
X020250Y012055D03*
X022150Y012055D03*
D11*
X009603Y013872D03*
D12*
X009603Y005565D03*
D13*
X030455Y015430D03*
X035655Y015430D03*
D14*
X001680Y001680D03*
X001680Y016555D03*
X036750Y007800D03*
X036750Y003060D03*
X038180Y001680D03*
X038180Y016555D03*
D15*
X013555Y016430D03*
X018254Y001930D03*
X029277Y001930D03*
X007230Y001930D03*
D16*
X008608Y001930D03*
X009986Y001930D03*
X011364Y001930D03*
X012742Y001930D03*
X014120Y001930D03*
X015498Y001930D03*
X016876Y001930D03*
X019632Y001930D03*
X021010Y001930D03*
X022387Y001930D03*
X023765Y001930D03*
X025143Y001930D03*
X026521Y001930D03*
X027899Y001930D03*
X030655Y001930D03*
X032033Y001930D03*
X033411Y001930D03*
X023201Y016430D03*
X021823Y016430D03*
X020445Y016430D03*
X019067Y016430D03*
X017689Y016430D03*
X016311Y016430D03*
X014933Y016430D03*
D17*
X025055Y016180D03*
X025055Y015180D03*
X025055Y014180D03*
X025055Y013180D03*
X025055Y012180D03*
X029055Y012180D03*
X029055Y013180D03*
X029055Y014180D03*
X029055Y015180D03*
X029055Y016180D03*
X029055Y017180D03*
X025055Y017180D03*
D18*
X010180Y017055D03*
X009180Y017055D03*
X008180Y017055D03*
X008180Y016055D03*
X009180Y016055D03*
X010180Y016055D03*
D19*
X005835Y015290D03*
X003275Y015290D03*
X003275Y017070D03*
X005835Y017070D03*
X016555Y012680D03*
X016555Y011680D03*
X005835Y003570D03*
X003275Y003570D03*
X003275Y001790D03*
X005835Y001790D03*
D20*
X034781Y010505D03*
X037143Y010505D03*
X035962Y012355D03*
D21*
X035680Y005922D03*
X034900Y005922D03*
X034900Y004938D03*
X035680Y004938D03*
M02*
