%
M48
M72
T01C0.0200
T02C0.0320
T03C0.0354
T04C0.0360
T05C0.0433
T06C0.0472
T07C0.0630
T08C0.0730
T09C0.0900
T10C0.1180
T11C0.1300
%
T01
X3096Y1405
X3516Y2065
X4656Y2065
X5976Y3445
X6336Y4165
X3516Y4165
X10236Y2965
X11256Y1525
X14676Y3145
X17496Y4825
X18876Y4825
X19596Y5545
X20316Y5845
X19236Y5965
X17616Y6085
X18936Y6925
X19236Y7585
X18576Y7765
X17856Y7525
X16956Y7345
X17316Y6985
X15876Y6565
X15396Y6565
X14736Y6025
X15876Y5065
X12276Y6025
X11796Y6025
X11796Y5425
X13656Y7405
X14736Y8485
X14856Y9085
X13476Y9205
X13296Y9805
X14496Y9805
X15516Y9805
X16956Y7885
X20496Y7405
X20856Y7045
X21336Y7045
X21816Y7045
X23616Y6865
X21336Y6145
X20556Y8185
X20916Y8545
X21396Y8545
X26736Y7705
X29076Y7285
X28056Y6385
X27096Y6385
X27576Y4885
X28236Y2605
X30576Y505
X32796Y7465
X32796Y8065
X32796Y8545
X31536Y8545
X30156Y9865
X27156Y9985
X23436Y12385
X17856Y13285
X16776Y12205
X15096Y12025
X11556Y14725
X4896Y16945
X11436Y8845
X9456Y7885
X31296Y15085
X32916Y16705
X33276Y17065
X34416Y11065
X37296Y10825
X38196Y9265
T02
X26471Y11955
X26471Y12955
X26471Y13955
X26471Y14955
X26471Y15955
X26471Y16955
X22471Y16955
X22471Y15955
X22471Y14955
X22471Y13955
X22471Y12955
X22471Y11955
X20596Y12155
X20596Y10255
X13096Y8080
X12096Y8080
T03
X8596Y15455
X7596Y15455
X6596Y15455
X6596Y16455
X7596Y16455
X8596Y16455
T04
X34941Y6572
X35721Y6572
X35721Y5588
X34941Y5588
T05
X12375Y15427
X12375Y16805
X9269Y13647
T06
X16462Y16080
X17840Y16080
X19218Y16080
X20596Y16080
X20929Y1705
X22306Y1705
X24096Y1705
X25474Y1705
X26852Y1705
X28230Y1705
X29608Y1705
X30986Y1705
X32364Y1705
X33742Y1705
X19551Y1705
X18173Y1705
X16795Y1705
X15417Y1705
X14039Y1705
X12661Y1705
T07
X9269Y5340
T08
X27621Y15330
X32821Y15330
T09
X36791Y8450
X36791Y3710
T10
X36020Y12905
X33657Y12905
X34838Y14755
T11
X37596Y16080
X37596Y1705
X1596Y1705
X1596Y16080
M30
