G75*
%MOIN*%
%OFA0B0*%
%FSLAX24Y24*%
%IPPOS*%
%LPD*%
%AMOC8*
5,1,8,0,0,1.08239X$1,22.5*
%
%ADD10C,0.0000*%
%ADD11C,0.0560*%
%ADD12R,0.0433X0.0394*%
%ADD13R,0.0315X0.0472*%
%ADD14R,0.0260X0.0800*%
%ADD15R,0.0472X0.0217*%
%ADD16R,0.1102X0.0787*%
%ADD17R,0.1575X0.0276*%
%ADD18R,0.1575X0.0472*%
%ADD19R,0.1095X0.1095*%
%ADD20R,0.1560X0.1560*%
%ADD21R,0.0394X0.0433*%
%ADD22OC8,0.0560*%
%ADD23C,0.0640*%
%ADD24C,0.0740*%
%ADD25C,0.1700*%
%ADD26R,0.0394X0.0551*%
%ADD27R,0.0480X0.0245*%
%ADD28C,0.0660*%
%ADD29C,0.1300*%
%ADD30R,0.0800X0.0800*%
%ADD31C,0.0800*%
%ADD32R,0.0160X0.0320*%
%ADD33R,0.0551X0.0630*%
%ADD34R,0.0315X0.0315*%
%ADD35R,0.0276X0.0276*%
%ADD36R,0.0256X0.0197*%
%ADD37R,0.0140X0.0240*%
%ADD38R,0.0630X0.0390*%
%ADD39R,0.0210X0.0780*%
%ADD40R,0.0098X0.0394*%
%ADD41R,0.0394X0.0098*%
%ADD42R,0.0787X0.0787*%
%ADD43R,0.0630X0.0551*%
%ADD44R,0.0320X0.0120*%
%ADD45R,0.0120X0.0320*%
%ADD46R,0.1280X0.1280*%
%ADD47C,0.0080*%
%ADD48C,0.0320*%
%ADD49C,0.0160*%
%ADD50OC8,0.0320*%
D10*
X001555Y000430D02*
X038255Y000430D01*
X038321Y000432D01*
X038387Y000437D01*
X038452Y000447D01*
X038516Y000459D01*
X038580Y000476D01*
X038643Y000496D01*
X038705Y000519D01*
X038765Y000546D01*
X038823Y000577D01*
X038880Y000610D01*
X038935Y000647D01*
X038988Y000686D01*
X039038Y000729D01*
X039086Y000774D01*
X039131Y000822D01*
X039174Y000872D01*
X039213Y000925D01*
X039250Y000980D01*
X039283Y001037D01*
X039314Y001095D01*
X039341Y001155D01*
X039364Y001217D01*
X039384Y001280D01*
X039401Y001344D01*
X039413Y001408D01*
X039423Y001473D01*
X039428Y001539D01*
X039430Y001605D01*
X039430Y016696D01*
X039429Y016696D02*
X039424Y016761D01*
X039415Y016826D01*
X039402Y016890D01*
X039386Y016953D01*
X039366Y017016D01*
X039343Y017077D01*
X039317Y017137D01*
X039287Y017195D01*
X039254Y017252D01*
X039217Y017306D01*
X039178Y017359D01*
X039136Y017409D01*
X039091Y017457D01*
X039044Y017502D01*
X038994Y017544D01*
X038941Y017584D01*
X038887Y017620D01*
X038831Y017654D01*
X038772Y017684D01*
X038713Y017711D01*
X038652Y017734D01*
X038589Y017755D01*
X038526Y017771D01*
X038462Y017784D01*
X038397Y017793D01*
X038331Y017799D01*
X038266Y017801D01*
X038200Y017799D01*
X038201Y017800D02*
X001580Y017800D01*
X001513Y017798D01*
X001447Y017792D01*
X001381Y017783D01*
X001316Y017769D01*
X001251Y017752D01*
X001188Y017731D01*
X001126Y017706D01*
X001066Y017678D01*
X001007Y017646D01*
X000950Y017611D01*
X000896Y017573D01*
X000843Y017532D01*
X000794Y017488D01*
X000746Y017440D01*
X000702Y017391D01*
X000661Y017338D01*
X000623Y017284D01*
X000588Y017227D01*
X000556Y017168D01*
X000528Y017108D01*
X000503Y017046D01*
X000482Y016983D01*
X000465Y016918D01*
X000451Y016853D01*
X000442Y016787D01*
X000436Y016721D01*
X000434Y016654D01*
X000434Y001551D01*
X000436Y001486D01*
X000442Y001421D01*
X000451Y001356D01*
X000464Y001292D01*
X000481Y001229D01*
X000502Y001168D01*
X000526Y001107D01*
X000553Y001048D01*
X000584Y000991D01*
X000618Y000935D01*
X000656Y000882D01*
X000696Y000830D01*
X000740Y000782D01*
X000786Y000736D01*
X000834Y000692D01*
X000886Y000652D01*
X000939Y000614D01*
X000994Y000580D01*
X001052Y000549D01*
X001111Y000522D01*
X001172Y000498D01*
X001233Y000477D01*
X001296Y000460D01*
X001360Y000447D01*
X001425Y000438D01*
X001490Y000432D01*
X001555Y000430D01*
X001030Y001680D02*
X001032Y001730D01*
X001038Y001780D01*
X001048Y001830D01*
X001061Y001878D01*
X001078Y001926D01*
X001099Y001972D01*
X001123Y002016D01*
X001151Y002058D01*
X001182Y002098D01*
X001216Y002135D01*
X001253Y002170D01*
X001292Y002201D01*
X001333Y002230D01*
X001377Y002255D01*
X001423Y002277D01*
X001470Y002295D01*
X001518Y002309D01*
X001567Y002320D01*
X001617Y002327D01*
X001667Y002330D01*
X001718Y002329D01*
X001768Y002324D01*
X001818Y002315D01*
X001866Y002303D01*
X001914Y002286D01*
X001960Y002266D01*
X002005Y002243D01*
X002048Y002216D01*
X002088Y002186D01*
X002126Y002153D01*
X002161Y002117D01*
X002194Y002078D01*
X002223Y002037D01*
X002249Y001994D01*
X002272Y001949D01*
X002291Y001902D01*
X002306Y001854D01*
X002318Y001805D01*
X002326Y001755D01*
X002330Y001705D01*
X002330Y001655D01*
X002326Y001605D01*
X002318Y001555D01*
X002306Y001506D01*
X002291Y001458D01*
X002272Y001411D01*
X002249Y001366D01*
X002223Y001323D01*
X002194Y001282D01*
X002161Y001243D01*
X002126Y001207D01*
X002088Y001174D01*
X002048Y001144D01*
X002005Y001117D01*
X001960Y001094D01*
X001914Y001074D01*
X001866Y001057D01*
X001818Y001045D01*
X001768Y001036D01*
X001718Y001031D01*
X001667Y001030D01*
X001617Y001033D01*
X001567Y001040D01*
X001518Y001051D01*
X001470Y001065D01*
X001423Y001083D01*
X001377Y001105D01*
X001333Y001130D01*
X001292Y001159D01*
X001253Y001190D01*
X001216Y001225D01*
X001182Y001262D01*
X001151Y001302D01*
X001123Y001344D01*
X001099Y001388D01*
X001078Y001434D01*
X001061Y001482D01*
X001048Y001530D01*
X001038Y001580D01*
X001032Y001630D01*
X001030Y001680D01*
X009288Y005590D02*
X009290Y005625D01*
X009296Y005660D01*
X009306Y005694D01*
X009319Y005727D01*
X009336Y005758D01*
X009357Y005786D01*
X009380Y005813D01*
X009407Y005836D01*
X009435Y005857D01*
X009466Y005874D01*
X009499Y005887D01*
X009533Y005897D01*
X009568Y005903D01*
X009603Y005905D01*
X009638Y005903D01*
X009673Y005897D01*
X009707Y005887D01*
X009740Y005874D01*
X009771Y005857D01*
X009799Y005836D01*
X009826Y005813D01*
X009849Y005786D01*
X009870Y005758D01*
X009887Y005727D01*
X009900Y005694D01*
X009910Y005660D01*
X009916Y005625D01*
X009918Y005590D01*
X009916Y005555D01*
X009910Y005520D01*
X009900Y005486D01*
X009887Y005453D01*
X009870Y005422D01*
X009849Y005394D01*
X009826Y005367D01*
X009799Y005344D01*
X009771Y005323D01*
X009740Y005306D01*
X009707Y005293D01*
X009673Y005283D01*
X009638Y005277D01*
X009603Y005275D01*
X009568Y005277D01*
X009533Y005283D01*
X009499Y005293D01*
X009466Y005306D01*
X009435Y005323D01*
X009407Y005344D01*
X009380Y005367D01*
X009357Y005394D01*
X009336Y005422D01*
X009319Y005453D01*
X009306Y005486D01*
X009296Y005520D01*
X009290Y005555D01*
X009288Y005590D01*
X009386Y013897D02*
X009388Y013926D01*
X009394Y013954D01*
X009403Y013982D01*
X009416Y014008D01*
X009433Y014031D01*
X009452Y014053D01*
X009474Y014072D01*
X009499Y014087D01*
X009525Y014100D01*
X009553Y014108D01*
X009581Y014113D01*
X009610Y014114D01*
X009639Y014111D01*
X009667Y014104D01*
X009694Y014094D01*
X009720Y014080D01*
X009743Y014063D01*
X009764Y014043D01*
X009782Y014020D01*
X009797Y013995D01*
X009808Y013968D01*
X009816Y013940D01*
X009820Y013911D01*
X009820Y013883D01*
X009816Y013854D01*
X009808Y013826D01*
X009797Y013799D01*
X009782Y013774D01*
X009764Y013751D01*
X009743Y013731D01*
X009720Y013714D01*
X009694Y013700D01*
X009667Y013690D01*
X009639Y013683D01*
X009610Y013680D01*
X009581Y013681D01*
X009553Y013686D01*
X009525Y013694D01*
X009499Y013707D01*
X009474Y013722D01*
X009452Y013741D01*
X009433Y013763D01*
X009416Y013786D01*
X009403Y013812D01*
X009394Y013840D01*
X009388Y013868D01*
X009386Y013897D01*
X001030Y016555D02*
X001032Y016605D01*
X001038Y016655D01*
X001048Y016705D01*
X001061Y016753D01*
X001078Y016801D01*
X001099Y016847D01*
X001123Y016891D01*
X001151Y016933D01*
X001182Y016973D01*
X001216Y017010D01*
X001253Y017045D01*
X001292Y017076D01*
X001333Y017105D01*
X001377Y017130D01*
X001423Y017152D01*
X001470Y017170D01*
X001518Y017184D01*
X001567Y017195D01*
X001617Y017202D01*
X001667Y017205D01*
X001718Y017204D01*
X001768Y017199D01*
X001818Y017190D01*
X001866Y017178D01*
X001914Y017161D01*
X001960Y017141D01*
X002005Y017118D01*
X002048Y017091D01*
X002088Y017061D01*
X002126Y017028D01*
X002161Y016992D01*
X002194Y016953D01*
X002223Y016912D01*
X002249Y016869D01*
X002272Y016824D01*
X002291Y016777D01*
X002306Y016729D01*
X002318Y016680D01*
X002326Y016630D01*
X002330Y016580D01*
X002330Y016530D01*
X002326Y016480D01*
X002318Y016430D01*
X002306Y016381D01*
X002291Y016333D01*
X002272Y016286D01*
X002249Y016241D01*
X002223Y016198D01*
X002194Y016157D01*
X002161Y016118D01*
X002126Y016082D01*
X002088Y016049D01*
X002048Y016019D01*
X002005Y015992D01*
X001960Y015969D01*
X001914Y015949D01*
X001866Y015932D01*
X001818Y015920D01*
X001768Y015911D01*
X001718Y015906D01*
X001667Y015905D01*
X001617Y015908D01*
X001567Y015915D01*
X001518Y015926D01*
X001470Y015940D01*
X001423Y015958D01*
X001377Y015980D01*
X001333Y016005D01*
X001292Y016034D01*
X001253Y016065D01*
X001216Y016100D01*
X001182Y016137D01*
X001151Y016177D01*
X001123Y016219D01*
X001099Y016263D01*
X001078Y016309D01*
X001061Y016357D01*
X001048Y016405D01*
X001038Y016455D01*
X001032Y016505D01*
X001030Y016555D01*
X037530Y016555D02*
X037532Y016605D01*
X037538Y016655D01*
X037548Y016705D01*
X037561Y016753D01*
X037578Y016801D01*
X037599Y016847D01*
X037623Y016891D01*
X037651Y016933D01*
X037682Y016973D01*
X037716Y017010D01*
X037753Y017045D01*
X037792Y017076D01*
X037833Y017105D01*
X037877Y017130D01*
X037923Y017152D01*
X037970Y017170D01*
X038018Y017184D01*
X038067Y017195D01*
X038117Y017202D01*
X038167Y017205D01*
X038218Y017204D01*
X038268Y017199D01*
X038318Y017190D01*
X038366Y017178D01*
X038414Y017161D01*
X038460Y017141D01*
X038505Y017118D01*
X038548Y017091D01*
X038588Y017061D01*
X038626Y017028D01*
X038661Y016992D01*
X038694Y016953D01*
X038723Y016912D01*
X038749Y016869D01*
X038772Y016824D01*
X038791Y016777D01*
X038806Y016729D01*
X038818Y016680D01*
X038826Y016630D01*
X038830Y016580D01*
X038830Y016530D01*
X038826Y016480D01*
X038818Y016430D01*
X038806Y016381D01*
X038791Y016333D01*
X038772Y016286D01*
X038749Y016241D01*
X038723Y016198D01*
X038694Y016157D01*
X038661Y016118D01*
X038626Y016082D01*
X038588Y016049D01*
X038548Y016019D01*
X038505Y015992D01*
X038460Y015969D01*
X038414Y015949D01*
X038366Y015932D01*
X038318Y015920D01*
X038268Y015911D01*
X038218Y015906D01*
X038167Y015905D01*
X038117Y015908D01*
X038067Y015915D01*
X038018Y015926D01*
X037970Y015940D01*
X037923Y015958D01*
X037877Y015980D01*
X037833Y016005D01*
X037792Y016034D01*
X037753Y016065D01*
X037716Y016100D01*
X037682Y016137D01*
X037651Y016177D01*
X037623Y016219D01*
X037599Y016263D01*
X037578Y016309D01*
X037561Y016357D01*
X037548Y016405D01*
X037538Y016455D01*
X037532Y016505D01*
X037530Y016555D01*
X037530Y001680D02*
X037532Y001730D01*
X037538Y001780D01*
X037548Y001830D01*
X037561Y001878D01*
X037578Y001926D01*
X037599Y001972D01*
X037623Y002016D01*
X037651Y002058D01*
X037682Y002098D01*
X037716Y002135D01*
X037753Y002170D01*
X037792Y002201D01*
X037833Y002230D01*
X037877Y002255D01*
X037923Y002277D01*
X037970Y002295D01*
X038018Y002309D01*
X038067Y002320D01*
X038117Y002327D01*
X038167Y002330D01*
X038218Y002329D01*
X038268Y002324D01*
X038318Y002315D01*
X038366Y002303D01*
X038414Y002286D01*
X038460Y002266D01*
X038505Y002243D01*
X038548Y002216D01*
X038588Y002186D01*
X038626Y002153D01*
X038661Y002117D01*
X038694Y002078D01*
X038723Y002037D01*
X038749Y001994D01*
X038772Y001949D01*
X038791Y001902D01*
X038806Y001854D01*
X038818Y001805D01*
X038826Y001755D01*
X038830Y001705D01*
X038830Y001655D01*
X038826Y001605D01*
X038818Y001555D01*
X038806Y001506D01*
X038791Y001458D01*
X038772Y001411D01*
X038749Y001366D01*
X038723Y001323D01*
X038694Y001282D01*
X038661Y001243D01*
X038626Y001207D01*
X038588Y001174D01*
X038548Y001144D01*
X038505Y001117D01*
X038460Y001094D01*
X038414Y001074D01*
X038366Y001057D01*
X038318Y001045D01*
X038268Y001036D01*
X038218Y001031D01*
X038167Y001030D01*
X038117Y001033D01*
X038067Y001040D01*
X038018Y001051D01*
X037970Y001065D01*
X037923Y001083D01*
X037877Y001105D01*
X037833Y001130D01*
X037792Y001159D01*
X037753Y001190D01*
X037716Y001225D01*
X037682Y001262D01*
X037651Y001302D01*
X037623Y001344D01*
X037599Y001388D01*
X037578Y001434D01*
X037561Y001482D01*
X037548Y001530D01*
X037538Y001580D01*
X037532Y001630D01*
X037530Y001680D01*
D11*
X023880Y012030D03*
X021980Y012030D03*
D12*
X021995Y010480D03*
X022665Y010480D03*
X023195Y010480D03*
X023865Y010480D03*
X025995Y010630D03*
X026665Y010630D03*
X027695Y010080D03*
X028365Y010080D03*
X032345Y010430D03*
X033015Y010430D03*
X030430Y012295D03*
X029630Y012295D03*
X029630Y012965D03*
X030430Y012965D03*
X027065Y012830D03*
X026395Y012830D03*
X028145Y014930D03*
X028815Y014930D03*
X036780Y014315D03*
X036780Y013645D03*
X037745Y013030D03*
X038415Y013030D03*
X033665Y006830D03*
X032995Y006830D03*
X032995Y005230D03*
X033665Y005230D03*
X027665Y006180D03*
X026995Y006180D03*
X026315Y005630D03*
X025645Y005630D03*
X017565Y012130D03*
X016895Y012130D03*
D13*
X017576Y010930D03*
X018284Y010930D03*
D14*
X015880Y010520D03*
X015380Y010520D03*
X014880Y010520D03*
X014380Y010520D03*
X013880Y010520D03*
X013380Y010520D03*
X012880Y010520D03*
X012380Y010520D03*
X012380Y012940D03*
X012880Y012940D03*
X013380Y012940D03*
X013880Y012940D03*
X014380Y012940D03*
X014880Y012940D03*
X015380Y012940D03*
X015880Y012940D03*
D15*
X025318Y013706D03*
X025318Y014080D03*
X025318Y014454D03*
X026342Y014454D03*
X026342Y013706D03*
X027983Y013850D03*
X027983Y013476D03*
X029007Y013476D03*
X029007Y014224D03*
X027983Y014224D03*
D16*
X010036Y014802D03*
X001847Y014763D03*
X010076Y004724D03*
X001847Y003779D03*
D17*
X010784Y013149D03*
X010784Y013661D03*
X010784Y014133D03*
D18*
X010784Y012519D03*
X010784Y011535D03*
X010784Y010550D03*
X010784Y009566D03*
X010784Y008582D03*
X010784Y007598D03*
X010784Y006613D03*
X010784Y005629D03*
D19*
X030830Y015430D03*
X036030Y015430D03*
D20*
X033430Y015430D03*
D21*
X029730Y014265D03*
X029730Y013595D03*
X027080Y013745D03*
X027080Y014415D03*
X025630Y015245D03*
X025630Y015915D03*
X027730Y012015D03*
X027730Y011345D03*
X032995Y007630D03*
X033665Y007630D03*
X033665Y006030D03*
X032995Y006030D03*
X029730Y006745D03*
X029730Y007415D03*
X025065Y005630D03*
X024395Y005630D03*
X023130Y005495D03*
X023130Y006165D03*
X012065Y014930D03*
X011395Y014930D03*
D22*
X012630Y008880D03*
X013630Y008880D03*
X014630Y008880D03*
X015630Y008880D03*
X016630Y008880D03*
X017630Y008880D03*
X017630Y004880D03*
X016630Y004880D03*
X015630Y004880D03*
X014630Y004880D03*
X013630Y004880D03*
X012630Y004880D03*
D23*
X009680Y016030D03*
X008680Y016030D03*
X007680Y016030D03*
X007680Y017030D03*
X008680Y017030D03*
X009680Y017030D03*
D24*
X011630Y016980D03*
X011630Y015980D03*
X006360Y015190D03*
X003800Y015190D03*
X003800Y016970D03*
X006360Y016970D03*
X005810Y003570D03*
X003250Y003570D03*
X003250Y001790D03*
X005810Y001790D03*
D25*
X034781Y010505D03*
X037143Y010505D03*
X035962Y012355D03*
D26*
X034054Y012463D03*
X033306Y012463D03*
X032754Y012463D03*
X032006Y012463D03*
X032380Y011597D03*
X033680Y011597D03*
X030454Y011563D03*
X029706Y011563D03*
X030080Y010697D03*
X020054Y011897D03*
X019306Y011897D03*
X019680Y012763D03*
D27*
X037664Y014006D03*
X037664Y014380D03*
X037664Y014754D03*
X038696Y014754D03*
X038696Y014380D03*
X038696Y014006D03*
D28*
X035680Y005922D03*
X034900Y005922D03*
X034900Y004938D03*
X035680Y004938D03*
D29*
X036750Y003060D03*
X036750Y007800D03*
D30*
X029277Y001930D03*
X018254Y001930D03*
X007230Y001930D03*
X014030Y016380D03*
D31*
X015408Y016380D03*
X016786Y016380D03*
X018164Y016380D03*
X019542Y016380D03*
X020920Y016380D03*
X022298Y016380D03*
X023676Y016380D03*
X023765Y001930D03*
X025143Y001930D03*
X026521Y001930D03*
X027899Y001930D03*
X030655Y001930D03*
X032033Y001930D03*
X033411Y001930D03*
X022387Y001930D03*
X021010Y001930D03*
X019632Y001930D03*
X016876Y001930D03*
X015498Y001930D03*
X014120Y001930D03*
X012742Y001930D03*
X011364Y001930D03*
X009986Y001930D03*
X008608Y001930D03*
D32*
X012658Y006526D03*
X012973Y006526D03*
X013287Y006526D03*
X013602Y006526D03*
X013602Y007234D03*
X013287Y007234D03*
X012973Y007234D03*
X012658Y007234D03*
X015658Y007234D03*
X015973Y007234D03*
X016287Y007234D03*
X016602Y007234D03*
X016602Y006526D03*
X016287Y006526D03*
X015973Y006526D03*
X015658Y006526D03*
D33*
X032479Y009030D03*
X033581Y009030D03*
D34*
X036030Y001925D03*
X036730Y001925D03*
X036730Y001335D03*
X036030Y001335D03*
D35*
X029930Y004966D03*
X028730Y004966D03*
X028474Y005694D03*
X028986Y005694D03*
X029674Y005694D03*
X030186Y005694D03*
D36*
X034634Y002352D03*
X034634Y002037D03*
X035126Y002037D03*
X035126Y002352D03*
X035126Y001723D03*
X034634Y001723D03*
X034634Y001408D03*
X035126Y001408D03*
X020226Y005708D03*
X019734Y005708D03*
X019734Y006023D03*
X019734Y006337D03*
X020226Y006337D03*
X020226Y006023D03*
X020226Y006652D03*
X019734Y006652D03*
D37*
X026370Y011320D03*
X026630Y011320D03*
X026890Y011320D03*
X026890Y012140D03*
X026630Y012140D03*
X026370Y012140D03*
D38*
X026630Y011730D03*
D39*
X024130Y009350D03*
X023630Y009350D03*
X023130Y009350D03*
X022630Y009350D03*
X026880Y009200D03*
X027380Y009200D03*
X027880Y009200D03*
X028380Y009200D03*
X024130Y007410D03*
X023630Y007410D03*
X023130Y007410D03*
X022630Y007410D03*
X026880Y007260D03*
X027380Y007260D03*
X027880Y007260D03*
X028380Y007260D03*
D40*
X030899Y007805D03*
X031096Y007805D03*
X031293Y007805D03*
X031489Y007805D03*
X031686Y007805D03*
X031686Y006230D03*
X031489Y006230D03*
X031293Y006230D03*
X031096Y006230D03*
X030899Y006230D03*
D41*
X030505Y006624D03*
X030505Y006821D03*
X030505Y007017D03*
X030505Y007214D03*
X030505Y007411D03*
X032080Y007411D03*
X032080Y007214D03*
X032080Y007017D03*
X032080Y006821D03*
X032080Y006624D03*
D42*
X031293Y007017D03*
D43*
X022030Y006181D03*
X022030Y005079D03*
D44*
X021200Y008390D03*
X021200Y008590D03*
X021200Y008780D03*
X021200Y008980D03*
X021200Y009180D03*
X021200Y009380D03*
X021200Y009570D03*
X021200Y009770D03*
X019260Y009770D03*
X019260Y009570D03*
X019260Y009380D03*
X019260Y009180D03*
X019260Y008980D03*
X019260Y008780D03*
X019260Y008590D03*
X019260Y008390D03*
D45*
X019540Y008110D03*
X019740Y008110D03*
X019930Y008110D03*
X020130Y008110D03*
X020330Y008110D03*
X020530Y008110D03*
X020720Y008110D03*
X020920Y008110D03*
X020920Y010050D03*
X020720Y010050D03*
X020530Y010050D03*
X020330Y010050D03*
X020130Y010050D03*
X019930Y010050D03*
X019740Y010050D03*
X019540Y010050D03*
D46*
X020230Y009080D03*
D47*
X019260Y008980D02*
X018730Y008980D01*
X018680Y008930D01*
X018530Y009230D02*
X018030Y008730D01*
X018030Y006580D01*
X019030Y005530D01*
X019030Y002680D01*
X019005Y002655D01*
X019030Y002630D01*
X021680Y002630D01*
X021705Y002605D01*
X021830Y002730D01*
X023730Y002730D01*
X023830Y003030D02*
X024580Y002280D01*
X024580Y001730D01*
X024930Y001380D01*
X029730Y001380D01*
X030130Y001780D01*
X030130Y003780D01*
X030155Y003805D01*
X029030Y004930D01*
X028730Y004930D01*
X028730Y004966D01*
X029230Y005680D02*
X029480Y005430D01*
X029930Y005430D01*
X030180Y005680D01*
X030186Y005694D01*
X030880Y005980D02*
X030880Y006230D01*
X030899Y006230D01*
X030580Y006330D02*
X030530Y006380D01*
X030530Y006580D01*
X030505Y006624D01*
X030080Y006480D02*
X029980Y006380D01*
X029480Y006380D01*
X028930Y006930D01*
X028930Y007080D01*
X028630Y006980D02*
X028630Y007680D01*
X028530Y007780D01*
X025580Y007780D01*
X025180Y007780D02*
X026230Y006730D01*
X027030Y006730D01*
X027380Y007080D01*
X027380Y007260D01*
X027030Y006730D02*
X027030Y006180D01*
X026995Y006180D01*
X026980Y006180D01*
X026980Y005680D01*
X025430Y004130D01*
X025030Y004130D01*
X025080Y003680D02*
X024230Y004530D01*
X021830Y004530D01*
X021730Y004230D02*
X021180Y004780D01*
X021180Y005780D01*
X021380Y005980D01*
X021380Y006630D01*
X020230Y006630D01*
X020226Y006652D01*
X020030Y006930D02*
X019780Y006680D01*
X019734Y006652D01*
X019730Y006630D01*
X019730Y006380D01*
X019734Y006337D01*
X019480Y006180D02*
X019480Y006930D01*
X019430Y006930D01*
X019480Y006930D02*
X019480Y007130D01*
X020130Y007780D01*
X020130Y008110D01*
X020330Y008110D02*
X020330Y007630D01*
X020830Y007130D01*
X021680Y007130D01*
X022630Y008080D01*
X023380Y008080D01*
X023680Y008380D01*
X023630Y008080D02*
X023130Y007580D01*
X023130Y007410D01*
X022830Y007430D02*
X022830Y007410D01*
X022730Y007380D02*
X022730Y007480D01*
X022630Y007410D01*
X022630Y007430D01*
X022630Y007410D01*
X022630Y007410D01*
X022730Y007380D01*
X022680Y007430D02*
X022630Y007410D01*
X022280Y007330D02*
X021880Y006930D01*
X020030Y006930D01*
X020530Y007680D02*
X020880Y007330D01*
X021480Y007330D01*
X022230Y008080D01*
X021830Y008380D02*
X023280Y008380D01*
X023630Y008080D02*
X023880Y008080D01*
X023880Y006980D01*
X023830Y006930D01*
X023830Y006880D01*
X023130Y006180D01*
X023130Y006165D01*
X023130Y006180D02*
X022030Y006180D01*
X022030Y006181D01*
X022330Y005680D02*
X021480Y005680D01*
X021080Y006080D02*
X020830Y006330D01*
X020230Y006330D01*
X020226Y006337D01*
X020226Y006023D02*
X020230Y005980D01*
X020230Y005730D01*
X020226Y005708D01*
X020230Y005680D01*
X020230Y005480D01*
X020255Y005455D01*
X020230Y005430D01*
X019330Y005430D01*
X019630Y005730D02*
X019355Y006005D01*
X019330Y005980D01*
X019330Y005930D01*
X019355Y006005D02*
X019130Y006230D01*
X019130Y007030D01*
X019930Y007830D01*
X019930Y008110D01*
X019740Y008110D02*
X019730Y008080D01*
X019730Y007880D01*
X018580Y006730D01*
X018580Y007130D02*
X019530Y008080D01*
X019540Y008110D01*
X019260Y008390D02*
X019230Y008380D01*
X018580Y007730D01*
X018430Y008130D02*
X018630Y008330D01*
X018780Y008330D01*
X019040Y008590D01*
X019260Y008590D01*
X019260Y008780D02*
X018980Y008780D01*
X018830Y008630D01*
X018530Y008630D01*
X018430Y008530D01*
X017630Y008880D02*
X016630Y007880D01*
X016630Y007280D01*
X016602Y007234D01*
X016330Y007230D02*
X016287Y007234D01*
X016330Y007280D01*
X016330Y008580D01*
X016630Y008880D01*
X017180Y009430D01*
X018830Y009430D01*
X018880Y009380D01*
X019260Y009380D01*
X019260Y009570D02*
X019230Y009580D01*
X018930Y009580D01*
X018780Y009730D01*
X017480Y009730D01*
X017680Y009930D02*
X014880Y012730D01*
X014880Y012940D01*
X014880Y013630D01*
X016730Y015480D01*
X016730Y016380D01*
X016786Y016380D01*
X016780Y016380D01*
X015680Y017480D01*
X009480Y017480D01*
X009230Y017230D01*
X009230Y016930D01*
X008680Y016380D01*
X008680Y016030D01*
X008880Y015580D02*
X009330Y016030D01*
X009680Y016030D01*
X008880Y015580D02*
X007480Y015580D01*
X006380Y016680D01*
X006380Y016930D01*
X006360Y016970D01*
X006130Y017480D02*
X005830Y017180D01*
X005830Y016730D01*
X009330Y013230D01*
X009330Y006830D01*
X009930Y006230D01*
X011630Y006230D01*
X011880Y006480D01*
X012630Y006480D01*
X012658Y006526D01*
X012680Y006480D01*
X012680Y005980D01*
X013230Y005430D01*
X018730Y005430D01*
X017830Y005730D02*
X016730Y006830D01*
X016580Y006830D01*
X016330Y007080D01*
X016330Y007230D01*
X015973Y006526D02*
X015980Y006480D01*
X015980Y005780D01*
X016030Y005730D01*
X015630Y005830D02*
X015630Y006480D01*
X015658Y006526D01*
X013630Y006480D02*
X013630Y005730D01*
X013280Y005880D02*
X013230Y005830D01*
X013280Y005880D02*
X013280Y006480D01*
X013287Y006526D01*
X012973Y006526D02*
X012930Y006530D01*
X012930Y006680D01*
X012680Y006930D01*
X012530Y006930D01*
X011730Y007730D01*
X011730Y008830D01*
X011705Y008855D01*
X011730Y008880D01*
X011730Y010580D01*
X012730Y011580D01*
X015630Y011580D01*
X016030Y011980D02*
X016030Y012380D01*
X015880Y012530D01*
X015880Y012940D01*
X015880Y014380D01*
X017630Y016130D01*
X017630Y016630D01*
X017930Y016930D01*
X022530Y016930D01*
X023130Y016330D01*
X023130Y014930D01*
X024180Y013880D01*
X024680Y013730D02*
X025280Y013730D01*
X025318Y013706D01*
X025580Y013430D02*
X025980Y013830D01*
X025980Y014080D01*
X026330Y014430D01*
X026342Y014454D01*
X026380Y014430D01*
X027080Y014430D01*
X027080Y014415D01*
X027983Y014224D02*
X028280Y014230D01*
X028630Y013930D01*
X028630Y013330D01*
X028955Y013005D01*
X028930Y012980D01*
X028930Y011930D01*
X027730Y010730D01*
X027730Y010080D01*
X027695Y010080D01*
X027730Y010080D02*
X027730Y009580D01*
X026680Y010630D01*
X026665Y010630D01*
X026630Y010630D01*
X026630Y011320D01*
X026380Y011330D02*
X026370Y011320D01*
X026380Y011330D02*
X026380Y011480D01*
X026630Y011730D01*
X027230Y011980D02*
X027230Y011330D01*
X026930Y011330D01*
X026890Y011320D01*
X027230Y011330D02*
X027730Y011330D01*
X027730Y011345D01*
X026930Y012180D02*
X026890Y012140D01*
X026930Y012180D02*
X026930Y012730D01*
X027030Y012830D01*
X027065Y012830D01*
X026630Y012630D02*
X026430Y012830D01*
X026395Y012830D01*
X026630Y012630D02*
X026630Y012140D01*
X026370Y012140D02*
X026330Y012130D01*
X025630Y011430D01*
X025630Y010730D01*
X024480Y009580D01*
X023880Y009830D02*
X023730Y009980D01*
X023880Y009830D02*
X025330Y011280D01*
X025330Y012030D01*
X025630Y012080D02*
X025650Y012080D01*
X023880Y012030D02*
X023880Y010480D01*
X023865Y010480D01*
X023830Y010480D01*
X023480Y010130D01*
X021930Y010130D01*
X021380Y009580D01*
X021210Y009580D01*
X021200Y009570D01*
X021200Y009380D02*
X021430Y009380D01*
X021630Y009580D01*
X021830Y009580D01*
X022030Y009380D01*
X022030Y008980D01*
X021200Y008980D01*
X021200Y008780D02*
X021380Y008780D01*
X021456Y008780D01*
X021630Y008780D01*
X021630Y008780D01*
X021830Y008780D01*
X021930Y008680D01*
X021930Y008580D01*
X021930Y008680D02*
X022080Y008630D01*
X022080Y008730D02*
X021930Y008680D01*
X021830Y008380D02*
X021630Y008580D01*
X021230Y008580D01*
X021200Y008590D01*
X021200Y008390D02*
X021230Y008380D01*
X021330Y008380D01*
X021530Y008180D01*
X021530Y007780D01*
X020980Y007630D02*
X020730Y007880D01*
X020730Y008080D01*
X020720Y008110D01*
X020530Y008110D02*
X020530Y007680D01*
X020930Y008080D02*
X020920Y008110D01*
X020930Y008080D02*
X021230Y008080D01*
X022330Y008980D02*
X022630Y008680D01*
X026580Y008680D01*
X026580Y008380D01*
X026580Y008680D02*
X027530Y008680D01*
X027880Y009030D01*
X027880Y009200D01*
X027880Y009230D01*
X027730Y009380D01*
X027730Y009580D01*
X027380Y009380D02*
X027380Y009200D01*
X027380Y009380D02*
X027030Y009730D01*
X026280Y009730D01*
X025630Y010380D01*
X025630Y010730D01*
X023880Y009830D02*
X023630Y009580D01*
X023630Y009350D01*
X023130Y009350D02*
X023130Y009530D01*
X022780Y009880D01*
X022480Y009880D01*
X022280Y009680D01*
X022280Y009530D01*
X021730Y009280D02*
X021630Y009180D01*
X021200Y009180D01*
X022030Y008980D02*
X022330Y008980D01*
X021230Y009780D02*
X021200Y009770D01*
X021230Y009780D02*
X021930Y010480D01*
X021980Y010480D01*
X021995Y010480D01*
X021980Y010480D02*
X021980Y012030D01*
X021580Y012230D02*
X022480Y013130D01*
X026080Y013130D01*
X026330Y013380D01*
X027930Y013380D01*
X027980Y013430D01*
X027983Y013476D01*
X028955Y013005D02*
X028980Y012980D01*
X029630Y012980D01*
X029630Y012965D01*
X029630Y012930D01*
X029880Y012930D01*
X030180Y012630D01*
X031830Y012630D01*
X031980Y012480D01*
X032006Y012463D01*
X032030Y012480D01*
X032430Y012880D01*
X032980Y012880D01*
X033180Y012680D01*
X033280Y012680D01*
X033306Y012463D01*
X033330Y012430D01*
X033330Y011280D01*
X034080Y010530D01*
X034780Y010530D01*
X034781Y010505D01*
X033780Y010280D02*
X033780Y010130D01*
X034380Y009530D01*
X037580Y009530D01*
X039180Y011130D01*
X039180Y015080D01*
X038780Y015480D01*
X038380Y015480D01*
X037680Y014780D01*
X037664Y014754D01*
X037630Y014730D01*
X037480Y014730D01*
X037080Y014330D01*
X036780Y014330D01*
X036780Y014315D01*
X037330Y013680D02*
X037630Y013980D01*
X037664Y014006D01*
X037330Y013680D02*
X037080Y013680D01*
X037730Y013030D01*
X037745Y013030D01*
X037930Y013480D02*
X038380Y013030D01*
X038415Y013030D01*
X038680Y012680D02*
X038780Y012780D01*
X038780Y013280D01*
X038330Y013730D01*
X038330Y013880D01*
X037830Y014380D01*
X037664Y014380D01*
X038696Y014006D02*
X038730Y013980D01*
X038730Y013580D01*
X038980Y013330D01*
X038980Y012730D01*
X037730Y011480D01*
X036480Y011480D01*
X036380Y011380D01*
X035280Y011380D01*
X035080Y011580D01*
X033680Y011580D01*
X033680Y011597D01*
X032780Y011280D02*
X033780Y010280D01*
X033581Y009863D02*
X033015Y010430D01*
X032380Y010430D02*
X032345Y010430D01*
X032380Y010430D02*
X032380Y008980D01*
X032479Y009030D01*
X032380Y008980D02*
X031955Y008555D01*
X032530Y007980D01*
X031980Y007730D02*
X031780Y007730D01*
X032080Y007430D01*
X032080Y007411D01*
X032080Y007230D02*
X032080Y007214D01*
X032080Y007230D02*
X032580Y007230D01*
X032980Y007630D01*
X032995Y007630D01*
X033665Y007630D02*
X033680Y007630D01*
X033680Y006830D01*
X033665Y006830D01*
X033680Y006830D02*
X035680Y006830D01*
X036330Y006180D01*
X036330Y004930D01*
X035880Y004480D01*
X035380Y004480D01*
X034930Y004930D01*
X034900Y004938D01*
X034330Y005330D02*
X034880Y005880D01*
X034900Y005922D01*
X034680Y006380D02*
X034330Y006030D01*
X033665Y006030D01*
X033665Y005230D01*
X034330Y005330D02*
X034330Y004030D01*
X034630Y003730D01*
X034630Y002380D01*
X034634Y002352D01*
X034630Y002330D01*
X034630Y002080D01*
X034634Y002037D01*
X034230Y001980D02*
X034230Y002630D01*
X030880Y005980D01*
X031293Y006230D02*
X031293Y007017D01*
X031293Y007805D01*
X031293Y008267D01*
X031280Y008280D01*
X031080Y008080D02*
X031080Y007830D01*
X031096Y007805D01*
X031480Y007830D02*
X031489Y007805D01*
X031480Y007830D02*
X031480Y008080D01*
X031955Y008555D01*
X030980Y008480D02*
X030980Y008180D01*
X031080Y008080D01*
X030580Y007980D02*
X030280Y008280D01*
X029630Y008280D01*
X029605Y008259D01*
X029280Y007980D01*
X029280Y007230D01*
X029730Y006780D01*
X029730Y006745D01*
X030080Y006830D02*
X030080Y006480D01*
X030080Y006830D02*
X030280Y007030D01*
X030480Y007030D01*
X030505Y007017D01*
X030505Y007214D02*
X030480Y007230D01*
X030230Y007230D01*
X030180Y007280D01*
X030180Y007680D01*
X031686Y007805D02*
X031730Y007780D01*
X031780Y007730D01*
X032080Y007030D02*
X032080Y007017D01*
X032080Y007030D02*
X032380Y007030D01*
X032630Y006780D01*
X032630Y006380D01*
X032980Y006030D01*
X032995Y006030D01*
X032430Y006730D02*
X032430Y004830D01*
X033530Y003730D01*
X034230Y003730D01*
X034930Y003730D02*
X036730Y001930D01*
X036730Y001925D01*
X036530Y001630D02*
X036280Y001880D01*
X036030Y001880D01*
X036030Y001925D01*
X035730Y001830D02*
X035730Y001730D01*
X035830Y001630D01*
X036280Y001630D01*
X036575Y001335D01*
X036730Y001335D01*
X036930Y001630D02*
X036530Y001630D01*
X036930Y001630D02*
X037530Y002230D01*
X037530Y005230D01*
X034680Y008080D01*
X033480Y008080D01*
X032980Y008580D01*
X033581Y009030D02*
X033581Y009863D01*
X032380Y010430D02*
X032380Y011597D01*
X032780Y011280D02*
X032780Y012430D01*
X032754Y012463D01*
X033280Y012630D02*
X033306Y012463D01*
X033280Y012630D02*
X034280Y013630D01*
X036780Y013630D01*
X036780Y013645D01*
X036780Y013680D01*
X037080Y013680D01*
X036380Y013330D02*
X034930Y013330D01*
X034080Y012480D01*
X034054Y012463D01*
X036380Y013330D02*
X037030Y012680D01*
X038680Y012680D01*
X032030Y009530D02*
X030980Y008480D01*
X031293Y007017D02*
X031686Y006624D01*
X032080Y006624D01*
X032080Y006821D02*
X032080Y006830D01*
X032330Y006830D01*
X032430Y006730D01*
X034680Y006380D02*
X035880Y006380D01*
X036130Y006130D01*
X036130Y005430D01*
X035680Y004980D01*
X035680Y004938D01*
X033930Y004430D02*
X033928Y004426D01*
X033530Y003730D02*
X033480Y003730D01*
X033380Y001930D02*
X030380Y004930D01*
X029930Y004930D01*
X029930Y004966D01*
X029930Y004980D01*
X029680Y005230D01*
X027430Y005230D01*
X025480Y003280D01*
X025180Y003380D02*
X024730Y003380D01*
X023880Y004230D01*
X021730Y004230D01*
X022130Y004930D02*
X022030Y005030D01*
X022030Y005079D01*
X022130Y004930D02*
X023580Y004930D01*
X023380Y005130D02*
X022880Y005130D01*
X022330Y005680D01*
X023130Y005530D02*
X023130Y005495D01*
X023130Y005530D02*
X023580Y005980D01*
X024030Y005780D02*
X024030Y006530D01*
X024330Y006530D01*
X024030Y006530D02*
X024030Y006880D01*
X024130Y006980D01*
X024130Y007410D01*
X024480Y007580D02*
X024480Y007180D01*
X025030Y006630D01*
X025030Y005630D01*
X025065Y005630D01*
X025645Y005630D01*
X026315Y005630D02*
X026330Y005630D01*
X026530Y005830D01*
X026530Y006080D01*
X027480Y005680D02*
X025180Y003380D01*
X024630Y003230D02*
X025930Y001930D01*
X026521Y001930D01*
X027280Y003880D02*
X029230Y001930D01*
X029277Y001930D01*
X029780Y001180D02*
X030530Y001930D01*
X030655Y001930D01*
X030680Y001930D01*
X031230Y001380D01*
X033630Y001380D01*
X033930Y001680D01*
X034630Y001680D01*
X034634Y001723D01*
X035126Y001723D02*
X035130Y001680D01*
X035280Y001680D01*
X035380Y001580D01*
X035380Y001230D01*
X035180Y001030D01*
X034880Y000930D02*
X034880Y001180D01*
X035080Y001380D01*
X035126Y001408D01*
X035530Y001680D02*
X035830Y001380D01*
X036030Y001380D01*
X036030Y001335D01*
X035530Y001680D02*
X035530Y001730D01*
X035230Y002030D01*
X035130Y002030D01*
X035126Y002037D01*
X035130Y002330D02*
X035126Y002352D01*
X035130Y002330D02*
X035230Y002330D01*
X035730Y001830D01*
X034634Y001408D02*
X034630Y001380D01*
X033880Y001380D01*
X033580Y001080D01*
X030080Y001080D01*
X029780Y001180D02*
X023780Y001180D01*
X023080Y001880D01*
X023080Y002280D01*
X021705Y002605D02*
X021030Y001930D01*
X021010Y001930D01*
X019005Y002655D02*
X018280Y001930D01*
X018254Y001930D01*
X018230Y001930D01*
X017680Y001380D01*
X013930Y001380D01*
X013380Y001930D01*
X012742Y001930D01*
X012730Y001930D01*
X012180Y002480D01*
X011130Y002480D01*
X010580Y001930D01*
X009986Y001930D01*
X008630Y001930D02*
X008608Y001930D01*
X008630Y001930D02*
X011580Y004880D01*
X012630Y004880D01*
X014130Y004380D02*
X014630Y004880D01*
X014130Y004380D02*
X014130Y001930D01*
X014120Y001930D01*
X016830Y001930D02*
X016876Y001930D01*
X016830Y001930D02*
X016830Y003680D01*
X015630Y004880D01*
X013630Y006480D02*
X013602Y006526D01*
X010784Y006613D02*
X010780Y006630D01*
X010530Y006630D01*
X009630Y007530D01*
X009630Y011580D01*
X009980Y011930D01*
X011430Y011930D01*
X012130Y012630D01*
X012130Y013430D01*
X012180Y013480D01*
X013080Y013480D01*
X013380Y013180D01*
X013380Y012940D01*
X012880Y012940D02*
X012880Y012730D01*
X013230Y012380D01*
X013530Y012380D01*
X013630Y012480D01*
X013630Y013430D01*
X013680Y013480D01*
X013730Y013480D01*
X014180Y013930D01*
X014605Y013905D02*
X014030Y014480D01*
X014030Y016380D01*
X013930Y016480D01*
X009230Y016480D01*
X007680Y017030D02*
X007230Y017480D01*
X006130Y017480D01*
X008430Y015280D02*
X008430Y014380D01*
X010280Y012530D01*
X010780Y012530D01*
X010784Y012519D01*
X010830Y012530D01*
X011280Y012530D01*
X011930Y013180D01*
X011930Y013480D01*
X013730Y015280D01*
X012730Y014680D02*
X012330Y014680D01*
X012080Y014930D01*
X012065Y014930D01*
X011430Y014930D02*
X011395Y014930D01*
X011430Y014930D02*
X011430Y015780D01*
X011630Y015980D01*
X013880Y013180D02*
X014605Y013905D01*
X014630Y013930D01*
X014780Y013930D01*
X013880Y013180D02*
X013880Y012940D01*
X014380Y012940D02*
X014380Y012730D01*
X013630Y011980D01*
X012630Y011980D01*
X011580Y010930D01*
X009930Y010930D01*
X009830Y010830D01*
X009830Y008330D01*
X010530Y007630D01*
X010780Y007630D01*
X010784Y007598D01*
X009030Y006780D02*
X005830Y003580D01*
X005810Y003570D01*
X009030Y006780D02*
X009030Y009180D01*
X010784Y009566D02*
X010830Y009530D01*
X011030Y009530D01*
X011705Y008855D01*
X010784Y010550D02*
X010830Y010580D01*
X011480Y010580D01*
X012680Y011780D01*
X013680Y011780D01*
X014180Y012280D01*
X014930Y012280D01*
X015380Y012630D02*
X015730Y012280D01*
X015380Y012630D02*
X015380Y012940D01*
X017565Y012130D02*
X017580Y012130D01*
X017580Y010930D01*
X017576Y010930D01*
X017580Y010930D02*
X017630Y010880D01*
X017630Y010380D01*
X017930Y010380D02*
X018180Y010130D01*
X019530Y010130D01*
X019540Y010050D01*
X019730Y010080D02*
X019730Y010280D01*
X019580Y010430D01*
X018280Y010430D01*
X017930Y010380D02*
X017930Y013930D01*
X016880Y014980D01*
X018164Y016380D02*
X018180Y016380D01*
X018280Y016280D01*
X018280Y013630D01*
X024030Y013630D01*
X024080Y013580D01*
X024280Y013580D01*
X025630Y014930D01*
X028130Y014930D01*
X028145Y014930D01*
X028130Y014930D02*
X028130Y014330D01*
X028030Y014230D01*
X027983Y014224D01*
X029007Y014224D02*
X029180Y014230D01*
X029180Y015330D01*
X028230Y016280D01*
X025380Y016280D01*
X023780Y014680D01*
X025318Y014454D02*
X025330Y014480D01*
X025630Y014780D01*
X025630Y014930D01*
X025630Y015245D01*
X024680Y013730D02*
X024330Y013380D01*
X022480Y013380D01*
X020280Y011180D01*
X020280Y010730D01*
X020330Y010680D01*
X020330Y010050D01*
X020130Y010050D02*
X020130Y010430D01*
X018480Y012080D01*
X018480Y013230D01*
X018580Y013330D01*
X018280Y013630D02*
X018280Y010930D01*
X018284Y010930D01*
X018580Y011380D02*
X018880Y011380D01*
X019930Y010330D01*
X019930Y010050D01*
X019740Y010050D02*
X019730Y010080D01*
X019260Y009770D02*
X019230Y009780D01*
X019030Y009780D01*
X018880Y009930D01*
X017680Y009930D01*
X018530Y009230D02*
X018780Y009230D01*
X018880Y009180D01*
X019260Y009180D01*
X019260Y009570D02*
X019280Y009580D01*
X020530Y010050D02*
X020530Y010780D01*
X020580Y010830D01*
X020730Y010580D02*
X021580Y011430D01*
X021580Y012230D01*
X020054Y011897D02*
X020030Y011930D01*
X019630Y012330D01*
X019430Y012330D01*
X019330Y012430D01*
X019230Y012430D01*
X018780Y012730D02*
X019680Y012730D01*
X019680Y012763D01*
X019306Y011897D02*
X019330Y011880D01*
X019830Y011380D01*
X020080Y011380D01*
X020730Y010580D02*
X020730Y010080D01*
X020720Y010050D01*
X020920Y010050D02*
X020930Y010080D01*
X020930Y010380D01*
X021030Y010480D01*
X023619Y011669D02*
X023630Y011680D01*
X024780Y013430D02*
X025580Y013430D01*
X029007Y014224D02*
X029030Y014230D01*
X029180Y014230D01*
X029730Y014230D01*
X029730Y014265D01*
X030430Y015030D02*
X030830Y015430D01*
X030430Y015030D02*
X030430Y012965D01*
X030430Y012295D02*
X030430Y011580D01*
X030454Y011563D01*
X029706Y011563D02*
X029680Y011580D01*
X029630Y011630D01*
X029630Y012295D01*
X030080Y010697D02*
X030080Y010230D01*
X027930Y008080D01*
X023880Y008080D01*
X023630Y007410D02*
X023630Y007230D01*
X022980Y006580D01*
X022180Y006580D01*
X022130Y006630D01*
X021380Y006630D01*
X019734Y006023D02*
X019730Y006030D01*
X019630Y006030D01*
X019480Y006180D01*
X019630Y005730D02*
X019730Y005730D01*
X019734Y005708D01*
X020255Y005455D02*
X022480Y003230D01*
X023780Y003230D01*
X023780Y003930D01*
X023780Y003230D02*
X024630Y003230D01*
X023830Y003030D02*
X022430Y003030D01*
X020380Y005080D01*
X020180Y005080D01*
X023380Y005130D02*
X024030Y005780D01*
X024395Y005630D02*
X024430Y005630D01*
X024430Y006230D01*
X024730Y006530D01*
X024430Y005630D02*
X024430Y004730D01*
X026480Y003880D02*
X027280Y003880D01*
X030155Y003805D02*
X032030Y001930D01*
X032033Y001930D01*
X033380Y001930D02*
X033411Y001930D01*
X034880Y000930D02*
X035080Y000730D01*
X035480Y000730D01*
X029674Y005694D02*
X029630Y005730D01*
X029630Y005980D01*
X028630Y006980D01*
X028180Y006630D02*
X028080Y006630D01*
X028180Y006630D02*
X028980Y005830D01*
X028980Y005730D01*
X028986Y005694D01*
X029030Y005680D01*
X029230Y005680D01*
X028474Y005694D02*
X028430Y005680D01*
X027480Y005680D01*
X012380Y012630D02*
X012380Y012940D01*
X012380Y012630D02*
X011330Y011580D01*
X010830Y011580D01*
X010784Y011535D01*
X019580Y014330D02*
X019580Y016380D01*
X019542Y016380D01*
D48*
X016880Y014980D03*
X014780Y013930D03*
X014180Y013930D03*
X012730Y014680D03*
X013730Y015280D03*
X009230Y016480D03*
X008430Y015280D03*
X014930Y012280D03*
X015730Y012280D03*
X016030Y011980D03*
X015630Y011580D03*
X018280Y010430D03*
X017630Y010380D03*
X017480Y009730D03*
X018680Y008930D03*
X018430Y008530D03*
X018430Y008130D03*
X018580Y007730D03*
X018580Y007130D03*
X019430Y006930D03*
X018580Y006730D03*
X019330Y005930D03*
X019330Y005430D03*
X018730Y005430D03*
X017830Y005730D03*
X016030Y005730D03*
X015630Y005830D03*
X013630Y005730D03*
X013230Y005830D03*
X020180Y005080D03*
X021480Y005680D03*
X021080Y006080D03*
X023580Y005980D03*
X024330Y006530D03*
X024730Y006530D03*
X026530Y006080D03*
X028080Y006630D03*
X028930Y007080D03*
X030180Y007680D03*
X030580Y007980D03*
X031980Y007730D03*
X032530Y007980D03*
X032980Y008580D03*
X032030Y009530D03*
X027230Y011980D03*
X025330Y012030D03*
X024780Y013430D03*
X024180Y013880D03*
X023780Y014680D03*
X019580Y014330D03*
X018580Y013330D03*
X018780Y012730D03*
X019230Y012430D03*
X018580Y011380D03*
X020080Y011380D03*
X020580Y010830D03*
X021030Y010480D03*
X022280Y009530D03*
X023730Y009980D03*
X024480Y009580D03*
X023680Y008380D03*
X023280Y008380D03*
X022230Y008080D03*
X021530Y007780D03*
X020980Y007630D03*
X021230Y008080D03*
X021930Y008680D03*
X022280Y007330D03*
X024480Y007580D03*
X025180Y007780D03*
X025580Y007780D03*
X026580Y008380D03*
X030580Y006330D03*
X026480Y003880D03*
X025080Y003680D03*
X025030Y004130D03*
X024430Y004730D03*
X023580Y004930D03*
X021830Y004530D03*
X023780Y003930D03*
X025480Y003280D03*
X023730Y002730D03*
X023080Y002280D03*
X030080Y001080D03*
X034230Y001980D03*
X035180Y001030D03*
X035480Y000730D03*
X034930Y003730D03*
X034230Y003730D03*
X037930Y013480D03*
X009030Y009180D03*
D49*
X001128Y000713D02*
X000890Y000886D01*
X000717Y001124D01*
X000626Y001404D01*
X000614Y001551D01*
X000614Y016654D01*
X000626Y016805D01*
X000719Y017092D01*
X000897Y017337D01*
X001142Y017515D01*
X001429Y017608D01*
X001580Y017620D01*
X001580Y017620D01*
X001655Y017620D01*
X005987Y017620D01*
X005930Y017563D01*
X005630Y017263D01*
X005630Y016647D01*
X005747Y016530D01*
X006584Y015693D01*
X006571Y015700D01*
X006489Y015726D01*
X006403Y015740D01*
X006380Y015740D01*
X006380Y015210D01*
X006910Y015210D01*
X006910Y015233D01*
X006896Y015319D01*
X006870Y015401D01*
X006863Y015414D01*
X009130Y013147D01*
X009130Y009485D01*
X009094Y009500D01*
X008966Y009500D01*
X008849Y009451D01*
X008759Y009361D01*
X008710Y009244D01*
X008710Y009116D01*
X008759Y008999D01*
X008830Y008927D01*
X008830Y006863D01*
X006023Y004056D01*
X005915Y004100D01*
X005705Y004100D01*
X005510Y004019D01*
X005361Y003870D01*
X005280Y003675D01*
X005280Y003465D01*
X005361Y003270D01*
X005510Y003121D01*
X005705Y003040D01*
X005915Y003040D01*
X006110Y003121D01*
X006259Y003270D01*
X006340Y003465D01*
X006340Y003675D01*
X006301Y003769D01*
X009205Y006672D01*
X009247Y006630D01*
X009847Y006030D01*
X011713Y006030D01*
X011830Y006147D01*
X011963Y006280D01*
X012437Y006280D01*
X012480Y006237D01*
X012480Y005897D01*
X013030Y005347D01*
X013147Y005230D01*
X013358Y005230D01*
X013190Y005062D01*
X013190Y004698D01*
X013448Y004440D01*
X013812Y004440D01*
X014070Y004698D01*
X014070Y005062D01*
X013902Y005230D01*
X014358Y005230D01*
X014190Y005062D01*
X014190Y004723D01*
X013930Y004463D01*
X013930Y002458D01*
X013803Y002405D01*
X013645Y002247D01*
X013560Y002041D01*
X013560Y002033D01*
X013463Y002130D01*
X013265Y002130D01*
X013217Y002247D01*
X013059Y002405D01*
X012853Y002490D01*
X012630Y002490D01*
X012505Y002438D01*
X012263Y002680D01*
X011047Y002680D01*
X010930Y002563D01*
X010506Y002139D01*
X010461Y002247D01*
X010303Y002405D01*
X010097Y002490D01*
X009875Y002490D01*
X009669Y002405D01*
X009511Y002247D01*
X009426Y002041D01*
X009426Y001819D01*
X009511Y001613D01*
X009669Y001455D01*
X009875Y001370D01*
X010097Y001370D01*
X010303Y001455D01*
X010461Y001613D01*
X010509Y001730D01*
X010663Y001730D01*
X010804Y001871D01*
X010804Y001819D01*
X010889Y001613D01*
X011047Y001455D01*
X011252Y001370D01*
X011475Y001370D01*
X011681Y001455D01*
X011839Y001613D01*
X011924Y001819D01*
X011924Y002041D01*
X011839Y002247D01*
X011806Y002280D01*
X012097Y002280D01*
X012227Y002150D01*
X012182Y002041D01*
X012182Y001819D01*
X012267Y001613D01*
X012425Y001455D01*
X012630Y001370D01*
X012853Y001370D01*
X013059Y001455D01*
X013217Y001613D01*
X013265Y001730D01*
X013297Y001730D01*
X013730Y001297D01*
X013847Y001180D01*
X017763Y001180D01*
X017953Y001370D01*
X018720Y001370D01*
X018814Y001464D01*
X018814Y002181D01*
X019063Y002430D01*
X019375Y002430D01*
X019314Y002405D01*
X019157Y002247D01*
X019072Y002041D01*
X019072Y001819D01*
X019157Y001613D01*
X019314Y001455D01*
X019520Y001370D01*
X019743Y001370D01*
X019949Y001455D01*
X020106Y001613D01*
X020192Y001819D01*
X020192Y002041D01*
X020106Y002247D01*
X019949Y002405D01*
X019888Y002430D01*
X020753Y002430D01*
X020692Y002405D01*
X020535Y002247D01*
X020450Y002041D01*
X020450Y001819D01*
X020535Y001613D01*
X020692Y001455D01*
X020898Y001370D01*
X021121Y001370D01*
X021327Y001455D01*
X021484Y001613D01*
X021570Y001819D01*
X021570Y002041D01*
X021527Y002144D01*
X021788Y002405D01*
X021905Y002522D01*
X021905Y002522D01*
X021913Y002530D01*
X022877Y002530D01*
X022809Y002461D01*
X022762Y002348D01*
X022705Y002405D01*
X022499Y002490D01*
X022276Y002490D01*
X022070Y002405D01*
X021913Y002247D01*
X021827Y002041D01*
X021827Y001819D01*
X021913Y001613D01*
X022070Y001455D01*
X022276Y001370D01*
X022499Y001370D01*
X022705Y001455D01*
X022862Y001613D01*
X022921Y001756D01*
X023580Y001097D01*
X023697Y000980D01*
X029775Y000980D01*
X029809Y000899D01*
X029899Y000809D01*
X030016Y000760D01*
X030144Y000760D01*
X030261Y000809D01*
X030333Y000880D01*
X033663Y000880D01*
X033780Y000997D01*
X033963Y001180D01*
X034409Y001180D01*
X034440Y001149D01*
X034680Y001149D01*
X034680Y000847D01*
X034797Y000730D01*
X034797Y000730D01*
X034880Y000647D01*
X034917Y000610D01*
X001555Y000610D01*
X001408Y000622D01*
X001128Y000713D01*
X001080Y000747D02*
X034780Y000747D01*
X034880Y000647D02*
X034880Y000647D01*
X034680Y000906D02*
X033688Y000906D01*
X033847Y001064D02*
X034680Y001064D01*
X035500Y001064D02*
X035759Y001064D01*
X035713Y001111D02*
X035806Y001017D01*
X036254Y001017D01*
X036347Y001111D01*
X036347Y001280D01*
X036413Y001215D01*
X036413Y001111D01*
X036506Y001017D01*
X036954Y001017D01*
X037047Y001111D01*
X037047Y001465D01*
X037330Y001747D01*
X037330Y001511D01*
X037459Y001199D01*
X037699Y000959D01*
X038011Y000830D01*
X038349Y000830D01*
X038661Y000959D01*
X038661Y000959D01*
X038901Y001199D01*
X039030Y001511D01*
X039030Y001849D01*
X038901Y002161D01*
X038901Y002161D01*
X038661Y002401D01*
X038349Y002530D01*
X038011Y002530D01*
X037730Y002414D01*
X037730Y005313D01*
X034880Y008163D01*
X034763Y008280D01*
X033563Y008280D01*
X033308Y008535D01*
X033523Y008535D01*
X033523Y008972D01*
X033126Y008972D01*
X033126Y008866D01*
X033044Y008900D01*
X032916Y008900D01*
X032914Y008899D01*
X032914Y009411D01*
X032821Y009505D01*
X032580Y009505D01*
X032580Y010073D01*
X032628Y010073D01*
X032666Y010111D01*
X032688Y010089D01*
X032729Y010065D01*
X032774Y010053D01*
X032996Y010053D01*
X032996Y010412D01*
X033033Y010412D01*
X033033Y010053D01*
X033255Y010053D01*
X033301Y010065D01*
X033342Y010089D01*
X033375Y010123D01*
X033399Y010164D01*
X033411Y010209D01*
X033411Y010366D01*
X033580Y010197D01*
X033580Y010047D01*
X034180Y009447D01*
X034297Y009330D01*
X037663Y009330D01*
X039250Y010917D01*
X039250Y001605D01*
X039238Y001450D01*
X039142Y001153D01*
X038959Y000901D01*
X038707Y000718D01*
X038410Y000622D01*
X038255Y000610D01*
X035777Y000610D01*
X035800Y000666D01*
X035800Y000794D01*
X035751Y000911D01*
X035661Y001001D01*
X035544Y001050D01*
X035500Y001050D01*
X035500Y001067D01*
X035580Y001147D01*
X035580Y001347D01*
X035630Y001297D01*
X035713Y001215D01*
X035713Y001111D01*
X035705Y001223D02*
X035580Y001223D01*
X035754Y000906D02*
X037829Y000906D01*
X037699Y000959D02*
X037699Y000959D01*
X037594Y001064D02*
X037001Y001064D01*
X037047Y001223D02*
X037449Y001223D01*
X037459Y001199D02*
X037459Y001199D01*
X037384Y001381D02*
X037047Y001381D01*
X037122Y001540D02*
X037330Y001540D01*
X037330Y001698D02*
X037281Y001698D01*
X036405Y001223D02*
X036347Y001223D01*
X036301Y001064D02*
X036459Y001064D01*
X035800Y000747D02*
X038746Y000747D01*
X038531Y000906D02*
X038961Y000906D01*
X039077Y001064D02*
X038766Y001064D01*
X038911Y001223D02*
X039164Y001223D01*
X039215Y001381D02*
X038976Y001381D01*
X039030Y001540D02*
X039245Y001540D01*
X039250Y001698D02*
X039030Y001698D01*
X039027Y001857D02*
X039250Y001857D01*
X039250Y002015D02*
X038961Y002015D01*
X038889Y002174D02*
X039250Y002174D01*
X039250Y002332D02*
X038730Y002332D01*
X038661Y002401D02*
X038661Y002401D01*
X038444Y002491D02*
X039250Y002491D01*
X039250Y002649D02*
X037730Y002649D01*
X037730Y002491D02*
X037916Y002491D01*
X037730Y002808D02*
X039250Y002808D01*
X039250Y002966D02*
X037730Y002966D01*
X037730Y003125D02*
X039250Y003125D01*
X039250Y003283D02*
X037730Y003283D01*
X037730Y003442D02*
X039250Y003442D01*
X039250Y003600D02*
X037730Y003600D01*
X037730Y003759D02*
X039250Y003759D01*
X039250Y003917D02*
X037730Y003917D01*
X037730Y004076D02*
X039250Y004076D01*
X039250Y004234D02*
X037730Y004234D01*
X037730Y004393D02*
X039250Y004393D01*
X039250Y004551D02*
X037730Y004551D01*
X037730Y004710D02*
X039250Y004710D01*
X039250Y004868D02*
X037730Y004868D01*
X037730Y005027D02*
X039250Y005027D01*
X039250Y005185D02*
X037730Y005185D01*
X037699Y005344D02*
X039250Y005344D01*
X039250Y005502D02*
X037541Y005502D01*
X037382Y005661D02*
X039250Y005661D01*
X039250Y005819D02*
X037224Y005819D01*
X037065Y005978D02*
X039250Y005978D01*
X039250Y006136D02*
X036907Y006136D01*
X036748Y006295D02*
X039250Y006295D01*
X039250Y006453D02*
X036590Y006453D01*
X036431Y006612D02*
X039250Y006612D01*
X039250Y006770D02*
X036273Y006770D01*
X036114Y006929D02*
X039250Y006929D01*
X039250Y007087D02*
X037145Y007087D01*
X037209Y007113D02*
X037437Y007341D01*
X037560Y007639D01*
X037560Y007961D01*
X037437Y008259D01*
X037209Y008487D01*
X036911Y008610D01*
X036589Y008610D01*
X036291Y008487D01*
X036063Y008259D01*
X035940Y007961D01*
X035940Y007639D01*
X036063Y007341D01*
X036291Y007113D01*
X036589Y006990D01*
X036911Y006990D01*
X037209Y007113D01*
X037341Y007246D02*
X039250Y007246D01*
X039250Y007404D02*
X037463Y007404D01*
X037528Y007563D02*
X039250Y007563D01*
X039250Y007721D02*
X037560Y007721D01*
X037560Y007880D02*
X039250Y007880D01*
X039250Y008038D02*
X037528Y008038D01*
X037462Y008197D02*
X039250Y008197D01*
X039250Y008355D02*
X037340Y008355D01*
X037144Y008514D02*
X039250Y008514D01*
X039250Y008672D02*
X034032Y008672D01*
X034037Y008691D02*
X034037Y008972D01*
X033639Y008972D01*
X033639Y008535D01*
X033880Y008535D01*
X033926Y008547D01*
X033967Y008571D01*
X034001Y008605D01*
X034025Y008646D01*
X034037Y008691D01*
X034037Y008831D02*
X039250Y008831D01*
X039250Y008989D02*
X033639Y008989D01*
X033639Y008972D02*
X033639Y009088D01*
X033523Y009088D01*
X033523Y008972D01*
X033639Y008972D01*
X033639Y009088D02*
X034037Y009088D01*
X034037Y009369D01*
X034025Y009414D01*
X034001Y009455D01*
X033967Y009489D01*
X033926Y009513D01*
X033880Y009525D01*
X033639Y009525D01*
X033639Y009088D01*
X033639Y009148D02*
X033523Y009148D01*
X033523Y009088D02*
X033523Y009525D01*
X033282Y009525D01*
X033236Y009513D01*
X033195Y009489D01*
X033162Y009455D01*
X033138Y009414D01*
X033126Y009369D01*
X033126Y009088D01*
X033523Y009088D01*
X033523Y008989D02*
X032914Y008989D01*
X032914Y009148D02*
X033126Y009148D01*
X033126Y009306D02*
X032914Y009306D01*
X032861Y009465D02*
X033171Y009465D01*
X033523Y009465D02*
X033639Y009465D01*
X033639Y009306D02*
X033523Y009306D01*
X033992Y009465D02*
X034163Y009465D01*
X034037Y009306D02*
X039250Y009306D01*
X039250Y009148D02*
X034037Y009148D01*
X034004Y009623D02*
X032580Y009623D01*
X032580Y009782D02*
X033846Y009782D01*
X033687Y009940D02*
X032580Y009940D01*
X032654Y010099D02*
X032678Y010099D01*
X032996Y010099D02*
X033033Y010099D01*
X033033Y010257D02*
X032996Y010257D01*
X033351Y010099D02*
X033580Y010099D01*
X033520Y010257D02*
X033411Y010257D01*
X032180Y010073D02*
X032180Y009814D01*
X032094Y009850D01*
X031966Y009850D01*
X031849Y009801D01*
X031759Y009711D01*
X031710Y009594D01*
X031710Y009493D01*
X030897Y008680D01*
X030780Y008563D01*
X030780Y008233D01*
X030761Y008251D01*
X030644Y008300D01*
X030543Y008300D01*
X030363Y008480D01*
X029638Y008480D01*
X029563Y008486D01*
X029556Y008480D01*
X029547Y008480D01*
X029494Y008427D01*
X029412Y008357D01*
X029412Y008357D01*
X029206Y008180D01*
X029197Y008180D01*
X029144Y008127D01*
X029087Y008078D01*
X029086Y008069D01*
X029080Y008063D01*
X029080Y007988D01*
X029074Y007913D01*
X029080Y007906D01*
X029080Y007364D01*
X028994Y007400D01*
X028866Y007400D01*
X028830Y007385D01*
X028830Y007763D01*
X028730Y007863D01*
X028613Y007980D01*
X028113Y007980D01*
X028130Y007997D01*
X030280Y010147D01*
X030280Y010261D01*
X030343Y010261D01*
X030437Y010355D01*
X030437Y011039D01*
X030348Y011127D01*
X030717Y011127D01*
X030811Y011221D01*
X030811Y011905D01*
X030745Y011971D01*
X030807Y012032D01*
X030807Y012430D01*
X031649Y012430D01*
X031649Y012121D01*
X031743Y012027D01*
X032112Y012027D01*
X032023Y011939D01*
X032023Y011255D01*
X032117Y011161D01*
X032180Y011161D01*
X032180Y010787D01*
X032063Y010787D01*
X031969Y010693D01*
X031969Y010167D01*
X032063Y010073D01*
X032180Y010073D01*
X032180Y009940D02*
X030073Y009940D01*
X030231Y010099D02*
X032037Y010099D01*
X031969Y010257D02*
X030280Y010257D01*
X030437Y010416D02*
X031969Y010416D01*
X031969Y010574D02*
X030437Y010574D01*
X030437Y010733D02*
X032008Y010733D01*
X032180Y010891D02*
X030437Y010891D01*
X030426Y011050D02*
X032180Y011050D01*
X032070Y011208D02*
X030798Y011208D01*
X030811Y011367D02*
X032023Y011367D01*
X032023Y011525D02*
X030811Y011525D01*
X030811Y011684D02*
X032023Y011684D01*
X032023Y011842D02*
X030811Y011842D01*
X030775Y012001D02*
X032085Y012001D01*
X031649Y012159D02*
X030807Y012159D01*
X030807Y012318D02*
X031649Y012318D01*
X031674Y012830D02*
X030807Y012830D01*
X030807Y013228D01*
X030713Y013321D01*
X030630Y013321D01*
X030630Y014723D01*
X031444Y014723D01*
X031537Y014816D01*
X031537Y016044D01*
X031444Y016137D01*
X030216Y016137D01*
X030123Y016044D01*
X030123Y014816D01*
X030216Y014723D01*
X030230Y014723D01*
X030230Y013321D01*
X030147Y013321D01*
X030053Y013228D01*
X030053Y013039D01*
X030007Y013086D01*
X030007Y013217D01*
X030037Y013235D01*
X030071Y013268D01*
X030095Y013309D01*
X030107Y013355D01*
X030107Y013577D01*
X029748Y013577D01*
X029748Y013614D01*
X030107Y013614D01*
X030107Y013836D01*
X030095Y013881D01*
X030071Y013922D01*
X030049Y013944D01*
X030087Y013982D01*
X030087Y014547D01*
X029993Y014641D01*
X029467Y014641D01*
X029380Y014554D01*
X029380Y015413D01*
X028430Y016363D01*
X028313Y016480D01*
X025297Y016480D01*
X023817Y015000D01*
X023716Y015000D01*
X023599Y014951D01*
X023509Y014861D01*
X023501Y014842D01*
X023330Y015013D01*
X023330Y015914D01*
X023372Y015884D01*
X023453Y015842D01*
X023540Y015814D01*
X023630Y015800D01*
X023638Y015800D01*
X023638Y016342D01*
X023714Y016342D01*
X023714Y016418D01*
X024256Y016418D01*
X024256Y016426D01*
X024241Y016516D01*
X024213Y016603D01*
X024172Y016684D01*
X024118Y016758D01*
X024054Y016822D01*
X023980Y016876D01*
X023898Y016918D01*
X023811Y016946D01*
X023721Y016960D01*
X023714Y016960D01*
X023714Y016418D01*
X023638Y016418D01*
X023638Y016960D01*
X023630Y016960D01*
X023540Y016946D01*
X023453Y016918D01*
X023372Y016876D01*
X023298Y016822D01*
X023233Y016758D01*
X023180Y016684D01*
X023139Y016604D01*
X022613Y017130D01*
X017847Y017130D01*
X017730Y017013D01*
X017430Y016713D01*
X017430Y016213D01*
X016930Y015713D01*
X016930Y015834D01*
X017103Y015905D01*
X017261Y016063D01*
X017346Y016269D01*
X017346Y016491D01*
X017261Y016697D01*
X017103Y016855D01*
X016897Y016940D01*
X016675Y016940D01*
X016553Y016890D01*
X015823Y017620D01*
X038132Y017620D01*
X038136Y017616D01*
X038206Y017620D01*
X038221Y017620D01*
X038366Y017616D01*
X038664Y017537D01*
X038924Y017369D01*
X039119Y017129D01*
X039230Y016840D01*
X039250Y016688D01*
X039250Y015293D01*
X038980Y015563D01*
X038863Y015680D01*
X038297Y015680D01*
X037654Y015036D01*
X037358Y015036D01*
X037264Y014943D01*
X037264Y014797D01*
X037101Y014634D01*
X037063Y014671D01*
X036497Y014671D01*
X036403Y014578D01*
X036403Y014052D01*
X036475Y013980D01*
X036403Y013908D01*
X036403Y013830D01*
X034197Y013830D01*
X033266Y012899D01*
X033244Y012899D01*
X033180Y012963D01*
X033063Y013080D01*
X032347Y013080D01*
X032166Y012899D01*
X031743Y012899D01*
X031674Y012830D01*
X032219Y012952D02*
X030807Y012952D01*
X030807Y013110D02*
X033477Y013110D01*
X033319Y012952D02*
X033191Y012952D01*
X033636Y013269D02*
X030766Y013269D01*
X030630Y013427D02*
X033794Y013427D01*
X033953Y013586D02*
X030630Y013586D01*
X030630Y013744D02*
X034111Y013744D01*
X035013Y013130D02*
X035281Y013130D01*
X035274Y013125D01*
X035193Y013043D01*
X035120Y012952D01*
X034834Y012952D01*
X034993Y013110D02*
X035260Y013110D01*
X035120Y012952D02*
X035059Y012854D01*
X035009Y012750D01*
X034970Y012641D01*
X034945Y012528D01*
X034934Y012435D01*
X035882Y012435D01*
X035882Y012275D01*
X034934Y012275D01*
X034945Y012183D01*
X034970Y012070D01*
X035009Y011961D01*
X035059Y011856D01*
X035107Y011780D01*
X034037Y011780D01*
X034037Y011939D01*
X033948Y012027D01*
X034317Y012027D01*
X034411Y012121D01*
X034411Y012528D01*
X035013Y013130D01*
X035029Y012793D02*
X034676Y012793D01*
X034517Y012635D02*
X034969Y012635D01*
X034939Y012476D02*
X034411Y012476D01*
X034411Y012318D02*
X035882Y012318D01*
X036042Y012318D02*
X038285Y012318D01*
X038443Y012476D02*
X036985Y012476D01*
X036984Y012480D02*
X038447Y012480D01*
X037647Y011680D01*
X036741Y011680D01*
X036803Y011758D01*
X036865Y011856D01*
X036915Y011961D01*
X036953Y012070D01*
X036979Y012183D01*
X036989Y012275D01*
X036042Y012275D01*
X036042Y012435D01*
X036989Y012435D01*
X036984Y012480D01*
X036973Y012159D02*
X038126Y012159D01*
X037968Y012001D02*
X036929Y012001D01*
X036856Y011842D02*
X037809Y011842D01*
X037651Y011684D02*
X036743Y011684D01*
X036364Y011180D02*
X035534Y011180D01*
X035589Y011125D01*
X035722Y010895D01*
X035791Y010638D01*
X035791Y010372D01*
X035722Y010115D01*
X035589Y009885D01*
X035434Y009730D01*
X036463Y009730D01*
X036455Y009736D01*
X036374Y009818D01*
X036302Y009908D01*
X036240Y010006D01*
X036190Y010110D01*
X036152Y010219D01*
X036126Y010332D01*
X036115Y010425D01*
X037063Y010425D01*
X037063Y010585D01*
X036115Y010585D01*
X036126Y010678D01*
X036152Y010791D01*
X036190Y010900D01*
X036240Y011004D01*
X036302Y011102D01*
X036364Y011180D01*
X036269Y011050D02*
X035633Y011050D01*
X035723Y010891D02*
X036187Y010891D01*
X036138Y010733D02*
X035765Y010733D01*
X035791Y010574D02*
X037063Y010574D01*
X037223Y010574D02*
X038341Y010574D01*
X038170Y010585D02*
X038160Y010678D01*
X038134Y010791D01*
X038096Y010900D01*
X038046Y011004D01*
X037984Y011102D01*
X037912Y011192D01*
X037830Y011274D01*
X037817Y011285D01*
X037930Y011397D01*
X038980Y012447D01*
X038980Y011213D01*
X038168Y010400D01*
X038170Y010425D01*
X037223Y010425D01*
X037223Y010585D01*
X038170Y010585D01*
X038147Y010733D02*
X038500Y010733D01*
X038658Y010891D02*
X038099Y010891D01*
X038017Y011050D02*
X038817Y011050D01*
X038975Y011208D02*
X037896Y011208D01*
X037899Y011367D02*
X038980Y011367D01*
X038980Y011525D02*
X038058Y011525D01*
X038216Y011684D02*
X038980Y011684D01*
X038980Y011842D02*
X038375Y011842D01*
X038533Y012001D02*
X038980Y012001D01*
X038980Y012159D02*
X038692Y012159D01*
X038850Y012318D02*
X038980Y012318D01*
X038396Y013012D02*
X038122Y013012D01*
X038122Y013048D01*
X038396Y013048D01*
X038396Y013012D01*
X038370Y013407D02*
X038174Y013407D01*
X038129Y013395D01*
X038088Y013371D01*
X038066Y013349D01*
X038028Y013387D01*
X037656Y013387D01*
X037488Y013555D01*
X037656Y013724D01*
X037971Y013724D01*
X038064Y013817D01*
X038064Y013863D01*
X038130Y013797D01*
X038130Y013647D01*
X038370Y013407D01*
X038350Y013427D02*
X037616Y013427D01*
X037518Y013586D02*
X038192Y013586D01*
X038130Y013744D02*
X037991Y013744D01*
X038282Y014211D02*
X038064Y014428D01*
X038064Y014882D01*
X038463Y015280D01*
X038697Y015280D01*
X038921Y015056D01*
X038696Y015056D01*
X038696Y014754D01*
X038696Y014380D01*
X038696Y014380D01*
X038696Y014682D01*
X038696Y014754D01*
X038696Y014754D01*
X038696Y014754D01*
X038696Y015056D01*
X038432Y015056D01*
X038386Y015044D01*
X038345Y015020D01*
X038312Y014987D01*
X038288Y014946D01*
X038276Y014900D01*
X038276Y014754D01*
X038276Y014608D01*
X038287Y014567D01*
X038276Y014526D01*
X038276Y014380D01*
X038276Y014234D01*
X038282Y014211D01*
X038279Y014220D02*
X038273Y014220D01*
X038276Y014378D02*
X038115Y014378D01*
X038276Y014380D02*
X038696Y014380D01*
X038696Y014380D01*
X038276Y014380D01*
X038278Y014537D02*
X038064Y014537D01*
X038064Y014695D02*
X038276Y014695D01*
X038276Y014754D02*
X038696Y014754D01*
X038696Y014754D01*
X038276Y014754D01*
X038276Y014854D02*
X038064Y014854D01*
X038195Y015012D02*
X038337Y015012D01*
X038353Y015171D02*
X038807Y015171D01*
X038696Y015012D02*
X038696Y015012D01*
X038696Y014854D02*
X038696Y014854D01*
X038696Y014695D02*
X038696Y014695D01*
X038696Y014537D02*
X038696Y014537D01*
X037333Y015012D02*
X036737Y015012D01*
X036737Y014854D02*
X037264Y014854D01*
X037162Y014695D02*
X034390Y014695D01*
X034390Y014626D02*
X034390Y015350D01*
X033510Y015350D01*
X033510Y015510D01*
X034390Y015510D01*
X034390Y016234D01*
X034378Y016279D01*
X034354Y016321D01*
X034321Y016354D01*
X034279Y016378D01*
X034234Y016390D01*
X033510Y016390D01*
X033510Y015510D01*
X033350Y015510D01*
X033350Y016390D01*
X032626Y016390D01*
X032581Y016378D01*
X032539Y016354D01*
X032506Y016321D01*
X032482Y016279D01*
X032470Y016234D01*
X032470Y015510D01*
X033350Y015510D01*
X033350Y015350D01*
X033510Y015350D01*
X033510Y014470D01*
X034234Y014470D01*
X034279Y014482D01*
X034321Y014506D01*
X034354Y014539D01*
X034378Y014581D01*
X034390Y014626D01*
X034351Y014537D02*
X036403Y014537D01*
X036403Y014378D02*
X030630Y014378D01*
X030630Y014220D02*
X036403Y014220D01*
X036403Y014061D02*
X030630Y014061D01*
X030630Y013903D02*
X036403Y013903D01*
X036644Y014723D02*
X035416Y014723D01*
X035323Y014816D01*
X035323Y016044D01*
X035416Y016137D01*
X036644Y016137D01*
X036737Y016044D01*
X036737Y014816D01*
X036644Y014723D01*
X036737Y015171D02*
X037788Y015171D01*
X037946Y015329D02*
X036737Y015329D01*
X036737Y015488D02*
X038105Y015488D01*
X038263Y015646D02*
X036737Y015646D01*
X036737Y015805D02*
X037771Y015805D01*
X037699Y015834D02*
X038011Y015705D01*
X038349Y015705D01*
X038661Y015834D01*
X038661Y015834D01*
X038901Y016074D01*
X039030Y016386D01*
X039030Y016505D01*
X039030Y016724D01*
X038901Y017036D01*
X038901Y017036D01*
X038661Y017276D01*
X038349Y017405D01*
X038011Y017405D01*
X037699Y017276D01*
X037459Y017036D01*
X037330Y016724D01*
X037330Y016386D01*
X037459Y016074D01*
X037699Y015834D01*
X037699Y015834D01*
X037570Y015963D02*
X036737Y015963D01*
X036660Y016122D02*
X037440Y016122D01*
X037459Y016074D02*
X037459Y016074D01*
X037374Y016280D02*
X034377Y016280D01*
X034390Y016122D02*
X035400Y016122D01*
X035323Y015963D02*
X034390Y015963D01*
X034390Y015805D02*
X035323Y015805D01*
X035323Y015646D02*
X034390Y015646D01*
X034390Y015329D02*
X035323Y015329D01*
X035323Y015171D02*
X034390Y015171D01*
X034390Y015012D02*
X035323Y015012D01*
X035323Y014854D02*
X034390Y014854D01*
X033510Y014854D02*
X033350Y014854D01*
X033350Y015012D02*
X033510Y015012D01*
X033510Y015171D02*
X033350Y015171D01*
X033350Y015329D02*
X033510Y015329D01*
X033510Y015488D02*
X035323Y015488D01*
X033510Y015646D02*
X033350Y015646D01*
X033350Y015488D02*
X031537Y015488D01*
X031537Y015646D02*
X032470Y015646D01*
X032470Y015805D02*
X031537Y015805D01*
X031537Y015963D02*
X032470Y015963D01*
X032470Y016122D02*
X031460Y016122D01*
X032483Y016280D02*
X028513Y016280D01*
X028671Y016122D02*
X030200Y016122D01*
X030123Y015963D02*
X028830Y015963D01*
X028988Y015805D02*
X030123Y015805D01*
X030123Y015646D02*
X029147Y015646D01*
X029305Y015488D02*
X030123Y015488D01*
X030123Y015329D02*
X029380Y015329D01*
X029380Y015171D02*
X030123Y015171D01*
X030123Y015012D02*
X029380Y015012D01*
X029380Y014854D02*
X030123Y014854D01*
X030230Y014695D02*
X029380Y014695D01*
X028980Y014553D02*
X028980Y014492D01*
X028704Y014492D01*
X028611Y014399D01*
X028611Y014210D01*
X028414Y014378D01*
X028359Y014432D01*
X028352Y014431D01*
X028347Y014436D01*
X028343Y014435D01*
X028330Y014448D01*
X028330Y014573D01*
X028428Y014573D01*
X028466Y014611D01*
X028488Y014589D01*
X028529Y014565D01*
X028574Y014553D01*
X028796Y014553D01*
X028796Y014912D01*
X028833Y014912D01*
X028833Y014553D01*
X028980Y014553D01*
X028980Y014537D02*
X028330Y014537D01*
X028415Y014378D02*
X028611Y014378D01*
X028600Y014220D02*
X028611Y014220D01*
X028399Y013864D02*
X028430Y013838D01*
X028430Y013247D01*
X028730Y012947D01*
X028730Y012013D01*
X028087Y011370D01*
X028087Y011628D01*
X028049Y011666D01*
X028071Y011688D01*
X028095Y011729D01*
X028107Y011774D01*
X028107Y011996D01*
X027748Y011996D01*
X027748Y012033D01*
X027712Y012033D01*
X027712Y012411D01*
X027509Y012411D01*
X027464Y012399D01*
X027423Y012375D01*
X027389Y012342D01*
X027365Y012301D01*
X027358Y012273D01*
X027294Y012300D01*
X027166Y012300D01*
X027130Y012285D01*
X027130Y012473D01*
X027347Y012473D01*
X027441Y012567D01*
X027441Y013093D01*
X027354Y013180D01*
X028013Y013180D01*
X028041Y013208D01*
X028286Y013208D01*
X028379Y013301D01*
X028379Y013651D01*
X028376Y013654D01*
X028387Y013672D01*
X028399Y013718D01*
X028399Y013850D01*
X028399Y013864D01*
X028399Y013850D02*
X027983Y013850D01*
X027567Y013850D01*
X027567Y013718D01*
X027579Y013672D01*
X027590Y013654D01*
X027587Y013651D01*
X027587Y013580D01*
X027457Y013580D01*
X027457Y013727D01*
X027098Y013727D01*
X027098Y013764D01*
X027457Y013764D01*
X027457Y013986D01*
X027445Y014031D01*
X027421Y014072D01*
X027399Y014094D01*
X027437Y014132D01*
X027437Y014697D01*
X027404Y014730D01*
X027769Y014730D01*
X027769Y014667D01*
X027863Y014573D01*
X027930Y014573D01*
X027930Y014492D01*
X027681Y014492D01*
X027587Y014399D01*
X027587Y014049D01*
X027590Y014046D01*
X027579Y014028D01*
X027567Y013982D01*
X027567Y013850D01*
X027983Y013850D01*
X027983Y013850D01*
X027983Y013850D01*
X028399Y013850D01*
X028399Y013744D02*
X028430Y013744D01*
X028430Y013586D02*
X028379Y013586D01*
X028379Y013427D02*
X028430Y013427D01*
X028430Y013269D02*
X028346Y013269D01*
X028567Y013110D02*
X027424Y013110D01*
X027441Y012952D02*
X028726Y012952D01*
X028730Y012793D02*
X027441Y012793D01*
X027441Y012635D02*
X028730Y012635D01*
X028730Y012476D02*
X027350Y012476D01*
X027375Y012318D02*
X027130Y012318D01*
X027712Y012318D02*
X027748Y012318D01*
X027748Y012411D02*
X027748Y012033D01*
X028107Y012033D01*
X028107Y012255D01*
X028095Y012301D01*
X028071Y012342D01*
X028037Y012375D01*
X027996Y012399D01*
X027951Y012411D01*
X027748Y012411D01*
X028085Y012318D02*
X028730Y012318D01*
X028730Y012159D02*
X028107Y012159D01*
X027748Y012159D02*
X027712Y012159D01*
X027748Y012001D02*
X028718Y012001D01*
X028559Y011842D02*
X028107Y011842D01*
X028067Y011684D02*
X028401Y011684D01*
X028242Y011525D02*
X028087Y011525D01*
X028491Y011208D02*
X029362Y011208D01*
X029349Y011221D02*
X029443Y011127D01*
X029812Y011127D01*
X029723Y011039D01*
X029723Y010355D01*
X029817Y010261D01*
X029828Y010261D01*
X028645Y009078D01*
X028645Y009656D01*
X028598Y009703D01*
X028605Y009703D01*
X028651Y009715D01*
X028692Y009739D01*
X028725Y009773D01*
X028749Y009814D01*
X028761Y009859D01*
X028761Y010062D01*
X028383Y010062D01*
X028383Y010098D01*
X028761Y010098D01*
X028761Y010301D01*
X028749Y010346D01*
X028725Y010387D01*
X028692Y010421D01*
X028651Y010445D01*
X028605Y010457D01*
X028383Y010457D01*
X028383Y010098D01*
X028346Y010098D01*
X028346Y010457D01*
X028124Y010457D01*
X028079Y010445D01*
X028038Y010421D01*
X028016Y010399D01*
X027978Y010437D01*
X027930Y010437D01*
X027930Y010647D01*
X029013Y011730D01*
X029130Y011847D01*
X029130Y012780D01*
X029253Y012780D01*
X029253Y012702D01*
X029325Y012630D01*
X029253Y012558D01*
X029253Y012032D01*
X029347Y011939D01*
X029383Y011939D01*
X029349Y011905D01*
X029349Y011221D01*
X029349Y011367D02*
X028649Y011367D01*
X028808Y011525D02*
X029349Y011525D01*
X029349Y011684D02*
X028966Y011684D01*
X029125Y011842D02*
X029349Y011842D01*
X029285Y012001D02*
X029130Y012001D01*
X029130Y012159D02*
X029253Y012159D01*
X029253Y012318D02*
X029130Y012318D01*
X029130Y012476D02*
X029253Y012476D01*
X029320Y012635D02*
X029130Y012635D01*
X030007Y013110D02*
X030053Y013110D01*
X030071Y013269D02*
X030094Y013269D01*
X030107Y013427D02*
X030230Y013427D01*
X030230Y013586D02*
X029748Y013586D01*
X030107Y013744D02*
X030230Y013744D01*
X030230Y013903D02*
X030082Y013903D01*
X030087Y014061D02*
X030230Y014061D01*
X030230Y014220D02*
X030087Y014220D01*
X030087Y014378D02*
X030230Y014378D01*
X030230Y014537D02*
X030087Y014537D01*
X030630Y014537D02*
X032509Y014537D01*
X032506Y014539D02*
X032539Y014506D01*
X032581Y014482D01*
X032626Y014470D01*
X033350Y014470D01*
X033350Y015350D01*
X032470Y015350D01*
X032470Y014626D01*
X032482Y014581D01*
X032506Y014539D01*
X032470Y014695D02*
X030630Y014695D01*
X031537Y014854D02*
X032470Y014854D01*
X032470Y015012D02*
X031537Y015012D01*
X031537Y015171D02*
X032470Y015171D01*
X032470Y015329D02*
X031537Y015329D01*
X033350Y015805D02*
X033510Y015805D01*
X033510Y015963D02*
X033350Y015963D01*
X033350Y016122D02*
X033510Y016122D01*
X033510Y016280D02*
X033350Y016280D01*
X033350Y014695D02*
X033510Y014695D01*
X033510Y014537D02*
X033350Y014537D01*
X037330Y016439D02*
X028354Y016439D01*
X028147Y016080D02*
X028920Y015307D01*
X028833Y015307D01*
X028833Y014948D01*
X028796Y014948D01*
X028796Y015307D01*
X028574Y015307D01*
X028529Y015295D01*
X028488Y015271D01*
X028466Y015249D01*
X028428Y015287D01*
X027863Y015287D01*
X027769Y015193D01*
X027769Y015130D01*
X025987Y015130D01*
X025987Y015528D01*
X025949Y015566D01*
X025971Y015588D01*
X025995Y015629D01*
X026007Y015674D01*
X026007Y015896D01*
X025648Y015896D01*
X025648Y015933D01*
X026007Y015933D01*
X026007Y016080D01*
X028147Y016080D01*
X028264Y015963D02*
X026007Y015963D01*
X026007Y015805D02*
X028423Y015805D01*
X028581Y015646D02*
X025999Y015646D01*
X025987Y015488D02*
X028740Y015488D01*
X028898Y015329D02*
X025987Y015329D01*
X025987Y015171D02*
X027769Y015171D01*
X028796Y015171D02*
X028833Y015171D01*
X028833Y015012D02*
X028796Y015012D01*
X028796Y014854D02*
X028833Y014854D01*
X028833Y014695D02*
X028796Y014695D01*
X027930Y014537D02*
X027437Y014537D01*
X027437Y014695D02*
X027769Y014695D01*
X027587Y014378D02*
X027437Y014378D01*
X027437Y014220D02*
X027587Y014220D01*
X027587Y014061D02*
X027427Y014061D01*
X027457Y013903D02*
X027567Y013903D01*
X027567Y013744D02*
X027098Y013744D01*
X027457Y013586D02*
X027587Y013586D01*
X026019Y012930D02*
X026019Y012567D01*
X026113Y012473D01*
X026430Y012473D01*
X026430Y012420D01*
X026234Y012420D01*
X026140Y012326D01*
X026140Y012223D01*
X025547Y011630D01*
X025530Y011613D01*
X025530Y011777D01*
X025601Y011849D01*
X025650Y011966D01*
X025650Y012094D01*
X025601Y012211D01*
X025511Y012301D01*
X025394Y012350D01*
X025266Y012350D01*
X025149Y012301D01*
X025059Y012211D01*
X025010Y012094D01*
X025010Y011966D01*
X025059Y011849D01*
X025130Y011777D01*
X025130Y011363D01*
X024241Y010474D01*
X024241Y010743D01*
X024147Y010837D01*
X024080Y010837D01*
X024080Y011637D01*
X024129Y011657D01*
X024253Y011781D01*
X024320Y011942D01*
X024320Y012118D01*
X024253Y012279D01*
X024129Y012403D01*
X023968Y012470D01*
X023792Y012470D01*
X023631Y012403D01*
X023507Y012279D01*
X023440Y012118D01*
X023440Y011942D01*
X023507Y011781D01*
X023631Y011657D01*
X023680Y011637D01*
X023680Y010837D01*
X023582Y010837D01*
X023544Y010799D01*
X023522Y010821D01*
X023481Y010845D01*
X023436Y010857D01*
X023214Y010857D01*
X023214Y010498D01*
X023177Y010498D01*
X023177Y010462D01*
X022799Y010462D01*
X022683Y010462D01*
X022683Y010498D01*
X023177Y010498D01*
X023177Y010857D01*
X022955Y010857D01*
X022930Y010850D01*
X022905Y010857D01*
X022683Y010857D01*
X022683Y010498D01*
X022646Y010498D01*
X022646Y010857D01*
X022424Y010857D01*
X022379Y010845D01*
X022338Y010821D01*
X022316Y010799D01*
X022278Y010837D01*
X022180Y010837D01*
X022180Y011637D01*
X022229Y011657D01*
X022353Y011781D01*
X022420Y011942D01*
X022420Y012118D01*
X022353Y012279D01*
X022229Y012403D01*
X022092Y012460D01*
X022563Y012930D01*
X026019Y012930D01*
X026019Y012793D02*
X022426Y012793D01*
X022267Y012635D02*
X026019Y012635D01*
X026110Y012476D02*
X022109Y012476D01*
X022315Y012318D02*
X023545Y012318D01*
X023457Y012159D02*
X022403Y012159D01*
X022420Y012001D02*
X023440Y012001D01*
X023482Y011842D02*
X022378Y011842D01*
X022256Y011684D02*
X023604Y011684D01*
X023680Y011525D02*
X022180Y011525D01*
X022180Y011367D02*
X023680Y011367D01*
X023680Y011208D02*
X022180Y011208D01*
X022180Y011050D02*
X023680Y011050D01*
X023680Y010891D02*
X022180Y010891D01*
X022646Y010733D02*
X022683Y010733D01*
X022683Y010574D02*
X022646Y010574D01*
X023177Y010574D02*
X023214Y010574D01*
X023214Y010733D02*
X023177Y010733D01*
X024080Y010891D02*
X024658Y010891D01*
X024500Y010733D02*
X024241Y010733D01*
X024241Y010574D02*
X024341Y010574D01*
X024080Y011050D02*
X024817Y011050D01*
X024975Y011208D02*
X024080Y011208D01*
X024080Y011367D02*
X025130Y011367D01*
X025130Y011525D02*
X024080Y011525D01*
X024156Y011684D02*
X025130Y011684D01*
X025065Y011842D02*
X024278Y011842D01*
X024320Y012001D02*
X025010Y012001D01*
X025037Y012159D02*
X024303Y012159D01*
X024215Y012318D02*
X025188Y012318D01*
X025472Y012318D02*
X026140Y012318D01*
X026076Y012159D02*
X025623Y012159D01*
X025650Y012001D02*
X025918Y012001D01*
X025759Y011842D02*
X025595Y011842D01*
X025601Y011684D02*
X025530Y011684D01*
X026008Y011525D02*
X026135Y011525D01*
X026135Y011514D02*
X026135Y011652D01*
X025830Y011347D01*
X025830Y011007D01*
X025977Y011007D01*
X025977Y010648D01*
X026014Y010648D01*
X026014Y011007D01*
X026236Y011007D01*
X026281Y010995D01*
X026322Y010971D01*
X026344Y010949D01*
X026382Y010987D01*
X026430Y010987D01*
X026430Y011020D01*
X026370Y011020D01*
X026370Y011320D01*
X026370Y011320D01*
X026370Y011320D01*
X026120Y011320D01*
X026120Y011464D01*
X026132Y011509D01*
X026135Y011514D01*
X026120Y011367D02*
X025849Y011367D01*
X025830Y011208D02*
X026120Y011208D01*
X026120Y011176D02*
X026132Y011131D01*
X026156Y011089D01*
X026189Y011056D01*
X026231Y011032D01*
X026276Y011020D01*
X026370Y011020D01*
X026370Y011320D01*
X026120Y011320D01*
X026120Y011176D01*
X026201Y011050D02*
X025830Y011050D01*
X025977Y010891D02*
X026014Y010891D01*
X026014Y010733D02*
X025977Y010733D01*
X026370Y011050D02*
X026370Y011050D01*
X026370Y011208D02*
X026370Y011208D01*
X027930Y010574D02*
X029723Y010574D01*
X029723Y010416D02*
X028697Y010416D01*
X028761Y010257D02*
X029824Y010257D01*
X029666Y010099D02*
X028761Y010099D01*
X028761Y009940D02*
X029507Y009940D01*
X029349Y009782D02*
X028730Y009782D01*
X028645Y009623D02*
X029190Y009623D01*
X029032Y009465D02*
X028645Y009465D01*
X028645Y009306D02*
X028873Y009306D01*
X028715Y009148D02*
X028645Y009148D01*
X029122Y008989D02*
X031206Y008989D01*
X031048Y008831D02*
X028963Y008831D01*
X028805Y008672D02*
X030889Y008672D01*
X030780Y008514D02*
X028646Y008514D01*
X028488Y008355D02*
X029410Y008355D01*
X029225Y008197D02*
X028329Y008197D01*
X028171Y008038D02*
X029080Y008038D01*
X029080Y007880D02*
X028713Y007880D01*
X028830Y007721D02*
X029080Y007721D01*
X029080Y007563D02*
X028830Y007563D01*
X028830Y007404D02*
X029080Y007404D01*
X029712Y007433D02*
X029712Y007811D01*
X029509Y007811D01*
X029480Y007803D01*
X029480Y007888D01*
X029673Y008053D01*
X029704Y008080D01*
X030197Y008080D01*
X030260Y008017D01*
X030260Y007993D01*
X030244Y008000D01*
X030116Y008000D01*
X029999Y007951D01*
X029909Y007861D01*
X029888Y007811D01*
X029748Y007811D01*
X029748Y007433D01*
X029712Y007433D01*
X029712Y007563D02*
X029748Y007563D01*
X029748Y007721D02*
X029712Y007721D01*
X029927Y007880D02*
X029480Y007880D01*
X029655Y008038D02*
X030239Y008038D01*
X030488Y008355D02*
X030780Y008355D01*
X031180Y008355D02*
X031472Y008355D01*
X031314Y008197D02*
X031246Y008197D01*
X031261Y008182D02*
X031180Y008263D01*
X031180Y008397D01*
X031993Y009210D01*
X032043Y009210D01*
X032043Y008926D01*
X031872Y008755D01*
X031755Y008638D01*
X031755Y008638D01*
X031299Y008182D01*
X031293Y008182D01*
X031293Y008175D01*
X031293Y008182D01*
X031261Y008182D01*
X031293Y008175D02*
X031293Y008175D01*
X031296Y008514D02*
X031631Y008514D01*
X031789Y008672D02*
X031455Y008672D01*
X031613Y008831D02*
X031948Y008831D01*
X031872Y008755D02*
X031872Y008755D01*
X031772Y008989D02*
X032043Y008989D01*
X032043Y009148D02*
X031930Y009148D01*
X031682Y009465D02*
X029597Y009465D01*
X029756Y009623D02*
X031722Y009623D01*
X031829Y009782D02*
X029914Y009782D01*
X029439Y009306D02*
X031523Y009306D01*
X031365Y009148D02*
X029280Y009148D01*
X028383Y010099D02*
X028346Y010099D01*
X028346Y010257D02*
X028383Y010257D01*
X028383Y010416D02*
X028346Y010416D01*
X028032Y010416D02*
X027999Y010416D01*
X028015Y010733D02*
X029723Y010733D01*
X029723Y010891D02*
X028174Y010891D01*
X028332Y011050D02*
X029734Y011050D01*
X026595Y009530D02*
X026197Y009530D01*
X026080Y009647D01*
X025455Y010272D01*
X024800Y009617D01*
X024800Y009516D01*
X024751Y009399D01*
X024661Y009309D01*
X024544Y009260D01*
X024416Y009260D01*
X024395Y009269D01*
X024395Y008894D01*
X024381Y008880D01*
X026595Y008880D01*
X026595Y009200D01*
X026595Y009530D01*
X026595Y009465D02*
X024779Y009465D01*
X024806Y009623D02*
X026104Y009623D01*
X025946Y009782D02*
X024964Y009782D01*
X025123Y009940D02*
X025787Y009940D01*
X025629Y010099D02*
X025281Y010099D01*
X025440Y010257D02*
X025470Y010257D01*
X024655Y009306D02*
X026595Y009306D01*
X026595Y009200D02*
X026880Y009200D01*
X026880Y009200D01*
X026595Y009200D01*
X026595Y009148D02*
X024395Y009148D01*
X024395Y008989D02*
X026595Y008989D01*
X022865Y007410D02*
X022865Y007410D01*
X022630Y007410D01*
X022630Y007797D01*
X022630Y007797D01*
X022630Y007410D01*
X022630Y007410D01*
X022630Y007410D01*
X022865Y007410D01*
X022630Y007410D02*
X022630Y006840D01*
X022759Y006840D01*
X022804Y006852D01*
X022846Y006876D01*
X022879Y006909D01*
X022890Y006929D01*
X022959Y006860D01*
X022977Y006860D01*
X022897Y006780D01*
X022263Y006780D01*
X022213Y006830D01*
X022063Y006830D01*
X022243Y007010D01*
X022344Y007010D01*
X022345Y007011D01*
X022345Y006996D01*
X022357Y006951D01*
X022381Y006909D01*
X022414Y006876D01*
X022456Y006852D01*
X022501Y006840D01*
X022630Y006840D01*
X022630Y007410D01*
X022630Y007410D01*
X022593Y007410D01*
X022593Y007410D01*
X022630Y007410D01*
X022630Y007410D01*
X022630Y007404D02*
X022630Y007404D01*
X022630Y007246D02*
X022630Y007246D01*
X022630Y007087D02*
X022630Y007087D01*
X022630Y006929D02*
X022630Y006929D01*
X022890Y006929D02*
X022890Y006929D01*
X022370Y006929D02*
X022161Y006929D01*
X023487Y006254D02*
X023830Y006597D01*
X023830Y005863D01*
X023507Y005540D01*
X023507Y005736D01*
X023495Y005781D01*
X023471Y005822D01*
X023449Y005844D01*
X023487Y005882D01*
X023487Y006254D01*
X023527Y006295D02*
X023830Y006295D01*
X023830Y006453D02*
X023686Y006453D01*
X023830Y006136D02*
X023487Y006136D01*
X023487Y005978D02*
X023830Y005978D01*
X023786Y005819D02*
X023473Y005819D01*
X023507Y005661D02*
X023628Y005661D01*
X024035Y005502D02*
X024039Y005502D01*
X024039Y005506D02*
X024039Y005347D01*
X024132Y005253D01*
X024230Y005253D01*
X024230Y004983D01*
X024159Y004911D01*
X024110Y004794D01*
X024110Y004730D01*
X022511Y004730D01*
X022513Y004734D01*
X022525Y004780D01*
X022525Y005021D01*
X022088Y005021D01*
X022088Y005137D01*
X022525Y005137D01*
X022525Y005202D01*
X022680Y005047D01*
X022797Y004930D01*
X023463Y004930D01*
X024039Y005506D01*
X024042Y005344D02*
X023876Y005344D01*
X023718Y005185D02*
X024230Y005185D01*
X024230Y005027D02*
X023559Y005027D01*
X024141Y004868D02*
X022525Y004868D01*
X022701Y005027D02*
X022088Y005027D01*
X021972Y005027D02*
X021380Y005027D01*
X021535Y005021D02*
X021535Y004780D01*
X021547Y004734D01*
X021560Y004712D01*
X021559Y004711D01*
X021551Y004692D01*
X021380Y004863D01*
X021380Y005375D01*
X021416Y005360D01*
X021535Y005360D01*
X021535Y005137D01*
X021972Y005137D01*
X021972Y005021D01*
X021535Y005021D01*
X021535Y004868D02*
X021380Y004868D01*
X021533Y004710D02*
X021558Y004710D01*
X021535Y005185D02*
X021380Y005185D01*
X021380Y005344D02*
X021535Y005344D01*
X022525Y005185D02*
X022542Y005185D01*
X023112Y005514D02*
X023112Y005788D01*
X023148Y005788D01*
X023148Y005514D01*
X023112Y005514D01*
X023112Y005661D02*
X023148Y005661D01*
X026642Y004159D02*
X027513Y005030D01*
X028432Y005030D01*
X028432Y004762D01*
X028526Y004668D01*
X028934Y004668D01*
X028972Y004706D01*
X029930Y003747D01*
X029930Y001863D01*
X029837Y001770D01*
X029837Y002396D01*
X029744Y002490D01*
X028953Y002490D01*
X027363Y004080D01*
X026733Y004080D01*
X026661Y004151D01*
X026642Y004159D01*
X026717Y004234D02*
X029443Y004234D01*
X029285Y004393D02*
X026875Y004393D01*
X027034Y004551D02*
X029126Y004551D01*
X028484Y004710D02*
X027192Y004710D01*
X027351Y004868D02*
X028432Y004868D01*
X028432Y005027D02*
X027509Y005027D01*
X027367Y004076D02*
X029602Y004076D01*
X029760Y003917D02*
X027526Y003917D01*
X027684Y003759D02*
X029919Y003759D01*
X029930Y003600D02*
X027843Y003600D01*
X028001Y003442D02*
X029930Y003442D01*
X029930Y003283D02*
X028160Y003283D01*
X028318Y003125D02*
X029930Y003125D01*
X029930Y002966D02*
X028477Y002966D01*
X028635Y002808D02*
X029930Y002808D01*
X029930Y002649D02*
X028794Y002649D01*
X028952Y002491D02*
X029930Y002491D01*
X029930Y002332D02*
X029837Y002332D01*
X029837Y002174D02*
X029930Y002174D01*
X029930Y002015D02*
X029837Y002015D01*
X029837Y001857D02*
X029924Y001857D01*
X028717Y001857D02*
X028475Y001857D01*
X028479Y001884D02*
X028479Y001892D01*
X027937Y001892D01*
X027937Y001968D01*
X027861Y001968D01*
X027861Y001892D01*
X027319Y001892D01*
X027319Y001884D01*
X027334Y001794D01*
X027362Y001707D01*
X027403Y001626D01*
X027437Y001580D01*
X026963Y001580D01*
X026996Y001613D01*
X027081Y001819D01*
X027081Y002041D01*
X026996Y002247D01*
X026839Y002405D01*
X026633Y002490D01*
X026410Y002490D01*
X026204Y002405D01*
X026047Y002247D01*
X026002Y002140D01*
X024963Y003180D01*
X025175Y003180D01*
X025209Y003099D01*
X025299Y003009D01*
X025416Y002960D01*
X025544Y002960D01*
X025661Y003009D01*
X025751Y003099D01*
X025800Y003216D01*
X025800Y003317D01*
X026201Y003718D01*
X026209Y003699D01*
X026299Y003609D01*
X026416Y003560D01*
X026544Y003560D01*
X026661Y003609D01*
X026733Y003680D01*
X027197Y003680D01*
X028717Y002160D01*
X028717Y001580D01*
X028362Y001580D01*
X028395Y001626D01*
X028437Y001707D01*
X028465Y001794D01*
X028479Y001884D01*
X028479Y001968D02*
X028479Y001976D01*
X028465Y002066D01*
X028437Y002153D01*
X028395Y002234D01*
X028342Y002308D01*
X028277Y002372D01*
X028203Y002426D01*
X028122Y002468D01*
X028035Y002496D01*
X027945Y002510D01*
X027937Y002510D01*
X027937Y001968D01*
X028479Y001968D01*
X028473Y002015D02*
X028717Y002015D01*
X028704Y002174D02*
X028426Y002174D01*
X028318Y002332D02*
X028545Y002332D01*
X028387Y002491D02*
X028051Y002491D01*
X027937Y002491D02*
X027861Y002491D01*
X027861Y002510D02*
X027854Y002510D01*
X027763Y002496D01*
X027677Y002468D01*
X027595Y002426D01*
X027521Y002372D01*
X027457Y002308D01*
X027403Y002234D01*
X027362Y002153D01*
X027334Y002066D01*
X027319Y001976D01*
X027319Y001968D01*
X027861Y001968D01*
X027861Y002510D01*
X027747Y002491D02*
X025652Y002491D01*
X025494Y002649D02*
X028228Y002649D01*
X028070Y002808D02*
X025335Y002808D01*
X025402Y002966D02*
X025177Y002966D01*
X025198Y003125D02*
X025018Y003125D01*
X025558Y002966D02*
X027911Y002966D01*
X027753Y003125D02*
X025762Y003125D01*
X025800Y003283D02*
X027594Y003283D01*
X027436Y003442D02*
X025924Y003442D01*
X026083Y003600D02*
X026320Y003600D01*
X026640Y003600D02*
X027277Y003600D01*
X027481Y002332D02*
X026911Y002332D01*
X027027Y002174D02*
X027372Y002174D01*
X027326Y002015D02*
X027081Y002015D01*
X027081Y001857D02*
X027324Y001857D01*
X027367Y001698D02*
X027031Y001698D01*
X027861Y002015D02*
X027937Y002015D01*
X027937Y002174D02*
X027861Y002174D01*
X027861Y002332D02*
X027937Y002332D01*
X028432Y001698D02*
X028717Y001698D01*
X029806Y000906D02*
X002031Y000906D01*
X002161Y000959D02*
X001849Y000830D01*
X001630Y000830D01*
X001511Y000830D01*
X001199Y000959D01*
X001199Y000959D01*
X000959Y001199D01*
X000959Y001199D01*
X000830Y001511D01*
X000830Y001849D01*
X000959Y002161D01*
X000959Y002161D01*
X001199Y002401D01*
X001199Y002401D01*
X001511Y002530D01*
X001849Y002530D01*
X002161Y002401D01*
X002161Y002401D01*
X002401Y002161D01*
X002401Y002161D01*
X002530Y001849D01*
X002530Y001511D01*
X002401Y001199D01*
X002401Y001199D01*
X002161Y000959D01*
X002161Y000959D01*
X002266Y001064D02*
X023613Y001064D01*
X023455Y001223D02*
X017805Y001223D01*
X017597Y001580D02*
X017318Y001580D01*
X017350Y001613D01*
X017436Y001819D01*
X017436Y002041D01*
X017350Y002247D01*
X017193Y002405D01*
X017030Y002472D01*
X017030Y003763D01*
X016070Y004723D01*
X016070Y005062D01*
X015902Y005230D01*
X016329Y005230D01*
X016170Y005071D01*
X016170Y004880D01*
X016630Y004880D01*
X017090Y004880D01*
X017090Y005071D01*
X016931Y005230D01*
X017329Y005230D01*
X017170Y005071D01*
X017170Y004880D01*
X017630Y004880D01*
X018090Y004880D01*
X018090Y005071D01*
X017931Y005230D01*
X018477Y005230D01*
X018549Y005159D01*
X018666Y005110D01*
X018794Y005110D01*
X018830Y005125D01*
X018830Y002763D01*
X018805Y002738D01*
X018557Y002490D01*
X017787Y002490D01*
X017694Y002396D01*
X017694Y001676D01*
X017597Y001580D01*
X017694Y001698D02*
X017386Y001698D01*
X017436Y001857D02*
X017694Y001857D01*
X017694Y002015D02*
X017436Y002015D01*
X017381Y002174D02*
X017694Y002174D01*
X017694Y002332D02*
X017266Y002332D01*
X017030Y002491D02*
X018558Y002491D01*
X018716Y002649D02*
X017030Y002649D01*
X017030Y002808D02*
X018830Y002808D01*
X018830Y002966D02*
X017030Y002966D01*
X017030Y003125D02*
X018830Y003125D01*
X018830Y003283D02*
X017030Y003283D01*
X017030Y003442D02*
X018830Y003442D01*
X018830Y003600D02*
X017030Y003600D01*
X017030Y003759D02*
X018830Y003759D01*
X018830Y003917D02*
X016876Y003917D01*
X016717Y004076D02*
X018830Y004076D01*
X018830Y004234D02*
X016559Y004234D01*
X016630Y004420D02*
X016630Y004880D01*
X016630Y004880D01*
X017090Y004880D01*
X017090Y004689D01*
X016821Y004420D01*
X016630Y004420D01*
X016630Y004880D01*
X016630Y004880D01*
X016630Y004880D01*
X016170Y004880D01*
X016170Y004689D01*
X016439Y004420D01*
X016630Y004420D01*
X016630Y004551D02*
X016630Y004551D01*
X016630Y004710D02*
X016630Y004710D01*
X016630Y004868D02*
X016630Y004868D01*
X017090Y004868D02*
X017170Y004868D01*
X017170Y004880D02*
X017170Y004689D01*
X017439Y004420D01*
X017630Y004420D01*
X017821Y004420D01*
X018090Y004689D01*
X018090Y004880D01*
X017630Y004880D01*
X017630Y004880D01*
X017630Y004420D01*
X017630Y004880D01*
X017630Y004880D01*
X017630Y004880D01*
X017170Y004880D01*
X017170Y005027D02*
X017090Y005027D01*
X016976Y005185D02*
X017284Y005185D01*
X017630Y004868D02*
X017630Y004868D01*
X017630Y004710D02*
X017630Y004710D01*
X017630Y004551D02*
X017630Y004551D01*
X017952Y004551D02*
X018830Y004551D01*
X018830Y004393D02*
X016400Y004393D01*
X016308Y004551D02*
X016242Y004551D01*
X016170Y004710D02*
X016083Y004710D01*
X016070Y004868D02*
X016170Y004868D01*
X016170Y005027D02*
X016070Y005027D01*
X015947Y005185D02*
X016284Y005185D01*
X016335Y005630D02*
X017525Y005630D01*
X017510Y005666D01*
X017510Y005767D01*
X016862Y006415D01*
X016862Y006342D01*
X016850Y006296D01*
X016826Y006255D01*
X016793Y006222D01*
X016752Y006198D01*
X016706Y006186D01*
X016602Y006186D01*
X016602Y006526D01*
X016602Y006526D01*
X016287Y006526D01*
X016287Y006526D01*
X016287Y006186D01*
X016184Y006186D01*
X016180Y006187D01*
X016180Y006014D01*
X016211Y006001D01*
X016301Y005911D01*
X016350Y005794D01*
X016350Y005666D01*
X016335Y005630D01*
X016348Y005661D02*
X017512Y005661D01*
X017458Y005819D02*
X016339Y005819D01*
X016235Y005978D02*
X017300Y005978D01*
X017141Y006136D02*
X016180Y006136D01*
X016287Y006186D02*
X016391Y006186D01*
X016437Y006198D01*
X016445Y006203D01*
X016453Y006198D01*
X016499Y006186D01*
X016602Y006186D01*
X016602Y006526D01*
X016342Y006526D01*
X016287Y006526D01*
X016287Y006526D01*
X016287Y006186D01*
X016287Y006295D02*
X016287Y006295D01*
X016287Y006453D02*
X016287Y006453D01*
X016602Y006453D02*
X016602Y006453D01*
X016602Y006526D02*
X016602Y006526D01*
X016602Y006295D02*
X016602Y006295D01*
X016849Y006295D02*
X016983Y006295D01*
X016261Y006866D02*
X016184Y006866D01*
X016138Y006853D01*
X016121Y006844D01*
X016119Y006846D01*
X015826Y006846D01*
X015815Y006834D01*
X015804Y006846D01*
X015511Y006846D01*
X015418Y006752D01*
X015418Y006515D01*
X015416Y006512D01*
X015418Y006506D01*
X015418Y006299D01*
X015430Y006287D01*
X015430Y006083D01*
X015359Y006011D01*
X015310Y005894D01*
X015310Y005766D01*
X015359Y005649D01*
X015377Y005630D01*
X013935Y005630D01*
X013950Y005666D01*
X013950Y005794D01*
X013901Y005911D01*
X013830Y005983D01*
X013830Y006287D01*
X013842Y006299D01*
X013842Y006506D01*
X013844Y006512D01*
X013842Y006515D01*
X013842Y006752D01*
X013749Y006846D01*
X013456Y006846D01*
X013445Y006834D01*
X013434Y006846D01*
X013141Y006846D01*
X013130Y006834D01*
X013119Y006846D01*
X013047Y006846D01*
X012999Y006894D01*
X013076Y006894D01*
X013122Y006907D01*
X013130Y006911D01*
X013138Y006907D01*
X013184Y006894D01*
X013287Y006894D01*
X013287Y007234D01*
X012973Y007234D01*
X012973Y007234D01*
X013233Y007234D01*
X013287Y007234D01*
X013287Y007234D01*
X013287Y007234D01*
X013287Y006894D01*
X013391Y006894D01*
X013437Y006907D01*
X013445Y006911D01*
X013453Y006907D01*
X013499Y006894D01*
X013602Y006894D01*
X013602Y007234D01*
X013547Y007234D01*
X013287Y007234D01*
X013287Y007574D01*
X013184Y007574D01*
X013138Y007562D01*
X013130Y007557D01*
X013122Y007562D01*
X013076Y007574D01*
X012973Y007574D01*
X012973Y007234D01*
X012973Y007234D01*
X012658Y007234D01*
X012658Y007234D01*
X012918Y007234D01*
X012973Y007234D01*
X012973Y007234D01*
X012973Y007574D01*
X012869Y007574D01*
X012823Y007562D01*
X012815Y007557D01*
X012807Y007562D01*
X012761Y007574D01*
X012658Y007574D01*
X012658Y007234D01*
X012658Y007234D01*
X012658Y007574D01*
X012554Y007574D01*
X012508Y007562D01*
X012467Y007538D01*
X012434Y007505D01*
X012410Y007464D01*
X012398Y007418D01*
X012398Y007345D01*
X011930Y007813D01*
X011930Y010497D01*
X012070Y010637D01*
X012070Y010520D01*
X012380Y010520D01*
X012380Y009940D01*
X012534Y009940D01*
X013226Y009940D01*
X013380Y009940D01*
X013534Y009940D01*
X014726Y009940D01*
X014880Y009940D01*
X015034Y009940D01*
X017237Y009940D01*
X017209Y009911D02*
X017160Y009794D01*
X017160Y009666D01*
X017175Y009630D01*
X017097Y009630D01*
X016787Y009320D01*
X016448Y009320D01*
X016190Y009062D01*
X016190Y008723D01*
X016130Y008663D01*
X016130Y007557D01*
X016122Y007562D01*
X016076Y007574D01*
X015973Y007574D01*
X015973Y007234D01*
X015973Y006894D01*
X016076Y006894D01*
X016122Y006907D01*
X016139Y006916D01*
X016141Y006914D01*
X016213Y006914D01*
X016261Y006866D01*
X015973Y006894D02*
X015973Y007234D01*
X015973Y007234D01*
X015973Y007234D01*
X015658Y007234D01*
X015658Y007234D01*
X015658Y006894D01*
X015761Y006894D01*
X015807Y006907D01*
X015815Y006911D01*
X015823Y006907D01*
X015869Y006894D01*
X015973Y006894D01*
X015973Y006929D02*
X015973Y006929D01*
X015973Y007087D02*
X015973Y007087D01*
X015973Y007234D02*
X015973Y007234D01*
X015973Y007574D01*
X015869Y007574D01*
X015823Y007562D01*
X015815Y007557D01*
X015807Y007562D01*
X015761Y007574D01*
X015658Y007574D01*
X015658Y007234D01*
X015658Y007234D01*
X015918Y007234D01*
X015973Y007234D01*
X015973Y007246D02*
X015973Y007246D01*
X015973Y007404D02*
X015973Y007404D01*
X015973Y007563D02*
X015973Y007563D01*
X016120Y007563D02*
X016130Y007563D01*
X016130Y007721D02*
X012022Y007721D01*
X011930Y007880D02*
X016130Y007880D01*
X016130Y008038D02*
X011930Y008038D01*
X011930Y008197D02*
X016130Y008197D01*
X016130Y008355D02*
X011930Y008355D01*
X011930Y008514D02*
X012346Y008514D01*
X012439Y008420D02*
X012170Y008689D01*
X012170Y008880D01*
X012630Y008880D01*
X012630Y008880D01*
X012630Y009340D01*
X012821Y009340D01*
X013090Y009071D01*
X013090Y008880D01*
X012630Y008880D01*
X012630Y008880D01*
X012630Y008880D01*
X012630Y009340D01*
X012439Y009340D01*
X012170Y009071D01*
X012170Y008880D01*
X012630Y008880D01*
X013090Y008880D01*
X013090Y008689D01*
X012821Y008420D01*
X012630Y008420D01*
X012630Y008880D01*
X012630Y008880D01*
X012630Y008420D01*
X012439Y008420D01*
X012630Y008514D02*
X012630Y008514D01*
X012630Y008672D02*
X012630Y008672D01*
X012630Y008831D02*
X012630Y008831D01*
X012630Y008989D02*
X012630Y008989D01*
X012630Y009148D02*
X012630Y009148D01*
X012630Y009306D02*
X012630Y009306D01*
X012855Y009306D02*
X013405Y009306D01*
X013439Y009340D02*
X013170Y009071D01*
X013170Y008880D01*
X013630Y008880D01*
X013630Y008880D01*
X013630Y009340D01*
X013821Y009340D01*
X014090Y009071D01*
X014090Y008880D01*
X013630Y008880D01*
X013630Y008880D01*
X013630Y008880D01*
X013630Y009340D01*
X013439Y009340D01*
X013630Y009306D02*
X013630Y009306D01*
X013630Y009148D02*
X013630Y009148D01*
X013630Y008989D02*
X013630Y008989D01*
X013630Y008880D02*
X013170Y008880D01*
X013170Y008689D01*
X013439Y008420D01*
X013630Y008420D01*
X013821Y008420D01*
X014090Y008689D01*
X014090Y008880D01*
X013630Y008880D01*
X013630Y008420D01*
X013630Y008880D01*
X013630Y008880D01*
X013630Y008831D02*
X013630Y008831D01*
X013630Y008672D02*
X013630Y008672D01*
X013630Y008514D02*
X013630Y008514D01*
X013914Y008514D02*
X014346Y008514D01*
X014439Y008420D02*
X014170Y008689D01*
X014170Y008880D01*
X014630Y008880D01*
X014630Y008880D01*
X014630Y009340D01*
X014821Y009340D01*
X015090Y009071D01*
X015090Y008880D01*
X014630Y008880D01*
X014630Y008880D01*
X014630Y008880D01*
X014630Y009340D01*
X014439Y009340D01*
X014170Y009071D01*
X014170Y008880D01*
X014630Y008880D01*
X015090Y008880D01*
X015090Y008689D01*
X014821Y008420D01*
X014630Y008420D01*
X014630Y008880D01*
X014630Y008880D01*
X014630Y008420D01*
X014439Y008420D01*
X014630Y008514D02*
X014630Y008514D01*
X014630Y008672D02*
X014630Y008672D01*
X014630Y008831D02*
X014630Y008831D01*
X014630Y008989D02*
X014630Y008989D01*
X014630Y009148D02*
X014630Y009148D01*
X014630Y009306D02*
X014630Y009306D01*
X014855Y009306D02*
X015405Y009306D01*
X015439Y009340D02*
X015170Y009071D01*
X015170Y008880D01*
X015630Y008880D01*
X015630Y008880D01*
X015630Y009340D01*
X015821Y009340D01*
X016090Y009071D01*
X016090Y008880D01*
X015630Y008880D01*
X015630Y008880D01*
X015630Y008880D01*
X015630Y009340D01*
X015439Y009340D01*
X015630Y009306D02*
X015630Y009306D01*
X015630Y009148D02*
X015630Y009148D01*
X015630Y008989D02*
X015630Y008989D01*
X015630Y008880D02*
X015170Y008880D01*
X015170Y008689D01*
X015439Y008420D01*
X015630Y008420D01*
X015821Y008420D01*
X016090Y008689D01*
X016090Y008880D01*
X015630Y008880D01*
X015630Y008420D01*
X015630Y008880D01*
X015630Y008880D01*
X015630Y008831D02*
X015630Y008831D01*
X015630Y008672D02*
X015630Y008672D01*
X015630Y008514D02*
X015630Y008514D01*
X015914Y008514D02*
X016130Y008514D01*
X016139Y008672D02*
X016073Y008672D01*
X016090Y008831D02*
X016190Y008831D01*
X016190Y008989D02*
X016090Y008989D01*
X016013Y009148D02*
X016275Y009148D01*
X016434Y009306D02*
X015855Y009306D01*
X015247Y009148D02*
X015013Y009148D01*
X015090Y008989D02*
X015170Y008989D01*
X015170Y008831D02*
X015090Y008831D01*
X015073Y008672D02*
X015187Y008672D01*
X015346Y008514D02*
X014914Y008514D01*
X014187Y008672D02*
X014073Y008672D01*
X014090Y008831D02*
X014170Y008831D01*
X014170Y008989D02*
X014090Y008989D01*
X014013Y009148D02*
X014247Y009148D01*
X014405Y009306D02*
X013855Y009306D01*
X013247Y009148D02*
X013013Y009148D01*
X013090Y008989D02*
X013170Y008989D01*
X013170Y008831D02*
X013090Y008831D01*
X013073Y008672D02*
X013187Y008672D01*
X013346Y008514D02*
X012914Y008514D01*
X012187Y008672D02*
X011930Y008672D01*
X011930Y008831D02*
X012170Y008831D01*
X012170Y008989D02*
X011930Y008989D01*
X011930Y009148D02*
X012247Y009148D01*
X012405Y009306D02*
X011930Y009306D01*
X011930Y009465D02*
X016932Y009465D01*
X017090Y009623D02*
X011930Y009623D01*
X011930Y009782D02*
X017160Y009782D01*
X017209Y009911D02*
X017299Y010001D01*
X017318Y010009D01*
X015909Y011418D01*
X015901Y011399D01*
X015811Y011309D01*
X015694Y011260D01*
X015566Y011260D01*
X015449Y011309D01*
X015377Y011380D01*
X012813Y011380D01*
X012533Y011100D01*
X012534Y011100D01*
X012579Y011088D01*
X012621Y011064D01*
X012644Y011040D01*
X012684Y011080D01*
X013076Y011080D01*
X013116Y011040D01*
X013139Y011064D01*
X013181Y011088D01*
X013226Y011100D01*
X013380Y011100D01*
X013380Y010520D01*
X013380Y010520D01*
X013380Y011100D01*
X013534Y011100D01*
X013579Y011088D01*
X013621Y011064D01*
X013644Y011040D01*
X013684Y011080D01*
X014076Y011080D01*
X014130Y011026D01*
X014184Y011080D01*
X014576Y011080D01*
X014616Y011040D01*
X014639Y011064D01*
X014681Y011088D01*
X014726Y011100D01*
X014880Y011100D01*
X014880Y010520D01*
X014880Y010520D01*
X014880Y011100D01*
X015034Y011100D01*
X015079Y011088D01*
X015121Y011064D01*
X015144Y011040D01*
X015184Y011080D01*
X015576Y011080D01*
X015630Y011026D01*
X015684Y011080D01*
X016076Y011080D01*
X016170Y010986D01*
X016170Y010054D01*
X016076Y009960D01*
X015684Y009960D01*
X015630Y010014D01*
X015576Y009960D01*
X015184Y009960D01*
X015144Y010000D01*
X015121Y009976D01*
X015079Y009952D01*
X015034Y009940D01*
X014880Y009940D02*
X014880Y009940D01*
X014880Y010520D01*
X014880Y010520D01*
X014880Y009940D01*
X014726Y009940D02*
X014681Y009952D01*
X014639Y009976D01*
X014616Y010000D01*
X014576Y009960D01*
X014184Y009960D01*
X014130Y010014D01*
X014076Y009960D01*
X013684Y009960D01*
X013644Y010000D01*
X013621Y009976D01*
X013579Y009952D01*
X013534Y009940D01*
X013380Y009940D02*
X013380Y009940D01*
X013380Y010520D01*
X013380Y010520D01*
X013380Y009940D01*
X013226Y009940D02*
X013181Y009952D01*
X013139Y009976D01*
X013116Y010000D01*
X013076Y009960D01*
X012684Y009960D01*
X012644Y010000D01*
X012621Y009976D01*
X012579Y009952D01*
X012534Y009940D01*
X012380Y009940D02*
X012380Y009940D01*
X012380Y010520D01*
X012380Y010520D01*
X012380Y010520D01*
X012070Y010520D01*
X012070Y010096D01*
X012082Y010051D01*
X012106Y010009D01*
X012139Y009976D01*
X012181Y009952D01*
X012226Y009940D01*
X011930Y009940D01*
X011930Y010099D02*
X012070Y010099D01*
X012070Y010257D02*
X011930Y010257D01*
X011930Y010416D02*
X012070Y010416D01*
X012070Y010574D02*
X012007Y010574D01*
X012380Y010416D02*
X012380Y010416D01*
X012380Y010257D02*
X012380Y010257D01*
X012380Y010099D02*
X012380Y010099D01*
X012380Y009940D02*
X012226Y009940D01*
X013380Y010099D02*
X013380Y010099D01*
X013380Y010257D02*
X013380Y010257D01*
X013380Y010416D02*
X013380Y010416D01*
X013380Y010574D02*
X013380Y010574D01*
X013380Y010733D02*
X013380Y010733D01*
X013380Y010891D02*
X013380Y010891D01*
X013380Y011050D02*
X013380Y011050D01*
X013125Y011050D02*
X013107Y011050D01*
X012653Y011050D02*
X012635Y011050D01*
X012641Y011208D02*
X016119Y011208D01*
X016107Y011050D02*
X016278Y011050D01*
X016170Y010891D02*
X016436Y010891D01*
X016595Y010733D02*
X016170Y010733D01*
X016170Y010574D02*
X016753Y010574D01*
X016912Y010416D02*
X016170Y010416D01*
X016170Y010257D02*
X017070Y010257D01*
X017229Y010099D02*
X016170Y010099D01*
X017160Y010733D02*
X017258Y010733D01*
X017258Y010635D02*
X016192Y011701D01*
X016211Y011709D01*
X016301Y011799D01*
X016350Y011916D01*
X016350Y012044D01*
X016301Y012161D01*
X016230Y012233D01*
X016230Y012463D01*
X016170Y012523D01*
X016170Y013406D01*
X016080Y013496D01*
X016080Y014297D01*
X016601Y014818D01*
X016609Y014799D01*
X016699Y014709D01*
X016816Y014660D01*
X016917Y014660D01*
X017730Y013847D01*
X017730Y012487D01*
X017282Y012487D01*
X017244Y012449D01*
X017222Y012471D01*
X017181Y012495D01*
X017136Y012507D01*
X016914Y012507D01*
X016914Y012148D01*
X016877Y012148D01*
X016877Y012112D01*
X016499Y012112D01*
X016499Y011909D01*
X016511Y011864D01*
X016535Y011823D01*
X016568Y011789D01*
X016609Y011765D01*
X016655Y011753D01*
X016877Y011753D01*
X016877Y012112D01*
X016914Y012112D01*
X016914Y011753D01*
X017136Y011753D01*
X017181Y011765D01*
X017222Y011789D01*
X017244Y011811D01*
X017282Y011773D01*
X017380Y011773D01*
X017380Y011326D01*
X017352Y011326D01*
X017258Y011232D01*
X017258Y010635D01*
X017258Y010891D02*
X017002Y010891D01*
X016843Y011050D02*
X017258Y011050D01*
X017258Y011208D02*
X016685Y011208D01*
X016526Y011367D02*
X017380Y011367D01*
X017380Y011525D02*
X016368Y011525D01*
X016209Y011684D02*
X017380Y011684D01*
X016914Y011842D02*
X016877Y011842D01*
X016877Y012001D02*
X016914Y012001D01*
X016877Y012148D02*
X016499Y012148D01*
X016499Y012351D01*
X016511Y012396D01*
X016535Y012437D01*
X016568Y012471D01*
X016609Y012495D01*
X016655Y012507D01*
X016877Y012507D01*
X016877Y012148D01*
X016877Y012159D02*
X016914Y012159D01*
X016914Y012318D02*
X016877Y012318D01*
X016877Y012476D02*
X016914Y012476D01*
X017214Y012476D02*
X017271Y012476D01*
X017730Y012635D02*
X016170Y012635D01*
X016170Y012793D02*
X017730Y012793D01*
X017730Y012952D02*
X016170Y012952D01*
X016170Y013110D02*
X017730Y013110D01*
X017730Y013269D02*
X016170Y013269D01*
X016149Y013427D02*
X017730Y013427D01*
X017730Y013586D02*
X016080Y013586D01*
X016080Y013744D02*
X017730Y013744D01*
X017675Y013903D02*
X016080Y013903D01*
X016080Y014061D02*
X017516Y014061D01*
X017358Y014220D02*
X016080Y014220D01*
X016161Y014378D02*
X017199Y014378D01*
X017041Y014537D02*
X016319Y014537D01*
X016478Y014695D02*
X016732Y014695D01*
X015979Y015012D02*
X014230Y015012D01*
X014230Y014854D02*
X015821Y014854D01*
X015662Y014695D02*
X014230Y014695D01*
X014230Y014563D02*
X014230Y015820D01*
X014496Y015820D01*
X014590Y015914D01*
X014590Y016846D01*
X014496Y016940D01*
X013564Y016940D01*
X013470Y016846D01*
X013470Y016680D01*
X012092Y016680D01*
X012100Y016692D01*
X012140Y016769D01*
X012166Y016851D01*
X012180Y016937D01*
X012180Y016980D01*
X012180Y017023D01*
X012166Y017109D01*
X012140Y017191D01*
X012100Y017268D01*
X012092Y017280D01*
X015597Y017280D01*
X016273Y016604D01*
X016226Y016491D01*
X016226Y016269D01*
X016311Y016063D01*
X016469Y015905D01*
X016530Y015880D01*
X016530Y015563D01*
X015059Y014092D01*
X015051Y014111D01*
X014961Y014201D01*
X014844Y014250D01*
X014716Y014250D01*
X014599Y014201D01*
X014595Y014198D01*
X014230Y014563D01*
X014256Y014537D02*
X015504Y014537D01*
X015345Y014378D02*
X014415Y014378D01*
X014573Y014220D02*
X014643Y014220D01*
X014917Y014220D02*
X015187Y014220D01*
X016138Y015171D02*
X014230Y015171D01*
X014230Y015329D02*
X016296Y015329D01*
X016455Y015488D02*
X014230Y015488D01*
X014230Y015646D02*
X016530Y015646D01*
X016530Y015805D02*
X014230Y015805D01*
X014590Y015963D02*
X015033Y015963D01*
X015091Y015905D02*
X014933Y016063D01*
X014848Y016269D01*
X014848Y016491D01*
X014933Y016697D01*
X015091Y016855D01*
X015297Y016940D01*
X015519Y016940D01*
X015725Y016855D01*
X015883Y016697D01*
X015968Y016491D01*
X015968Y016269D01*
X015883Y016063D01*
X015725Y015905D01*
X015519Y015820D01*
X015297Y015820D01*
X015091Y015905D01*
X014909Y016122D02*
X014590Y016122D01*
X014590Y016280D02*
X014848Y016280D01*
X014848Y016439D02*
X014590Y016439D01*
X014590Y016597D02*
X014892Y016597D01*
X014992Y016756D02*
X014590Y016756D01*
X014522Y016914D02*
X015234Y016914D01*
X015582Y016914D02*
X015963Y016914D01*
X015824Y016756D02*
X016122Y016756D01*
X016270Y016597D02*
X015924Y016597D01*
X015968Y016439D02*
X016226Y016439D01*
X016226Y016280D02*
X015968Y016280D01*
X015907Y016122D02*
X016287Y016122D01*
X016411Y015963D02*
X015783Y015963D01*
X016930Y015805D02*
X017022Y015805D01*
X017161Y015963D02*
X017180Y015963D01*
X017285Y016122D02*
X017339Y016122D01*
X017346Y016280D02*
X017430Y016280D01*
X017430Y016439D02*
X017346Y016439D01*
X017302Y016597D02*
X017430Y016597D01*
X017473Y016756D02*
X017202Y016756D01*
X016960Y016914D02*
X017631Y016914D01*
X017790Y017073D02*
X016370Y017073D01*
X016212Y017231D02*
X037654Y017231D01*
X037495Y017073D02*
X022670Y017073D01*
X022829Y016914D02*
X023446Y016914D01*
X023638Y016914D02*
X023714Y016914D01*
X023714Y016756D02*
X023638Y016756D01*
X023638Y016597D02*
X023714Y016597D01*
X023714Y016439D02*
X023638Y016439D01*
X023714Y016342D02*
X024256Y016342D01*
X024256Y016334D01*
X024241Y016244D01*
X024213Y016157D01*
X024172Y016076D01*
X024118Y016002D01*
X024054Y015938D01*
X023980Y015884D01*
X023898Y015842D01*
X023811Y015814D01*
X023721Y015800D01*
X023714Y015800D01*
X023714Y016342D01*
X023714Y016280D02*
X023638Y016280D01*
X023638Y016122D02*
X023714Y016122D01*
X023714Y015963D02*
X023638Y015963D01*
X023638Y015805D02*
X023714Y015805D01*
X023750Y015805D02*
X024622Y015805D01*
X024780Y015963D02*
X024079Y015963D01*
X024195Y016122D02*
X024939Y016122D01*
X025097Y016280D02*
X024247Y016280D01*
X024254Y016439D02*
X025256Y016439D01*
X024215Y016597D02*
X037330Y016597D01*
X037343Y016756D02*
X024120Y016756D01*
X023905Y016914D02*
X037409Y016914D01*
X037459Y017036D02*
X037459Y017036D01*
X037974Y017390D02*
X016053Y017390D01*
X015895Y017548D02*
X038622Y017548D01*
X038386Y017390D02*
X038892Y017390D01*
X039036Y017231D02*
X038706Y017231D01*
X038661Y017276D02*
X038661Y017276D01*
X038865Y017073D02*
X039140Y017073D01*
X039201Y016914D02*
X038951Y016914D01*
X039017Y016756D02*
X039241Y016756D01*
X039250Y016597D02*
X039030Y016597D01*
X039030Y016439D02*
X039250Y016439D01*
X039250Y016280D02*
X038986Y016280D01*
X038920Y016122D02*
X039250Y016122D01*
X039250Y015963D02*
X038790Y015963D01*
X038901Y016074D02*
X038901Y016074D01*
X038589Y015805D02*
X039250Y015805D01*
X039250Y015646D02*
X038897Y015646D01*
X039055Y015488D02*
X039250Y015488D01*
X039250Y015329D02*
X039214Y015329D01*
X038011Y017405D02*
X038011Y017405D01*
X026756Y014730D02*
X026723Y014697D01*
X026723Y014643D01*
X026644Y014722D01*
X026039Y014722D01*
X025946Y014629D01*
X025946Y014328D01*
X025780Y014163D01*
X025780Y013913D01*
X025714Y013847D01*
X025714Y013881D01*
X025711Y013884D01*
X025722Y013902D01*
X025734Y013948D01*
X025734Y014080D01*
X025734Y014212D01*
X025722Y014258D01*
X025711Y014276D01*
X025714Y014279D01*
X025714Y014582D01*
X025830Y014697D01*
X025830Y014730D01*
X026756Y014730D01*
X026723Y014695D02*
X026672Y014695D01*
X026012Y014695D02*
X025828Y014695D01*
X025714Y014537D02*
X025946Y014537D01*
X025946Y014378D02*
X025714Y014378D01*
X025732Y014220D02*
X025837Y014220D01*
X025780Y014061D02*
X025734Y014061D01*
X025734Y014080D02*
X025318Y014080D01*
X025734Y014080D01*
X025722Y013903D02*
X025770Y013903D01*
X025318Y014080D02*
X025318Y014080D01*
X023829Y015012D02*
X023331Y015012D01*
X023330Y015171D02*
X023988Y015171D01*
X024146Y015329D02*
X023330Y015329D01*
X023330Y015488D02*
X024305Y015488D01*
X024463Y015646D02*
X023330Y015646D01*
X023330Y015805D02*
X023601Y015805D01*
X023506Y014854D02*
X023489Y014854D01*
X023232Y016756D02*
X022987Y016756D01*
X016612Y016914D02*
X016529Y016914D01*
X015805Y017073D02*
X012172Y017073D01*
X012180Y016980D02*
X011630Y016980D01*
X011630Y016980D01*
X012180Y016980D01*
X012176Y016914D02*
X013538Y016914D01*
X013470Y016756D02*
X012133Y016756D01*
X011630Y016980D02*
X011080Y016980D01*
X011630Y016980D01*
X011630Y016980D01*
X011080Y016980D02*
X011080Y016937D01*
X011094Y016851D01*
X011120Y016769D01*
X011160Y016692D01*
X011168Y016680D01*
X010037Y016680D01*
X010061Y016704D01*
X010108Y016768D01*
X010143Y016838D01*
X010168Y016913D01*
X010180Y016991D01*
X010180Y017021D01*
X009689Y017021D01*
X009689Y017039D01*
X010180Y017039D01*
X010180Y017069D01*
X010168Y017147D01*
X010143Y017222D01*
X010114Y017280D01*
X011168Y017280D01*
X011160Y017268D01*
X011120Y017191D01*
X011094Y017109D01*
X011080Y017023D01*
X011080Y016980D01*
X011084Y016914D02*
X010168Y016914D01*
X010179Y017073D02*
X011088Y017073D01*
X011141Y017231D02*
X010139Y017231D01*
X010099Y016756D02*
X011127Y016756D01*
X012119Y017231D02*
X015646Y017231D01*
X008375Y013903D02*
X000614Y013903D01*
X000614Y014061D02*
X008216Y014061D01*
X008058Y014220D02*
X002499Y014220D01*
X002509Y014225D02*
X002468Y014202D01*
X002422Y014189D01*
X001927Y014189D01*
X001927Y014683D01*
X001767Y014683D01*
X001116Y014683D01*
X001116Y014346D01*
X001128Y014300D01*
X001152Y014259D01*
X001186Y014225D01*
X001227Y014202D01*
X001272Y014189D01*
X001767Y014189D01*
X001767Y014683D01*
X001767Y014843D01*
X001116Y014843D01*
X001116Y015180D01*
X001128Y015226D01*
X001152Y015267D01*
X001186Y015301D01*
X001227Y015325D01*
X001272Y015337D01*
X001767Y015337D01*
X001767Y014843D01*
X001927Y014843D01*
X001927Y015337D01*
X002422Y015337D01*
X002468Y015325D01*
X002509Y015301D01*
X002543Y015267D01*
X002566Y015226D01*
X002579Y015180D01*
X002579Y014843D01*
X001927Y014843D01*
X001927Y014683D01*
X002579Y014683D01*
X002579Y014346D01*
X002566Y014300D01*
X002543Y014259D01*
X002509Y014225D01*
X002579Y014378D02*
X007899Y014378D01*
X007741Y014537D02*
X002579Y014537D01*
X002579Y014854D02*
X003387Y014854D01*
X003351Y014890D02*
X003500Y014741D01*
X003695Y014660D01*
X003905Y014660D01*
X004100Y014741D01*
X004249Y014890D01*
X004330Y015085D01*
X004330Y015295D01*
X004249Y015490D01*
X004100Y015639D01*
X003905Y015720D01*
X003695Y015720D01*
X003500Y015639D01*
X003351Y015490D01*
X003270Y015295D01*
X003270Y015085D01*
X003351Y014890D01*
X003300Y015012D02*
X002579Y015012D01*
X002579Y015171D02*
X003270Y015171D01*
X003284Y015329D02*
X002451Y015329D01*
X001927Y015329D02*
X001767Y015329D01*
X001767Y015171D02*
X001927Y015171D01*
X001927Y015012D02*
X001767Y015012D01*
X001767Y014854D02*
X001927Y014854D01*
X001927Y014695D02*
X003610Y014695D01*
X003990Y014695D02*
X006120Y014695D01*
X006149Y014680D02*
X006231Y014654D01*
X006317Y014640D01*
X006340Y014640D01*
X006340Y015170D01*
X006380Y015170D01*
X006380Y015210D01*
X006340Y015210D01*
X006340Y015740D01*
X006317Y015740D01*
X006231Y015726D01*
X006149Y015700D01*
X006072Y015660D01*
X006002Y015610D01*
X005940Y015548D01*
X005890Y015478D01*
X005850Y015401D01*
X005824Y015319D01*
X005810Y015233D01*
X005810Y015210D01*
X006340Y015210D01*
X006340Y015170D01*
X005810Y015170D01*
X005810Y015147D01*
X005824Y015061D01*
X005850Y014979D01*
X005890Y014902D01*
X005940Y014832D01*
X006002Y014770D01*
X006072Y014720D01*
X006149Y014680D01*
X006340Y014695D02*
X006380Y014695D01*
X006380Y014640D02*
X006403Y014640D01*
X006489Y014654D01*
X006571Y014680D01*
X006648Y014720D01*
X006718Y014770D01*
X006780Y014832D01*
X006830Y014902D01*
X006870Y014979D01*
X006896Y015061D01*
X006910Y015147D01*
X006910Y015170D01*
X006380Y015170D01*
X006380Y014640D01*
X006380Y014854D02*
X006340Y014854D01*
X006340Y015012D02*
X006380Y015012D01*
X006380Y015171D02*
X007107Y015171D01*
X006948Y015329D02*
X006893Y015329D01*
X006380Y015329D02*
X006340Y015329D01*
X006340Y015171D02*
X004330Y015171D01*
X004316Y015329D02*
X005827Y015329D01*
X005896Y015488D02*
X004250Y015488D01*
X004084Y015646D02*
X006052Y015646D01*
X006340Y015646D02*
X006380Y015646D01*
X006380Y015488D02*
X006340Y015488D01*
X006473Y015805D02*
X002089Y015805D01*
X002161Y015834D02*
X002161Y015834D01*
X001849Y015705D01*
X001730Y015705D01*
X001511Y015705D01*
X001199Y015834D01*
X001199Y015834D01*
X000959Y016074D01*
X000959Y016074D01*
X000830Y016386D01*
X000830Y016724D01*
X000959Y017036D01*
X000959Y017036D01*
X001199Y017276D01*
X001199Y017276D01*
X001511Y017405D01*
X001849Y017405D01*
X002161Y017276D01*
X002161Y017276D01*
X002401Y017036D01*
X002401Y017036D01*
X002530Y016724D01*
X002530Y016386D01*
X002401Y016074D01*
X002401Y016074D01*
X002161Y015834D01*
X002290Y015963D02*
X006314Y015963D01*
X006156Y016122D02*
X002420Y016122D01*
X002486Y016280D02*
X005997Y016280D01*
X005839Y016439D02*
X002530Y016439D01*
X002530Y016597D02*
X003423Y016597D01*
X003351Y016670D02*
X003500Y016521D01*
X003695Y016440D01*
X003905Y016440D01*
X004100Y016521D01*
X004249Y016670D01*
X004330Y016865D01*
X004330Y017075D01*
X004249Y017270D01*
X004100Y017419D01*
X003905Y017500D01*
X003695Y017500D01*
X003500Y017419D01*
X003351Y017270D01*
X003270Y017075D01*
X003270Y016865D01*
X003351Y016670D01*
X003315Y016756D02*
X002517Y016756D01*
X002451Y016914D02*
X003270Y016914D01*
X003270Y017073D02*
X002365Y017073D01*
X002206Y017231D02*
X003334Y017231D01*
X003470Y017390D02*
X001886Y017390D01*
X001655Y017620D02*
X001655Y017620D01*
X001474Y017390D02*
X000969Y017390D01*
X000820Y017231D02*
X001154Y017231D01*
X000995Y017073D02*
X000713Y017073D01*
X000661Y016914D02*
X000909Y016914D01*
X000843Y016756D02*
X000622Y016756D01*
X000614Y016597D02*
X000830Y016597D01*
X000830Y016439D02*
X000614Y016439D01*
X000614Y016280D02*
X000874Y016280D01*
X000940Y016122D02*
X000614Y016122D01*
X000614Y015963D02*
X001070Y015963D01*
X001271Y015805D02*
X000614Y015805D01*
X000614Y015646D02*
X003516Y015646D01*
X003350Y015488D02*
X000614Y015488D01*
X000614Y015329D02*
X001244Y015329D01*
X001116Y015171D02*
X000614Y015171D01*
X000614Y015012D02*
X001116Y015012D01*
X001116Y014854D02*
X000614Y014854D01*
X000614Y014695D02*
X001767Y014695D01*
X001767Y014537D02*
X001927Y014537D01*
X001927Y014378D02*
X001767Y014378D01*
X001767Y014220D02*
X001927Y014220D01*
X001196Y014220D02*
X000614Y014220D01*
X000614Y014378D02*
X001116Y014378D01*
X001116Y014537D02*
X000614Y014537D01*
X000614Y013744D02*
X008533Y013744D01*
X008692Y013586D02*
X000614Y013586D01*
X000614Y013427D02*
X008850Y013427D01*
X009009Y013269D02*
X000614Y013269D01*
X000614Y013110D02*
X009130Y013110D01*
X009130Y012952D02*
X000614Y012952D01*
X000614Y012793D02*
X009130Y012793D01*
X009130Y012635D02*
X000614Y012635D01*
X000614Y012476D02*
X009130Y012476D01*
X009130Y012318D02*
X000614Y012318D01*
X000614Y012159D02*
X009130Y012159D01*
X009130Y012001D02*
X000614Y012001D01*
X000614Y011842D02*
X009130Y011842D01*
X009130Y011684D02*
X000614Y011684D01*
X000614Y011525D02*
X009130Y011525D01*
X009130Y011367D02*
X000614Y011367D01*
X000614Y011208D02*
X009130Y011208D01*
X009130Y011050D02*
X000614Y011050D01*
X000614Y010891D02*
X009130Y010891D01*
X009130Y010733D02*
X000614Y010733D01*
X000614Y010574D02*
X009130Y010574D01*
X009130Y010416D02*
X000614Y010416D01*
X000614Y010257D02*
X009130Y010257D01*
X009130Y010099D02*
X000614Y010099D01*
X000614Y009940D02*
X009130Y009940D01*
X009130Y009782D02*
X000614Y009782D01*
X000614Y009623D02*
X009130Y009623D01*
X008881Y009465D02*
X000614Y009465D01*
X000614Y009306D02*
X008736Y009306D01*
X008710Y009148D02*
X000614Y009148D01*
X000614Y008989D02*
X008768Y008989D01*
X008830Y008831D02*
X000614Y008831D01*
X000614Y008672D02*
X008830Y008672D01*
X008830Y008514D02*
X000614Y008514D01*
X000614Y008355D02*
X008830Y008355D01*
X008830Y008197D02*
X000614Y008197D01*
X000614Y008038D02*
X008830Y008038D01*
X008830Y007880D02*
X000614Y007880D01*
X000614Y007721D02*
X008830Y007721D01*
X008830Y007563D02*
X000614Y007563D01*
X000614Y007404D02*
X008830Y007404D01*
X008830Y007246D02*
X000614Y007246D01*
X000614Y007087D02*
X008830Y007087D01*
X008830Y006929D02*
X000614Y006929D01*
X000614Y006770D02*
X008737Y006770D01*
X008579Y006612D02*
X000614Y006612D01*
X000614Y006453D02*
X008420Y006453D01*
X008262Y006295D02*
X000614Y006295D01*
X000614Y006136D02*
X008103Y006136D01*
X007945Y005978D02*
X000614Y005978D01*
X000614Y005819D02*
X007786Y005819D01*
X007628Y005661D02*
X000614Y005661D01*
X000614Y005502D02*
X007469Y005502D01*
X007311Y005344D02*
X000614Y005344D01*
X000614Y005185D02*
X007152Y005185D01*
X006994Y005027D02*
X000614Y005027D01*
X000614Y004868D02*
X006835Y004868D01*
X006677Y004710D02*
X000614Y004710D01*
X000614Y004551D02*
X006518Y004551D01*
X006360Y004393D02*
X000614Y004393D01*
X000614Y004234D02*
X001136Y004234D01*
X001136Y004239D02*
X001136Y003319D01*
X001230Y003225D01*
X002465Y003225D01*
X002559Y003319D01*
X002559Y004239D01*
X002465Y004333D01*
X001230Y004333D01*
X001136Y004239D01*
X001136Y004076D02*
X000614Y004076D01*
X000614Y003917D02*
X001136Y003917D01*
X001136Y003759D02*
X000614Y003759D01*
X000614Y003600D02*
X001136Y003600D01*
X001136Y003442D02*
X000614Y003442D01*
X000614Y003283D02*
X001172Y003283D01*
X000614Y003125D02*
X002946Y003125D01*
X002950Y003121D02*
X003145Y003040D01*
X003355Y003040D01*
X003550Y003121D01*
X003699Y003270D01*
X003780Y003465D01*
X003780Y003675D01*
X003699Y003870D01*
X003550Y004019D01*
X003355Y004100D01*
X003145Y004100D01*
X002950Y004019D01*
X002801Y003870D01*
X002720Y003675D01*
X002720Y003465D01*
X002801Y003270D01*
X002950Y003121D01*
X002795Y003283D02*
X002523Y003283D01*
X002559Y003442D02*
X002730Y003442D01*
X002720Y003600D02*
X002559Y003600D01*
X002559Y003759D02*
X002754Y003759D01*
X002847Y003917D02*
X002559Y003917D01*
X002559Y004076D02*
X003085Y004076D01*
X003415Y004076D02*
X005645Y004076D01*
X005407Y003917D02*
X003653Y003917D01*
X003746Y003759D02*
X005314Y003759D01*
X005280Y003600D02*
X003780Y003600D01*
X003770Y003442D02*
X005290Y003442D01*
X005355Y003283D02*
X003705Y003283D01*
X003554Y003125D02*
X005506Y003125D01*
X006114Y003125D02*
X009542Y003125D01*
X009700Y003283D02*
X006265Y003283D01*
X006330Y003442D02*
X009859Y003442D01*
X010017Y003600D02*
X006340Y003600D01*
X006306Y003759D02*
X010176Y003759D01*
X010334Y003917D02*
X006450Y003917D01*
X006608Y004076D02*
X010493Y004076D01*
X010567Y004150D02*
X008852Y002435D01*
X008719Y002490D01*
X008497Y002490D01*
X008291Y002405D01*
X008133Y002247D01*
X008048Y002041D01*
X008048Y001819D01*
X008133Y001613D01*
X008291Y001455D01*
X008497Y001370D01*
X008719Y001370D01*
X008925Y001455D01*
X009083Y001613D01*
X009168Y001819D01*
X009168Y002041D01*
X009126Y002143D01*
X011663Y004680D01*
X012208Y004680D01*
X012448Y004440D01*
X012812Y004440D01*
X013070Y004698D01*
X013070Y005062D01*
X012812Y005320D01*
X012448Y005320D01*
X012208Y005080D01*
X011497Y005080D01*
X010807Y004390D01*
X010807Y004644D01*
X010156Y004644D01*
X010156Y004804D01*
X010807Y004804D01*
X010807Y005141D01*
X010795Y005187D01*
X010771Y005228D01*
X010766Y005233D01*
X011638Y005233D01*
X011732Y005327D01*
X011732Y005932D01*
X011638Y006025D01*
X009931Y006025D01*
X009899Y005994D01*
X009884Y006009D01*
X009702Y006085D01*
X009505Y006085D01*
X009323Y006009D01*
X009184Y005870D01*
X009108Y005688D01*
X009108Y005491D01*
X009184Y005309D01*
X009323Y005170D01*
X009349Y005159D01*
X009344Y005141D01*
X009344Y004804D01*
X009996Y004804D01*
X009996Y004644D01*
X010156Y004644D01*
X010156Y004150D01*
X010567Y004150D01*
X010900Y003917D02*
X013930Y003917D01*
X013930Y003759D02*
X010741Y003759D01*
X010583Y003600D02*
X013930Y003600D01*
X013930Y003442D02*
X010424Y003442D01*
X010266Y003283D02*
X013930Y003283D01*
X013930Y003125D02*
X010107Y003125D01*
X009949Y002966D02*
X013930Y002966D01*
X013930Y002808D02*
X009790Y002808D01*
X009632Y002649D02*
X011016Y002649D01*
X010858Y002491D02*
X009473Y002491D01*
X009596Y002332D02*
X009315Y002332D01*
X009156Y002174D02*
X009481Y002174D01*
X009426Y002015D02*
X009168Y002015D01*
X009168Y001857D02*
X009426Y001857D01*
X009476Y001698D02*
X009118Y001698D01*
X009009Y001540D02*
X009584Y001540D01*
X009848Y001381D02*
X008746Y001381D01*
X008470Y001381D02*
X007732Y001381D01*
X007741Y001386D02*
X007774Y001419D01*
X007798Y001461D01*
X007810Y001506D01*
X007810Y001892D01*
X007268Y001892D01*
X007268Y001968D01*
X007810Y001968D01*
X007810Y002354D01*
X007798Y002399D01*
X007774Y002441D01*
X007741Y002474D01*
X007699Y002498D01*
X007654Y002510D01*
X007268Y002510D01*
X007268Y001968D01*
X007192Y001968D01*
X007192Y001892D01*
X007268Y001892D01*
X007268Y001350D01*
X007654Y001350D01*
X007699Y001362D01*
X007741Y001386D01*
X007810Y001540D02*
X008206Y001540D01*
X008098Y001698D02*
X007810Y001698D01*
X007810Y001857D02*
X008048Y001857D01*
X008048Y002015D02*
X007810Y002015D01*
X007810Y002174D02*
X008103Y002174D01*
X008218Y002332D02*
X007810Y002332D01*
X007712Y002491D02*
X008908Y002491D01*
X009066Y002649D02*
X000614Y002649D01*
X000614Y002491D02*
X001416Y002491D01*
X001130Y002332D02*
X000614Y002332D01*
X000614Y002174D02*
X000971Y002174D01*
X000899Y002015D02*
X000614Y002015D01*
X000614Y001857D02*
X000833Y001857D01*
X000830Y001698D02*
X000614Y001698D01*
X000615Y001540D02*
X000830Y001540D01*
X000884Y001381D02*
X000633Y001381D01*
X000684Y001223D02*
X000949Y001223D01*
X001094Y001064D02*
X000760Y001064D01*
X000875Y000906D02*
X001329Y000906D01*
X002411Y001223D02*
X013805Y001223D01*
X013646Y001381D02*
X012880Y001381D01*
X012604Y001381D02*
X011502Y001381D01*
X011226Y001381D02*
X010124Y001381D01*
X010387Y001540D02*
X010962Y001540D01*
X010854Y001698D02*
X010496Y001698D01*
X010789Y001857D02*
X010804Y001857D01*
X010541Y002174D02*
X010491Y002174D01*
X010376Y002332D02*
X010699Y002332D01*
X011869Y002174D02*
X012204Y002174D01*
X012182Y002015D02*
X011924Y002015D01*
X011924Y001857D02*
X012182Y001857D01*
X012232Y001698D02*
X011874Y001698D01*
X011765Y001540D02*
X012340Y001540D01*
X013143Y001540D02*
X013488Y001540D01*
X013329Y001698D02*
X013252Y001698D01*
X013247Y002174D02*
X013614Y002174D01*
X013730Y002332D02*
X013132Y002332D01*
X012452Y002491D02*
X013930Y002491D01*
X013930Y002649D02*
X012294Y002649D01*
X014330Y002649D02*
X016630Y002649D01*
X016630Y002491D02*
X015650Y002491D01*
X015634Y002496D02*
X015543Y002510D01*
X015536Y002510D01*
X015536Y001968D01*
X016078Y001968D01*
X016078Y001976D01*
X016063Y002066D01*
X016035Y002153D01*
X015994Y002234D01*
X015940Y002308D01*
X015876Y002372D01*
X015802Y002426D01*
X015720Y002468D01*
X015634Y002496D01*
X015536Y002491D02*
X015460Y002491D01*
X015460Y002510D02*
X015452Y002510D01*
X015362Y002496D01*
X015275Y002468D01*
X015194Y002426D01*
X015120Y002372D01*
X015055Y002308D01*
X015002Y002234D01*
X014960Y002153D01*
X014932Y002066D01*
X014918Y001976D01*
X014918Y001968D01*
X015460Y001968D01*
X015460Y002510D01*
X015346Y002491D02*
X014330Y002491D01*
X014330Y002449D02*
X014330Y004297D01*
X014473Y004440D01*
X014812Y004440D01*
X015070Y004698D01*
X015070Y005062D01*
X014902Y005230D01*
X015358Y005230D01*
X015190Y005062D01*
X015190Y004698D01*
X015448Y004440D01*
X015787Y004440D01*
X016630Y003597D01*
X016630Y002434D01*
X016558Y002405D01*
X016401Y002247D01*
X016316Y002041D01*
X016316Y001819D01*
X016401Y001613D01*
X016434Y001580D01*
X015960Y001580D01*
X015994Y001626D01*
X016035Y001707D01*
X016063Y001794D01*
X016078Y001884D01*
X016078Y001892D01*
X015536Y001892D01*
X015536Y001968D01*
X015460Y001968D01*
X015460Y001892D01*
X014918Y001892D01*
X014918Y001884D01*
X014932Y001794D01*
X014960Y001707D01*
X015002Y001626D01*
X015035Y001580D01*
X014562Y001580D01*
X014595Y001613D01*
X014680Y001819D01*
X014680Y002041D01*
X014595Y002247D01*
X014437Y002405D01*
X014330Y002449D01*
X014510Y002332D02*
X015079Y002332D01*
X014971Y002174D02*
X014625Y002174D01*
X014680Y002015D02*
X014924Y002015D01*
X014922Y001857D02*
X014680Y001857D01*
X014630Y001698D02*
X014965Y001698D01*
X015460Y002015D02*
X015536Y002015D01*
X015536Y002174D02*
X015460Y002174D01*
X015460Y002332D02*
X015536Y002332D01*
X015916Y002332D02*
X016486Y002332D01*
X016370Y002174D02*
X016025Y002174D01*
X016071Y002015D02*
X016316Y002015D01*
X016316Y001857D02*
X016073Y001857D01*
X016030Y001698D02*
X016366Y001698D01*
X018731Y001381D02*
X019494Y001381D01*
X019770Y001381D02*
X020872Y001381D01*
X021147Y001381D02*
X022250Y001381D01*
X022525Y001381D02*
X023296Y001381D01*
X023138Y001540D02*
X022789Y001540D01*
X022898Y001698D02*
X022979Y001698D01*
X021986Y001540D02*
X021411Y001540D01*
X021520Y001698D02*
X021877Y001698D01*
X021827Y001857D02*
X021570Y001857D01*
X021570Y002015D02*
X021827Y002015D01*
X021882Y002174D02*
X021556Y002174D01*
X021715Y002332D02*
X021998Y002332D01*
X021873Y002491D02*
X022838Y002491D01*
X021788Y002405D02*
X021788Y002405D01*
X020620Y002332D02*
X020022Y002332D01*
X020137Y002174D02*
X020504Y002174D01*
X020450Y002015D02*
X020192Y002015D01*
X020192Y001857D02*
X020450Y001857D01*
X020499Y001698D02*
X020142Y001698D01*
X020033Y001540D02*
X020608Y001540D01*
X019230Y001540D02*
X018814Y001540D01*
X018814Y001698D02*
X019122Y001698D01*
X019072Y001857D02*
X018814Y001857D01*
X018814Y002015D02*
X019072Y002015D01*
X019126Y002174D02*
X018814Y002174D01*
X018965Y002332D02*
X019242Y002332D01*
X016630Y002808D02*
X014330Y002808D01*
X014330Y002966D02*
X016630Y002966D01*
X016630Y003125D02*
X014330Y003125D01*
X014330Y003283D02*
X016630Y003283D01*
X016630Y003442D02*
X014330Y003442D01*
X014330Y003600D02*
X016627Y003600D01*
X016469Y003759D02*
X014330Y003759D01*
X014330Y003917D02*
X016310Y003917D01*
X016152Y004076D02*
X014330Y004076D01*
X014330Y004234D02*
X015993Y004234D01*
X015835Y004393D02*
X014425Y004393D01*
X014177Y004710D02*
X014070Y004710D01*
X014070Y004868D02*
X014190Y004868D01*
X014190Y005027D02*
X014070Y005027D01*
X013947Y005185D02*
X014313Y005185D01*
X014947Y005185D02*
X015313Y005185D01*
X015190Y005027D02*
X015070Y005027D01*
X015070Y004868D02*
X015190Y004868D01*
X015190Y004710D02*
X015070Y004710D01*
X014923Y004551D02*
X015337Y004551D01*
X014018Y004551D02*
X013923Y004551D01*
X013930Y004393D02*
X011375Y004393D01*
X011534Y004551D02*
X012337Y004551D01*
X012923Y004551D02*
X013337Y004551D01*
X013190Y004710D02*
X013070Y004710D01*
X013070Y004868D02*
X013190Y004868D01*
X013190Y005027D02*
X013070Y005027D01*
X012947Y005185D02*
X013313Y005185D01*
X013034Y005344D02*
X011732Y005344D01*
X011732Y005502D02*
X012875Y005502D01*
X012717Y005661D02*
X011732Y005661D01*
X011732Y005819D02*
X012558Y005819D01*
X012480Y005978D02*
X011686Y005978D01*
X011819Y006136D02*
X012480Y006136D01*
X013830Y006136D02*
X015430Y006136D01*
X015422Y006295D02*
X013838Y006295D01*
X013842Y006453D02*
X015418Y006453D01*
X015418Y006612D02*
X013842Y006612D01*
X013824Y006770D02*
X015436Y006770D01*
X015508Y006907D02*
X015467Y006930D01*
X015434Y006964D01*
X015410Y007005D01*
X015398Y007051D01*
X015398Y007234D01*
X015658Y007234D01*
X015658Y006894D01*
X015554Y006894D01*
X015508Y006907D01*
X015470Y006929D02*
X013790Y006929D01*
X013793Y006930D02*
X013752Y006907D01*
X013706Y006894D01*
X013602Y006894D01*
X013602Y007234D01*
X013602Y007234D01*
X013602Y007234D01*
X013287Y007234D01*
X013287Y007234D01*
X013287Y007234D01*
X013287Y007574D01*
X013391Y007574D01*
X013437Y007562D01*
X013445Y007557D01*
X013453Y007562D01*
X013499Y007574D01*
X013602Y007574D01*
X013602Y007234D01*
X013602Y007234D01*
X013602Y007234D01*
X013862Y007234D01*
X013862Y007051D01*
X013850Y007005D01*
X013826Y006964D01*
X013793Y006930D01*
X013862Y007087D02*
X015398Y007087D01*
X015398Y007234D02*
X015658Y007234D01*
X015658Y007234D01*
X015658Y007234D01*
X015658Y007574D01*
X015554Y007574D01*
X015508Y007562D01*
X015467Y007538D01*
X015434Y007505D01*
X015410Y007464D01*
X015398Y007418D01*
X015398Y007234D01*
X015398Y007246D02*
X013862Y007246D01*
X013862Y007234D02*
X013862Y007418D01*
X013850Y007464D01*
X013826Y007505D01*
X013793Y007538D01*
X013752Y007562D01*
X013706Y007574D01*
X013602Y007574D01*
X013602Y007234D01*
X013862Y007234D01*
X013862Y007404D02*
X015398Y007404D01*
X015510Y007563D02*
X013750Y007563D01*
X013602Y007563D02*
X013602Y007563D01*
X013455Y007563D02*
X013435Y007563D01*
X013287Y007563D02*
X013287Y007563D01*
X013140Y007563D02*
X013120Y007563D01*
X012973Y007563D02*
X012973Y007563D01*
X012825Y007563D02*
X012805Y007563D01*
X012658Y007563D02*
X012658Y007563D01*
X012510Y007563D02*
X012180Y007563D01*
X012339Y007404D02*
X012398Y007404D01*
X012658Y007404D02*
X012658Y007404D01*
X012658Y007246D02*
X012658Y007246D01*
X012973Y007246D02*
X012973Y007246D01*
X012973Y007404D02*
X012973Y007404D01*
X013287Y007404D02*
X013287Y007404D01*
X013287Y007246D02*
X013287Y007246D01*
X013287Y007087D02*
X013287Y007087D01*
X013287Y006929D02*
X013287Y006929D01*
X013602Y006929D02*
X013602Y006929D01*
X013602Y007087D02*
X013602Y007087D01*
X013602Y007246D02*
X013602Y007246D01*
X013602Y007404D02*
X013602Y007404D01*
X015658Y007404D02*
X015658Y007404D01*
X015658Y007246D02*
X015658Y007246D01*
X015658Y007087D02*
X015658Y007087D01*
X015658Y006929D02*
X015658Y006929D01*
X015658Y007563D02*
X015658Y007563D01*
X015805Y007563D02*
X015825Y007563D01*
X018433Y008850D02*
X018613Y009030D01*
X018733Y009030D01*
X018762Y009016D01*
X018797Y008980D01*
X018833Y008980D01*
X018865Y008964D01*
X018890Y008972D01*
X018780Y008863D01*
X018780Y008863D01*
X018747Y008830D01*
X018542Y008830D01*
X018494Y008850D01*
X018433Y008850D01*
X018541Y008831D02*
X018748Y008831D01*
X018788Y008989D02*
X018572Y008989D01*
X021446Y009180D02*
X021513Y009180D01*
X021540Y009180D01*
X021540Y009207D01*
X021713Y009380D01*
X021747Y009380D01*
X021830Y009297D01*
X021830Y009180D01*
X021446Y009180D01*
X021446Y009180D01*
X021513Y009180D02*
X021513Y009180D01*
X021639Y009306D02*
X021821Y009306D01*
X021713Y008780D02*
X021456Y008780D01*
X022247Y008780D01*
X022430Y008597D01*
X022447Y008580D01*
X021913Y008580D01*
X021713Y008780D01*
X021821Y008672D02*
X022355Y008672D01*
X021456Y008780D02*
X021456Y008780D01*
X022630Y007721D02*
X022630Y007721D01*
X022630Y007563D02*
X022630Y007563D01*
X027230Y006647D02*
X027230Y006537D01*
X027278Y006537D01*
X027316Y006499D01*
X027338Y006521D01*
X027379Y006545D01*
X027424Y006557D01*
X027646Y006557D01*
X027646Y006198D01*
X027683Y006198D01*
X028061Y006198D01*
X028061Y006310D01*
X028144Y006310D01*
X028196Y006332D01*
X028535Y005992D01*
X028270Y005992D01*
X028176Y005898D01*
X028176Y005880D01*
X028029Y005880D01*
X028049Y005914D01*
X028061Y005959D01*
X028061Y006162D01*
X027683Y006162D01*
X027683Y006198D01*
X027683Y006557D01*
X027764Y006557D01*
X027760Y006566D01*
X027760Y006694D01*
X027767Y006710D01*
X027709Y006710D01*
X027630Y006789D01*
X027551Y006710D01*
X027293Y006710D01*
X027230Y006647D01*
X027230Y006612D02*
X027760Y006612D01*
X027683Y006453D02*
X027646Y006453D01*
X027646Y006295D02*
X027683Y006295D01*
X028061Y006295D02*
X028233Y006295D01*
X028391Y006136D02*
X028061Y006136D01*
X028061Y005978D02*
X028256Y005978D01*
X027649Y006770D02*
X027611Y006770D01*
X031293Y005955D02*
X031293Y005955D01*
X031293Y005955D01*
X031293Y005853D01*
X031366Y005853D01*
X031411Y005865D01*
X031425Y005873D01*
X031802Y005873D01*
X031896Y005967D01*
X031896Y006394D01*
X032080Y006394D01*
X032230Y006394D01*
X032230Y004913D01*
X031290Y005853D01*
X031293Y005853D01*
X031293Y005955D01*
X031324Y005819D02*
X032230Y005819D01*
X032230Y005661D02*
X031482Y005661D01*
X031641Y005502D02*
X032230Y005502D01*
X032230Y005344D02*
X031799Y005344D01*
X031958Y005185D02*
X032230Y005185D01*
X032230Y005027D02*
X032116Y005027D01*
X032630Y004931D02*
X032635Y004923D01*
X032668Y004889D01*
X032709Y004865D01*
X032755Y004853D01*
X032977Y004853D01*
X032977Y005212D01*
X033014Y005212D01*
X033014Y004853D01*
X033236Y004853D01*
X033281Y004865D01*
X033322Y004889D01*
X033344Y004911D01*
X033382Y004873D01*
X033947Y004873D01*
X034041Y004967D01*
X034041Y005493D01*
X033947Y005587D01*
X033865Y005587D01*
X033865Y005653D01*
X033928Y005653D01*
X034021Y005747D01*
X034021Y005830D01*
X034410Y005830D01*
X034410Y005825D01*
X034449Y005731D01*
X034130Y005413D01*
X034130Y004035D01*
X034049Y004001D01*
X033977Y003930D01*
X033613Y003930D01*
X032630Y004913D01*
X032630Y004931D01*
X032675Y004868D02*
X032705Y004868D01*
X032833Y004710D02*
X034130Y004710D01*
X034130Y004868D02*
X033286Y004868D01*
X033014Y004868D02*
X032977Y004868D01*
X032977Y005027D02*
X033014Y005027D01*
X033014Y005185D02*
X032977Y005185D01*
X032977Y005248D02*
X032977Y005607D01*
X032755Y005607D01*
X032709Y005595D01*
X032668Y005571D01*
X032635Y005537D01*
X032630Y005529D01*
X032630Y006097D01*
X032639Y006089D01*
X032639Y005747D01*
X032732Y005653D01*
X033258Y005653D01*
X033330Y005725D01*
X033402Y005653D01*
X033465Y005653D01*
X033465Y005587D01*
X033382Y005587D01*
X033344Y005549D01*
X033322Y005571D01*
X033281Y005595D01*
X033236Y005607D01*
X033014Y005607D01*
X033014Y005248D01*
X032977Y005248D01*
X032977Y005344D02*
X033014Y005344D01*
X033014Y005502D02*
X032977Y005502D01*
X032725Y005661D02*
X032630Y005661D01*
X032630Y005819D02*
X032639Y005819D01*
X032630Y005978D02*
X032639Y005978D01*
X032230Y005978D02*
X031896Y005978D01*
X031896Y006136D02*
X032230Y006136D01*
X032230Y006295D02*
X031896Y006295D01*
X032080Y006394D02*
X032080Y006611D01*
X032080Y006394D01*
X032080Y006453D02*
X032080Y006453D01*
X032080Y006611D02*
X032080Y006611D01*
X032840Y006453D02*
X032977Y006453D01*
X032977Y006812D01*
X033014Y006812D01*
X033014Y006453D01*
X033236Y006453D01*
X033281Y006465D01*
X033322Y006489D01*
X033344Y006511D01*
X033382Y006473D01*
X033947Y006473D01*
X034041Y006567D01*
X034041Y006630D01*
X035597Y006630D01*
X035647Y006580D01*
X034597Y006580D01*
X034480Y006463D01*
X034247Y006230D01*
X034021Y006230D01*
X034021Y006313D01*
X033928Y006407D01*
X033402Y006407D01*
X033330Y006335D01*
X033258Y006407D01*
X032886Y006407D01*
X032840Y006453D01*
X034470Y006453D01*
X034312Y006295D02*
X034021Y006295D01*
X034041Y006612D02*
X035616Y006612D01*
X035956Y007087D02*
X036355Y007087D01*
X036159Y007246D02*
X035797Y007246D01*
X035639Y007404D02*
X036037Y007404D01*
X035972Y007563D02*
X035480Y007563D01*
X035322Y007721D02*
X035940Y007721D01*
X035940Y007880D02*
X035163Y007880D01*
X035005Y008038D02*
X035972Y008038D01*
X036038Y008197D02*
X034846Y008197D01*
X033639Y008672D02*
X033523Y008672D01*
X033523Y008831D02*
X033639Y008831D01*
X033329Y008514D02*
X036356Y008514D01*
X036159Y008355D02*
X033488Y008355D01*
X033330Y007325D02*
X033402Y007253D01*
X033480Y007253D01*
X033480Y007187D01*
X033382Y007187D01*
X033344Y007149D01*
X033322Y007171D01*
X033281Y007195D01*
X033236Y007207D01*
X033014Y007207D01*
X033014Y006848D01*
X032977Y006848D01*
X032977Y007207D01*
X032840Y007207D01*
X032886Y007253D01*
X033258Y007253D01*
X033330Y007325D01*
X033480Y007246D02*
X032878Y007246D01*
X032977Y007087D02*
X033014Y007087D01*
X033014Y006929D02*
X032977Y006929D01*
X032977Y006770D02*
X033014Y006770D01*
X033014Y006612D02*
X032977Y006612D01*
X033266Y005661D02*
X033394Y005661D01*
X033935Y005661D02*
X034378Y005661D01*
X034412Y005819D02*
X034021Y005819D01*
X034032Y005502D02*
X034219Y005502D01*
X034130Y005344D02*
X034041Y005344D01*
X034041Y005185D02*
X034130Y005185D01*
X034130Y005027D02*
X034041Y005027D01*
X034130Y004551D02*
X032992Y004551D01*
X033150Y004393D02*
X034130Y004393D01*
X034130Y004234D02*
X033309Y004234D01*
X033467Y004076D02*
X034130Y004076D01*
X026131Y002332D02*
X025811Y002332D01*
X025969Y002174D02*
X026016Y002174D01*
X018830Y004710D02*
X018090Y004710D01*
X018090Y004868D02*
X018830Y004868D01*
X018830Y005027D02*
X018090Y005027D01*
X017976Y005185D02*
X018522Y005185D01*
X017170Y004710D02*
X017090Y004710D01*
X016952Y004551D02*
X017308Y004551D01*
X015354Y005661D02*
X013948Y005661D01*
X013939Y005819D02*
X015310Y005819D01*
X015345Y005978D02*
X013835Y005978D01*
X012313Y005185D02*
X010795Y005185D01*
X010807Y005027D02*
X011444Y005027D01*
X011285Y004868D02*
X010807Y004868D01*
X011127Y004710D02*
X010156Y004710D01*
X010156Y004551D02*
X009996Y004551D01*
X009996Y004644D02*
X009996Y004150D01*
X009501Y004150D01*
X009455Y004162D01*
X009414Y004186D01*
X009380Y004219D01*
X009357Y004261D01*
X009344Y004306D01*
X009344Y004644D01*
X009996Y004644D01*
X009996Y004710D02*
X007242Y004710D01*
X007401Y004868D02*
X009344Y004868D01*
X009344Y005027D02*
X007559Y005027D01*
X007718Y005185D02*
X009308Y005185D01*
X009170Y005344D02*
X007876Y005344D01*
X008035Y005502D02*
X009108Y005502D01*
X009108Y005661D02*
X008193Y005661D01*
X008352Y005819D02*
X009162Y005819D01*
X009291Y005978D02*
X008510Y005978D01*
X008669Y006136D02*
X009741Y006136D01*
X009583Y006295D02*
X008827Y006295D01*
X008986Y006453D02*
X009424Y006453D01*
X009266Y006612D02*
X009144Y006612D01*
X010449Y007994D02*
X011530Y007994D01*
X011530Y008166D01*
X010822Y008166D01*
X010822Y008544D01*
X010746Y008544D01*
X010746Y008166D01*
X010277Y008166D01*
X010449Y007994D01*
X010405Y008038D02*
X011530Y008038D01*
X010822Y008197D02*
X010746Y008197D01*
X010746Y008355D02*
X010822Y008355D01*
X010822Y008514D02*
X010746Y008514D01*
X010746Y008620D02*
X010746Y008998D01*
X010030Y008998D01*
X010030Y009170D01*
X011107Y009170D01*
X011279Y008998D01*
X010822Y008998D01*
X010822Y008620D01*
X010746Y008620D01*
X010746Y008672D02*
X010822Y008672D01*
X010822Y008831D02*
X010746Y008831D01*
X010746Y008989D02*
X010822Y008989D01*
X011130Y009148D02*
X010030Y009148D01*
X013635Y011050D02*
X013653Y011050D01*
X014107Y011050D02*
X014153Y011050D01*
X014607Y011050D02*
X014625Y011050D01*
X014880Y011050D02*
X014880Y011050D01*
X014880Y010891D02*
X014880Y010891D01*
X014880Y010733D02*
X014880Y010733D01*
X014880Y010574D02*
X014880Y010574D01*
X014880Y010416D02*
X014880Y010416D01*
X014880Y010257D02*
X014880Y010257D01*
X014880Y010099D02*
X014880Y010099D01*
X015135Y011050D02*
X015153Y011050D01*
X015607Y011050D02*
X015653Y011050D01*
X015869Y011367D02*
X015961Y011367D01*
X015391Y011367D02*
X012799Y011367D01*
X012209Y011842D02*
X011739Y011842D01*
X011739Y011840D02*
X011716Y011881D01*
X011690Y011907D01*
X012164Y012382D01*
X012181Y012372D01*
X012226Y012360D01*
X012380Y012360D01*
X012534Y012360D01*
X012579Y012372D01*
X012621Y012396D01*
X012644Y012420D01*
X012684Y012380D01*
X012947Y012380D01*
X013147Y012180D01*
X013547Y012180D01*
X012547Y012180D01*
X011752Y011385D01*
X011752Y011497D01*
X010822Y011497D01*
X010822Y011573D01*
X011752Y011573D01*
X011752Y011795D01*
X011739Y011840D01*
X011752Y011684D02*
X012051Y011684D01*
X011892Y011525D02*
X010822Y011525D01*
X011783Y012001D02*
X012368Y012001D01*
X012526Y012159D02*
X011942Y012159D01*
X012100Y012318D02*
X013010Y012318D01*
X012380Y012360D02*
X012380Y012940D01*
X012380Y012940D01*
X012380Y012360D01*
X012380Y012476D02*
X012380Y012476D01*
X012380Y012635D02*
X012380Y012635D01*
X012380Y012793D02*
X012380Y012793D01*
X013547Y012180D02*
X013547Y012180D01*
X016217Y012476D02*
X016577Y012476D01*
X016499Y012318D02*
X016230Y012318D01*
X016302Y012159D02*
X016499Y012159D01*
X016499Y012001D02*
X016350Y012001D01*
X016319Y011842D02*
X016524Y011842D01*
X007582Y014695D02*
X006600Y014695D01*
X006795Y014854D02*
X007424Y014854D01*
X007265Y015012D02*
X006880Y015012D01*
X005925Y014854D02*
X004213Y014854D01*
X004300Y015012D02*
X005840Y015012D01*
X005680Y016597D02*
X004177Y016597D01*
X004285Y016756D02*
X005630Y016756D01*
X005630Y016914D02*
X004330Y016914D01*
X004330Y017073D02*
X005630Y017073D01*
X005630Y017231D02*
X004266Y017231D01*
X004130Y017390D02*
X005757Y017390D01*
X005915Y017548D02*
X001244Y017548D01*
X001849Y015705D02*
X001849Y015705D01*
X007084Y004551D02*
X009344Y004551D01*
X009344Y004393D02*
X006925Y004393D01*
X006767Y004234D02*
X009372Y004234D01*
X009996Y004234D02*
X010156Y004234D01*
X010156Y004393D02*
X009996Y004393D01*
X010807Y004393D02*
X010810Y004393D01*
X010807Y004551D02*
X010968Y004551D01*
X011217Y004234D02*
X013930Y004234D01*
X013930Y004076D02*
X011058Y004076D01*
X009383Y002966D02*
X000614Y002966D01*
X000614Y002808D02*
X009225Y002808D01*
X007268Y002491D02*
X007192Y002491D01*
X007192Y002510D02*
X006806Y002510D01*
X006761Y002498D01*
X006719Y002474D01*
X006686Y002441D01*
X006662Y002399D01*
X006650Y002354D01*
X006650Y001968D01*
X007192Y001968D01*
X007192Y002510D01*
X007192Y002332D02*
X007268Y002332D01*
X007268Y002174D02*
X007192Y002174D01*
X007192Y002015D02*
X007268Y002015D01*
X007192Y001892D02*
X006650Y001892D01*
X006650Y001506D01*
X006662Y001461D01*
X006686Y001419D01*
X006719Y001386D01*
X006761Y001362D01*
X006806Y001350D01*
X007192Y001350D01*
X007192Y001892D01*
X007192Y001857D02*
X007268Y001857D01*
X007268Y001698D02*
X007192Y001698D01*
X007192Y001540D02*
X007268Y001540D01*
X007268Y001381D02*
X007192Y001381D01*
X006728Y001381D02*
X006179Y001381D01*
X006168Y001370D02*
X006230Y001432D01*
X006280Y001502D01*
X006320Y001579D01*
X006346Y001661D01*
X006360Y001747D01*
X006360Y001770D01*
X005830Y001770D01*
X005830Y001810D01*
X006360Y001810D01*
X006360Y001833D01*
X006346Y001919D01*
X006320Y002001D01*
X006280Y002078D01*
X006230Y002148D01*
X006168Y002210D01*
X006098Y002260D01*
X006021Y002300D01*
X005939Y002326D01*
X005853Y002340D01*
X005830Y002340D01*
X005830Y001810D01*
X005790Y001810D01*
X005790Y002340D01*
X005767Y002340D01*
X005681Y002326D01*
X005599Y002300D01*
X005522Y002260D01*
X005452Y002210D01*
X005390Y002148D01*
X005340Y002078D01*
X005300Y002001D01*
X005274Y001919D01*
X005260Y001833D01*
X005260Y001810D01*
X005790Y001810D01*
X005790Y001770D01*
X005830Y001770D01*
X005830Y001240D01*
X005853Y001240D01*
X005939Y001254D01*
X006021Y001280D01*
X006098Y001320D01*
X006168Y001370D01*
X006300Y001540D02*
X006650Y001540D01*
X006650Y001698D02*
X006352Y001698D01*
X006356Y001857D02*
X006650Y001857D01*
X006650Y002015D02*
X006313Y002015D01*
X006204Y002174D02*
X006650Y002174D01*
X006650Y002332D02*
X005904Y002332D01*
X005830Y002332D02*
X005790Y002332D01*
X005716Y002332D02*
X002230Y002332D01*
X002389Y002174D02*
X002884Y002174D01*
X002950Y002239D02*
X002801Y002090D01*
X002720Y001895D01*
X002720Y001685D01*
X002801Y001490D01*
X002950Y001341D01*
X003145Y001260D01*
X003355Y001260D01*
X003550Y001341D01*
X003699Y001490D01*
X003780Y001685D01*
X003780Y001895D01*
X003699Y002090D01*
X003550Y002239D01*
X003355Y002320D01*
X003145Y002320D01*
X002950Y002239D01*
X002770Y002015D02*
X002461Y002015D01*
X002527Y001857D02*
X002720Y001857D01*
X002720Y001698D02*
X002530Y001698D01*
X002530Y001540D02*
X002780Y001540D01*
X002909Y001381D02*
X002476Y001381D01*
X003591Y001381D02*
X005441Y001381D01*
X005452Y001370D02*
X005522Y001320D01*
X005599Y001280D01*
X005681Y001254D01*
X005767Y001240D01*
X005790Y001240D01*
X005790Y001770D01*
X005260Y001770D01*
X005260Y001747D01*
X005274Y001661D01*
X005300Y001579D01*
X005340Y001502D01*
X005390Y001432D01*
X005452Y001370D01*
X005320Y001540D02*
X003720Y001540D01*
X003780Y001698D02*
X005268Y001698D01*
X005264Y001857D02*
X003780Y001857D01*
X003730Y002015D02*
X005307Y002015D01*
X005416Y002174D02*
X003616Y002174D01*
X001944Y002491D02*
X006748Y002491D01*
X005830Y002174D02*
X005790Y002174D01*
X005790Y002015D02*
X005830Y002015D01*
X005830Y001857D02*
X005790Y001857D01*
X005790Y001698D02*
X005830Y001698D01*
X005830Y001540D02*
X005790Y001540D01*
X005790Y001381D02*
X005830Y001381D01*
X005975Y004076D02*
X006043Y004076D01*
X006201Y004234D02*
X002559Y004234D01*
X033975Y012001D02*
X034995Y012001D01*
X034950Y012159D02*
X034411Y012159D01*
X034037Y011842D02*
X035068Y011842D01*
X035791Y010416D02*
X036116Y010416D01*
X036143Y010257D02*
X035760Y010257D01*
X035712Y010099D02*
X036195Y010099D01*
X036281Y009940D02*
X035621Y009940D01*
X035486Y009782D02*
X036410Y009782D01*
X037797Y009465D02*
X039250Y009465D01*
X039250Y009623D02*
X037956Y009623D01*
X038114Y009782D02*
X039250Y009782D01*
X039250Y009940D02*
X038273Y009940D01*
X038431Y010099D02*
X039250Y010099D01*
X039250Y010257D02*
X038590Y010257D01*
X038748Y010416D02*
X039250Y010416D01*
X039250Y010574D02*
X038907Y010574D01*
X039065Y010733D02*
X039250Y010733D01*
X039250Y010891D02*
X039224Y010891D01*
X038183Y010416D02*
X038169Y010416D01*
D50*
X031530Y010030D03*
X028880Y009680D03*
X026130Y009280D03*
X028880Y008480D03*
X029730Y007930D03*
X031280Y008280D03*
X034380Y006530D03*
X031930Y005680D03*
X033930Y004580D03*
X037980Y006680D03*
X028580Y003830D03*
X027180Y004480D03*
X028330Y006080D03*
X022280Y006880D03*
X021730Y009280D03*
X025980Y011280D03*
X028880Y011030D03*
X028180Y012630D03*
X025780Y012830D03*
X025830Y014530D03*
X027380Y015380D03*
X023430Y015130D03*
X016480Y012830D03*
X012130Y011880D03*
X010780Y009080D03*
X016980Y005730D03*
X038680Y015180D03*
M02*
