G75*
%MOIN*%
%OFA0B0*%
%FSLAX24Y24*%
%IPPOS*%
%LPD*%
%AMOC8*
5,1,8,0,0,1.08239X$1,22.5*
%
%ADD10C,0.0560*%
%ADD11R,0.1095X0.1095*%
%ADD12OC8,0.0560*%
%ADD13C,0.0640*%
%ADD14C,0.0740*%
%ADD15C,0.1700*%
%ADD16C,0.0660*%
%ADD17C,0.1300*%
%ADD18R,0.0800X0.0800*%
%ADD19C,0.0800*%
%ADD20C,0.0080*%
%ADD21C,0.0320*%
%ADD22C,0.0160*%
%ADD23OC8,0.0320*%
%ADD24C,0.0400*%
D10*
X021980Y012030D03*
X023880Y012030D03*
D11*
X030830Y015430D03*
X036030Y015430D03*
D12*
X017630Y008880D03*
X016630Y008880D03*
X015630Y008880D03*
X014630Y008880D03*
X013630Y008880D03*
X012630Y008880D03*
X012630Y004880D03*
X013630Y004880D03*
X014630Y004880D03*
X015630Y004880D03*
X016630Y004880D03*
X017630Y004880D03*
D13*
X009680Y016030D03*
X008680Y016030D03*
X007680Y016030D03*
X007680Y017030D03*
X008680Y017030D03*
X009680Y017030D03*
D14*
X011630Y016980D03*
X011630Y015980D03*
X006360Y015190D03*
X003800Y015190D03*
X003800Y016970D03*
X006360Y016970D03*
X005810Y003570D03*
X003250Y003570D03*
X003250Y001790D03*
X005810Y001790D03*
D15*
X034781Y010505D03*
X037143Y010505D03*
X035962Y012355D03*
D16*
X035680Y005922D03*
X034900Y005922D03*
X034900Y004938D03*
X035680Y004938D03*
D17*
X036750Y003060D03*
X036750Y007800D03*
D18*
X029277Y001930D03*
X018254Y001930D03*
X007230Y001930D03*
X014030Y016380D03*
D19*
X015408Y016380D03*
X016786Y016380D03*
X018164Y016380D03*
X019542Y016380D03*
X020920Y016380D03*
X022298Y016380D03*
X023676Y016380D03*
X023765Y001930D03*
X025143Y001930D03*
X026521Y001930D03*
X027899Y001930D03*
X030655Y001930D03*
X032033Y001930D03*
X033411Y001930D03*
X022387Y001930D03*
X021010Y001930D03*
X019632Y001930D03*
X016876Y001930D03*
X015498Y001930D03*
X014120Y001930D03*
X012742Y001930D03*
X011364Y001930D03*
X009986Y001930D03*
X008608Y001930D03*
D20*
X011364Y001930D02*
X011380Y001930D01*
X011380Y002680D01*
X013630Y004930D01*
X013630Y004880D01*
X013630Y004930D02*
X013630Y005730D01*
X014330Y006430D01*
X017280Y006430D01*
X018580Y007730D01*
X018430Y008130D02*
X015530Y008130D01*
X013230Y005830D01*
X013230Y005530D01*
X012630Y004930D01*
X012630Y004880D01*
X014630Y004880D02*
X014680Y004880D01*
X015630Y005830D01*
X016030Y006230D01*
X017680Y006230D01*
X018580Y007130D01*
X019430Y006930D02*
X021830Y004530D01*
X021930Y004830D02*
X022380Y004380D01*
X022380Y001930D01*
X022387Y001930D01*
X023080Y002280D02*
X023080Y004480D01*
X020980Y006580D01*
X020980Y007630D01*
X021530Y007780D02*
X021530Y006280D01*
X023430Y004380D01*
X023430Y002230D01*
X023730Y001930D01*
X023765Y001930D01*
X025143Y001930D02*
X025280Y001930D01*
X029480Y006130D01*
X029480Y007480D01*
X028480Y008480D01*
X028480Y010730D01*
X027230Y011980D01*
X023630Y015580D01*
X023180Y015580D01*
X022380Y016380D01*
X022298Y016380D01*
X020930Y016380D02*
X020930Y015880D01*
X025180Y011630D01*
X025180Y007780D01*
X025580Y007780D02*
X024330Y006530D01*
X024730Y006530D02*
X026580Y008380D01*
X025859Y007942D02*
X025830Y007930D01*
X024480Y007580D02*
X023680Y008380D01*
X023730Y008380D01*
X024780Y009430D01*
X024780Y010130D01*
X020280Y014630D01*
X019130Y014630D01*
X017630Y016130D01*
X017630Y016630D01*
X017080Y017180D01*
X013830Y017180D01*
X013480Y016830D01*
X013480Y016780D01*
X011930Y015230D01*
X011330Y015230D01*
X010530Y016030D01*
X009680Y016030D01*
X009230Y016480D02*
X008680Y017030D01*
X007680Y016030D02*
X008430Y015280D01*
X012730Y014680D02*
X017230Y014680D01*
X018580Y013330D01*
X018780Y012730D02*
X017080Y014430D01*
X014280Y014430D01*
X009030Y009180D01*
X015630Y011580D02*
X016030Y011980D01*
X015730Y012280D02*
X014930Y012280D01*
X014780Y013930D02*
X018280Y010430D01*
X017630Y010380D02*
X017480Y010230D01*
X017480Y009730D01*
X017630Y008880D02*
X017880Y008880D01*
X018230Y008530D01*
X018430Y008530D01*
X018630Y008530D01*
X020530Y006630D01*
X020530Y006080D01*
X021780Y004830D01*
X021930Y004830D01*
X023580Y004930D02*
X023580Y005980D01*
X021480Y005680D02*
X021080Y006080D01*
X020180Y005080D02*
X019330Y005930D01*
X019330Y005430D02*
X018730Y005430D01*
X017830Y005630D02*
X017830Y005730D01*
X017830Y005630D02*
X019530Y003930D01*
X019530Y002030D01*
X019630Y001930D01*
X019632Y001930D01*
X023730Y002730D02*
X023730Y002830D01*
X025030Y004130D01*
X025080Y003680D02*
X025480Y003280D01*
X026430Y003880D02*
X026480Y003880D01*
X026430Y003880D02*
X022230Y008080D01*
X021930Y008180D02*
X021930Y007980D01*
X022280Y007630D01*
X022280Y007330D01*
X021930Y008180D02*
X023730Y009980D01*
X024480Y009580D02*
X023280Y008380D01*
X022280Y009430D02*
X021230Y008380D01*
X021230Y008080D01*
X022280Y009430D02*
X022280Y009530D01*
X022280Y009980D01*
X020780Y011480D01*
X020180Y011480D01*
X020080Y011380D01*
X019980Y011080D02*
X019580Y011480D01*
X019580Y014330D01*
X016880Y014980D02*
X015480Y016380D01*
X015408Y016380D01*
X015480Y016330D01*
X014430Y015280D01*
X013730Y015280D01*
X014480Y014230D02*
X014180Y013930D01*
X014480Y014230D02*
X015730Y014230D01*
X018580Y011380D01*
X019230Y011580D02*
X019230Y012430D01*
X019230Y011580D02*
X020280Y010530D01*
X020980Y010530D01*
X021030Y010480D01*
X020580Y010830D02*
X020330Y011080D01*
X019980Y011080D01*
X024530Y012780D02*
X024546Y012796D01*
X024780Y013430D02*
X024330Y013880D01*
X024180Y013880D01*
X023780Y014180D02*
X023630Y014030D01*
X023630Y013430D01*
X025030Y012030D01*
X025330Y012030D01*
X024780Y013430D02*
X028080Y010130D01*
X028080Y006630D01*
X027930Y006080D02*
X026530Y006080D01*
X027930Y006080D02*
X028930Y007080D01*
X030180Y007680D02*
X030180Y006330D01*
X030480Y006030D01*
X030580Y006030D01*
X035480Y001130D01*
X035480Y000730D01*
X035180Y001030D02*
X034230Y001980D01*
X034230Y003730D02*
X034930Y003730D01*
X034900Y005922D02*
X034880Y005930D01*
X034580Y005930D01*
X032530Y007980D01*
X031980Y007730D02*
X031405Y007155D01*
X030580Y007980D01*
X031280Y008280D02*
X033180Y008280D01*
X035430Y006030D01*
X035530Y006030D01*
X035680Y005922D01*
X031405Y007155D02*
X030580Y006330D01*
X032980Y008580D02*
X032030Y009530D01*
X035962Y012355D02*
X035980Y012380D01*
X037080Y013480D01*
X037930Y013480D01*
X023780Y014180D02*
X023780Y014680D01*
X020930Y016380D02*
X020920Y016380D01*
X018580Y006730D02*
X017880Y006030D01*
X016330Y006030D01*
X016030Y005730D01*
X016030Y005330D01*
X015630Y004930D01*
X015630Y004880D01*
X023780Y003930D02*
X024430Y004580D01*
X024430Y004730D01*
X029230Y001930D02*
X029277Y001930D01*
X029230Y001930D02*
X030080Y001080D01*
D21*
X030080Y001080D03*
X034230Y001980D03*
X035180Y001030D03*
X035480Y000730D03*
X034930Y003730D03*
X034230Y003730D03*
X030580Y006330D03*
X028930Y007080D03*
X028080Y006630D03*
X026530Y006080D03*
X024730Y006530D03*
X024330Y006530D03*
X023580Y005980D03*
X023580Y004930D03*
X024430Y004730D03*
X025030Y004130D03*
X025080Y003680D03*
X025480Y003280D03*
X026480Y003880D03*
X023780Y003930D03*
X021830Y004530D03*
X020180Y005080D03*
X019330Y005430D03*
X018730Y005430D03*
X017830Y005730D03*
X019330Y005930D03*
X018580Y006730D03*
X019430Y006930D03*
X018580Y007130D03*
X018580Y007730D03*
X018430Y008130D03*
X018430Y008530D03*
X018680Y008930D03*
X017480Y009730D03*
X017630Y010380D03*
X018280Y010430D03*
X018580Y011380D03*
X020080Y011380D03*
X020580Y010830D03*
X021030Y010480D03*
X022280Y009530D03*
X023730Y009980D03*
X024480Y009580D03*
X023680Y008380D03*
X023280Y008380D03*
X022230Y008080D03*
X021530Y007780D03*
X020980Y007630D03*
X021230Y008080D03*
X021930Y008680D03*
X022280Y007330D03*
X024480Y007580D03*
X025180Y007780D03*
X025580Y007780D03*
X026580Y008380D03*
X030180Y007680D03*
X030580Y007980D03*
X031980Y007730D03*
X032530Y007980D03*
X032980Y008580D03*
X032030Y009530D03*
X027230Y011980D03*
X025330Y012030D03*
X024780Y013430D03*
X024180Y013880D03*
X023780Y014680D03*
X019580Y014330D03*
X018580Y013330D03*
X018780Y012730D03*
X019230Y012430D03*
X016030Y011980D03*
X015730Y012280D03*
X014930Y012280D03*
X015630Y011580D03*
X014780Y013930D03*
X014180Y013930D03*
X012730Y014680D03*
X013730Y015280D03*
X016880Y014980D03*
X009230Y016480D03*
X008430Y015280D03*
X009030Y009180D03*
X013230Y005830D03*
X013630Y005730D03*
X015630Y005830D03*
X016030Y005730D03*
X021080Y006080D03*
X021480Y005680D03*
X023730Y002730D03*
X023080Y002280D03*
X037930Y013480D03*
D22*
X001128Y000713D02*
X000890Y000886D01*
X000717Y001124D01*
X000626Y001404D01*
X000614Y001551D01*
X000614Y016654D01*
X000626Y016805D01*
X000719Y017092D01*
X000897Y017337D01*
X001142Y017515D01*
X001429Y017608D01*
X001580Y017620D01*
X001580Y017620D01*
X001655Y017620D01*
X038132Y017620D01*
X038136Y017616D01*
X038206Y017620D01*
X038221Y017620D01*
X038366Y017616D01*
X038664Y017537D01*
X038924Y017369D01*
X039119Y017129D01*
X039230Y016840D01*
X039250Y016688D01*
X039250Y001605D01*
X039238Y001450D01*
X039142Y001153D01*
X038959Y000901D01*
X038707Y000718D01*
X038410Y000622D01*
X038255Y000610D01*
X035777Y000610D01*
X035800Y000666D01*
X035800Y000794D01*
X035751Y000911D01*
X035680Y000983D01*
X035680Y001213D01*
X030798Y006095D01*
X030851Y006149D01*
X030900Y006266D01*
X030900Y006367D01*
X031488Y006955D01*
X031605Y007072D01*
X031943Y007410D01*
X032044Y007410D01*
X032161Y007459D01*
X032251Y007549D01*
X032300Y007666D01*
X032300Y007757D01*
X032349Y007709D01*
X032466Y007660D01*
X032567Y007660D01*
X034380Y005847D01*
X034415Y005812D01*
X034485Y005645D01*
X034622Y005507D01*
X034803Y005432D01*
X034997Y005432D01*
X035178Y005507D01*
X035278Y005607D01*
X035291Y005590D01*
X035348Y005533D01*
X035413Y005486D01*
X035484Y005449D01*
X035561Y005425D01*
X035571Y005423D01*
X035402Y005353D01*
X035290Y005241D01*
X035178Y005353D01*
X034997Y005428D01*
X034803Y005428D01*
X034622Y005353D01*
X034485Y005215D01*
X034410Y005035D01*
X034410Y004840D01*
X034485Y004660D01*
X034622Y004522D01*
X034803Y004448D01*
X034997Y004448D01*
X035178Y004522D01*
X035290Y004635D01*
X035402Y004522D01*
X035583Y004448D01*
X035777Y004448D01*
X035958Y004522D01*
X036095Y004660D01*
X036170Y004840D01*
X036170Y005035D01*
X036095Y005215D01*
X035958Y005353D01*
X035789Y005423D01*
X035799Y005425D01*
X035876Y005449D01*
X035947Y005486D01*
X036012Y005533D01*
X036069Y005590D01*
X036116Y005655D01*
X036153Y005726D01*
X036177Y005803D01*
X036190Y005882D01*
X036190Y005912D01*
X035690Y005912D01*
X035690Y005932D01*
X036190Y005932D01*
X036190Y005962D01*
X036177Y006042D01*
X036153Y006118D01*
X036116Y006189D01*
X036069Y006254D01*
X036012Y006311D01*
X035947Y006358D01*
X035876Y006395D01*
X035799Y006420D01*
X035720Y006432D01*
X035690Y006432D01*
X035690Y005932D01*
X035670Y005932D01*
X035670Y006432D01*
X035640Y006432D01*
X035561Y006420D01*
X035484Y006395D01*
X035413Y006358D01*
X035348Y006311D01*
X035291Y006254D01*
X035278Y006237D01*
X035178Y006338D01*
X034997Y006412D01*
X034803Y006412D01*
X034622Y006338D01*
X034539Y006254D01*
X032850Y007943D01*
X032850Y008044D01*
X032801Y008161D01*
X032711Y008251D01*
X032594Y008300D01*
X032466Y008300D01*
X032349Y008251D01*
X032259Y008161D01*
X032210Y008044D01*
X032210Y007953D01*
X032161Y008001D01*
X032044Y008050D01*
X031916Y008050D01*
X031799Y008001D01*
X031709Y007911D01*
X031660Y007794D01*
X031660Y007693D01*
X031405Y007438D01*
X030900Y007943D01*
X030900Y008044D01*
X030851Y008161D01*
X030761Y008251D01*
X030644Y008300D01*
X030516Y008300D01*
X030399Y008251D01*
X030309Y008161D01*
X030260Y008044D01*
X030260Y007993D01*
X030244Y008000D01*
X030116Y008000D01*
X029999Y007951D01*
X029909Y007861D01*
X029860Y007744D01*
X029860Y007616D01*
X029909Y007499D01*
X029980Y007427D01*
X029980Y006247D01*
X030097Y006130D01*
X030397Y005830D01*
X030497Y005830D01*
X034068Y002259D01*
X034049Y002251D01*
X033959Y002161D01*
X033940Y002116D01*
X033886Y002247D01*
X033728Y002405D01*
X033522Y002490D01*
X033300Y002490D01*
X033094Y002405D01*
X032936Y002247D01*
X032851Y002041D01*
X032851Y001819D01*
X032936Y001613D01*
X033094Y001455D01*
X033300Y001370D01*
X033522Y001370D01*
X033728Y001455D01*
X033886Y001613D01*
X033962Y001796D01*
X034049Y001709D01*
X034166Y001660D01*
X034267Y001660D01*
X034860Y001067D01*
X034860Y000966D01*
X034909Y000849D01*
X034999Y000759D01*
X035116Y000710D01*
X035160Y000710D01*
X035160Y000666D01*
X035183Y000610D01*
X001555Y000610D01*
X001408Y000622D01*
X001128Y000713D01*
X001080Y000747D02*
X035027Y000747D01*
X034885Y000906D02*
X030354Y000906D01*
X030351Y000899D02*
X030400Y001016D01*
X030400Y001144D01*
X030351Y001261D01*
X030261Y001351D01*
X030144Y001400D01*
X030043Y001400D01*
X029837Y001606D01*
X029837Y002396D01*
X029744Y002490D01*
X028811Y002490D01*
X028717Y002396D01*
X028717Y001464D01*
X028811Y001370D01*
X029507Y001370D01*
X029760Y001117D01*
X029760Y001016D01*
X029809Y000899D01*
X029899Y000809D01*
X030016Y000760D01*
X030144Y000760D01*
X030261Y000809D01*
X030351Y000899D01*
X030400Y001064D02*
X034860Y001064D01*
X034705Y001223D02*
X030367Y001223D01*
X030517Y001381D02*
X030190Y001381D01*
X030338Y001455D02*
X030544Y001370D01*
X030767Y001370D01*
X030972Y001455D01*
X031130Y001613D01*
X031215Y001819D01*
X031215Y002041D01*
X031130Y002247D01*
X030972Y002405D01*
X030767Y002490D01*
X030544Y002490D01*
X030338Y002405D01*
X030180Y002247D01*
X030095Y002041D01*
X030095Y001819D01*
X030180Y001613D01*
X030338Y001455D01*
X030254Y001540D02*
X029903Y001540D01*
X029837Y001698D02*
X030145Y001698D01*
X030095Y001857D02*
X029837Y001857D01*
X029837Y002015D02*
X030095Y002015D01*
X030150Y002174D02*
X029837Y002174D01*
X029837Y002332D02*
X030265Y002332D01*
X031045Y002332D02*
X031643Y002332D01*
X031716Y002405D02*
X031558Y002247D01*
X031473Y002041D01*
X031473Y001819D01*
X031558Y001613D01*
X031716Y001455D01*
X031922Y001370D01*
X032145Y001370D01*
X032350Y001455D01*
X032508Y001613D01*
X032593Y001819D01*
X032593Y002041D01*
X032508Y002247D01*
X032350Y002405D01*
X032145Y002490D01*
X031922Y002490D01*
X031716Y002405D01*
X031528Y002174D02*
X031160Y002174D01*
X031215Y002015D02*
X031473Y002015D01*
X031473Y001857D02*
X031215Y001857D01*
X031165Y001698D02*
X031523Y001698D01*
X031632Y001540D02*
X031057Y001540D01*
X030793Y001381D02*
X031895Y001381D01*
X032171Y001381D02*
X033273Y001381D01*
X033549Y001381D02*
X034546Y001381D01*
X034388Y001540D02*
X033813Y001540D01*
X033921Y001698D02*
X034075Y001698D01*
X033971Y002174D02*
X033916Y002174D01*
X033995Y002332D02*
X033801Y002332D01*
X033837Y002491D02*
X028051Y002491D01*
X028035Y002496D02*
X027945Y002510D01*
X027937Y002510D01*
X027937Y001968D01*
X027861Y001968D01*
X027861Y001892D01*
X027319Y001892D01*
X027319Y001884D01*
X027334Y001794D01*
X027362Y001707D01*
X027403Y001626D01*
X027457Y001552D01*
X027521Y001488D01*
X027595Y001434D01*
X027677Y001392D01*
X027763Y001364D01*
X027854Y001350D01*
X027861Y001350D01*
X027861Y001892D01*
X027937Y001892D01*
X027937Y001350D01*
X027945Y001350D01*
X028035Y001364D01*
X028122Y001392D01*
X028203Y001434D01*
X028277Y001488D01*
X028342Y001552D01*
X028395Y001626D01*
X028437Y001707D01*
X028465Y001794D01*
X028479Y001884D01*
X028479Y001892D01*
X027937Y001892D01*
X027937Y001968D01*
X028479Y001968D01*
X028479Y001976D01*
X028465Y002066D01*
X028437Y002153D01*
X028395Y002234D01*
X028342Y002308D01*
X028277Y002372D01*
X028203Y002426D01*
X028122Y002468D01*
X028035Y002496D01*
X027937Y002491D02*
X027861Y002491D01*
X027861Y002510D02*
X027854Y002510D01*
X027763Y002496D01*
X027677Y002468D01*
X027595Y002426D01*
X027521Y002372D01*
X027457Y002308D01*
X027403Y002234D01*
X027362Y002153D01*
X027334Y002066D01*
X027319Y001976D01*
X027319Y001968D01*
X027861Y001968D01*
X027861Y002510D01*
X027747Y002491D02*
X026123Y002491D01*
X026204Y002405D02*
X026047Y002247D01*
X025961Y002041D01*
X025961Y001819D01*
X026047Y001613D01*
X026204Y001455D01*
X026410Y001370D01*
X026633Y001370D01*
X026839Y001455D01*
X026996Y001613D01*
X027081Y001819D01*
X027081Y002041D01*
X026996Y002247D01*
X026839Y002405D01*
X026633Y002490D01*
X026410Y002490D01*
X026204Y002405D01*
X026131Y002332D02*
X025965Y002332D01*
X026016Y002174D02*
X025806Y002174D01*
X025695Y002062D02*
X029563Y005930D01*
X029680Y006047D01*
X029680Y007563D01*
X028680Y008563D01*
X028680Y010813D01*
X027550Y011943D01*
X027550Y012044D01*
X027501Y012161D01*
X027411Y012251D01*
X027294Y012300D01*
X027193Y012300D01*
X023830Y015663D01*
X023713Y015780D01*
X023263Y015780D01*
X022833Y016210D01*
X022858Y016269D01*
X022858Y016491D01*
X022772Y016697D01*
X022615Y016855D01*
X022409Y016940D01*
X022186Y016940D01*
X021981Y016855D01*
X021823Y016697D01*
X021738Y016491D01*
X021738Y016269D01*
X021823Y016063D01*
X021981Y015905D01*
X022186Y015820D01*
X022409Y015820D01*
X022585Y015893D01*
X023097Y015380D01*
X023547Y015380D01*
X026910Y012017D01*
X026910Y011916D01*
X026959Y011799D01*
X027049Y011709D01*
X027166Y011660D01*
X027267Y011660D01*
X028280Y010647D01*
X028280Y008397D01*
X028397Y008280D01*
X029280Y007397D01*
X029280Y006213D01*
X025466Y002399D01*
X025461Y002405D01*
X025255Y002490D01*
X025032Y002490D01*
X024826Y002405D01*
X024669Y002247D01*
X024583Y002041D01*
X024583Y001819D01*
X024669Y001613D01*
X024826Y001455D01*
X025032Y001370D01*
X025255Y001370D01*
X025461Y001455D01*
X025618Y001613D01*
X025703Y001819D01*
X025703Y002041D01*
X025695Y002062D01*
X025703Y002015D02*
X025961Y002015D01*
X025961Y001857D02*
X025703Y001857D01*
X025653Y001698D02*
X026011Y001698D01*
X026120Y001540D02*
X025545Y001540D01*
X025281Y001381D02*
X026383Y001381D01*
X026659Y001381D02*
X027712Y001381D01*
X027861Y001381D02*
X027937Y001381D01*
X028087Y001381D02*
X028800Y001381D01*
X028717Y001540D02*
X028329Y001540D01*
X028432Y001698D02*
X028717Y001698D01*
X028717Y001857D02*
X028475Y001857D01*
X028473Y002015D02*
X028717Y002015D01*
X028717Y002174D02*
X028426Y002174D01*
X028318Y002332D02*
X028717Y002332D01*
X027937Y002332D02*
X027861Y002332D01*
X027861Y002174D02*
X027937Y002174D01*
X027937Y002015D02*
X027861Y002015D01*
X027861Y001857D02*
X027937Y001857D01*
X027937Y001698D02*
X027861Y001698D01*
X027861Y001540D02*
X027937Y001540D01*
X027470Y001540D02*
X026923Y001540D01*
X027031Y001698D02*
X027367Y001698D01*
X027324Y001857D02*
X027081Y001857D01*
X027081Y002015D02*
X027326Y002015D01*
X027372Y002174D02*
X027027Y002174D01*
X026911Y002332D02*
X027481Y002332D01*
X026440Y002808D02*
X033520Y002808D01*
X033361Y002966D02*
X026599Y002966D01*
X026757Y003125D02*
X033203Y003125D01*
X033044Y003283D02*
X026916Y003283D01*
X027074Y003442D02*
X032886Y003442D01*
X032727Y003600D02*
X027233Y003600D01*
X027391Y003759D02*
X032569Y003759D01*
X032410Y003917D02*
X027550Y003917D01*
X027708Y004076D02*
X032252Y004076D01*
X032093Y004234D02*
X027867Y004234D01*
X028025Y004393D02*
X031935Y004393D01*
X031776Y004551D02*
X028184Y004551D01*
X028342Y004710D02*
X031618Y004710D01*
X031459Y004868D02*
X028501Y004868D01*
X028659Y005027D02*
X031301Y005027D01*
X031142Y005185D02*
X028818Y005185D01*
X028976Y005344D02*
X030984Y005344D01*
X030825Y005502D02*
X029135Y005502D01*
X029293Y005661D02*
X030667Y005661D01*
X030508Y005819D02*
X029452Y005819D01*
X029610Y005978D02*
X030250Y005978D01*
X030091Y006136D02*
X029680Y006136D01*
X029680Y006295D02*
X029980Y006295D01*
X029980Y006453D02*
X029680Y006453D01*
X029680Y006612D02*
X029980Y006612D01*
X029980Y006770D02*
X029680Y006770D01*
X029680Y006929D02*
X029980Y006929D01*
X029980Y007087D02*
X029680Y007087D01*
X029680Y007246D02*
X029980Y007246D01*
X029980Y007404D02*
X029680Y007404D01*
X029680Y007563D02*
X029882Y007563D01*
X029860Y007721D02*
X029522Y007721D01*
X029363Y007880D02*
X029927Y007880D01*
X030260Y008038D02*
X029205Y008038D01*
X029046Y008197D02*
X030344Y008197D01*
X030816Y008197D02*
X032294Y008197D01*
X032210Y008038D02*
X032073Y008038D01*
X031887Y008038D02*
X030900Y008038D01*
X030963Y007880D02*
X031696Y007880D01*
X031660Y007721D02*
X031122Y007721D01*
X031280Y007563D02*
X031530Y007563D01*
X031937Y007404D02*
X032823Y007404D01*
X032665Y007563D02*
X032257Y007563D01*
X032300Y007721D02*
X032336Y007721D01*
X032913Y007880D02*
X035940Y007880D01*
X035940Y007961D02*
X035940Y007639D01*
X036063Y007341D01*
X036291Y007113D01*
X036589Y006990D01*
X036911Y006990D01*
X037209Y007113D01*
X037437Y007341D01*
X037560Y007639D01*
X037560Y007961D01*
X037437Y008259D01*
X037209Y008487D01*
X036911Y008610D01*
X036589Y008610D01*
X036291Y008487D01*
X036063Y008259D01*
X035940Y007961D01*
X035972Y008038D02*
X032850Y008038D01*
X032766Y008197D02*
X036038Y008197D01*
X036159Y008355D02*
X033208Y008355D01*
X033251Y008399D02*
X033161Y008309D01*
X033044Y008260D01*
X032916Y008260D01*
X032799Y008309D01*
X032709Y008399D01*
X032660Y008516D01*
X032660Y008617D01*
X032067Y009210D01*
X031966Y009210D01*
X031849Y009259D01*
X031759Y009349D01*
X031710Y009466D01*
X031710Y009594D01*
X031759Y009711D01*
X031849Y009801D01*
X031966Y009850D01*
X032094Y009850D01*
X032211Y009801D01*
X032301Y009711D01*
X032350Y009594D01*
X032350Y009493D01*
X032943Y008900D01*
X033044Y008900D01*
X033161Y008851D01*
X033251Y008761D01*
X033300Y008644D01*
X033300Y008516D01*
X033251Y008399D01*
X033299Y008514D02*
X036356Y008514D01*
X037144Y008514D02*
X039250Y008514D01*
X039250Y008672D02*
X033288Y008672D01*
X033182Y008831D02*
X039250Y008831D01*
X039250Y008989D02*
X032854Y008989D01*
X032695Y009148D02*
X039250Y009148D01*
X039250Y009306D02*
X032537Y009306D01*
X032378Y009465D02*
X039250Y009465D01*
X039250Y009623D02*
X037675Y009623D01*
X037642Y009602D02*
X037740Y009664D01*
X037830Y009736D01*
X037912Y009818D01*
X037984Y009908D01*
X038046Y010006D01*
X038096Y010110D01*
X038134Y010219D01*
X038160Y010332D01*
X038170Y010425D01*
X037223Y010425D01*
X037223Y010585D01*
X038170Y010585D01*
X038160Y010678D01*
X038134Y010791D01*
X038096Y010900D01*
X038046Y011004D01*
X037984Y011102D01*
X037912Y011192D01*
X037830Y011274D01*
X037740Y011346D01*
X037642Y011408D01*
X037538Y011458D01*
X037428Y011496D01*
X037316Y011522D01*
X037223Y011533D01*
X037223Y010585D01*
X037063Y010585D01*
X037063Y011533D01*
X036970Y011522D01*
X036857Y011496D01*
X036748Y011458D01*
X036644Y011408D01*
X036546Y011346D01*
X036455Y011274D01*
X036374Y011192D01*
X036302Y011102D01*
X036240Y011004D01*
X036190Y010900D01*
X036152Y010791D01*
X036126Y010678D01*
X036115Y010585D01*
X037063Y010585D01*
X037063Y010425D01*
X037223Y010425D01*
X037223Y009477D01*
X037316Y009488D01*
X037428Y009514D01*
X037538Y009552D01*
X037642Y009602D01*
X037876Y009782D02*
X039250Y009782D01*
X039250Y009940D02*
X038004Y009940D01*
X038090Y010099D02*
X039250Y010099D01*
X039250Y010257D02*
X038143Y010257D01*
X038169Y010416D02*
X039250Y010416D01*
X039250Y010574D02*
X037223Y010574D01*
X037223Y010416D02*
X037063Y010416D01*
X037063Y010425D02*
X037063Y009477D01*
X036970Y009488D01*
X036857Y009514D01*
X036748Y009552D01*
X036644Y009602D01*
X036546Y009664D01*
X036455Y009736D01*
X036374Y009818D01*
X036302Y009908D01*
X036240Y010006D01*
X036190Y010110D01*
X036152Y010219D01*
X036126Y010332D01*
X036115Y010425D01*
X037063Y010425D01*
X037063Y010574D02*
X035791Y010574D01*
X035791Y010638D02*
X035791Y010372D01*
X035722Y010115D01*
X035589Y009885D01*
X035401Y009697D01*
X035171Y009564D01*
X034914Y009495D01*
X034648Y009495D01*
X034391Y009564D01*
X034161Y009697D01*
X033972Y009885D01*
X033839Y010115D01*
X033771Y010372D01*
X033771Y010638D01*
X033839Y010895D01*
X033972Y011125D01*
X034161Y011313D01*
X034391Y011446D01*
X034648Y011515D01*
X034914Y011515D01*
X035171Y011446D01*
X035401Y011313D01*
X035589Y011125D01*
X035722Y010895D01*
X035791Y010638D01*
X035765Y010733D02*
X036138Y010733D01*
X036187Y010891D02*
X035723Y010891D01*
X035633Y011050D02*
X036269Y011050D01*
X036389Y011208D02*
X035506Y011208D01*
X035567Y011402D02*
X035676Y011364D01*
X035789Y011338D01*
X035882Y011328D01*
X035882Y012275D01*
X036042Y012275D01*
X036042Y011328D01*
X036135Y011338D01*
X036247Y011364D01*
X036357Y011402D01*
X036461Y011452D01*
X036559Y011514D01*
X036649Y011586D01*
X036731Y011668D01*
X036803Y011758D01*
X036865Y011856D01*
X036915Y011961D01*
X036953Y012070D01*
X036979Y012183D01*
X036989Y012275D01*
X036042Y012275D01*
X036042Y012435D01*
X036989Y012435D01*
X036979Y012528D01*
X036953Y012641D01*
X036915Y012750D01*
X036865Y012854D01*
X036803Y012952D01*
X036731Y013043D01*
X036649Y013125D01*
X036559Y013197D01*
X036461Y013258D01*
X036357Y013308D01*
X036247Y013347D01*
X036135Y013372D01*
X036042Y013383D01*
X036042Y012435D01*
X035882Y012435D01*
X035882Y012275D01*
X034934Y012275D01*
X034945Y012183D01*
X034970Y012070D01*
X035009Y011961D01*
X035059Y011856D01*
X035120Y011758D01*
X035193Y011668D01*
X035274Y011586D01*
X035365Y011514D01*
X035463Y011452D01*
X035567Y011402D01*
X035669Y011367D02*
X035308Y011367D01*
X035351Y011525D02*
X027968Y011525D01*
X028126Y011367D02*
X034253Y011367D01*
X034055Y011208D02*
X028285Y011208D01*
X028443Y011050D02*
X033929Y011050D01*
X033838Y010891D02*
X028602Y010891D01*
X028680Y010733D02*
X033796Y010733D01*
X033771Y010574D02*
X028680Y010574D01*
X028680Y010416D02*
X033771Y010416D01*
X033801Y010257D02*
X028680Y010257D01*
X028680Y010099D02*
X033849Y010099D01*
X033941Y009940D02*
X028680Y009940D01*
X028680Y009782D02*
X031829Y009782D01*
X031722Y009623D02*
X028680Y009623D01*
X028680Y009465D02*
X031711Y009465D01*
X031801Y009306D02*
X028680Y009306D01*
X028680Y009148D02*
X032130Y009148D01*
X032288Y008989D02*
X028680Y008989D01*
X028680Y008831D02*
X032447Y008831D01*
X032605Y008672D02*
X028680Y008672D01*
X028729Y008514D02*
X032661Y008514D01*
X032752Y008355D02*
X028888Y008355D01*
X028639Y008038D02*
X028280Y008038D01*
X028280Y007880D02*
X028798Y007880D01*
X028956Y007721D02*
X028280Y007721D01*
X028280Y007563D02*
X029115Y007563D01*
X028994Y007400D02*
X028866Y007400D01*
X028749Y007351D01*
X028659Y007261D01*
X028610Y007144D01*
X028610Y007043D01*
X028359Y006792D01*
X028351Y006811D01*
X028280Y006883D01*
X028280Y010213D01*
X025100Y013393D01*
X025100Y013494D01*
X025051Y013611D01*
X024961Y013701D01*
X024844Y013750D01*
X024743Y013750D01*
X024465Y014028D01*
X024451Y014061D01*
X024866Y014061D01*
X024708Y014220D02*
X023980Y014220D01*
X023999Y014151D02*
X023980Y014133D01*
X023980Y014427D01*
X024051Y014499D01*
X024100Y014616D01*
X024100Y014744D01*
X024051Y014861D01*
X023961Y014951D01*
X023844Y015000D01*
X023716Y015000D01*
X023599Y014951D01*
X023509Y014861D01*
X023460Y014744D01*
X023460Y014616D01*
X023509Y014499D01*
X023580Y014427D01*
X023580Y014263D01*
X023547Y014230D01*
X023430Y014113D01*
X023430Y013663D01*
X021202Y015891D01*
X021237Y015905D01*
X021395Y016063D01*
X021480Y016269D01*
X021480Y016491D01*
X021395Y016697D01*
X021237Y016855D01*
X021031Y016940D01*
X020808Y016940D01*
X020603Y016855D01*
X020445Y016697D01*
X020360Y016491D01*
X020360Y016269D01*
X020445Y016063D01*
X020603Y015905D01*
X020730Y015852D01*
X020730Y015797D01*
X024121Y012407D01*
X023968Y012470D01*
X023792Y012470D01*
X023631Y012403D01*
X023507Y012279D01*
X023440Y012118D01*
X023440Y011942D01*
X023507Y011781D01*
X023631Y011657D01*
X023792Y011590D01*
X023968Y011590D01*
X024129Y011657D01*
X024253Y011781D01*
X024320Y011942D01*
X024320Y012118D01*
X024257Y012271D01*
X024980Y011547D01*
X024980Y008033D01*
X024909Y007961D01*
X024860Y007844D01*
X024860Y007716D01*
X024909Y007599D01*
X024999Y007509D01*
X025018Y007501D01*
X024367Y006850D01*
X024266Y006850D01*
X024149Y006801D01*
X024059Y006711D01*
X024010Y006594D01*
X024010Y006583D01*
X022550Y008043D01*
X022550Y008144D01*
X022501Y008261D01*
X022411Y008351D01*
X022392Y008359D01*
X023693Y009660D01*
X023794Y009660D01*
X023911Y009709D01*
X024001Y009799D01*
X024050Y009916D01*
X024050Y010044D01*
X024001Y010161D01*
X023911Y010251D01*
X023794Y010300D01*
X023666Y010300D01*
X023549Y010251D01*
X023459Y010161D01*
X023410Y010044D01*
X023410Y009943D01*
X021730Y008263D01*
X021730Y008033D01*
X021711Y008051D01*
X021594Y008100D01*
X021550Y008100D01*
X021550Y008144D01*
X021501Y008261D01*
X021448Y008315D01*
X022343Y009210D01*
X022344Y009210D01*
X022461Y009259D01*
X022551Y009349D01*
X022600Y009466D01*
X022600Y009594D01*
X022551Y009711D01*
X022480Y009783D01*
X022480Y010063D01*
X022363Y010180D01*
X022363Y010180D01*
X020863Y011680D01*
X020192Y011680D01*
X020144Y011700D01*
X020016Y011700D01*
X019899Y011651D01*
X019809Y011561D01*
X019801Y011542D01*
X019780Y011563D01*
X019780Y014077D01*
X019851Y014149D01*
X019900Y014266D01*
X019900Y014394D01*
X019885Y014430D01*
X020197Y014430D01*
X022221Y012407D01*
X022068Y012470D01*
X021892Y012470D01*
X021731Y012403D01*
X021607Y012279D01*
X021540Y012118D01*
X021540Y011942D01*
X021607Y011781D01*
X021731Y011657D01*
X021892Y011590D01*
X022068Y011590D01*
X022229Y011657D01*
X022353Y011781D01*
X022420Y011942D01*
X022420Y012118D01*
X022357Y012271D01*
X024580Y010047D01*
X024580Y009885D01*
X024544Y009900D01*
X024416Y009900D01*
X024299Y009851D01*
X024209Y009761D01*
X024160Y009644D01*
X024160Y009543D01*
X023317Y008700D01*
X023216Y008700D01*
X023099Y008651D01*
X023009Y008561D01*
X022960Y008444D01*
X022960Y008316D01*
X023009Y008199D01*
X023099Y008109D01*
X023216Y008060D01*
X023344Y008060D01*
X023461Y008109D01*
X023480Y008127D01*
X023499Y008109D01*
X023616Y008060D01*
X023717Y008060D01*
X024160Y007617D01*
X024160Y007516D01*
X024209Y007399D01*
X024299Y007309D01*
X024416Y007260D01*
X024544Y007260D01*
X024661Y007309D01*
X024751Y007399D01*
X024800Y007516D01*
X024800Y007644D01*
X024751Y007761D01*
X024661Y007851D01*
X024544Y007900D01*
X024443Y007900D01*
X024000Y008343D01*
X024000Y008367D01*
X024980Y009347D01*
X024980Y010213D01*
X024863Y010330D01*
X020363Y014830D01*
X019213Y014830D01*
X018223Y015820D01*
X018275Y015820D01*
X018481Y015905D01*
X018639Y016063D01*
X018724Y016269D01*
X018724Y016491D01*
X018639Y016697D01*
X018481Y016855D01*
X018275Y016940D01*
X018052Y016940D01*
X017847Y016855D01*
X017767Y016775D01*
X017713Y016830D01*
X017163Y017380D01*
X013747Y017380D01*
X013630Y017263D01*
X013280Y016913D01*
X013280Y016863D01*
X011847Y015430D01*
X011413Y015430D01*
X010613Y016230D01*
X010117Y016230D01*
X010087Y016302D01*
X009952Y016437D01*
X009775Y016510D01*
X009585Y016510D01*
X009550Y016496D01*
X009550Y016544D01*
X009549Y016547D01*
X009563Y016542D01*
X009641Y016530D01*
X009671Y016530D01*
X009671Y017021D01*
X009180Y017021D01*
X009180Y016991D01*
X009192Y016913D01*
X009217Y016838D01*
X009236Y016800D01*
X009193Y016800D01*
X009130Y016863D01*
X009160Y016935D01*
X009160Y017125D01*
X009087Y017302D01*
X008952Y017437D01*
X008775Y017510D01*
X008585Y017510D01*
X008408Y017437D01*
X008273Y017302D01*
X008200Y017125D01*
X008200Y016935D01*
X008273Y016758D01*
X008408Y016623D01*
X008585Y016550D01*
X008775Y016550D01*
X008847Y016580D01*
X008910Y016517D01*
X008910Y016454D01*
X008775Y016510D01*
X008585Y016510D01*
X008408Y016437D01*
X008273Y016302D01*
X008200Y016125D01*
X008200Y015935D01*
X008273Y015758D01*
X008408Y015623D01*
X008464Y015600D01*
X008393Y015600D01*
X008130Y015863D01*
X008160Y015935D01*
X008160Y016125D01*
X008087Y016302D01*
X007952Y016437D01*
X007775Y016510D01*
X007585Y016510D01*
X007408Y016437D01*
X007273Y016302D01*
X007200Y016125D01*
X007200Y015935D01*
X007273Y015758D01*
X007408Y015623D01*
X007585Y015550D01*
X007775Y015550D01*
X007847Y015580D01*
X008110Y015317D01*
X008110Y015216D01*
X008159Y015099D01*
X008249Y015009D01*
X008366Y014960D01*
X008494Y014960D01*
X008611Y015009D01*
X008701Y015099D01*
X008750Y015216D01*
X008750Y015344D01*
X008701Y015461D01*
X008613Y015550D01*
X008775Y015550D01*
X008952Y015623D01*
X009087Y015758D01*
X009160Y015935D01*
X009160Y016125D01*
X009141Y016170D01*
X009166Y016160D01*
X009214Y016160D01*
X009200Y016125D01*
X009200Y015935D01*
X009273Y015758D01*
X009408Y015623D01*
X009585Y015550D01*
X009775Y015550D01*
X009952Y015623D01*
X010087Y015758D01*
X010117Y015830D01*
X010447Y015830D01*
X011130Y015147D01*
X011247Y015030D01*
X012013Y015030D01*
X013470Y016487D01*
X013470Y015914D01*
X013564Y015820D01*
X014496Y015820D01*
X014590Y015914D01*
X014590Y016846D01*
X014496Y016940D01*
X013873Y016940D01*
X013913Y016980D01*
X016997Y016980D01*
X017430Y016547D01*
X017430Y016047D01*
X018930Y014547D01*
X019047Y014430D01*
X019275Y014430D01*
X019260Y014394D01*
X019260Y014266D01*
X019309Y014149D01*
X019380Y014077D01*
X019380Y012714D01*
X019294Y012750D01*
X019166Y012750D01*
X019100Y012723D01*
X019100Y012794D01*
X019051Y012911D01*
X018961Y013001D01*
X018844Y013050D01*
X018743Y013050D01*
X018742Y013051D01*
X018761Y013059D01*
X018851Y013149D01*
X018900Y013266D01*
X018900Y013394D01*
X018851Y013511D01*
X018761Y013601D01*
X018644Y013650D01*
X018543Y013650D01*
X017430Y014763D01*
X017313Y014880D01*
X017185Y014880D01*
X017200Y014916D01*
X017200Y015044D01*
X017151Y015161D01*
X017061Y015251D01*
X016944Y015300D01*
X016843Y015300D01*
X015941Y016202D01*
X015968Y016269D01*
X015968Y016491D01*
X015883Y016697D01*
X015725Y016855D01*
X015519Y016940D01*
X015297Y016940D01*
X015091Y016855D01*
X014933Y016697D01*
X014848Y016491D01*
X014848Y016269D01*
X014932Y016065D01*
X014347Y015480D01*
X013983Y015480D01*
X013911Y015551D01*
X013794Y015600D01*
X013666Y015600D01*
X013549Y015551D01*
X013459Y015461D01*
X013410Y015344D01*
X013410Y015216D01*
X013459Y015099D01*
X013549Y015009D01*
X013666Y014960D01*
X013794Y014960D01*
X013911Y015009D01*
X013983Y015080D01*
X014513Y015080D01*
X015266Y015833D01*
X015297Y015820D01*
X015519Y015820D01*
X015688Y015890D01*
X016560Y015017D01*
X016560Y014916D01*
X016575Y014880D01*
X012983Y014880D01*
X012911Y014951D01*
X012794Y015000D01*
X012666Y015000D01*
X012549Y014951D01*
X012459Y014861D01*
X012410Y014744D01*
X012410Y014616D01*
X012459Y014499D01*
X012549Y014409D01*
X012666Y014360D01*
X012794Y014360D01*
X012911Y014409D01*
X012983Y014480D01*
X014047Y014480D01*
X009067Y009500D01*
X008966Y009500D01*
X008849Y009451D01*
X008759Y009361D01*
X008710Y009244D01*
X008710Y009116D01*
X008759Y008999D01*
X008849Y008909D01*
X008966Y008860D01*
X009094Y008860D01*
X009211Y008909D01*
X009301Y008999D01*
X009350Y009116D01*
X009350Y009217D01*
X013901Y013768D01*
X013909Y013749D01*
X013999Y013659D01*
X014116Y013610D01*
X014244Y013610D01*
X014361Y013659D01*
X014451Y013749D01*
X014480Y013818D01*
X014509Y013749D01*
X014599Y013659D01*
X014716Y013610D01*
X014817Y013610D01*
X015851Y012576D01*
X015794Y012600D01*
X015666Y012600D01*
X015549Y012551D01*
X015477Y012480D01*
X015183Y012480D01*
X015111Y012551D01*
X014994Y012600D01*
X014866Y012600D01*
X014749Y012551D01*
X014659Y012461D01*
X014610Y012344D01*
X014610Y012216D01*
X014659Y012099D01*
X014749Y012009D01*
X014866Y011960D01*
X014994Y011960D01*
X015111Y012009D01*
X015183Y012080D01*
X015477Y012080D01*
X015549Y012009D01*
X015666Y011960D01*
X015710Y011960D01*
X015710Y011943D01*
X015667Y011900D01*
X015566Y011900D01*
X015449Y011851D01*
X015359Y011761D01*
X015310Y011644D01*
X015310Y011516D01*
X015359Y011399D01*
X015449Y011309D01*
X015566Y011260D01*
X015694Y011260D01*
X015811Y011309D01*
X015901Y011399D01*
X015950Y011516D01*
X015950Y011617D01*
X015993Y011660D01*
X016094Y011660D01*
X016211Y011709D01*
X016301Y011799D01*
X016350Y011916D01*
X016350Y012044D01*
X016326Y012101D01*
X017751Y010676D01*
X017694Y010700D01*
X017566Y010700D01*
X017449Y010651D01*
X017359Y010561D01*
X017310Y010444D01*
X017310Y010343D01*
X017280Y010313D01*
X017280Y009983D01*
X017209Y009911D01*
X017160Y009794D01*
X017160Y009666D01*
X017209Y009549D01*
X017299Y009459D01*
X017416Y009410D01*
X017544Y009410D01*
X017661Y009459D01*
X017751Y009549D01*
X017800Y009666D01*
X017800Y009794D01*
X017751Y009911D01*
X017680Y009983D01*
X017680Y010060D01*
X017694Y010060D01*
X017811Y010109D01*
X017901Y010199D01*
X017950Y010316D01*
X017950Y010444D01*
X017926Y010501D01*
X017960Y010467D01*
X017960Y010366D01*
X018009Y010249D01*
X018099Y010159D01*
X018216Y010110D01*
X018344Y010110D01*
X018461Y010159D01*
X018551Y010249D01*
X018600Y010366D01*
X018600Y010494D01*
X018551Y010611D01*
X018461Y010701D01*
X018344Y010750D01*
X018243Y010750D01*
X015100Y013893D01*
X015100Y013994D01*
X015085Y014030D01*
X015647Y014030D01*
X018260Y011417D01*
X018260Y011316D01*
X018309Y011199D01*
X018399Y011109D01*
X018516Y011060D01*
X018644Y011060D01*
X018761Y011109D01*
X018851Y011199D01*
X018900Y011316D01*
X018900Y011444D01*
X018851Y011561D01*
X018761Y011651D01*
X018644Y011700D01*
X018543Y011700D01*
X016013Y014230D01*
X016997Y014230D01*
X018460Y012767D01*
X018460Y012666D01*
X018509Y012549D01*
X018599Y012459D01*
X018716Y012410D01*
X018844Y012410D01*
X018910Y012437D01*
X018910Y012366D01*
X018959Y012249D01*
X019030Y012177D01*
X019030Y011497D01*
X019147Y011380D01*
X020197Y010330D01*
X020746Y010330D01*
X020759Y010299D01*
X020849Y010209D01*
X020966Y010160D01*
X021094Y010160D01*
X021211Y010209D01*
X021301Y010299D01*
X021350Y010416D01*
X021350Y010544D01*
X021301Y010661D01*
X021211Y010751D01*
X021094Y010800D01*
X020966Y010800D01*
X020900Y010773D01*
X020900Y010894D01*
X020851Y011011D01*
X020761Y011101D01*
X020644Y011150D01*
X020543Y011150D01*
X020530Y011163D01*
X020413Y011280D01*
X020385Y011280D01*
X020697Y011280D01*
X022080Y009897D01*
X022080Y009783D01*
X022009Y009711D01*
X021960Y009594D01*
X021960Y009466D01*
X021982Y009414D01*
X021030Y008463D01*
X021030Y008333D01*
X020959Y008261D01*
X020910Y008144D01*
X020910Y008016D01*
X020937Y007950D01*
X020916Y007950D01*
X020799Y007901D01*
X020709Y007811D01*
X020660Y007694D01*
X020660Y007566D01*
X020709Y007449D01*
X020780Y007377D01*
X020780Y006497D01*
X020918Y006359D01*
X020899Y006351D01*
X020809Y006261D01*
X020760Y006144D01*
X020760Y006133D01*
X020730Y006163D01*
X020730Y006713D01*
X020613Y006830D01*
X018713Y008730D01*
X018683Y008730D01*
X018611Y008801D01*
X018494Y008850D01*
X018366Y008850D01*
X018249Y008801D01*
X018245Y008798D01*
X018080Y008963D01*
X018070Y008973D01*
X018070Y009062D01*
X017812Y009320D01*
X017448Y009320D01*
X017190Y009062D01*
X017190Y008698D01*
X017448Y008440D01*
X017812Y008440D01*
X017925Y008552D01*
X018147Y008330D01*
X018177Y008330D01*
X018177Y008330D01*
X015447Y008330D01*
X013267Y006150D01*
X013166Y006150D01*
X013049Y006101D01*
X012959Y006011D01*
X012910Y005894D01*
X012910Y005766D01*
X012959Y005649D01*
X013012Y005595D01*
X012737Y005320D01*
X012448Y005320D01*
X012190Y005062D01*
X012190Y004698D01*
X012448Y004440D01*
X012812Y004440D01*
X013070Y004698D01*
X013070Y005062D01*
X013058Y005075D01*
X013430Y005447D01*
X013430Y005477D01*
X013430Y005302D01*
X013190Y005062D01*
X013190Y004773D01*
X011180Y002763D01*
X011180Y002460D01*
X011047Y002405D01*
X010889Y002247D01*
X010804Y002041D01*
X010804Y001819D01*
X010889Y001613D01*
X011047Y001455D01*
X011252Y001370D01*
X011475Y001370D01*
X011681Y001455D01*
X011839Y001613D01*
X011924Y001819D01*
X011924Y002041D01*
X011839Y002247D01*
X011681Y002405D01*
X011580Y002447D01*
X011580Y002597D01*
X013435Y004452D01*
X013448Y004440D01*
X013812Y004440D01*
X014070Y004698D01*
X014070Y005062D01*
X013830Y005302D01*
X013830Y005477D01*
X013901Y005549D01*
X013950Y005666D01*
X013950Y005767D01*
X014413Y006230D01*
X015747Y006230D01*
X015667Y006150D01*
X015566Y006150D01*
X015449Y006101D01*
X015359Y006011D01*
X015310Y005894D01*
X015310Y005793D01*
X014825Y005308D01*
X014812Y005320D01*
X014448Y005320D01*
X014190Y005062D01*
X014190Y004698D01*
X014448Y004440D01*
X014812Y004440D01*
X015070Y004698D01*
X015070Y004987D01*
X015593Y005510D01*
X015694Y005510D01*
X015767Y005540D01*
X015830Y005477D01*
X015830Y005413D01*
X015737Y005320D01*
X015448Y005320D01*
X015190Y005062D01*
X015190Y004698D01*
X015448Y004440D01*
X015812Y004440D01*
X016070Y004698D01*
X016070Y005062D01*
X016058Y005075D01*
X016230Y005247D01*
X016230Y005477D01*
X016301Y005549D01*
X016350Y005666D01*
X016350Y005767D01*
X016413Y005830D01*
X017525Y005830D01*
X017510Y005794D01*
X017510Y005666D01*
X017559Y005549D01*
X017649Y005459D01*
X017766Y005410D01*
X017767Y005410D01*
X019330Y003847D01*
X019330Y002411D01*
X019314Y002405D01*
X019157Y002247D01*
X019072Y002041D01*
X019072Y001819D01*
X019157Y001613D01*
X019314Y001455D01*
X019520Y001370D01*
X019743Y001370D01*
X019949Y001455D01*
X020106Y001613D01*
X020192Y001819D01*
X020192Y002041D01*
X020106Y002247D01*
X019949Y002405D01*
X019743Y002490D01*
X019730Y002490D01*
X019730Y004013D01*
X019613Y004130D01*
X018609Y005134D01*
X018666Y005110D01*
X018794Y005110D01*
X018911Y005159D01*
X018983Y005230D01*
X019077Y005230D01*
X019149Y005159D01*
X019266Y005110D01*
X019394Y005110D01*
X019511Y005159D01*
X019601Y005249D01*
X019639Y005339D01*
X019860Y005117D01*
X019860Y005016D01*
X019909Y004899D01*
X019999Y004809D01*
X020116Y004760D01*
X020244Y004760D01*
X020361Y004809D01*
X020451Y004899D01*
X020500Y005016D01*
X020500Y005144D01*
X020451Y005261D01*
X020361Y005351D01*
X020244Y005400D01*
X020143Y005400D01*
X019650Y005893D01*
X019650Y005994D01*
X019601Y006111D01*
X019511Y006201D01*
X019394Y006250D01*
X019266Y006250D01*
X019149Y006201D01*
X019059Y006111D01*
X019010Y005994D01*
X019010Y005866D01*
X019059Y005749D01*
X019127Y005680D01*
X019077Y005630D01*
X018983Y005630D01*
X018911Y005701D01*
X018794Y005750D01*
X018666Y005750D01*
X018549Y005701D01*
X018459Y005611D01*
X018410Y005494D01*
X018410Y005366D01*
X018434Y005309D01*
X018128Y005614D01*
X018150Y005666D01*
X018150Y005794D01*
X018101Y005911D01*
X018073Y005940D01*
X018080Y005947D01*
X018543Y006410D01*
X018644Y006410D01*
X018761Y006459D01*
X018851Y006549D01*
X018900Y006666D01*
X018900Y006794D01*
X018851Y006911D01*
X018833Y006930D01*
X018851Y006949D01*
X018900Y007066D01*
X018900Y007194D01*
X018851Y007311D01*
X018761Y007401D01*
X018692Y007430D01*
X018761Y007459D01*
X018851Y007549D01*
X018900Y007666D01*
X018900Y007794D01*
X018851Y007911D01*
X018761Y008001D01*
X018729Y008015D01*
X018750Y008066D01*
X018750Y008127D01*
X020330Y006547D01*
X020330Y006313D01*
X019750Y006893D01*
X019750Y006994D01*
X019701Y007111D01*
X019611Y007201D01*
X019494Y007250D01*
X019366Y007250D01*
X019249Y007201D01*
X019159Y007111D01*
X019110Y006994D01*
X019110Y006866D01*
X019159Y006749D01*
X019249Y006659D01*
X019366Y006610D01*
X019467Y006610D01*
X021510Y004567D01*
X021510Y004466D01*
X021559Y004349D01*
X021649Y004259D01*
X021766Y004210D01*
X021894Y004210D01*
X022011Y004259D01*
X022101Y004349D01*
X022109Y004368D01*
X022180Y004297D01*
X022180Y002450D01*
X022070Y002405D01*
X021913Y002247D01*
X021827Y002041D01*
X021827Y001819D01*
X021913Y001613D01*
X022070Y001455D01*
X022276Y001370D01*
X022499Y001370D01*
X022705Y001455D01*
X022862Y001613D01*
X022947Y001819D01*
X022947Y001989D01*
X023016Y001960D01*
X023144Y001960D01*
X023205Y001986D01*
X023205Y001819D01*
X023291Y001613D01*
X023448Y001455D01*
X023654Y001370D01*
X023877Y001370D01*
X024083Y001455D01*
X024240Y001613D01*
X024325Y001819D01*
X024325Y002041D01*
X024240Y002247D01*
X024083Y002405D01*
X023923Y002471D01*
X024001Y002549D01*
X024050Y002666D01*
X024050Y002794D01*
X024028Y002846D01*
X024771Y003589D01*
X024809Y003499D01*
X024899Y003409D01*
X025016Y003360D01*
X025117Y003360D01*
X025160Y003317D01*
X025160Y003216D01*
X025209Y003099D01*
X025299Y003009D01*
X025416Y002960D01*
X025544Y002960D01*
X025661Y003009D01*
X025751Y003099D01*
X025800Y003216D01*
X025800Y003344D01*
X025751Y003461D01*
X025661Y003551D01*
X025544Y003600D01*
X025443Y003600D01*
X025400Y003643D01*
X025400Y003744D01*
X025351Y003861D01*
X025283Y003930D01*
X025301Y003949D01*
X025350Y004066D01*
X025350Y004194D01*
X025301Y004311D01*
X025211Y004401D01*
X025094Y004450D01*
X024966Y004450D01*
X024849Y004401D01*
X024759Y004311D01*
X024710Y004194D01*
X024710Y004093D01*
X023667Y003050D01*
X023666Y003050D01*
X023630Y003035D01*
X023630Y003646D01*
X023716Y003610D01*
X023844Y003610D01*
X023961Y003659D01*
X024051Y003749D01*
X024100Y003866D01*
X024100Y003967D01*
X024578Y004445D01*
X024611Y004459D01*
X024701Y004549D01*
X024750Y004666D01*
X024750Y004794D01*
X024701Y004911D01*
X024611Y005001D01*
X024494Y005050D01*
X024366Y005050D01*
X024249Y005001D01*
X024159Y004911D01*
X024110Y004794D01*
X024110Y004666D01*
X024146Y004579D01*
X023817Y004250D01*
X023716Y004250D01*
X023630Y004214D01*
X023630Y004463D01*
X023513Y004580D01*
X021730Y006363D01*
X021730Y007527D01*
X021801Y007599D01*
X021850Y007716D01*
X021850Y007777D01*
X022062Y007565D01*
X022009Y007511D01*
X021960Y007394D01*
X021960Y007266D01*
X022009Y007149D01*
X022099Y007059D01*
X022216Y007010D01*
X022344Y007010D01*
X022461Y007059D01*
X022551Y007149D01*
X022600Y007266D01*
X022600Y007394D01*
X022576Y007451D01*
X026160Y003867D01*
X026160Y003816D01*
X026209Y003699D01*
X026299Y003609D01*
X026416Y003560D01*
X026544Y003560D01*
X026661Y003609D01*
X026751Y003699D01*
X026800Y003816D01*
X026800Y003944D01*
X026751Y004061D01*
X026661Y004151D01*
X026544Y004200D01*
X026416Y004200D01*
X026400Y004193D01*
X024383Y006210D01*
X024394Y006210D01*
X024511Y006259D01*
X024530Y006277D01*
X024549Y006259D01*
X024666Y006210D01*
X024794Y006210D01*
X024911Y006259D01*
X025001Y006349D01*
X025050Y006466D01*
X025050Y006567D01*
X026543Y008060D01*
X026644Y008060D01*
X026761Y008109D01*
X026851Y008199D01*
X026900Y008316D01*
X026900Y008444D01*
X026851Y008561D01*
X026761Y008651D01*
X026644Y008700D01*
X026516Y008700D01*
X026399Y008651D01*
X026309Y008561D01*
X026260Y008444D01*
X026260Y008343D01*
X025859Y007942D01*
X025851Y007961D01*
X025761Y008051D01*
X025644Y008100D01*
X025516Y008100D01*
X025399Y008051D01*
X025380Y008033D01*
X025380Y011710D01*
X025394Y011710D01*
X025511Y011759D01*
X025601Y011849D01*
X025650Y011966D01*
X025650Y012094D01*
X025601Y012211D01*
X025511Y012301D01*
X025394Y012350D01*
X025266Y012350D01*
X025149Y012301D01*
X025095Y012248D01*
X023830Y013513D01*
X023830Y013947D01*
X023884Y014001D01*
X023860Y013944D01*
X023860Y013816D01*
X023909Y013699D01*
X023999Y013609D01*
X024116Y013560D01*
X024244Y013560D01*
X024331Y013596D01*
X024460Y013467D01*
X024460Y013366D01*
X024509Y013249D01*
X024599Y013159D01*
X024716Y013110D01*
X024233Y013110D01*
X024391Y012952D02*
X024976Y012952D01*
X024817Y013110D02*
X027880Y010047D01*
X027880Y006883D01*
X027809Y006811D01*
X027760Y006694D01*
X027760Y006566D01*
X027809Y006449D01*
X027899Y006359D01*
X027918Y006351D01*
X027847Y006280D01*
X026783Y006280D01*
X026711Y006351D01*
X026594Y006400D01*
X026466Y006400D01*
X026349Y006351D01*
X026259Y006261D01*
X026210Y006144D01*
X026210Y006016D01*
X026259Y005899D01*
X026349Y005809D01*
X026466Y005760D01*
X026594Y005760D01*
X026711Y005809D01*
X026783Y005880D01*
X028013Y005880D01*
X028130Y005997D01*
X028893Y006760D01*
X028994Y006760D01*
X029111Y006809D01*
X029201Y006899D01*
X029250Y007016D01*
X029250Y007144D01*
X029201Y007261D01*
X029111Y007351D01*
X028994Y007400D01*
X029208Y007246D02*
X029280Y007246D01*
X029273Y007404D02*
X028280Y007404D01*
X028280Y007246D02*
X028652Y007246D01*
X028610Y007087D02*
X028280Y007087D01*
X028280Y006929D02*
X028496Y006929D01*
X028744Y006612D02*
X029280Y006612D01*
X029280Y006770D02*
X029018Y006770D01*
X029214Y006929D02*
X029280Y006929D01*
X029280Y007087D02*
X029250Y007087D01*
X029280Y006453D02*
X028586Y006453D01*
X028427Y006295D02*
X029280Y006295D01*
X029203Y006136D02*
X028269Y006136D01*
X028110Y005978D02*
X029045Y005978D01*
X028886Y005819D02*
X026722Y005819D01*
X026338Y005819D02*
X024774Y005819D01*
X024932Y005661D02*
X028728Y005661D01*
X028569Y005502D02*
X025091Y005502D01*
X025249Y005344D02*
X028411Y005344D01*
X028252Y005185D02*
X025408Y005185D01*
X025566Y005027D02*
X028094Y005027D01*
X027935Y004868D02*
X025725Y004868D01*
X025883Y004710D02*
X027777Y004710D01*
X027618Y004551D02*
X026042Y004551D01*
X026200Y004393D02*
X027460Y004393D01*
X027301Y004234D02*
X026359Y004234D01*
X026737Y004076D02*
X027143Y004076D01*
X026984Y003917D02*
X026800Y003917D01*
X026776Y003759D02*
X026826Y003759D01*
X026667Y003600D02*
X026640Y003600D01*
X026509Y003442D02*
X025759Y003442D01*
X025800Y003283D02*
X026350Y003283D01*
X026192Y003125D02*
X025762Y003125D01*
X025558Y002966D02*
X026033Y002966D01*
X025875Y002808D02*
X024044Y002808D01*
X024043Y002649D02*
X025716Y002649D01*
X025558Y002491D02*
X023943Y002491D01*
X024155Y002332D02*
X024753Y002332D01*
X024638Y002174D02*
X024271Y002174D01*
X024325Y002015D02*
X024583Y002015D01*
X024583Y001857D02*
X024325Y001857D01*
X024275Y001698D02*
X024633Y001698D01*
X024742Y001540D02*
X024167Y001540D01*
X023903Y001381D02*
X025005Y001381D01*
X023627Y001381D02*
X022525Y001381D01*
X022250Y001381D02*
X021147Y001381D01*
X021121Y001370D02*
X021327Y001455D01*
X021484Y001613D01*
X021570Y001819D01*
X021570Y002041D01*
X021484Y002247D01*
X021327Y002405D01*
X021121Y002490D01*
X020898Y002490D01*
X020692Y002405D01*
X020535Y002247D01*
X020450Y002041D01*
X020450Y001819D01*
X020535Y001613D01*
X020692Y001455D01*
X020898Y001370D01*
X021121Y001370D01*
X020872Y001381D02*
X019770Y001381D01*
X019494Y001381D02*
X018731Y001381D01*
X018720Y001370D02*
X018814Y001464D01*
X018814Y002396D01*
X018720Y002490D01*
X017787Y002490D01*
X017694Y002396D01*
X017694Y001464D01*
X017787Y001370D01*
X018720Y001370D01*
X018814Y001540D02*
X019230Y001540D01*
X019122Y001698D02*
X018814Y001698D01*
X018814Y001857D02*
X019072Y001857D01*
X019072Y002015D02*
X018814Y002015D01*
X018814Y002174D02*
X019126Y002174D01*
X019242Y002332D02*
X018814Y002332D01*
X019330Y002491D02*
X015650Y002491D01*
X015634Y002496D02*
X015543Y002510D01*
X015536Y002510D01*
X015536Y001968D01*
X016078Y001968D01*
X016078Y001976D01*
X016063Y002066D01*
X016035Y002153D01*
X015994Y002234D01*
X015940Y002308D01*
X015876Y002372D01*
X015802Y002426D01*
X015720Y002468D01*
X015634Y002496D01*
X015536Y002491D02*
X015460Y002491D01*
X015460Y002510D02*
X015452Y002510D01*
X015362Y002496D01*
X015275Y002468D01*
X015194Y002426D01*
X015120Y002372D01*
X015055Y002308D01*
X015002Y002234D01*
X014960Y002153D01*
X014932Y002066D01*
X014918Y001976D01*
X014918Y001968D01*
X015460Y001968D01*
X015460Y002510D01*
X015346Y002491D02*
X011580Y002491D01*
X011632Y002649D02*
X019330Y002649D01*
X019330Y002808D02*
X011790Y002808D01*
X011949Y002966D02*
X019330Y002966D01*
X019330Y003125D02*
X012107Y003125D01*
X012266Y003283D02*
X019330Y003283D01*
X019330Y003442D02*
X012424Y003442D01*
X012583Y003600D02*
X019330Y003600D01*
X019330Y003759D02*
X012741Y003759D01*
X012900Y003917D02*
X019260Y003917D01*
X019102Y004076D02*
X013058Y004076D01*
X013217Y004234D02*
X018943Y004234D01*
X018785Y004393D02*
X013375Y004393D01*
X013127Y004710D02*
X013070Y004710D01*
X013070Y004868D02*
X013190Y004868D01*
X013190Y005027D02*
X013070Y005027D01*
X013168Y005185D02*
X013313Y005185D01*
X013326Y005344D02*
X013430Y005344D01*
X013430Y005477D02*
X013430Y005477D01*
X013830Y005344D02*
X014861Y005344D01*
X015019Y005502D02*
X013855Y005502D01*
X013948Y005661D02*
X015178Y005661D01*
X015310Y005819D02*
X014002Y005819D01*
X014160Y005978D02*
X015345Y005978D01*
X015533Y006136D02*
X014319Y006136D01*
X013570Y006453D02*
X000614Y006453D01*
X000614Y006295D02*
X013412Y006295D01*
X013133Y006136D02*
X000614Y006136D01*
X000614Y005978D02*
X009291Y005978D01*
X009323Y006009D02*
X009184Y005870D01*
X009108Y005688D01*
X009108Y005491D01*
X009184Y005309D01*
X009323Y005170D01*
X009505Y005095D01*
X009702Y005095D01*
X009884Y005170D01*
X010023Y005309D01*
X010098Y005491D01*
X010098Y005688D01*
X010023Y005870D01*
X009884Y006009D01*
X009702Y006085D01*
X009505Y006085D01*
X009323Y006009D01*
X009162Y005819D02*
X000614Y005819D01*
X000614Y005661D02*
X009108Y005661D01*
X009108Y005502D02*
X000614Y005502D01*
X000614Y005344D02*
X009170Y005344D01*
X009308Y005185D02*
X000614Y005185D01*
X000614Y005027D02*
X012190Y005027D01*
X012190Y004868D02*
X000614Y004868D01*
X000614Y004710D02*
X012190Y004710D01*
X012337Y004551D02*
X000614Y004551D01*
X000614Y004393D02*
X012810Y004393D01*
X012923Y004551D02*
X012968Y004551D01*
X012651Y004234D02*
X000614Y004234D01*
X000614Y004076D02*
X003085Y004076D01*
X003145Y004100D02*
X002950Y004019D01*
X002801Y003870D01*
X002720Y003675D01*
X002720Y003465D01*
X002801Y003270D01*
X002950Y003121D01*
X003145Y003040D01*
X003355Y003040D01*
X003550Y003121D01*
X003699Y003270D01*
X003780Y003465D01*
X003780Y003675D01*
X003699Y003870D01*
X003550Y004019D01*
X003355Y004100D01*
X003145Y004100D01*
X003415Y004076D02*
X005645Y004076D01*
X005705Y004100D02*
X005510Y004019D01*
X005361Y003870D01*
X005280Y003675D01*
X005280Y003465D01*
X005361Y003270D01*
X005510Y003121D01*
X005705Y003040D01*
X005915Y003040D01*
X006110Y003121D01*
X006259Y003270D01*
X006340Y003465D01*
X006340Y003675D01*
X006259Y003870D01*
X006110Y004019D01*
X005915Y004100D01*
X005705Y004100D01*
X005975Y004076D02*
X012493Y004076D01*
X012334Y003917D02*
X006213Y003917D01*
X006306Y003759D02*
X012176Y003759D01*
X012017Y003600D02*
X006340Y003600D01*
X006330Y003442D02*
X011859Y003442D01*
X011700Y003283D02*
X006265Y003283D01*
X006114Y003125D02*
X011542Y003125D01*
X011383Y002966D02*
X000614Y002966D01*
X000614Y002808D02*
X011225Y002808D01*
X011180Y002649D02*
X000614Y002649D01*
X000614Y002491D02*
X001416Y002491D01*
X001511Y002530D02*
X001199Y002401D01*
X001199Y002401D01*
X000959Y002161D01*
X000830Y001849D01*
X000830Y001511D01*
X000959Y001199D01*
X001199Y000959D01*
X001511Y000830D01*
X001730Y000830D01*
X001849Y000830D01*
X001849Y000830D01*
X002161Y000959D01*
X002161Y000959D01*
X002401Y001199D01*
X002530Y001511D01*
X002530Y001849D01*
X002401Y002161D01*
X002401Y002161D01*
X002161Y002401D01*
X001849Y002530D01*
X001511Y002530D01*
X001130Y002332D02*
X000614Y002332D01*
X000614Y002174D02*
X000971Y002174D01*
X000959Y002161D02*
X000959Y002161D01*
X000899Y002015D02*
X000614Y002015D01*
X000614Y001857D02*
X000833Y001857D01*
X000830Y001698D02*
X000614Y001698D01*
X000615Y001540D02*
X000830Y001540D01*
X000884Y001381D02*
X000633Y001381D01*
X000684Y001223D02*
X000949Y001223D01*
X000959Y001199D02*
X000959Y001199D01*
X001094Y001064D02*
X000760Y001064D01*
X000875Y000906D02*
X001329Y000906D01*
X001199Y000959D02*
X001199Y000959D01*
X002031Y000906D02*
X029806Y000906D01*
X029760Y001064D02*
X002266Y001064D01*
X002401Y001199D02*
X002401Y001199D01*
X002411Y001223D02*
X029655Y001223D01*
X032435Y001540D02*
X033010Y001540D01*
X032901Y001698D02*
X032543Y001698D01*
X032593Y001857D02*
X032851Y001857D01*
X032851Y002015D02*
X032593Y002015D01*
X032538Y002174D02*
X032906Y002174D01*
X033021Y002332D02*
X032423Y002332D01*
X033678Y002649D02*
X026282Y002649D01*
X025402Y002966D02*
X024149Y002966D01*
X024307Y003125D02*
X025198Y003125D01*
X025160Y003283D02*
X024466Y003283D01*
X024624Y003442D02*
X024866Y003442D01*
X025443Y003600D02*
X026320Y003600D01*
X026184Y003759D02*
X025394Y003759D01*
X025296Y003917D02*
X026110Y003917D01*
X025952Y004076D02*
X025350Y004076D01*
X025333Y004234D02*
X025793Y004234D01*
X025635Y004393D02*
X025220Y004393D01*
X025476Y004551D02*
X024702Y004551D01*
X024750Y004710D02*
X025318Y004710D01*
X025159Y004868D02*
X024719Y004868D01*
X024550Y005027D02*
X025001Y005027D01*
X024842Y005185D02*
X022908Y005185D01*
X023066Y005027D02*
X024310Y005027D01*
X024141Y004868D02*
X023225Y004868D01*
X023383Y004710D02*
X024110Y004710D01*
X024118Y004551D02*
X023542Y004551D01*
X023630Y004393D02*
X023960Y004393D01*
X023678Y004234D02*
X023630Y004234D01*
X024208Y004076D02*
X024693Y004076D01*
X024727Y004234D02*
X024367Y004234D01*
X024525Y004393D02*
X024840Y004393D01*
X024534Y003917D02*
X024100Y003917D01*
X024055Y003759D02*
X024376Y003759D01*
X024217Y003600D02*
X023630Y003600D01*
X023630Y003442D02*
X024059Y003442D01*
X023900Y003283D02*
X023630Y003283D01*
X023630Y003125D02*
X023742Y003125D01*
X022180Y003125D02*
X019730Y003125D01*
X019730Y003283D02*
X022180Y003283D01*
X022180Y003442D02*
X019730Y003442D01*
X019730Y003600D02*
X022180Y003600D01*
X022180Y003759D02*
X019730Y003759D01*
X019730Y003917D02*
X022180Y003917D01*
X022180Y004076D02*
X019667Y004076D01*
X019509Y004234D02*
X021708Y004234D01*
X021541Y004393D02*
X019350Y004393D01*
X019192Y004551D02*
X021510Y004551D01*
X021368Y004710D02*
X019033Y004710D01*
X018875Y004868D02*
X019939Y004868D01*
X019860Y005027D02*
X018716Y005027D01*
X018938Y005185D02*
X019122Y005185D01*
X019538Y005185D02*
X019792Y005185D01*
X020369Y005344D02*
X020734Y005344D01*
X020575Y005502D02*
X020041Y005502D01*
X019882Y005661D02*
X020417Y005661D01*
X020258Y005819D02*
X019724Y005819D01*
X019650Y005978D02*
X020100Y005978D01*
X019941Y006136D02*
X019577Y006136D01*
X019783Y006295D02*
X018427Y006295D01*
X018269Y006136D02*
X019083Y006136D01*
X019010Y005978D02*
X018110Y005978D01*
X018139Y005819D02*
X019030Y005819D01*
X018952Y005661D02*
X019108Y005661D01*
X018508Y005661D02*
X018148Y005661D01*
X018241Y005502D02*
X018413Y005502D01*
X018399Y005344D02*
X018419Y005344D01*
X017992Y005185D02*
X017976Y005185D01*
X018090Y005071D02*
X017821Y005340D01*
X017630Y005340D01*
X017630Y004880D01*
X017630Y004880D01*
X018090Y004880D01*
X018090Y005071D01*
X018090Y005027D02*
X018151Y005027D01*
X018090Y004880D02*
X017630Y004880D01*
X017630Y004880D01*
X017630Y004880D01*
X017170Y004880D01*
X017170Y005071D01*
X017439Y005340D01*
X017630Y005340D01*
X017630Y004880D01*
X017630Y004420D01*
X017821Y004420D01*
X018090Y004689D01*
X018090Y004880D01*
X018090Y004868D02*
X018309Y004868D01*
X018468Y004710D02*
X018090Y004710D01*
X017952Y004551D02*
X018626Y004551D01*
X017630Y004551D02*
X017630Y004551D01*
X017630Y004420D02*
X017630Y004880D01*
X017630Y004880D01*
X017170Y004880D01*
X017170Y004689D01*
X017439Y004420D01*
X017630Y004420D01*
X017630Y004710D02*
X017630Y004710D01*
X017630Y004868D02*
X017630Y004868D01*
X017630Y005027D02*
X017630Y005027D01*
X017630Y005185D02*
X017630Y005185D01*
X017834Y005344D02*
X016230Y005344D01*
X016255Y005502D02*
X017605Y005502D01*
X017512Y005661D02*
X016348Y005661D01*
X016402Y005819D02*
X017521Y005819D01*
X016821Y005340D02*
X016630Y005340D01*
X016630Y004880D01*
X016630Y004880D01*
X017090Y004880D01*
X017090Y005071D01*
X016821Y005340D01*
X016630Y005340D02*
X016439Y005340D01*
X016170Y005071D01*
X016170Y004880D01*
X016630Y004880D01*
X016630Y004880D01*
X016630Y004880D01*
X016630Y005340D01*
X016630Y005185D02*
X016630Y005185D01*
X016630Y005027D02*
X016630Y005027D01*
X016630Y004880D02*
X016170Y004880D01*
X016170Y004689D01*
X016439Y004420D01*
X016630Y004420D01*
X016821Y004420D01*
X017090Y004689D01*
X017090Y004880D01*
X016630Y004880D01*
X016630Y004420D01*
X016630Y004880D01*
X016630Y004880D01*
X016630Y004868D02*
X016630Y004868D01*
X016630Y004710D02*
X016630Y004710D01*
X016630Y004551D02*
X016630Y004551D01*
X016952Y004551D02*
X017308Y004551D01*
X017170Y004710D02*
X017090Y004710D01*
X017090Y004868D02*
X017170Y004868D01*
X017170Y005027D02*
X017090Y005027D01*
X016976Y005185D02*
X017284Y005185D01*
X016284Y005185D02*
X016168Y005185D01*
X016170Y005027D02*
X016070Y005027D01*
X016070Y004868D02*
X016170Y004868D01*
X016170Y004710D02*
X016070Y004710D01*
X015923Y004551D02*
X016308Y004551D01*
X015337Y004551D02*
X014923Y004551D01*
X015070Y004710D02*
X015190Y004710D01*
X015190Y004868D02*
X015070Y004868D01*
X015109Y005027D02*
X015190Y005027D01*
X015268Y005185D02*
X015313Y005185D01*
X015426Y005344D02*
X015761Y005344D01*
X015805Y005502D02*
X015585Y005502D01*
X014313Y005185D02*
X013947Y005185D01*
X014070Y005027D02*
X014190Y005027D01*
X014190Y004868D02*
X014070Y004868D01*
X014070Y004710D02*
X014190Y004710D01*
X014337Y004551D02*
X013923Y004551D01*
X012313Y005185D02*
X009898Y005185D01*
X010037Y005344D02*
X012761Y005344D01*
X012919Y005502D02*
X010098Y005502D01*
X010098Y005661D02*
X012954Y005661D01*
X012910Y005819D02*
X010044Y005819D01*
X009916Y005978D02*
X012945Y005978D01*
X013729Y006612D02*
X000614Y006612D01*
X000614Y006770D02*
X013887Y006770D01*
X014046Y006929D02*
X000614Y006929D01*
X000614Y007087D02*
X014204Y007087D01*
X014363Y007246D02*
X000614Y007246D01*
X000614Y007404D02*
X014521Y007404D01*
X014680Y007563D02*
X000614Y007563D01*
X000614Y007721D02*
X014838Y007721D01*
X014997Y007880D02*
X000614Y007880D01*
X000614Y008038D02*
X015155Y008038D01*
X015314Y008197D02*
X000614Y008197D01*
X000614Y008355D02*
X018122Y008355D01*
X017964Y008514D02*
X017886Y008514D01*
X017374Y008514D02*
X016886Y008514D01*
X016812Y008440D02*
X017070Y008698D01*
X017070Y009062D01*
X016812Y009320D01*
X016448Y009320D01*
X016190Y009062D01*
X016190Y008698D01*
X016448Y008440D01*
X016812Y008440D01*
X017044Y008672D02*
X017216Y008672D01*
X017190Y008831D02*
X017070Y008831D01*
X017070Y008989D02*
X017190Y008989D01*
X017275Y009148D02*
X016985Y009148D01*
X016826Y009306D02*
X017434Y009306D01*
X017293Y009465D02*
X009597Y009465D01*
X009756Y009623D02*
X017178Y009623D01*
X017160Y009782D02*
X009914Y009782D01*
X010073Y009940D02*
X017237Y009940D01*
X017280Y010099D02*
X010231Y010099D01*
X010390Y010257D02*
X017280Y010257D01*
X017310Y010416D02*
X010548Y010416D01*
X010707Y010574D02*
X017371Y010574D01*
X017695Y010733D02*
X010865Y010733D01*
X011024Y010891D02*
X017536Y010891D01*
X017378Y011050D02*
X011182Y011050D01*
X011341Y011208D02*
X017219Y011208D01*
X017061Y011367D02*
X015869Y011367D01*
X015950Y011525D02*
X016902Y011525D01*
X016744Y011684D02*
X016150Y011684D01*
X016319Y011842D02*
X016585Y011842D01*
X016427Y012001D02*
X016350Y012001D01*
X016834Y012159D02*
X017518Y012159D01*
X017360Y012318D02*
X016675Y012318D01*
X016517Y012476D02*
X017201Y012476D01*
X017043Y012635D02*
X016358Y012635D01*
X016200Y012793D02*
X016884Y012793D01*
X016726Y012952D02*
X016041Y012952D01*
X015883Y013110D02*
X016567Y013110D01*
X016409Y013269D02*
X015724Y013269D01*
X015566Y013427D02*
X016250Y013427D01*
X016092Y013586D02*
X015407Y013586D01*
X015249Y013744D02*
X015933Y013744D01*
X015775Y013903D02*
X015100Y013903D01*
X014842Y013586D02*
X013718Y013586D01*
X013877Y013744D02*
X013913Y013744D01*
X013470Y013903D02*
X010000Y013903D01*
X010000Y013976D02*
X009939Y014122D01*
X009828Y014233D01*
X009682Y014293D01*
X009524Y014293D01*
X009379Y014233D01*
X009267Y014122D01*
X009207Y013976D01*
X009207Y013818D01*
X009267Y013672D01*
X009379Y013561D01*
X009524Y013500D01*
X009682Y013500D01*
X009828Y013561D01*
X009939Y013672D01*
X010000Y013818D01*
X010000Y013976D01*
X009964Y014061D02*
X013628Y014061D01*
X013787Y014220D02*
X009841Y014220D01*
X009365Y014220D02*
X000614Y014220D01*
X000614Y014378D02*
X012623Y014378D01*
X012837Y014378D02*
X013945Y014378D01*
X014447Y013744D02*
X014513Y013744D01*
X015000Y013427D02*
X013560Y013427D01*
X013401Y013269D02*
X015159Y013269D01*
X015317Y013110D02*
X013243Y013110D01*
X013084Y012952D02*
X015476Y012952D01*
X015634Y012793D02*
X012926Y012793D01*
X012767Y012635D02*
X015793Y012635D01*
X014673Y012476D02*
X012609Y012476D01*
X012450Y012318D02*
X014610Y012318D01*
X014634Y012159D02*
X012292Y012159D01*
X012133Y012001D02*
X014769Y012001D01*
X015091Y012001D02*
X015569Y012001D01*
X015439Y011842D02*
X011975Y011842D01*
X011816Y011684D02*
X015327Y011684D01*
X015310Y011525D02*
X011658Y011525D01*
X011499Y011367D02*
X015391Y011367D01*
X016992Y012001D02*
X017677Y012001D01*
X017835Y011842D02*
X017151Y011842D01*
X017309Y011684D02*
X017994Y011684D01*
X018152Y011525D02*
X017468Y011525D01*
X017626Y011367D02*
X018260Y011367D01*
X018305Y011208D02*
X017785Y011208D01*
X017943Y011050D02*
X019478Y011050D01*
X019319Y011208D02*
X018855Y011208D01*
X018900Y011367D02*
X019161Y011367D01*
X019030Y011525D02*
X018866Y011525D01*
X019030Y011684D02*
X018683Y011684D01*
X018401Y011842D02*
X019030Y011842D01*
X019030Y012001D02*
X018242Y012001D01*
X018084Y012159D02*
X019030Y012159D01*
X018930Y012318D02*
X017925Y012318D01*
X017767Y012476D02*
X018581Y012476D01*
X018473Y012635D02*
X017608Y012635D01*
X017450Y012793D02*
X018434Y012793D01*
X018276Y012952D02*
X017291Y012952D01*
X017133Y013110D02*
X018117Y013110D01*
X017959Y013269D02*
X016974Y013269D01*
X016816Y013427D02*
X017800Y013427D01*
X017642Y013586D02*
X016657Y013586D01*
X016499Y013744D02*
X017483Y013744D01*
X017325Y013903D02*
X016340Y013903D01*
X016182Y014061D02*
X017166Y014061D01*
X017008Y014220D02*
X016023Y014220D01*
X017498Y014695D02*
X018782Y014695D01*
X018624Y014854D02*
X017339Y014854D01*
X017200Y015012D02*
X018465Y015012D01*
X018307Y015171D02*
X017142Y015171D01*
X016814Y015329D02*
X018148Y015329D01*
X017990Y015488D02*
X016655Y015488D01*
X016497Y015646D02*
X017831Y015646D01*
X017673Y015805D02*
X016338Y015805D01*
X016469Y015905D02*
X016675Y015820D01*
X016897Y015820D01*
X017103Y015905D01*
X017261Y016063D01*
X017346Y016269D01*
X017346Y016491D01*
X017261Y016697D01*
X017103Y016855D01*
X016897Y016940D01*
X016675Y016940D01*
X016469Y016855D01*
X016311Y016697D01*
X016226Y016491D01*
X016226Y016269D01*
X016311Y016063D01*
X016469Y015905D01*
X016411Y015963D02*
X016180Y015963D01*
X016287Y016122D02*
X016021Y016122D01*
X015968Y016280D02*
X016226Y016280D01*
X016226Y016439D02*
X015968Y016439D01*
X015924Y016597D02*
X016270Y016597D01*
X016369Y016756D02*
X015824Y016756D01*
X015582Y016914D02*
X016612Y016914D01*
X016960Y016914D02*
X017063Y016914D01*
X017202Y016756D02*
X017222Y016756D01*
X017302Y016597D02*
X017380Y016597D01*
X017346Y016439D02*
X017430Y016439D01*
X017430Y016280D02*
X017346Y016280D01*
X017285Y016122D02*
X017430Y016122D01*
X017514Y015963D02*
X017161Y015963D01*
X018238Y015805D02*
X020730Y015805D01*
X020881Y015646D02*
X018397Y015646D01*
X018555Y015488D02*
X021040Y015488D01*
X021198Y015329D02*
X018714Y015329D01*
X018872Y015171D02*
X021357Y015171D01*
X021515Y015012D02*
X019031Y015012D01*
X019189Y014854D02*
X021674Y014854D01*
X021832Y014695D02*
X020498Y014695D01*
X020656Y014537D02*
X021991Y014537D01*
X022149Y014378D02*
X020815Y014378D01*
X020973Y014220D02*
X022308Y014220D01*
X022466Y014061D02*
X021132Y014061D01*
X021290Y013903D02*
X022625Y013903D01*
X022783Y013744D02*
X021449Y013744D01*
X021607Y013586D02*
X022942Y013586D01*
X023100Y013427D02*
X021766Y013427D01*
X021924Y013269D02*
X023259Y013269D01*
X023417Y013110D02*
X022083Y013110D01*
X022241Y012952D02*
X023576Y012952D01*
X023734Y012793D02*
X022400Y012793D01*
X022558Y012635D02*
X023893Y012635D01*
X024051Y012476D02*
X022717Y012476D01*
X022875Y012318D02*
X023545Y012318D01*
X023457Y012159D02*
X023034Y012159D01*
X023192Y012001D02*
X023440Y012001D01*
X023482Y011842D02*
X023351Y011842D01*
X023509Y011684D02*
X023604Y011684D01*
X023668Y011525D02*
X024980Y011525D01*
X024980Y011367D02*
X023826Y011367D01*
X023985Y011208D02*
X024980Y011208D01*
X024980Y011050D02*
X024143Y011050D01*
X024302Y010891D02*
X024980Y010891D01*
X024980Y010733D02*
X024460Y010733D01*
X024619Y010574D02*
X024980Y010574D01*
X024980Y010416D02*
X024777Y010416D01*
X024936Y010257D02*
X024980Y010257D01*
X024980Y010099D02*
X024980Y010099D01*
X024980Y009940D02*
X024980Y009940D01*
X024980Y009782D02*
X024980Y009782D01*
X024980Y009623D02*
X024980Y009623D01*
X024980Y009465D02*
X024980Y009465D01*
X024980Y009306D02*
X024939Y009306D01*
X024980Y009148D02*
X024780Y009148D01*
X024622Y008989D02*
X024980Y008989D01*
X024980Y008831D02*
X024463Y008831D01*
X024305Y008672D02*
X024980Y008672D01*
X024980Y008514D02*
X024146Y008514D01*
X024000Y008355D02*
X024980Y008355D01*
X024980Y008197D02*
X024146Y008197D01*
X024305Y008038D02*
X024980Y008038D01*
X024875Y007880D02*
X024593Y007880D01*
X024768Y007721D02*
X024860Y007721D01*
X024800Y007563D02*
X024945Y007563D01*
X024921Y007404D02*
X024753Y007404D01*
X024763Y007246D02*
X023347Y007246D01*
X023189Y007404D02*
X024207Y007404D01*
X024160Y007563D02*
X023030Y007563D01*
X022872Y007721D02*
X024056Y007721D01*
X023898Y007880D02*
X022713Y007880D01*
X022555Y008038D02*
X023739Y008038D01*
X023011Y008197D02*
X022528Y008197D01*
X022402Y008355D02*
X022960Y008355D01*
X022989Y008514D02*
X022546Y008514D01*
X022705Y008672D02*
X023149Y008672D01*
X022863Y008831D02*
X023448Y008831D01*
X023606Y008989D02*
X023022Y008989D01*
X023180Y009148D02*
X023765Y009148D01*
X023923Y009306D02*
X023339Y009306D01*
X023497Y009465D02*
X024082Y009465D01*
X024160Y009623D02*
X023656Y009623D01*
X023984Y009782D02*
X024229Y009782D01*
X024050Y009940D02*
X024580Y009940D01*
X024529Y010099D02*
X024027Y010099D01*
X023897Y010257D02*
X024370Y010257D01*
X024212Y010416D02*
X022127Y010416D01*
X021969Y010574D02*
X024053Y010574D01*
X023895Y010733D02*
X021810Y010733D01*
X021652Y010891D02*
X023736Y010891D01*
X023578Y011050D02*
X021493Y011050D01*
X021335Y011208D02*
X023419Y011208D01*
X023261Y011367D02*
X021176Y011367D01*
X021018Y011525D02*
X023102Y011525D01*
X022944Y011684D02*
X022256Y011684D01*
X022378Y011842D02*
X022785Y011842D01*
X022627Y012001D02*
X022420Y012001D01*
X022403Y012159D02*
X022468Y012159D01*
X022151Y012476D02*
X019780Y012476D01*
X019780Y012318D02*
X021645Y012318D01*
X021557Y012159D02*
X019780Y012159D01*
X019780Y012001D02*
X021540Y012001D01*
X021582Y011842D02*
X019780Y011842D01*
X019780Y011684D02*
X019977Y011684D01*
X020183Y011684D02*
X021704Y011684D01*
X020769Y011208D02*
X020485Y011208D01*
X020385Y011280D02*
X020385Y011280D01*
X020813Y011050D02*
X020928Y011050D01*
X020900Y010891D02*
X021086Y010891D01*
X021230Y010733D02*
X021245Y010733D01*
X021337Y010574D02*
X021403Y010574D01*
X021350Y010416D02*
X021562Y010416D01*
X021720Y010257D02*
X021260Y010257D01*
X020800Y010257D02*
X018555Y010257D01*
X018600Y010416D02*
X020112Y010416D01*
X019953Y010574D02*
X018567Y010574D01*
X018386Y010733D02*
X019795Y010733D01*
X019636Y010891D02*
X018102Y010891D01*
X017960Y010416D02*
X017950Y010416D01*
X017925Y010257D02*
X018005Y010257D01*
X017787Y010099D02*
X021879Y010099D01*
X022037Y009940D02*
X017723Y009940D01*
X017800Y009782D02*
X022079Y009782D01*
X021972Y009623D02*
X017782Y009623D01*
X017667Y009465D02*
X021961Y009465D01*
X021873Y009306D02*
X017826Y009306D01*
X017985Y009148D02*
X021715Y009148D01*
X021556Y008989D02*
X018070Y008989D01*
X018212Y008831D02*
X018319Y008831D01*
X018541Y008831D02*
X021398Y008831D01*
X021239Y008672D02*
X018771Y008672D01*
X018929Y008514D02*
X021081Y008514D01*
X021030Y008355D02*
X019088Y008355D01*
X019246Y008197D02*
X020932Y008197D01*
X020910Y008038D02*
X019405Y008038D01*
X019563Y007880D02*
X020777Y007880D01*
X020671Y007721D02*
X019722Y007721D01*
X019880Y007563D02*
X020662Y007563D01*
X020753Y007404D02*
X020039Y007404D01*
X020197Y007246D02*
X020780Y007246D01*
X020780Y007087D02*
X020356Y007087D01*
X020514Y006929D02*
X020780Y006929D01*
X020780Y006770D02*
X020673Y006770D01*
X020730Y006612D02*
X020780Y006612D01*
X020824Y006453D02*
X020730Y006453D01*
X020730Y006295D02*
X020842Y006295D01*
X020760Y006136D02*
X020757Y006136D01*
X020330Y006453D02*
X020190Y006453D01*
X020266Y006612D02*
X020031Y006612D01*
X020107Y006770D02*
X019873Y006770D01*
X019949Y006929D02*
X019750Y006929D01*
X019711Y007087D02*
X019790Y007087D01*
X019632Y007246D02*
X019504Y007246D01*
X019356Y007246D02*
X018879Y007246D01*
X018900Y007087D02*
X019149Y007087D01*
X019110Y006929D02*
X018834Y006929D01*
X018900Y006770D02*
X019150Y006770D01*
X019363Y006612D02*
X018877Y006612D01*
X018747Y006453D02*
X019624Y006453D01*
X019473Y007404D02*
X018755Y007404D01*
X018857Y007563D02*
X019315Y007563D01*
X019156Y007721D02*
X018900Y007721D01*
X018864Y007880D02*
X018998Y007880D01*
X018839Y008038D02*
X018738Y008038D01*
X016374Y008514D02*
X015914Y008514D01*
X015821Y008420D02*
X016090Y008689D01*
X016090Y008880D01*
X016090Y009071D01*
X015821Y009340D01*
X015630Y009340D01*
X015630Y008880D01*
X015630Y008880D01*
X016090Y008880D01*
X015630Y008880D01*
X015630Y008880D01*
X015630Y008880D01*
X015170Y008880D01*
X015170Y009071D01*
X015439Y009340D01*
X015630Y009340D01*
X015630Y008880D01*
X015630Y008420D01*
X015821Y008420D01*
X015630Y008420D02*
X015630Y008880D01*
X015630Y008880D01*
X015170Y008880D01*
X015170Y008689D01*
X015439Y008420D01*
X015630Y008420D01*
X015630Y008514D02*
X015630Y008514D01*
X015630Y008672D02*
X015630Y008672D01*
X015630Y008831D02*
X015630Y008831D01*
X015630Y008989D02*
X015630Y008989D01*
X015630Y009148D02*
X015630Y009148D01*
X015630Y009306D02*
X015630Y009306D01*
X015855Y009306D02*
X016434Y009306D01*
X016275Y009148D02*
X016013Y009148D01*
X016090Y008989D02*
X016190Y008989D01*
X016190Y008831D02*
X016090Y008831D01*
X016073Y008672D02*
X016216Y008672D01*
X015346Y008514D02*
X014914Y008514D01*
X014821Y008420D02*
X015090Y008689D01*
X015090Y008880D01*
X015090Y009071D01*
X014821Y009340D01*
X014630Y009340D01*
X014630Y008880D01*
X014630Y008880D01*
X015090Y008880D01*
X014630Y008880D01*
X014630Y008880D01*
X014630Y008880D01*
X014170Y008880D01*
X014170Y009071D01*
X014439Y009340D01*
X014630Y009340D01*
X014630Y008880D01*
X014630Y008420D01*
X014821Y008420D01*
X014630Y008420D02*
X014630Y008880D01*
X014630Y008880D01*
X014170Y008880D01*
X014170Y008689D01*
X014439Y008420D01*
X014630Y008420D01*
X014630Y008514D02*
X014630Y008514D01*
X014630Y008672D02*
X014630Y008672D01*
X014630Y008831D02*
X014630Y008831D01*
X014630Y008989D02*
X014630Y008989D01*
X014630Y009148D02*
X014630Y009148D01*
X014630Y009306D02*
X014630Y009306D01*
X014855Y009306D02*
X015405Y009306D01*
X015247Y009148D02*
X015013Y009148D01*
X015090Y008989D02*
X015170Y008989D01*
X015170Y008831D02*
X015090Y008831D01*
X015073Y008672D02*
X015187Y008672D01*
X014346Y008514D02*
X013914Y008514D01*
X013821Y008420D02*
X014090Y008689D01*
X014090Y008880D01*
X014090Y009071D01*
X013821Y009340D01*
X013630Y009340D01*
X013630Y008880D01*
X013630Y008880D01*
X014090Y008880D01*
X013630Y008880D01*
X013630Y008880D01*
X013630Y008880D01*
X013170Y008880D01*
X013170Y009071D01*
X013439Y009340D01*
X013630Y009340D01*
X013630Y008880D01*
X013630Y008420D01*
X013821Y008420D01*
X013630Y008420D02*
X013630Y008880D01*
X013630Y008880D01*
X013170Y008880D01*
X013170Y008689D01*
X013439Y008420D01*
X013630Y008420D01*
X013630Y008514D02*
X013630Y008514D01*
X013630Y008672D02*
X013630Y008672D01*
X013630Y008831D02*
X013630Y008831D01*
X013630Y008989D02*
X013630Y008989D01*
X013630Y009148D02*
X013630Y009148D01*
X013630Y009306D02*
X013630Y009306D01*
X013855Y009306D02*
X014405Y009306D01*
X014247Y009148D02*
X014013Y009148D01*
X014090Y008989D02*
X014170Y008989D01*
X014170Y008831D02*
X014090Y008831D01*
X014073Y008672D02*
X014187Y008672D01*
X013346Y008514D02*
X012914Y008514D01*
X012821Y008420D02*
X013090Y008689D01*
X013090Y008880D01*
X013090Y009071D01*
X012821Y009340D01*
X012630Y009340D01*
X012630Y008880D01*
X012630Y008880D01*
X013090Y008880D01*
X012630Y008880D01*
X012630Y008880D01*
X012630Y008880D01*
X012170Y008880D01*
X012170Y009071D01*
X012439Y009340D01*
X012630Y009340D01*
X012630Y008880D01*
X012630Y008420D01*
X012821Y008420D01*
X012630Y008420D02*
X012630Y008880D01*
X012630Y008880D01*
X012170Y008880D01*
X012170Y008689D01*
X012439Y008420D01*
X012630Y008420D01*
X012630Y008514D02*
X012630Y008514D01*
X012630Y008672D02*
X012630Y008672D01*
X012630Y008831D02*
X012630Y008831D01*
X012630Y008989D02*
X012630Y008989D01*
X012630Y009148D02*
X012630Y009148D01*
X012630Y009306D02*
X012630Y009306D01*
X012855Y009306D02*
X013405Y009306D01*
X013247Y009148D02*
X013013Y009148D01*
X013090Y008989D02*
X013170Y008989D01*
X013170Y008831D02*
X013090Y008831D01*
X013073Y008672D02*
X013187Y008672D01*
X012346Y008514D02*
X000614Y008514D01*
X000614Y008672D02*
X012187Y008672D01*
X012170Y008831D02*
X000614Y008831D01*
X000614Y008989D02*
X008768Y008989D01*
X008710Y009148D02*
X000614Y009148D01*
X000614Y009306D02*
X008736Y009306D01*
X008881Y009465D02*
X000614Y009465D01*
X000614Y009623D02*
X009190Y009623D01*
X009349Y009782D02*
X000614Y009782D01*
X000614Y009940D02*
X009507Y009940D01*
X009666Y010099D02*
X000614Y010099D01*
X000614Y010257D02*
X009824Y010257D01*
X009983Y010416D02*
X000614Y010416D01*
X000614Y010574D02*
X010141Y010574D01*
X010300Y010733D02*
X000614Y010733D01*
X000614Y010891D02*
X010458Y010891D01*
X010617Y011050D02*
X000614Y011050D01*
X000614Y011208D02*
X010775Y011208D01*
X010934Y011367D02*
X000614Y011367D01*
X000614Y011525D02*
X011092Y011525D01*
X011251Y011684D02*
X000614Y011684D01*
X000614Y011842D02*
X011409Y011842D01*
X011568Y012001D02*
X000614Y012001D01*
X000614Y012159D02*
X011726Y012159D01*
X011885Y012318D02*
X000614Y012318D01*
X000614Y012476D02*
X012043Y012476D01*
X012202Y012635D02*
X000614Y012635D01*
X000614Y012793D02*
X012360Y012793D01*
X012519Y012952D02*
X000614Y012952D01*
X000614Y013110D02*
X012677Y013110D01*
X012836Y013269D02*
X000614Y013269D01*
X000614Y013427D02*
X012994Y013427D01*
X013153Y013586D02*
X009853Y013586D01*
X009969Y013744D02*
X013311Y013744D01*
X012443Y014537D02*
X000614Y014537D01*
X000614Y014695D02*
X003610Y014695D01*
X003695Y014660D02*
X003500Y014741D01*
X003351Y014890D01*
X003270Y015085D01*
X003270Y015295D01*
X003351Y015490D01*
X003500Y015639D01*
X003695Y015720D01*
X003905Y015720D01*
X004100Y015639D01*
X004249Y015490D01*
X004330Y015295D01*
X004330Y015085D01*
X004249Y014890D01*
X004100Y014741D01*
X003905Y014660D01*
X003695Y014660D01*
X003990Y014695D02*
X006120Y014695D01*
X006149Y014680D02*
X006231Y014654D01*
X006317Y014640D01*
X006340Y014640D01*
X006340Y015170D01*
X006380Y015170D01*
X006380Y015210D01*
X006910Y015210D01*
X006910Y015233D01*
X006896Y015319D01*
X006870Y015401D01*
X006830Y015478D01*
X006780Y015548D01*
X006718Y015610D01*
X006648Y015660D01*
X006571Y015700D01*
X006489Y015726D01*
X006403Y015740D01*
X006380Y015740D01*
X006380Y015210D01*
X006340Y015210D01*
X006340Y015740D01*
X006317Y015740D01*
X006231Y015726D01*
X006149Y015700D01*
X006072Y015660D01*
X006002Y015610D01*
X005940Y015548D01*
X005890Y015478D01*
X005850Y015401D01*
X005824Y015319D01*
X005810Y015233D01*
X005810Y015210D01*
X006340Y015210D01*
X006340Y015170D01*
X005810Y015170D01*
X005810Y015147D01*
X005824Y015061D01*
X005850Y014979D01*
X005890Y014902D01*
X005940Y014832D01*
X006002Y014770D01*
X006072Y014720D01*
X006149Y014680D01*
X006340Y014695D02*
X006380Y014695D01*
X006380Y014640D02*
X006403Y014640D01*
X006489Y014654D01*
X006571Y014680D01*
X006648Y014720D01*
X006718Y014770D01*
X006780Y014832D01*
X006830Y014902D01*
X006870Y014979D01*
X006896Y015061D01*
X006910Y015147D01*
X006910Y015170D01*
X006380Y015170D01*
X006380Y014640D01*
X006380Y014854D02*
X006340Y014854D01*
X006340Y015012D02*
X006380Y015012D01*
X006380Y015171D02*
X008129Y015171D01*
X008098Y015329D02*
X006893Y015329D01*
X006824Y015488D02*
X007940Y015488D01*
X008347Y015646D02*
X008385Y015646D01*
X008254Y015805D02*
X008188Y015805D01*
X008200Y015963D02*
X008160Y015963D01*
X008160Y016122D02*
X008200Y016122D01*
X008264Y016280D02*
X008096Y016280D01*
X007948Y016439D02*
X008412Y016439D01*
X008471Y016597D02*
X007889Y016597D01*
X007952Y016623D02*
X008087Y016758D01*
X008160Y016935D01*
X008160Y017125D01*
X008087Y017302D01*
X007952Y017437D01*
X007775Y017510D01*
X007585Y017510D01*
X007408Y017437D01*
X007273Y017302D01*
X007200Y017125D01*
X007200Y016935D01*
X007273Y016758D01*
X007408Y016623D01*
X007585Y016550D01*
X007775Y016550D01*
X007952Y016623D01*
X008084Y016756D02*
X008276Y016756D01*
X008208Y016914D02*
X008152Y016914D01*
X008160Y017073D02*
X008200Y017073D01*
X008244Y017231D02*
X008116Y017231D01*
X007999Y017390D02*
X008361Y017390D01*
X008999Y017390D02*
X009332Y017390D01*
X009354Y017411D02*
X009299Y017356D01*
X009252Y017292D01*
X009217Y017222D01*
X009192Y017147D01*
X009180Y017069D01*
X009180Y017039D01*
X009671Y017039D01*
X009671Y017530D01*
X009641Y017530D01*
X009563Y017518D01*
X009488Y017493D01*
X009418Y017458D01*
X009354Y017411D01*
X009221Y017231D02*
X009116Y017231D01*
X009160Y017073D02*
X009181Y017073D01*
X009192Y016914D02*
X009152Y016914D01*
X009671Y016914D02*
X009689Y016914D01*
X009689Y017021D02*
X009689Y016530D01*
X009719Y016530D01*
X009797Y016542D01*
X009872Y016567D01*
X009942Y016602D01*
X010006Y016649D01*
X010061Y016704D01*
X010108Y016768D01*
X010143Y016838D01*
X010168Y016913D01*
X010180Y016991D01*
X010180Y017021D01*
X009689Y017021D01*
X009689Y017039D01*
X009671Y017039D01*
X009671Y017021D01*
X009689Y017021D01*
X009689Y017039D02*
X010180Y017039D01*
X010180Y017069D01*
X010168Y017147D01*
X010143Y017222D01*
X010108Y017292D01*
X010061Y017356D01*
X010006Y017411D01*
X009942Y017458D01*
X009872Y017493D01*
X009797Y017518D01*
X009719Y017530D01*
X009689Y017530D01*
X009689Y017039D01*
X009689Y017073D02*
X009671Y017073D01*
X009671Y017231D02*
X009689Y017231D01*
X009689Y017390D02*
X009671Y017390D01*
X010028Y017390D02*
X011262Y017390D01*
X011272Y017400D02*
X011210Y017338D01*
X011160Y017268D01*
X011120Y017191D01*
X011094Y017109D01*
X011080Y017023D01*
X011080Y016980D01*
X011630Y016980D01*
X012180Y016980D01*
X012180Y017023D01*
X012166Y017109D01*
X012140Y017191D01*
X012100Y017268D01*
X012050Y017338D01*
X011988Y017400D01*
X011918Y017450D01*
X011841Y017490D01*
X011759Y017516D01*
X011673Y017530D01*
X011630Y017530D01*
X011630Y016980D01*
X011630Y016980D01*
X011630Y016980D01*
X012180Y016980D01*
X012180Y016937D01*
X012166Y016851D01*
X012140Y016769D01*
X012100Y016692D01*
X012050Y016622D01*
X011988Y016560D01*
X011918Y016510D01*
X011841Y016470D01*
X011836Y016469D01*
X011930Y016429D01*
X012079Y016280D01*
X012160Y016085D01*
X012160Y015875D01*
X012079Y015680D01*
X011930Y015531D01*
X011735Y015450D01*
X011525Y015450D01*
X011330Y015531D01*
X011181Y015680D01*
X011100Y015875D01*
X011100Y016085D01*
X011181Y016280D01*
X011330Y016429D01*
X011424Y016469D01*
X011419Y016470D01*
X011342Y016510D01*
X011272Y016560D01*
X011210Y016622D01*
X011160Y016692D01*
X011120Y016769D01*
X011094Y016851D01*
X011080Y016937D01*
X011080Y016980D01*
X011630Y016980D01*
X011630Y016980D01*
X011630Y017530D01*
X011587Y017530D01*
X011501Y017516D01*
X011419Y017490D01*
X011342Y017450D01*
X011272Y017400D01*
X011141Y017231D02*
X010139Y017231D01*
X010179Y017073D02*
X011088Y017073D01*
X011084Y016914D02*
X010168Y016914D01*
X010099Y016756D02*
X011127Y016756D01*
X011235Y016597D02*
X009932Y016597D01*
X009948Y016439D02*
X011352Y016439D01*
X011181Y016280D02*
X010096Y016280D01*
X009689Y016597D02*
X009671Y016597D01*
X009671Y016756D02*
X009689Y016756D01*
X009200Y016122D02*
X009160Y016122D01*
X009160Y015963D02*
X009200Y015963D01*
X009254Y015805D02*
X009106Y015805D01*
X008975Y015646D02*
X009385Y015646D01*
X009975Y015646D02*
X010631Y015646D01*
X010473Y015805D02*
X010106Y015805D01*
X010721Y016122D02*
X011115Y016122D01*
X011100Y015963D02*
X010880Y015963D01*
X011038Y015805D02*
X011129Y015805D01*
X011197Y015646D02*
X011214Y015646D01*
X011355Y015488D02*
X011434Y015488D01*
X011826Y015488D02*
X011905Y015488D01*
X012046Y015646D02*
X012063Y015646D01*
X012131Y015805D02*
X012222Y015805D01*
X012160Y015963D02*
X012380Y015963D01*
X012539Y016122D02*
X012145Y016122D01*
X012079Y016280D02*
X012697Y016280D01*
X012856Y016439D02*
X011908Y016439D01*
X012025Y016597D02*
X013014Y016597D01*
X013173Y016756D02*
X012133Y016756D01*
X012176Y016914D02*
X013281Y016914D01*
X013440Y017073D02*
X012172Y017073D01*
X012119Y017231D02*
X013598Y017231D01*
X014522Y016914D02*
X015234Y016914D01*
X014992Y016756D02*
X014590Y016756D01*
X014590Y016597D02*
X014892Y016597D01*
X014848Y016439D02*
X014590Y016439D01*
X014590Y016280D02*
X014848Y016280D01*
X014909Y016122D02*
X014590Y016122D01*
X014590Y015963D02*
X014830Y015963D01*
X014672Y015805D02*
X012787Y015805D01*
X012946Y015963D02*
X013470Y015963D01*
X013470Y016122D02*
X013104Y016122D01*
X013263Y016280D02*
X013470Y016280D01*
X013470Y016439D02*
X013421Y016439D01*
X011630Y017073D02*
X011630Y017073D01*
X011630Y017231D02*
X011630Y017231D01*
X011630Y017390D02*
X011630Y017390D01*
X011998Y017390D02*
X037974Y017390D01*
X038011Y017405D02*
X037699Y017276D01*
X037699Y017276D01*
X037459Y017036D01*
X037330Y016724D01*
X037330Y016386D01*
X037459Y016074D01*
X037699Y015834D01*
X038011Y015705D01*
X038349Y015705D01*
X038661Y015834D01*
X038661Y015834D01*
X038901Y016074D01*
X039030Y016386D01*
X039030Y016605D01*
X039030Y016724D01*
X039030Y016724D01*
X038901Y017036D01*
X038901Y017036D01*
X038661Y017276D01*
X038349Y017405D01*
X038011Y017405D01*
X038386Y017390D02*
X038892Y017390D01*
X039036Y017231D02*
X038706Y017231D01*
X038661Y017276D02*
X038661Y017276D01*
X038865Y017073D02*
X039140Y017073D01*
X039201Y016914D02*
X038951Y016914D01*
X039017Y016756D02*
X039241Y016756D01*
X039250Y016597D02*
X039030Y016597D01*
X039030Y016439D02*
X039250Y016439D01*
X039250Y016280D02*
X038986Y016280D01*
X038920Y016122D02*
X039250Y016122D01*
X039250Y015963D02*
X038790Y015963D01*
X038901Y016074D02*
X038901Y016074D01*
X038589Y015805D02*
X039250Y015805D01*
X039250Y015646D02*
X036737Y015646D01*
X036737Y015488D02*
X039250Y015488D01*
X039250Y015329D02*
X036737Y015329D01*
X036737Y015171D02*
X039250Y015171D01*
X039250Y015012D02*
X036737Y015012D01*
X036737Y014854D02*
X039250Y014854D01*
X039250Y014695D02*
X024798Y014695D01*
X024956Y014537D02*
X039250Y014537D01*
X039250Y014378D02*
X025115Y014378D01*
X025273Y014220D02*
X039250Y014220D01*
X039250Y014061D02*
X025432Y014061D01*
X025590Y013903D02*
X039250Y013903D01*
X039250Y013744D02*
X025749Y013744D01*
X025907Y013586D02*
X039250Y013586D01*
X039250Y013427D02*
X026066Y013427D01*
X026224Y013269D02*
X035484Y013269D01*
X035463Y013258D02*
X035365Y013197D01*
X035274Y013125D01*
X035193Y013043D01*
X035120Y012952D01*
X026541Y012952D01*
X026383Y013110D02*
X035260Y013110D01*
X035120Y012952D02*
X035059Y012854D01*
X035009Y012750D01*
X034970Y012641D01*
X034945Y012528D01*
X034934Y012435D01*
X035882Y012435D01*
X035882Y013383D01*
X035789Y013372D01*
X035676Y013347D01*
X035567Y013308D01*
X035463Y013258D01*
X035882Y013269D02*
X036042Y013269D01*
X036042Y013110D02*
X035882Y013110D01*
X035882Y012952D02*
X036042Y012952D01*
X036042Y012793D02*
X035882Y012793D01*
X035882Y012635D02*
X036042Y012635D01*
X036042Y012476D02*
X035882Y012476D01*
X035882Y012318D02*
X027175Y012318D01*
X027017Y012476D02*
X034939Y012476D01*
X034969Y012635D02*
X026858Y012635D01*
X026700Y012793D02*
X035029Y012793D01*
X036042Y012318D02*
X039250Y012318D01*
X039250Y012476D02*
X036985Y012476D01*
X036955Y012635D02*
X039250Y012635D01*
X039250Y012793D02*
X036894Y012793D01*
X036804Y012952D02*
X039250Y012952D01*
X039250Y013110D02*
X036664Y013110D01*
X036440Y013269D02*
X039250Y013269D01*
X039250Y012159D02*
X036973Y012159D01*
X036929Y012001D02*
X039250Y012001D01*
X039250Y011842D02*
X036856Y011842D01*
X036743Y011684D02*
X039250Y011684D01*
X039250Y011525D02*
X037289Y011525D01*
X037223Y011525D02*
X037063Y011525D01*
X036996Y011525D02*
X036573Y011525D01*
X036578Y011367D02*
X036254Y011367D01*
X036042Y011367D02*
X035882Y011367D01*
X035882Y011525D02*
X036042Y011525D01*
X036042Y011684D02*
X035882Y011684D01*
X035882Y011842D02*
X036042Y011842D01*
X036042Y012001D02*
X035882Y012001D01*
X035882Y012159D02*
X036042Y012159D01*
X035180Y011684D02*
X027809Y011684D01*
X027651Y011842D02*
X035068Y011842D01*
X034995Y012001D02*
X027550Y012001D01*
X027502Y012159D02*
X034950Y012159D01*
X037063Y011367D02*
X037223Y011367D01*
X037223Y011208D02*
X037063Y011208D01*
X037063Y011050D02*
X037223Y011050D01*
X037223Y010891D02*
X037063Y010891D01*
X037063Y010733D02*
X037223Y010733D01*
X037223Y010257D02*
X037063Y010257D01*
X037063Y010099D02*
X037223Y010099D01*
X037223Y009940D02*
X037063Y009940D01*
X037063Y009782D02*
X037223Y009782D01*
X037223Y009623D02*
X037063Y009623D01*
X036611Y009623D02*
X035273Y009623D01*
X035486Y009782D02*
X036410Y009782D01*
X036281Y009940D02*
X035621Y009940D01*
X035712Y010099D02*
X036195Y010099D01*
X036143Y010257D02*
X035760Y010257D01*
X035791Y010416D02*
X036116Y010416D01*
X037708Y011367D02*
X039250Y011367D01*
X039250Y011208D02*
X037896Y011208D01*
X038017Y011050D02*
X039250Y011050D01*
X039250Y010891D02*
X038099Y010891D01*
X038147Y010733D02*
X039250Y010733D01*
X034288Y009623D02*
X032338Y009623D01*
X032231Y009782D02*
X034076Y009782D01*
X037340Y008355D02*
X039250Y008355D01*
X039250Y008197D02*
X037462Y008197D01*
X037528Y008038D02*
X039250Y008038D01*
X039250Y007880D02*
X037560Y007880D01*
X037560Y007721D02*
X039250Y007721D01*
X039250Y007563D02*
X037528Y007563D01*
X037463Y007404D02*
X039250Y007404D01*
X039250Y007246D02*
X037341Y007246D01*
X037145Y007087D02*
X039250Y007087D01*
X039250Y006929D02*
X033864Y006929D01*
X033706Y007087D02*
X036355Y007087D01*
X036159Y007246D02*
X033547Y007246D01*
X033389Y007404D02*
X036037Y007404D01*
X035972Y007563D02*
X033230Y007563D01*
X033072Y007721D02*
X035940Y007721D01*
X034023Y006770D02*
X039250Y006770D01*
X039250Y006612D02*
X034181Y006612D01*
X034340Y006453D02*
X039250Y006453D01*
X039250Y006295D02*
X036029Y006295D01*
X036143Y006136D02*
X039250Y006136D01*
X039250Y005978D02*
X036188Y005978D01*
X036180Y005819D02*
X039250Y005819D01*
X039250Y005661D02*
X036119Y005661D01*
X035969Y005502D02*
X039250Y005502D01*
X039250Y005344D02*
X035967Y005344D01*
X036108Y005185D02*
X039250Y005185D01*
X039250Y005027D02*
X036170Y005027D01*
X036170Y004868D02*
X039250Y004868D01*
X039250Y004710D02*
X036116Y004710D01*
X035986Y004551D02*
X039250Y004551D01*
X039250Y004393D02*
X032500Y004393D01*
X032342Y004551D02*
X034594Y004551D01*
X034464Y004710D02*
X032183Y004710D01*
X032025Y004868D02*
X034410Y004868D01*
X034410Y005027D02*
X031866Y005027D01*
X031708Y005185D02*
X034472Y005185D01*
X034613Y005344D02*
X031549Y005344D01*
X031391Y005502D02*
X034634Y005502D01*
X034478Y005661D02*
X031232Y005661D01*
X031074Y005819D02*
X034408Y005819D01*
X034250Y005978D02*
X030915Y005978D01*
X030839Y006136D02*
X034091Y006136D01*
X033933Y006295D02*
X030900Y006295D01*
X030986Y006453D02*
X033774Y006453D01*
X033616Y006612D02*
X031144Y006612D01*
X031303Y006770D02*
X033457Y006770D01*
X033299Y006929D02*
X031461Y006929D01*
X031620Y007087D02*
X033140Y007087D01*
X032982Y007246D02*
X031778Y007246D01*
X034498Y006295D02*
X034579Y006295D01*
X035221Y006295D02*
X035331Y006295D01*
X035670Y006295D02*
X035690Y006295D01*
X035690Y006136D02*
X035670Y006136D01*
X035670Y005978D02*
X035690Y005978D01*
X035391Y005502D02*
X035166Y005502D01*
X035187Y005344D02*
X035393Y005344D01*
X035374Y004551D02*
X035206Y004551D01*
X034994Y004050D02*
X034866Y004050D01*
X034749Y004001D01*
X034677Y003930D01*
X034483Y003930D01*
X034411Y004001D01*
X034294Y004050D01*
X034166Y004050D01*
X034049Y004001D01*
X033959Y003911D01*
X033910Y003794D01*
X033910Y003666D01*
X033959Y003549D01*
X034049Y003459D01*
X034166Y003410D01*
X034294Y003410D01*
X034411Y003459D01*
X034483Y003530D01*
X034677Y003530D01*
X034749Y003459D01*
X034866Y003410D01*
X034994Y003410D01*
X035111Y003459D01*
X035201Y003549D01*
X035250Y003666D01*
X035250Y003794D01*
X035201Y003911D01*
X035111Y004001D01*
X034994Y004050D01*
X035196Y003917D02*
X039250Y003917D01*
X039250Y003759D02*
X037180Y003759D01*
X037209Y003747D02*
X036911Y003870D01*
X036589Y003870D01*
X036291Y003747D01*
X036063Y003519D01*
X035940Y003221D01*
X035940Y002899D01*
X036063Y002601D01*
X036291Y002373D01*
X036589Y002250D01*
X036911Y002250D01*
X037209Y002373D01*
X037437Y002601D01*
X037560Y002899D01*
X037560Y003221D01*
X037437Y003519D01*
X037209Y003747D01*
X037356Y003600D02*
X039250Y003600D01*
X039250Y003442D02*
X037469Y003442D01*
X037534Y003283D02*
X039250Y003283D01*
X039250Y003125D02*
X037560Y003125D01*
X037560Y002966D02*
X039250Y002966D01*
X039250Y002808D02*
X037522Y002808D01*
X037456Y002649D02*
X039250Y002649D01*
X039250Y002491D02*
X038444Y002491D01*
X038349Y002530D02*
X038011Y002530D01*
X037699Y002401D01*
X037699Y002401D01*
X037459Y002161D01*
X037330Y001849D01*
X037330Y001511D01*
X037459Y001199D01*
X037699Y000959D01*
X038011Y000830D01*
X038349Y000830D01*
X038661Y000959D01*
X038661Y000959D01*
X038901Y001199D01*
X039030Y001511D01*
X039030Y001630D01*
X039030Y001849D01*
X038901Y002161D01*
X038901Y002161D01*
X038661Y002401D01*
X038349Y002530D01*
X038661Y002401D02*
X038661Y002401D01*
X038730Y002332D02*
X039250Y002332D01*
X039250Y002174D02*
X038889Y002174D01*
X038961Y002015D02*
X039250Y002015D01*
X039250Y001857D02*
X039027Y001857D01*
X039030Y001698D02*
X039250Y001698D01*
X039245Y001540D02*
X039030Y001540D01*
X038976Y001381D02*
X039215Y001381D01*
X039164Y001223D02*
X038911Y001223D01*
X038901Y001199D02*
X038901Y001199D01*
X038766Y001064D02*
X039077Y001064D01*
X038961Y000906D02*
X038531Y000906D01*
X038746Y000747D02*
X035800Y000747D01*
X035754Y000906D02*
X037829Y000906D01*
X037699Y000959D02*
X037699Y000959D01*
X037594Y001064D02*
X035680Y001064D01*
X035670Y001223D02*
X037449Y001223D01*
X037459Y001199D02*
X037459Y001199D01*
X037384Y001381D02*
X035512Y001381D01*
X035353Y001540D02*
X037330Y001540D01*
X037330Y001698D02*
X035195Y001698D01*
X035036Y001857D02*
X037333Y001857D01*
X037399Y002015D02*
X034878Y002015D01*
X034719Y002174D02*
X037471Y002174D01*
X037630Y002332D02*
X037109Y002332D01*
X037326Y002491D02*
X037916Y002491D01*
X036391Y002332D02*
X034561Y002332D01*
X034402Y002491D02*
X036174Y002491D01*
X036044Y002649D02*
X034244Y002649D01*
X034085Y002808D02*
X035978Y002808D01*
X035940Y002966D02*
X033927Y002966D01*
X033768Y003125D02*
X035940Y003125D01*
X035966Y003283D02*
X033610Y003283D01*
X033451Y003442D02*
X034090Y003442D01*
X033937Y003600D02*
X033293Y003600D01*
X033134Y003759D02*
X033910Y003759D01*
X033964Y003917D02*
X032976Y003917D01*
X032817Y004076D02*
X039250Y004076D01*
X039250Y004234D02*
X032659Y004234D01*
X034370Y003442D02*
X034790Y003442D01*
X035070Y003442D02*
X036031Y003442D01*
X036144Y003600D02*
X035223Y003600D01*
X035250Y003759D02*
X036320Y003759D01*
X027862Y006295D02*
X026768Y006295D01*
X026292Y006295D02*
X024947Y006295D01*
X025044Y006453D02*
X027807Y006453D01*
X027760Y006612D02*
X025094Y006612D01*
X025253Y006770D02*
X027792Y006770D01*
X027880Y006929D02*
X025411Y006929D01*
X025570Y007087D02*
X027880Y007087D01*
X027880Y007246D02*
X025728Y007246D01*
X025887Y007404D02*
X027880Y007404D01*
X027880Y007563D02*
X026045Y007563D01*
X026204Y007721D02*
X027880Y007721D01*
X027880Y007880D02*
X026362Y007880D01*
X026521Y008038D02*
X027880Y008038D01*
X027880Y008197D02*
X026849Y008197D01*
X026900Y008355D02*
X027880Y008355D01*
X027880Y008514D02*
X026871Y008514D01*
X026711Y008672D02*
X027880Y008672D01*
X027880Y008831D02*
X025380Y008831D01*
X025380Y008989D02*
X027880Y008989D01*
X027880Y009148D02*
X025380Y009148D01*
X025380Y009306D02*
X027880Y009306D01*
X027880Y009465D02*
X025380Y009465D01*
X025380Y009623D02*
X027880Y009623D01*
X027880Y009782D02*
X025380Y009782D01*
X025380Y009940D02*
X027880Y009940D01*
X027829Y010099D02*
X025380Y010099D01*
X025380Y010257D02*
X027670Y010257D01*
X027512Y010416D02*
X025380Y010416D01*
X025380Y010574D02*
X027353Y010574D01*
X027195Y010733D02*
X025380Y010733D01*
X025380Y010891D02*
X027036Y010891D01*
X026878Y011050D02*
X025380Y011050D01*
X025380Y011208D02*
X026719Y011208D01*
X026561Y011367D02*
X025380Y011367D01*
X025380Y011525D02*
X026402Y011525D01*
X026244Y011684D02*
X025380Y011684D01*
X025595Y011842D02*
X026085Y011842D01*
X025927Y012001D02*
X025650Y012001D01*
X025623Y012159D02*
X025768Y012159D01*
X025610Y012318D02*
X025472Y012318D01*
X025451Y012476D02*
X024867Y012476D01*
X025025Y012318D02*
X025188Y012318D01*
X025293Y012635D02*
X024708Y012635D01*
X024550Y012793D02*
X025134Y012793D01*
X025383Y013110D02*
X025817Y013110D01*
X025659Y013269D02*
X025224Y013269D01*
X025100Y013427D02*
X025500Y013427D01*
X025342Y013586D02*
X025062Y013586D01*
X025183Y013744D02*
X024858Y013744D01*
X025025Y013903D02*
X024590Y013903D01*
X024451Y014061D02*
X024361Y014151D01*
X024244Y014200D01*
X024116Y014200D01*
X023999Y014151D01*
X023980Y014378D02*
X024549Y014378D01*
X024391Y014537D02*
X024067Y014537D01*
X024100Y014695D02*
X024232Y014695D01*
X024074Y014854D02*
X024054Y014854D01*
X023915Y015012D02*
X022081Y015012D01*
X022239Y014854D02*
X023506Y014854D01*
X023460Y014695D02*
X022398Y014695D01*
X022556Y014537D02*
X023493Y014537D01*
X023580Y014378D02*
X022715Y014378D01*
X022873Y014220D02*
X023537Y014220D01*
X023430Y014061D02*
X023032Y014061D01*
X023190Y013903D02*
X023430Y013903D01*
X023430Y013744D02*
X023349Y013744D01*
X023830Y013744D02*
X023890Y013744D01*
X023860Y013903D02*
X023830Y013903D01*
X023830Y013586D02*
X024055Y013586D01*
X023916Y013427D02*
X024460Y013427D01*
X024501Y013269D02*
X024074Y013269D01*
X024716Y013110D02*
X024817Y013110D01*
X025541Y012952D02*
X025976Y012952D01*
X026134Y012793D02*
X025700Y012793D01*
X025858Y012635D02*
X026293Y012635D01*
X026451Y012476D02*
X026017Y012476D01*
X026175Y012318D02*
X026610Y012318D01*
X026768Y012159D02*
X026334Y012159D01*
X026492Y012001D02*
X026910Y012001D01*
X026941Y011842D02*
X026651Y011842D01*
X026809Y011684D02*
X027110Y011684D01*
X026968Y011525D02*
X027402Y011525D01*
X027561Y011367D02*
X027126Y011367D01*
X027285Y011208D02*
X027719Y011208D01*
X027878Y011050D02*
X027443Y011050D01*
X027602Y010891D02*
X028036Y010891D01*
X028195Y010733D02*
X027760Y010733D01*
X027919Y010574D02*
X028280Y010574D01*
X028280Y010416D02*
X028077Y010416D01*
X028236Y010257D02*
X028280Y010257D01*
X028280Y010099D02*
X028280Y010099D01*
X028280Y009940D02*
X028280Y009940D01*
X028280Y009782D02*
X028280Y009782D01*
X028280Y009623D02*
X028280Y009623D01*
X028280Y009465D02*
X028280Y009465D01*
X028280Y009306D02*
X028280Y009306D01*
X028280Y009148D02*
X028280Y009148D01*
X028280Y008989D02*
X028280Y008989D01*
X028280Y008831D02*
X028280Y008831D01*
X028280Y008672D02*
X028280Y008672D01*
X028280Y008514D02*
X028280Y008514D01*
X028280Y008355D02*
X028322Y008355D01*
X028280Y008197D02*
X028481Y008197D01*
X026449Y008672D02*
X025380Y008672D01*
X025380Y008514D02*
X026289Y008514D01*
X026260Y008355D02*
X025380Y008355D01*
X025380Y008197D02*
X026114Y008197D01*
X025955Y008038D02*
X025775Y008038D01*
X025385Y008038D02*
X025380Y008038D01*
X024604Y007087D02*
X023506Y007087D01*
X023664Y006929D02*
X024446Y006929D01*
X024117Y006770D02*
X023823Y006770D01*
X023981Y006612D02*
X024017Y006612D01*
X023574Y006453D02*
X021730Y006453D01*
X021730Y006612D02*
X023416Y006612D01*
X023257Y006770D02*
X021730Y006770D01*
X021730Y006929D02*
X023099Y006929D01*
X022940Y007087D02*
X022490Y007087D01*
X022591Y007246D02*
X022782Y007246D01*
X022623Y007404D02*
X022596Y007404D01*
X022060Y007563D02*
X021765Y007563D01*
X021730Y007404D02*
X021964Y007404D01*
X021969Y007246D02*
X021730Y007246D01*
X021730Y007087D02*
X022070Y007087D01*
X021906Y007721D02*
X021850Y007721D01*
X021730Y008038D02*
X021725Y008038D01*
X021730Y008197D02*
X021528Y008197D01*
X021488Y008355D02*
X021822Y008355D01*
X021981Y008514D02*
X021646Y008514D01*
X021805Y008672D02*
X022139Y008672D01*
X022298Y008831D02*
X021963Y008831D01*
X022122Y008989D02*
X022456Y008989D01*
X022615Y009148D02*
X022280Y009148D01*
X022509Y009306D02*
X022773Y009306D01*
X022932Y009465D02*
X022599Y009465D01*
X022588Y009623D02*
X023090Y009623D01*
X023249Y009782D02*
X022481Y009782D01*
X022480Y009940D02*
X023407Y009940D01*
X023433Y010099D02*
X022444Y010099D01*
X022286Y010257D02*
X023563Y010257D01*
X024156Y011684D02*
X024844Y011684D01*
X024685Y011842D02*
X024278Y011842D01*
X024320Y012001D02*
X024527Y012001D01*
X024368Y012159D02*
X024303Y012159D01*
X021993Y012635D02*
X019780Y012635D01*
X019780Y012793D02*
X021834Y012793D01*
X021676Y012952D02*
X019780Y012952D01*
X019780Y013110D02*
X021517Y013110D01*
X021359Y013269D02*
X019780Y013269D01*
X019780Y013427D02*
X021200Y013427D01*
X021042Y013586D02*
X019780Y013586D01*
X019780Y013744D02*
X020883Y013744D01*
X020725Y013903D02*
X019780Y013903D01*
X019780Y014061D02*
X020566Y014061D01*
X020408Y014220D02*
X019881Y014220D01*
X019900Y014378D02*
X020249Y014378D01*
X019380Y014061D02*
X018132Y014061D01*
X018290Y013903D02*
X019380Y013903D01*
X019380Y013744D02*
X018449Y013744D01*
X018777Y013586D02*
X019380Y013586D01*
X019380Y013427D02*
X018886Y013427D01*
X018900Y013269D02*
X019380Y013269D01*
X019380Y013110D02*
X018813Y013110D01*
X019011Y012952D02*
X019380Y012952D01*
X019380Y012793D02*
X019100Y012793D01*
X019279Y014220D02*
X017973Y014220D01*
X017815Y014378D02*
X019260Y014378D01*
X018941Y014537D02*
X017656Y014537D01*
X016560Y015012D02*
X013915Y015012D01*
X013545Y015012D02*
X008615Y015012D01*
X008731Y015171D02*
X011107Y015171D01*
X010948Y015329D02*
X008750Y015329D01*
X008675Y015488D02*
X010790Y015488D01*
X012153Y015171D02*
X013429Y015171D01*
X013410Y015329D02*
X012312Y015329D01*
X012470Y015488D02*
X013485Y015488D01*
X013975Y015488D02*
X014355Y015488D01*
X014513Y015646D02*
X012629Y015646D01*
X012456Y014854D02*
X006795Y014854D01*
X006880Y015012D02*
X008245Y015012D01*
X007385Y015646D02*
X006668Y015646D01*
X006380Y015646D02*
X006340Y015646D01*
X006340Y015488D02*
X006380Y015488D01*
X006380Y015329D02*
X006340Y015329D01*
X006340Y015171D02*
X004330Y015171D01*
X004316Y015329D02*
X005827Y015329D01*
X005896Y015488D02*
X004250Y015488D01*
X004084Y015646D02*
X006052Y015646D01*
X005840Y015012D02*
X004300Y015012D01*
X004213Y014854D02*
X005925Y014854D01*
X006600Y014695D02*
X012410Y014695D01*
X014603Y015171D02*
X016407Y015171D01*
X016248Y015329D02*
X014762Y015329D01*
X014920Y015488D02*
X016090Y015488D01*
X015931Y015646D02*
X015079Y015646D01*
X015237Y015805D02*
X015773Y015805D01*
X017629Y016914D02*
X017990Y016914D01*
X018338Y016914D02*
X019368Y016914D01*
X019430Y016940D02*
X019225Y016855D01*
X019067Y016697D01*
X018982Y016491D01*
X018982Y016269D01*
X019067Y016063D01*
X019225Y015905D01*
X019430Y015820D01*
X019653Y015820D01*
X019859Y015905D01*
X020017Y016063D01*
X020102Y016269D01*
X020102Y016491D01*
X020017Y016697D01*
X019859Y016855D01*
X019653Y016940D01*
X019430Y016940D01*
X019716Y016914D02*
X020746Y016914D01*
X020503Y016756D02*
X019958Y016756D01*
X020058Y016597D02*
X020404Y016597D01*
X020360Y016439D02*
X020102Y016439D01*
X020102Y016280D02*
X020360Y016280D01*
X020421Y016122D02*
X020041Y016122D01*
X019917Y015963D02*
X020545Y015963D01*
X021295Y015963D02*
X021923Y015963D01*
X021799Y016122D02*
X021419Y016122D01*
X021480Y016280D02*
X021738Y016280D01*
X021738Y016439D02*
X021480Y016439D01*
X021436Y016597D02*
X021781Y016597D01*
X021881Y016756D02*
X021336Y016756D01*
X021094Y016914D02*
X022124Y016914D01*
X022472Y016914D02*
X023446Y016914D01*
X023453Y016918D02*
X023372Y016876D01*
X023298Y016822D01*
X023233Y016758D01*
X023180Y016684D01*
X023138Y016603D01*
X023110Y016516D01*
X023096Y016426D01*
X023096Y016418D01*
X023638Y016418D01*
X023638Y016960D01*
X023630Y016960D01*
X023540Y016946D01*
X023453Y016918D01*
X023638Y016914D02*
X023714Y016914D01*
X023721Y016960D02*
X023714Y016960D01*
X023714Y016418D01*
X024256Y016418D01*
X024256Y016426D01*
X024241Y016516D01*
X024213Y016603D01*
X024172Y016684D01*
X024118Y016758D01*
X024054Y016822D01*
X023980Y016876D01*
X023898Y016918D01*
X023811Y016946D01*
X023721Y016960D01*
X023905Y016914D02*
X037409Y016914D01*
X037459Y017036D02*
X037459Y017036D01*
X037495Y017073D02*
X017470Y017073D01*
X017312Y017231D02*
X037654Y017231D01*
X038622Y017548D02*
X001244Y017548D01*
X001199Y017276D02*
X001511Y017405D01*
X001849Y017405D01*
X002161Y017276D01*
X002161Y017276D01*
X002401Y017036D01*
X002401Y017036D01*
X002530Y016724D01*
X002530Y016386D01*
X002401Y016074D01*
X002401Y016074D01*
X002401Y016074D01*
X002161Y015834D01*
X002161Y015834D01*
X001849Y015705D01*
X001730Y015705D01*
X001511Y015705D01*
X001199Y015834D01*
X001199Y015834D01*
X000959Y016074D01*
X000959Y016074D01*
X000830Y016386D01*
X000830Y016724D01*
X000959Y017036D01*
X000959Y017036D01*
X001199Y017276D01*
X001199Y017276D01*
X001154Y017231D02*
X000820Y017231D01*
X000713Y017073D02*
X000995Y017073D01*
X000909Y016914D02*
X000661Y016914D01*
X000622Y016756D02*
X000843Y016756D01*
X000830Y016597D02*
X000614Y016597D01*
X000614Y016439D02*
X000830Y016439D01*
X000874Y016280D02*
X000614Y016280D01*
X000614Y016122D02*
X000940Y016122D01*
X001070Y015963D02*
X000614Y015963D01*
X000614Y015805D02*
X001271Y015805D01*
X000614Y015646D02*
X003516Y015646D01*
X003350Y015488D02*
X000614Y015488D01*
X000614Y015329D02*
X003284Y015329D01*
X003270Y015171D02*
X000614Y015171D01*
X000614Y015012D02*
X003300Y015012D01*
X003387Y014854D02*
X000614Y014854D01*
X000614Y014061D02*
X009242Y014061D01*
X009207Y013903D02*
X000614Y013903D01*
X000614Y013744D02*
X009237Y013744D01*
X009354Y013586D02*
X000614Y013586D01*
X002089Y015805D02*
X007254Y015805D01*
X007200Y015963D02*
X002290Y015963D01*
X002420Y016122D02*
X007200Y016122D01*
X007264Y016280D02*
X002486Y016280D01*
X002530Y016439D02*
X007412Y016439D01*
X007471Y016597D02*
X006737Y016597D01*
X006809Y016670D02*
X006890Y016865D01*
X006890Y017075D01*
X006809Y017270D01*
X006660Y017419D01*
X006465Y017500D01*
X006255Y017500D01*
X006060Y017419D01*
X005911Y017270D01*
X005830Y017075D01*
X005830Y016865D01*
X005911Y016670D01*
X006060Y016521D01*
X006255Y016440D01*
X006465Y016440D01*
X006660Y016521D01*
X006809Y016670D01*
X006845Y016756D02*
X007276Y016756D01*
X007208Y016914D02*
X006890Y016914D01*
X006890Y017073D02*
X007200Y017073D01*
X007244Y017231D02*
X006826Y017231D01*
X006690Y017390D02*
X007361Y017390D01*
X006030Y017390D02*
X004130Y017390D01*
X004100Y017419D02*
X003905Y017500D01*
X003695Y017500D01*
X003500Y017419D01*
X003351Y017270D01*
X003270Y017075D01*
X003270Y016865D01*
X003351Y016670D01*
X003500Y016521D01*
X003695Y016440D01*
X003905Y016440D01*
X004100Y016521D01*
X004249Y016670D01*
X004330Y016865D01*
X004330Y017075D01*
X004249Y017270D01*
X004100Y017419D01*
X004266Y017231D02*
X005894Y017231D01*
X005830Y017073D02*
X004330Y017073D01*
X004330Y016914D02*
X005830Y016914D01*
X005875Y016756D02*
X004285Y016756D01*
X004177Y016597D02*
X005983Y016597D01*
X003423Y016597D02*
X002530Y016597D01*
X002517Y016756D02*
X003315Y016756D01*
X003270Y016914D02*
X002451Y016914D01*
X002365Y017073D02*
X003270Y017073D01*
X003334Y017231D02*
X002206Y017231D01*
X001886Y017390D02*
X003470Y017390D01*
X001655Y017620D02*
X001655Y017620D01*
X001474Y017390D02*
X000969Y017390D01*
X018580Y016756D02*
X019125Y016756D01*
X019026Y016597D02*
X018680Y016597D01*
X018724Y016439D02*
X018982Y016439D01*
X018982Y016280D02*
X018724Y016280D01*
X018663Y016122D02*
X019043Y016122D01*
X019167Y015963D02*
X018539Y015963D01*
X021288Y015805D02*
X022673Y015805D01*
X022831Y015646D02*
X021447Y015646D01*
X021605Y015488D02*
X022990Y015488D01*
X023598Y015329D02*
X021764Y015329D01*
X021922Y015171D02*
X023757Y015171D01*
X024005Y015488D02*
X030123Y015488D01*
X030123Y015646D02*
X023847Y015646D01*
X023811Y015814D02*
X023898Y015842D01*
X023980Y015884D01*
X024054Y015938D01*
X024118Y016002D01*
X024172Y016076D01*
X024213Y016157D01*
X024241Y016244D01*
X024256Y016334D01*
X024256Y016342D01*
X023714Y016342D01*
X023714Y016418D01*
X023638Y016418D01*
X023638Y016342D01*
X023714Y016342D01*
X023714Y015800D01*
X023721Y015800D01*
X023811Y015814D01*
X023750Y015805D02*
X030123Y015805D01*
X030123Y015963D02*
X024079Y015963D01*
X024195Y016122D02*
X030200Y016122D01*
X030216Y016137D02*
X030123Y016044D01*
X030123Y014816D01*
X030216Y014723D01*
X031444Y014723D01*
X031537Y014816D01*
X031537Y016044D01*
X031444Y016137D01*
X030216Y016137D01*
X031460Y016122D02*
X035400Y016122D01*
X035416Y016137D02*
X035323Y016044D01*
X035323Y014816D01*
X035416Y014723D01*
X036644Y014723D01*
X036737Y014816D01*
X036737Y016044D01*
X036644Y016137D01*
X035416Y016137D01*
X035323Y015963D02*
X031537Y015963D01*
X031537Y015805D02*
X035323Y015805D01*
X035323Y015646D02*
X031537Y015646D01*
X031537Y015488D02*
X035323Y015488D01*
X035323Y015329D02*
X031537Y015329D01*
X031537Y015171D02*
X035323Y015171D01*
X035323Y015012D02*
X031537Y015012D01*
X031537Y014854D02*
X035323Y014854D01*
X036737Y015805D02*
X037771Y015805D01*
X037699Y015834D02*
X037699Y015834D01*
X037570Y015963D02*
X036737Y015963D01*
X036660Y016122D02*
X037440Y016122D01*
X037459Y016074D02*
X037459Y016074D01*
X037374Y016280D02*
X024247Y016280D01*
X024254Y016439D02*
X037330Y016439D01*
X037330Y016597D02*
X024215Y016597D01*
X024120Y016756D02*
X037343Y016756D01*
X030123Y015329D02*
X024164Y015329D01*
X024322Y015171D02*
X030123Y015171D01*
X030123Y015012D02*
X024481Y015012D01*
X024639Y014854D02*
X030123Y014854D01*
X024342Y013586D02*
X024305Y013586D01*
X023714Y015805D02*
X023638Y015805D01*
X023638Y015800D02*
X023638Y016342D01*
X023096Y016342D01*
X023096Y016334D01*
X023110Y016244D01*
X023138Y016157D01*
X023180Y016076D01*
X023233Y016002D01*
X023298Y015938D01*
X023372Y015884D01*
X023453Y015842D01*
X023540Y015814D01*
X023630Y015800D01*
X023638Y015800D01*
X023601Y015805D02*
X023238Y015805D01*
X023272Y015963D02*
X023080Y015963D01*
X023156Y016122D02*
X022921Y016122D01*
X022858Y016280D02*
X023104Y016280D01*
X023098Y016439D02*
X022858Y016439D01*
X022814Y016597D02*
X023136Y016597D01*
X023232Y016756D02*
X022714Y016756D01*
X023638Y016756D02*
X023714Y016756D01*
X023714Y016597D02*
X023638Y016597D01*
X023638Y016439D02*
X023714Y016439D01*
X023714Y016280D02*
X023638Y016280D01*
X023638Y016122D02*
X023714Y016122D01*
X023714Y015963D02*
X023638Y015963D01*
X012405Y009306D02*
X009439Y009306D01*
X009350Y009148D02*
X012247Y009148D01*
X012170Y008989D02*
X009292Y008989D01*
X005407Y003917D02*
X003653Y003917D01*
X003746Y003759D02*
X005314Y003759D01*
X005280Y003600D02*
X003780Y003600D01*
X003770Y003442D02*
X005290Y003442D01*
X005355Y003283D02*
X003705Y003283D01*
X003554Y003125D02*
X005506Y003125D01*
X006686Y002441D02*
X006662Y002399D01*
X006650Y002354D01*
X006650Y001968D01*
X007192Y001968D01*
X007192Y001892D01*
X007268Y001892D01*
X007268Y001968D01*
X007810Y001968D01*
X007810Y002354D01*
X007798Y002399D01*
X007774Y002441D01*
X007741Y002474D01*
X007699Y002498D01*
X007654Y002510D01*
X007268Y002510D01*
X007268Y001968D01*
X007192Y001968D01*
X007192Y002510D01*
X006806Y002510D01*
X006761Y002498D01*
X006719Y002474D01*
X006686Y002441D01*
X006748Y002491D02*
X001944Y002491D01*
X002161Y002401D02*
X002161Y002401D01*
X002230Y002332D02*
X005716Y002332D01*
X005681Y002326D02*
X005767Y002340D01*
X005790Y002340D01*
X005790Y001810D01*
X005830Y001810D01*
X006360Y001810D01*
X006360Y001833D01*
X006346Y001919D01*
X006320Y002001D01*
X006280Y002078D01*
X006230Y002148D01*
X006168Y002210D01*
X006098Y002260D01*
X006021Y002300D01*
X005939Y002326D01*
X005853Y002340D01*
X005830Y002340D01*
X005830Y001810D01*
X005830Y001770D01*
X006360Y001770D01*
X006360Y001747D01*
X006346Y001661D01*
X006320Y001579D01*
X006280Y001502D01*
X006230Y001432D01*
X006168Y001370D01*
X006098Y001320D01*
X006021Y001280D01*
X005939Y001254D01*
X005853Y001240D01*
X005830Y001240D01*
X005830Y001770D01*
X005790Y001770D01*
X005790Y001240D01*
X005767Y001240D01*
X005681Y001254D01*
X005599Y001280D01*
X005522Y001320D01*
X005452Y001370D01*
X005390Y001432D01*
X005340Y001502D01*
X005300Y001579D01*
X005274Y001661D01*
X005260Y001747D01*
X005260Y001770D01*
X005790Y001770D01*
X005790Y001810D01*
X005260Y001810D01*
X005260Y001833D01*
X005274Y001919D01*
X005300Y002001D01*
X005340Y002078D01*
X005390Y002148D01*
X005452Y002210D01*
X005522Y002260D01*
X005599Y002300D01*
X005681Y002326D01*
X005790Y002332D02*
X005830Y002332D01*
X005904Y002332D02*
X006650Y002332D01*
X006650Y002174D02*
X006204Y002174D01*
X006313Y002015D02*
X006650Y002015D01*
X006650Y001892D02*
X006650Y001506D01*
X006662Y001461D01*
X006686Y001419D01*
X006719Y001386D01*
X006761Y001362D01*
X006806Y001350D01*
X007192Y001350D01*
X007192Y001892D01*
X006650Y001892D01*
X006650Y001857D02*
X006356Y001857D01*
X006352Y001698D02*
X006650Y001698D01*
X006650Y001540D02*
X006300Y001540D01*
X006179Y001381D02*
X006728Y001381D01*
X007192Y001381D02*
X007268Y001381D01*
X007268Y001350D02*
X007654Y001350D01*
X007699Y001362D01*
X007741Y001386D01*
X007774Y001419D01*
X007798Y001461D01*
X007810Y001506D01*
X007810Y001892D01*
X007268Y001892D01*
X007268Y001350D01*
X007268Y001540D02*
X007192Y001540D01*
X007192Y001698D02*
X007268Y001698D01*
X007268Y001857D02*
X007192Y001857D01*
X007192Y002015D02*
X007268Y002015D01*
X007268Y002174D02*
X007192Y002174D01*
X007192Y002332D02*
X007268Y002332D01*
X007268Y002491D02*
X007192Y002491D01*
X007712Y002491D02*
X011180Y002491D01*
X010974Y002332D02*
X010376Y002332D01*
X010303Y002405D02*
X010461Y002247D01*
X010546Y002041D01*
X010546Y001819D01*
X010461Y001613D01*
X010303Y001455D01*
X010097Y001370D01*
X009875Y001370D01*
X009669Y001455D01*
X009511Y001613D01*
X009426Y001819D01*
X009426Y002041D01*
X009511Y002247D01*
X009669Y002405D01*
X009875Y002490D01*
X010097Y002490D01*
X010303Y002405D01*
X010491Y002174D02*
X010859Y002174D01*
X010804Y002015D02*
X010546Y002015D01*
X010546Y001857D02*
X010804Y001857D01*
X010854Y001698D02*
X010496Y001698D01*
X010387Y001540D02*
X010962Y001540D01*
X011226Y001381D02*
X010124Y001381D01*
X009848Y001381D02*
X008746Y001381D01*
X008719Y001370D02*
X008925Y001455D01*
X009083Y001613D01*
X009168Y001819D01*
X009168Y002041D01*
X009083Y002247D01*
X008925Y002405D01*
X008719Y002490D01*
X008497Y002490D01*
X008291Y002405D01*
X008133Y002247D01*
X008048Y002041D01*
X008048Y001819D01*
X008133Y001613D01*
X008291Y001455D01*
X008497Y001370D01*
X008719Y001370D01*
X008470Y001381D02*
X007732Y001381D01*
X007810Y001540D02*
X008206Y001540D01*
X008098Y001698D02*
X007810Y001698D01*
X007810Y001857D02*
X008048Y001857D01*
X008048Y002015D02*
X007810Y002015D01*
X007810Y002174D02*
X008103Y002174D01*
X008218Y002332D02*
X007810Y002332D01*
X008998Y002332D02*
X009596Y002332D01*
X009481Y002174D02*
X009113Y002174D01*
X009168Y002015D02*
X009426Y002015D01*
X009426Y001857D02*
X009168Y001857D01*
X009118Y001698D02*
X009476Y001698D01*
X009584Y001540D02*
X009009Y001540D01*
X011502Y001381D02*
X012604Y001381D01*
X012630Y001370D02*
X012425Y001455D01*
X012267Y001613D01*
X012182Y001819D01*
X012182Y002041D01*
X012267Y002247D01*
X012425Y002405D01*
X012630Y002490D01*
X012853Y002490D01*
X013059Y002405D01*
X013217Y002247D01*
X013302Y002041D01*
X013302Y001819D01*
X013217Y001613D01*
X013059Y001455D01*
X012853Y001370D01*
X012630Y001370D01*
X012880Y001381D02*
X013982Y001381D01*
X014008Y001370D02*
X014231Y001370D01*
X014437Y001455D01*
X014595Y001613D01*
X014680Y001819D01*
X014680Y002041D01*
X014595Y002247D01*
X014437Y002405D01*
X014231Y002490D01*
X014008Y002490D01*
X013803Y002405D01*
X013645Y002247D01*
X013560Y002041D01*
X013560Y001819D01*
X013645Y001613D01*
X013803Y001455D01*
X014008Y001370D01*
X014258Y001381D02*
X015310Y001381D01*
X015275Y001392D02*
X015362Y001364D01*
X015452Y001350D01*
X015460Y001350D01*
X015460Y001892D01*
X015536Y001892D01*
X015536Y001968D01*
X015460Y001968D01*
X015460Y001892D01*
X014918Y001892D01*
X014918Y001884D01*
X014932Y001794D01*
X014960Y001707D01*
X015002Y001626D01*
X015055Y001552D01*
X015120Y001488D01*
X015194Y001434D01*
X015275Y001392D01*
X015460Y001381D02*
X015536Y001381D01*
X015536Y001350D02*
X015543Y001350D01*
X015634Y001364D01*
X015720Y001392D01*
X015802Y001434D01*
X015876Y001488D01*
X015940Y001552D01*
X015994Y001626D01*
X016035Y001707D01*
X016063Y001794D01*
X016078Y001884D01*
X016078Y001892D01*
X015536Y001892D01*
X015536Y001350D01*
X015685Y001381D02*
X016738Y001381D01*
X016764Y001370D02*
X016987Y001370D01*
X017193Y001455D01*
X017350Y001613D01*
X017436Y001819D01*
X017436Y002041D01*
X017350Y002247D01*
X017193Y002405D01*
X016987Y002490D01*
X016764Y002490D01*
X016558Y002405D01*
X016401Y002247D01*
X016316Y002041D01*
X016316Y001819D01*
X016401Y001613D01*
X016558Y001455D01*
X016764Y001370D01*
X017014Y001381D02*
X017776Y001381D01*
X017694Y001540D02*
X017277Y001540D01*
X017386Y001698D02*
X017694Y001698D01*
X017694Y001857D02*
X017436Y001857D01*
X017436Y002015D02*
X017694Y002015D01*
X017694Y002174D02*
X017381Y002174D01*
X017266Y002332D02*
X017694Y002332D01*
X016486Y002332D02*
X015916Y002332D01*
X016025Y002174D02*
X016370Y002174D01*
X016316Y002015D02*
X016071Y002015D01*
X016073Y001857D02*
X016316Y001857D01*
X016366Y001698D02*
X016030Y001698D01*
X015927Y001540D02*
X016474Y001540D01*
X015536Y001540D02*
X015460Y001540D01*
X015460Y001698D02*
X015536Y001698D01*
X015536Y001857D02*
X015460Y001857D01*
X015460Y002015D02*
X015536Y002015D01*
X015536Y002174D02*
X015460Y002174D01*
X015460Y002332D02*
X015536Y002332D01*
X015079Y002332D02*
X014510Y002332D01*
X014625Y002174D02*
X014971Y002174D01*
X014924Y002015D02*
X014680Y002015D01*
X014680Y001857D02*
X014922Y001857D01*
X014965Y001698D02*
X014630Y001698D01*
X014521Y001540D02*
X015068Y001540D01*
X013718Y001540D02*
X013143Y001540D01*
X013252Y001698D02*
X013610Y001698D01*
X013560Y001857D02*
X013302Y001857D01*
X013302Y002015D02*
X013560Y002015D01*
X013614Y002174D02*
X013247Y002174D01*
X013132Y002332D02*
X013730Y002332D01*
X012352Y002332D02*
X011754Y002332D01*
X011869Y002174D02*
X012237Y002174D01*
X012182Y002015D02*
X011924Y002015D01*
X011924Y001857D02*
X012182Y001857D01*
X012232Y001698D02*
X011874Y001698D01*
X011765Y001540D02*
X012340Y001540D01*
X005830Y001540D02*
X005790Y001540D01*
X005790Y001698D02*
X005830Y001698D01*
X005830Y001857D02*
X005790Y001857D01*
X005790Y002015D02*
X005830Y002015D01*
X005830Y002174D02*
X005790Y002174D01*
X005416Y002174D02*
X003616Y002174D01*
X003550Y002239D02*
X003355Y002320D01*
X003145Y002320D01*
X002950Y002239D01*
X002801Y002090D01*
X002720Y001895D01*
X002720Y001685D01*
X002801Y001490D01*
X002950Y001341D01*
X003145Y001260D01*
X003355Y001260D01*
X003550Y001341D01*
X003699Y001490D01*
X003780Y001685D01*
X003780Y001895D01*
X003699Y002090D01*
X003550Y002239D01*
X003730Y002015D02*
X005307Y002015D01*
X005264Y001857D02*
X003780Y001857D01*
X003780Y001698D02*
X005268Y001698D01*
X005320Y001540D02*
X003720Y001540D01*
X003591Y001381D02*
X005441Y001381D01*
X005790Y001381D02*
X005830Y001381D01*
X002909Y001381D02*
X002476Y001381D01*
X002530Y001540D02*
X002780Y001540D01*
X002720Y001698D02*
X002530Y001698D01*
X002527Y001857D02*
X002720Y001857D01*
X002770Y002015D02*
X002461Y002015D01*
X002389Y002174D02*
X002884Y002174D01*
X002946Y003125D02*
X000614Y003125D01*
X000614Y003283D02*
X002795Y003283D01*
X002730Y003442D02*
X000614Y003442D01*
X000614Y003600D02*
X002720Y003600D01*
X002754Y003759D02*
X000614Y003759D01*
X000614Y003917D02*
X002847Y003917D01*
X019730Y002966D02*
X022180Y002966D01*
X022180Y002808D02*
X019730Y002808D01*
X019730Y002649D02*
X022180Y002649D01*
X022180Y002491D02*
X019730Y002491D01*
X020022Y002332D02*
X020620Y002332D01*
X020504Y002174D02*
X020137Y002174D01*
X020192Y002015D02*
X020450Y002015D01*
X020450Y001857D02*
X020192Y001857D01*
X020142Y001698D02*
X020499Y001698D01*
X020608Y001540D02*
X020033Y001540D01*
X021411Y001540D02*
X021986Y001540D01*
X021877Y001698D02*
X021520Y001698D01*
X021570Y001857D02*
X021827Y001857D01*
X021827Y002015D02*
X021570Y002015D01*
X021515Y002174D02*
X021882Y002174D01*
X021998Y002332D02*
X021399Y002332D01*
X022789Y001540D02*
X023364Y001540D01*
X023255Y001698D02*
X022898Y001698D01*
X022947Y001857D02*
X023205Y001857D01*
X022180Y004234D02*
X021952Y004234D01*
X021209Y004868D02*
X020421Y004868D01*
X020500Y005027D02*
X021051Y005027D01*
X020892Y005185D02*
X020483Y005185D01*
X022115Y005978D02*
X024050Y005978D01*
X023891Y006136D02*
X021957Y006136D01*
X021798Y006295D02*
X023733Y006295D01*
X024457Y006136D02*
X026210Y006136D01*
X026226Y005978D02*
X024615Y005978D01*
X024367Y005661D02*
X022432Y005661D01*
X022274Y005819D02*
X024208Y005819D01*
X024525Y005502D02*
X022591Y005502D01*
X022749Y005344D02*
X024684Y005344D01*
D23*
X027180Y004480D03*
X028580Y003830D03*
X031930Y005680D03*
X033930Y004580D03*
X034380Y006530D03*
X037980Y006680D03*
X031280Y008280D03*
X029730Y007930D03*
X028880Y008480D03*
X026130Y009280D03*
X028880Y009680D03*
X028880Y011030D03*
X031530Y010030D03*
X028180Y012630D03*
X025780Y012830D03*
X025980Y011280D03*
X021730Y009280D03*
X022280Y006880D03*
X016980Y005730D03*
X010780Y009080D03*
X012130Y011880D03*
X016480Y012830D03*
X023430Y015130D03*
X025830Y014530D03*
X027380Y015380D03*
X038680Y015180D03*
X028330Y006080D03*
D24*
X035680Y005922D02*
X035688Y005922D01*
M02*
